<svg xmlns="http://www.w3.org/2000/svg" id="svg2" width="76" height="66" version="1.1" viewBox="0 0 76 66">
 <rect id="hint-tile-center" width="2" height="2" x="0" y="36" style="opacity:1;fill:#ff2a2a;fill-opacity:1;stroke:none"/>
 <path id="groove-bottomright" d="m 7,53 v 1 h 1 v -1 z" style="opacity:0.3;fill:#ffffff;fill-opacity:1;stroke:none"/>
 <path id="groove-right" d="m 7,51 v 1 h 1 v -1 z" style="opacity:0.3;fill:#ffffff;fill-opacity:1;stroke:none"/>
 <path id="groove-topright" d="m 7,49 v 1 h 1 v -1 z" style="opacity:0.3;fill:#ffffff;fill-opacity:1;stroke:none"/>
 <path id="groove-bottomleft" d="m 3,53 v 1 h 1 v -1 z" style="opacity:0.3;fill:#ffffff;fill-opacity:1;stroke:none"/>
 <path id="groove-left" d="m 3,51 v 1 h 1 v -1 z" style="opacity:0.3;fill:#ffffff;fill-opacity:1;stroke:none"/>
 <path id="groove-topleft" d="M 4,49 H 3 v 1 h 1 z" style="opacity:0.3;fill:#ffffff;fill-opacity:1;stroke:none"/>
 <path id="groove-bottom" d="m 5,53 v 1 h 1 v -1 z" style="opacity:0.3;fill:#ffffff;fill-opacity:1;stroke:none"/>
 <path id="groove-center" d="M 6,51 H 5 v 1 h 1 z" style="opacity:0.3;fill:#ffffff;fill-opacity:1;stroke:none"/>
 <path id="groove-top" d="m 5,49 v 1 h 1 v -1 z" style="opacity:0.3;fill:#ffffff;fill-opacity:1;stroke:none"/>
 <path id="groove-highlight-bottomright" d="m 7,62 v 1 h 1 v -1 z" style="opacity:1;fill:#4285f4;fill-opacity:1;stroke:none"/>
 <path id="groove-highlight-right" d="m 7,60 v 1 h 1 v -1 z" style="opacity:1;fill:#4285f4;fill-opacity:1;stroke:none"/>
 <path id="groove-highlight-topright" d="m 7,58 v 1 h 1 v -1 z" style="opacity:1;fill:#4285f4;fill-opacity:1;stroke:none"/>
 <path id="groove-highlight-bottomleft" d="m 3,62 v 1 h 1 v -1 z" style="opacity:1;fill:#4285f4;fill-opacity:1;stroke:none"/>
 <path id="groove-highlight-left" d="m 3,60 v 1 h 1 v -1 z" style="opacity:1;fill:#4285f4;fill-opacity:1;stroke:none"/>
 <path id="groove-highlight-topleft" d="M 4,58 H 3 v 1 h 1 z" style="opacity:1;fill:#4285f4;fill-opacity:1;stroke:none"/>
 <path id="groove-highlight-bottom" d="m 5,62 v 1 h 1 v -1 z" style="opacity:1;fill:#4285f4;fill-opacity:1;stroke:none"/>
 <path id="groove-highlight-center" d="M 6,60 H 5 v 1 h 1 z" style="opacity:1;fill:#4285f4;fill-opacity:1;stroke:none"/>
 <path id="groove-highlight-top" d="m 5,58 v 1 h 1 v -1 z" style="opacity:1;fill:#4285f4;fill-opacity:1;stroke:none"/>
 <g id="horizontal-slider-handle" transform="matrix(0.6875,0,0,0.6875,-7.187504,41.250002)">
  <rect id="rect1851" width="32" height="32" x="25" y="4" style="opacity:0;fill:#000000;fill-opacity:1;fill-rule:nonzero;stroke:none;stroke-width:3.95016599;stroke-linecap:square;stroke-linejoin:round;stroke-miterlimit:4;stroke-dasharray:none;stroke-opacity:1"/>
  <circle style="opacity:1;fill:#4285f4;fill-opacity:1;stroke:none;stroke-width:0.90909094;stroke-miterlimit:4;stroke-dasharray:none" id="circle1845" cx="41" cy="20" r="7.273"/>
 </g>
 <g id="horizontal-slider-hover" transform="matrix(0.6875,0,0,0.6875,14.8125,41.25)">
  <rect style="opacity:0;fill:#000000;fill-opacity:1;fill-rule:nonzero;stroke:none;stroke-width:3.95016599;stroke-linecap:square;stroke-linejoin:round;stroke-miterlimit:4;stroke-dasharray:none;stroke-opacity:1" id="rect869" width="32" height="32" x="25" y="4"/>
  <circle style="opacity:0.2;fill:#4285f4;fill-opacity:1;stroke:none;stroke-width:2;stroke-miterlimit:4;stroke-dasharray:none" id="circle878" cx="41" cy="20" r="16"/>
  <circle id="circle871" cx="41" cy="20" r="7.273" style="opacity:1;fill:#4285f4;fill-opacity:1;stroke:none;stroke-width:0.90909094;stroke-miterlimit:4;stroke-dasharray:none"/>
 </g>
 <g id="horizontal-slider-focus" transform="matrix(0.6875,0,0,0.6875,36.8125,41.25)">
  <rect id="rect885" width="32" height="32" x="25" y="4" style="opacity:0;fill:#000000;fill-opacity:1;fill-rule:nonzero;stroke:none;stroke-width:3.95016599;stroke-linecap:square;stroke-linejoin:round;stroke-miterlimit:4;stroke-dasharray:none;stroke-opacity:1"/>
  <circle id="circle887" cx="41" cy="20" r="16" style="opacity:0.3;fill:#4285f4;fill-opacity:1;stroke:none;stroke-width:2;stroke-miterlimit:4;stroke-dasharray:none"/>
  <circle style="opacity:1;fill:#4285f4;fill-opacity:1;stroke:none;stroke-width:0.90909094;stroke-miterlimit:4;stroke-dasharray:none" id="circle890" cx="41" cy="20" r="7.273"/>
 </g>
 <g id="vertical-slider-handle" transform="matrix(0.6875,0,0,0.6875,-7.1875,19.25)">
  <rect style="opacity:0;fill:#000000;fill-opacity:1;fill-rule:nonzero;stroke:none;stroke-width:3.95016599;stroke-linecap:square;stroke-linejoin:round;stroke-miterlimit:4;stroke-dasharray:none;stroke-opacity:1" id="rect894" width="32" height="32" x="25" y="4"/>
  <circle id="circle896" cx="41" cy="20" r="7.273" style="opacity:1;fill:#4285f4;fill-opacity:1;stroke:none;stroke-width:0.90909094;stroke-miterlimit:4;stroke-dasharray:none"/>
 </g>
 <g id="vertical-slider-hover" transform="matrix(0.6875,0,0,0.6875,14.8125,19.25)">
  <rect id="rect900" width="32" height="32" x="25" y="4" style="opacity:0;fill:#000000;fill-opacity:1;fill-rule:nonzero;stroke:none;stroke-width:3.95016599;stroke-linecap:square;stroke-linejoin:round;stroke-miterlimit:4;stroke-dasharray:none;stroke-opacity:1"/>
  <circle id="circle902" cx="41" cy="20" r="16" style="opacity:0.2;fill:#4285f4;fill-opacity:1;stroke:none;stroke-width:2;stroke-miterlimit:4;stroke-dasharray:none"/>
  <circle style="opacity:1;fill:#4285f4;fill-opacity:1;stroke:none;stroke-width:0.90909094;stroke-miterlimit:4;stroke-dasharray:none" id="circle904" cx="41" cy="20" r="7.273"/>
 </g>
 <g id="vertical-slider-focus" transform="matrix(0.6875,0,0,0.6875,36.8125,19.25)">
  <rect style="opacity:0;fill:#000000;fill-opacity:1;fill-rule:nonzero;stroke:none;stroke-width:3.95016599;stroke-linecap:square;stroke-linejoin:round;stroke-miterlimit:4;stroke-dasharray:none;stroke-opacity:1" id="rect908" width="32" height="32" x="25" y="4"/>
  <circle style="opacity:0.3;fill:#4285f4;fill-opacity:1;stroke:none;stroke-width:2;stroke-miterlimit:4;stroke-dasharray:none" id="circle910" cx="41" cy="20" r="16"/>
  <circle id="circle912" cx="41" cy="20" r="7.273" style="opacity:1;fill:#4285f4;fill-opacity:1;stroke:none;stroke-width:0.90909094;stroke-miterlimit:4;stroke-dasharray:none"/>
 </g>
 <circle style="fill:#ff0000;fill-opacity:1;stroke:none;stroke-width:1.10000002;stroke-opacity:1" id="hint-handle-size" cx="65" cy="11" r="11"/>
</svg>
