<svg xmlns="http://www.w3.org/2000/svg" xmlns:xlink="http://www.w3.org/1999/xlink" id="svg7080" width="257" height="161" version="1">
 <defs id="defs7082">
  <linearGradient id="linearGradient8746">
   <stop id="stop8748" offset="0" style="stop-color:#ffffff;stop-opacity:1"/>
   <stop id="stop8750" offset="1" style="stop-color:#ffffff;stop-opacity:0"/>
  </linearGradient>
  <linearGradient id="linearGradient8734">
   <stop id="stop8736" offset="0" style="stop-color:#ffffff;stop-opacity:1"/>
   <stop id="stop8738" offset="1" style="stop-color:#ffffff;stop-opacity:0"/>
  </linearGradient>
  <radialGradient id="radialGradient12915" cx="355.285" cy="229.368" r="70" fx="355.285" fy="229.368" gradientTransform="matrix(1.7747169,0,0,1.1566649,-709.57584,314.76359)" gradientUnits="userSpaceOnUse" xlink:href="#linearGradient8734"/>
  <radialGradient id="radialGradient12922" cx="355.059" cy="222.732" r="70" fx="355.059" fy="222.732" gradientTransform="matrix(1.7796094,-6.4399432e-7,0,3.4826371,-711.1346,-185.51868)" gradientUnits="userSpaceOnUse" xlink:href="#linearGradient8734"/>
  <radialGradient id="radialGradient12928" cx="355.266" cy="236.553" r="70" fx="355.266" fy="236.553" gradientTransform="matrix(1.7796094,0,0,1.1558382,-711.13504,274.58542)" gradientUnits="userSpaceOnUse" xlink:href="#linearGradient8734"/>
  <radialGradient id="radialGradient12935" cx="355.266" cy="236.553" r="70" fx="355.266" fy="236.553" gradientTransform="matrix(0.6520708,-6.4204842e-7,0,1.1584286,-351.80505,274.01364)" gradientUnits="userSpaceOnUse" xlink:href="#linearGradient8734"/>
  <radialGradient id="radialGradient12941" cx="353.747" cy="269.55" r="70" fx="353.747" fy="269.55" gradientTransform="matrix(0.6498357,0,0,1.1513867,-350.8407,269.14221)" gradientUnits="userSpaceOnUse" xlink:href="#linearGradient8746"/>
  <radialGradient id="radialGradient12949" cx="355.285" cy="229.368" r="70" fx="355.285" fy="229.368" gradientTransform="matrix(-1.7747169,0,0,1.1550902,469.58919,315.1048)" gradientUnits="userSpaceOnUse" xlink:href="#linearGradient8734"/>
  <radialGradient id="radialGradient12955" cx="355.059" cy="222.732" r="70" fx="355.059" fy="222.732" gradientTransform="matrix(-1.7796094,-6.4399419e-7,0,3.4826364,471.13462,-185.51859)" gradientUnits="userSpaceOnUse" xlink:href="#linearGradient8734"/>
  <radialGradient id="radialGradient12962" cx="355.266" cy="236.553" r="70" fx="355.266" fy="236.553" gradientTransform="matrix(-1.7796094,0,0,1.1576875,471.13463,274.18938)" gradientUnits="userSpaceOnUse" xlink:href="#linearGradient8734"/>
  <linearGradient id="linearGradient4306" x1="317.917" x2="317.917" y1="909.772" y2="912.772" gradientUnits="userSpaceOnUse" xlink:href="#linearGradient4254-7"/>
  <linearGradient id="linearGradient4254-7">
   <stop id="stop4256" offset="0" style="stop-color:#888888;stop-opacity:1"/>
   <stop id="stop4258" offset="1" style="stop-color:#232323;stop-opacity:1"/>
  </linearGradient>
  <linearGradient id="linearGradient5705">
   <stop id="stop5707" offset="0" style="stop-color:#efefef;stop-opacity:0.93599999"/>
   <stop id="stop5709" offset="1" style="stop-color:#ededed;stop-opacity:0"/>
  </linearGradient>
 </defs>
 <rect style="opacity:0.875;fill:#008000;fill-opacity:1;stroke:none" id="hint-tile-center" width="40" height="40" x="216" y="1"/>
 <path style="opacity:0.05;fill:#ffffff;fill-opacity:1;fill-rule:nonzero;stroke:none" id="selected-center" d="m 30,15.01572 v 48 h 48 v -48 z"/>
 <g id="selected-left" transform="matrix(1,0,0,3.0009825,-160.14285,-2475.3868)">
  <path style="opacity:0.05;fill:#ffffff;fill-rule:nonzero;stroke:none" id="path4119" d="m 186.14285,829.85712 v 16 h 4 v -16 z"/>
 </g>
 <g id="selected-topleft" transform="translate(-160.14285,-814.85718)">
  <path style="opacity:0.05;fill:#ffffff;fill-opacity:1;fill-rule:nonzero;stroke:none" id="path4131" d="m 186.14285,829.8571 h 4 v -4 h -1.46875 c -1.40502,0 -2.53125,1.11588 -2.53125,2.53125 z"/>
 </g>
 <g id="selected-top" transform="matrix(0.36657704,0,0,1,-39.71201,-814.8414)">
  <path style="opacity:0.05;fill:#ffffff;fill-opacity:1;fill-rule:nonzero;stroke:none" id="path4143" d="m 190.14286,825.85714 v 4 h 131 v -4 z"/>
 </g>
 <g id="selected-topright" transform="translate(-243.14285,-814.8414)">
  <path style="opacity:0.05;fill:#ffffff;fill-opacity:1;fill-rule:nonzero;stroke:none" id="path4155" d="m 321.14285,825.85714 v 4 h 4 v -1.46875 c 0,-1.40502 -1.11588,-2.53125 -2.53125,-2.53125 z"/>
 </g>
 <g id="selected-right" transform="matrix(1,0,0,3.0000017,-243.14285,-2474.557)">
  <path style="opacity:0.05;fill:#ffffff;fill-opacity:1;fill-rule:nonzero;stroke:none" id="path4167" d="m 325.14286,829.85712 v 16 h -4 v -16 z"/>
 </g>
 <path style="opacity:0.00499998;fill:#ffffff;fill-opacity:0.07843137;fill-rule:nonzero;stroke:none" id="normal-center" d="m 129.99999,17.01572 v 48 h 48 v -48 z"/>
 <g style="opacity:0.00499998" id="normal-bottom" transform="matrix(0.36657704,0,0,0.49999749,60.28798,-353.92645)">
  <g id="g4980">
   <path style="opacity:0.82272728;fill:#ffffff;fill-opacity:0.07843137;fill-rule:nonzero;stroke:none" id="path4983" d="m 190.12705,845.85714 v 4 l 130.9842,-0.0625 v -3.9375 z"/>
   <path style="opacity:0.85;fill:#000000;fill-opacity:0.15686275;fill-rule:nonzero;stroke:none" id="path4985" d="m 190.14285,849.85714 v 1 h 131 v -1 z"/>
   <path style="fill:#ffffff;fill-opacity:0.15686275;fill-rule:nonzero;stroke:none" id="path4987" d="m 190.14285,848.85714 v 1 h 131 v -1 z"/>
  </g>
  <rect style="opacity:0.52100004;fill:#ffffff;fill-opacity:0;stroke:none" id="rect4989" width="1" height="2" x="547" y="869" transform="translate(-342.85715,-17.142857)"/>
 </g>
 <g style="opacity:0.00499998" id="normal-bottomleft" transform="matrix(0.5714288,0,0,0.49999749,18.34689,-353.92645)">
  <g id="g4993">
   <path style="opacity:0.85;fill:#000000;fill-opacity:0.15686275;fill-rule:nonzero;stroke:none" id="path4995" d="m 188.6741,850.85716 c -1.94821,0 -3.53125,-1.58839 -3.53125,-3.53125 v -1.46875 h 1 v 1.46875 c 0,1.40502 1.11588,2.53125 2.53125,2.53125 h 1.46875 v 1 z"/>
   <path style="opacity:0.82272728;fill:#ffffff;fill-opacity:0.07843137;fill-rule:nonzero;stroke:none" id="path4997" d="m 190.14285,849.8572 v -4 h -4 v 1.46875 c 0,1.40502 1.11588,2.53125 2.53125,2.53125 z"/>
   <path style="fill:#ffffff;fill-opacity:0.15686275;stroke:none" id="path4999" d="m 188.74285,849.85718 c -1.66084,0 -2.6,-1.19855 -2.6,-2.7 v -1.3 h 1 l -0.021,1.29373 c -0.0208,1.28062 0.23073,1.70627 1.62099,1.70627 h 1.4 v 1 z"/>
  </g>
  <rect style="opacity:0.52100004;fill:#ffffff;fill-opacity:0;stroke:none" id="rect5001" width="2" height="2" x="183.14" y="851.86"/>
 </g>
 <g style="opacity:0.00499998" id="normal-left" transform="matrix(0.5714288,0,0,3.0009825,18.34689,-2473.3868)">
  <g id="g5005">
   <path style="opacity:0.82272728;fill:#ffffff;fill-opacity:0.07843137;fill-rule:nonzero;stroke:none" id="path5007" d="m 186.14285,829.85712 v 16 h 4 v -16 z"/>
   <path style="opacity:0.85;fill:#000000;fill-opacity:0.15686275;fill-rule:nonzero;stroke:none" id="path5009" d="m 185.14285,829.85715 v 15.99999 h 1 v -15.99999 z"/>
   <path style="fill:#ffffff;fill-opacity:0.15686275;fill-rule:nonzero;stroke:none" id="path5011" d="m 186.14285,829.85715 v 15.99999 h 1 v -15.99999 z"/>
  </g>
  <rect style="opacity:0.52100004;fill:#ffffff;fill-opacity:0;stroke:none" id="rect5013" width="2" height="3" x="183.14" y="834.86"/>
 </g>
 <g style="opacity:0.00499998" id="normal-topleft" transform="matrix(0.5714288,0,0,0.57143084,18.34689,-457.206)">
  <g id="g5017">
   <path style="opacity:0.82272728;fill:#ffffff;fill-opacity:0.07843137;fill-rule:nonzero;stroke:none" id="path5019" d="m 186.14285,829.8571 h 4 v -4 h -1.46875 c -1.40502,0 -2.53125,1.11588 -2.53125,2.53125 z"/>
   <path style="opacity:0.85;fill:#000000;fill-opacity:0.15686275;fill-rule:nonzero;stroke:none" id="path5021" d="m 185.14285,828.3884 c 0,-1.94821 1.58839,-3.53125 3.53125,-3.53125 h 1.46875 v 1 h -1.46875 c -1.40502,0 -2.53125,1.11588 -2.53125,2.53125 v 1.46875 h -1 z"/>
   <path style="fill:#ffffff;fill-opacity:0.15686275;fill-rule:nonzero;stroke:none" id="path5023" d="m 186.14285,829.8571 h 1 v -1 c 0,-1.41537 0.59498,-2 2,-2 h 1 v -1 h -1.46875 c -1.40502,0 -2.53125,1.11588 -2.53125,2.53125 z"/>
  </g>
  <rect style="opacity:0.52100004;fill:#ffffff;fill-opacity:0;stroke:none" id="rect5025" width="2" height="2" x="183.14" y="822.86"/>
 </g>
 <g style="opacity:0.00499998" id="normal-top" transform="matrix(0.36657704,0,0,0.57143165,60.28798,-457.1909)">
  <g id="g5029">
   <path style="opacity:0.82272728;fill:#ffffff;fill-opacity:0.07843137;fill-rule:nonzero;stroke:none" id="path5031" d="m 190.14286,825.85714 v 4 h 131 v -4 z"/>
   <path style="opacity:0.85;fill:#000000;fill-opacity:0.15686275;fill-rule:nonzero;stroke:none" id="path5033" d="m 190.14285,824.85714 v 1 h 131 v -1 z"/>
   <path style="fill:#ffffff;fill-opacity:0.15686275;fill-rule:nonzero;stroke:none" id="path5035" d="m 190.14285,825.85714 v 1 h 131 v -1 z"/>
  </g>
  <rect style="opacity:0.52100004;fill:#ffffff;fill-opacity:0;stroke:none" id="rect5037" width="3" height="2" x="200.14" y="822.86"/>
 </g>
 <g style="opacity:0.00499998" id="normal-topright" transform="matrix(0.57142857,0,0,0.57143165,-5.51021,-457.1909)">
  <g id="g5041">
   <path style="opacity:0.82272728;fill:#ffffff;fill-opacity:0.07843137;fill-rule:nonzero;stroke:none" id="path5043" d="m 321.14285,825.85714 v 4 h 4 v -1.46875 c 0,-1.40502 -1.11588,-2.53125 -2.53125,-2.53125 z"/>
   <path style="opacity:0.85;fill:#000000;fill-opacity:0.15686275;fill-rule:nonzero;stroke:none" id="path5045" d="m 322.6116,824.85714 c 1.94821,0 3.53125,1.58839 3.53125,3.53125 v 1.46875 h -1 v -1.46875 c 0,-1.40502 -1.11588,-2.53125 -2.53125,-2.53125 h -1.46875 v -1 z"/>
   <path style="fill:#ffffff;fill-opacity:0.15686275;fill-rule:nonzero;stroke:none" id="path5047" d="m 325.14285,829.8571 h -1 v -1 c 0,-1.41537 -0.59498,-2 -2,-2 h -1 v -1 h 1.46875 c 1.40502,0 2.53125,1.11588 2.53125,2.53125 z"/>
  </g>
  <rect style="opacity:0.52100004;fill:#ffffff;fill-opacity:0;stroke:none" id="rect5049" width="2" height="2" x="326.14" y="822.86"/>
 </g>
 <g style="opacity:0.00499998" id="normal-right" transform="matrix(0.57142857,0,0,3.0000017,-5.51021,-2472.557)">
  <g id="g5053">
   <path style="opacity:0.82272728;fill:#ffffff;fill-opacity:0.07843137;fill-rule:nonzero;stroke:none" id="path5055" d="m 325.14286,829.85712 v 16 h -4 v -16 z"/>
   <path style="opacity:0.85;fill:#000000;fill-opacity:0.15686275;fill-rule:nonzero;stroke:none" id="path5057" d="m 326.14286,829.85715 v 15.99999 h -1 v -15.99999 z"/>
   <path style="fill:#ffffff;fill-opacity:0.15686275;fill-rule:nonzero;stroke:none" id="path5059" d="m 325.14285,829.85714 v 15.99999 h -1 v -15.99999 z"/>
  </g>
  <rect style="opacity:0.52100004;fill:#ffffff;fill-opacity:0;stroke:none" id="rect5061" width="2" height="3" x="326.14" y="832.86"/>
 </g>
 <g style="opacity:0.00499998" id="normal-bottomright" transform="matrix(0.57142857,0,0,0.49999749,-5.51021,-353.92645)">
  <g id="g5065">
   <g id="g5067">
    <path style="opacity:0.82272728;fill:#ffffff;fill-opacity:0.07843137;fill-rule:nonzero;stroke:none" id="path5071" d="m 325.1429,845.85714 h -4 v 4 h 1.46875 c 1.40502,0 2.53125,-1.11588 2.53125,-2.53125 z"/>
    <path style="fill:#ffffff;fill-opacity:0.15686275;stroke:none" id="path5069" d="m 322.14285,849.85714 c 1.59707,0 3,-0.57542 3,-2.99996 0,-0.94263 0,-1 0,-1 h -1 c 0,0.88676 0,0.28587 0,1 0,0.89359 -0.31679,1.99996 -2,1.99996 h -1 v 1 z"/>
    <path style="opacity:0.85199998;fill:#000000;fill-opacity:0.15686275;fill-rule:nonzero;stroke:none" id="path5073" d="m 326.14286,847.32589 c 0,1.94821 -1.58839,3.53125 -3.53125,3.53125 h -1.46875 v -1 h 1.46875 c 1.40502,0 2.53125,-1.11588 2.53125,-2.53125 v -1.46875 h 1 z"/>
   </g>
  </g>
  <rect style="opacity:0.52100004;fill:#ffffff;fill-opacity:0;stroke:none" id="rect5075" width="2" height="2" x="326.14" y="851.86"/>
 </g>
 <path style="opacity:0.32;fill:#4285f4;fill-opacity:1;fill-rule:nonzero;stroke:none" id="hover-center" d="m 45,93.46828 v 48 h 48 v -48 z"/>
 <g id="hover-left" transform="matrix(1,0,0,3.0009825,-145.14285,-2396.9342)">
  <path style="opacity:0.32;fill:#4285f4;fill-opacity:1;fill-rule:nonzero;stroke:none" id="path4119-9" d="m 186.14285,829.85712 v 16 h 4 v -16 z"/>
 </g>
 <g id="hover-topleft" transform="translate(-145.14285,-736.3891)">
  <path style="opacity:0.32;fill:#4285f4;fill-opacity:1;fill-rule:nonzero;stroke:none" id="path3133" d="m 186.14285,829.8571 h 4 v -4 h -1.46875 c -1.40502,0 -2.53125,1.11588 -2.53125,2.53125 z"/>
 </g>
 <g id="hover-top" transform="matrix(0.36657704,0,0,1,-24.71201,-736.38884)">
  <path style="opacity:0.32;fill:#4285f4;fill-opacity:1;fill-rule:nonzero;stroke:none" id="path4143-7" d="m 190.14286,825.85714 v 4 h 131 v -4 z"/>
 </g>
 <g id="hover-topright" transform="translate(-228.14285,-736.38884)">
  <path style="opacity:0.32;fill:#4285f4;fill-opacity:1;fill-rule:nonzero;stroke:none" id="path4155-3" d="m 321.14285,825.85714 v 4 h 4 v -1.46875 c 0,-1.40502 -1.11588,-2.53125 -2.53125,-2.53125 z"/>
 </g>
 <g id="hover-right" transform="matrix(1,0,0,3.0000017,-228.14285,-2396.1044)">
  <path style="opacity:0.32;fill:#4285f4;fill-opacity:1;fill-rule:nonzero;stroke:none" id="path4167-1" d="m 325.14286,829.85712 v 16 h -4 v -16 z"/>
 </g>
 <path style="fill:#4285f4;fill-opacity:1;fill-rule:nonzero;stroke:none;opacity:0.45" id="selected+hover-center" d="m 150,93.26324 v 48 h 48 v -48 z"/>
 <g id="selected+hover-left" transform="matrix(1,0,0,3.0009825,-40.14285,-2397.1393)">
  <path style="fill:#4285f4;fill-rule:nonzero;stroke:none;opacity:0.45" id="path4119-9-6" d="m 186.14285,829.85712 v 16 h 4 v -16 z"/>
 </g>
 <g id="selected+hover-topleft" transform="translate(-40.14285,-736.60966)">
  <path style="fill:#4285f4;fill-opacity:1;fill-rule:nonzero;stroke:none;opacity:0.45" id="path4131-9-7" d="m 186.14285,829.8571 h 4 v -4 h -1.46875 c -1.40502,0 -2.53125,1.11588 -2.53125,2.53125 z"/>
 </g>
 <g id="selected+hover-top" transform="matrix(0.36657704,0,0,1,80.28799,-736.59388)">
  <path style="fill:#4285f4;fill-opacity:1;fill-rule:nonzero;stroke:none;opacity:0.45" id="path4143-7-8" d="m 190.14286,825.85714 v 4 h 131 v -4 z"/>
 </g>
 <g id="selected+hover-topright" transform="translate(-123.14285,-736.59388)">
  <path style="fill:#4285f4;fill-opacity:1;fill-rule:nonzero;stroke:none;opacity:0.45" id="path4155-3-0" d="m 321.14285,825.85714 v 4 h 4 v -1.46875 c 0,-1.40502 -1.11588,-2.53125 -2.53125,-2.53125 z"/>
 </g>
 <g id="selected+hover-right" transform="matrix(1,0,0,3.0000017,-123.14285,-2396.3095)">
  <path style="fill:#4285f4;fill-opacity:1;fill-rule:nonzero;stroke:none;opacity:0.45" id="path4167-1-9" d="m 325.14286,829.85712 v 16 h -4 v -16 z"/>
 </g>
 <g id="selected-bottomright" transform="rotate(180,134.07142,446.4364)">
  <path style="opacity:0.05;fill:#ffffff;fill-opacity:1;fill-rule:nonzero;stroke:none" id="path4131-3" d="m 186.14285,829.8571 h 4 v -4 h -1.46875 c -1.40502,0 -2.53125,1.11588 -2.53125,2.53125 z"/>
 </g>
 <g id="selected-bottom" transform="matrix(-0.36657704,0,0,-1,147.7236,892.8729)">
  <path style="opacity:0.05;fill:#ffffff;fill-opacity:1;fill-rule:nonzero;stroke:none" id="path4143-6" d="m 190.14286,825.85714 v 4 h 131 v -4 z"/>
 </g>
 <g id="selected-bottomleft" transform="rotate(180,175.57142,446.43645)">
  <path style="opacity:0.05;fill:#ffffff;fill-opacity:1;fill-rule:nonzero;stroke:none" id="path4155-5" d="m 321.14285,825.85714 v 4 h 4 v -1.46875 c 0,-1.40502 -1.11588,-2.53125 -2.53125,-2.53125 z"/>
 </g>
 <g id="hover-bottomright" transform="rotate(180,141.57143,485.66275)">
  <path style="opacity:0.32;fill:#4285f4;fill-opacity:1;fill-rule:nonzero;stroke:none" id="path3133-3" d="m 186.14285,829.8571 h 4 v -4 h -1.46875 c -1.40502,0 -2.53125,1.11588 -2.53125,2.53125 z"/>
 </g>
 <g id="hover-bottom" transform="matrix(-0.36657704,0,0,-1,162.7236,971.3257)">
  <path style="opacity:0.32;fill:#4285f4;fill-opacity:1;fill-rule:nonzero;stroke:none" id="path4143-7-6" d="m 190.14286,825.85714 v 4 h 131 v -4 z"/>
 </g>
 <g id="hover-bottomleft" transform="rotate(180,183.07142,485.6627)">
  <path style="opacity:0.32;fill:#4285f4;fill-opacity:1;fill-rule:nonzero;stroke:none" id="path4155-3-03" d="m 321.14285,825.85714 v 4 h 4 v -1.46875 c 0,-1.40502 -1.11588,-2.53125 -2.53125,-2.53125 z"/>
 </g>
 <g id="selected_hover-bottomright" transform="rotate(180,194.07143,485.5602)">
  <path style="fill:#4285f4;fill-opacity:1;fill-rule:nonzero;stroke:none;opacity:0.45" id="path4131-9-7-7" d="m 186.14285,829.8571 h 4 v -4 h -1.46875 c -1.40502,0 -2.53125,1.11588 -2.53125,2.53125 z"/>
 </g>
 <g id="selected_hover-bottom" transform="matrix(-0.36657704,0,0,-1,267.7236,971.1203)">
  <path style="fill:#4285f4;fill-opacity:1;fill-rule:nonzero;stroke:none;opacity:0.45" id="path4143-7-8-4" d="m 190.14286,825.85714 v 4 h 131 v -4 z"/>
 </g>
 <g id="selected_hover-bottomleft" transform="rotate(180,235.57142,485.5602)">
  <path style="fill:#4285f4;fill-opacity:1;fill-rule:nonzero;stroke:none;opacity:0.45" id="path4155-3-0-0" d="m 321.14285,825.85714 v 4 h 4 v -1.46875 c 0,-1.40502 -1.11588,-2.53125 -2.53125,-2.53125 z"/>
 </g>
</svg>
