<svg xmlns="http://www.w3.org/2000/svg" width="48" height="48" version="1.1">
 <g id="remove-normal" transform="translate(0,-18)">
  <rect style="opacity:0.001" width="16" height="16" x="0" y="34"/>
  <path style="fill:#424242" d="m 15,41.999999 a 6.9999999,6.9999999 0 0 1 -7,6.999999 6.9999999,6.9999999 0 0 1 -7,-6.999999 6.9999999,6.9999999 0 0 1 7,-7 6.9999999,6.9999999 0 0 1 7,7 z"/>
  <rect style="fill:#dfdfdf" width="2" height="8" x="41" y="-12" transform="rotate(90)"/>
 </g>
 <g id="add-normal" transform="translate(0,-18)">
  <rect style="opacity:0.001" width="16" height="16" x="0" y="18"/>
  <path style="fill:#424242" d="m 15,25.999999 a 6.9999999,6.9999999 0 0 1 -7,6.999999 6.9999999,6.9999999 0 0 1 -7,-6.999999 6.9999999,6.9999999 0 0 1 7,-7 6.9999999,6.9999999 0 0 1 7,7 z"/>
  <rect style="fill:#dfdfdf" width="2" height="8" x="7" y="22"/>
  <rect style="fill:#dfdfdf" width="2" height="8" x="25" y="-12" transform="rotate(90)"/>
 </g>
 <g id="open-normal" transform="translate(0,-18)">
  <rect style="opacity:0.001" width="16" height="16" x="0" y="50"/>
  <path style="fill:#424242" d="m 15,57.999999 a 6.9999999,6.9999999 0 0 1 -7,6.999999 6.9999999,6.9999999 0 0 1 -7,-6.999999 6.9999999,6.9999999 0 0 1 7,-7 6.9999999,6.9999999 0 0 1 7,7 z"/>
  <path style="fill:#dfdfdf" transform="matrix(1.0755682,0,0,0.77622444,-0.90681813,26.622351)" d="M 8.2810355,36.558561 10.140518,39.779279 12,42.999997 l -3.7189646,0 -3.7189647,0 1.8594824,-3.220718 z"/>
 </g>
 <g id="remove-hover" transform="translate(16,-18)">
  <rect style="opacity:0.001" width="16" height="16" x="0" y="34"/>
  <path style="fill:#424242" d="m 15,41.999999 a 6.9999999,6.9999999 0 0 1 -7,6.999999 6.9999999,6.9999999 0 0 1 -7,-6.999999 6.9999999,6.9999999 0 0 1 7,-7 6.9999999,6.9999999 0 0 1 7,7 z"/>
  <rect style="fill:#ffffff" width="2" height="8" x="41" y="-12" transform="rotate(90)"/>
 </g>
 <g id="add-hover" transform="translate(16,-18)">
  <rect style="opacity:0.001" width="16" height="16" x="0" y="18"/>
  <path style="fill:#424242" d="m 15,25.999999 a 6.9999999,6.9999999 0 0 1 -7,6.999999 6.9999999,6.9999999 0 0 1 -7,-6.999999 6.9999999,6.9999999 0 0 1 7,-7 6.9999999,6.9999999 0 0 1 7,7 z"/>
  <rect style="fill:#ffffff" width="2" height="8" x="7" y="22"/>
  <rect style="fill:#ffffff" width="2" height="8" x="25" y="-12" transform="rotate(90)"/>
 </g>
 <g id="open-hover" transform="translate(16,-18)">
  <rect style="opacity:0.001" width="16" height="16" x="0" y="50"/>
  <path style="fill:#424242" d="m 15,57.999999 a 6.9999999,6.9999999 0 0 1 -7,6.999999 6.9999999,6.9999999 0 0 1 -7,-6.999999 6.9999999,6.9999999 0 0 1 7,-7 6.9999999,6.9999999 0 0 1 7,7 z"/>
  <path style="fill:#ffffff" transform="matrix(1.0755682,0,0,0.77622444,-0.90681813,26.622351)" d="M 8.2810355,36.558561 10.140518,39.779279 12,42.999997 l -3.7189646,0 -3.7189647,0 1.8594824,-3.220718 z"/>
 </g>
 <g id="remove-pressed" transform="translate(32,-18)">
  <rect style="opacity:0.001" width="16" height="16" x="0" y="34"/>
  <path style="fill:#424242" d="m 15,41.999999 a 6.9999999,6.9999999 0 0 1 -7,6.999999 6.9999999,6.9999999 0 0 1 -7,-6.999999 6.9999999,6.9999999 0 0 1 7,-7 6.9999999,6.9999999 0 0 1 7,7 z"/>
  <rect style="fill:#ffffff" width="2" height="8" x="41" y="-12" transform="rotate(90)"/>
 </g>
 <g id="add-pressed" transform="translate(32,-18)">
  <rect style="opacity:0.001" width="16" height="16" x="0" y="18"/>
  <path style="fill:#424242" d="m 15,25.999999 a 6.9999999,6.9999999 0 0 1 -7,6.999999 6.9999999,6.9999999 0 0 1 -7,-6.999999 6.9999999,6.9999999 0 0 1 7,-7 6.9999999,6.9999999 0 0 1 7,7 z"/>
  <rect style="fill:#ffffff" width="2" height="8" x="7" y="22"/>
  <rect style="fill:#ffffff" width="2" height="8" x="25" y="-12" transform="rotate(90)"/>
 </g>
 <g id="open-pressed" transform="translate(32,-18)">
  <rect style="opacity:0.001" width="16" height="16" x="0" y="50"/>
  <path style="fill:#424242" d="m 15,57.999999 a 6.9999999,6.9999999 0 0 1 -7,6.999999 6.9999999,6.9999999 0 0 1 -7,-6.999999 6.9999999,6.9999999 0 0 1 7,-7 6.9999999,6.9999999 0 0 1 7,7 z"/>
  <path style="fill:#ffffff" transform="matrix(1.0755682,0,0,0.77622444,-0.90681813,26.622351)" d="M 8.2810355,36.558561 10.140518,39.779279 12,42.999997 l -3.7189646,0 -3.7189647,0 1.8594824,-3.220718 z"/>
 </g>
</svg>
