<svg xmlns="http://www.w3.org/2000/svg" id="svg59" width="172" height="172" version="1">
 <g id="ClockFace">
  <rect style="opacity:0.00100002;stroke-width:0.82692307" id="rect19" width="172" height="172" x="0" y="0"/>
  <path style="opacity:0.02999998" id="rect21" d="M 86 11 C 127.55 11 161 44.45 161 86 C 161 127.55 127.55 161 86 161 C 44.45 161 11 127.55 11 86 C 11 44.45 44.45 11 86 11 z M 86 11 C 43.342 11 9 45.342 9 88 C 9 130.658 43.342 165 86 165 C 128.658 165 163 130.658 163 88 C 163 45.342 128.658 11 86 11 z"/>
  <path style="opacity:0.02999998" id="rect23" d="M 35.357422 30.595703 C 19.490995 44.592954 9.5 65.081272 9.5 88 C 9.5 130.381 43.619 164.5 86 164.5 C 128.381 164.5 162.5 130.381 162.5 88 C 162.5 65.081272 152.509 44.592954 136.64258 30.595703 C 151.62511 44.290392 161 64.008401 161 86 C 161 127.55 127.55 161 86 161 C 44.45 161 11 127.55 11 86 C 11 64.008401 20.374889 44.290392 35.357422 30.595703 z"/>
  <path style="opacity:0.02999998" id="rect25" d="M 21.027344 48.447266 C 14.027531 59.956171 10 73.490124 10 88 C 10 130.104 43.896 164 86 164 C 128.104 164 162 130.104 162 88 C 162 73.490124 157.97247 59.956171 150.97266 48.447266 C 157.3425 59.480709 161 72.293788 161 86 C 161 127.55 127.55 161 86 161 C 44.45 161 11 127.55 11 86 C 11 72.293788 14.657502 59.480709 21.027344 48.447266 z"/>
  <path style="opacity:0.02999998" id="rect27" d="M 13.154297 68.076172 C 11.43422 74.421081 10.5 81.09602 10.5 88 C 10.5 129.827 44.173 163.5 86 163.5 C 127.827 163.5 161.5 129.827 161.5 88 C 161.5 81.09602 160.56578 74.421081 158.8457 68.076172 C 160.24393 73.817535 161 79.816253 161 86 C 161 127.55 127.55 161 86 161 C 44.45 161 11 127.55 11 86 C 11 79.816253 11.756068 73.817535 13.154297 68.076172 z"/>
  <path style="opacity:0.02999998" id="rect29" d="M 15.230469 61.070312 C 12.176051 69.290099 10.5 78.191152 10.5 87.5 C 10.5 129.327 44.173 163 86 163 C 127.827 163 161.5 129.327 161.5 87.5 C 161.5 78.191152 159.82395 69.290099 156.76953 61.070312 C 159.49994 68.865475 161 77.249537 161 86 C 161 127.55 127.55 161 86 161 C 44.45 161 11 127.55 11 86 C 11 77.249537 12.500061 68.865475 15.230469 61.070312 z"/>
  <path style="opacity:0.02999998" id="rect31" d="M 21.427734 47.75 C 14.490093 59.173893 10.5 72.603657 10.5 87 C 10.5 128.827 44.173 162.5 86 162.5 C 127.827 162.5 161.5 128.827 161.5 87 C 161.5 72.603657 157.50991 59.173893 150.57227 47.75 C 157.19294 58.938167 161 72.005488 161 86 C 161 127.55 127.55 161 86 161 C 44.45 161 11 127.55 11 86 C 11 72.005488 14.807058 58.938167 21.427734 47.75 z"/>
  <path style="opacity:0.02999998" id="rect33" d="M 82.103516 11.097656 C 42.101451 13.112309 10.5 45.980094 10.5 86.5 C 10.5 128.327 44.173 162 86 162 C 127.827 162 161.5 128.327 161.5 86.5 C 161.5 45.971582 129.88509 13.099766 89.871094 11.097656 C 129.60824 13.098967 161 45.748438 161 86 C 161 127.55 127.55 161 86 161 C 44.45 161 11 127.55 11 86 C 11 45.748438 42.391756 13.098967 82.128906 11.097656 C 82.120502 11.098077 82.111919 11.097233 82.103516 11.097656 z"/>
  <path style="opacity:0.02999998" id="rect35" d="M 86 10.5 C 44.173 10.5 10.5 44.173 10.5 86 C 10.5 127.827 44.173 161.5 86 161.5 C 127.827 161.5 161.5 127.827 161.5 86 C 161.5 44.173 127.827 10.5 86 10.5 z M 86 11 C 127.55 11 161 44.45 161 86 C 161 127.55 127.55 161 86 161 C 44.45 161 11 127.55 11 86 C 11 44.45 44.45 11 86 11 z"/>
  <rect style="fill:#383838" id="rect37" width="150" height="150" x="-161" y="-161" rx="75" ry="75" transform="matrix(0,-1,-1,0,0,0)"/>
  <path style="fill:#dfdfdf" id="path39" d="M 79.396484,18 C 78.452552,18.605042 77.564942,19.259618 76,19.511719 V 21 h 3 v 13 h -4 v 2 H 85 V 34 H 81 V 18 Z m 12.064456,0 c -2.02488,0 -3.11617,1.039143 -4.38477,2.574219 l 1.3418,1.263672 C 89.19864,20.748482 89.97356,20 91.19336,20 92.97428,20 94,21.267994 94,23.199219 c 0,3.09491 -2.5843,6.31359 -7,11.488281 V 36 H 97 V 34 H 90.5 C 94.03744,29.568088 95.99805,26.442745 95.99805,23.125 95.99805,20.03009 94.2665,18 91.46094,18 Z M 22.644531,77 C 20.131841,77 18,79.195638 18,82.53711 c 0,3.56097 1.750961,5.39062 4.212891,5.39062 1.34518,0 2.588274,-0.78044 3.552734,-1.95117 -0.1269,5.36585 -1.852289,7.14453 -3.730469,7.14453 -0.96447,0 -1.902578,-0.48618 -2.511718,-1.33984 l -1.294922,1.38867 C 19.091466,94.2187 20.385427,95 22.060547,95 25.258517,95 28,92.3408 28,85.31641 28,79.852982 25.614081,77 22.644531,77 Z m 126.367189,0 c -1.75308,0 -3.25817,0.90163 -4.44336,2.169922 l 1.25976,1.390625 c 0.86422,-1.04878 1.9006,-1.730469 3.01172,-1.730469 1.53087,0 2.51758,0.999713 2.51758,2.707031 0,1.780481 -1.13469,3.292971 -4.09765,3.292971 v 1.70703 c 3.28396,0 4.54296,1.33999 4.54296,3.48633 0,1.97561 -1.33395,3.09765 -2.98828,3.09765 -1.55555,0 -2.7647,-0.87805 -3.6289,-2 L 144,92.56055 C 144.98765,93.82888 146.64275,95 149.0625,95 151.80324,95 154,93.17087 154,90.14648 c 0,-2.46341 -1.48115,-4.02391 -3.16016,-4.51171 v -0.0977 c 1.58024,-0.68293 2.69141,-2.04997 2.69141,-4.220704 C 153.53125,78.584779 151.70309,77 149.01172,77 Z M 22.695312,78.78125 c 1.725882,0 2.841882,1.853095 3.044922,5.41406 -1.01523,1.5122 -2.15661,2.02344 -3.044922,2.02344 -1.59899,0 -2.486328,-1.26701 -2.486328,-3.68164 0,-2.292691 1.014238,-3.75586 2.486328,-3.75586 z M 86.93945,136 C 83.74148,136 81,138.63481 81,145.68359 81,151.147 83.38593,154 86.35547,154 88.86816,154 91,151.80436 91,148.46289 c 0,-3.56097 -1.75096,-5.39062 -4.21289,-5.39062 -1.34518,0 -2.58826,0.78044 -3.55273,1.95117 0.12689,-5.36585 1.85229,-7.14453 3.73046,-7.14453 0.96447,0 1.90258,0.48618 2.51172,1.33984 l 1.29492,-1.41406 C 89.90853,136.7803 88.61458,136 86.93945,136 Z m -0.63476,8.78125 c 1.59899,0 2.48633,1.26701 2.48633,3.68164 0,2.2683 -1.01425,3.75586 -2.48633,3.75586 -1.72588,0 -2.84188,-1.85309 -3.04492,-5.41406 1.01524,-1.5122 2.1566,-2.02344 3.04492,-2.02344 z"/>
  <path style="fill:#696969" id="path41" d="M 55.90625,31.039062 A 4,4 0 0 0 54,31.574219 4,4 0 0 0 52.535156,37.039062 4,4 0 0 0 58,38.501953 a 4,4 0 0 0 1.464844,-5.462891 4,4 0 0 0 -3.558594,-2 z m 60.1875,0 a 4,4 0 0 0 -3.55859,2 A 4,4 0 0 0 114,38.501953 4,4 0 0 0 119.46484,37.039062 4,4 0 0 0 118,31.574219 4,4 0 0 0 116.09375,31.039062 Z M 34.132812,53 A 4,4 0 0 0 33.849609,53.0039 4,4 0 0 0 30.574219,55 4,4 0 0 0 32.039062,60.464844 4,4 0 0 0 37.501953,59 4,4 0 0 0 36.039062,53.535156 4,4 0 0 0 34.132812,53 Z M 138.15039,53.0039 A 4,4 0 0 0 135.96094,53.53515 4,4 0 0 0 134.49805,59 4,4 0 0 0 139.96094,60.464844 4,4 0 0 0 141.42578,55 4,4 0 0 0 138.15039,53.003906 Z M 138.05469,113 a 4,4 0 0 0 -0.28125,0.004 4,4 0 0 0 -3.27539,1.99609 4,4 0 0 0 1.46289,5.46484 A 4,4 0 0 0 141.42578,119 4,4 0 0 0 139.96094,113.53516 4,4 0 0 0 138.05469,113 Z m -103.828128,0.004 a 4,4 0 0 0 -2.1875,0.53125 A 4,4 0 0 0 30.574219,119 4,4 0 0 0 36.039062,120.46484 4,4 0 0 0 37.501953,115 4,4 0 0 0 34.226562,113.00391 Z M 56.09375,134.96289 A 4,4 0 0 0 52.535156,136.96094 4,4 0 0 0 54,142.42578 4,4 0 0 0 59.464844,140.96094 4,4 0 0 0 58,135.49805 4,4 0 0 0 56.09375,134.96289 Z m 59.8125,0 A 4,4 0 0 0 114,135.49805 a 4,4 0 0 0 -1.46484,5.46289 4,4 0 0 0 5.46484,1.46484 4,4 0 0 0 1.46484,-5.46484 4,4 0 0 0 -3.55859,-1.99805 z"/>
  <path id="path43" d="m 70.446587,103.4818 c -0.161803,0 -0.308699,0.0433 -0.441082,0.13152 -0.117675,0.0736 -0.221304,0.16169 -0.309561,0.26466 -0.07355,0.10296 -0.191062,0.27309 -0.352865,0.50844 -0.51483,0.76489 -1.124041,1.72825 -1.830093,2.8903 -0.706052,1.16204 -1.53801,2.70685 -2.494122,4.63377 -0.956111,1.92694 -1.610193,3.566 -1.963219,4.91928 0.01471,-0.55896 0.0951,-1.88262 0.242194,-3.97135 0.147094,-2.10345 0.221344,-3.67763 0.221344,-4.722 0,-1.8975 -0.184019,-3.19178 -0.551755,-3.88312 -0.940739,0.1673 -1.199748,0.283 -1.589502,1.23663 L 54.38476,121 c 0.176513,0 0.345041,-0.051 0.506845,-0.15398 0.176513,-0.0883 0.360531,-0.25678 0.551754,-0.50684 0.205932,-0.25006 0.389951,-0.52996 0.551754,-0.83886 0.176513,-0.29418 0.397657,-0.70709 0.662426,-1.23664 l 0.749039,-1.61034 0.882165,-2.05144 1.015293,-2.44921 1.21418,-2.95606 1.456375,-3.39874 c 0.02942,0.41186 0.0433,0.82477 0.0433,1.23664 0,0.76488 -0.05876,2.31582 -0.176433,4.65461 -0.117673,2.3388 -0.176433,3.91297 -0.176433,4.722 -10e-7,0.92669 0.0665,1.61015 0.198888,2.05143 0.147094,0.42658 0.403758,0.63998 0.771494,0.63998 0.05884,0 0.170211,-0.0293 0.332015,-0.0882 0.588376,-1.73571 1.485235,-3.92685 2.691407,-6.57454 1.206172,-2.6624 2.279303,-4.59687 3.220706,-5.80304 l -1.124361,4.34667 c -0.25006,1.04437 -0.492837,2.28763 -0.728187,3.72915 -0.235351,1.44152 -0.352866,2.71416 -0.352866,3.81737 0,0.9414 0.117515,1.58774 0.352866,1.94076 0.23535,0.35303 0.720904,0.5293 1.456375,0.5293 -0.02942,-0.11766 -0.07429,-0.26456 -0.133127,-0.44108 -0.05884,-0.17651 -0.09436,-0.30952 -0.109068,-0.39778 -0.01471,-0.0736 -0.03795,-0.1972 -0.06736,-0.37371 -0.01467,-0.16181 -0.02085,-0.36132 -0.02085,-0.59667 0,-1.32385 0.205653,-3.24282 0.617516,-5.75813 0.426573,-2.53002 0.888891,-4.76603 1.38901,-6.70767 0.294188,-1.17675 0.625102,-2.20662 0.992837,-3.08918 -0.264769,-0.10296 -0.4998,-0.15398 -0.705732,-0.15398 z m 15.461953,2.42676 c -0.42657,0 -1.01415,0.61695 -1.76433,1.85255 -0.73547,1.22087 -1.42668,2.66979 -2.07389,4.34667 -0.117675,0 -0.442447,-0.0294 -0.971986,-0.0882 v 0.39777 c 0.176513,0.0589 0.442527,0.1176 0.795553,0.17644 -0.485636,1.29781 -0.817322,2.41214 -1.02652,3.38109 -0.539651,0.87584 -1.084202,1.58719 -1.634411,2.11239 -0.647215,0.60309 -1.183781,0.90462 -1.610354,0.90462 -0.250059,0 -0.441825,-0.0943 -0.574209,-0.28549 -0.117673,-0.20593 -0.176433,-0.43483 -0.176433,-0.68489 0,-0.39716 0.213398,-0.9786 0.63997,-1.74349 0.164023,-0.29409 0.296824,-0.53939 0.397778,-0.7378 0.188361,-0.39456 0.351782,-0.85463 0.48118,-1.19815 0.135739,-0.45723 0.265779,-1.01773 0.247006,-1.17407 0,-0.48542 -0.191766,-0.88283 -0.574208,-1.19173 -0.382445,-0.3089 -0.860253,-0.46354 -1.433921,-0.46354 -0.911984,0 -1.853712,0.38193 -2.824533,1.14682 -0.970821,0.76488 -1.764051,1.67723 -2.381847,2.73632 -0.603085,1.05908 -0.90462,2.02244 -0.90462,2.89029 -10e-7,0.58838 0.15464,1.03681 0.463538,1.34571 0.294188,0.3236 0.683859,0.48599 1.16927,0.48599 0.514829,0 1.029762,-0.20566 1.544591,-0.61752 0.529539,-0.41186 1.124862,-1.0598 1.786786,-1.94237 -0.04412,0.25006 -0.06576,0.46347 -0.06576,0.63998 0,0.42657 0.131403,0.78686 0.396172,1.08105 0.279479,0.3089 0.676897,0.46354 1.191726,0.46354 0.794309,0 1.60303,-0.37419 2.426757,-1.12437 0.479106,-0.42867 0.888621,-0.93611 1.243051,-1.50449 -0.03108,0.27841 -0.06095,0.55572 -0.06095,0.79716 0,1.45623 0.654081,2.18456 1.963214,2.18456 1.01495,0 1.98606,-0.40355 2.91276,-1.21257 0.44439,-0.39502 0.84169,-0.84583 1.19813,-1.34571 0.009,0.72874 0.23363,1.32594 0.68008,1.78679 0.4707,0.48541 1.14026,0.72819 2.00813,0.72819 1.1032,0 2.17793,-0.39742 3.22231,-1.19173 0.78648,-0.59817 1.44335,-1.34254 1.97124,-2.23268 l 0.0128,0.0256 c 0.6178,-1.05907 1.27348,-2.47087 1.96482,-4.236 0.0294,0.0294 0.11756,0.0959 0.26465,0.19889 0.1618,0.10296 0.26383,0.17561 0.30796,0.21974 l 0.24379,0.22134 c 0.11769,0.10296 0.19035,0.19885 0.21975,0.2871 0.0441,0.0736 0.089,0.18332 0.13312,0.33041 0.0441,0.13239 0.0658,0.27314 0.0658,0.42023 0,0.38245 -0.20565,1.05817 -0.61752,2.02898 -0.39716,0.95612 -0.59666,1.65507 -0.59666,2.09635 0,0.42657 0.14075,0.77138 0.42023,1.03614 0.29418,0.26477 0.6916,0.39778 1.19172,0.39778 0.88257,0 1.75779,-0.38967 2.62565,-1.16928 0.44449,-0.39928 0.83282,-0.83013 1.16927,-1.29116 -0.0305,0.21959 -0.0529,0.42755 -0.0529,0.60789 0,0.54425 0.1485,0.98493 0.44269,1.32325 0.29419,0.35302 0.71324,0.5293 1.25748,0.5293 0.88257,0 1.72067,-0.3448 2.51498,-1.03615 0.23564,-0.20136 0.44925,-0.43413 0.6512,-0.68166 -0.0103,0.11667 -0.0288,0.23624 -0.0288,0.34965 0,0.58838 0.15464,1.0368 0.46354,1.3457 0.29418,0.32361 0.68385,0.486 1.16927,0.486 0.51483,0 1.02976,-0.20566 1.54459,-0.61752 0.52954,-0.41187 1.12486,-1.0598 1.78678,-1.94236 -0.0441,0.25006 -0.0658,0.46346 -0.0658,0.63997 0,0.42657 0.13301,0.78686 0.39778,1.08105 0.27947,0.3089 0.67689,0.46354 1.19172,0.46354 0.7943,-2e-5 1.60303,-0.37419 2.42676,-1.12437 0.83843,-0.75017 1.48476,-1.71514 1.94076,-2.89189 l -0.21974,-0.21974 c -0.63251,1.1032 -1.2727,1.96294 -1.91991,2.58073 -0.64721,0.60309 -1.18378,0.90462 -1.61036,0.90462 -0.25005,0 -0.44182,-0.0943 -0.57421,-0.28549 -0.11763,-0.20593 -0.17643,-0.43483 -0.17643,-0.68489 0,-0.39715 0.2134,-0.97859 0.63998,-1.74348 0.085,-0.15247 0.16036,-0.29136 0.22775,-0.41702 0.29056,-0.49328 0.47265,-1.06559 0.64158,-1.57507 0.0463,-0.16792 0.10052,-0.3452 0.13312,-0.51165 0.091,-0.46445 0.12941,-0.72746 0.0417,-1.08908 -0.0618,-0.255 -0.26542,-0.5256 -0.49241,-0.70894 -0.38245,-0.3089 -0.86025,-0.46353 -1.43391,-0.46353 -0.91199,0 -1.85373,0.38193 -2.82454,1.14682 -0.97083,0.76488 -1.76566,1.67723 -2.38345,2.73631 -0.28909,0.50766 -0.5039,0.99267 -0.65441,1.45637 -0.87044,1.34834 -1.75041,2.03059 -2.63848,2.03059 -0.38244,0 -0.66074,-0.0881 -0.83725,-0.26466 -0.16181,-0.19122 -0.2438,-0.54537 -0.2438,-1.06019 0,-0.60309 0.19177,-1.30204 0.57421,-2.09635 0.38244,-0.80902 0.76437,-1.52961 1.14682,-2.16211 0.38244,-0.6325 0.57421,-1.03606 0.57421,-1.21257 0,-0.32361 -0.16239,-0.486 -0.486,-0.486 -0.4707,0 -0.9624,0.40517 -1.47723,1.21419 -0.51483,0.80901 -0.92773,1.69812 -1.23663,2.66895 -0.0773,0.24298 -0.11526,0.4363 -0.17322,0.6544 -0.31907,0.53547 -0.76479,1.07487 -1.34089,1.61838 -0.7649,0.73546 -1.4716,1.1035 -2.1188,1.1035 -0.44129,0 -0.66083,-0.22114 -0.66083,-0.66242 0,-0.27948 0.18402,-0.84542 0.55175,-1.69857 0.36774,-0.86786 0.55016,-1.54517 0.55016,-2.03059 0,-0.42657 -0.11752,-0.80849 -0.35287,-1.14681 -0.23535,-0.35302 -0.49201,-0.61744 -0.77149,-0.79395 -0.27948,-0.17651 -0.53775,-0.36053 -0.7731,-0.55176 -0.23535,-0.20593 -0.35287,-0.3977 -0.35287,-0.57421 0,-0.0294 0.0371,-0.15467 0.11068,-0.37532 0.0883,-0.23534 0.13312,-0.38224 0.13312,-0.44108 0,-0.35303 -0.10363,-0.5293 -0.30956,-0.5293 -0.1618,0 -0.3597,0.15464 -0.59506,0.46354 -0.22064,0.2942 -0.33201,0.64059 -0.33201,1.03775 0,0.20593 0.0742,0.3822 0.22134,0.5293 -0.41562,1.22165 -0.91751,2.41912 -1.49487,3.59763 -0.55939,1.02254 -1.26284,1.89353 -2.12361,2.60158 -0.91199,0.75018 -1.8166,1.12596 -2.71387,1.12596 -1.16204,0 -1.74348,-0.61855 -1.74348,-1.85414 0,-0.27949 0.0294,-0.54389 0.0882,-0.79395 1.35327,-0.13238 2.60428,-0.6102 3.75161,-1.43392 1.14734,-0.82373 1.72103,-1.7732 1.72103,-2.84699 0,-0.89727 -0.45617,-1.3457 -1.36817,-1.3457 -1.265,0 -2.51601,0.72058 -3.75161,2.1621 -0.97879,1.14194 -1.56251,2.25606 -1.76593,3.34261 -0.4091,0.6496 -0.84924,1.20499 -1.32645,1.64403 -0.73548,0.66192 -1.47769,0.99284 -2.22787,0.99284 -0.44128,0 -0.75831,-0.13141 -0.94954,-0.39617 -0.19122,-0.26477 -0.285494,-0.72869 -0.285494,-1.39062 0,-1.35326 0.403554,-2.94907 1.212574,-4.78775 h 0.33202 0.10906 c 0.95611,0 2.21487,-0.0881 3.77407,-0.26464 v -0.39778 c -0.88257,0.0883 -1.93407,0.13312 -3.15495,0.13312 h -0.8164 c 0.33832,-0.72076 0.76351,-1.53722 1.27834,-2.44921 0.52954,-0.91198 0.9347,-1.64031 1.21418,-2.18456 0.29419,-0.54425 0.44108,-0.92618 0.44108,-1.14682 0,-0.14709 -0.051,-0.26622 -0.15398,-0.35446 -0.0883,-0.0883 -0.19188,-0.13153 -0.30956,-0.13153 z m 21.06772,1.76433 c -0.36773,0 -0.72803,0.11912 -1.08106,0.35447 -0.35302,0.23535 -0.5309,0.49976 -0.5309,0.79395 0,0.48541 0.30154,0.72819 0.90462,0.72819 0.35303,0 0.6778,-0.12527 0.97198,-0.37533 0.3089,-0.26477 0.46355,-0.54467 0.46355,-0.83885 0,-0.44128 -0.24278,-0.66243 -0.72819,-0.66243 z m -14.75302,4.14938 c 0.3089,0 0.46354,0.16853 0.46354,0.50685 0,0.83843 -0.47942,1.62552 -1.43552,2.36099 -0.94141,0.73548 -1.9264,1.28753 -2.95606,1.65527 0.3089,-1.0885 0.8687,-2.11062 1.67772,-3.06673 0.80902,-0.97083 1.55898,-1.45638 2.25032,-1.45638 z m -15.636781,0.28551 c 0.600301,0 0.950271,0.28646 1.050579,0.8581 0.08999,0.35645 -0.06923,0.67486 -0.171621,0.98161 -0.195169,0.43952 -0.471384,0.83892 -0.739416,1.24145 l -0.250214,0.36089 c -0.191222,0.27948 -0.492757,0.68464 -0.904621,1.21417 -0.397153,0.51483 -0.743559,0.92614 -1.037747,1.23504 -0.294188,0.3089 -0.617356,0.58879 -0.970381,0.83885 -0.353026,0.25006 -0.662306,0.37532 -0.927077,0.37532 -0.397152,0 -0.59506,-0.28763 -0.59506,-0.8613 0,-0.72076 0.227285,-1.56661 0.683277,-2.53744 0.470701,-0.98553 1.067629,-1.84526 1.78839,-2.58073 0.735471,-0.75018 1.426676,-1.12596 2.073891,-1.12596 z m 36.240961,0 c 0.60978,0 0.96151,0.29555 1.05539,0.88536 0.053,0.5886 -0.21054,1.06035 -0.45231,1.52856 -0.12061,0.18825 -0.25569,0.36986 -0.38495,0.55657 l -0.32719,0.47156 c -0.19122,0.27948 -0.49437,0.68464 -0.90623,1.21417 -0.39716,0.51483 -0.74196,0.92614 -1.03615,1.23504 -0.29419,0.3089 -0.61735,0.58879 -0.97038,0.83885 -0.35302,0.25006 -0.66232,0.37532 -0.92707,0.37532 -0.39716,0 -0.59506,-0.28763 -0.59506,-0.8613 0,-0.72076 0.22729,-1.56661 0.68328,-2.53744 0.4707,-0.98553 1.06602,-1.84526 1.78678,-2.58073 0.73547,-0.75018 1.42667,-1.12596 2.07389,-1.12596 z" style="font-size:medium;line-height:1.25;letter-spacing:0px;word-spacing:0px;opacity:0.2;stroke-width:0.82121587"/>
  <path id="path47" d="m 70.446587,102.4818 c -0.161803,0 -0.308699,0.0433 -0.441082,0.13152 -0.117675,0.0736 -0.221304,0.16169 -0.309561,0.26466 -0.07355,0.10296 -0.191062,0.27309 -0.352865,0.50844 -0.51483,0.76489 -1.124041,1.72825 -1.830093,2.8903 -0.706052,1.16204 -1.53801,2.70685 -2.494122,4.63377 -0.956111,1.92694 -1.610193,3.566 -1.963219,4.91928 0.01471,-0.55896 0.0951,-1.88262 0.242194,-3.97135 0.147094,-2.10345 0.221344,-3.67763 0.221344,-4.722 0,-1.8975 -0.184019,-3.19178 -0.551755,-3.88312 -0.940739,0.1673 -1.199748,0.283 -1.589502,1.23663 L 54.38476,120 c 0.176513,0 0.345041,-0.051 0.506845,-0.15398 0.176513,-0.0883 0.360531,-0.25678 0.551754,-0.50684 0.205932,-0.25006 0.389951,-0.52996 0.551754,-0.83886 0.176513,-0.29418 0.397657,-0.70709 0.662426,-1.23664 l 0.749039,-1.61034 0.882165,-2.05144 1.015293,-2.44921 1.21418,-2.95606 1.456375,-3.39874 c 0.02942,0.41186 0.0433,0.82477 0.0433,1.23664 0,0.76488 -0.05876,2.31582 -0.176433,4.65461 -0.117673,2.3388 -0.176433,3.91297 -0.176433,4.722 -10e-7,0.92669 0.0665,1.61015 0.198888,2.05143 0.147094,0.42658 0.403758,0.63998 0.771494,0.63998 0.05884,0 0.170211,-0.0293 0.332015,-0.0882 0.588376,-1.73571 1.485235,-3.92685 2.691407,-6.57454 1.206172,-2.6624 2.279303,-4.59687 3.220706,-5.80304 l -1.124361,4.34667 c -0.25006,1.04437 -0.492837,2.28763 -0.728187,3.72915 -0.235351,1.44152 -0.352866,2.71416 -0.352866,3.81737 0,0.9414 0.117515,1.58774 0.352866,1.94076 0.23535,0.35303 0.720904,0.5293 1.456375,0.5293 -0.02942,-0.11766 -0.07429,-0.26456 -0.133127,-0.44108 -0.05884,-0.17651 -0.09436,-0.30952 -0.109068,-0.39778 -0.01471,-0.0736 -0.03795,-0.1972 -0.06736,-0.37371 -0.01467,-0.16181 -0.02085,-0.36132 -0.02085,-0.59667 0,-1.32385 0.205653,-3.24282 0.617516,-5.75813 0.426573,-2.53002 0.888891,-4.76603 1.38901,-6.70767 0.294188,-1.17675 0.625102,-2.20662 0.992837,-3.08918 -0.264769,-0.10296 -0.4998,-0.15398 -0.705732,-0.15398 z m 15.461953,2.42676 c -0.42657,0 -1.01415,0.61695 -1.76433,1.85255 -0.73547,1.22087 -1.42668,2.66979 -2.07389,4.34667 -0.117675,0 -0.442447,-0.0294 -0.971986,-0.0882 v 0.39777 c 0.176513,0.0589 0.442527,0.1176 0.795553,0.17644 -0.485636,1.29781 -0.817322,2.41214 -1.02652,3.38109 -0.539651,0.87584 -1.084202,1.58719 -1.634411,2.11239 -0.647215,0.60308 -1.183781,0.90462 -1.610354,0.90462 -0.250059,0 -0.441825,-0.0943 -0.574209,-0.2855 -0.117673,-0.20593 -0.176433,-0.43482 -0.176433,-0.68488 0,-0.39716 0.213398,-0.9786 0.63997,-1.74349 0.164023,-0.29409 0.296824,-0.53939 0.397778,-0.7378 0.188361,-0.39456 0.351782,-0.85463 0.48118,-1.19815 0.135739,-0.45723 0.265779,-1.01773 0.247006,-1.17407 0,-0.48542 -0.191766,-0.88283 -0.574208,-1.19173 -0.382445,-0.3089 -0.860253,-0.46354 -1.433921,-0.46354 -0.911984,0 -1.853712,0.38193 -2.824533,1.14682 -0.970821,0.76488 -1.764051,1.67723 -2.381847,2.73632 -0.603085,1.05908 -0.90462,2.02244 -0.90462,2.89029 -10e-7,0.58838 0.15464,1.03681 0.463538,1.34571 0.294188,0.3236 0.683859,0.48599 1.16927,0.48599 0.514829,0 1.029762,-0.20566 1.544591,-0.61752 0.529539,-0.41186 1.124862,-1.05981 1.786786,-1.94237 -0.04412,0.25006 -0.06576,0.46346 -0.06576,0.63997 0,0.42658 0.131403,0.78687 0.396172,1.08106 0.279479,0.3089 0.676897,0.46354 1.191726,0.46354 0.794309,0 1.60303,-0.37419 2.426757,-1.12437 0.479106,-0.42868 0.888621,-0.93611 1.243051,-1.50449 -0.03108,0.27841 -0.06095,0.55572 -0.06095,0.79716 0,1.45623 0.654081,2.18456 1.963214,2.18456 1.01495,0 1.98606,-0.40355 2.91276,-1.21258 0.44439,-0.39501 0.84169,-0.84583 1.19813,-1.3457 0.009,0.72874 0.23363,1.32594 0.68008,1.78678 0.4707,0.48541 1.14026,0.72819 2.00813,0.72819 1.1032,0 2.17793,-0.39742 3.22231,-1.19172 0.78648,-0.59817 1.44335,-1.34254 1.97124,-2.23268 l 0.0128,0.0256 c 0.6178,-1.05907 1.27348,-2.47087 1.96482,-4.236 0.0294,0.0294 0.11756,0.0959 0.26465,0.19889 0.1618,0.10296 0.26383,0.17561 0.30796,0.21974 l 0.24379,0.22134 c 0.11769,0.10296 0.19035,0.19885 0.21975,0.2871 0.0441,0.0736 0.089,0.18332 0.13312,0.33041 0.0441,0.13239 0.0658,0.27314 0.0658,0.42023 0,0.38245 -0.20565,1.05817 -0.61752,2.02898 -0.39716,0.95612 -0.59666,1.65507 -0.59666,2.09635 0,0.42658 0.14075,0.77138 0.42023,1.03614 0.29418,0.26477 0.6916,0.39778 1.19172,0.39778 0.88257,0 1.75779,-0.38967 2.62565,-1.16927 0.44449,-0.39928 0.83282,-0.83014 1.16927,-1.29117 -0.0305,0.21959 -0.0529,0.42755 -0.0529,0.60789 0,0.54425 0.1485,0.98493 0.44269,1.32325 0.29419,0.35302 0.71324,0.5293 1.25748,0.5293 0.88257,0 1.72067,-0.3448 2.51498,-1.03614 0.23564,-0.20137 0.44925,-0.43414 0.6512,-0.68167 -0.0103,0.11667 -0.0288,0.23625 -0.0288,0.34966 0,0.58837 0.15464,1.03679 0.46354,1.34569 0.29418,0.32361 0.68385,0.486 1.16927,0.486 0.51483,0 1.02976,-0.20566 1.54459,-0.61752 0.52954,-0.41187 1.12486,-1.0598 1.78678,-1.94236 -0.0441,0.25006 -0.0658,0.46346 -0.0658,0.63997 0,0.42657 0.13301,0.78686 0.39778,1.08105 0.27947,0.3089 0.67689,0.46354 1.19172,0.46354 0.7943,-2e-5 1.60303,-0.37419 2.42676,-1.12437 0.83843,-0.75018 1.48476,-1.71514 1.94076,-2.89189 l -0.21974,-0.21974 c -0.63251,1.1032 -1.2727,1.96294 -1.91991,2.58074 -0.64721,0.60308 -1.18378,0.90461 -1.61036,0.90461 -0.25005,0 -0.44182,-0.0943 -0.57421,-0.28549 -0.11763,-0.20593 -0.17643,-0.43483 -0.17643,-0.68489 0,-0.39715 0.2134,-0.97859 0.63998,-1.74348 0.085,-0.15247 0.16036,-0.29136 0.22775,-0.41702 0.29056,-0.49328 0.47265,-1.06559 0.64158,-1.57507 0.0463,-0.16792 0.10052,-0.3452 0.13312,-0.51165 0.091,-0.46445 0.12941,-0.72746 0.0417,-1.08908 -0.0618,-0.255 -0.26542,-0.5256 -0.49241,-0.70894 -0.38245,-0.3089 -0.86025,-0.46353 -1.43391,-0.46353 -0.91199,0 -1.85373,0.38193 -2.82454,1.14682 -0.97083,0.76488 -1.76566,1.67723 -2.38345,2.73631 -0.28909,0.50766 -0.5039,0.99267 -0.65441,1.45637 -0.87044,1.34835 -1.75041,2.03059 -2.63848,2.03059 -0.38244,0 -0.66074,-0.0881 -0.83725,-0.26466 -0.16181,-0.19122 -0.2438,-0.54536 -0.2438,-1.06019 0,-0.6031 0.19177,-1.30204 0.57421,-2.09635 0.38244,-0.80902 0.76437,-1.52961 1.14682,-2.16211 0.38244,-0.6325 0.57421,-1.03606 0.57421,-1.21257 0,-0.32361 -0.16239,-0.486 -0.486,-0.486 -0.4707,0 -0.9624,0.40516 -1.47723,1.21419 -0.51483,0.80901 -0.92773,1.69812 -1.23663,2.66895 -0.0773,0.24298 -0.11526,0.4363 -0.17322,0.6544 -0.31907,0.53546 -0.76479,1.07487 -1.34089,1.61838 -0.7649,0.73546 -1.4716,1.10351 -2.1188,1.10351 -0.44129,0 -0.66083,-0.22115 -0.66083,-0.66243 0,-0.27948 0.18402,-0.84542 0.55175,-1.69857 0.36774,-0.86786 0.55016,-1.54517 0.55016,-2.03059 0,-0.42657 -0.11752,-0.80849 -0.35287,-1.14681 -0.23535,-0.35302 -0.49201,-0.61744 -0.77149,-0.79395 -0.27948,-0.17651 -0.53775,-0.36053 -0.7731,-0.55176 -0.23535,-0.20593 -0.35287,-0.3977 -0.35287,-0.57421 0,-0.0294 0.0371,-0.15468 0.11068,-0.37532 0.0883,-0.23534 0.13312,-0.38224 0.13312,-0.44108 0,-0.35303 -0.10363,-0.5293 -0.30956,-0.5293 -0.1618,0 -0.3597,0.15464 -0.59506,0.46354 -0.22064,0.29419 -0.33201,0.64059 -0.33201,1.03775 0,0.20593 0.0742,0.3822 0.22134,0.5293 -0.41562,1.22165 -0.91751,2.41912 -1.49487,3.59763 -0.55939,1.02254 -1.26284,1.89352 -2.12361,2.60159 -0.91199,0.75017 -1.8166,1.12595 -2.71387,1.12595 -1.16204,0 -1.74348,-0.61855 -1.74348,-1.85414 0,-0.27949 0.0294,-0.54389 0.0882,-0.79395 1.35327,-0.13238 2.60428,-0.6102 3.75161,-1.43392 1.14734,-0.82373 1.72103,-1.7732 1.72103,-2.84699 0,-0.89727 -0.45617,-1.3457 -1.36817,-1.3457 -1.265,0 -2.51601,0.72058 -3.75161,2.1621 -0.97879,1.14193 -1.56251,2.25606 -1.76593,3.3426 -0.4091,0.64961 -0.84924,1.205 -1.32645,1.64405 -0.73548,0.66191 -1.47769,0.99283 -2.22787,0.99283 -0.44128,0 -0.75831,-0.13141 -0.94954,-0.39617 -0.19122,-0.26477 -0.285494,-0.72869 -0.285494,-1.39062 0,-1.35326 0.403554,-2.94907 1.212574,-4.78775 h 0.33202 0.10906 c 0.95611,0 2.21487,-0.0881 3.77407,-0.26465 v -0.39778 c -0.88257,0.0883 -1.93407,0.13313 -3.15495,0.13313 h -0.8164 c 0.33832,-0.72076 0.76351,-1.53722 1.27834,-2.44921 0.52954,-0.91198 0.9347,-1.64031 1.21418,-2.18456 0.29419,-0.54425 0.44108,-0.92618 0.44108,-1.14682 0,-0.14709 -0.051,-0.26622 -0.15398,-0.35447 -0.0883,-0.0883 -0.19188,-0.13152 -0.30956,-0.13152 z m 21.06772,1.76433 c -0.36773,0 -0.72803,0.11912 -1.08106,0.35447 -0.35302,0.23535 -0.5309,0.49976 -0.5309,0.79395 0,0.48541 0.30154,0.72819 0.90462,0.72819 0.35303,0 0.6778,-0.12527 0.97198,-0.37533 0.3089,-0.26477 0.46355,-0.54467 0.46355,-0.83885 0,-0.44128 -0.24278,-0.66243 -0.72819,-0.66243 z m -14.75302,4.14938 c 0.3089,0 0.46354,0.16853 0.46354,0.50685 0,0.83843 -0.47942,1.62552 -1.43552,2.36099 -0.94141,0.73548 -1.9264,1.28753 -2.95606,1.65527 0.3089,-1.0885 0.8687,-2.11062 1.67772,-3.06673 0.80902,-0.97083 1.55898,-1.45638 2.25032,-1.45638 z m -15.636781,0.28551 c 0.600301,0 0.950271,0.28646 1.050579,0.8581 0.08999,0.35645 -0.06923,0.67486 -0.171621,0.98161 -0.195169,0.43952 -0.471384,0.83892 -0.739416,1.24145 l -0.250214,0.36089 c -0.191222,0.27948 -0.492757,0.68464 -0.904621,1.21417 -0.397153,0.51483 -0.743559,0.92614 -1.037747,1.23504 -0.294188,0.3089 -0.617356,0.58879 -0.970381,0.83885 -0.353026,0.25006 -0.662306,0.37532 -0.927077,0.37532 -0.397152,0 -0.59506,-0.28763 -0.59506,-0.8613 0,-0.72076 0.227285,-1.56661 0.683277,-2.53744 0.470701,-0.98553 1.067629,-1.84526 1.78839,-2.58073 0.735471,-0.75018 1.426676,-1.12596 2.073891,-1.12596 z m 36.240961,0 c 0.60978,0 0.96151,0.29555 1.05539,0.88536 0.053,0.5886 -0.21054,1.06035 -0.45231,1.52856 -0.12061,0.18825 -0.25569,0.36986 -0.38495,0.55657 l -0.32719,0.47156 c -0.19122,0.27948 -0.49437,0.68464 -0.90623,1.21417 -0.39716,0.51483 -0.74196,0.92614 -1.03615,1.23504 -0.29419,0.3089 -0.61735,0.58879 -0.97038,0.83885 -0.35302,0.25006 -0.66232,0.37532 -0.92707,0.37532 -0.39716,0 -0.59506,-0.28763 -0.59506,-0.8613 0,-0.72076 0.22729,-1.56661 0.68328,-2.53744 0.4707,-0.98553 1.06602,-1.84526 1.78678,-2.58073 0.73547,-0.75018 1.42667,-1.12596 2.07389,-1.12596 z" style="font-size:medium;line-height:1.25;letter-spacing:0px;word-spacing:0px;fill:#4285f4;stroke-width:0.82121587"/>
 </g>
 <g id="SecondHand">
  <rect style="opacity:0.00100002;stroke-width:1.02761829" id="rect8" width="22" height="96" x="233" y="76"/>
  <path style="fill:#ff9800" id="path10" d="m 245,83 v 78.99958 c 0,0 0,4.2e-4 -1,4.2e-4 -1,0 -1,4.2e-4 -1,4.2e-4 V 83.00027 Z"/>
  <circle style="fill:none;stroke-width:2;stroke:#000000;stroke-opacity:1;stroke-miterlimit:4;stroke-dasharray:none;opacity:0.05" id="circle848" cx="244" cy="87" r="10"/>
  <circle id="circle846" cx="244" cy="87" r="10" style="fill:none;stroke-width:1;stroke:#000000;stroke-opacity:1;stroke-miterlimit:4;stroke-dasharray:none;opacity:0.05"/>
  <circle style="fill:#4f4f4f;stroke-width:1.11111116" id="circle16" cx="244" cy="87" r="10"/>
 </g>
 <g id="MinuteHand" transform="translate(-35,-36)">
  <rect style="opacity:0.05;fill:none;stroke:#000000;stroke-width:2;stroke-linecap:round;stroke-linejoin:bevel" id="rect52" width="6" height="94" x="241" y="113" rx="3" ry="3"/>
  <rect style="opacity:0.05;fill:none;stroke:#000000;stroke-linecap:round;stroke-linejoin:bevel" id="rect54" width="6" height="94" x="241" y="113" rx="3" ry="3"/>
  <rect style="fill:#dfdfdf" id="rect56" width="6" height="94" x="241" y="113" rx="3" ry="3"/>
 </g>
 <g id="HourHand">
  <rect id="rect872" width="10" height="96" x="176" y="76" style="opacity:0.00100002;fill:#000000;fill-opacity:1;stroke:none;stroke-width:0.72735339;stroke-linecap:round;stroke-linejoin:round;stroke-miterlimit:4;stroke-dasharray:none;stroke-opacity:1"/>
  <path style="fill:none;stroke:#000000;stroke-opacity:1;opacity:0.05" id="path917" d="m 181.00002,76.999998 c -2.20914,0 -4,1.79086 -4,4 V 127 v 1 c 0,2.216 1.784,4 4,4 2.216,0 4,-1.784 4,-4 v -1 -46.000002 c 0,-2.20914 -1.79086,-4 -4,-4 z"/>
  <path id="path919" d="m 181.00002,76.999998 c -2.20914,0 -4,1.79086 -4,4 V 127 v 1 c 0,2.216 1.784,4 4,4 2.216,0 4,-1.784 4,-4 v -1 -46.000002 c 0,-2.20914 -1.79086,-4 -4,-4 z" style="fill:none;stroke:#000000;stroke-opacity:1;opacity:0.05;stroke-width:2;stroke-miterlimit:4;stroke-dasharray:none"/>
  <path id="HourHand2" d="m 181.00002,76.999998 c -2.20914,0 -4,1.79086 -4,4 V 127 v 1 c 0,2.216 1.784,4 4,4 2.216,0 4,-1.784 4,-4 v -1 -46.000002 c 0,-2.20914 -1.79086,-4 -4,-4 z" style="fill:#dfdfdf"/>
 </g>
</svg>
