<svg xmlns="http://www.w3.org/2000/svg" id="svg" width="32" height="32" version="1.1" viewBox="0 0 32 32">
 <g id="accessories-calculator">
  <rect style="opacity:0.001" width="32" height="32" x="0" y="0"/>
  <g transform="translate(0,1)">
   <rect style="fill:#4f4f4f" width="28" height="20" x="2" y="5" rx="1.4" ry="1.4"/>
   <path style="opacity:0.07519998;fill:#ffffff" d="M 3.4004,5 C 2.6248,5 2,5.6248 2,6.4004 v 1 C 2,6.6248 2.6248,6 3.4004,6 h 25.2 c 0.775,0 1.4,0.6248 1.4,1.4004 v -1 C 30.0004,5.6248 29.3754,5 28.6004,5 Z"/>
   <path style="opacity:0.15040002" d="m 2,23.6 v 1 C 2,25.375 2.6248,26 3.4004,26 h 25.2 c 0.775,0 1.4,-0.625 1.4,-1.4 v -1 c 0,0.775 -0.625,1.4 -1.4,1.4 h -25.2 c -0.7752,0 -1.4,-0.625 -1.4,-1.4 z"/>
   <circle style="opacity:0.15040002" cx="5.5" cy="10.5" r="1.5"/>
   <circle style="opacity:0.15040002" cx="10.5" cy="10.5" r="1.5"/>
   <circle style="opacity:0.15040002" cx="15.5" cy="10.5" r="1.5"/>
   <circle style="opacity:0.15040002" cx="20.5" cy="10.5" r="1.5"/>
   <circle style="opacity:0.15040002" cx="25.5" cy="10.5" r="1.5"/>
   <circle style="opacity:0.15040002" cx="8.5" cy="16.5" r="1.5"/>
   <circle style="opacity:0.15040002" cx="13.5" cy="16.5" r="1.5"/>
   <circle style="opacity:0.15040002" cx="18.5" cy="16.5" r="1.5"/>
   <circle style="opacity:0.15040002" cx="23.5" cy="16.5" r="1.5"/>
   <rect style="opacity:0.15040002" width="20" height="3" x="6" y="21" rx=".75" ry=".75"/>
   <circle style="fill:#e4e4e4" cx="5.5" cy="9.5" r="1.5"/>
   <circle style="fill:#e4e4e4" cx="10.5" cy="9.5" r="1.5"/>
   <circle style="fill:#e4e4e4" cx="15.5" cy="9.5" r="1.5"/>
   <circle style="fill:#e4e4e4" cx="20.5" cy="9.5" r="1.5"/>
   <circle style="fill:#e4e4e4" cx="25.5" cy="9.5" r="1.5"/>
   <circle style="fill:#e4e4e4" cx="8.5" cy="15.5" r="1.5"/>
   <circle style="fill:#e4e4e4" cx="13.5" cy="15.5" r="1.5"/>
   <circle style="fill:#e4e4e4" cx="18.5" cy="15.5" r="1.5"/>
   <circle style="fill:#e4e4e4" cx="23.5" cy="15.5" r="1.5"/>
   <rect style="fill:#e4e4e4" width="20" height="3" x="6" y="20" rx=".75" ry=".75"/>
   <circle style="fill:#1fc238" cx="24" cy="22" r="8"/>
   <path style="opacity:0.15040002" d="M 31.979,22.424 A 8,8 0 0 1 24,30 8,8 0 0 1 16.021,22.576 8,8 0 0 0 16,23 a 8,8 0 0 0 8,8 8,8 0 0 0 8,-8 8,8 0 0 0 -0.02148,-0.57617 z"/>
   <path style="fill:#ffffff" d="m 25,17 v 2 5 h 1.9999 v 2 h -5.9997 v -2 h 1.9999 V 19.5 L 21.0002,20 v -2 z"/>
  </g>
 </g>
 <g id="22-22-accessories-calculator">
  <rect style="opacity:0;fill:#0000ff" width="22" height="22" x="32" y="10"/>
  <path style="fill:#d3dae3" d="M 37 15 C 35.892 15 35 15.892 35 17 L 35 25 C 35 26.108 35.892 27 37 27 L 49 27 C 50.108 27 51 26.108 51 25 L 51 17 C 51 15.892 50.108 15 49 15 L 37 15 z M 36 17 L 38 17 L 38 19 L 36 19 L 36 17 z M 39 17 L 41 17 L 41 19 L 39 19 L 39 17 z M 42 17 L 44 17 L 44 19 L 42 19 L 42 17 z M 45 17 L 47 17 L 47 19 L 45 19 L 45 17 z M 48 17 L 50 17 L 50 19 L 48 19 L 48 17 z M 36 20 L 38 20 L 38 22 L 36 22 L 36 20 z M 39 20 L 41 20 L 41 22 L 39 22 L 39 20 z M 42 20 L 44 20 L 44 22 L 42 22 L 42 20 z M 47 20 L 48 20 L 48 24 L 49 24 L 49 25 L 48 25 L 47 25 L 46 25 L 46 24 L 47 24 L 47 22 L 46 22 L 46 21 L 47 21 L 47 20 z M 37 23 L 44 23 L 44 25 L 37 25 L 37 23 z"/>
 </g>
 <g id="22-22-accessories-dictionary" transform="translate(27,37)">
  <rect width="22" height="22" x="5" y="5" style="opacity:0.00100002"/>
  <g transform="translate(8,-9)">
   <path style="opacity:0.3;fill:#d3dae3" d="m 0.94,30.75 v -2.19 l 4.22,-1.13 2.34,0.6 2.39,-0.67 3.74,1 v 2.45 z"/>
   <path style="fill:#d3dae3" d="m 10.03,17.15 c -0.15,0 -0.3,0.01 -0.46,0.03 C 9,17.26 8.32,17.53 7.55,17.94 6.01,17.09 4.81,17.04 3.81,17.3 2.74,17.57 1.87,18.02 0.52,17.98 L 0,17.96 V 32 H 15 V 17.98 L 14.48,18 c -1.51,0.05 -2.27,-0.39 -3.25,-0.68 -0.36,-0.11 -0.76,-0.18 -1.2,-0.17 z m -5.29,0.99 c 0.62,-0.07 1.3,0.08 2.26,0.6 v 8.64 C 5.9,26.75 4.79,26.7 3.82,26.94 3.16,27.1 2.57,27.28 2,27.43 v -8.64 c 0.8,-0.14 1.47,-0.37 2.05,-0.52 0.24,-0.06 0.46,-0.11 0.69,-0.13 z m 5.6,0 c 0.2,0.02 0.4,0.07 0.61,0.14 0.53,0.15 1.19,0.4 2.05,0.55 v 8.6 C 12.43,27.28 11.84,27.09 11.19,26.93 10.21,26.69 9.1,26.75 8,27.41 V 18.8 c 0.7,-0.38 1.25,-0.59 1.68,-0.66 0.24,-0.03 0.45,-0.03 0.66,0 z M 9.8,27.75 c 0.37,-0.01 0.75,0.05 1.15,0.15 0.64,0.16 1.32,0.43 2.05,0.63 V 30 H 2 v -1.46 c 0.72,-0.2 1.41,-0.47 2.05,-0.63 1.08,-0.27 2,-0.3 3.15,0.74 l 0.34,0.3 0.33,-0.31 C 8.57,28 9.18,27.77 9.8,27.75 Z"/>
  </g>
 </g>
 <g id="accessories-dictionary" transform="translate(0,32)">
  <rect width="32" height="32" x="0" y="0" style="opacity:0.00100002"/>
  <g transform="translate(-2e-4,5e-6)">
   <rect style="fill:#e4e4e4" width="28" height="28" x="-30" y="-30" rx="1.4" ry="1.4" transform="matrix(0,-1,-1,0,0,0)"/>
   <path style="opacity:0.1" d="M 30,28.6 V 3.4 C 30,2.6244 29.376,2 28.6,2 H 16 v 28 h 12.6 c 0.7756,0 1.4,-0.6244 1.4,-1.4 z"/>
   <path style="opacity:0.2;fill:#ffffff" d="M 3.4004,2 C 2.6248,2 2,2.6248 2,3.4004 v 1 C 2,3.6248 2.6248,3 3.4004,3 h 25.2 c 0.775,0 1.4,0.6248 1.4,1.4004 v -1 C 30.0004,2.6248 29.3754,2 28.6004,2 Z"/>
   <path style="opacity:0.2" d="m 2,28.6 v 1 C 2,30.375 2.6248,31 3.4004,31 h 25.2 c 0.775,0 1.4,-0.625 1.4,-1.4 v -1 c 0,0.775 -0.625,1.4 -1.4,1.4 h -25.2 c -0.7752,0 -1.4,-0.625 -1.4,-1.4 z"/>
   <path style="fill:#c2352a" d="M 12.8,1 C 12,1 12,1.6857 12,1.6857 v 11.314 l 2,-1 2,1 V 1.6857 C 16,0.99999 15.19999,0.99999 15.19999,0.99999 Z"/>
  </g>
 </g>
</svg>
