<svg xmlns="http://www.w3.org/2000/svg" width="32" height="32" version="1.1">
 <g id="22-22-accessories-dictionary" transform="translate(27,37)">
  <rect style="opacity:0.001" width="22" height="22" x="5" y="5"/>
  <g transform="translate(8,-9)">
   <path style="opacity:0.35;fill:#dfdfdf" d="m 0.94,30.75 v -2.19 l 4.22,-1.13 2.34,0.6 2.39,-0.67 3.74,1 v 2.45 z"/>
   <path style="fill:#dfdfdf" d="m 10.03,17.15 c -0.15,0 -0.3,0.01 -0.46,0.03 C 9,17.26 8.32,17.53 7.55,17.94 6.01,17.09 4.81,17.04 3.81,17.3 2.74,17.57 1.87,18.02 0.52,17.98 L 0,17.96 V 32 H 15 V 17.98 L 14.48,18 c -1.51,0.05 -2.27,-0.39 -3.25,-0.68 -0.36,-0.11 -0.76,-0.18 -1.2,-0.17 z m -5.29,0.99 c 0.62,-0.07 1.3,0.08 2.26,0.6 v 8.64 C 5.9,26.75 4.79,26.7 3.82,26.94 3.16,27.1 2.57,27.28 2,27.43 v -8.64 c 0.8,-0.14 1.47,-0.37 2.05,-0.52 0.24,-0.06 0.46,-0.11 0.69,-0.13 z m 5.6,0 c 0.2,0.02 0.4,0.07 0.61,0.14 0.53,0.15 1.19,0.4 2.05,0.55 v 8.6 C 12.43,27.28 11.84,27.09 11.19,26.93 10.21,26.69 9.1,26.75 8,27.41 V 18.8 c 0.7,-0.38 1.25,-0.59 1.68,-0.66 0.24,-0.03 0.45,-0.03 0.66,0 z M 9.8,27.75 c 0.37,-0.01 0.75,0.05 1.15,0.15 0.64,0.16 1.32,0.43 2.05,0.63 V 30 H 2 v -1.46 c 0.72,-0.2 1.41,-0.47 2.05,-0.63 1.08,-0.27 2,-0.3 3.15,0.74 l 0.34,0.3 0.33,-0.31 C 8.57,28 9.18,27.77 9.8,27.75 Z"/>
  </g>
 </g>
 <g id="accessories-dictionary" transform="translate(0,32)">
  <rect style="opacity:0.001" width="32" height="32" x="0" y="0"/>
  <g transform="translate(-2e-4,5e-6)">
   <rect style="fill:#e4e4e4" width="28" height="28" x="-30" y="-30" rx="1.4" ry="1.4" transform="matrix(0,-1,-1,0,0,0)"/>
   <path style="opacity:0.1" d="M 30,28.6 V 3.4 C 30,2.6244 29.376,2 28.6,2 H 16 v 28 h 12.6 c 0.7756,0 1.4,-0.6244 1.4,-1.4 z"/>
   <path style="opacity:0.2;fill:#ffffff" d="M 3.4004,2 C 2.6248,2 2,2.6248 2,3.4004 v 1 C 2,3.6248 2.6248,3 3.4004,3 h 25.2 c 0.775,0 1.4,0.6248 1.4,1.4004 v -1 C 30.0004,2.6248 29.3754,2 28.6004,2 Z"/>
   <path style="opacity:0.2" d="m 2,28.6 v 1 C 2,30.375 2.6248,31 3.4004,31 h 25.2 c 0.775,0 1.4,-0.625 1.4,-1.4 v -1 c 0,0.775 -0.625,1.4 -1.4,1.4 h -25.2 c -0.7752,0 -1.4,-0.625 -1.4,-1.4 z"/>
   <path style="fill:#c2352a" d="M 12.8,1 C 12,1 12,1.6857 12,1.6857 v 11.314 l 2,-1 2,1 V 1.6857 C 16,0.99999 15.19999,0.99999 15.19999,0.99999 Z"/>
  </g>
 </g>
 <g id="accessories-calculator">
  <rect style="opacity:0.001" width="32" height="32" x="0" y="0"/>
  <g>
   <path style="opacity:0.2" d="m 3.5,3 h 25 C 29.331,3 30,3.669 30,4.5 v 17.839157 l -2.517986,4.745632 c -0.38949,0.73407 -0.827994,1.011155 -1.5,1.5 L 22.661871,31 H 3.5 C 2.669,31 2,30.331 2,29.5 V 4.5 C 2,3.669 2.669,3 3.5,3 Z"/>
   <path style="fill:#666666" d="m 30,16 v 6.647482 l -1.541624,4.824769 c -0.252926,0.791574 -0.634728,1.53776 -1.448612,1.70555 L 23.021583,30 H 15 V 16 Z"/>
   <path style="fill:#8c8c8c" d="M 2,15 V 28.5 C 2,29.331 2.669,30 3.5,30 H 16 V 15 Z"/>
   <path style="fill:#a6a6a6" d="M 3.5,2 C 2.669,2 2,2.669 2,3.5 V 16 H 17 V 2 Z"/>
   <path style="fill:#595959" d="M 28.5,2 C 29.331,2 30,2.669 30,3.5 V 16 H 16 V 2 Z"/>
   <path style="opacity:0.2;fill:#ffffff" d="M 3.5,2 C 2.669,2 2,2.669 2,3.5 v 1 C 2,3.669 2.669,3 3.5,3 h 25 C 29.331,3 30,3.669 30,4.5 v -1 C 30,2.669 29.331,2 28.5,2 Z"/>
   <circle style="opacity:0.2" cx="23" cy="24" r="8"/>
   <circle style="fill:#07ce8e" cx="23" cy="23" r="8"/>
   <path style="opacity:0.2" d="m 9,7.000484 v 3 H 6 v 1 h 3 v 3 h 1 v -3 h 3 v -1 h -3 v -3 z m 11,3 v 1 h 6 v -1 z M 6.3535156,20.646968 5.6464844,21.354 8.2929688,24.000484 5.6464844,26.646968 6.3535156,27.354 9,24.707515 11.646484,27.354 12.353516,26.646968 9.7070312,24.000484 12.353516,21.354 11.646484,20.646968 9,23.293453 Z"/>
   <path style="fill:#ffffff" d="M 9,6 V 9 H 6 v 1 h 3 v 3 h 1 v -3 h 3 V 9 H 10 V 6 Z m 11,3 v 1 h 6 V 9 Z M 6.3535156,19.646484 5.6464844,20.353516 8.2929688,23 5.6464844,25.646484 6.3535156,26.353516 9,23.707031 11.646484,26.353516 12.353516,25.646484 9.7070312,23 12.353516,20.353516 11.646484,19.646484 9,22.292969 Z"/>
   <path style="fill:#ffffff" d="m 20,21 v 1 h 6 v -1 z m 0,3 v 1 h 6 v -1 z"/>
  </g>
 </g>
 <g id="22-22-accessories-calculator">
  <rect style="opacity:0.001" width="22" height="22" x="32" y="10"/>
  <path style="fill:#dfdfdf" d="m 38,13 c 0,0 -2,0 -2,2 v 11 c 0,0 0,2 2,2 h 11 c 0,0 2,0 2,-2 V 15 c 0,-2 -2,-2 -2,-2 z m 0,2 H 38.84 43 v 5 H 38 V 16.41 16 Z m 6,0 h 5 v 5 h -5 z m 1.44,1 c -0.34,0.08 -0.54,0.58 -0.28,0.84 l 0.65,0.66 -0.65,0.66 c -0.26,0.15 -0.31,0.56 -0.1,0.78 0.22,0.21 0.63,0.16 0.78,-0.1 l 0.66,-0.65 0.66,0.65 c 0.15,0.26 0.56,0.31 0.78,0.1 0.21,-0.22 0.16,-0.63 -0.1,-0.78 l -0.65,-0.66 0.65,-0.66 c 0.26,-0.23 0.15,-0.73 -0.18,-0.84 -0.02,0 -0.05,0 -0.07,0 -0.16,-0.02 -0.32,0.04 -0.43,0.16 L 46.5,16.81 45.84,16.16 C 45.78,16.08 45.69,16.03 45.59,16 45.54,15.99 45.49,15.99 45.44,16 Z M 39,17 v 1 h 1 1 1 v -1 h -1 -1 z m -1,4 h 5 v 5 H 38.84 38 v -1 z m 6,0 h 5 v 4 1 h -5 z m -4,1 v 1 h -1 v 1 h 1 v 1 h 1 v -1 h 1 v -1 h -1 v -1 z m 5,0 v 1 h 3 v -1 z m 0,2 v 1 h 3 v -1 z"/>
 </g>
</svg>
