<svg xmlns="http://www.w3.org/2000/svg" width="32" height="32" version="1.1">
 <g id="22-22-akonadi" transform="translate(39.494834,7.7037887)">
  <path style="opacity:0.001" d="M 0,2.5e-7 H 22 V 22 H 0 Z"/>
  <path style="fill:#dfdfdf" d="M 8.0019531,3.0000197 C 5.795054,4.2739273 4.4304903,6.4317721 4.0898438,8.7636916 4.3312286,8.6491667 4.580506,8.5468498 4.8359375,8.4648635 5.9378894,8.1111678 7.1671312,8.0051375 8.453125,8.0000197 10.233741,7.9929334 12.135218,8.2250209 13.919922,8.5664259 12.530826,5.568254 10.524073,2.988368 8.0019531,3.0000197 Z m 4.2402349,1.1171875 c 1.042747,1.1188808 1.891926,2.5313686 2.585937,4.0292969 l 0.318359,0.6875 C 16.1095,9.0535555 17.033238,9.2902692 17.837891,9.5429885 17.245192,6.76718 15.034948,4.6240535 12.242188,4.1172072 Z M 8.4570312,9.0000197 C 5.9988955,9.0098023 3.8923126,9.4379938 3,11.00002 c 0,4.418 3.5817,8 8,8 4.418,0 8,-3.582 8,-8 C 16.659086,10.084629 12.159712,8.9852842 8.4570312,9.0000197 Z"/>
 </g>
 <g id="akonadi">
  <rect style="opacity:0.001" width="32" height="32" x="0" y="0"/>
  <path style="fill:#cddff0" d="M 29.1,15.8 A 12.75,12.75 0 0 1 16.35,28.55 12.75,12.75 0 0 1 3.6,15.8 12.75,12.75 0 0 1 16.35,3.05 12.75,12.75 0 0 1 29.1,15.8 Z"/>
  <path style="opacity:0.2;fill:#ffffff" d="M 16.35,3.05 A 12.75,12.75 0 0 0 3.6,15.8 12.75,12.75 0 0 0 3.6161,16.235 12.75,12.75 0 0 1 16.3501,3.8 12.75,12.75 0 0 1 29.0841,16.115 12.75,12.75 0 0 0 29.1001,15.8 12.75,12.75 0 0 0 16.3501,3.05 Z"/>
  <path style="fill:#62b4e7" d="M 24.227,27.588 C 17.412,31.524 8.697,29.188 4.761,22.373 0.8265,15.557 3.1617,6.842 9.9774,2.907 c 8.0306,-0.0371 13.13,17.316 14.25,24.681 z"/>
  <path style="fill:#357dc5" d="M 30.6,15.75 C 30.6,23.62 24.22,30 16.35,30 8.4799,30 2.1,23.62 2.1,15.75 c 3.9835,-6.9734 21.562,-2.713 28.5,0 z"/>
  <path style="opacity:0.2" d="M 2.1469,16.678 C 2.1321,16.703 2.1144,16.725 2.1,16.75 2.1,24.62 8.4799,31 16.35,31 24.2201,31 30.6,24.6201 30.6,16.75 c -0.01527,-0.006 -0.0354,-0.01159 -0.05078,-0.01758 -0.507,7.41 -6.661,13.268 -14.199,13.268 -7.5569,0 -13.723,-5.887 -14.203,-13.322 z"/>
 </g>
</svg>
