<svg xmlns="http://www.w3.org/2000/svg" id="svg4353" width="22" height="22" version="1.1" viewBox="0 0 22 22">
 <g id="amarok" transform="translate(0,-10)">
  <rect id="rect4924" width="22" height="22" x="0" y="10" style="opacity:0.00100002;fill:#000000;fill-opacity:1;stroke:none"/>
  <path id="path2" d="m 16.086562,13 c -0.381,0 -1.119484,0.930995 -1.396484,1.078125 -0.278,0.1472 -2.570469,2.215366 -2.777969,2.509766 -0.208,0.2943 -0.485156,0.417078 -0.785156,0.392578 -0.3005,-0.0245 -1.2487655,-0.03409 -1.5722655,0.162109 -0.323,0.1963 -1.7982687,1.799994 -2.1679687,1.996094 -0.3694,0.1962 -0.8530844,0.297766 -1.0839844,0.322266 -0.2309,0.0245 -0.995325,0.929862 -1.203125,1.101562 -0.2078,0.1717 -1.8491781,0.925266 -2.0800782,1.072266 -0.2309399,0.1472 1.4837734,1.808422 1.7607735,1.857422 0.27707,0.04913 -0.7186594,0.699775 -0.7246094,1.166015 -0.0059,0.46514 0.6778447,1.850269 3.4755547,3.480469 2.4186,1.4093 5.272903,0.730399 6.237203,0.443359 0.38258,-0.11389 0.2417,-1.421887 0.3125,-2.117187 0.04622,-0.44146 0.208214,-4.24361 0.808594,-5.22461 0.6003,-0.98095 2.016012,-2.15865 2.616312,-2.28125 0.60035,-0.12263 0.484375,-0.369153 0.484375,-0.589843 0,-0.22071 -0.09226,-0.711607 -0.253906,-0.785157 -0.16161,-0.07356 -0.79225,0.368939 -1,0.417969 -0.2078,0.04904 -1.19929,0.122203 -1.33789,-0.123047 -0.138501,-0.24511 1.219983,-2.647106 1.381484,-2.941406 0.1615,-0.29435 0.230187,-0.686626 -0.07031,-1.103516 C 16.410609,13.416564 16.203515,13 16.088515,13 Z m -5.533828,5.009766 c 0.244632,-0.02466 0.435547,0.0039 0.435547,0.0039 0.0876,0.1973 -0.321372,0.817744 -0.701172,0.902344 -0.3796999,0.0845 -1.2559559,1.324868 -1.2851559,1.042968 -0.0293,-0.2818 0.3507625,-1.211865 0.7890625,-1.634765 0.2190754,-0.2114 0.5170874,-0.289791 0.7617184,-0.314453 z" style="fill:#d3dae3;fill-opacity:1"/>
 </g>
</svg>
