<svg xmlns="http://www.w3.org/2000/svg" width="32" height="32" version="1.1">
 <g id="amarok">
  <rect style="opacity:0.001" width="32" height="32" x="0" y="0"/>
  <g transform="translate(4.3766083e-5,1.6446873e-5)">
   <path d="m 17.762,10.023 c 0,0 -1.8295,-0.28227 -2.8851,0.77619 -1.0557,1.0584 -1.9707,3.3868 -1.9001,4.0924 0.07028,0.70562 2.1815,-2.399 3.0963,-2.6106 0.91495,-0.21175 1.9001,-1.7642 1.6889,-2.258 z"/>
   <path style="fill:#2d79c7" d="m 26.974,-4.6401e-7 c -0.762,0 -2.24,1.80589996401 -2.794,2.09099996401 -0.555,0.2851 -4.942,3.5164 -5.357,4.0867 -0.416,0.5702 -0.97,0.8078 -1.57,0.7603 -0.601,-0.0474 -2.498,-0.067 -3.145,0.3131 C 13.462,7.6313995 10.511,10.74 9.7717,11.12 c -0.73882,0.38006 -1.7028,0.57479 -2.1646,0.62235 -0.46171,0.04746 -1.9915,1.801 -2.4071,2.1337 -0.4156,0.33271 -3.6997,1.7951 -4.1615,2.08 -0.46182,0.28515 3.369,4.2784 3.9231,4.3734 0.55415,0.09518 -1.436,1.3554 -1.4479,2.2588 -0.0118,0.90122 0.95278,3.5853 6.5482,6.7439 4.8373,2.7306 9.9474,1.4156 11.876,0.85946 0.76516,-0.22067 0.48381,-2.7557 0.62541,-4.1029 0.09244,-0.85534 0.41555,-8.0309 1.6163,-9.9317 1.2006,-1.9006 4.6322,-4.1825 5.8329,-4.42 1.2007,-0.23759 0.96975,-0.71281 0.96975,-1.1404 0,-0.42762 -0.18467,-1.3781005 -0.50799,-1.5206005 -0.32322,-0.14252 -1.5845,0.71356 -2.0001,0.80857 -0.4156,0.09502 -2.4013,0.2376405 -2.6785,-0.23753 -0.277,-0.4749 2.24,-5.322 2.563,-5.8922 0.323,-0.5703 0.462,-1.3307 -0.139,-2.1384 -0.6,-0.80796996 -1.015,-1.61579996401 -1.246,-1.61579996401 z"/>
   <path style="opacity:0.2" d="m 16.976,11.027 c 0,0 -1.5189,-0.2255 -2.3953,0.6201 -0.87644,0.84556 -1.6361,2.7057 -1.5775,3.2694 0.05835,0.56372 1.8112,-1.9166 2.5706,-2.0856 0.75962,-0.16917 1.5775,-1.4094 1.4022,-1.8039 z"/>
   <path style="fill:#ffffff" d="m 16.976,10.027 c 0,0 -1.5189,-0.2255 -2.3953,0.6201 -0.87644,0.84556 -1.6361,2.7057 -1.5775,3.2694 0.05835,0.56372 1.8112,-1.9166 2.5706,-2.0856 0.75962,-0.16917 1.5775,-1.4094 1.4022,-1.8039 z"/>
   <path style="opacity:0.2;fill:#ffffff" d="M 26.975,0 C 26.213,0 24.734,1.8067 24.18,2.0918 23.626,2.3769 19.238,5.6074 18.822,6.1777 18.407,6.7479 17.852,6.985 17.252,6.9375 16.652,6.89 14.754,6.8718 14.107,7.252 13.461,7.6322 10.51,10.739 9.7715,11.119 9.0327,11.499 8.0692,11.695 7.6074,11.742 7.1457,11.79 5.6148,13.542 5.1992,13.875 4.7836,14.208 1.5008,15.67 1.0391,15.955 0.92099,16.028 1.0877,16.347 1.4043,16.777 2.2351,16.346 4.8198,15.179 5.1992,14.875 5.6148,14.542 7.1457,12.79 7.6074,12.742 8.0692,12.695 9.0327,12.499 9.7715,12.119 10.51,11.739 13.461,8.6322 14.107,8.252 14.754,7.8718 16.652,7.89 17.252,7.9375 17.852,7.985 18.407,7.7479 18.822,7.1777 19.238,6.6074 23.626,3.3769 24.18,3.0918 24.734,2.8067 26.213,1 26.975,1 c 0.23,0 0.646,0.8072 1.246,1.6152 0.173,0.2336 0.272,0.4615 0.336,0.6836 C 28.706,2.8052 28.673,2.2235 28.221,1.6152 27.621,0.80725 27.205,0 26.975,0 Z m 3.337,9.0664 C 29.849,9.1361 28.838,9.8016 28.475,9.8848 28.11,9.968 26.54,10.087 25.971,9.7949 c -0.149,0.4201 -0.236,0.7491 -0.176,0.8511 0.277,0.476 2.264,0.334 2.68,0.239 0.415,-0.095 1.676,-0.9513 2,-0.809 0.246,0.109 0.411,0.683 0.476,1.141 0.08,-0.197 0.031,-0.415 0.031,-0.621 0,-0.428 -0.184,-1.3773 -0.507,-1.5198 C 30.434,9.0584 30.379,9.0565 30.312,9.0664 Z M 4.539,21.0614 c -0.449,0.457 -1.019,1.036 -1.0254,1.527 -0.002,0.15 0.0399,0.368 0.1093,0.611 0.4057,-0.839 1.8159,-1.787 1.3379,-1.869 -0.0786,-0.013 -0.233,-0.121 -0.4218,-0.269 z"/>
   <path style="opacity:0.2" d="m 28.557,3.2989 c -0.04895,0.16186 -0.11743,0.31425 -0.19727,0.45508 -0.32327,0.57024 -2.8415,5.4173 -2.5645,5.8926 0.03423,0.058695 0.09559,0.10734 0.17578,0.14844 0.54456,-1.5348 2.1349,-4.5933 2.3887,-5.041 0.22984,-0.40542 0.35328,-0.90882 0.19727,-1.4551 z m 2.3945,7.918 c -0.08517,0.21046 -0.31865,0.39669 -0.93945,0.51953 -1.2007,0.23759 -4.6314,2.5193 -5.832,4.4199 -1.2007,1.9008 -1.5247,9.0763 -1.6172,9.9316 -0.1416,1.3473 0.14016,3.8828 -0.625,4.1035 -1.9284,0.55614 -7.0377,1.8712 -11.875,-0.85938 -4.6614,-2.6313 -6.0929,-4.9165 -6.4395,-6.1328 -0.064643,0.13371 -0.10775,0.26449 -0.10938,0.38867 -0.0118,0.90122 0.95339,3.5856 6.5488,6.7441 4.8373,2.7306 9.9466,1.4155 11.875,0.85938 0.76516,-0.22067 0.4834,-2.7562 0.625,-4.1035 0.09244,-0.85534 0.41645,-8.0309 1.6172,-9.9316 1.2006,-1.9006 4.6313,-4.1823 5.832,-4.4199 1.2007,-0.23759 0.9707,-0.71301 0.9707,-1.1406 0,-0.10215 -0.0108,-0.23522 -0.03125,-0.37891 z m -29.548,5.56 c -0.079211,0.04113 -0.32504,0.15293 -0.36523,0.17773 -0.39631,0.2447 2.3574,3.2062 3.5,4.1055 0.37803,-0.38506 0.6752,-0.68696 0.42188,-0.73047 -0.41247,-0.07068 -2.6349,-2.2992 -3.5566,-3.5527 z"/>
  </g>
 </g>
 <g id="22-22-amarok" transform="translate(32)">
  <rect style="opacity:0.001" width="22" height="22" x="0" y="10"/>
  <path style="fill:#dfdfdf" d="m 16.086562,13 c -0.381,0 -1.119484,0.930995 -1.396484,1.078125 -0.278,0.1472 -2.570469,2.215366 -2.777969,2.509766 -0.208,0.2943 -0.485156,0.417078 -0.785156,0.392578 -0.3005,-0.0245 -1.2487655,-0.03409 -1.5722655,0.162109 -0.323,0.1963 -1.7982687,1.799994 -2.1679687,1.996094 -0.3694,0.1962 -0.8530844,0.297766 -1.0839844,0.322266 -0.2309,0.0245 -0.995325,0.929862 -1.203125,1.101562 -0.2078,0.1717 -1.8491781,0.925266 -2.0800782,1.072266 -0.2309399,0.1472 1.4837734,1.808422 1.7607735,1.857422 0.27707,0.04913 -0.7186594,0.699775 -0.7246094,1.166015 -0.0059,0.46514 0.6778447,1.850269 3.4755547,3.480469 2.4186,1.4093 5.272903,0.730399 6.237203,0.443359 0.38258,-0.11389 0.2417,-1.421887 0.3125,-2.117187 0.04622,-0.44146 0.208214,-4.24361 0.808594,-5.22461 0.6003,-0.98095 2.016012,-2.15865 2.616312,-2.28125 0.60035,-0.12263 0.484375,-0.369153 0.484375,-0.589843 0,-0.22071 -0.09226,-0.711607 -0.253906,-0.785157 -0.16161,-0.07356 -0.79225,0.368939 -1,0.417969 -0.2078,0.04904 -1.19929,0.122203 -1.33789,-0.123047 -0.138501,-0.24511 1.219983,-2.647106 1.381484,-2.941406 0.1615,-0.29435 0.230187,-0.686626 -0.07031,-1.103516 C 16.410609,13.416564 16.203515,13 16.088515,13 Z m -5.533828,5.009766 c 0.244632,-0.02466 0.435547,0.0039 0.435547,0.0039 0.0876,0.1973 -0.321372,0.817744 -0.701172,0.902344 -0.3796999,0.0845 -1.2559559,1.324868 -1.2851559,1.042968 -0.0293,-0.2818 0.3507625,-1.211865 0.7890625,-1.634765 0.2190754,-0.2114 0.5170874,-0.289791 0.7617184,-0.314453 z"/>
 </g>
</svg>
