<svg xmlns="http://www.w3.org/2000/svg" width="32" height="32" version="1">
 <g id="antimicro">
  <rect style="opacity:0.001" width="32" height="32" x="0" y="0"/>
  <path style="opacity:0.2" d="M 24.642427,26.760968 C 24.213872,26.572141 23.298665,25.764014 22.60863,24.965128 21.918597,24.166242 21.182424,23.476861 20.972688,23.31124 20.70485,23.099741 18.840767,22.98028 15.577963,22.974759 H 8.7623247 l 0.4249497,-0.710752 c 0.7630515,-1.276247 3.9620966,-1.616841 9.6754376,-1.628562 5.675817,-0.01165 6.119155,-0.153729 7.697032,-1.323944 1.391134,-1.031716 1.993751,-2.42843 2.155974,-5.304646 0.07814,-1.385508 0.41991,-2.658748 0.520222,-1.77551 0.07446,0.655626 0.259143,2.936861 0.443828,5.436829 0.432518,5.854727 0.431646,6.049676 -0.03151,7.067755 -0.63501,1.379895 -1.956656,2.140549 -3.349193,2.251838 -0.608679,0.04325 -1.203806,-0.02728 -1.656636,-0.226808 z"/>
  <path style="fill:#fe6b1b" d="M 24.642427,25.760968 C 24.213872,25.572141 23.298665,24.764014 22.60863,23.965128 21.918597,23.166242 21.182424,22.476861 20.972688,22.31124 20.70485,22.099741 18.840767,21.98028 15.577963,21.974759 H 8.7623247 l 0.4249497,-0.710752 c 0.7630515,-1.276247 3.9620966,-1.616841 9.6754376,-1.628562 5.675817,-0.01165 6.119155,-0.153729 7.697032,-1.323944 1.391134,-1.031716 1.993751,-2.42843 2.155974,-5.304646 0.07814,-1.385508 0.41991,-2.658748 0.520222,-1.77551 0.07446,0.655626 0.259143,2.936861 0.443828,5.436829 0.432518,5.854727 0.431646,6.049676 -0.03151,7.067755 -0.63501,1.379895 -1.956656,2.140549 -3.349193,2.251838 -0.608679,0.04325 -1.203806,-0.02728 -1.656636,-0.226808 z"/>
  <path style="opacity:0.2" d="m 15.958592,5.0000001 c -8.3718893,-2e-7 -9.3467359,0.130533 -11.027914,1.476155 -1.7994949,1.4403234 -1.9958654,2.194073 -2.5591363,9.8259349 -0.2776801,3.762325 -0.4342251,7.205601 -0.3477069,7.651872 0.1955593,1.008717 1.2665067,2.269279 2.2963787,2.703362 1.9967963,0.841638 3.7659196,0.144563 5.6338143,-2.220018 l 1.2773332,-1.617324 c 0.304006,-0.409429 0.643977,-0.750603 1.019218,-1.099772 0.733412,-0.670343 2.124541,-0.698294 6.697397,-0.70763 5.704507,-0.01165 6.51355,-0.142303 8.099403,-1.31279 1.398166,-1.031957 2.021907,-2.793399 2.184949,-5.670285 0.161751,-1.631392 0.121154,-2.510342 -0.08604,-3.659973 C 28.766205,8.281662 28.224916,7.5126651 27.112038,6.5908754 25.343659,5.126139 24.459821,5.0000001 15.958592,5.0000001 Z"/>
  <path style="fill:#ffb300" d="M 15.958592,4.0000002 C 7.5867027,4 6.6118561,4.1305332 4.930678,5.4761552 3.1311831,6.9164786 2.9348126,7.6702282 2.3715417,15.30209 c -0.2776801,3.762325 -0.4342251,7.205601 -0.3477069,7.651872 0.1955593,1.008717 1.2665067,2.269279 2.2963787,2.703362 1.9967963,0.841638 3.7659196,0.144563 5.6338143,-2.220018 l 1.2773332,-1.617324 c 0.304006,-0.409429 0.643977,-0.750603 1.019218,-1.099772 0.733412,-0.670343 2.124541,-0.698294 6.697397,-0.70763 5.704507,-0.01165 6.51355,-0.142303 8.099403,-1.31279 1.398166,-1.031957 2.021907,-2.793399 2.184949,-5.670285 0.161751,-1.631392 0.121154,-2.510342 -0.08604,-3.6599731 C 28.766205,7.2816621 28.224916,6.5126652 27.112038,5.5908755 25.343659,4.1261391 24.459821,4.0000002 15.958592,4.0000002 Z"/>
  <path style="opacity:0.2" d="m 8.7499997,7.9999999 c -0.4155,0 -0.75,0.3345 -0.75,0.75 V 11 h -2.25 c -0.4155,0 -0.75,0.3345 -0.75,0.75 v 1.5 c 0,0.4155 0.3345,0.75 0.75,0.75 h 2.25 v 2.25 c 0,0.4155 0.3345,0.75 0.75,0.75 H 10.25 C 10.6655,17 11,16.6655 11,16.25 V 14 h 2.25 C 13.6655,14 14,13.6655 14,13.25 v -1.5 C 14,11.3345 13.6655,11 13.25,11 H 11 V 8.7499999 c 0,-0.4155 -0.3345,-0.75 -0.75,-0.75 z m 13.7500003,0 a 1.5,1.5 0 0 0 -1.5,1.5 A 1.5,1.5 0 0 0 22.5,11 1.5,1.5 0 0 0 24,9.4999999 a 1.5,1.5 0 0 0 -1.5,-1.5 z M 19.5,11 A 1.5,1.5 0 0 0 18,12.5 1.5,1.5 0 0 0 19.5,14 1.5,1.5 0 0 0 21,12.5 1.5,1.5 0 0 0 19.5,11 Z m 6,0 A 1.5,1.5 0 0 0 24,12.5 1.5,1.5 0 0 0 25.5,14 1.5,1.5 0 0 0 27,12.5 1.5,1.5 0 0 0 25.5,11 Z m -3,3 A 1.5,1.5 0 0 0 21,15.5 1.5,1.5 0 0 0 22.5,17 1.5,1.5 0 0 0 24,15.5 1.5,1.5 0 0 0 22.5,14 Z"/>
  <rect style="fill:#ffffff" width="3" height="9" x="8" y="7" rx=".75" ry=".75"/>
  <circle style="fill:#ffffff" cx="22.5" cy="8.5" r="1.5"/>
  <rect style="fill:#ffffff" width="3" height="9" x="10" y="-14" rx=".75" ry=".75" transform="rotate(90)"/>
  <circle style="fill:#ffffff" cx="22.5" cy="14.5" r="1.5"/>
  <circle style="fill:#ffffff" cx="11.5" cy="-25.5" r="1.5" transform="rotate(90)"/>
  <circle style="fill:#ffffff" cx="11.5" cy="-19.5" r="1.5" transform="rotate(90)"/>
  <path style="opacity:0.2;fill:#ffffff" d="M 15.958984,3.9999999 C 7.5870951,3.9999997 6.6128184,4.1309404 4.9316403,5.4765624 3.1321454,6.9168858 2.9343644,7.6708726 2.3710935,15.302734 2.1115561,18.819241 1.9600534,22.022452 2.0117185,22.794922 2.0441145,21.399059 2.1750694,18.958691 2.3710935,16.302734 2.9343644,8.6708725 3.1321454,7.9168858 4.9316403,6.4765624 6.6128184,5.1309404 7.5870951,4.9999997 15.958984,4.9999999 c 8.501229,0 9.383965,0.1270605 11.152344,1.5917969 1.112878,0.9217897 1.655073,1.6894738 2.035156,3.7773442 0.0912,0.506008 0.148278,0.962799 0.171875,1.451171 0.03672,-0.927959 -0.0228,-1.62403 -0.171875,-2.4511711 C 28.766401,7.2812707 28.224206,6.5135865 27.111328,5.5917968 25.342949,4.1270604 24.460213,3.9999999 15.958984,3.9999999 Z"/>
 </g>
 <g id="22-22-antimicro" transform="translate(27,5)">
  <rect style="opacity:0.001" width="22" height="22" x="5" y="5"/>
  <path style="fill:#dfdfdf" d="m 11.02499,9.0004268 v 0.002 c -2.4887079,0 -4.3597989,2.0010682 -4.4906099,4.4804682 l -0.498089,8.460613 c -0.315026,1.85 1.482765,3.017141 2.994391,0.994141 0.942579,-1.279 2.9689979,-3.9375 2.9689979,-3.9375 l 8.00067,0.04102 2.988531,4.021484 c 1.499025,2.012 3.186861,0.357874 2.996345,-1.003906 L 25.48909,13.58441 c 7.84e-4,-0.03462 0.0098,-0.06675 0.0098,-0.101562 -3e-5,-2.4824 -2.002332,-4.4824212 -4.490641,-4.4824212 z M 9.9995131,11.000426 H 11.99968 v 2 h 2.000168 v 2 H 11.99968 v 2 H 9.9995131 v -2 h -2.000167 v -2 h 2.000167 z m 11.0009209,0 c 0.552331,0 1.000083,0.447715 1.000083,1 0,0.552284 -0.447752,1 -1.000083,1 -0.552331,0 -1.000084,-0.447715 -1.000084,-1 0,-0.552285 0.447753,-1 1.000084,-1 z m -2.000168,2 c 0.552331,0 1.000084,0.447715 1.000084,1 0,0.552285 -0.447753,1 -1.000084,1 -0.552331,0 -1.000083,-0.447716 -1.000083,-1 0,-0.552285 0.447752,-1 1.000083,-1 z m 4.000335,0 c 0.552331,0 1.000084,0.447715 1.000084,1 0,0.552285 -0.447753,1 -1.000084,1 -0.552331,0 -1.000084,-0.447715 -1.000084,-1 0,-0.552285 0.447753,-1 1.000084,-1 z m -2.000167,2 c 0.552331,1e-6 1.000083,0.447716 1.000083,1 0,0.552284 -0.447752,1 -1.000083,1 -0.552331,0 -1.000084,-0.447715 -1.000084,-1 0,-0.552285 0.447753,-1 1.000084,-1 z"/>
 </g>
</svg>
