<svg xmlns="http://www.w3.org/2000/svg" width="32" height="32" version="1.1">
 <g id="applications-other">
  <rect style="opacity:0.001" width="32" height="32" x="0" y="0"/>
  <rect style="opacity:0.2" width="28" height="28" x="2" y="3" rx="3" ry="3"/>
  <rect style="fill:#325f78" width="28" height="28" x="2" y="2" rx="3" ry="3"/>
  <rect style="opacity:0.2" width="8" height="8" x="6" y="7" rx="2" ry="2"/>
  <rect style="fill:#ffffff" width="8" height="8" x="6" y="6" rx="2" ry="2"/>
  <rect style="opacity:0.35" width="8" height="8" x="18" y="6" rx="2" ry="2"/>
  <rect style="opacity:0.35" width="8" height="8" x="6" y="18" rx="2" ry="2"/>
  <rect style="opacity:0.2" width="8" height="8" x="18" y="19" rx="2" ry="2"/>
  <rect style="fill:#ffffff" width="8" height="8" x="18" y="18" rx="2" ry="2"/>
  <path style="opacity:0.1;fill:#ffffff" d="M 5,2 C 3.338,2 2,3.338 2,5 V 6 C 2,4.338 3.338,3 5,3 h 22 c 1.662,0 3,1.338 3,3 V 5 C 30,3.338 28.662,2 27,2 Z"/>
 </g>
 <g id="22-22-applications-other" transform="translate(27,5)">
  <rect style="opacity:0.001" width="22" height="22" x="5" y="5"/>
  <path style="fill:#dfdfdf" transform="translate(-27,-5)" d="M 37.5 14 C 36.669 14 36 14.669 36 15.5 L 36 18.5 C 36 19.331 36.669 20 37.5 20 L 40.5 20 C 41.331 20 42 19.331 42 18.5 L 42 15.5 C 42 14.669 41.331 14 40.5 14 L 37.5 14 z M 45.5 14 C 44.669 14 44 14.669 44 15.5 L 44 18.5 C 44 19.331 44.669 20 45.5 20 L 48.5 20 C 49.331 20 50 19.331 50 18.5 L 50 15.5 C 50 14.669 49.331 14 48.5 14 L 45.5 14 z M 46 16 L 48 16 L 48 18 L 46 18 L 46 16 z M 37.5 22 C 36.669 22 36 22.669 36 23.5 L 36 26.5 C 36 27.331 36.669 28 37.5 28 L 40.5 28 C 41.331 28 42 27.331 42 26.5 L 42 23.5 C 42 22.669 41.331 22 40.5 22 L 37.5 22 z M 45.5 22 C 44.669 22 44 22.669 44 23.5 L 44 26.5 C 44 27.331 44.669 28 45.5 28 L 48.5 28 C 49.331 28 50 27.331 50 26.5 L 50 23.5 C 50 22.669 49.331 22 48.5 22 L 45.5 22 z M 38 24 L 40 24 L 40 26 L 38 26 L 38 24 z"/>
 </g>
</svg>
