<svg xmlns="http://www.w3.org/2000/svg" id="svg17" width="32" height="32" version="1.1">
 <g id="applications-other">
  <rect id="rect855" style="opacity:0.001" width="32" height="32" x="0" y="0"/>
  <rect id="rect844" style="opacity:0.2" width="28" height="28" x="2" y="3" rx="3" ry="3"/>
  <rect id="rect830" style="fill:#325f78" width="28" height="28" x="2" y="2" rx="3" ry="3"/>
  <rect id="rect846" style="opacity:0.2" width="8" height="8" x="6" y="7" rx="2" ry="2"/>
  <rect id="rect832" style="fill:#ffffff" width="8" height="8" x="6" y="6" rx="2" ry="2"/>
  <rect id="rect838" style="opacity:0.3" width="8" height="8" x="18" y="6" rx="2" ry="2"/>
  <rect id="rect840" style="opacity:0.3" width="8" height="8" x="6" y="18" rx="2" ry="2"/>
  <rect id="rect848" style="opacity:0.2" width="8" height="8" x="18" y="19" rx="2" ry="2"/>
  <rect id="rect842" style="fill:#ffffff" width="8" height="8" x="18" y="18" rx="2" ry="2"/>
  <path id="rect850" style="opacity:0.1;fill:#ffffff" d="M 5 2 C 3.338 2 2 3.338 2 5 L 2 6 C 2 4.338 3.338 3 5 3 L 27 3 C 28.662 3 30 4.338 30 6 L 30 5 C 30 3.338 28.662 2 27 2 L 5 2 z"/>
 </g>
</svg>
