<svg xmlns="http://www.w3.org/2000/svg" width="32" height="32" version="1.1">
 <g id="22-22-audacious" transform="translate(27,5)">
  <rect style="opacity:0.001" width="22" height="22" x="5" y="5"/>
  <g transform="translate(0,-288.53332)">
   <path style="fill:#dfdfdf" d="m 16,296.53332 a 8,8 0 0 0 -8,8 8,8 0 0 0 8,8 8,8 0 0 0 8,-8 8,8 0 0 0 -8,-8 z m -0.11523,4.002 h 0.002 c 1.8673,0.0706 2.9719,1.333 3.0938,3.1738 0.1373,2.0751 -0.47461,2.6162 -0.21289,3.0332 0.54652,0.87079 -0.22644,1.098 -0.74023,1.5234 -0.32,0.265 -0.939,0.145 -1.245,-0.232 -0.93,-0.538 -0.57,0.495 -2.49,0.5 -0.9983,-0.041 -1.9153,-0.761 -2.1739,-1.732 -0.3964,-1.49 0.1855,-2.589 1.8047,-3.108 0.4684,-0.15 1.3962,-0.06 1.8052,-0.3592 0.385,-0.2822 0.249,-0.6874 -0.225,-0.7403 -0.6798,-0.0758 -1.7401,0.2319 -2.3673,0.1075 -0.5034,-0.0999 -0.6566,-1.0612 -0.3281,-1.4746 0.5376,-0.6767 1.9163,-0.6476 2.6954,-0.6836 0.1312,-0.006 0.25638,-0.0125 0.38086,-0.008 z m -0.24805,4.4492 c -0.43248,0 -0.79102,0.32278 -0.79102,0.72461 0,0.40185 0.35851,0.73242 0.79102,0.73242 0.4325,0 0.77344,-0.33059 0.77344,-0.73242 0,-0.40181 -0.34093,-0.72461 -0.77344,-0.72461 z"/>
  </g>
 </g>
 <g id="audacious">
  <rect style="opacity:0.001" width="32" height="32" x="0" y="0"/>
  <path style="opacity:0.2" d="M 30,17 A 14,14 0 0 1 16,31 14,14 0 0 1 2,17 14,14 0 0 1 16,3 14,14 0 0 1 30,17 Z"/>
  <path style="fill:#4f4f4f" d="M 30,16 A 14,14 0 0 1 16,30 14,14 0 0 1 2,16 14,14 0 0 1 16,2 14,14 0 0 1 30,16 Z"/>
  <path style="opacity:0.2" d="m 16.661,10.003 c -0.2134,-0.00828 -0.43115,0.0044 -0.65606,0.01504 -1.3355,0.06309 -3.6984,0.0112 -4.62,1.1953 -0.56317,0.72352 -0.30087,2.4067 0.56214,2.5815 1.0751,0.21776 2.8927,-0.32213 4.0579,-0.18944 0.8124,0.09252 1.0497,0.80369 0.38811,1.2975 -0.70052,0.52284 -2.2909,0.36434 -3.0938,0.62695 -2.7759,0.9079 -3.7735,2.8315 -3.0938,5.4381 0.4432,1.6997 2.0123,2.9609 3.7236,3.0325 3.2921,-0.008 2.6779,-1.816 4.272,-0.87502 0.52458,0.65908 1.5819,0.87056 2.1298,0.40744 0.88079,-0.74458 2.209,-1.1433 1.2721,-2.6672 -0.44867,-0.72974 0.59725,-1.6758 0.36187,-5.3073 -0.20882,-3.2215 -2.1026,-5.4317 -5.3037,-5.5553 z m -0.42816,7.7865 c 0.74145,-1e-6 1.3259,0.56422 1.3259,1.2674 0,0.70321 -0.58447,1.284 -1.3259,1.284 -0.74145,0 -1.3535,-0.58076 -1.3535,-1.284 0,-0.70321 0.6121,-1.2674 1.3535,-1.2674 z"/>
  <path style="fill:#ffffff" d="m 16.661,9.0027 c -0.2134,-0.00828 -0.43115,0.00444 -0.65606,0.015038 -1.3355,0.063094 -3.6984,0.0112 -4.62,1.1953 -0.56317,0.72352 -0.30087,2.4067 0.56214,2.5815 1.0751,0.21776 2.8927,-0.32213 4.0579,-0.18944 0.8124,0.09252 1.0497,0.80369 0.38811,1.2975 -0.70052,0.52284 -2.2909,0.36434 -3.0938,0.62695 -2.7759,0.9079 -3.7735,2.8315 -3.0938,5.4381 0.4432,1.6997 2.0123,2.9609 3.7236,3.0325 3.2921,-0.008 2.6779,-1.816 4.272,-0.87502 0.52458,0.65908 1.5819,0.87056 2.1298,0.40744 0.88079,-0.74458 2.209,-1.1433 1.2721,-2.6672 -0.44867,-0.72974 0.59725,-1.6758 0.36187,-5.3073 -0.20882,-3.2215 -2.1026,-5.4317 -5.3037,-5.5553 z m -0.42816,7.7865 c 0.74145,-1e-6 1.3259,0.56422 1.3259,1.2674 0,0.70321 -0.58447,1.284 -1.3259,1.284 -0.74145,0 -1.3535,-0.58076 -1.3535,-1.284 0,-0.70321 0.6121,-1.2674 1.3535,-1.2674 z"/>
  <path style="fill:#ffffff;opacity:0.1" d="M 16 2 A 14 14 0 0 0 2 16 A 14 14 0 0 0 2.0214844 16.585938 A 14 14 0 0 1 16 3 A 14 14 0 0 1 29.978516 16.414062 A 14 14 0 0 0 30 16 A 14 14 0 0 0 16 2 z"/>
 </g>
</svg>
