<svg xmlns="http://www.w3.org/2000/svg" width="32" height="32" version="1.1">
 <g id="22-22-audio-volume-low" transform="translate(-300.0004,451)">
  <path style="opacity:0.001" d="m 325.0004,-419 h 22 c 0,0 0,0 0,0 v 22 c 0,0 0,0 0,0 h -22 c 0,0 0,0 0,0 v -22 c 0,0 0,0 0,0 z"/>
  <path style="fill:#dfdfdf" d="m 335.0004,-416 -5,5 h -3 v 6 h 3 l 5,5 z"/>
  <path style="opacity:0.35;fill:#dfdfdf" d="m 337.0004,-416 v 2 c 2.86838,0.84571 5,3.06286 5,6 0,2.93714 -2.13163,5.15429 -5,6 v 2 c 3.89455,-0.89143 7,-4.11429 7,-8 0,-3.88571 -3.10545,-7.10857 -7,-8 z"/>
  <path style="opacity:0.35;fill:#dfdfdf" d="m 337.0004,-412 v 8 c 0,0 3.0002,-1 3,-4 -2e-4,-3 -3,-4 -3,-4 z"/>
 </g>
 <g id="22-22-audio-volume-medium" transform="translate(-275.0004,451)">
  <path style="opacity:0.001" d="m 325.0004,-419 h 22 c 0,0 0,0 0,0 v 22 c 0,0 0,0 0,0 h -22 c 0,0 0,0 0,0 v -22 c 0,0 0,0 0,0 z"/>
  <path style="fill:#dfdfdf" d="m 335.0004,-416 -5,5 h -3 v 6 h 3 l 5,5 z"/>
  <path style="opacity:0.35;fill:#dfdfdf" d="m 337.0004,-416 v 2 c 2.86838,0.84571 5,3.06286 5,6 0,2.93714 -2.13163,5.15429 -5,6 v 2 c 3.89455,-0.89143 7,-4.11429 7,-8 0,-3.88571 -3.10545,-7.10857 -7,-8 z"/>
  <path style="fill:#dfdfdf" d="m 337.0004,-412 v 8 c 0,0 3.0002,-1 3,-4 -2e-4,-3 -3,-4 -3,-4 z"/>
 </g>
 <g id="22-22-audio-volume-high" transform="translate(-250.0004,451)">
  <path style="opacity:0.001" d="m 325.0004,-419 h 22 c 0,0 0,0 0,0 v 22 c 0,0 0,0 0,0 h -22 c 0,0 0,0 0,0 v -22 c 0,0 0,0 0,0 z"/>
  <path style="fill:#dfdfdf" d="m 335.0004,-416 -5,5 h -3 v 6 h 3 l 5,5 z"/>
  <path style="fill:#dfdfdf" d="m 337.0004,-416 v 2 c 2.86838,0.84571 5,3.06286 5,6 0,2.93714 -2.13163,5.15429 -5,6 v 2 c 3.89455,-0.89143 7,-4.11429 7,-8 0,-3.88571 -3.10545,-7.10857 -7,-8 z"/>
  <path style="fill:#dfdfdf" d="m 337.0004,-412 v 8 c 0,0 3.0002,-1 3,-4 -2e-4,-3 -3,-4 -3,-4 z"/>
 </g>
 <g id="audio-volume-low" transform="translate(32,32)">
  <rect style="opacity:0.001" width="32" height="32" x="0" y="-32"/>
  <g transform="translate(1,-32)">
   <path style="fill:#9c85f5" d="M 14.999,2 7,10.002 H 1 v 12 H 7 L 14.999,30 Z"/>
   <path style="opacity:0.2;fill:#9c85f5" d="m 18.999,2 v 3 c 4.64,1.48 8,5.86 8,11 0,5.14 -3.36,9.52 -8,11 v 3 c 6.3,-1.56 11,-7.2 11,-14 0,-6.8 -4.7,-12.44 -11,-14 z"/>
   <path style="opacity:0.2;fill:#9c85f5" d="m 18.999,10 v 12 c 2.12,-1.16 3.582,-3.4 3.582,-6 0,-2.6 -1.442,-4.84 -3.582,-6 z"/>
   <path style="opacity:0.2;fill:#dfdfdf" d="M 14.998,2 7,10.002 H 1 v 1 H 7 L 14.998,3 Z"/>
   <path style="opacity:0.2" d="m 1,22.002 v 1 H 7 L 14.998,31 V 30 L 7,22.002 Z"/>
  </g>
 </g>
 <g id="audio-volume-muted" transform="translate(0,32)">
  <rect style="opacity:0.001" width="32" height="32" x="0" y="-32"/>
  <g transform="translate(1,-32)">
   <path style="fill:#9c85f5" d="M 14.999,2 7,10.002 H 1 v 12 H 7 L 14.999,30 Z"/>
   <path style="opacity:0.2;fill:#dfdfdf" d="M 14.998,2 7,10.002 H 1 v 1 H 7 L 14.998,3 Z"/>
   <path style="opacity:0.2" d="m 1,22.002 v 1 H 7 L 14.998,31 V 30 L 7,22.002 Z"/>
   <circle style="fill:#db3c30" cx="18" cy="24" r="7"/>
   <path style="opacity:0.2" d="M 24.977,24.459 A 7,7 0 0 1 18,31 7,7 0 0 1 11.023,24.541 7,7 0 0 0 11,25 a 7,7 0 0 0 7,7 7,7 0 0 0 7,-7 7,7 0 0 0 -0.02344,-0.54102 z"/>
   <g style="fill:#dfdfdf" transform="matrix(0.70711,-0.70711,0.70711,0.70711,-15.941,24)">
    <rect style="fill:#ffffff" width="8" height="2" x="20" y="23"/>
    <rect style="fill:#ffffff" width="8" height="2" x="20" y="-25" transform="rotate(90)"/>
   </g>
  </g>
 </g>
 <g id="audio-volume-medium" transform="translate(64,32)">
  <rect style="opacity:0.001" width="32" height="32" x="0" y="-32"/>
  <g transform="translate(1,-32)">
   <path style="fill:#9c85f5" d="M 14.999,2 7,10.002 H 1 v 12 H 7 L 14.999,30 Z"/>
   <path style="opacity:0.2;fill:#9c85f5" d="m 18.999,2 v 3 c 4.64,1.48 8,5.86 8,11 0,5.14 -3.36,9.52 -8,11 v 3 c 6.3,-1.56 11,-7.2 11,-14 0,-6.8 -4.7,-12.44 -11,-14 z"/>
   <path style="fill:#9c85f5" d="m 18.999,10 v 12 c 2.12,-1.16 3.582,-3.4 3.582,-6 0,-2.6 -1.442,-4.84 -3.582,-6 z"/>
   <path style="opacity:0.2;fill:#dfdfdf" d="M 14.998,2 7,10.002 H 1 v 1 H 7 L 14.998,3 Z"/>
   <path style="opacity:0.2;fill:#dfdfdf" d="m 18.998,10 v 1 c 2,1.084 3.374,3.117 3.547,5.5 0.012,-0.167 0.035,-0.33 0.035,-0.5 0,-2.6 -1.442,-4.84 -3.582,-6 z"/>
   <path style="opacity:0.2" d="m 1,22.002 v 1 H 7 L 14.998,31 V 30 L 7,22.002 Z"/>
   <path style="opacity:0.2" d="m 22.545,16.5 c -0.17529,2.3834 -1.5653,4.4158 -3.5469,5.5 v 1 c 2.12,-1.16 3.582,-3.4 3.582,-6 0,-0.16981 -0.02306,-0.33346 -0.03516,-0.5 z"/>
  </g>
 </g>
 <g id="audio-volume-high" transform="translate(96,32)">
  <rect style="opacity:0.001" width="32" height="32" x="0" y="-32"/>
  <g transform="translate(1,-32)">
   <path style="fill:#9c85f5" d="M 14.999,2 7,10.002 H 1 v 12 H 7 L 14.999,30 Z"/>
   <path style="fill:#9c85f5" d="m 18.999,2 v 3 c 4.64,1.48 8,5.86 8,11 0,5.14 -3.36,9.52 -8,11 v 3 c 6.3,-1.56 11,-7.2 11,-14 0,-6.8 -4.7,-12.44 -11,-14 z"/>
   <path style="fill:#9c85f5" d="m 18.999,10 v 12 c 2.12,-1.16 3.582,-3.4 3.582,-6 0,-2.6 -1.442,-4.84 -3.582,-6 z"/>
   <path style="opacity:0.2;fill:#dfdfdf" d="M 14.998,2 7,10.002 H 1 v 1 H 7 L 14.998,3 Z"/>
   <path style="opacity:0.2;fill:#dfdfdf" d="m 18.998,2 v 1 c 6.144,1.5213 10.753,6.9266 10.979,13.5 0.005,-0.167 0.021,-0.331 0.021,-0.5 0,-6.8 -4.7,-12.44 -11,-14 z m 7.981,14.5 c -0.211,4.922 -3.493,9.068 -7.981,10.5 v 1 c 4.64,-1.48 8,-5.86 8,-11 0,-0.168 -0.012,-0.334 -0.019,-0.5 z"/>
   <path style="opacity:0.2;fill:#dfdfdf" d="m 18.998,10 v 1 c 2,1.084 3.374,3.117 3.547,5.5 0.012,-0.167 0.035,-0.33 0.035,-0.5 0,-2.6 -1.442,-4.84 -3.582,-6 z"/>
   <path style="opacity:0.2" d="m 1,22.002 v 1 H 7 L 14.998,31 V 30 L 7,22.002 Z"/>
   <path style="opacity:0.2" d="m 18.998,5 v 1 c 4.4882,1.4316 7.77,5.5785 7.9805,10.5 0.0071,-0.16646 0.01953,-0.33183 0.01953,-0.5 0,-5.14 -3.36,-9.52 -8,-11 z M 29.977,16.5 C 29.751,23.073 25.142,28.479 18.998,30 v 1 c 6.3,-1.56 11,-7.2 11,-14 0,-0.16868 -0.01575,-0.33279 -0.02148,-0.5 z"/>
   <path style="opacity:0.2" d="m 22.545,16.5 c -0.17529,2.3834 -1.5653,4.4158 -3.5469,5.5 v 1 c 2.12,-1.16 3.582,-3.4 3.582,-6 0,-0.16981 -0.02306,-0.33346 -0.03516,-0.5 z"/>
  </g>
 </g>
 <g id="audio-radio-symbolic" transform="translate(0,-313.17917)">
  <rect style="opacity:0.001" width="32" height="32" x="0" y="281.18"/>
  <rect style="opacity:0.2" width="28" height="22" x="2" y="290.18" rx="3" ry="3"/>
  <path style="fill:#8e8e8e" d="M 8.4765625,281.25831 A 1.50015,1.50015 0 0 0 7,282.7798 v 7.5 a 1.50015,1.50015 0 1 0 3,0 v -7.5 a 1.50015,1.50015 0 0 0 -1.5234375,-1.52149 z"/>
  <rect style="fill:#494949" width="5" height="2" x="6" y="288.18" rx="1" ry="1"/>
  <rect style="fill:#00cdbf" width="28" height="22" x="2" y="289.18" rx="3" ry="3"/>
  <circle style="opacity:0.5" cx="11" cy="300.179" r="7"/>
  <circle style="opacity:0.2;fill:#000000" cx="11" cy="301.179" r="4"/>
  <circle style="fill:#ffa800" cx="11" cy="300.179" r="4"/>
  <path style="opacity:0.5" d="m 20,299.17969 a 1.0001,1.0001 0 1 0 0,2 h 7 a 1.0001,1.0001 0 1 0 0,-2 z"/>
  <path style="opacity:0.5" d="m 20,295.17969 a 1.0001,1.0001 0 1 0 0,2 h 7 a 1.0001,1.0001 0 1 0 0,-2 z"/>
  <path style="opacity:0.5" d="m 20,303.17969 a 1.0001,1.0001 0 1 0 0,2 h 7 a 1.0001,1.0001 0 1 0 0,-2 z"/>
  <path style="opacity:0.2;fill:#ffffff" d="m 5,289.17917 c -1.662,0 -3,1.338 -3,3 v 1 c 0,-1.662 1.338,-3 3,-3 h 22 c 1.662,0 3,1.338 3,3 v -1 c 0,-1.662 -1.338,-3 -3,-3 z"/>
  <path style="opacity:0.2;fill:#ffffff" d="m 11,296.17917 a 4,4 0 0 0 -4,4 4,4 0 0 0 0.035156,0.49414 A 4,4 0 0 1 11,297.17917 4,4 0 0 1 14.964844,300.68503 4,4 0 0 0 15,300.17917 a 4,4 0 0 0 -4,-4 z"/>
 </g>
 <g id="22-22-audio-radio-symbolic" transform="translate(-5,-59.000001)">
  <rect style="opacity:0.001" width="22" height="22" x="5" y="5"/>
  <path style="fill:#dfdfdf" d="M 11.984375,6.9921855 C 11.432083,7.0007855 10.991355,7.4555205 11,8.0078105 v 3.0000005 h -1 c -1.108,0 -2,0.892 -2,2 V 22 c 0,1.108 0.892,2 2,2 h 12 c 1.108,0 2,-0.892 2,-2 v -8.992189 c 0,-1.108 -0.898672,-2.121413 -2,-2 H 13 V 8.0078105 c 0.0088,-0.56453 -0.45109,-1.024455 -1.015625,-1.015625 z M 10,13.007811 H 22 V 22 H 10 Z m 3.5,1.992188 A 2.5,2.5 0 0 0 11,17.5 2.5,2.5 0 0 0 13.5,20 2.5,2.5 0 0 0 16,17.5 2.5,2.5 0 0 0 13.5,14.999999 Z m 4,0 a 0.50005,0.50005 0 1 0 0,1 h 3 a 0.50005,0.50005 0 1 0 0,-1 z M 17.5,17 a 0.50005,0.50005 0 1 0 0,1 h 3 a 0.50005,0.50005 0 1 0 0,-1 z m 0,2 a 0.50005,0.50005 0 1 0 0,1 h 3 a 0.50005,0.50005 0 1 0 0,-1 z"/>
 </g>
 <g id="22-22-audio-volume-muted" transform="translate(-5,27)">
  <path style="opacity:0.001" d="m 5,5 h 22 c 0,0 0,0 0,0 v 22 c 0,0 0,0 0,0 H 5 c 0,0 0,0 0,0 V 5 c 0,0 0,0 0,0 z"/>
  <path style="opacity:0.35;fill:#dfdfdf" d="M 8.40625,7 7,8.40625 10.792969,12.207032 10,13 H 7 v 6 h 3 l 5,5 v -7.585938 l 2,2 V 20 c 0,0 0.472551,-0.167669 1.039062,-0.546875 l 1.361329,1.361328 C 18.697036,21.326563 17.892734,21.736786 17,22 v 2 c 1.40323,-0.321188 2.696638,-0.951413 3.785156,-1.800781 L 23.59375,25 25,23.59375 22.222656,20.808594 20.839844,19.425781 19.439453,18.025391 17,15.585938 l -2,-2 -2.792969,-2.792969 z M 15,8 13.621094,9.378907 15,10.757813 Z m 2,0 v 2 c 2.86838,0.84571 5,3.06286 5,6 0,0.538481 -0.09381,1.04323 -0.228516,1.529297 L 23.3125,19.070312 C 23.749051,18.122442 24,17.088615 24,16 24,12.11429 20.89455,8.89143 17,8 Z m 0,4 v 0.757813 l 2.984375,2.984375 C 19.815427,12.946973 17,12 17,12 Z"/>
 </g>
</svg>
