<svg xmlns="http://www.w3.org/2000/svg"  width="32" height="32" version="1">
 <g id="22-22-battery-ups" transform="translate(255.46001,-426.5)">
  <rect style="opacity:0.001"  width="22" height="22" x="192.54" y="404.5"/>
  <path style="fill:#4caf50"  d="M 197.54,408.5 V 423.5 H 209.54 V 408.5 C 209.54,407.5 208.54,407.5 208.54,407.5 H 198.54 C 198.54,407.5 197.54,407.5 197.54,408.5 Z M 203.54,409.5 V 412.5 H 205.54 L 203.54,417.5 V 414.5 H 201.54 Z M 199.54,419.5 H 200.54 V 421.5 H 199.54 Z M 201.54,419.5 H 202.54 V 421.5 H 201.54 Z M 203.54,419.5 H 204.54 V 421.5 H 203.54 Z M 206.54,419.5 C 207.09,419.5 207.54,419.95 207.54,420.5 207.54,421.05 207.09,421.5 206.54,421.5 205.99,421.5 205.54,421.05 205.54,420.5 205.54,419.95 205.99,419.5 206.54,419.5 Z"/>
 </g>
 <g id="22-22-Battery" transform="translate(-214.53999,-404.5)">
  <rect style="opacity:0.001"  width="22" height="22" x="-404.5" y="214.54" transform="rotate(-90)"/>
  <path style="fill:#dfdfdf"  d="M 219.54,401.51 H 231.54 V 386.51 H 227.54 V 386.01 C 227.54,386.01 227.54,385.51 227.04,385.51 H 224.04 C 223.54,385.5 223.54,386.01 223.54,386.01 V 386.51 H 219.54 Z M 221.54,399.51 V 388.51 H 229.54 V 399.51 Z"/>
 </g>
 <g id="22-22-Fill100" transform="translate(-182.53999,-404.5)">
  <rect style="opacity:0.001"  width="22" height="22" x="-404.5" y="214.54" transform="rotate(-90)"/>
  <path style="fill:#dfdfdf"  d="M 230.54,400.5 H 220.54 V 387.5 H 230.54 Z"/>
 </g>
 <g id="22-22-Fill90" transform="translate(-150.53999,-404.5)">
  <rect style="opacity:0.001"  width="22" height="22" x="-404.5" y="214.54" transform="rotate(-90)"/>
  <path style="fill:#dfdfdf"  d="M 230.54,400.5 H 220.54 V 389.5 H 230.54 Z"/>
 </g>
 <g id="22-22-Fill80" transform="translate(-118.53999,-404.5)">
  <rect style="opacity:0.001"  width="22" height="22" x="-404.5" y="214.54" transform="rotate(-90)"/>
  <path style="fill:#dfdfdf"  d="M 230.54,400.5 H 220.54 V 390.5 H 230.54 Z"/>
 </g>
 <g id="22-22-Fill70" transform="translate(-86.539993,-404.5)">
  <rect style="opacity:0.001"  width="22" height="22" x="-404.5" y="214.54" transform="rotate(-90)"/>
  <path style="fill:#dfdfdf"  d="M 230.54,400.5 H 220.54 V 391.5 H 230.54 Z"/>
 </g>
 <g id="22-22-Fill60" transform="translate(-54.539993,-404.5)">
  <rect style="opacity:0.001"  width="22" height="22" x="-404.5" y="214.54" transform="rotate(-90)"/>
  <path style="fill:#dfdfdf"  d="M 230.54,400.5 H 220.54 V 392.5 H 230.54 Z"/>
 </g>
 <g id="22-22-Fill50" transform="translate(-22.539993,-404.5)">
  <rect style="opacity:0.001"  width="22" height="22" x="-404.5" y="214.54" transform="rotate(-90)"/>
  <path style="fill:#dfdfdf"  d="M 230.54,400.5 H 220.54 V 393.5 H 230.54 Z"/>
 </g>
 <g id="22-22-Fill40" transform="translate(9.4600067,-404.5)">
  <rect style="opacity:0.001"  width="22" height="22" x="-404.5" y="214.54" transform="rotate(-90)"/>
  <path style="fill:#dfdfdf"  d="M 230.54,400.5 H 220.54 V 394.5 H 230.54 Z"/>
 </g>
 <g id="22-22-Fill30" transform="translate(41.460007,-404.5)">
  <rect style="opacity:0.001"  width="22" height="22" x="-404.5" y="214.54" transform="rotate(-90)"/>
  <path style="fill:#dfdfdf"  d="M 230.54,400.5 H 220.54 V 395.5 H 230.54 Z"/>
 </g>
 <g id="22-22-Fill20" transform="translate(73.460007,-404.5)">
  <rect style="opacity:0.001"  width="22" height="22" x="-404.5" y="214.54" transform="rotate(-90)"/>
  <path style="fill:#dfdfdf"  d="M 230.54,400.5 H 220.54 V 396.5 H 230.54 Z"/>
 </g>
 <g id="22-22-Fill10" transform="translate(105.46001,-404.5)">
  <rect style="opacity:0.001"  width="22" height="22" x="-404.5" y="214.54" transform="rotate(-90)"/>
  <path style="fill:#f44336"  transform="translate(-105.46,404.5)" d="M 329.5,-19 C 329,-19.01 329,-18.5 329,-18.5 V -18 H 325 V -3 H 337 V -18 H 333 V -18.5 C 333,-18.5 333,-19 332.5,-19 Z M 327,-16 H 335 V -7 H 327 Z"/>
 </g>
 <g id="22-22-Fill0" transform="translate(137.46001,-404.5)">
  <rect style="opacity:0.001"  width="22" height="22" x="-404.5" y="214.54" transform="rotate(-90)"/>
  <path style="fill:#f44336"  transform="translate(-137.46,404.5)" d="M 361.5,-19 C 361,-19.01 361,-18.5 361,-18.5 V -18 H 357 V -3 H 369 V -18 H 365 V -18.5 C 365,-18.5 365,-19 364.5,-19 Z M 359,-16 H 367 V -5 H 359 Z"/>
 </g>
 <g id="22-22-Unavailable" transform="translate(213.46001,-426.5)">
  <rect style="opacity:0.001"  width="22" height="22" x="-426.5" y="170.54" transform="rotate(-90)"/>
  <g >
   <rect style="fill:#ff9800"  width="10" height="10" x="181.54" y="415.5" ry="1"/>
   <path style="fill:#ffffff"  d="m 188.65704,416.96951 -2.12132,2.12132 -2.12132,-2.12132 -1.41421,1.41421 2.12132,2.12132 -2.12132,2.12132 1.41421,1.41421 2.12132,-2.12132 2.12132,2.12132 1.41421,-1.41421 -2.12132,-2.12132 2.12132,-2.12132 z"/>
  </g>
 </g>
 <g id="22-22-AcAdapter" transform="translate(482)">
  <rect style="opacity:0.001"  width="22" height="22" x="0" y="-66" transform="rotate(-90)"/>
  <path style="fill:#4caf50"  d="m -55,-15 v 3 h 2 l -2,5 v -3 h -2 z"/>
 </g>
 <g id="Fill100">
  <rect style="opacity:0.001"  width="32" height="32" x="32" y="0" rx="2.092" ry="1.491"/>
  <path style="opacity:0.2"  d="m 40,9 v 5 H 56 V 9 Z m 0,7 v 5 h 16 v -5 z m 0,7 v 5 h 16 v -5 z"/>
  <path style="fill:#c0f957"  d="m 40,8 v 5 H 56 V 8 Z m 0,7 v 5 h 16 v -5 z m 0,7 v 5 h 16 v -5 z"/>
  <path style="opacity:0.2;fill:#ffffff"  d="M 40,8 V 9 H 56 V 8 Z m 0,7 v 1 h 16 v -1 z m 0,7 v 1 h 16 v -1 z"/>
  <rect style="opacity:0.2"  width="16" height="9" x="47" y="23" rx="2" ry="2"/>
  <rect style="fill:#4671e6"  width="16" height="9" x="47" y="22" rx="2" ry="2"/>
  <path style="fill:#ffffff"  d="m 50,24 v 1 h -1 v 1 h 1 v 3 h 1 v -5 z"/>
  <path style="fill:#ffffff"  d="m 53,24 v 1 1 1 2 h 1 2 v -1 -2 -2 h -2 z m 1,1 h 1 v 2 1 h -1 v -1 -1 z"/>
  <path style="fill:#ffffff"  d="m 58,24 v 1 1 1 2 h 1 2 v -1 -2 -2 h -2 z m 1,1 h 1 v 2 1 h -1 v -1 -1 z"/>
 </g>
 <g id="Fill90">
  <rect style="opacity:0.001"  width="32" height="32" x="64" y="0" rx="2.092" ry="1.491"/>
  <path style="opacity:0.2"  d="m 72,9 v 5 H 88 V 9 Z m 0,7 v 5 h 16 v -5 z m 0,7 v 5 h 16 v -5 z"/>
  <path style="fill:#c0f957"  d="m 72,8 v 5 H 88 V 8 Z m 0,7 v 5 h 16 v -5 z m 0,7 v 5 h 16 v -5 z"/>
  <path style="opacity:0.2;fill:#ffffff"  d="M 72,8 V 9 H 88 V 8 Z m 0,7 v 1 h 16 v -1 z m 0,7 v 1 h 16 v -1 z"/>
  <rect style="opacity:0.2"  width="12" height="9" x="83" y="23" rx="2" ry="2"/>
  <rect style="fill:#4671e6"  width="12" height="9" x="83" y="22" rx="2" ry="2"/>
  <path style="fill:#ffffff"  d="m 90,24 v 1 1 1 2 h 1 2 v -1 -2 -2 h -2 z m 1,1 h 1 v 2 1 h -1 v -1 -1 z"/>
  <path style="fill:#ffffff"  d="m 85,24 v 1 1 1 h 1 1 v 1 h -2 v 1 h 3 v -1 -1 -1 -2 h -2 z m 1,1 h 1 v 1 h -1 z"/>
 </g>
 <g id="Fill80">
  <rect style="opacity:0.001"  width="32" height="32" x="96" y="0" rx="2.092" ry="1.491"/>
  <path style="opacity:0.2"  d="m 104,9 v 5 h 16 V 9 Z m 0,7 v 5 h 16 v -5 z m 0,7 v 5 h 16 v -5 z"/>
  <path style="fill:#c0f957"  d="m 104,8 v 5 h 16 V 8 Z m 0,7 v 5 h 16 v -5 z m 0,7 v 5 h 16 v -5 z"/>
  <path style="opacity:0.2;fill:#ffffff"  d="m 104,8 v 1 h 16 V 8 Z m 0,7 v 1 h 16 v -1 z m 0,7 v 1 h 16 v -1 z"/>
  <rect style="opacity:0.2"  width="12" height="9" x="115" y="23" rx="2" ry="2"/>
  <rect style="fill:#4671e6"  width="12" height="9" x="115" y="22" rx="2" ry="2"/>
  <path style="fill:#ffffff"  d="m 122,24 v 1 1 1 2 h 1 2 v -1 -2 -2 h -2 z m 1,1 h 1 v 2 1 h -1 v -1 -1 z"/>
  <path style="fill:#ffffff"  d="m 117,24 v 1 2 2 h 1 1 1 v -1 -1 -1 -2 h -2 z m 1,1 h 1 v 1 h -1 z m 0,2 h 1 v 1 h -1 z"/>
 </g>
 <g id="Fill70">
  <rect style="opacity:0.001"  width="32" height="32" x="128" y="0" rx="2.092" ry="1.491"/>
  <path style="opacity:0.2"  d="m 136,9 v 5 h 16 V 9 Z m 0,7 v 5 h 16 v -5 z m 0,7 v 5 h 16 v -5 z"/>
  <path style="fill:#c0f957"  d="m 136,8 v 5 h 16 V 8 Z m 0,7 v 5 h 16 v -5 z m 0,7 v 5 h 16 v -5 z"/>
  <path style="opacity:0.2;fill:#ffffff"  d="m 136,8 v 1 h 16 V 8 Z m 0,7 v 1 h 16 v -1 z m 0,7 v 1 h 16 v -1 z"/>
  <rect style="opacity:0.2"  width="12" height="9" x="147" y="23" rx="2" ry="2"/>
  <rect style="fill:#4671e6"  width="12" height="9" x="147" y="22" rx="2" ry="2"/>
  <path style="fill:#ffffff"  d="m 154,24 v 1 1 1 2 h 1 2 v -1 -2 -2 h -2 z m 1,1 h 1 v 2 1 h -1 v -1 -1 z"/>
  <path style="fill:#ffffff"  d="m 149.00003,23.999995 v 0.996109 h 1.94336 l -0.92968,3.766537 0.97265,0.237354 0.98242,-3.984436 -0.0801,-0.01945 H 152 V 24 Z"/>
 </g>
 <g id="Fill20">
  <rect style="opacity:0.001"  width="32" height="32" x="288" y="0" rx="2.092" ry="1.491"/>
  <path style="opacity:0.2"  d="m 296,23 v 5 h 16 v -5 z"/>
  <path style="fill:#c0f957"  d="m 296,22 v 5 h 16 v -5 z"/>
  <path style="opacity:0.2;fill:#ffffff"  d="m 296,22 v 1 h 16 v -1 z"/>
  <rect style="opacity:0.2"  width="12" height="9" x="307" y="23" rx="2" ry="2"/>
  <rect style="fill:#4671e6"  width="12" height="9" x="307" y="22" rx="2" ry="2"/>
  <path style="fill:#ffffff"  d="m 314,24 v 1 1 1 2 h 1 2 v -1 -2 -2 h -2 z m 1,1 h 1 v 2 1 h -1 v -1 -1 z"/>
  <path style="fill:#ffffff"  d="m 309,24 v 1 h 2 v 1 h -1 -1 v 1 2 h 1 2 v -1 h -2 v -1 h 1 1 v -1 -1 -1 h -1 z"/>
 </g>
 <g id="Fill30">
  <rect style="opacity:0.001"  width="32" height="32" x="256" y="0" rx="2.092" ry="1.491"/>
  <path style="opacity:0.2"  d="m 264,23 v 5 h 16 v -5 z"/>
  <path style="fill:#c0f957"  d="m 264,22 v 5 h 16 v -5 z"/>
  <path style="opacity:0.2;fill:#ffffff"  d="m 264,22 v 1 h 16 v -1 z"/>
  <rect style="opacity:0.2"  width="12" height="9" x="275" y="23" rx="2" ry="2"/>
  <rect style="fill:#4671e6"  width="12" height="9" x="275" y="22" rx="2" ry="2"/>
  <path style="fill:#ffffff"  d="m 282,24 v 1 1 1 2 h 1 2 v -1 -2 -2 h -2 z m 1,1 h 1 v 2 1 h -1 v -1 -1 z"/>
  <path style="fill:#ffffff"  d="m 277,24 v 1 h 2 v 1 h -2 v 1 h 2 v 1 h -2 v 1 h 3 v -1 -1 -1 -1 -1 h -1 z"/>
 </g>
 <g id="Fill40">
  <rect style="opacity:0.001"  width="32" height="32" x="224" y="0" rx="2.092" ry="1.491"/>
  <path style="opacity:0.2"  d="m 232,16 v 5 h 16 v -5 z m 0,7 v 5 h 16 v -5 z"/>
  <path style="fill:#c0f957"  d="m 232,15 v 5 h 16 v -5 z m 0,7 v 5 h 16 v -5 z"/>
  <path style="opacity:0.2;fill:#ffffff"  d="m 232,15 v 1 h 16 v -1 z m 0,7 v 1 h 16 v -1 z"/>
  <rect style="opacity:0.2"  width="12" height="9" x="243" y="23" rx="2" ry="2"/>
  <rect style="fill:#4671e6"  width="12" height="9" x="243" y="22" rx="2" ry="2"/>
  <path style="fill:#ffffff"  d="m 250,24 v 1 1 1 2 h 1 2 v -1 -2 -2 h -2 z m 1,1 h 1 v 2 1 h -1 v -1 -1 z"/>
  <path style="fill:#ffffff"  d="m 245,24 v 2 1 h 1 1 v 2 h 1 v -5 h -1 v 2 h -1 v -2 z"/>
 </g>
 <g id="Fill50">
  <rect style="opacity:0.001"  width="32" height="32" x="192" y="0" rx="2.092" ry="1.491"/>
  <path style="opacity:0.2"  d="m 200,16 v 5 h 16 v -5 z m 0,7 v 5 h 16 v -5 z"/>
  <path style="fill:#c0f957"  d="m 200,15 v 5 h 16 v -5 z m 0,7 v 5 h 16 v -5 z"/>
  <path style="opacity:0.2;fill:#ffffff"  d="m 200,15 v 1 h 16 v -1 z m 0,7 v 1 h 16 v -1 z"/>
  <rect style="opacity:0.2"  width="12" height="9" x="211" y="23" rx="2" ry="2"/>
  <rect style="fill:#4671e6"  width="12" height="9" x="211" y="22" rx="2" ry="2"/>
  <path style="fill:#ffffff"  d="m 218,24 v 1 1 1 2 h 1 2 v -1 -2 -2 h -2 z m 1,1 h 1 v 2 1 h -1 v -1 -1 z"/>
  <path style="fill:#ffffff"  d="m 213,24 v 1 2 h 1 1 v 1 h -2 v 1 h 2 1 v -1 -1 -1 h -1 -1 v -1 h 2 v -1 h -2 z"/>
 </g>
 <g id="Fill60">
  <rect style="opacity:0.001"  width="32" height="32" x="160" y="0" rx="2.092" ry="1.491"/>
  <path style="opacity:0.2"  d="m 168,16 v 5 h 16 v -5 z m 0,7 v 5 h 16 v -5 z"/>
  <path style="fill:#c0f957"  d="m 168,15 v 5 h 16 v -5 z m 0,7 v 5 h 16 v -5 z"/>
  <path style="opacity:0.2;fill:#ffffff"  d="m 168,15 v 1 h 16 v -1 z m 0,7 v 1 h 16 v -1 z"/>
  <rect style="opacity:0.2"  width="12" height="9" x="179" y="23" rx="2" ry="2"/>
  <rect style="fill:#4671e6"  width="12" height="9" x="179" y="22" rx="2" ry="2"/>
  <path style="fill:#ffffff"  d="m 186,24 v 1 1 1 2 h 1 2 v -1 -2 -2 h -2 z m 1,1 h 1 v 2 1 h -1 v -1 -1 z"/>
  <path style="fill:#ffffff"  d="m 181,24 v 1 2 2 h 1 1 1 v -1 -1 -1 h -1 -1 v -1 h 2 v -1 h -2 z m 1,3 h 1 v 1 h -1 z"/>
 </g>
 <g id="Fill10">
  <rect style="opacity:0.001"  width="32" height="32" x="320" y="0" rx="2.092" ry="1.491"/>
  <path style="opacity:0.2"  d="m 328,23 v 5 h 16 v -5 z"/>
  <path style="fill:#db3c30"  d="m 328,22 v 5 h 16 v -5 z"/>
  <path style="opacity:0.1;fill:#ffffff"  d="m 328,22 v 1 h 16 v -1 z"/>
  <rect style="opacity:0.2"  width="11" height="9" x="340" y="23" rx="2" ry="2"/>
  <rect style="fill:#4671e6"  width="11" height="9" x="340" y="22" rx="2" ry="2"/>
  <path style="fill:#ffffff"  d="m 346,24 v 1 1 1 2 h 1 2 v -1 -2 -2 h -2 z m 1,1 h 1 v 2 1 h -1 v -1 -1 z"/>
  <path style="fill:#ffffff"  d="m 343,24 v 1 h -1 v 1 h 1 v 3 h 1 v -5 z"/>
 </g>
 <g id="Fill0" transform="translate(352)">
  <rect style="opacity:0.001"  width="32" height="32" x="0" y="0"/>
  <g >
   <rect style="opacity:0.2"  width="16" height="16" x="-32" y="-31" rx="8" ry="8" transform="matrix(0,-1,-1,0,0,0)"/>
   <rect style="fill:#db3c30"  width="16" height="16" x="-31" y="-31" rx="8" ry="8" transform="matrix(0,-1,-1,0,0,0)"/>
   <g  transform="matrix(1,0,0,0.76922485,-523,291.07482)">
    <path style="fill:#ffffff"  d="m 545,-355 h 2 v 7.80006 h -2 z m 0,10.40008 h 2 v 2.60002 h -2 z"/>
   </g>
  </g>
 </g>
 <g id="Unavailable">
  <rect style="opacity:0.001"  width="32" height="32" x="384" y="0"/>
  <rect style="opacity:0.2"  width="16" height="16" x="399" y="16" rx="2" ry="2"/>
  <rect style="fill:#ff9800"  width="16" height="16" x="399" y="15" rx="2" ry="2"/>
  <g style="fill:#ffffff"  transform="matrix(1.2495087,0,0,1.2499635,322.03537,-634.48065)">
   <g style="fill:#ffffff"  transform="translate(19,-242)">
    <path style="fill:#ffffff"  d="m 45.799685,764.79997 h 0.8 c 0.0083,-10e-5 0.01663,-3.7e-4 0.025,0 0.203961,0.009 0.407896,0.10286 0.55,0.25 l 1.825,1.825 1.85,-1.825 c 0.2125,-0.1844 0.357337,-0.2444 0.55,-0.25 h 0.8 v 0.8 c 0,0.22918 -0.02747,0.44052 -0.2,0.6 l -1.825,1.825 1.8,1.8 c 0.15055,0.15054 0.224993,0.36276 0.225,0.575 v 0.8 h -0.8 c -0.212241,-10e-6 -0.424469,-0.0745 -0.575,-0.225 l -1.825,-1.825 -1.825,1.825 c -0.150531,0.15055 -0.362768,0.225 -0.575,0.225 h -0.8 v -0.8 c -3e-6,-0.21223 0.07445,-0.42446 0.225,-0.575 l 1.825,-1.8 -1.825,-1.825 c -0.168594,-0.1557 -0.242528,-0.3754 -0.225,-0.6 z"/>
   </g>
  </g>
 </g>
 <g id="AcAdapter" transform="translate(416)">
  <rect style="opacity:0.001"  width="32" height="32" x="0" y="0"/>
  <g >
   <path style="opacity:0.2"  d="m 15.941406,9.0020811 a 2.0002,2.0002 0 0 0 -1.730468,1.1035159 l -4,8 A 2.0002,2.0002 0 0 0 12,21.000128 h 2 v 2 a 2.0002,2.0002 0 0 0 3.789062,0.894531 l 4,-8 A 2.0002,2.0002 0 0 0 20,13.000128 h -2 v -2 A 2.0002,2.0002 0 0 0 15.941406,9.0020811 Z"/>
   <path style="fill:#4caf50"  d="m 15.941406,8.0019531 a 2.0002,2.0002 0 0 0 -1.730468,1.1035157 l -4,8.0000002 A 2.0002,2.0002 0 0 0 12,20 h 2 v 2 a 2.0002,2.0002 0 0 0 3.789062,0.894531 l 4,-8 A 2.0002,2.0002 0 0 0 20,12 H 18 V 10 A 2.0002,2.0002 0 0 0 15.941406,8.0019531 Z"/>
   <path style="opacity:0.2"  d="m 16,11.000128 v 4 h 4 l -4,8 v -4 h -4 z"/>
   <path style="fill:#ffffff"  d="m 16,10 v 4 h 4 l -4,8 v -4 h -4 z"/>
  </g>
 </g>
 <g id="Battery">
  <rect style="opacity:0.00100002"  width="32" height="32" x="0" y="0" rx="2.092" ry="1.491"/>
  <g >
   <path style="opacity:0.2"  d="m 6.375,6 h 19.25 C 26.38675,6 27,6.5575 27,7.25 v 22.5 C 27,30.4425 26.38675,31 25.625,31 H 6.375 C 5.61325,31 5,30.4425 5,29.75 V 7.25 C 5,6.5575 5.61325,6 6.375,6 Z"/>
   <path style="fill:#4f4f4f"  d="m 6.375,5 h 19.25 C 26.38675,5 27,5.5575 27,6.25 v 22.5 C 27,29.4425 26.38675,30 25.625,30 H 6.375 C 5.61325,30 5,29.4425 5,28.75 V 6.25 C 5,5.5575 5.61325,5 6.375,5 Z"/>
   <rect style="fill:#8e8e8e"  width="14" height="3" x="9" y="2"/>
   <path style="opacity:0.355"  d="m 8,8 v 5 H 24 V 8 Z m 0,7 v 5 h 16 v -5 z m 0,7 v 5 h 16 v -5 z"/>
   <path style="opacity:0.2;fill:#ffffff"  d="M 9,2 V 3 H 23 V 2 Z"/>
  </g>
 </g>
 <g id="battery-ups" transform="translate(448)">
  <rect style="opacity:0.001"  width="32" height="32" x="0" y="0" rx="2.092" ry="1.491"/>
  <path style="opacity:0.2"  d="m 5.5,3 h 21 C 27.331,3 28,3.6244 28,4.4 V 29.6 C 28,30.3756 27.331,31 26.5,31 H 5.5 C 4.669,31 4,30.3756 4,29.6 V 4.4 C 4,3.6244 4.669,3 5.5,3 Z"/>
  <path style="fill:#4f4f4f"  d="m 5.5,2 h 21 C 27.331,2 28,2.6244 28,3.4 V 28.6 C 28,29.3756 27.331,30 26.5,30 H 5.5 C 4.669,30 4,29.3756 4,28.6 V 3.4 C 4,2.6244 4.669,2 5.5,2 Z"/>
  <path style="opacity:0.2"  d="m 16,11.000128 v 4 h 4 l -4,8 v -4 h -4 z"/>
  <path style="fill:#ffffff"  d="m 16,10 v 4 h 4 l -4,8 v -4 h -4 z"/>
  <path style="opacity:0.1;fill:#ffffff"  d="M 5.5,2 C 4.669,2 4,2.6247906 4,3.4003906 v 1 C 4,3.6247906 4.669,3 5.5,3 h 21 C 27.331,3 28,3.6247906 28,4.4003906 v -1 C 28,2.6247906 27.331,2 26.5,2 Z"/>
  <circle style="opacity:0.2"  cx="24.5" cy="27.5" r="1.5"/>
  <circle style="fill:#c0f957"  cx="24.5" cy="26.5" r="1.5"/>
  <circle style="opacity:0.2"  cx="20.5" cy="27.5" r="1.5"/>
  <circle style="fill:#df4e43"  cx="20.5" cy="26.5" r="1.5"/>
  <rect style="opacity:0.35"  width="20" height="1" x="6" y="3"/>
  <rect style="opacity:0.35"  width="20" height="1" x="6" y="5"/>
  <rect style="opacity:0.35"  width="20" height="1" x="6" y="7"/>
 </g>
 <g id="profile-powersave" transform="translate(465,-27)">
  <rect style="opacity:0.001"  width="22" height="22" x="-27" y="5" transform="rotate(-90)"/>
  <path  style="fill:#dfdfdf" d="m 16.007958,8 c 3.565776,0.00311 6.707174,2.375759 7.685548,5.804688 0.978373,3.428927 -0.439553,7.102034 -3.466798,8.986328 a 1,1 0 0 1 -1.376953,-0.320313 1,1 0 0 1 0.320313,-1.376953 c 2.277163,-1.417409 3.335565,-4.160915 2.599609,-6.740234 C 21.033722,11.774196 18.688265,10.002341 16.006005,10 c -2.682259,-0.00234 -5.032981,1.765719 -5.773437,4.34375 -0.7404557,2.578031 0.313205,5.322759 2.58789,6.744141 a 1,1 0 0 1 0.31836,1.378906 1,1 0 0 1 -1.378906,0.318359 C 8.7359613,20.895582 7.3263363,17.218231 8.3106933,13.791016 9.2950503,10.3638 12.442183,7.9968883 16.007958,8 Z m -0.0078,6 a 2,2 0 0 1 2,2 2,2 0 0 1 -2,2 2,2 0 0 1 -0.515625,-0.07031 l -1.777344,1.777343 a 1,1 0 0 1 -1.414062,0 1,1 0 0 1 0,-1.414062 L 14.07047,16.515625 A 2,2 0 0 1 14.000146,16 a 2,2 0 0 1 2,-2 z"/>
 </g>
 <g id="profile-performance" transform="translate(487,-27)">
  <rect style="opacity:0.001"  width="22" height="22" x="-27" y="5" transform="rotate(-90)"/>
  <path  style="fill:#dfdfdf" d="m 15.992188,8 c -3.565776,0.00311 -6.7071736,2.375759 -7.6855474,5.804688 -0.9783738,3.428927 0.4395525,7.102034 3.4667974,8.986328 A 1,1 0 0 0 13.150391,22.470703 1,1 0 0 0 12.830078,21.09375 C 10.552915,19.676341 9.4945131,16.932835 10.230469,14.353516 10.966424,11.774196 13.311881,10.002341 15.994141,10 c 2.682259,-0.00234 5.032981,1.765719 5.773437,4.34375 0.740456,2.578031 -0.313205,5.322759 -2.58789,6.744141 a 1,1 0 0 0 -0.31836,1.378906 1,1 0 0 0 1.378906,0.318359 c 3.023951,-1.889574 4.433576,-5.566925 3.449219,-8.99414 C 22.705096,10.3638 19.557963,7.9968883 15.992188,8 Z M 16,14 a 2,2 0 0 0 -2,2 2,2 0 0 0 2,2 2,2 0 0 0 0.515625,-0.07031 l 1.777344,1.777343 a 1,1 0 0 0 1.414062,0 1,1 0 0 0 0,-1.414062 L 17.929688,16.515625 A 2,2 0 0 0 18,16 2,2 0 0 0 16,14 Z"/>
 </g>
</svg>
