<svg xmlns="http://www.w3.org/2000/svg" width="32" height="32" version="1">
 <g id="22-22-cadence" transform="translate(27,5)">
  <path style="fill:#dfdfdf" d="m 15.999999,8.0001308 c -0.904957,0.015 -2.28497,0.225514 -2.642578,0.615235 -0.381363,0.415605 -0.46397,0.999909 -0.357422,1.6464842 0.203127,1.232663 1.905361,2.743927 2.914062,4.103516 -0.007,0.0088 -0.01442,0.01857 -0.02148,0.02734 -0.508075,0.632274 -1.56773,1.212279 -2.0625,1.703125 0.07975,-0.359236 0.137175,-1.149442 0.150391,-1.398438 0.01132,-0.213292 0.0056,-0.378794 -0.06055,-0.513671 -0.03308,-0.06744 -0.09243,-0.132099 -0.173828,-0.158204 -0.0814,-0.02611 -0.165398,-0.0087 -0.238282,0.02539 -0.196786,0.504927 -0.522267,1.184166 -0.787109,1.81836 -0.243544,0.404481 -0.415716,1.128721 -0.527344,1.386718 -0.05748,0.132851 -0.100289,0.248703 -0.126953,0.34961 -0.02512,0.09506 -0.03744,0.178583 -0.0332,0.255859 0.13912,0.187597 0.364068,0.160151 0.546875,0.171875 0.07935,-8.32e-4 0.162269,-0.01488 0.253906,-0.07031 0.215049,-0.130093 0.478403,-0.335675 0.759766,-0.576172 -0.200672,0.664198 -0.234613,0.875986 -0.554688,1.61914 -0.0044,0.01036 -0.01114,0.0209 -0.01563,0.03125 -1.688895,-0.229902 -3.4501608,-0.0842 -4.6425778,0.326172 -0.625464,0.215252 -1.107127,0.69495 -1.294922,1.22461 -0.187794,0.529662 -0.07342,1.202608 0.398438,2.037109 0.471855,0.834501 0.992354,1.217025 1.546875,1.335938 0.554521,0.118912 1.1083228,-0.0366 1.6210938,-0.451172 0.97757,-0.790357 1.859026,-2.624004 2.544921,-4.167969 0.01126,0.0017 0.02391,0.0023 0.03516,0.0039 0.807741,0.119162 1.582568,1.20627 2.259767,1.384766 -0.354601,0.11134 -0.769443,0.226614 -0.994142,0.339843 -0.192386,0.09695 -0.334923,0.184475 -0.419921,0.308594 -0.0425,0.06206 -0.07058,0.145725 -0.05273,0.228516 0.01785,0.08279 0.07626,0.146031 0.142578,0.191406 0.132645,0.09075 0.320905,0.140705 0.601562,0.181641 0.280656,0.04093 0.750689,0.06587 1.226563,0.07227 0.0014,1.9e-5 0.0025,-1.9e-5 0.0039,0 0.0014,-1.9e-5 0.0025,1.9e-5 0.0039,0 0.475874,-0.0064 0.945907,-0.03134 1.226563,-0.07227 0.280657,-0.04094 0.468917,-0.09089 0.601562,-0.181641 0.06632,-0.04537 0.124728,-0.108616 0.142578,-0.191406 0.01785,-0.08279 -0.01023,-0.166456 -0.05273,-0.228516 -0.085,-0.124119 -0.227536,-0.211644 -0.419922,-0.308594 -0.224699,-0.113228 -0.639541,-0.228503 -0.994141,-0.339843 0.677199,-0.178496 1.452025,-1.265604 2.259766,-1.384766 0.01125,-0.0016 0.0239,-0.0022 0.03516,-0.0039 0.685895,1.543965 1.567352,3.377612 2.544922,4.167969 0.51277,0.414572 1.066573,0.570084 1.621094,0.451172 0.554521,-0.118913 1.07502,-0.501437 1.546875,-1.335938 0.471858,-0.834501 0.586232,-1.507447 0.398437,-2.037109 -0.187795,-0.52966 -0.669457,-1.009358 -1.294921,-1.22461 -1.192417,-0.410372 -2.953685,-0.556074 -4.642579,-0.326172 -0.0045,-0.01035 -0.01122,-0.02089 -0.01562,-0.03125 -0.320077,-0.743154 -0.354016,-0.954942 -0.554688,-1.61914 0.281363,0.240497 0.544717,0.446079 0.759766,0.576172 0.09164,0.05543 0.174556,0.06948 0.253906,0.07031 0.182807,-0.01172 0.407755,0.01572 0.546875,-0.171875 0.0042,-0.07728 -0.0081,-0.160799 -0.0332,-0.255859 -0.02666,-0.100907 -0.06947,-0.216759 -0.126953,-0.34961 -0.111628,-0.257997 -0.2838,-0.982237 -0.527344,-1.386718 -0.264842,-0.634194 -0.590324,-1.313433 -0.787109,-1.81836 -0.07289,-0.03408 -0.156882,-0.0515 -0.238282,-0.02539 -0.0814,0.0261 -0.140748,0.09076 -0.173828,0.158204 -0.06615,0.134878 -0.07187,0.300379 -0.06055,0.513671 0.01322,0.248996 0.07064,1.039202 0.150391,1.398438 -0.49477,-0.490842 -1.554425,-1.070847 -2.0625,-1.703121 -0.0071,-0.0088 -0.01449,-0.01854 -0.02148,-0.02734 1.008693,-1.359589 2.710927,-2.870853 2.914054,-4.103516 0.106548,-0.6465752 0.02394,-1.2308792 -0.357422,-1.6464842 -0.357608,-0.389721 -1.737621,-0.600235 -2.642578,-0.615235 z"/>
  <rect style="opacity:0.001" width="22" height="22" x="5" y="5"/>
 </g>
 <g id="cadence">
  <rect style="opacity:0.2" width="28" height="28" x="2" y="3" rx="1.4" ry="1.4"/>
  <rect style="fill:#752828" width="28" height="28" x="2" y="2" rx="1.4" ry="1.4"/>
  <path style="opacity:0.2" d="m 16.000356,8.0000005 c -1.005549,0.016876 -2.104683,0.254914 -2.502042,0.6933342 -0.423753,0.4675397 -0.514892,1.1241248 -0.396499,1.8514953 0.225707,1.386695 1.682009,3.087536 2.802834,4.617018 -0.0079,0.0099 -0.01561,0.02138 -0.02344,0.03125 -0.564551,0.711283 -1.498351,1.529775 -2.048117,2.081956 0.08862,-0.404125 0.153291,-0.842898 0.167975,-1.123006 0.01258,-0.239944 0.0051,-0.426373 -0.06836,-0.578104 -0.03675,-0.07586 -0.102913,-0.150316 -0.193366,-0.179681 -0.09045,-0.02936 -0.184647,-0.0091 -0.265634,0.0293 -0.161973,0.07681 -0.315989,0.231039 -0.511737,0.478498 -0.195746,0.247461 -0.424723,0.66212 -0.695337,1.117147 -0.270615,0.455024 -0.461922,0.819096 -0.585959,1.109334 -0.06387,0.149454 -0.110998,0.279047 -0.14063,0.392564 -0.02792,0.106934 -0.04182,0.20212 -0.03711,0.289052 0.154583,0.21104 0.406269,0.180162 0.609396,0.193352 0.08817,-9.34e-4 0.179438,-0.01574 0.28126,-0.07813 0.238954,-0.146348 0.531142,-0.377863 0.843781,-0.648413 -0.222978,0.747195 -0.170541,0.968603 -0.526192,1.804621 -0.0049,0.01165 -0.0126,0.02352 -0.01758,0.03516 -1.876628,-0.25863 -3.8353767,-0.09447 -5.1603394,0.367174 -0.6949884,0.242151 -1.2288801,0.781055 -1.4375511,1.376903 -0.2086687,0.595849 -0.080928,1.652922 0.4433752,2.591702 0.5243046,0.938781 1.1006984,1.37008 1.7168579,1.503852 0.6161604,0.13377 1.2310765,-0.04142 1.8008454,-0.507794 1.086236,-0.889119 2.068041,-3.251201 2.830179,-4.9881 0.01251,0.0018 0.02462,0.0021 0.03711,0.0039 0.897527,0.134054 1.759336,0.881191 2.511809,1.081992 -0.394015,0.125254 -0.7445,0.253467 -0.994177,0.380845 -0.213769,0.109064 -0.370415,0.209968 -0.46486,0.349597 -0.04722,0.06982 -0.07843,0.162713 -0.0586,0.25585 0.01983,0.09314 0.08256,0.163791 0.156255,0.214836 0.147389,0.102093 0.358092,0.160972 0.669946,0.207024 0.311854,0.04604 0.723227,0.07286 1.251998,0.08008 0.0015,2.1e-5 0.0024,-2.1e-5 0.0039,0 0.0015,-2.1e-5 0.0024,2.1e-5 0.0039,0 0.528771,-0.0072 0.940143,-0.03404 1.251997,-0.08008 0.311854,-0.04605 0.522557,-0.104931 0.669946,-0.207024 0.07369,-0.05105 0.136425,-0.121699 0.156256,-0.214836 0.01983,-0.09314 -0.01137,-0.186032 -0.05859,-0.25585 -0.09445,-0.139629 -0.251091,-0.240533 -0.464861,-0.349597 -0.249677,-0.127378 -0.600161,-0.255591 -0.994176,-0.380845 0.752472,-0.200801 1.614281,-0.947938 2.511808,-1.081992 0.01249,-0.0018 0.0246,-0.0021 0.03711,-0.0039 0.762138,1.736899 1.743943,4.098981 2.830179,4.9881 0.569769,0.466375 1.184685,0.641564 1.800846,0.507794 0.616159,-0.133772 1.192552,-0.565071 1.716858,-1.503852 0.524298,-0.93878 0.652043,-1.995853 0.443375,-2.591702 -0.208672,-0.595848 -0.742563,-1.134752 -1.437551,-1.376903 -1.324963,-0.461641 -3.283712,-0.625804 -5.16034,-0.367174 -0.005,-0.01164 -0.01268,-0.02351 -0.01758,-0.03516 -0.355652,-0.836018 -0.303915,-1.057426 -0.526894,-1.804621 0.312638,0.27055 0.604826,0.502065 0.84378,0.648413 0.101822,0.06239 0.193087,0.07719 0.28126,0.07813 0.203127,-0.01319 0.454813,0.01769 0.609396,-0.193352 0.0047,-0.08694 -0.0092,-0.182118 -0.03711,-0.289052 -0.02963,-0.113517 -0.07676,-0.24311 -0.14063,-0.392564 -0.124036,-0.290238 -0.315344,-0.65431 -0.585959,-1.109334 -0.270613,-0.455027 -0.49959,-0.869686 -0.695336,-1.117147 -0.195748,-0.247459 -0.349765,-0.401691 -0.511738,-0.478498 -0.08099,-0.0384 -0.175181,-0.05866 -0.265634,-0.0293 -0.09045,0.02937 -0.156615,0.103824 -0.193366,0.179681 -0.07346,0.151731 -0.08094,0.33816 -0.06836,0.578104 0.01468,0.280108 0.07935,0.718881 0.167975,1.123006 -0.549767,-0.552181 -1.482865,-1.370673 -2.047416,-2.081956 -0.0078,-0.0099 -0.01554,-0.02135 -0.02344,-0.03125 1.120825,-1.529482 2.577128,-3.230323 2.802835,-4.617018 0.118402,-0.7273705 0.02726,-1.3839556 -0.396489,-1.8514953 -0.39736,-0.4384202 -1.496494,-0.6764578 -2.502042,-0.6933342 z"/>
  <path style="fill:#4c66cc" d="m 16.000356,6.9999997 c -1.005549,0.016876 -2.104683,0.254914 -2.502042,0.6933342 -0.423753,0.4675397 -0.514892,1.1241248 -0.396499,1.8514952 0.225707,1.3866959 1.682009,3.0875369 2.802834,4.6170189 -0.0079,0.0099 -0.01561,0.02138 -0.02344,0.03125 -0.564551,0.711283 -1.498351,1.529775 -2.048117,2.081956 0.08862,-0.404125 0.153291,-0.842898 0.167975,-1.123006 0.01258,-0.239944 0.0051,-0.426373 -0.06836,-0.578104 -0.03675,-0.07586 -0.102913,-0.150316 -0.193366,-0.179681 -0.09045,-0.02936 -0.184647,-0.0091 -0.265634,0.0293 -0.161973,0.07681 -0.315989,0.231039 -0.511737,0.478498 -0.195746,0.247461 -0.424723,0.66212 -0.695337,1.117147 -0.270615,0.455024 -0.461922,0.819096 -0.585959,1.109334 -0.06387,0.149454 -0.110998,0.279047 -0.14063,0.392564 -0.02792,0.106934 -0.04182,0.20212 -0.03711,0.289052 0.154583,0.21104 0.406269,0.180162 0.609396,0.193352 0.08817,-9.34e-4 0.179438,-0.01574 0.28126,-0.07813 0.238954,-0.146348 0.531142,-0.377863 0.843781,-0.648413 -0.222978,0.747195 -0.170541,0.968603 -0.526192,1.804621 -0.0049,0.01165 -0.0126,0.02352 -0.01758,0.03516 -1.876628,-0.25863 -3.8353767,-0.09447 -5.1603394,0.367174 -0.6949884,0.242151 -1.2288801,0.781055 -1.4375511,1.376903 -0.2086687,0.595849 -0.080928,1.652922 0.4433752,2.591702 0.5243046,0.938781 1.1006984,1.37008 1.7168579,1.503852 0.6161604,0.13377 1.2310765,-0.04142 1.8008454,-0.507794 1.086236,-0.889119 2.068041,-3.251201 2.830179,-4.9881 0.01251,0.0018 0.02462,0.0021 0.03711,0.0039 0.897527,0.134054 1.759336,0.881191 2.511809,1.081992 -0.394015,0.125254 -0.7445,0.253467 -0.994177,0.380845 -0.213769,0.109064 -0.370415,0.209968 -0.46486,0.349597 -0.04722,0.06982 -0.07843,0.162713 -0.0586,0.25585 0.01983,0.09314 0.08256,0.163791 0.156255,0.214836 0.147389,0.102093 0.358092,0.160972 0.669946,0.207024 0.311854,0.04604 0.723227,0.07286 1.251998,0.08008 0.0015,2.1e-5 0.0024,-2.1e-5 0.0039,0 0.0015,-2.1e-5 0.0024,2.1e-5 0.0039,0 0.528771,-0.0072 0.940143,-0.03404 1.251997,-0.08008 0.311854,-0.04605 0.522557,-0.104931 0.669946,-0.207024 0.07369,-0.05105 0.136425,-0.121699 0.156256,-0.214836 0.01983,-0.09314 -0.01137,-0.186032 -0.05859,-0.25585 -0.09445,-0.139629 -0.251091,-0.240533 -0.464861,-0.349597 -0.249677,-0.127378 -0.600161,-0.255591 -0.994176,-0.380845 0.752472,-0.200801 1.614281,-0.947938 2.511808,-1.081992 0.01249,-0.0018 0.0246,-0.0021 0.03711,-0.0039 0.762138,1.736899 1.743943,4.098981 2.830179,4.9881 0.569769,0.466375 1.184685,0.641564 1.800846,0.507794 0.616159,-0.133772 1.192552,-0.565071 1.716858,-1.503852 0.524298,-0.93878 0.652043,-1.995853 0.443375,-2.591702 -0.208672,-0.595848 -0.742563,-1.134752 -1.437551,-1.376903 -1.324963,-0.461641 -3.283712,-0.625804 -5.16034,-0.367174 -0.005,-0.01164 -0.01268,-0.02351 -0.01758,-0.03516 -0.355652,-0.836018 -0.303915,-1.057426 -0.526894,-1.804621 0.312638,0.27055 0.604826,0.502065 0.84378,0.648413 0.101822,0.06239 0.193087,0.07719 0.28126,0.07813 0.203127,-0.01319 0.454813,0.01769 0.609396,-0.193352 0.0047,-0.08694 -0.0092,-0.182118 -0.03711,-0.289052 -0.02963,-0.113517 -0.07676,-0.24311 -0.14063,-0.392564 -0.124036,-0.290238 -0.315344,-0.65431 -0.585959,-1.109334 -0.270613,-0.455027 -0.49959,-0.869686 -0.695336,-1.117147 -0.195748,-0.247459 -0.349765,-0.401691 -0.511738,-0.478498 -0.08099,-0.0384 -0.175181,-0.05866 -0.265634,-0.0293 -0.09045,0.02937 -0.156615,0.103824 -0.193366,0.179681 -0.07346,0.151731 -0.08094,0.33816 -0.06836,0.578104 0.01468,0.280108 0.07935,0.718881 0.167975,1.123006 -0.549767,-0.552181 -1.482865,-1.370673 -2.047416,-2.081956 -0.0078,-0.0099 -0.01554,-0.02135 -0.02344,-0.03125 1.120825,-1.529482 2.577128,-3.230323 2.802835,-4.6170189 0.118402,-0.7273704 0.02726,-1.3839555 -0.396489,-1.8514952 -0.39736,-0.4384202 -1.496494,-0.6764578 -2.502042,-0.6933342 z"/>
  <path style="opacity:0.1;fill:#ffffff" d="M 3.4003906,2 C 2.6247906,2 2,2.6247906 2,3.4003906 v 1 C 2,3.6247906 2.6247906,3 3.4003906,3 H 28.599609 C 29.375209,3 30,3.6247906 30,4.4003906 v -1 C 30,2.6247906 29.375209,2 28.599609,2 Z"/>
  <path style="opacity:0.1;fill:#ffffff" d="M 16,7 C 14.994451,7.016876 13.895406,7.2549392 13.498047,7.6933594 13.079739,8.1548918 12.988073,8.8013684 13.099609,9.5175781 13.160907,9.205821 13.287152,8.9260459 13.498047,8.6933594 13.895406,8.2549392 14.994451,8.016876 16,8 c 1.005548,0.016876 2.104593,0.2549392 2.501953,0.6933594 0.209628,0.2312909 0.338659,0.5088571 0.400391,0.8183594 C 19.012401,8.7979512 18.919066,8.1535766 18.501953,7.6933594 18.104593,7.2549392 17.005548,7.0168764 16,7 Z m -2.396484,7.382812 c -0.04498,0.0062 -0.08841,0.02182 -0.128907,0.04102 -0.161973,0.07681 -0.31597,0.231057 -0.511718,0.478516 -0.195746,0.247461 -0.424699,0.66216 -0.695313,1.117187 -0.270615,0.455024 -0.4619,0.819137 -0.585937,1.109375 -0.06387,0.149454 -0.110993,0.279061 -0.140625,0.392578 -0.02792,0.106934 -0.04182,0.202131 -0.03711,0.289063 0.071,0.09693 0.161913,0.139537 0.259766,0.162109 0.123057,-0.267553 0.271356,-0.562105 0.503906,-0.953125 0.270614,-0.455027 0.499567,-0.869726 0.695313,-1.117187 0.195748,-0.247459 0.349745,-0.401706 0.511718,-0.478516 0.08099,-0.0384 0.175175,-0.05866 0.265625,-0.0293 0.09045,0.02936 0.15661,0.103828 0.19336,0.179688 0.002,0.0041 0.002,0.0095 0.0039,0.01367 0.01921,-0.145047 0.05876,-0.326939 0.06445,-0.435547 0.01258,-0.239944 0.0051,-0.426394 -0.06836,-0.578125 -0.03675,-0.07586 -0.102907,-0.150323 -0.19336,-0.179688 -0.04522,-0.01468 -0.09174,-0.01791 -0.136718,-0.01172 z m 4.792968,0 c -0.04498,-0.0062 -0.09149,-0.003 -0.136718,0.01172 -0.09045,0.02937 -0.156609,0.103831 -0.19336,0.179688 -0.07346,0.151731 -0.08094,0.338181 -0.06836,0.578125 0.0057,0.108608 0.04525,0.2905 0.06445,0.435547 0.0019,-0.0041 0.0019,-0.0096 0.0039,-0.01367 0.03675,-0.07586 0.10291,-0.150318 0.19336,-0.179688 0.09045,-0.02936 0.184635,-0.0091 0.265625,0.0293 0.161973,0.07681 0.31597,0.231057 0.511718,0.478516 0.195746,0.247461 0.4247,0.66216 0.695313,1.117187 0.23255,0.39102 0.380849,0.685572 0.503906,0.953125 0.09785,-0.02257 0.188767,-0.06518 0.259766,-0.162109 0.0047,-0.08694 -0.0092,-0.182129 -0.03711,-0.289063 -0.02963,-0.113517 -0.07676,-0.243124 -0.140625,-0.392578 -0.124036,-0.290238 -0.315322,-0.654351 -0.585937,-1.109375 -0.270613,-0.455027 -0.499567,-0.869726 -0.695313,-1.117187 -0.195748,-0.247459 -0.349745,-0.401709 -0.511718,-0.478516 -0.04049,-0.0192 -0.08393,-0.03482 -0.128907,-0.04102 z M 15.501953,14.625 c -0.490413,0.532283 -1.062087,1.060759 -1.5,1.488281 -6.05e-4,0.01415 7.63e-4,0.02452 0,0.03906 -0.01468,0.280108 -0.07935,0.718922 -0.167969,1.123047 0.549766,-0.552181 1.482324,-1.370749 2.046875,-2.082032 0.0078,-0.0099 0.01554,-0.02135 0.02344,-0.03125 C 15.775925,14.986933 15.636774,14.803943 15.501953,14.625 Z m 0.996094,0 c -0.134821,0.178943 -0.273972,0.361933 -0.402344,0.537109 0.0079,0.0099 0.01564,0.02135 0.02344,0.03125 0.564551,0.711283 1.497108,1.529851 2.046875,2.082032 -0.08863,-0.404125 -0.153289,-0.842939 -0.167969,-1.123047 -7.63e-4,-0.01454 6.05e-4,-0.02491 0,-0.03906 -0.437837,-0.427522 -1.009747,-0.955998 -1.5,-1.488281 z m -3.259766,3.652344 c -0.117869,0.102001 -0.20806,0.155708 -0.318359,0.24414 -0.04992,0.158187 -0.113274,0.335564 -0.208984,0.560547 -0.0049,0.01165 -0.0126,0.02352 -0.01758,0.03516 -1.876628,-0.258631 -3.8351932,-0.09446 -5.1601559,0.367187 -0.6949884,0.242151 -1.228829,0.781105 -1.4375,1.376953 -0.1085064,0.309838 -0.1209395,0.744877 -0.039063,1.222656 0.014509,-0.0731 0.016872,-0.159291 0.039063,-0.222656 0.208671,-0.595848 0.7425116,-1.134802 1.4375,-1.376953 1.303426,-0.45414 3.2197949,-0.615938 5.0683589,-0.375 0.09488,-0.21669 0.196097,-0.445473 0.285157,-0.648437 0.01251,0.0018 0.02462,0.0021 0.03711,0.0039 0.004,5.95e-4 0.0077,0.0033 0.01172,0.0039 0.119823,-0.397262 0.14704,-0.669677 0.302734,-1.191406 z m 5.523438,0 c 0.155695,0.521729 0.182704,0.794144 0.302734,1.191406 0.004,-6.22e-4 0.0077,-0.0033 0.01172,-0.0039 0.01249,-0.0018 0.0246,-0.0021 0.03711,-0.0039 0.08906,0.202964 0.190282,0.431747 0.285157,0.648437 1.848564,-0.240937 3.764933,-0.07914 5.068359,0.375 0.694988,0.242151 1.228828,0.781105 1.4375,1.376953 0.0224,0.06396 0.02644,0.150738 0.04102,0.22461 0.08222,-0.478471 0.06762,-0.914393 -0.04102,-1.22461 -0.208672,-0.595848 -0.742512,-1.134802 -1.4375,-1.376953 -1.324963,-0.461641 -3.283528,-0.625817 -5.160156,-0.367187 -0.005,-0.01164 -0.01268,-0.02351 -0.01758,-0.03516 -0.09571,-0.224983 -0.158987,-0.40236 -0.208984,-0.560547 -0.110299,-0.08843 -0.20049,-0.142139 -0.318359,-0.24414 z m -4.466797,2.736328 c -0.134786,0.07947 -0.248879,0.160951 -0.31836,0.263672 -0.04722,0.06982 -0.07842,0.162722 -0.05859,0.255859 0.01983,0.09314 0.08256,0.163799 0.15625,0.214844 0.10274,0.07117 0.252601,0.116787 0.429687,0.15625 0.24566,-0.119476 0.56233,-0.240021 0.931641,-0.357422 -0.357678,-0.09545 -0.741446,-0.315393 -1.140625,-0.533203 z m 3.410156,0 c -0.399179,0.21781 -0.782948,0.437755 -1.140625,0.533203 0.369311,0.117401 0.685981,0.237946 0.931641,0.357422 0.177086,-0.03946 0.326947,-0.08508 0.429687,-0.15625 0.07369,-0.05105 0.136419,-0.121707 0.15625,-0.214844 0.01983,-0.09314 -0.01137,-0.186041 -0.05859,-0.255859 -0.06948,-0.102721 -0.183575,-0.184201 -0.31836,-0.263672 z"/>
  <rect style="opacity:0.001" width="32" height="32" x="0" y="0"/>
 </g>
</svg>
