<svg xmlns="http://www.w3.org/2000/svg" width="32" height="32" version="1">
 <g id="computer" transform="translate(-2e-4,34)">
  <rect style="opacity:0.001" width="32" height="32" x="0" y="-34"/>
  <g transform="translate(2e-4,-35)">
   <rect style="fill:#8e8e8e" width="21" height="16" x="-28" y="-24" rx="1.313" ry="1.333" transform="matrix(0,-1,-1,0,0,0)"/>
   <rect style="fill:#4f4f4f" width="20" height="26" x="-25" y="-29" rx="1.25" ry="1.3" transform="matrix(0,-1,-1,0,0,0)"/>
   <rect style="fill:#333333" width="16" height="22" x="-23" y="-27" rx="0" ry="0" transform="matrix(0,-1,-1,0,0,0)"/>
   <path style="opacity:0.1;fill:#dfdfdf" d="M 4.3008,5 C 3.5806,5 3,5.5575 3,6.25 v 1 C 3,6.5575 3.5806,6 4.3008,6 h 23.398 c 0.72,0 1.301,0.5575 1.301,1.25 v -1 C 28.9998,5.5575 28.4188,5 27.6988,5 Z"/>
   <path style="opacity:0.2" d="m 8,26.688 v 1 C 8,28.415 8.5953,29 9.334,29 H 22.666 C 23.405,29 24,28.415 24,27.688 v -1 C 24,27.415 23.405,28 22.666,28 H 9.334 C 8.5953,28 8,27.415 8,26.688 Z"/>
   <path style="opacity:0.2" d="m 3,23.75 v 1 C 3,25.442 3.5806,26 4.3008,26 h 23.398 c 0.72,0 1.301,-0.558 1.301,-1.25 v -1 c 0,0.692 -0.581,1.25 -1.301,1.25 H 4.3008 c -0.7204,0 -1.301,-0.558 -1.301,-1.25 z"/>
   <rect style="opacity:0.1;fill:#ffffff" width="1" height="22" x="-24" y="-27" rx="0" ry="0" transform="matrix(0,-1,-1,0,0,0)"/>
  </g>
 </g>
 <g id="computer-laptop" transform="translate(-4.0002,34)">
  <rect style="opacity:0.001" width="32" height="32" x="36" y="-34"/>
  <g transform="translate(36,-35)">
   <rect style="fill:#8e8e8e" width="3" height="30" x="-27" y="-31" rx="1" ry="1" transform="matrix(0,-1,-1,0,0,0)"/>
   <path style="fill:#4f4f4f" d="M 29,22.75 V 7.25 C 29,6.5575 28.42,6 27.7,6 H 4.3 C 3.5798,6 3,6.5575 3,7.25 v 15.5 C 3,23.442 3.5798,24 4.3,24 h 23.4 c 0.7202,0 1.3,-0.5575 1.3,-1.25 z"/>
   <path style="fill:#333333" d="M 27,22 V 8 H 5 v 14 z"/>
   <path style="opacity:0.1;fill:#dfdfdf" d="M 4.3008,6 C 3.5806,6 3,6.5575 3,7.25 v 1 C 3,7.5575 3.5806,7 4.3008,7 h 23.398 c 0.72,0 1.301,0.5575 1.301,1.25 v -1 C 28.9998,6.5575 28.4188,6 27.6988,6 Z"/>
   <path style="opacity:0.2" d="m 3,22.75 v 1 C 3,24.442 3.5806,25 4.3008,25 h 23.398 c 0.72,0 1.301,-0.558 1.301,-1.25 v -1 c 0,0.692 -0.581,1.25 -1.301,1.25 H 4.3008 c -0.7204,0 -1.301,-0.558 -1.301,-1.25 z"/>
   <path style="opacity:0.2" d="m 1,26 v 1 c 0,0.554 0.446,1 1,1 h 28 c 0.554,0 1,-0.446 1,-1 v -1 c 0,0.554 -0.446,1 -1,1 H 2 C 1.446,27 1,26.554 1,26 Z"/>
   <path style="opacity:0.1;fill:#ffffff" d="M 27,23 V 22 H 5 v 1 z"/>
  </g>
 </g>
 <g id="22-22-computer" transform="translate(-2e-4,32)">
  <rect style="opacity:0.001" width="22" height="22" x="0" y="0"/>
  <path style="fill:#dfdfdf" d="M 3.125,2.9999998 C 2,2.9999998 2,4.1431759 2,4.1431759 V 15.874512 c 0,1.143176 1.125,1.143176 1.125,1.143176 h 5.0375 c 0,0 -1.2001266,-0.298955 -1.1625,0.843601 V 19 h 8 v -1.138711 c 0,-1.143176 -1.050415,-0.843601 -1.050415,-0.843601 H 18.875 C 20,17.017688 20,15.874512 20,15.874512 V 4.1431759 c 0,0 0,-1.1431761 -1.125,-1.1431761 z M 4,5 h 14 v 9.98549 L 4,15.01451 Z"/>
 </g>
 <g id="16-16-computer" transform="translate(-2e-4,32)">
  <rect style="opacity:0.001" width="22" height="22" x="0" y="22"/>
  <path style="fill:#dfdfdf" d="M 4,26 C 3,26 3,27.000279 3,27.000279 V 37.00307 c 0,1.000279 1,1.000279 1,1.000279 h 5 c 0,0 -1,0 -1,1.000279 V 40 h 6 v -0.996372 c 0,-1.000279 -0.978516,-1.000279 -0.978516,-1.000279 H 18 c 1,0 1,-1.000279 1,-1.000279 V 27.000279 C 19,27.000279 19,26 18,26 Z m 1,2.000558 h 12 v 7.976836 l -12,0.0254 z"/>
 </g>
 <g id="22-22-computer-laptop" transform="translate(-2e-4,32)">
  <rect style="opacity:0.001" width="22" height="22" x="22" y="0"/>
  <path style="fill:#dfdfdf" d="M 25.125,3 C 24,3 24,4.1425781 24,4.1425781 V 14.875 c 0,0.857382 0.632812,1.071414 0.949219,1.125 H 41.007812 C 41.988467,15.906654 42,14.875 42,14.875 V 4.1425781 C 42,4.1425781 42,3 40.875,3 Z M 26,5 h 14 v 8.986328 l -14,0.02734 z m -2,12 c -0.554,0 -1,0.446 -1,1 0,0.554 0.446,1 1,1 h 18 c 0.554,0 1,-0.446 1,-1 0,-0.554 -0.446,-1 -1,-1 z"/>
 </g>
 <g id="16-16-computer-laptop" transform="translate(-2e-4,32)">
  <rect style="opacity:0.001" width="22" height="22" x="22" y="22"/>
  <path style="fill:#dfdfdf" d="m 26,26 c -1,0 -1,1 -1,1 v 9.003906 C 25,36.941668 25.851074,36.996337 25.960938,37 H 40.029297 C 40.996368,36.978286 41,36.003906 41,36.003906 V 27 c 0,0 0,-1 -1,-1 z m 1,2 h 12 v 6.976562 l -12,0.02539 z m -2,10 c -0.554,0 -1,0.446 -1,1 0,0.554 0.446,1 1,1 h 16 c 0.554,0 1,-0.446 1,-1 0,-0.554 -0.446,-1 -1,-1 z"/>
 </g>
</svg>
