<svg xmlns="http://www.w3.org/2000/svg" width="32" height="32" version="1.1">
 <g id="22-22-configure" transform="translate(32,10)">
  <rect style="opacity:0.001" width="22" height="22" x="0" y="0"/>
  <path style="fill:#dfdfdf" d="M 8.9824219,3 8.8046875,5.1074219 a 6.3423397,6.2857118 0 0 0 -1.8535156,1.0625 L 5.0175781,5.2675781 3,8.7324219 4.7539062,9.9394531 A 6.3423397,6.2857118 0 0 0 4.6582031,11 6.3423397,6.2857118 0 0 0 4.75,12.064453 L 3,13.267578 5.0175781,16.732422 6.9453125,15.832031 a 6.3423397,6.2857118 0 0 0 1.859375,1.056641 L 8.9824219,19 h 4.0351561 l 0.177734,-2.107422 a 6.3423397,6.2857118 0 0 0 1.853516,-1.0625 L 16.982422,16.732422 19,13.267578 17.246094,12.060547 A 6.3423397,6.2857118 0 0 0 17.341797,11 6.3423397,6.2857118 0 0 0 17.25,9.9355469 L 19,8.7324219 16.982422,5.2675781 15.054688,6.1679688 A 6.3423397,6.2857118 0 0 0 13.195312,5.1113281 L 13.017578,3 Z M 11,8 a 3.0000004,2.9999999 0 0 1 3,3 3.0000004,2.9999999 0 0 1 -3,3 3.0000004,2.9999999 0 0 1 -3,-3 3.0000004,2.9999999 0 0 1 3,-3 z"/>
 </g>
 <g id="16-16-configure" transform="translate(51,34)">
  <rect style="opacity:0" width="16" height="16" x="3" y="-18"/>
  <g id="layer2" transform="translate(-421.0625,-446)">
   <path style="fill:#dfdfdf" d="m 430.25,429 -0.1543,1.84375 a 5.5,5.5 0 0 0 -1.60742,0.92969 l -1.67578,-0.78906 -1.75,3.03124 1.52148,1.05665 a 5.5,5.5 0 0 0 -0.084,0.92773 5.5,5.5 0 0 0 0.0801,0.93164 l -1.51758,1.05274 1.75,3.03124 1.67188,-0.7871 a 5.5,5.5 0 0 0 1.61132,0.92382 L 430.25,443 h 3.5 l 0.1543,-1.84375 a 5.5,5.5 0 0 0 1.60742,-0.92969 l 1.67578,0.78906 1.75,-3.03124 -1.52148,-1.05665 a 5.5,5.5 0 0 0 0.084,-0.92773 5.5,5.5 0 0 0 -0.0801,-0.93164 l 1.51758,-1.05274 -1.75,-3.03124 -1.67188,0.7871 a 5.5,5.5 0 0 0 -1.61132,-0.92382 L 433.75,429 Z m 1.75,5 a 2,2 0 0 1 2,2 2,2 0 0 1 -2,2 2,2 0 0 1 -2,-2 2,2 0 0 1 2,-2 z"/>
  </g>
 </g>
 <g id="configure">
  <rect style="opacity:0.001" width="32" height="32" x="0" y="0"/>
  <g transform="translate(9.6369049e-5,0.9999)">
   <path style="fill:#325f78" d="m 13.134,1.0006 c -0.29681,0.0323 -0.55825,0.27515 -0.6125,0.56874 l -0.59061,2.9968 c -1.0603,0.41466 -2.0568,0.98438 -2.9312,1.6844 l -2.909,-0.9844 C 5.78844,5.16192 5.42184,5.29694 5.25945,5.57239 l -2.8,4.8562 c -0.15772,0.2793 -0.0901,0.66583 0.15312,0.87499 l 2.3187,2.0343 c -0.0816,0.54547 -0.13125,1.0943 -0.13125,1.6625 0,0.56822 0.0496,1.117 0.13125,1.6625 l -2.3187,2.0344 c -0.24319,0.20916 -0.31084,0.59569 -0.15312,0.87499 l 2.8,4.8562 c 0.16239,0.2754 0.52899,0.41046 0.83124,0.30624 l 2.9093,-0.98436 c 0.87441,0.69997 1.8709,1.2697 2.9312,1.6844 l 0.59061,2.9968 c 0.0599,0.3137 0.35879,0.56439 0.67812,0.56874 h 5.5999 c 0.31933,-0.004 0.61824,-0.25504 0.67811,-0.56874 l 0.59062,-2.9968 c 1.0603,-0.41466 2.0568,-0.98439 2.9312,-1.6844 l 2.9093,0.98436 c 0.30224,0.10422 0.66885,-0.0308 0.83124,-0.30624 l 2.8,-4.8562 c 0.15771,-0.2793 0.0901,-0.66583 -0.15312,-0.87499 l -2.3187,-2.0344 c 0.0816,-0.54547 0.13124,-1.0942 0.13124,-1.6625 0,-0.56822 -0.0497,-1.117 -0.13124,-1.6625 l 2.3187,-2.0343 c 0.24319,-0.20916 0.31083,-0.59569 0.15312,-0.87499 l -2.8,-4.8562 C 26.5779,5.29699 26.21129,5.16192 25.90905,5.26614 l -2.9093,0.98436 c -0.875,-0.7005 -1.871,-1.2702 -2.931,-1.6849 L 19.47813,1.5688 C 19.41823,1.2551 19.11935,1.0044 18.80002,1.00006 h -5.5999 c -0.0219,-5.1e-4 -0.0438,-5.1e-4 -0.0656,0 z"/>
   <path style="opacity:0.2" d="m 16,10 c 3.3137,0 6,2.6863 6,6 0,3.3137 -2.6863,6 -6,6 -3.3137,0 -6,-2.6863 -6,-6 0,-3.3137 2.6863,-6 6,-6 z"/>
   <path style="fill:#ffffff" d="m 16,9.0002 c 3.3137,0 6,2.6863 6,6 0,3.3137 -2.6863,6 -6,6 -3.3137,0 -6,-2.6863 -6,-6 0,-3.3137 2.6863,-6 6,-6 z"/>
   <path style="opacity:0.1;fill:#ffffff" d="m 13.125,1.0002 c -0.29681,0.0323 -0.5395,0.26891 -0.59375,0.5625 l -0.59375,3 C 10.8772,4.97736 9.8744,5.55023 9,6.2502 L 6.0942,5.2814 C 5.79195,5.17718 5.41284,5.2874 5.25045,5.56265 l -2.6875,4.6875 c 0.01904,0.0215 0.04057,0.0436 0.0625,0.0625 l 0.3125,0.28125 2.3125,-4.0312 C 5.41284,6.28725 5.79195,6.17723 6.0942,6.28145 L 9.0004,7.2502 C 9.87481,6.55023 10.8776,5.9774 11.9379,5.5627 l 0.59375,-3 c 0.0542,-0.29359 0.29694,-0.5302 0.59375,-0.5625 0.0218,-5.1e-4 0.0406,-5.1e-4 0.0625,0 h 5.625 c 0.31933,0.004 0.59635,0.2488 0.65625,0.5625 l 0.59375,3 c 1.0603,0.41466 2.0631,0.98753 2.9375,1.6875 l 2.9062,-0.96875 c 0.30224,-0.10422 0.68136,0.006 0.84375,0.28125 l 2.3125,4.0312 0.3125,-0.28125 c 0.0219,-0.0189 0.0435,-0.041 0.0625,-0.0625 l -2.6875,-4.6875 C 26.58796,5.28725 26.20884,5.17718 25.9066,5.2814 L 23.0004,6.25015 C 22.12599,5.55018 21.1232,4.97735 20.0629,4.56265 l -0.59375,-3 C 19.40925,1.24895 19.13223,1.00449 18.8129,1.00015 h -5.625 c -0.0219,-5.1e-4 -0.0407,-5.1e-4 -0.0625,0 z M 2.406,10.6564 c -0.01685,0.0926 -0.01947,0.15743 0,0.25 -0.01419,-0.0788 -0.01174,-0.17122 0,-0.25 z m 27.188,0 c 0.0118,0.0788 0.0142,0.17115 0,0.25 0.0195,-0.0926 0.0169,-0.15743 0,-0.25 z m -24.75,3.5938 c -0.006,0.082 0.0046,0.1671 0,0.25 0.0085,0.16951 0.02035,0.33388 0.03125,0.5 0.01435,-0.21861 0.02988,-0.43823 0.0625,-0.65625 z m 22.312,0 -0.0937,0.0937 c 0.0326,0.21802 0.0482,0.43764 0.0625,0.65625 0.0109,-0.16612 0.0228,-0.33049 0.0312,-0.5 -0.005,-0.0829 0.006,-0.16804 0,-0.25 z m -22.312,2.5 -2.2188,1.9375 c -0.02193,0.0189 -0.04342,0.041 -0.0625,0.0625 l 0.375,0.65625 2,-1.75 C 4.89234,17.35345 4.86652,17.058 4.84395,16.7502 Z m 22.312,0 c -0.0226,0.3078 -0.0484,0.60325 -0.0937,0.90625 l 2,1.75 0.375,-0.65625 c -0.0191,-0.0215 -0.0406,-0.0436 -0.0625,-0.0625 z"/>
   <path style="opacity:0.2" d="m 2.5664,11.243 -0.10742,0.18555 c -0.15772,0.2793 -0.088923,0.66584 0.1543,0.875 l 2.2187,1.947 c 0.022588,-0.30668 0.054444,-0.6102 0.099609,-0.91211 l -2.3183,-2.035 c -0.0196,-0.018 -0.0296,-0.042 -0.0469,-0.061 z m 26.867,0 c -0.01729,0.019 -0.02729,0.0437 -0.04687,0.06055 l -2.3184,2.0352 c 0.04513,0.30191 0.07701,0.60543 0.09961,0.91211 l 2.2188,-1.9473 c 0.24319,-0.20916 0.31201,-0.5957 0.1543,-0.875 l -0.107,-0.186 z m -24.611,4.258 c -0.00833,0.16613 -0.021484,0.33085 -0.021484,0.5 0,0.25372 0.013035,0.5026 0.03125,0.75 l 0.099609,-0.08789 c -0.0574,-0.383 -0.0898,-0.77 -0.1094,-1.162 z m 22.355,0 c -0.01966,0.39194 -0.05207,0.77902 -0.10938,1.1621 l 0.09961,0.08789 c 0.01822,-0.2474 0.03125,-0.49628 0.03125,-0.75 0,-0.16915 -0.01315,-0.33387 -0.02148,-0.5 z M 2.5664,19.759 C 2.3691,19.976 2.314,20.316 2.459,20.573 l 2.8008,4.8555 c 0.16239,0.2754 0.52783,0.41086 0.83008,0.30664 l 2.9101,-0.985 c 0.87441,0.69997 1.8714,1.2709 2.9316,1.6855 l 0.58984,2.9961 c 0.0599,0.3137 0.3584,0.56401 0.67774,0.56836 h 5.6016 c 0.31933,-0.004 0.61786,-0.25466 0.67774,-0.56836 l 0.58984,-2.9961 c 1.059,-0.415 2.056,-0.986 2.93,-1.686 l 2.9102,0.98438 c 0.30224,0.10422 0.66769,-0.0312 0.83008,-0.30664 l 2.8008,-4.8555 c 0.14501,-0.2568 0.0899,-0.59757 -0.10742,-0.81445 l -2.6934,4.6699 c -0.16239,0.27544 -0.52784,0.41086 -0.83008,0.30664 l -2.911,-0.985 c -0.87441,0.69997 -1.8714,1.2689 -2.9316,1.6836 l -0.58984,2.998 c -0.059,0.313 -0.358,0.564 -0.677,0.568 h -5.6016 c -0.31933,-0.0043 -0.61784,-0.25466 -0.67774,-0.56836 l -0.589,-2.998 c -1.061,-0.415 -2.0576,-0.984 -2.932,-1.684 l -2.9102,0.984 c -0.3022,0.105 -0.6676,-0.031 -0.83,-0.306 l -2.6934,-4.67 z"/>
  </g>
 </g>
</svg>
