<svg xmlns="http://www.w3.org/2000/svg" xmlns:osb="http://www.openswatchbook.org/uri/2009/osb" id="svg" width="22" height="22" version="1.1" viewBox="0 0 22 22">
 <defs>
  <linearGradient id="linearGradient5606" osb:paint="solid">
   <stop id="stop5608" offset="0" style="stop-color:#000000"/>
  </linearGradient>
 </defs>
 <rect width="22" height="22" x="0" y="21" style="fill:#d3dae3;fill-opacity:0"/>
 <g id="device-notifier">
  <rect width="22" height="22" x="0" y="0" style="opacity:0"/>
  <rect width="22" height="22" x="0" y="0" style="opacity:0.00100002"/>
  <path d="M 6 3 C 4.892 3 4 3.892 4 5 L 4 17 C 4 18.108 4.892 19 6 19 L 16 19 C 17.108 19 18 18.108 18 17 L 18 5 C 18 3.892 17.108 3 16 3 L 6 3 z M 11 6 L 15 11 L 7 11 L 11 6 z M 7 12 L 15 12 L 15 14 L 7 14 L 7 12 z" style="fill:#d3dae3"/>
 </g>
</svg>
