<svg xmlns="http://www.w3.org/2000/svg" width="32" height="32" version="1.1">
 <g id="16-16-distribute-horizontal-x" transform="translate(46,8)">
  <rect style="opacity:0.001" width="16" height="16" x="8" y="8"/>
  <path style="fill:#dfdfdf" transform="translate(-46,-8)" d="M 56 20 C 55.446 20 55 20.446 55 21 L 55 27 C 55 27.554 55.446 28 56 28 L 57 28 L 58 28 L 59 28 L 59 27 L 59 21 L 59 20 L 58 20 L 57 20 L 56 20 z M 65 20 L 65 21 L 65 27 L 65 28 L 66 28 L 67 28 L 68 28 C 68.554 28 69 27.554 69 27 L 69 21 C 69 20.446 68.554 20 68 20 L 67 20 L 66 20 L 65 20 z M 60 22 L 60 26 L 61 26 L 61 25 L 63 25 L 63 26 L 64 26 L 64 22 L 63 22 L 63 23 L 61 23 L 61 22 L 60 22 z"/>
 </g>
 <g id="22-22-distribute-horizontal-x" transform="translate(27,5)">
  <rect style="opacity:0.001" width="22" height="22" x="5" y="5"/>
  <path style="fill:#dfdfdf" transform="translate(-27,-5)" d="M 36.427734 17 C 35.636306 17 35 17.509435 35 18.142578 L 35 23.857422 C 35 24.490565 35.636306 25 36.427734 25 L 37 25 L 37.142578 25 L 40 25 L 40 23.857422 L 40 18.142578 L 40 17 L 37.142578 17 L 37 17 L 36.427734 17 z M 46 17 L 46 23.857422 L 46 25 L 47.427734 25 L 49 25 L 49.572266 25 C 50.363694 25 51 24.490565 51 23.857422 L 51 18.142578 C 51 17.509435 50.363694 17 49.572266 17 L 49 17 L 47.427734 17 L 46 17 z M 41 19 L 41 23 L 42 23 L 42 22 L 44 22 L 44 23 L 45 23 L 45 19 L 44 19 L 44 20 L 42 20 L 42 19 L 41 19 z"/>
 </g>
 <g id="distribute-horizontal-x">
  <rect style="opacity:0.001" width="32" height="32" x="0" y="0"/>
  <path style="opacity:0.2" d="M 5 10 C 3.892 10 3 10.892 3 12 L 3 22 C 3 23.108 3.892 24 5 24 L 6 24 L 8 24 L 10 24 L 10 22 L 10 12 L 10 10 L 8 10 L 6 10 L 5 10 z M 22 10 L 22 12 L 22 22 L 22 24 L 24 24 L 26 24 L 27 24 C 28.108 24 29 23.108 29 22 L 29 12 C 29 10.892 28.108 10 27 10 L 26 10 L 24 10 L 22 10 z M 13 13 A 1 1 0 0 0 12 14 L 12 15 L 12 19 L 12 20 A 1 1 0 0 0 13 21 A 1 1 0 0 0 14 20 L 14 19 L 18 19 L 18 20 A 1 1 0 0 0 19 21 A 1 1 0 0 0 20 20 L 20 14 A 1 1 0 0 0 19 13 A 1 1 0 0 0 18 14 L 18 15 L 14 15 L 14 14 A 1 1 0 0 0 13 13 z"/>
  <path style="fill:#4f4f4f" d="M 5 9 C 3.892 9 3 9.892 3 11 L 3 21 C 3 22.108 3.892 23 5 23 L 6 23 L 8 23 L 10 23 L 10 21 L 10 11 L 10 9 L 8 9 L 6 9 L 5 9 z M 22 9 L 22 11 L 22 21 L 22 23 L 24 23 L 26 23 L 27 23 C 28.108 23 29 22.108 29 21 L 29 11 C 29 9.892 28.108 9 27 9 L 26 9 L 24 9 L 22 9 z"/>
  <path style="fill:#5cc0ff" d="M 13 12 A 1 1 0 0 0 12 13 L 12 14 L 12 18 L 12 19 A 1 1 0 0 0 13 20 A 1 1 0 0 0 14 19 L 14 18 L 18 18 L 18 19 A 1 1 0 0 0 19 20 A 1 1 0 0 0 20 19 L 20 13 A 1 1 0 0 0 19 12 A 1 1 0 0 0 18 13 L 18 14 L 14 14 L 14 13 A 1 1 0 0 0 13 12 z"/>
  <path style="fill:#ffffff;opacity:0.1" d="M 5 9 C 3.892 9 3 9.892 3 11 L 3 12 C 3 10.892 3.892 10 5 10 L 6 10 L 8 10 L 10 10 L 10 9 L 8 9 L 6 9 L 5 9 z M 22 9 L 22 10 L 24 10 L 26 10 L 27 10 C 28.108 10 29 10.892 29 12 L 29 11 C 29 9.892 28.108 9 27 9 L 26 9 L 24 9 L 22 9 z"/>
  <path style="fill:#ffffff;opacity:0.2" d="M 13 12 A 1 1 0 0 0 12 13 L 12 14 A 1 1 0 0 1 13 13 A 1 1 0 0 1 14 14 L 14 13 A 1 1 0 0 0 13 12 z M 14 14 L 14 15 L 18 15 L 18 14 L 14 14 z M 18 14 A 1 1 0 0 1 19 13 A 1 1 0 0 1 20 14 L 20 13 A 1 1 0 0 0 19 12 A 1 1 0 0 0 18 13 L 18 14 z"/>
 </g>
</svg>
