<svg xmlns="http://www.w3.org/2000/svg" width="32" height="32" version="1.1">
 <g id="22-22-distribute-horizontal-x" transform="translate(-433.0002,75)">
  <rect style="opacity:0.001" width="22" height="22" x="465" y="-65"/>
  <path style="fill:#dfdfdf" d="m 472.0002,-58.00334 -5,4 5,4 v -3 h 8 v 3 l 5,-4 -5,-4 v 3 h -8 z"/>
 </g>
 <g id="16-16-distribute-horizontal-x" transform="translate(-435.0002,75)">
  <rect style="opacity:0.001" width="16" height="16" x="489" y="-59"/>
  <path style="fill:#dfdfdf" d="m 494.0002,-54.00334 -4,2.999999 4,3.000001 v -2.000001 h 6 v 2.000001 l 4,-3.000001 -4,-2.999999 v 2.000001 h -6 z"/>
 </g>
 <g id="distribute-horizontal-x">
  <rect style="opacity:0.001" width="32" height="32" x="0" y="0"/>
  <g>
   <rect style="opacity:0.2" width="14" height="4" x="9" y="15"/>
   <path style="opacity:0.2" d="M 10.202981,11.000734 A 1.7460457,1.722978 0 0 0 9.3811936,11.230386 L 5.6268885,13.36875 1.8725838,15.507957 a 1.7460457,1.722978 0 0 0 0,2.983785 l 3.7543047,2.139207 3.7543051,2.138365 A 1.7460457,1.722978 0 0 0 12,21.277842 V 17.00027 12.722698 a 1.7460457,1.722978 0 0 0 -1.797019,-1.721964 z"/>
   <path style="opacity:0.2" d="m 21.797019,11.000734 a 1.7460457,1.722978 0 0 1 0.821787,0.229652 l 3.754305,2.138364 3.754305,2.139207 a 1.7460457,1.722978 0 0 1 0,2.983785 l -3.754305,2.139207 -3.754305,2.138365 A 1.7460457,1.722978 0 0 1 20,21.277842 V 17.00027 12.722698 a 1.7460457,1.722978 0 0 1 1.797019,-1.721964 z"/>
   <rect style="fill:#8e8e8e" width="14" height="4" x="9" y="14"/>
   <path style="fill:#e4e4e4" d="M 10.202981,10.000734 A 1.7460457,1.722978 0 0 0 9.3811936,10.230386 L 5.6268885,12.36875 1.8725838,14.507957 a 1.7460457,1.722978 0 0 0 0,2.983785 l 3.7543047,2.139207 3.7543051,2.138365 A 1.7460457,1.722978 0 0 0 12,20.277842 V 16.00027 11.722698 a 1.7460457,1.722978 0 0 0 -1.797019,-1.721964 z"/>
   <path style="fill:#e4e4e4" d="m 21.797019,10.000734 a 1.7460457,1.722978 0 0 1 0.821787,0.229652 l 3.754305,2.138364 3.754305,2.139207 a 1.7460457,1.722978 0 0 1 0,2.983785 l -3.754305,2.139207 -3.754305,2.138365 A 1.7460457,1.722978 0 0 1 20,20.277842 V 16.00027 11.722698 a 1.7460457,1.722978 0 0 1 1.797019,-1.721964 z"/>
   <path style="opacity:0.2;fill:#ffffff" d="M 10.203125 10 A 1.7460457 1.722978 0 0 0 9.3808594 10.230469 L 5.6269531 12.369141 L 1.8730469 14.507812 A 1.7460457 1.722978 0 0 0 1.0761719 16.5 A 1.7460457 1.722978 0 0 1 1.8730469 15.507812 L 5.6269531 13.369141 L 9.3808594 11.230469 A 1.7460457 1.722978 0 0 1 10.203125 11 A 1.7460457 1.722978 0 0 1 12 12.722656 L 12 11.722656 A 1.7460457 1.722978 0 0 0 10.203125 10 z"/>
   <path style="opacity:0.2;fill:#ffffff" d="M 21.796875 10 A 1.7460457 1.722978 0 0 0 20 11.722656 L 20 12.722656 A 1.7460457 1.722978 0 0 1 21.796875 11 A 1.7460457 1.722978 0 0 1 22.619141 11.230469 L 26.373047 13.369141 L 30.126953 15.507812 A 1.7460457 1.722978 0 0 1 30.923828 16.5 A 1.7460457 1.722978 0 0 0 30.126953 14.507812 L 26.373047 12.369141 L 22.619141 10.230469 A 1.7460457 1.722978 0 0 0 21.796875 10 z"/>
  </g>
 </g>
</svg>
