<svg xmlns="http://www.w3.org/2000/svg" width="32" height="32" version="1.1">
 <g id="22-22-document-encrypt" transform="translate(-315,235)">
  <rect style="opacity:0.001" width="22" height="22" x="347" y="-257"/>
  <path style="fill:#4caf50" d="m 357.99758,-254.00336 c -5.00262,-0.003 -4.99999,4.64286 -4.99999,4.64286 v 2.35714 h -0.83333 c -0.64633,0 -1.16667,0.36686 -1.16667,1 v 6.85714 c 0,0.63315 0.52034,1.14286 1.16667,1.14286 h 11.66666 c 0.64633,0 1.16667,-0.50971 1.16667,-1.14286 v -6.85714 c 0,-0.63314 -0.52963,-0.89079 -1.16667,-1 h -0.83333 v -2.35714 c 0,0 0.003,-4.6395 -5.00001,-4.64286 z m 0,3 c 2.00262,-0.003 2.00001,1.57143 2.00001,1.57143 v 2.42857 h -4 v -2.42857 c 0,0 0.003,-1.56807 1.99999,-1.57143 z"/>
 </g>
 <g id="22-22-document-open-recent" transform="translate(-351,243)">
  <rect style="opacity:0.001" width="22" height="22" x="383" y="-233"/>
  <path style="fill:#dfdfdf" d="m 393.99759,-231.00336 a 9,9 0 0 0 -9,9 9,9 0 0 0 9,9 9,9 0 0 0 9,-9 9,9 0 0 0 -9,-9 z m 0,3 a 6,6 0 0 1 6,6 6,6 0 0 1 -6,6 6,6 0 0 1 -6,-6 6,6 0 0 1 6,-6 z m -1,1 v 6 h 0.082 v 0.0117 l 3.45312,3.45313 1.41407,-1.41407 -2.94922,-2.95117 v -5.09961 h -2 z"/>
 </g>
 <g id="22-22-document-decrypt" transform="translate(0,-32)">
  <rect style="opacity:0.001" width="22" height="22" x="32" y="-22"/>
  <path style="fill:#f44336" d="m 43,-19 c -0.291932,-1.73e-4 -0.561626,0.01983 -0.820312,0.04883 -0.05558,0.0064 -0.108003,0.01576 -0.16211,0.02344 -0.224342,0.03101 -0.436912,0.07219 -0.636719,0.123046 -0.01813,0.0047 -0.03675,0.0088 -0.05469,0.01367 -0.702862,0.18683 -1.246364,0.49174 -1.681641,0.853516 -0.06427,0.05356 -0.118391,0.112029 -0.177734,0.167969 -0.206555,0.194662 -0.388083,0.39574 -0.539063,0.609375 -0.02271,0.03181 -0.0448,0.06366 -0.06641,0.0957 -0.2673,0.400833 -0.453778,0.804413 -0.576172,1.185547 -0.01598,0.04783 -0.02876,0.09002 -0.04297,0.136718 -0.0555,0.189834 -0.100189,0.361755 -0.13086,0.523438 -0.01782,0.08829 -0.02891,0.131404 -0.04102,0.208984 -4.44e-4,0.0029 -0.0015,0.0069 -0.002,0.0098 C 38.014158,-14.645157 38,-14.357422 38,-14.357422 V -14 h 3 v -0.427734 c 0,0 0.006,-0.262898 0.140625,-0.572266 h 0.002 c 0.04531,-0.103223 0.109436,-0.212443 0.189453,-0.318359 0.01315,-0.01732 0.02873,-0.03363 0.04297,-0.05078 0.07226,-0.08727 0.165426,-0.168742 0.269531,-0.246093 0.03312,-0.02445 0.06486,-0.04943 0.101563,-0.07227 0.111033,-0.0694 0.246916,-0.126408 0.394531,-0.175781 0.05094,-0.01689 0.09277,-0.03887 0.148437,-0.05274 0.04111,-0.01033 0.08705,-0.01686 0.13086,-0.02539 C 42.593783,-15.974796 42.780671,-16.00033 43,-16 c 0.220705,-3.31e-4 0.407349,0.02481 0.582031,0.05859 0.04176,0.0082 0.0857,0.01363 0.125,0.02344 0.06035,0.01495 0.10534,0.0401 0.160157,0.05859 0.142375,0.04835 0.27481,0.102787 0.382812,0.169922 0.04047,0.02509 0.07519,0.05306 0.111328,0.08008 0.09785,0.07357 0.186597,0.149931 0.25586,0.232422 0.01896,0.02253 0.03762,0.04553 0.05469,0.06836 0.07669,0.103081 0.141507,0.208264 0.185547,0.308594 C 44.992014,-14.69063 45,-14.427734 45,-14.427734 V -12 h -1 -2 -1 -3 -0.833984 c -0.567623,0 -1.036541,0.283475 -1.142578,0.78125 C 36.007729,-11.150898 36,-11.079143 36,-11 v 6.8574219 C 36,-3.5094281 36.519687,-3 37.166016,-3 H 48.833984 C 49.480314,-3 50,-3.5094281 50,-4.1425781 V -11 c 0,-0.63314 -0.519686,-1 -1.166016,-1 H 48 v -2.357422 c 0,0 -0.0141,-0.287701 -0.06836,-0.642578 -8.33e-4,-0.0054 -0.0011,-0.0043 -0.002,-0.0098 -0.01252,-0.08031 -0.02625,-0.127003 -0.04492,-0.21875 -0.03077,-0.160646 -0.07373,-0.33153 -0.128907,-0.519531 -0.01274,-0.04171 -0.02492,-0.07849 -0.03906,-0.121094 -0.121206,-0.379928 -0.305186,-0.783086 -0.570313,-1.183593 -0.02561,-0.03825 -0.0529,-0.07536 -0.08008,-0.113282 -0.155413,-0.219068 -0.340567,-0.426276 -0.554687,-0.625 -0.05255,-0.04881 -0.0999,-0.09953 -0.15625,-0.146484 -0.435277,-0.361776 -0.980732,-0.666686 -1.683594,-0.853516 -0.01855,-0.005 -0.03789,-0.0088 -0.05664,-0.01367 -0.198436,-0.05043 -0.408242,-0.09218 -0.630859,-0.123046 -0.05483,-0.0078 -0.107719,-0.01694 -0.164063,-0.02344 C 43.561512,-18.980202 43.29208,-19.00017 43,-19 Z"/>
 </g>
 <g id="document-encrypt" transform="translate(0,-32)">
  <rect style="opacity:0.001" width="32" height="32" x="0" y="0"/>
  <g transform="translate(-2e-4)">
   <path style="fill:#d2d2d2" d="M 16,2 C 11.568,2 8,5.568 8,10 v 3 h 3 v -3 c 0,-2.77 2.23,-5 5,-5 2.77,0 5,2.23 5,5 v 3 h 3 V 10 C 24,5.568 20.432,2 16,2 Z"/>
   <rect style="fill:#4caf50" width="17" height="22" x="-30" y="-27" rx="1.4" ry="1.4" transform="matrix(0,-1,-1,0,0,0)"/>
   <path style="opacity:0.1;fill:#ffffff" d="M 16,2 C 11.568,2 8,5.568 8,10 v 1 c 0,-4.432 3.568,-8 8,-8 4.432,0 8,3.568 8,8 V 10 C 24,5.568 20.432,2 16,2 Z"/>
   <path style="opacity:0.1;fill:#ffffff" d="M 6.4004,13 C 5.6248,13 5,13.625 5,14.4 v 1 C 5,14.625 5.6248,14 6.4004,14 h 19.2 c 0.775,0 1.4,0.625 1.4,1.4 v -1 c 0,-0.775 -0.625,-1.4 -1.4,-1.4 z"/>
   <path style="fill:#3b863d" d="m 5,27.6 v 1 C 5,29.375 5.6248,30 6.4004,30 h 19.2 c 0.775,0 1.4,-0.625 1.4,-1.4 v -1 c 0,0.775 -0.625,1.4 -1.4,1.4 h -19.2 c -0.7752,0 -1.4,-0.625 -1.4,-1.4 z"/>
   <path style="opacity:0.1;fill:#ffffff" d="m 5,26.6 v 1 C 5,28.375 5.6248,29 6.4004,29 h 19.2 c 0.775,0 1.4,-0.625 1.4,-1.4 v -1 c 0,0.775 -0.625,1.4 -1.4,1.4 h -19.2 c -0.7752,0 -1.4,-0.625 -1.4,-1.4 z"/>
   <rect style="fill:#81c784" width="22" height="10" x="5" y="16" rx="0" ry="0"/>
   <path style="opacity:0.2" d="m 16,5 c -2.77,0 -5,2.23 -5,5 v 1 c 0,-2.77 2.23,-5 5,-5 2.77,0 5,2.23 5,5 V 10 C 21,7.23 18.77,5 16,5 Z M 5,28.6 v 1 C 5,30.375 5.6248,31 6.4004,31 h 19.2 c 0.775,0 1.4,-0.625 1.4,-1.4 v -1 c 0,0.775 -0.625,1.4 -1.4,1.4 h -19.2 c -0.7752,0 -1.4,-0.625 -1.4,-1.4 z"/>
  </g>
 </g>
 <g id="document-decrypt" transform="translate(0,-32)">
  <rect style="opacity:0.001" width="32" height="32" x="0" y="-32"/>
  <path style="fill:#d2d2d2" d="m 16,-30 c -0.266588,0 -0.529369,0.01382 -0.789062,0.03906 -0.09427,0.0092 -0.186033,0.02669 -0.279297,0.03906 -0.163723,0.02174 -0.32792,0.04279 -0.488282,0.07422 -0.101044,0.01977 -0.199207,0.0468 -0.298828,0.07031 -0.151322,0.03579 -0.301423,0.07297 -0.449219,0.117188 -0.09929,0.02963 -0.195363,0.06433 -0.292968,0.09766 -0.139862,0.04785 -0.279828,0.09514 -0.416016,0.150391 -0.103253,0.04182 -0.203657,0.08882 -0.304687,0.134765 -0.122367,0.05574 -0.244357,0.112194 -0.363282,0.173828 -0.110077,0.05694 -0.217229,0.117863 -0.324218,0.179688 -0.105598,0.06113 -0.210063,0.123692 -0.3125,0.189453 -0.109668,0.07028 -0.216375,0.143346 -0.322266,0.21875 -0.08539,0.06091 -0.169125,0.123349 -0.251953,0.1875 -0.119934,0.09273 -0.23722,0.187838 -0.351563,0.287109 -0.06097,0.05303 -0.120368,0.107272 -0.179687,0.16211 -0.119509,0.110264 -0.237049,0.222521 -0.34961,0.339844 -0.05459,0.05702 -0.105308,0.117153 -0.158203,0.175781 -0.1146367,0.126775 -0.2275895,0.254667 -0.333984,0.388672 -0.029443,0.03717 -0.057147,0.07558 -0.085937,0.113281 -0.1194579,0.156083 -0.2358616,0.313604 -0.34375,0.478516 -0.00859,0.01315 -0.014927,0.02781 -0.023437,0.04102 C 8.6448672,-25.356382 8.2198619,-24.222901 8.0683594,-23 8.0277105,-22.67189 8,-22.339463 8,-22 h 3 c 0,-0.342832 0.03449,-0.676916 0.09961,-1 2.5e-4,-0.0012 -2.51e-4,-0.0027 0,-0.0039 0.0048,-0.02369 0.01636,-0.0448 0.02149,-0.06836 0.06148,-0.282708 0.147054,-0.555986 0.253906,-0.818359 0.03992,-0.09801 0.09284,-0.188452 0.138672,-0.283203 0.08682,-0.179417 0.176367,-0.356881 0.283203,-0.523438 0.06485,-0.101101 0.139177,-0.195108 0.210937,-0.291015 0.109424,-0.146136 0.22318,-0.288825 0.347657,-0.421875 0.08604,-0.09197 0.176799,-0.178449 0.269531,-0.263672 0.131493,-0.120784 0.270093,-0.233601 0.414062,-0.339844 0.09708,-0.07162 0.194567,-0.142464 0.296876,-0.207031 0.164957,-0.104069 0.338265,-0.194748 0.515624,-0.279297 0.09775,-0.0466 0.193756,-0.0964 0.294922,-0.136719 0.200534,-0.07986 0.410538,-0.139614 0.623047,-0.193359 0.100334,-0.02537 0.196141,-0.06084 0.298828,-0.08008 0.03919,-0.0073 0.07963,-0.01115 0.119141,-0.01758 C 15.452378,-26.970782 15.722584,-27 16,-27 c 0.277416,0 0.547622,0.02922 0.8125,0.07227 0.03951,0.0064 0.07995,0.01024 0.119141,0.01758 0.102687,0.01923 0.198494,0.05471 0.298828,0.08008 0.212509,0.05374 0.422513,0.113504 0.623047,0.193359 0.101166,0.04032 0.197174,0.09012 0.294922,0.136719 0.17736,0.08455 0.350666,0.175228 0.515624,0.279297 0.102309,0.06457 0.1998,0.135414 0.296876,0.207031 0.143969,0.106243 0.282569,0.21906 0.414062,0.339844 0.09273,0.08522 0.183496,0.171703 0.269531,0.263672 0.124477,0.13305 0.238234,0.275739 0.347657,0.421875 0.07176,0.09591 0.146092,0.189914 0.210937,0.291015 0.106836,0.166557 0.196386,0.344021 0.283203,0.523438 0.04583,0.09475 0.09875,0.185197 0.138672,0.283203 0.106852,0.262373 0.192422,0.535651 0.253906,0.818359 0.0051,0.0236 0.01668,0.04464 0.02148,0.06836 2.53e-4,0.0012 -2.52e-4,0.0027 0,0.0039 0.06511,0.323084 0.09961,0.657168 0.09961,1 v 3 h 3 v -3 c 0,-0.339463 -0.02771,-0.67189 -0.06836,-1 -0.151503,-1.222901 -0.576508,-2.356382 -1.212891,-3.341797 -0.0073,-0.01125 -0.01221,-0.02394 -0.01953,-0.03516 -0.0013,-0.002 -0.0026,-0.0039 -0.0039,-0.0059 -0.107888,-0.164912 -0.224292,-0.322433 -0.34375,-0.478516 -0.02879,-0.03771 -0.05649,-0.07611 -0.08594,-0.113281 -0.106395,-0.134005 -0.219347,-0.261897 -0.333984,-0.388672 -0.05289,-0.05863 -0.10361,-0.11876 -0.158203,-0.175781 -0.112561,-0.117323 -0.230101,-0.22958 -0.34961,-0.339844 -0.05932,-0.05484 -0.118714,-0.109078 -0.179687,-0.16211 -0.114343,-0.09927 -0.231629,-0.194384 -0.351563,-0.287109 -0.08283,-0.06415 -0.166561,-0.12659 -0.251953,-0.1875 -0.105891,-0.0754 -0.212598,-0.148474 -0.322266,-0.21875 -0.102437,-0.06576 -0.206902,-0.128322 -0.3125,-0.189453 -0.106989,-0.06182 -0.214141,-0.122749 -0.324218,-0.179688 -0.118925,-0.06163 -0.240915,-0.118088 -0.363282,-0.173828 -0.10103,-0.04594 -0.201434,-0.09295 -0.304687,-0.134765 -0.136188,-0.05525 -0.276154,-0.102538 -0.416016,-0.150391 -0.09761,-0.03333 -0.19368,-0.06802 -0.292968,-0.09766 -0.147796,-0.04421 -0.297897,-0.0814 -0.449219,-0.117188 -0.09962,-0.02351 -0.197784,-0.05054 -0.298828,-0.07031 -0.160362,-0.03143 -0.324559,-0.05248 -0.488282,-0.07422 -0.09326,-0.01237 -0.185026,-0.02991 -0.279297,-0.03906 C 16.529369,-29.986183 16.266588,-30 16,-30 Z"/>
  <rect style="fill:#fe3838" width="17" height="22" x="2" y="-27" rx="1.4" ry="1.4" transform="matrix(0,-1,-1,0,0,0)"/>
  <path style="opacity:0.1;fill:#ffffff" d="m 6.4,-19 c -0.7756,0 -1.4004,0.625 -1.4004,1.4 v 1 c 0,-0.775 0.6248,-1.4 1.4004,-1.4 h 19.2 c 0.775,0 1.4,0.625 1.4,1.4 v -1 c 0,-0.775 -0.625,-1.4 -1.4,-1.4 z"/>
  <path style="fill:#cb2f05" d="m 4.9996,-4.4 v 1 c 0,0.775 0.6248,1.4 1.4004,1.4 h 19.2 c 0.775,0 1.4,-0.625 1.4,-1.4 v -1 C 27,-3.625 26.375,-3 25.6,-3 H 6.4 C 5.6248,-3 5,-3.625 5,-4.4 Z"/>
  <path style="opacity:0.1;fill:#ffffff" d="m 4.9996,-5.4 v 1 c 0,0.775 0.6248,1.4 1.4004,1.4 h 19.2 c 0.775,0 1.4,-0.625 1.4,-1.4 v -1 C 27,-4.625 26.375,-4 25.6,-4 H 6.4 C 5.6248,-4 5,-4.625 5,-5.4 Z"/>
  <rect style="fill:#fe846a" width="22" height="10" x="5" y="-16" rx="0" ry="0"/>
 </g>
 <g id="16-16-document-encrypt" transform="translate(-296,270)">
  <rect style="opacity:0.001" width="16" height="16" x="350" y="-286"/>
  <g transform="translate(2.99739,-35.00336)">
   <path style="fill:#4caf50" d="m 355.0002,-250 c -2.216,0 -4,1.82162 -4,4.0625 V -244 h -1 c -0.554,0 -1,0.446 -1,1 v 6 c 0,0.554 0.446,1 1,1 h 10 c 0.554,0 1,-0.446 1,-1 v -6 c 0,-0.554 -0.446,-1 -1,-1 h -1 v -1.9375 c 0,-2.24 -1.784,-4.0625 -4,-4.0625 z m 0,2 c 1.108,0 2,0.892 2,2 v 2 h -4 v -2 c 0,-1.108 0.892,-2 2,-2 z"/>
  </g>
 </g>
 <g id="16-16-document-decrypt" transform="translate(-1.0024109,-33.00336)">
  <rect style="opacity:0.001" width="16" height="16" x="55" y="-15"/>
  <g transform="translate(-292.0002,236)">
   <path style="fill:#f44336" transform="translate(292.0002,-236)" d="m 63,-14 c -2.194853,0 -3.960539,1.788556 -3.994141,4 H 61 c 0,-1.108 0.892,-2 2,-2 1.108,0 2,0.892 2,2 v 2 h -3 -1 -2 -1 c -0.554,0 -1,0.446 -1,1 v 6 c 0,0.554 0.446,1 1,1 h 10 c 0.554,0 1,-0.446 1,-1 v -6 c 0,-0.554 -0.446,-1 -1,-1 H 67 V -9.9375 C 67,-12.1775 65.216,-14 63,-14 Z"/>
  </g>
 </g>
 <g id="document-open-recent">
  <rect style="opacity:0.001" width="32" height="32" x="0" y="0"/>
  <circle style="opacity:0.2" cx="16" cy="17" r="14"/>
  <circle style="fill:#16ace6" cx="16" cy="16" r="14"/>
  <circle style="opacity:0.2" cx="16" cy="17" r="10"/>
  <circle style="fill:#ffffff" cx="16" cy="16" r="10"/>
  <rect style="fill:#626262" width="4" height="11" x="14" y="7" rx="2" ry="2.2"/>
  <path style="opacity:0.2;fill:#ffffff" d="M 16,2 A 14,14 0 0 0 2,16 14,14 0 0 0 2.0214844,16.585938 14,14 0 0 1 16,3 14,14 0 0 1 29.978516,16.414062 14,14 0 0 0 30,16 14,14 0 0 0 16,2 Z"/>
  <rect style="fill:#626262" width="4" height="11" x="-2" y="-31.63" rx="2" ry="2.2" transform="rotate(135)"/>
  <circle style="opacity:0.1" cx="16" cy="17" r="3"/>
  <circle style="fill:#8e8e8e" cx="16" cy="16" r="3"/>
 </g>
 <g id="16-16-document-open-recent" transform="translate(-2,-26)">
  <rect style="opacity:0.001" width="16" height="16" x="56" y="42"/>
  <path style="fill:#dfdfdf" d="m 64,43 a 7,7 0 0 0 -7,7 7,7 0 0 0 7,7 7,7 0 0 0 7,-7 7,7 0 0 0 -7,-7 z m 0,2 a 5,5 0 0 1 5,5 5,5 0 0 1 -5,5 5,5 0 0 1 -5,-5 5,5 0 0 1 5,-5 z m 0,1 a 4,4 0 0 0 -1,0.130859 V 51 l 2.642578,2.642578 a 4,4 0 0 0 1.564453,-1.263672 L 65,50.171875 V 46.132812 A 4,4 0 0 0 64,46 Z"/>
 </g>
</svg>
