<svg xmlns="http://www.w3.org/2000/svg" width="32" height="32" version="1.1">
 <g id="22-22-edit-delete" transform="translate(0,-32)">
  <rect style="opacity:0.001" width="22" height="22" x="32" y="42"/>
  <path style="fill:#dfdfdf" d="m 42,46.000004 c -1,0 -1,1 -1,1 h -3 c 0,0 -1,0 -1,1 v 1 h 13 v -1 c 0,-1 -1,-1 -1,-1 h -3 c 0,0 0,-1 -1,-1 z m -4,4 v 9 c 0,0.52 0.48,1 1,1 h 9 c 0.52,0 1,-0.48 1,-1 v -9 z m 2,2 h 0.90625 c 0.283364,0 0.535646,0.09445 0.681641,0.222656 L 43.5,53.890629 45.412109,52.22266 c 0.145996,-0.128203 0.398276,-0.222656 0.681641,-0.222656 H 47 v 0.736328 c 0,0.201239 -0.08178,0.384741 -0.228516,0.513672 l -2.001953,1.75 2.001953,1.75 c 0.127119,0.111628 0.191946,0.29569 0.228516,0.5625 v 0.6875 h -0.90625 c -0.283365,0 -0.535645,-0.09445 -0.681641,-0.222656 L 43.5,56.099613 41.587891,57.777348 c -0.145995,0.128207 -0.398277,0.222656 -0.681641,0.222656 H 40 v -0.736328 c 0,-0.201239 0.08192,-0.384938 0.228516,-0.513672 l 2.001953,-1.75 -2.001953,-1.75 C 40.081486,53.120676 40,52.937571 40,52.736332 Z"/>
 </g>
 <g id="edit-delete">
  <rect style="opacity:0.001" width="32" height="32" x="0" y="0"/>
  <rect style="opacity:0.2" width="23" height="26" x="5" y="4" rx="1.5" ry="1.5"/>
  <rect style="fill:#8e8e8e" width="23" height="26" x="5" y="3" rx="1.5" ry="1.5"/>
  <rect style="fill:#9f9f9f" width="9" height="3" x="12" y="2"/>
  <rect style="opacity:0.2" width="27" height="6" x="3" y="4" rx="1.5" ry="1.5"/>
  <rect style="fill:#9f9f9f" width="27" height="6" x="3" y="3" rx="1.5" ry="1.5"/>
  <path style="opacity:0.2;fill:#ffffff" d="M 4.5,3 C 3.669,3 3,3.669 3,4.5 v 1 C 3,4.669 3.669,4 4.5,4 h 24 C 29.331,4 30,4.669 30,5.5 v -1 C 30,3.669 29.331,3 28.5,3 Z"/>
  <path style="opacity:0.2" d="m 9,13 h 1.941964 c 0.607209,0 1.147813,0.204641 1.460659,0.482421 L 16.5,17.096353 20.597376,13.482421 C 20.910225,13.204648 21.450825,13 22.058036,13 H 24 v 1.595377 c 0,0.436018 -0.175243,0.833605 -0.489677,1.112956 l -4.289899,3.791666 4.289899,3.791667 C 23.782721,23.533527 23.921636,23.932328 24,24.510417 V 26 h -1.941964 c -0.607211,0 -1.147811,-0.204642 -1.46066,-0.482421 L 16.5,21.882486 12.402623,25.517579 C 12.089777,25.79536 11.549173,26 10.941964,26 H 9 V 24.404622 C 9,23.968605 9.1755428,23.57059 9.4896772,23.291666 L 13.779576,19.499999 9.4896772,15.708333 C 9.1746128,15.428122 9,15.031395 9,14.595377 Z"/>
  <path style="fill:#ffffff" d="m 9,12 h 1.941964 c 0.607209,0 1.147813,0.204641 1.460659,0.482421 L 16.5,16.096353 20.597376,12.482421 C 20.910225,12.204648 21.450825,12 22.058036,12 H 24 v 1.595377 c 0,0.436018 -0.175243,0.833605 -0.489677,1.112956 l -4.289899,3.791666 4.289899,3.791667 C 23.782721,22.533527 23.921636,22.932328 24,23.510417 V 25 h -1.941964 c -0.607211,0 -1.147811,-0.204642 -1.46066,-0.482421 L 16.5,20.882486 12.402623,24.517579 C 12.089777,24.79536 11.549173,25 10.941964,25 H 9 V 23.404622 C 9,22.968605 9.1755428,22.57059 9.4896772,22.291666 L 13.779576,18.499999 9.4896772,14.708333 C 9.1746128,14.428122 9,14.031395 9,13.595377 Z"/>
 </g>
</svg>
