<svg xmlns="http://www.w3.org/2000/svg" width="32" height="32" version="1.1">
 <g id="22-22-elisa" transform="translate(27,5)">
  <rect style="opacity:0.001" width="22" height="22" x="5" y="5"/>
  <path style="fill:#dfdfdf" d="M 7.5605469,8 C 6.6959894,8 6,8.7419625 6,9.6640625 V 22.335938 c 0,0.895701 0.6583982,1.615291 1.4882812,1.65625 L 9.5625,20.257812 A 0.50005,0.50005 0 0 1 10,20 H 8.8027344 C 8.3579455,20 8,19.594444 8,19.089844 V 14 10.966797 C 8,10.430597 8.3579455,10 8.8027344,10 H 23.197266 C 23.642053,10 24,10.430597 24,10.966797 V 14 19.089844 C 24,19.594444 23.642053,20 23.197266,20 H 22 a 0.50005,0.50005 0 0 1 0.4375,0.257812 l 2.074219,3.734376 C 25.341601,23.951229 26,23.231639 26,22.335938 V 9.6640625 C 26,8.7419625 25.30401,8 24.439453,8 Z m 4.3496091,6 C 10.852684,14 10,14.891747 10,15.998047 v 0.0098 c 0,1.106302 0.852684,1.996094 1.910156,1.996094 h 8.179688 C 21.147318,18.003871 22,17.114114 22,16.007812 v -0.0098 C 22,14.891682 21.147318,14 20.089844,14 Z M 12,15 c 0.552285,0 1,0.447733 1,1 0,0.552267 -0.447715,1 -1,1 -0.552285,0 -1,-0.447733 -1,-1 0,-0.552267 0.447715,-1 1,-1 z m 2,0 h 4 v 2 h -4 z m 6,0 c 0.552285,0 1,0.447733 1,1 0,0.552267 -0.447715,1 -1,1 -0.552285,0 -1,-0.447733 -1,-1 0,-0.552267 0.447715,-1 1,-1 z m -9.705078,6 -1.6679689,3 H 23.373047 L 21.705078,21 Z M 10.75,22 A 0.75,0.75 0 0 1 11.5,22.75 0.75,0.75 0 0 1 10.75,23.5 0.75,0.75 0 0 1 10,22.75 0.75,0.75 0 0 1 10.75,22 Z m 10.5,0 A 0.75,0.75 0 0 1 22,22.75 0.75,0.75 0 0 1 21.25,23.5 0.75,0.75 0 0 1 20.5,22.75 0.75,0.75 0 0 1 21.25,22 Z"/>
  <path style="opacity:0.35;fill:#dfdfdf" d="m 14,15 v 2 h 1.825598 c 0.114652,-0.321 0.173766,-0.6592 0.174803,-1 -10e-4,-0.3408 -0.06015,-0.679 -0.174803,-1 z"/>
 </g>
 <g id="elisa">
  <rect style="opacity:0.001" width="32" height="32" x="0" y="0"/>
  <g transform="translate(0,-1090.5197)">
   <path style="fill:#3f3f3f" d="m 3.34096,1094.5197 c -1.2968364,0 -2.3409599,1.1149 -2.3409599,2.4981 v 19.0037 c 0,1.3833 1.0441235,2.4982 2.3409599,2.4982 h 25.31808 c 1.296836,0 2.34096,-1.1149 2.34096,-2.4982 v -19.0037 c 0,-1.3832 -1.044124,-2.4981 -2.34096,-2.4981 z m 6.2304687,8.8235 a 3.2142857,3.1764706 0 0 1 3.2142853,3.1765 3.2142857,3.1764706 0 0 1 -3.2142853,3.1764 3.2142857,3.1764706 0 0 1 -3.2142857,-3.1764 3.2142857,3.1764706 0 0 1 3.2142857,-3.1765 z m 12.8571423,0 a 3.2142857,3.1764706 0 0 1 3.214286,3.1765 3.2142857,3.1764706 0 0 1 -3.214286,3.1764 3.2142857,3.1764706 0 0 1 -3.214285,-3.1764 3.2142857,3.1764706 0 0 1 3.214285,-3.1765 z"/>
   <path style="fill:#4f4f4f" d="m 3.9999998,1118.5197 2.8235288,-5 H 25.176471 l 2.823529,5 z"/>
   <circle style="opacity:0.4" cx="9.5" cy="1116.02" r="1.5"/>
   <path style="fill:#1eb5c5;fill-opacity:1" transform="translate(0,1090.5197)" d="M 5.203125 7 C 4.5359414 7 4 7.6468719 4 8.4511719 L 4 13 L 4 20.634766 C 4 21.391766 4.5359414 22 5.203125 22 L 26.796875 22 C 27.464057 22 28 21.391766 28 20.634766 L 28 13 L 28 8.4511719 C 28 7.6468719 27.464057 7 26.796875 7 L 5.203125 7 z M 10 13.5 A 2.5 2.5 0 0 1 12.5 16 A 2.5 2.5 0 0 1 10 18.5 A 2.5 2.5 0 0 1 7.5 16 A 2.5 2.5 0 0 1 10 13.5 z M 22 13.5 A 2.5 2.5 0 0 1 24.5 16 A 2.5 2.5 0 0 1 22 18.5 A 2.5 2.5 0 0 1 19.5 16 A 2.5 2.5 0 0 1 22 13.5 z"/>
   <path style="fill:#3f3f3f" transform="translate(0,1090.5197)" d="m 10,13 a 3,3 0 0 0 -3,3 3,3 0 0 0 3,3 h 12 a 3,3 0 0 0 3,-3 3,3 0 0 0 -3,-3 z m 0,1 a 2,2 0 0 1 2,2 2,2 0 0 1 -2,2 2,2 0 0 1 -2,-2 2,2 0 0 1 2,-2 z m 12,0 a 2,2 0 0 1 2,2 2,2 0 0 1 -2,2 2,2 0 0 1 -2,-2 2,2 0 0 1 2,-2 z"/>
   <rect style="fill:#cccccc" width="6" height="4" x="13" y="1104.52"/>
   <circle style="opacity:0.4" cx="22.5" cy="1116.02" r="1.5"/>
   <path style="fill:#874f29" transform="translate(0,1090.5197)" d="m 13,14 v 4 h 2.648438 A 6,6 0 0 0 16,16 6,6 0 0 0 15.650391,14 Z"/>
   <rect style="opacity:0.2" width="6" height="1" x="13" y="1104.52"/>
   <path style="opacity:0.2" transform="translate(0,1090.5197)" d="m 4,20.634766 v 1 C 4,22.391766 4.5359414,23 5.203125,23 h 21.59375 C 27.464057,23 28,22.391766 28,21.634766 v -1 C 28,21.391766 27.464057,22 26.796875,22 H 5.203125 C 4.5359414,22 4,21.391766 4,20.634766 Z"/>
   <path style="opacity:0.1;fill:#ffffff" transform="translate(0,1090.5197)" d="M 6.8242188,23 4,28 H 4.5644531 L 6.8242188,24 H 25.175781 l 2.259766,4 H 28 l -2.824219,-5 z"/>
   <path style="opacity:0.2" transform="translate(0,1090.5197)" d="m 1,25.501953 v 1 C 1,27.885253 2.0449605,29 3.3417969,29 H 28.658203 C 29.955039,29 31,27.885253 31,26.501953 v -1 C 31,26.885253 29.955039,28 28.658203,28 H 3.3417969 C 2.0449605,28 1,26.885253 1,25.501953 Z"/>
   <path style="opacity:0.1;fill:#ffffff" transform="translate(0,1090.5197)" d="M 3.3417969,4 C 2.0449605,4 1,5.1148469 1,6.4980469 v 1 C 1,6.1148469 2.0449605,5 3.3417969,5 H 28.658203 C 29.955039,5 31,6.1148469 31,7.4980469 v -1 C 31,5.1148469 29.955039,4 28.658203,4 Z"/>
   <path style="opacity:0.2" transform="translate(0,1090.5197)" d="M 10,14 A 2,2 0 0 0 8,16 2,2 0 0 0 8.0644531,16.496094 2,2 0 0 1 10,15 2,2 0 0 1 11.935547,16.503906 2,2 0 0 0 12,16 2,2 0 0 0 10,14 Z m 12,0 a 2,2 0 0 0 -2,2 2,2 0 0 0 0.06445,0.496094 A 2,2 0 0 1 22,15 2,2 0 0 1 23.935547,16.503906 2,2 0 0 0 24,16 2,2 0 0 0 22,14 Z"/>
   <path style="opacity:0.2;fill:#ffffff;fill-opacity:1" transform="translate(0,1090.5197)" d="M 5.203125,7 C 4.5359414,7 4,7.6468719 4,8.4511719 v 1 C 4,8.6468719 4.5359414,8 5.203125,8 h 21.59375 C 27.464057,8 28,8.6468719 28,9.4511719 v -1 C 28,7.6468719 27.464057,7 26.796875,7 Z"/>
  </g>
 </g>
</svg>
