<svg xmlns="http://www.w3.org/2000/svg" width="32" height="32" version="1.1">
 <g id="22-22-emblem-shared-symbolic" transform="translate(27,5)">
  <rect style="opacity:0.001" width="22" height="22" x="5" y="5"/>
  <path style="fill:#dfdfdf" d="M 19.470703,10.152344 10.113281,16 19.470703,21.847656 20.529297,20.152344 13.884766,16 20.529297,11.847656 Z"/>
  <path style="fill:#dfdfdf" d="m 20,8 a 3,3 0 0 0 -3,3 3,3 0 0 0 3,3 3,3 0 0 0 3,-3 3,3 0 0 0 -3,-3 z m -8,5 a 3,3 0 0 0 -3,3 3,3 0 0 0 3,3 3,3 0 0 0 3,-3 3,3 0 0 0 -3,-3 z m 8,5 a 3,3 0 0 0 -3,3 3,3 0 0 0 3,3 3,3 0 0 0 3,-3 3,3 0 0 0 -3,-3 z"/>
 </g>
 <g id="emblem-shared-symbolic">
  <rect style="opacity:0.001" width="32" height="32" x="0" y="0"/>
  <g transform="translate(-3.95e-4)">
   <rect style="fill:#1da6e8" width="28" height="28" x="-30" y="-30" rx="14" ry="14" transform="matrix(0,-1,-1,0,0,0)"/>
   <path style="opacity:0.2;fill:#ffffff" d="M 16,2 C 8.244,2 2,8.244 2,16 2,16.16884 2.01952,16.33264 2.02539,16.5 2.28949,8.9794 8.41319,3 16.00039,3 c 7.5872,0 13.711,5.9794 13.975,13.5 0.006,-0.16736 0.0254,-0.33116 0.0254,-0.5 0,-7.756 -6.244,-14 -14,-14 z"/>
   <path style="opacity:0.2" d="M 2.0254,16.5 C 2.0195,16.667 2,16.831 2,17 c 0,7.756 6.244,14 14,14 7.756,0 14,-6.244 14,-14 0,-0.16884 -0.01952,-0.33264 -0.02539,-0.5 -0.264,7.521 -6.388,13.5 -13.975,13.5 -7.5872,0 -13.711,-5.979 -13.975,-13.5 z"/>
   <path style="opacity:0.4;fill:none;stroke:#000000;stroke-width:2" d="m 19,11 -8,5 8,5"/>
   <path style="opacity:0.2" d="m 19,9 a 3,3 0 0 0 -3,3 3,3 0 0 0 3,3 3,3 0 0 0 3,-3 3,3 0 0 0 -3,-3 z m -8,5 a 3,3 0 0 0 -3,3 3,3 0 0 0 3,3 3,3 0 0 0 3,-3 3,3 0 0 0 -3,-3 z m 8,5 a 3,3 0 0 0 -3,3 3,3 0 0 0 3,3 3,3 0 0 0 3,-3 3,3 0 0 0 -3,-3 z"/>
   <path style="fill:#ffffff" d="m 19,8 a 3,3 0 0 0 -3,3 3,3 0 0 0 3,3 3,3 0 0 0 3,-3 3,3 0 0 0 -3,-3 z m -8,5 a 3,3 0 0 0 -3,3 3,3 0 0 0 3,3 3,3 0 0 0 3,-3 3,3 0 0 0 -3,-3 z m 8,5 a 3,3 0 0 0 -3,3 3,3 0 0 0 3,3 3,3 0 0 0 3,-3 3,3 0 0 0 -3,-3 z"/>
  </g>
 </g>
</svg>
