<svg xmlns="http://www.w3.org/2000/svg" width="32" height="32" version="1.1">
 <g id="22-22-face-laughing" transform="translate(32,10)">
  <rect style="opacity:0.001" width="22" height="22" x="0" y="0"/>
  <path style="fill:#dfdfdf" d="m 11,3 a 8,8 0 0 0 -8,8 8,8 0 0 0 8,8 8,8 0 0 0 8,-8 8,8 0 0 0 -8,-8 z M 8,7 A 2,2 0 0 1 10,9 2,2 0 0 1 8,11 2,2 0 0 1 6,9 2,2 0 0 1 8,7 Z m 6,0 a 2,2 0 0 1 2,2 2,2 0 0 1 -2,2 2,2 0 0 1 -2,-2 2,2 0 0 1 2,-2 z m -7.0625,4.986328 a 1.0001,1.0001 0 0 1 0.099609,0 1.0001,1.0001 0 0 1 0.953125,0.867188 c 0,0 0.075177,0.506001 0.4785156,1.050781 C 8.8720887,14.449077 9.5021818,15 11,15 c 1.497818,0 2.127911,-0.550923 2.53125,-1.095703 0.403336,-0.544781 0.478516,-1.050781 0.478516,-1.050781 a 1.00101,1.00101 0 1 1 1.980468,0.292968 c 0,0 -0.144347,0.994 -0.851562,1.949219 C 14.431457,16.050923 13.059966,17 11,17 8.9400341,17 7.5685434,16.050923 6.8613281,15.095703 6.1541128,14.140483 6.0097656,13.146484 6.0097656,13.146484 A 1.0001,1.0001 0 0 1 6.9375,11.986328 Z"/>
 </g>
 <g id="face-laughing">
  <rect style="opacity:0.001" width="32" height="32" x="0" y="0"/>
  <g transform="translate(-4e-4)">
   <rect style="fill:#fecd38" width="28" height="28" x="-30" y="-30" rx="14" ry="14" transform="matrix(0,-1,-1,0,0,0)"/>
   <path style="opacity:0.1;fill:#ffffff" d="M 16,2 C 8.244,2 2,8.244 2,16 2,16.169 2.0195,16.333 2.0254,16.5 2.2891,8.9794 8.4128,3 16.0004,3 c 7.5872,0 13.711,5.9794 13.975,13.5 0.006,-0.16736 0.0254,-0.33116 0.0254,-0.5 0,-7.756 -6.244,-14 -14,-14 z"/>
   <g style="fill:#3f3f3f" transform="matrix(0.7,0,0,0.7,-37.937,2.2578)">
    <circle cx="69.91" cy="12.489" r="2.857"/>
    <circle cx="84.196" cy="12.489" r="2.857"/>
    <path d="m 69.444,24.355 a 8.7947,10.554 0 0 0 7.6094,5.2768 8.7947,10.554 0 0 0 7.6026,-5.2768 h -1.0684 a 8.7947,10.554 0 0 1 -6.5342,3.5179 8.7947,10.554 0 0 1 -6.5376,-3.5179 z"/>
   </g>
   <path style="opacity:0.2" d="M 2.0254,16.5 C 2.0195,16.667 2,16.831 2,17 c 0,7.756 6.244,14 14,14 7.756,0 14,-6.244 14,-14 0,-0.16884 -0.01952,-0.33264 -0.02539,-0.5 -0.264,7.521 -6.388,13.5 -13.975,13.5 -7.5872,0 -13.711,-5.979 -13.975,-13.5 z"/>
  </g>
 </g>
</svg>
