<svg xmlns="http://www.w3.org/2000/svg" width="32" height="32" version="1.1">
 <g id="22-22-go-home" transform="translate(-455.0004,137.00336)">
  <path style="opacity:0.001" d="m 465.0004,-105.00336 h 22 v 22.000003 h -22 z"/>
  <path style="fill:#dfdfdf" d="m 468.0004,-94.00336 h 2 v 8 h 5 v -4 h 2 v 4 h 5 v -8 h 2 l -8,-8 z"/>
 </g>
 <g id="22-22-go-up" transform="translate(-455.0004,137.00336)">
  <path style="opacity:0.001" d="m 489.0004,-105.00336 v 22 h 22 v -22 z"/>
  <path style="fill:#dfdfdf" d="m 491.5004,-93.976987 2.11644,2.123305 4.36736,-4.379438 v 10.229758 h 2.99342 v -10.264919 l 4.40439,4.414599 2.11839,-2.123305 -8,-8.026373 z"/>
 </g>
 <g id="22-22-go-down" transform="matrix(1,0,0,-1,-431.0004,-51.00336)">
  <path style="opacity:0.001" d="m 489.0004,-105.00336 v 22 h 22 v -22 z"/>
  <path style="fill:#dfdfdf" d="m 491.5004,-93.976987 2.11644,2.123305 4.36736,-4.379438 v 10.229758 h 2.99342 v -10.264919 l 4.40439,4.414599 2.11839,-2.123305 -8,-8.026373 z"/>
 </g>
 <g id="22-22-go-previous" transform="translate(-455.0004,137.00336)">
  <path style="opacity:0.001" d="m 537.0004,-105.00336 h 22 v 22 h -22 z"/>
  <path style="fill:#dfdfdf" d="m 548.02677,-102.50336 2.12331,2.11644 -4.37944,4.36736 h 10.22976 v 2.99342 h -10.26492 l 4.4146,4.40439 -2.12331,2.11839 -8.02637,-8 z"/>
 </g>
 <g id="22-22-go-next" transform="matrix(-1,0,0,1,665.0004,137.00336)">
  <path style="opacity:0.001" d="m 537.0004,-105.00336 h 22 v 22 h -22 z"/>
  <path style="fill:#dfdfdf" d="m 548.02677,-102.50336 2.12331,2.11644 -4.37944,4.36736 h 10.22976 v 2.99342 h -10.26492 l 4.4146,4.40439 -2.12331,2.11839 -8.02637,-8 z"/>
 </g>
 <g id="go-home">
  <rect style="opacity:0.001" width="32" height="32" x="0" y="0"/>
  <g transform="translate(0.01671515)">
   <path style="opacity:0.2" d="M 28,29.741417 V 14.282401 l -1.955219,-1.96957 C 25.565311,11.829842 22.597246,9.1962893 21.943489,9.0697283 L 16.181295,4.7840891 9.6780827,9.2681803 C 9.1225774,9.6512118 6.2929299,12.0118 5.829076,12.511283 L 4,14.480853 V 29.741417 C 4,30.438672 4.5352,31 5.2000001,31 H 26.800001 C 27.4648,31 28,30.438672 28,29.741417 Z"/>
   <path style="fill:#e4e4e4" d="M 28,28.741417 V 13.282401 l -1.955219,-1.96957 C 25.565311,10.829842 22.597246,8.1962893 21.943489,8.0697283 L 16.181295,3.7840891 9.6780827,8.2681803 C 9.1225774,8.6512118 6.2929299,11.0118 5.829076,11.511283 L 4,13.480853 V 28.741417 C 4,29.438672 4.5352,30 5.2000001,30 H 26.800001 C 27.4648,30 28,29.438672 28,28.741417 Z"/>
   <rect style="opacity:0.15" width="24" height="1" x="4" y="13"/>
   <rect style="fill:#4f4f4f" width="4" height="7" x="5" y="4" rx=".713" ry=".765"/>
   <rect style="fill:#956a42" width="7" height="11" x="6" y="17" rx="1.05" ry="1.031"/>
   <path style="fill:#956a42" d="M 18.875,17 C 17.849222,17 17,17.849222 17,18.874999 V 24.125 C 17,25.150777 17.849222,26 18.875,26 h 5.25 C 25.150777,26 26,25.150777 26,24.125 V 18.874999 C 26,17.849222 25.150777,17 24.125,17 Z"/>
   <path style="opacity:0.2" d="M 19.312501,20.000001 C 19.128565,20.000001 19,20.128565 19,20.312501 V 24.6875 C 19,24.871436 19.128565,25 19.312501,25 h 4.374998 C 23.871435,25 24,24.871436 24,24.6875 v -4.374999 c 0,-0.183936 -0.128565,-0.3125 -0.312501,-0.3125 z"/>
   <path style="fill:#c2eeff" d="M 19.312501,19.000001 C 19.128565,19.000001 19,19.128565 19,19.312501 V 23.6875 C 19,23.871436 19.128565,24 19.312501,24 h 4.374998 C 23.871435,24 24,23.871436 24,23.6875 v -4.374999 c 0,-0.183936 -0.128565,-0.3125 -0.312501,-0.3125 z"/>
   <circle style="opacity:0.2" cx="11" cy="23" r="1"/>
   <circle style="fill:#ffffff" cx="11" cy="22" r="1"/>
   <path style="opacity:0.05" d="M 6.2110269,11.166298 C 5.8025914,11.50576 5.4668303,11.793571 5.3329141,11.931062 l -1.9187378,1.969266 v -0.681431 h 2.7968506 z"/>
   <path style="opacity:0.15" d="M 9,8.7364135 C 8.3061825,9.2129144 6.975372,10.191636 6,10.947401 V 13 h 3 z"/>
   <path style="opacity:0.05" d="M 12,6.8682047 9.3881835,8.4687465 C 9.3182555,8.5116065 9.1266817,8.6494112 9,8.7364135 V 13 h 3 z"/>
   <path style="opacity:0.15" d="M 15,5.0286751 12,6.8682047 V 13 h 3 z"/>
   <path style="opacity:0.05" d="M 16.703613,3.9839531 15,5.0286751 V 13 h 3 V 4.8415811 Z"/>
   <path style="opacity:0.15" d="M 18,4.8415811 V 13 h 3 V 6.824504 Z"/>
   <path style="opacity:0.05" d="M 21,6.824504 V 13 h 3 V 8.6776908 C 23.646664,8.458952 23.347843,8.298403 23.187012,8.2707274 Z"/>
   <path style="opacity:0.15" d="M 24,8.6776908 V 13 h 3 V 10.857268 C 26.149286,10.181864 24.880125,9.2225474 24,8.6776908 Z"/>
   <path style="opacity:0.05" d="m 25.788981,11.076165 v 2.142732 h 2.79685 v 0.483412 l -2.051206,-1.970632 c -0.11899,-0.114285 -0.401117,-0.362115 -0.745644,-0.655512 z"/>
   <path style="fill:none;stroke:#5d5d5d;stroke-width:3;stroke-linecap:round;stroke-linejoin:round" d="M 16.000004,3.5 3.5,13.5"/>
   <path style="fill:none;stroke:#5d5d5d;stroke-width:3;stroke-linecap:round;stroke-linejoin:round" d="m 16,3.5 12.5,10"/>
   <path style="opacity:0.1;fill:#ffffff;fill-rule:evenodd" d="m 15.966797,1.9863281 a 1.50015,1.50015 0 0 0 -1.101563,0.5 L 2.5625,12.328125 A 1.5007322,1.5007322 0 0 0 2.0859375,14 1.5007322,1.5007322 0 0 1 2.5625,13.328125 L 14.865234,3.4863281 a 1.50015,1.50015 0 0 1 1.101563,-0.5 1.50015,1.50015 0 0 1 0.01367,0 1.50015,1.50015 0 0 1 0.01172,0 1.50015,1.50015 0 0 1 1.142578,0.5 L 29.4375,13.328125 A 1.5007322,1.5007322 0 0 1 29.914062,14 1.5007322,1.5007322 0 0 0 29.4375,12.328125 L 17.134766,2.4863281 a 1.50015,1.50015 0 0 0 -1.142578,-0.5 1.50015,1.50015 0 0 0 -0.01172,0 1.50015,1.50015 0 0 0 -0.01367,0 z"/>
   <path style="opacity:0.1;fill:#ffffff" d="M 5.7128906,4 C 5.3181189,4 5,4.3415858 5,4.765625 v 1 C 5,5.3415858 5.3181189,5 5.7128906,5 H 8.2871094 C 8.6818811,5 9,5.3415858 9,5.765625 v -1 C 9,4.3415858 8.6818811,4 8.2871094,4 Z"/>
  </g>
 </g>
 <g id="go-previous" transform="matrix(-1,0,0,1,128,0)">
  <rect style="opacity:0.001" width="32" height="32" x="0" y="0"/>
  <rect style="opacity:0.2" width="22" height="4" x="2" y="15" rx="2" ry="2"/>
  <path style="opacity:0.2" d="m 20.797019,11.000734 a 1.7460457,1.722978 0 0 1 0.821787,0.229652 l 3.754305,2.138364 3.754305,2.139207 a 1.7460457,1.722978 0 0 1 0,2.983785 l -3.754305,2.139207 -3.754305,2.138365 A 1.7460457,1.722978 0 0 1 19,21.277842 V 17.00027 12.722698 a 1.7460457,1.722978 0 0 1 1.797019,-1.721964 z"/>
  <rect style="fill:#8e8e8e" width="22" height="4" x="2" y="14" rx="2" ry="2"/>
  <path style="fill:#e4e4e4" d="m 20.797019,10.000734 a 1.7460457,1.722978 0 0 1 0.821787,0.229652 l 3.754305,2.138364 3.754305,2.139207 a 1.7460457,1.722978 0 0 1 0,2.983785 l -3.754305,2.139207 -3.754305,2.138365 A 1.7460457,1.722978 0 0 1 19,20.277842 V 16.00027 11.722698 a 1.7460457,1.722978 0 0 1 1.797019,-1.721964 z"/>
  <path style="opacity:0.2;fill:#ffffff" d="M 20.796875,10 A 1.7460457,1.722978 0 0 0 19,11.722656 v 1 A 1.7460457,1.722978 0 0 1 20.796875,11 a 1.7460457,1.722978 0 0 1 0.822266,0.230469 l 3.753906,2.138672 3.753906,2.138671 A 1.7460457,1.722978 0 0 1 29.923828,16.5 1.7460457,1.722978 0 0 0 29.126953,14.507812 L 25.373047,12.369141 21.619141,10.230469 A 1.7460457,1.722978 0 0 0 20.796875,10 Z"/>
 </g>
 <g id="go-next" transform="translate(128)">
  <rect style="opacity:0.001" width="32" height="32" x="0" y="0"/>
  <rect style="opacity:0.2" width="22" height="4" x="2" y="15" rx="2" ry="2"/>
  <path style="opacity:0.2" d="m 20.797019,11.000734 a 1.7460457,1.722978 0 0 1 0.821787,0.229652 l 3.754305,2.138364 3.754305,2.139207 a 1.7460457,1.722978 0 0 1 0,2.983785 l -3.754305,2.139207 -3.754305,2.138365 A 1.7460457,1.722978 0 0 1 19,21.277842 V 17.00027 12.722698 a 1.7460457,1.722978 0 0 1 1.797019,-1.721964 z"/>
  <rect style="fill:#8e8e8e" width="22" height="4" x="2" y="14" rx="2" ry="2"/>
  <path style="fill:#e4e4e4" d="m 20.797019,10.000734 a 1.7460457,1.722978 0 0 1 0.821787,0.229652 l 3.754305,2.138364 3.754305,2.139207 a 1.7460457,1.722978 0 0 1 0,2.983785 l -3.754305,2.139207 -3.754305,2.138365 A 1.7460457,1.722978 0 0 1 19,20.277842 V 16.00027 11.722698 a 1.7460457,1.722978 0 0 1 1.797019,-1.721964 z"/>
  <path style="opacity:0.2;fill:#ffffff" d="M 20.796875,10 A 1.7460457,1.722978 0 0 0 19,11.722656 v 1 A 1.7460457,1.722978 0 0 1 20.796875,11 a 1.7460457,1.722978 0 0 1 0.822266,0.230469 l 3.753906,2.138672 3.753906,2.138671 A 1.7460457,1.722978 0 0 1 29.923828,16.5 1.7460457,1.722978 0 0 0 29.126953,14.507812 L 25.373047,12.369141 21.619141,10.230469 A 1.7460457,1.722978 0 0 0 20.796875,10 Z"/>
 </g>
 <g id="go-down" transform="translate(64)">
  <rect style="opacity:0.001" width="32" height="32" x="0" y="0"/>
  <rect style="fill:#8e8e8e" width="22" height="4" x="2" y="-18" rx="2" ry="2" transform="rotate(90)"/>
  <path style="opacity:0.2" d="m 21.999266,21.797019 a 1.722978,1.7460457 0 0 1 -0.229652,0.821787 l -2.138364,3.754305 -2.139207,3.754305 a 1.722978,1.7460457 0 0 1 -2.983785,0 L 12.369051,26.373111 10.230686,22.618806 A 1.722978,1.7460457 0 0 1 11.722158,20 h 4.277572 4.277572 a 1.722978,1.7460457 0 0 1 1.721964,1.797019 z"/>
  <path style="fill:#e4e4e4" d="m 21.999266,20.797019 a 1.722978,1.7460457 0 0 1 -0.229652,0.821787 l -2.138364,3.754305 -2.139207,3.754305 a 1.722978,1.7460457 0 0 1 -2.983785,0 L 12.369051,25.373111 10.230686,21.618806 A 1.722978,1.7460457 0 0 1 11.722158,19 h 4.277572 4.277572 a 1.722978,1.7460457 0 0 1 1.721964,1.797019 z"/>
  <path style="opacity:0.2;fill:#ffffff" d="M 11.722656,19 A 1.722978,1.7460457 0 0 0 10.074219,21.246094 1.722978,1.7460457 0 0 1 11.722656,20 H 16 20.277344 A 1.722978,1.7460457 0 0 1 21.925781,21.246094 1.722978,1.7460457 0 0 0 22,20.796875 1.722978,1.7460457 0 0 0 20.277344,19 H 16 Z"/>
 </g>
 <g id="go-up" transform="translate(32)">
  <rect style="opacity:0.001" width="32" height="32" x="0" y="-32" transform="scale(1,-1)"/>
  <rect style="opacity:0.2" width="22" height="4" x="-31" y="-18" rx="2" ry="2" transform="matrix(0,-1,-1,0,0,0)"/>
  <rect style="fill:#8e8e8e" width="22" height="4" x="-30" y="-18" rx="2" ry="2" transform="matrix(0,-1,-1,0,0,0)"/>
  <path style="opacity:0.2" d="M 21.999266,12.202981 A 1.722978,1.7460457 0 0 0 21.769614,11.381194 L 19.63125,7.626889 17.492043,3.872584 a 1.722978,1.7460457 0 0 0 -2.983785,0 l -2.139207,3.754305 -2.138365,3.754305 A 1.722978,1.7460457 0 0 0 11.722158,14 h 4.277572 4.277572 a 1.722978,1.7460457 0 0 0 1.721964,-1.797019 z"/>
  <path style="fill:#e4e4e4" d="M 21.999266,11.202981 A 1.722978,1.7460457 0 0 0 21.769614,10.381194 L 19.63125,6.626889 17.492043,2.872584 a 1.722978,1.7460457 0 0 0 -2.983785,0 l -2.139207,3.754305 -2.138365,3.754305 A 1.722978,1.7460457 0 0 0 11.722158,13 h 4.277572 4.277572 a 1.722978,1.7460457 0 0 0 1.721964,-1.797019 z"/>
  <path style="opacity:0.2;fill:#ffffff" d="m 15.908203,2.0019531 a 1.722978,1.7460457 0 0 0 -1.400391,0.8710938 l -2.138671,3.7539062 -2.138672,3.7539059 a 1.722978,1.7460457 0 0 0 -0.15625,1.373047 1.722978,1.7460457 0 0 1 0.15625,-0.373047 l 2.138672,-3.7539059 2.138671,-3.7539062 a 1.722978,1.7460457 0 0 1 2.984376,0 l 2.138671,3.7539062 2.138672,3.7539059 a 1.722978,1.7460457 0 0 1 0.15625,0.373047 A 1.722978,1.7460457 0 0 0 22,11.203125 1.722978,1.7460457 0 0 0 21.769531,10.380859 L 19.630859,6.6269531 17.492188,2.8730469 A 1.722978,1.7460457 0 0 0 15.908203,2.0019531 Z"/>
 </g>
</svg>
