<svg xmlns="http://www.w3.org/2000/svg" xmlns:osb="http://www.openswatchbook.org/uri/2009/osb" id="svg" width="32" height="32" version="1.1" viewBox="0 0 32 32">
 <defs>
  <linearGradient id="linearGradient5606" osb:paint="solid">
   <stop id="stop5608" offset="0" style="stop-color:#000000"/>
  </linearGradient>
 </defs>
 <g id="22-22-input-mouse-battery" transform="translate(128,-22)">
  <rect style="opacity:0;fill:#0000ff" width="22" height="22" x="0" y="0"/>
  <path style="fill:#d3dae3" d="M 10,3 C 7.1891901,3.2515385 5,5.6018325 5,8.484375 v 0.5 h 5 z m 1,0 v 5.984375 h 5 v -0.5 C 16,5.6018325 13.81081,3.2515385 11,3 Z M 5,9.9863281 V 13.492188 C 5,16.543658 7.4530001,19 10.5,19 13.547,19 16,16.543658 16,13.492188 V 9.9863281 H 11 10 Z M 11,11 v 3 h 2 l -3,4 V 15 H 8 Z"/>
 </g>
 <g id="22-22-input-keyboard-battery" transform="translate(96.000002,-22)">
  <rect style="opacity:0;fill:#0000ff" width="22" height="22" x="0" y="0"/>
  <path style="fill:#d3dae3" d="m 5,4.9999998 c -1.108,0 -2,0.892 -2,2.0000001 V 15 c 0,1.108 0.892,2 2,2 h 12 c 1.108,0 2,-0.892 2,-2 V 6.9999999 C 19,5.8919998 18.108,4.9999998 17,4.9999998 Z M 4,6.9999999 h 2 v 2 H 4 Z m 3,0 h 2 v 2 H 7 Z m 3,0 h 2 v 2 h -2 z m 3,0 h 2 v 2 h -2 z m 3,0 h 2 v 2 H 16 V 12 h 2 l -3,4 v -3 h -2 l 3,-4.0000001 z m -12,3 H 6 V 12 H 4 Z m 3,0 H 9 V 12 H 7 Z m 3,0 h 2 V 12 H 10 Z M 5,13 h 7 v 2 H 5 Z"/>
 </g>
 <g id="22-22-input-keyboard-brightness" transform="translate(64.000002,-22)">
  <rect style="opacity:0;fill:#0000ff" width="22" height="22" x="0" y="0"/>
  <path style="fill:#d3dae3" d="M 5,5 C 3.892,5 3,5.892 3,7 v 8 c 0,1.108 0.892,2 2,2 h 12 c 1.108,0 2,-0.892 2,-2 V 7 C 19,5.892 18.108,5 17,5 Z M 4,7 H 6 V 9 H 4 Z M 7,7 H 9 V 9 H 7 Z m 3,0 h 2 v 2 h -2 z m 3,0 h 2 v 2 h -2 z m 3,0 h 2 V 9 H 16 Z M 4,10 h 2 v 2 H 4 Z m 3,0 h 2 v 2 H 7 Z m 3,0 h 2 v 2 h -2 z m 5.5,0 C 16.880712,10 18,11.119288 18,12.5 18,13.880712 16.880712,15 15.5,15 14.119288,15 13,13.880712 13,12.5 13,11.119288 14.119288,10 15.5,10 Z M 15,11 v 3 c 0.828427,0 2,0 2,-1.5 C 17,11 15.828427,11 15,11 Z M 5,13 h 7 v 2 H 5 Z"/>
 </g>
 <g id="input-keyboard-brightness" transform="translate(64.000002)">
  <rect style="opacity:0.01000001;fill:#eff0f1;fill-opacity:0.00392157" width="22" height="22" x="0" y="0" rx="0" ry="0"/>
  <rect style="opacity:0.00100002" width="32" height="32" x="0" y="0"/>
  <rect style="fill:#4f4f4f" width="28" height="20" x="2" y="6" rx="1.4" ry="1.4"/>
  <path style="opacity:0.07519998;fill:#ffffff" d="M 3.4004,6 C 2.6248,6 2,6.6248 2,7.4004 v 1 C 2,7.6248 2.6248,7 3.4004,7 h 25.2 c 0.775,0 1.4,0.6248 1.4,1.4004 v -1 C 30.0004,6.6248 29.3754,6 28.6004,6 Z"/>
  <path style="opacity:0.15040002" d="m 2,24.6 v 1 C 2,26.375 2.6248,27 3.4004,27 h 25.2 c 0.775,0 1.4,-0.625 1.4,-1.4 v -1 c 0,0.775 -0.625,1.4 -1.4,1.4 h -25.2 c -0.7752,0 -1.4,-0.625 -1.4,-1.4 z"/>
  <circle style="opacity:0.15040002" cx="5.5" cy="11.5" r="1.5"/>
  <circle style="opacity:0.15040002" cx="10.5" cy="11.5" r="1.5"/>
  <circle style="opacity:0.15040002" cx="15.5" cy="11.5" r="1.5"/>
  <circle style="opacity:0.15040002" cx="20.5" cy="11.5" r="1.5"/>
  <circle style="opacity:0.15040002" cx="25.5" cy="11.5" r="1.5"/>
  <circle style="opacity:0.15040002" cx="8.5" cy="17.5" r="1.5"/>
  <circle style="opacity:0.15040002" cx="13.5" cy="17.5" r="1.5"/>
  <circle style="opacity:0.15040002" cx="18.5" cy="17.5" r="1.5"/>
  <circle style="opacity:0.15040002" cx="23.5" cy="17.5" r="1.5"/>
  <rect style="opacity:0.15040002" width="20" height="3" x="6" y="22" rx=".75" ry=".75"/>
  <circle style="fill:#e4e4e4" cx="5.5" cy="10.5" r="1.5"/>
  <circle style="fill:#e4e4e4" cx="10.5" cy="10.5" r="1.5"/>
  <circle style="fill:#e4e4e4" cx="15.5" cy="10.5" r="1.5"/>
  <circle style="fill:#e4e4e4" cx="20.5" cy="10.5" r="1.5"/>
  <circle style="fill:#e4e4e4" cx="25.5" cy="10.5" r="1.5"/>
  <circle style="fill:#e4e4e4" cx="8.5" cy="16.5" r="1.5"/>
  <circle style="fill:#e4e4e4" cx="13.5" cy="16.5" r="1.5"/>
  <circle style="fill:#e4e4e4" cx="18.5" cy="16.5" r="1.5"/>
  <circle style="fill:#e4e4e4" cx="23.5" cy="16.5" r="1.5"/>
  <rect style="fill:#e4e4e4" width="20" height="3" x="6" y="21" rx=".75" ry=".75"/>
  <circle style="fill:#ffb607" cx="24" cy="23" r="8"/>
  <path style="opacity:0.15040002" d="M 31.979,23.424 A 8,8 0 0 1 24,31 8,8 0 0 1 16.021,23.576 8,8 0 0 0 16,24 a 8,8 0 0 0 8,8 8,8 0 0 0 8,-8 8,8 0 0 0 -0.02148,-0.57617 z"/>
  <path style="fill:#ffffff" d="m 24,18 v 10 a 5,5 0 0 0 5,-5 5,5 0 0 0 -5,-5 z"/>
 </g>
 <g id="input-keyboard">
  <rect style="opacity:0.01000001;fill:#eff0f1;fill-opacity:0.00392157" width="22" height="22" x="0" y="0" rx="0" ry="0"/>
  <rect style="opacity:0.00100002" width="32" height="32" x="0" y="0"/>
  <rect style="fill:#4f4f4f" width="28" height="20" x="2" y="6" rx="1.4" ry="1.4"/>
  <path style="opacity:0.07519998;fill:#ffffff" d="M 3.4004,6 C 2.6248,6 2,6.6248 2,7.4004 v 1 C 2,7.6248 2.6248,7 3.4004,7 h 25.2 c 0.775,0 1.4,0.6248 1.4,1.4004 v -1 C 30.0004,6.6248 29.3754,6 28.6004,6 Z"/>
  <path style="opacity:0.15040002" d="m 2,24.6 v 1 C 2,26.375 2.6248,27 3.4004,27 h 25.2 c 0.775,0 1.4,-0.625 1.4,-1.4 v -1 c 0,0.775 -0.625,1.4 -1.4,1.4 h -25.2 c -0.7752,0 -1.4,-0.625 -1.4,-1.4 z"/>
  <circle style="opacity:0.15040002" cx="5.5" cy="11.5" r="1.5"/>
  <circle style="opacity:0.15040002" cx="10.5" cy="11.5" r="1.5"/>
  <circle style="opacity:0.15040002" cx="15.5" cy="11.5" r="1.5"/>
  <circle style="opacity:0.15040002" cx="20.5" cy="11.5" r="1.5"/>
  <circle style="opacity:0.15040002" cx="25.5" cy="11.5" r="1.5"/>
  <circle style="opacity:0.15040002" cx="8.5" cy="17.5" r="1.5"/>
  <circle style="opacity:0.15040002" cx="13.5" cy="17.5" r="1.5"/>
  <circle style="opacity:0.15040002" cx="18.5" cy="17.5" r="1.5"/>
  <circle style="opacity:0.15040002" cx="23.5" cy="17.5" r="1.5"/>
  <rect style="opacity:0.15040002" width="20" height="3" x="6" y="22" rx=".75" ry=".75"/>
  <circle style="fill:#e4e4e4" cx="5.5" cy="10.5" r="1.5"/>
  <circle style="fill:#e4e4e4" cx="10.5" cy="10.5" r="1.5"/>
  <circle style="fill:#e4e4e4" cx="15.5" cy="10.5" r="1.5"/>
  <circle style="fill:#e4e4e4" cx="20.5" cy="10.5" r="1.5"/>
  <circle style="fill:#e4e4e4" cx="25.5" cy="10.5" r="1.5"/>
  <circle style="fill:#e4e4e4" cx="8.5" cy="16.5" r="1.5"/>
  <circle style="fill:#e4e4e4" cx="13.5" cy="16.5" r="1.5"/>
  <circle style="fill:#e4e4e4" cx="18.5" cy="16.5" r="1.5"/>
  <circle style="fill:#e4e4e4" cx="23.5" cy="16.5" r="1.5"/>
  <rect style="fill:#e4e4e4" width="20" height="3" x="6" y="21" rx=".75" ry=".75"/>
 </g>
 <g id="input-keyboard-battery" transform="translate(96.000002)">
  <rect style="opacity:0.01000001;fill:#eff0f1;fill-opacity:0.00392157" width="22" height="22" x="0" y="0" rx="0" ry="0"/>
  <rect style="opacity:0.00100002" width="32" height="32" x="0" y="0"/>
  <rect style="fill:#4f4f4f" width="28" height="20" x="2" y="6" rx="1.4" ry="1.4"/>
  <path style="opacity:0.07519998;fill:#ffffff" d="M 3.4004,6 C 2.6248,6 2,6.6248 2,7.4004 v 1 C 2,7.6248 2.6248,7 3.4004,7 h 25.2 c 0.775,0 1.4,0.6248 1.4,1.4004 v -1 C 30.0004,6.6248 29.3754,6 28.6004,6 Z"/>
  <path style="opacity:0.15040002" d="m 2,24.6 v 1 C 2,26.375 2.6248,27 3.4004,27 h 25.2 c 0.775,0 1.4,-0.625 1.4,-1.4 v -1 c 0,0.775 -0.625,1.4 -1.4,1.4 h -25.2 c -0.7752,0 -1.4,-0.625 -1.4,-1.4 z"/>
  <circle style="opacity:0.15040002" cx="5.5" cy="11.5" r="1.5"/>
  <circle style="opacity:0.15040002" cx="10.5" cy="11.5" r="1.5"/>
  <circle style="opacity:0.15040002" cx="15.5" cy="11.5" r="1.5"/>
  <circle style="opacity:0.15040002" cx="20.5" cy="11.5" r="1.5"/>
  <circle style="opacity:0.15040002" cx="25.5" cy="11.5" r="1.5"/>
  <circle style="opacity:0.15040002" cx="8.5" cy="17.5" r="1.5"/>
  <circle style="opacity:0.15040002" cx="13.5" cy="17.5" r="1.5"/>
  <circle style="opacity:0.15040002" cx="18.5" cy="17.5" r="1.5"/>
  <circle style="opacity:0.15040002" cx="23.5" cy="17.5" r="1.5"/>
  <rect style="opacity:0.15040002" width="20" height="3" x="6" y="22" rx=".75" ry=".75"/>
  <circle style="fill:#e4e4e4" cx="5.5" cy="10.5" r="1.5"/>
  <circle style="fill:#e4e4e4" cx="10.5" cy="10.5" r="1.5"/>
  <circle style="fill:#e4e4e4" cx="15.5" cy="10.5" r="1.5"/>
  <circle style="fill:#e4e4e4" cx="20.5" cy="10.5" r="1.5"/>
  <circle style="fill:#e4e4e4" cx="25.5" cy="10.5" r="1.5"/>
  <circle style="fill:#e4e4e4" cx="8.5" cy="16.5" r="1.5"/>
  <circle style="fill:#e4e4e4" cx="13.5" cy="16.5" r="1.5"/>
  <circle style="fill:#e4e4e4" cx="18.5" cy="16.5" r="1.5"/>
  <circle style="fill:#e4e4e4" cx="23.5" cy="16.5" r="1.5"/>
  <rect style="fill:#e4e4e4" width="20" height="3" x="6" y="21" rx=".75" ry=".75"/>
  <circle style="fill:#f45744" cx="24" cy="23" r="8"/>
  <path style="opacity:0.15040002" d="M 31.979,23.424 A 8,8 0 0 1 24,31 8,8 0 0 1 16.021,23.576 8,8 0 0 0 16,24 a 8,8 0 0 0 8,8 8,8 0 0 0 8,-8 8,8 0 0 0 -0.02148,-0.57617 z"/>
  <path style="fill:#ffffff" d="m 24,18 v 4 h 4 l -4,6 v -4 h -4 z"/>
 </g>
 <g id="input-mouse-battery" transform="translate(128)">
  <rect style="opacity:0.00100002" width="32" height="32" x="0" y="0"/>
  <g transform="translate(5.15e-6,-1.0000002)">
   <path style="opacity:0.2" d="m 16,2.9999997 c -0.012,0 -0.025,0.002 -0.037,0.002 H 15.9589 C 11.473,3.0299996 7,7.6789999 7,11.168 V 22.703 C 7,27.444 10.375,31 16,31 c 5.624999,9.8e-4 8.999999,-3.554 8.999999,-8.295 V 11.486 c 0,-3.6260004 -4.494,-8.4530003 -8.999999,-8.4820003 z"/>
   <path style="fill:#4f4f4f" d="m 16,1.9999999 c -0.012,0 -0.025,0.002 -0.037,0.002 H 15.9589 C 11.473,2.0299998 7,6.6790001 7,10.168 V 21.703 C 7,26.444 10.375,30 16,30 c 5.624999,9.8e-4 8.999999,-3.554 8.999999,-8.295 V 10.486 c 0,-3.6260002 -4.494,-8.4530001 -8.999999,-8.4820001 z"/>
   <path style="opacity:0.1" d="m 16,1.9999999 c -0.012,0 -0.02451,0.00137 -0.0365,0.00137 h -0.0041 c -4.485963,0.028 -8.9594103,4.6772138 -8.9594103,8.1662131 V 16 H 25 V 10.486133 C 25,6.8601328 20.505999,2.0331015 16,2.0041014 Z"/>
   <path style="opacity:0.1" d="m 16,1.9999999 c -0.012,0 -0.02451,0.00137 -0.0365,0.00137 h -0.0041 c -4.485963,0.028 -8.9594103,4.6772138 -8.9594103,8.1662131 V 16 H 16 c 0,0 0,-14.0000001 0,-13.9958986 z"/>
   <path style="opacity:0.2" d="m 16,7.0002992 c 0.551,0 1,0.5760396 1,1.2857862 V 11.714915 C 17,12.423961 16.551,13 16,13 15.449,13 15,12.423961 15,11.713915 V 8.2850852 c 0,-0.709047 0.449,-1.2850854 1,-1.2850854"/>
   <path style="fill:#e4e4e4" d="m 16,6.0002994 c 0.551,0 1,0.5760396 1,1.2857862 V 10.714915 C 17,11.423961 16.551,12 16,12 15.449,12 15,11.423961 15,10.713915 V 7.2850854 C 15,6.5760384 15.449,6 16,6"/>
   <path style="opacity:0.1;fill:#ffffff" d="m 16,2 c -0.012,0 -0.02511,0.00195 -0.03711,0.00195 h -0.0039 C 11.473084,2.029953 7,6.6789689 7,10.167969 v 1 C 7,7.6789687 11.473084,3.029953 15.958984,3.0019531 h 0.0039 C 15.974891,3.0019531 15.988,3 16,3 v 0.00391 c 4.505999,0.029 9,4.8564215 9,8.482422 v -1 C 25,6.8603279 20.505999,2.0329062 16,2.0039062 Z"/>
  </g>
  <g transform="translate(66.021,6.576)">
   <circle style="fill:#f45744" cx="-42.021" cy="16.424" r="8"/>
   <path style="opacity:0.15040002" d="M -34.042,16.848 A 8,8 0 0 1 -42.021,24.424 8,8 0 0 1 -50,17 a 8,8 0 0 0 -0.021,0.424 8,8 0 0 0 8,8 8,8 0 0 0 8,-8 8,8 0 0 0 -0.02148,-0.57617 z"/>
   <path style="fill:#ffffff" d="m -42.021,11.424 v 4 h 4 l -4,6 v -4 h -4 z"/>
  </g>
 </g>
 <g id="22-22-input-keyboard" transform="translate(-12,2)">
  <rect style="opacity:0;fill:#0000ff" width="22" height="22" x="12" y="-24"/>
  <path style="fill:#d3dae3" d="m 17,-19 c -1.108,0 -2,0.892 -2,2 v 8 c 0,1.108 0.892,2 2,2 h 12 c 1.108,0 2,-0.892 2,-2 v -8 c 0,-1.108 -0.892,-2 -2,-2 z m -1,2 h 2 v 2 h -2 z m 3,0 h 2 v 2 h -2 z m 3,0 h 2 v 2 h -2 z m 3,0 h 2 v 2 h -2 z m 3,0 h 2 v 2 h -2 z m -12,3 h 2 v 2 h -2 z m 3,0 h 2 v 2 h -2 z m 3,0 h 2 v 2 h -2 z m 3,0 h 2 v 2 h -2 z m 3,0 h 2 v 2 h -2 z m -11,3 h 6 1 5 v 2 h -5 -1 -6 z"/>
 </g>
 <g id="22-22-input-caps-on" transform="translate(-16,30)">
  <rect style="opacity:0;fill:#0000ff" width="22" height="22" x="48" y="-52"/>
  <path style="fill:#d3dae3" d="m 53,-47 c -1.108,0 -2,0.892 -2,2 v 8 c 0,1.108 0.892,2 2,2 h 12 c 1.108,0 2,-0.892 2,-2 v -8 c 0,-1.108 -0.892,-2 -2,-2 z m -1,2 h 2 v 2 h -2 z m 3,0 h 2 v 2 h -2 z m 3,0 h 2 v 2 h -2 z m 3,0 h 2 v 2 h -2 z m 3,0 h 2 v 2 h -2 z m -12,3 h 2 v 2 h -2 z m 3,0 h 2 v 2 h -2 z m 3,0 h 2 v 2 h -2 z m 4,0 h 3 v 1 h -2 v 3 h 2 v 1 h -3 z m -9,3 h 7 v 2 h -7 z"/>
 </g>
 <g id="input-caps-on">
  <rect style="opacity:0.01000001;fill:#eff0f1;fill-opacity:0.00392157" width="22" height="22" x="32" y="0" rx="0" ry="0"/>
  <rect style="opacity:0.00100002" width="32" height="32" x="32" y="0"/>
  <rect style="fill:#4f4f4f" width="28" height="20" x="34" y="6" rx="1.4" ry="1.4"/>
  <path style="opacity:0.07519998;fill:#ffffff" d="M 35.4004,6 C 34.6248,6 34,6.6248 34,7.4004 v 1 C 34,7.6248 34.6248,7 35.4004,7 h 25.2 c 0.775,0 1.4,0.6248 1.4,1.4004 v -1 C 62.0004,6.6248 61.3754,6 60.6004,6 Z"/>
  <path style="opacity:0.15040002" d="m 34,24.6 v 1 c 0,0.775 0.6248,1.4 1.4004,1.4 h 25.2 c 0.775,0 1.4,-0.625 1.4,-1.4 v -1 c 0,0.775 -0.625,1.4 -1.4,1.4 h -25.2 c -0.7752,0 -1.4,-0.625 -1.4,-1.4 z"/>
  <circle style="opacity:0.15040002" cx="37.5" cy="11.5" r="1.5"/>
  <circle style="opacity:0.15040002" cx="42.5" cy="11.5" r="1.5"/>
  <circle style="opacity:0.15040002" cx="47.5" cy="11.5" r="1.5"/>
  <circle style="opacity:0.15040002" cx="52.5" cy="11.5" r="1.5"/>
  <circle style="opacity:0.15040002" cx="57.5" cy="11.5" r="1.5"/>
  <circle style="opacity:0.15040002" cx="40.5" cy="17.5" r="1.5"/>
  <circle style="opacity:0.15040002" cx="45.5" cy="17.5" r="1.5"/>
  <circle style="opacity:0.15040002" cx="50.5" cy="17.5" r="1.5"/>
  <circle style="opacity:0.15040002" cx="55.5" cy="17.5" r="1.5"/>
  <rect style="opacity:0.15040002" width="20" height="3" x="38" y="22" rx=".75" ry=".75"/>
  <circle style="fill:#e4e4e4" cx="37.5" cy="10.5" r="1.5"/>
  <circle style="fill:#e4e4e4" cx="42.5" cy="10.5" r="1.5"/>
  <circle style="fill:#e4e4e4" cx="47.5" cy="10.5" r="1.5"/>
  <circle style="fill:#e4e4e4" cx="52.5" cy="10.5" r="1.5"/>
  <circle style="fill:#e4e4e4" cx="57.5" cy="10.5" r="1.5"/>
  <circle style="fill:#e4e4e4" cx="40.5" cy="16.5" r="1.5"/>
  <circle style="fill:#e4e4e4" cx="45.5" cy="16.5" r="1.5"/>
  <circle style="fill:#e4e4e4" cx="50.5" cy="16.5" r="1.5"/>
  <circle style="fill:#e4e4e4" cx="55.5" cy="16.5" r="1.5"/>
  <rect style="fill:#e4e4e4" width="20" height="3" x="38" y="21" rx=".75" ry=".75"/>
  <circle style="fill:#3399df" cx="56" cy="23" r="8"/>
  <path style="opacity:0.15040002" d="M 63.979,23.424 A 8,8 0 0 1 56,31 8,8 0 0 1 48.021,23.576 8,8 0 0 0 48,24 a 8,8 0 0 0 8,8 8,8 0 0 0 8,-8 8,8 0 0 0 -0.02148,-0.57617 z"/>
  <path style="fill:none;stroke:#ffffff;stroke-width:2;stroke-linecap:round;stroke-linejoin:round" d="m 58,27 h -4 v -8 h 4 v 0"/>
 </g>
 <g style="enable-background:new" id="input-touchpad-on" transform="translate(0,95.999999)">
  <rect style="opacity:0.00100002" width="32" height="32" x="0" y="-32"/>
  <g transform="translate(0,-32)">
   <rect style="fill:#c4c4c4" width="26" height="26" x="-29" y="-29" rx="1.3" ry="1.3" transform="matrix(0,-1,-1,0,0,0)"/>
   <path style="opacity:0.1;fill:#d3dae3" d="M 4.3008,3 C 3.5806,3 3,3.5806 3,4.3008 v 1 C 3,4.5806 3.5806,4 4.3008,4 h 23.398 c 0.72,0 1.301,0.5806 1.301,1.3008 v -1 C 28.9998,3.5806 28.4188,3 27.6988,3 Z"/>
   <g style="fill:#5d5d5d">
    <rect width="11" height="6" x="4" y="22" rx="1.222" ry="1.2"/>
    <rect width="11" height="6" x="17" y="22" rx="1.222" ry="1.2"/>
    <rect width="4" height="1" x="24" y="7"/>
    <rect width="4" height="1" x="24" y="9"/>
    <rect width="4" height="1" x="24" y="11"/>
    <rect width="4" height="1" x="24" y="13"/>
    <rect width="4" height="1" x="24" y="15"/>
    <rect width="4" height="1" x="24" y="17"/>
   </g>
   <path style="opacity:0.2" d="m 3,27.699 v 1 C 3,29.419 3.5806,30 4.3008,30 h 23.398 c 0.72,0 1.301,-0.581 1.301,-1.301 v -1 c 0,0.72 -0.581,1.301 -1.301,1.301 H 4.3008 c -0.7204,0 -1.301,-0.581 -1.301,-1.301 z"/>
  </g>
 </g>
 <g style="enable-background:new" id="input-touchpad-off" transform="translate(0,64)">
  <rect style="opacity:0.00100002" width="32" height="32" x="0" y="-32"/>
  <g transform="translate(0,-32)">
   <rect style="fill:#c4c4c4" width="26" height="26" x="-29" y="-29" rx="1.3" ry="1.3" transform="matrix(0,-1,-1,0,0,0)"/>
   <path style="opacity:0.1;fill:#d3dae3" d="M 4.3008,3 C 3.5806,3 3,3.5806 3,4.3008 v 1 C 3,4.5806 3.5806,4 4.3008,4 h 23.398 c 0.72,0 1.301,0.5806 1.301,1.3008 v -1 C 28.9998,3.5806 28.4188,3 27.6988,3 Z"/>
   <g style="fill:#5d5d5d">
    <rect width="11" height="6" x="4" y="22" rx="1.222" ry="1.2"/>
    <rect width="11" height="6" x="17" y="22" rx="1.222" ry="1.2"/>
    <rect width="4" height="1" x="24" y="7"/>
    <rect width="4" height="1" x="24" y="9"/>
    <rect width="4" height="1" x="24" y="11"/>
    <rect width="4" height="1" x="24" y="13"/>
    <rect width="4" height="1" x="24" y="15"/>
    <rect width="4" height="1" x="24" y="17"/>
   </g>
   <path style="opacity:0.2" d="m 3,27.699 v 1 C 3,29.419 3.5806,30 4.3008,30 h 23.398 c 0.72,0 1.301,-0.581 1.301,-1.301 v -1 c 0,0.72 -0.581,1.301 -1.301,1.301 H 4.3008 c -0.7204,0 -1.301,-0.581 -1.301,-1.301 z"/>
   <circle style="fill:#db3c30" cx="24" cy="24" r="7"/>
   <path style="opacity:0.2" d="M 30.977,24.459 A 7,7 0 0 1 24,31 7,7 0 0 1 17.023,24.541 7,7 0 0 0 17,25 a 7,7 0 0 0 7,7 7,7 0 0 0 7,-7 7,7 0 0 0 -0.02344,-0.54102 z"/>
   <g style="fill:#d3dae3" transform="matrix(0.70711,-0.70711,0.70711,0.70711,-9.9411,24)">
    <rect style="fill:#ffffff" width="8" height="2" x="20" y="23"/>
    <rect style="fill:#ffffff" width="8" height="2" x="20" y="-25" transform="rotate(90)"/>
   </g>
  </g>
 </g>
 <g id="22-22-input-touchpad-on" transform="translate(-393.0002,239.00336)" style="filter:url(#filter7554);enable-background:new">
  <path style="opacity:0" d="m 425.0002,-165.00336 h 22 c 0,0 0,0 0,0 v 22 c 0,0 0,0 0,0 h -22 c 0,0 0,0 0,0 v -22 c 0,0 0,0 0,0 z"/>
  <path style="fill:#d3dae3" d="m 428.19942,-162.00336 c -1.2,0 -1.19922,1.23047 -1.19922,1.23047 v 13.53906 c 0,0 -7.8e-4,1.23047 1.19922,1.23047 h 15.60156 c 0,0 1.19922,3e-4 1.19922,-1.23047 v -13.53906 c 0,-1.23077 -1.19922,-1.23047 -1.19922,-1.23047 z m 12.80078,2 h 2 v 1 h -2 z m 0,2 h 2 v 1 h -2 z m 0,2 h 2 v 1 h -2 z m 0,2 h 2 v 1 h -2 z m -12,3 h 6 v 3 h -6 z m 8,0 h 6 v 3 h -6 z"/>
 </g>
 <g id="22-22-input-touchpad-off" transform="translate(-415.0002,207.00336)" style="filter:url(#filter7554);enable-background:new">
  <path style="opacity:0" d="m 447.0002,-165.00336 h 22 c 0,0 0,0 0,0 v 22 c 0,0 0,0 0,0 h -22 c 0,0 0,0 0,0 v -22 c 0,0 0,0 0,0 z"/>
  <path id="222" d="m 450.19942,-162.00336 c -1.2,0 -1.19922,1.23047 -1.19922,1.23047 v 13.53906 c 0,0 -7.8e-4,1.23047 1.19922,1.23047 h 15.60156 c 0,0 1.19922,3e-4 1.19922,-1.23047 v -13.53906 c 0,-1.23077 -1.19922,-1.23047 -1.19922,-1.23047 z m 12.80078,2 h 2 v 1 h -2 z m 0,2 h 2 v 1 h -2 z m 0,2 h 2 v 1 h -2 z m 0,2 h 2 v 1 h -2 z m -12,3 h 6 v 3 h -6 z m 8,0 h 6 v 3 h -6 z" style="opacity:0.3;fill:#d3dae3"/>
 </g>
</svg>
