<svg xmlns="http://www.w3.org/2000/svg" width="32" height="32" version="1.1">
 <g id="22-22-input-mouse-battery" transform="translate(224,-22)">
  <rect style="opacity:0.001" width="22" height="22" x="0" y="0"/>
  <path style="fill:#dfdfdf" d="M 10,3 C 7.1891901,3.2515385 5,5.6018325 5,8.484375 v 0.5 h 5 z m 1,0 v 5.984375 h 5 v -0.5 C 16,5.6018325 13.81081,3.2515385 11,3 Z M 5,9.9863281 V 13.492188 C 5,16.543658 7.4530001,19 10.5,19 13.547,19 16,16.543658 16,13.492188 V 9.9863281 H 11 10 Z M 11,11 v 3 h 2 l -3,4 V 15 H 8 Z"/>
 </g>
 <g id="22-22-input-keyboard-battery" transform="translate(192,-22)">
  <rect style="opacity:0.001" width="22" height="22" x="0" y="0"/>
  <path style="fill:#dfdfdf" d="m 5,4.9999998 c -1.108,0 -2,0.892 -2,2.0000001 V 15 c 0,1.108 0.892,2 2,2 h 12 c 1.108,0 2,-0.892 2,-2 V 6.9999999 C 19,5.8919998 18.108,4.9999998 17,4.9999998 Z M 4,6.9999999 h 2 v 2 H 4 Z m 3,0 h 2 v 2 H 7 Z m 3,0 h 2 v 2 h -2 z m 3,0 h 2 v 2 h -2 z m 3,0 h 2 v 2 H 16 V 12 h 2 l -3,4 v -3 h -2 l 3,-4.0000001 z m -12,3 H 6 V 12 H 4 Z m 3,0 H 9 V 12 H 7 Z m 3,0 h 2 V 12 H 10 Z M 5,13 h 7 v 2 H 5 Z"/>
 </g>
 <g id="22-22-input-keyboard-brightness" transform="translate(96,-22)">
  <rect style="opacity:0.001" width="22" height="22" x="0" y="0"/>
  <path style="fill:#dfdfdf" d="M 5,5 C 3.892,5 3,5.892 3,7 v 8 c 0,1.108 0.892,2 2,2 h 12 c 1.108,0 2,-0.892 2,-2 V 7 C 19,5.892 18.108,5 17,5 Z M 4,7 H 6 V 9 H 4 Z M 7,7 H 9 V 9 H 7 Z m 3,0 h 2 v 2 h -2 z m 3,0 h 2 v 2 h -2 z m 3,0 h 2 V 9 H 16 Z M 4,10 h 2 v 2 H 4 Z m 3,0 h 2 v 2 H 7 Z m 3,0 h 2 v 2 h -2 z m 5.5,0 C 16.880712,10 18,11.119288 18,12.5 18,13.880712 16.880712,15 15.5,15 14.119288,15 13,13.880712 13,12.5 13,11.119288 14.119288,10 15.5,10 Z M 15,11 v 3 c 0.828427,0 2,0 2,-1.5 C 17,11 15.828427,11 15,11 Z M 5,13 h 7 v 2 H 5 Z"/>
 </g>
 <g id="input-keyboard-brightness" transform="translate(96)">
  <rect style="opacity:0.001" width="32" height="32" x="0" y="0"/>
  <rect style="fill:#4f4f4f" width="28" height="20" x="2" y="6" rx="1.4" ry="1.4"/>
  <path style="opacity:0.075;fill:#ffffff" d="M 3.4004,6 C 2.6248,6 2,6.6248 2,7.4004 v 1 C 2,7.6248 2.6248,7 3.4004,7 h 25.2 c 0.775,0 1.4,0.6248 1.4,1.4004 v -1 C 30.0004,6.6248 29.3754,6 28.6004,6 Z"/>
  <path style="opacity:0.1" d="m 2,24.6 v 1 C 2,26.375 2.6248,27 3.4004,27 h 25.2 c 0.775,0 1.4,-0.625 1.4,-1.4 v -1 c 0,0.775 -0.625,1.4 -1.4,1.4 h -25.2 c -0.7752,0 -1.4,-0.625 -1.4,-1.4 z"/>
  <circle style="opacity:0.1" cx="5.5" cy="11.5" r="1.5"/>
  <circle style="opacity:0.1" cx="10.5" cy="11.5" r="1.5"/>
  <circle style="opacity:0.1" cx="15.5" cy="11.5" r="1.5"/>
  <circle style="opacity:0.1" cx="20.5" cy="11.5" r="1.5"/>
  <circle style="opacity:0.1" cx="25.5" cy="11.5" r="1.5"/>
  <circle style="opacity:0.1" cx="8.5" cy="17.5" r="1.5"/>
  <circle style="opacity:0.1" cx="13.5" cy="17.5" r="1.5"/>
  <circle style="opacity:0.1" cx="18.5" cy="17.5" r="1.5"/>
  <circle style="opacity:0.1" cx="23.5" cy="17.5" r="1.5"/>
  <rect style="opacity:0.1" width="20" height="3" x="6" y="22" rx=".75" ry=".75"/>
  <circle style="fill:#e4e4e4" cx="5.5" cy="10.5" r="1.5"/>
  <circle style="fill:#e4e4e4" cx="10.5" cy="10.5" r="1.5"/>
  <circle style="fill:#e4e4e4" cx="15.5" cy="10.5" r="1.5"/>
  <circle style="fill:#e4e4e4" cx="20.5" cy="10.5" r="1.5"/>
  <circle style="fill:#e4e4e4" cx="25.5" cy="10.5" r="1.5"/>
  <circle style="fill:#e4e4e4" cx="8.5" cy="16.5" r="1.5"/>
  <circle style="fill:#e4e4e4" cx="13.5" cy="16.5" r="1.5"/>
  <circle style="fill:#e4e4e4" cx="18.5" cy="16.5" r="1.5"/>
  <circle style="fill:#e4e4e4" cx="23.5" cy="16.5" r="1.5"/>
  <rect style="fill:#e4e4e4" width="20" height="3" x="6" y="21" rx=".75" ry=".75"/>
  <circle style="fill:#ffb607" cx="24" cy="23" r="8"/>
  <path style="opacity:0.1" d="M 31.979,23.424 A 8,8 0 0 1 24,31 8,8 0 0 1 16.021,23.576 8,8 0 0 0 16,24 a 8,8 0 0 0 8,8 8,8 0 0 0 8,-8 8,8 0 0 0 -0.02148,-0.57617 z"/>
  <path style="fill:#ffffff" d="m 24,18 v 10 a 5,5 0 0 0 5,-5 5,5 0 0 0 -5,-5 z"/>
 </g>
 <g id="input-keyboard">
  <rect style="opacity:0.001" width="32" height="32" x="0" y="0"/>
  <rect style="fill:#4f4f4f" width="28" height="20" x="2" y="6" rx="1.4" ry="1.4"/>
  <path style="opacity:0.075;fill:#ffffff" d="M 3.4004,6 C 2.6248,6 2,6.6248 2,7.4004 v 1 C 2,7.6248 2.6248,7 3.4004,7 h 25.2 c 0.775,0 1.4,0.6248 1.4,1.4004 v -1 C 30.0004,6.6248 29.3754,6 28.6004,6 Z"/>
  <path style="opacity:0.1" d="m 2,24.6 v 1 C 2,26.375 2.6248,27 3.4004,27 h 25.2 c 0.775,0 1.4,-0.625 1.4,-1.4 v -1 c 0,0.775 -0.625,1.4 -1.4,1.4 h -25.2 c -0.7752,0 -1.4,-0.625 -1.4,-1.4 z"/>
  <circle style="opacity:0.1" cx="5.5" cy="11.5" r="1.5"/>
  <circle style="opacity:0.1" cx="10.5" cy="11.5" r="1.5"/>
  <circle style="opacity:0.1" cx="15.5" cy="11.5" r="1.5"/>
  <circle style="opacity:0.1" cx="20.5" cy="11.5" r="1.5"/>
  <circle style="opacity:0.1" cx="25.5" cy="11.5" r="1.5"/>
  <circle style="opacity:0.1" cx="8.5" cy="17.5" r="1.5"/>
  <circle style="opacity:0.1" cx="13.5" cy="17.5" r="1.5"/>
  <circle style="opacity:0.1" cx="18.5" cy="17.5" r="1.5"/>
  <circle style="opacity:0.1" cx="23.5" cy="17.5" r="1.5"/>
  <rect style="opacity:0.1" width="20" height="3" x="6" y="22" rx=".75" ry=".75"/>
  <circle style="fill:#e4e4e4" cx="5.5" cy="10.5" r="1.5"/>
  <circle style="fill:#e4e4e4" cx="10.5" cy="10.5" r="1.5"/>
  <circle style="fill:#e4e4e4" cx="15.5" cy="10.5" r="1.5"/>
  <circle style="fill:#e4e4e4" cx="20.5" cy="10.5" r="1.5"/>
  <circle style="fill:#e4e4e4" cx="25.5" cy="10.5" r="1.5"/>
  <circle style="fill:#e4e4e4" cx="8.5" cy="16.5" r="1.5"/>
  <circle style="fill:#e4e4e4" cx="13.5" cy="16.5" r="1.5"/>
  <circle style="fill:#e4e4e4" cx="18.5" cy="16.5" r="1.5"/>
  <circle style="fill:#e4e4e4" cx="23.5" cy="16.5" r="1.5"/>
  <rect style="fill:#e4e4e4" width="20" height="3" x="6" y="21" rx=".75" ry=".75"/>
 </g>
 <g id="input-keyboard-battery" transform="translate(192)">
  <rect style="opacity:0.001" width="32" height="32" x="0" y="0"/>
  <rect style="fill:#4f4f4f" width="28" height="20" x="2" y="6" rx="1.4" ry="1.4"/>
  <path style="opacity:0.075;fill:#ffffff" d="M 3.4004,6 C 2.6248,6 2,6.6248 2,7.4004 v 1 C 2,7.6248 2.6248,7 3.4004,7 h 25.2 c 0.775,0 1.4,0.6248 1.4,1.4004 v -1 C 30.0004,6.6248 29.3754,6 28.6004,6 Z"/>
  <path style="opacity:0.1" d="m 2,24.6 v 1 C 2,26.375 2.6248,27 3.4004,27 h 25.2 c 0.775,0 1.4,-0.625 1.4,-1.4 v -1 c 0,0.775 -0.625,1.4 -1.4,1.4 h -25.2 c -0.7752,0 -1.4,-0.625 -1.4,-1.4 z"/>
  <circle style="opacity:0.1" cx="5.5" cy="11.5" r="1.5"/>
  <circle style="opacity:0.1" cx="10.5" cy="11.5" r="1.5"/>
  <circle style="opacity:0.1" cx="15.5" cy="11.5" r="1.5"/>
  <circle style="opacity:0.1" cx="20.5" cy="11.5" r="1.5"/>
  <circle style="opacity:0.1" cx="25.5" cy="11.5" r="1.5"/>
  <circle style="opacity:0.1" cx="8.5" cy="17.5" r="1.5"/>
  <circle style="opacity:0.1" cx="13.5" cy="17.5" r="1.5"/>
  <circle style="opacity:0.1" cx="18.5" cy="17.5" r="1.5"/>
  <circle style="opacity:0.1" cx="23.5" cy="17.5" r="1.5"/>
  <rect style="opacity:0.1" width="20" height="3" x="6" y="22" rx=".75" ry=".75"/>
  <circle style="fill:#e4e4e4" cx="5.5" cy="10.5" r="1.5"/>
  <circle style="fill:#e4e4e4" cx="10.5" cy="10.5" r="1.5"/>
  <circle style="fill:#e4e4e4" cx="15.5" cy="10.5" r="1.5"/>
  <circle style="fill:#e4e4e4" cx="20.5" cy="10.5" r="1.5"/>
  <circle style="fill:#e4e4e4" cx="25.5" cy="10.5" r="1.5"/>
  <circle style="fill:#e4e4e4" cx="8.5" cy="16.5" r="1.5"/>
  <circle style="fill:#e4e4e4" cx="13.5" cy="16.5" r="1.5"/>
  <circle style="fill:#e4e4e4" cx="18.5" cy="16.5" r="1.5"/>
  <circle style="fill:#e4e4e4" cx="23.5" cy="16.5" r="1.5"/>
  <rect style="fill:#e4e4e4" width="20" height="3" x="6" y="21" rx=".75" ry=".75"/>
  <circle style="fill:#f45744" cx="24" cy="23" r="8"/>
  <path style="opacity:0.1" d="M 31.979,23.424 A 8,8 0 0 1 24,31 8,8 0 0 1 16.021,23.576 8,8 0 0 0 16,24 a 8,8 0 0 0 8,8 8,8 0 0 0 8,-8 8,8 0 0 0 -0.02148,-0.57617 z"/>
  <path style="fill:#ffffff" d="m 24,18 v 4 h 4 l -4,6 v -4 h -4 z"/>
 </g>
 <g id="input-mouse-battery" transform="translate(224)">
  <rect style="opacity:0.001" width="32" height="32" x="0" y="0"/>
  <g transform="translate(5.15e-6,-1.0000002)">
   <path style="opacity:0.2" d="m 16,2.9999997 c -0.012,0 -0.025,0.002 -0.037,0.002 H 15.9589 C 11.473,3.0299996 7,7.6789999 7,11.168 V 22.703 C 7,27.444 10.375,31 16,31 c 5.624999,9.8e-4 8.999999,-3.554 8.999999,-8.295 V 11.486 c 0,-3.6260004 -4.494,-8.4530003 -8.999999,-8.4820003 z"/>
   <path style="fill:#4f4f4f" d="m 16,1.9999999 c -0.012,0 -0.025,0.002 -0.037,0.002 H 15.9589 C 11.473,2.0299998 7,6.6790001 7,10.168 V 21.703 C 7,26.444 10.375,30 16,30 c 5.624999,9.8e-4 8.999999,-3.554 8.999999,-8.295 V 10.486 c 0,-3.6260002 -4.494,-8.4530001 -8.999999,-8.4820001 z"/>
   <path style="opacity:0.1" d="m 16,1.9999999 c -0.012,0 -0.02451,0.00137 -0.0365,0.00137 h -0.0041 c -4.485963,0.028 -8.9594103,4.6772138 -8.9594103,8.1662131 V 16 H 25 V 10.486133 C 25,6.8601328 20.505999,2.0331015 16,2.0041014 Z"/>
   <path style="opacity:0.1" d="m 16,1.9999999 c -0.012,0 -0.02451,0.00137 -0.0365,0.00137 h -0.0041 c -4.485963,0.028 -8.9594103,4.6772138 -8.9594103,8.1662131 V 16 H 16 c 0,0 0,-14.0000001 0,-13.9958986 z"/>
   <path style="opacity:0.2" d="m 16,7.0002992 c 0.551,0 1,0.5760396 1,1.2857862 V 11.714915 C 17,12.423961 16.551,13 16,13 15.449,13 15,12.423961 15,11.713915 V 8.2850852 c 0,-0.709047 0.449,-1.2850854 1,-1.2850854"/>
   <path style="fill:#e4e4e4" d="m 16,6.0002994 c 0.551,0 1,0.5760396 1,1.2857862 V 10.714915 C 17,11.423961 16.551,12 16,12 15.449,12 15,11.423961 15,10.713915 V 7.2850854 C 15,6.5760384 15.449,6 16,6"/>
   <path style="opacity:0.1;fill:#ffffff" d="m 16,2 c -0.012,0 -0.02511,0.00195 -0.03711,0.00195 h -0.0039 C 11.473084,2.029953 7,6.6789689 7,10.167969 v 1 C 7,7.6789687 11.473084,3.029953 15.958984,3.0019531 h 0.0039 C 15.974891,3.0019531 15.988,3 16,3 v 0.00391 c 4.505999,0.029 9,4.8564215 9,8.482422 v -1 C 25,6.8603279 20.505999,2.0329062 16,2.0039062 Z"/>
  </g>
  <g transform="translate(66.021,6.576)">
   <circle style="fill:#f45744" cx="-42.021" cy="16.424" r="8"/>
   <path style="opacity:0.1" d="M -34.042,16.848 A 8,8 0 0 1 -42.021,24.424 8,8 0 0 1 -50,17 a 8,8 0 0 0 -0.021,0.424 8,8 0 0 0 8,8 8,8 0 0 0 8,-8 8,8 0 0 0 -0.02148,-0.57617 z"/>
   <path style="fill:#ffffff" d="m -42.021,11.424 v 4 h 4 l -4,6 v -4 h -4 z"/>
  </g>
 </g>
 <g id="22-22-input-keyboard" transform="translate(-12,2)">
  <rect style="opacity:0.001" width="22" height="22" x="12" y="-24"/>
  <path style="fill:#dfdfdf" d="m 17,-19 c -1.108,0 -2,0.892 -2,2 v 8 c 0,1.108 0.892,2 2,2 h 12 c 1.108,0 2,-0.892 2,-2 v -8 c 0,-1.108 -0.892,-2 -2,-2 z m -1,2 h 2 v 2 h -2 z m 3,0 h 2 v 2 h -2 z m 3,0 h 2 v 2 h -2 z m 3,0 h 2 v 2 h -2 z m 3,0 h 2 v 2 h -2 z m -12,3 h 2 v 2 h -2 z m 3,0 h 2 v 2 h -2 z m 3,0 h 2 v 2 h -2 z m 3,0 h 2 v 2 h -2 z m 3,0 h 2 v 2 h -2 z m -11,3 h 6 1 5 v 2 h -5 -1 -6 z"/>
 </g>
 <g id="22-22-input-caps-on" transform="translate(-16,30)">
  <rect style="opacity:0.001" width="22" height="22" x="48" y="-52"/>
  <path style="fill:#dfdfdf" d="m 53,-47 c -1.108,0 -2,0.892 -2,2 v 8 c 0,1.108 0.892,2 2,2 h 12 c 1.108,0 2,-0.892 2,-2 v -8 c 0,-1.108 -0.892,-2 -2,-2 z m -1,2 h 2 v 2 h -2 z m 3,0 h 2 v 2 h -2 z m 3,0 h 2 v 2 h -2 z m 3,0 h 2 v 2 h -2 z m 3,0 h 2 v 2 h -2 z m -12,3 h 2 v 2 h -2 z m 3,0 h 2 v 2 h -2 z m 3,0 h 2 v 2 h -2 z m 4,0 h 3 v 1 h -2 v 3 h 2 v 1 h -3 z m -9,3 h 7 v 2 h -7 z"/>
 </g>
 <g id="input-caps-on">
  <rect style="opacity:0.001" width="32" height="32" x="32" y="0"/>
  <rect style="fill:#4f4f4f" width="28" height="20" x="34" y="6" rx="1.4" ry="1.4"/>
  <path style="opacity:0.075;fill:#ffffff" d="M 35.4004,6 C 34.6248,6 34,6.6248 34,7.4004 v 1 C 34,7.6248 34.6248,7 35.4004,7 h 25.2 c 0.775,0 1.4,0.6248 1.4,1.4004 v -1 C 62.0004,6.6248 61.3754,6 60.6004,6 Z"/>
  <path style="opacity:0.1" d="m 34,24.6 v 1 c 0,0.775 0.6248,1.4 1.4004,1.4 h 25.2 c 0.775,0 1.4,-0.625 1.4,-1.4 v -1 c 0,0.775 -0.625,1.4 -1.4,1.4 h -25.2 c -0.7752,0 -1.4,-0.625 -1.4,-1.4 z"/>
  <circle style="opacity:0.1" cx="37.5" cy="11.5" r="1.5"/>
  <circle style="opacity:0.1" cx="42.5" cy="11.5" r="1.5"/>
  <circle style="opacity:0.1" cx="47.5" cy="11.5" r="1.5"/>
  <circle style="opacity:0.1" cx="52.5" cy="11.5" r="1.5"/>
  <circle style="opacity:0.1" cx="57.5" cy="11.5" r="1.5"/>
  <circle style="opacity:0.1" cx="40.5" cy="17.5" r="1.5"/>
  <circle style="opacity:0.1" cx="45.5" cy="17.5" r="1.5"/>
  <circle style="opacity:0.1" cx="50.5" cy="17.5" r="1.5"/>
  <circle style="opacity:0.1" cx="55.5" cy="17.5" r="1.5"/>
  <rect style="opacity:0.1" width="20" height="3" x="38" y="22" rx=".75" ry=".75"/>
  <circle style="fill:#e4e4e4" cx="37.5" cy="10.5" r="1.5"/>
  <circle style="fill:#e4e4e4" cx="42.5" cy="10.5" r="1.5"/>
  <circle style="fill:#e4e4e4" cx="47.5" cy="10.5" r="1.5"/>
  <circle style="fill:#e4e4e4" cx="52.5" cy="10.5" r="1.5"/>
  <circle style="fill:#e4e4e4" cx="57.5" cy="10.5" r="1.5"/>
  <circle style="fill:#e4e4e4" cx="40.5" cy="16.5" r="1.5"/>
  <circle style="fill:#e4e4e4" cx="45.5" cy="16.5" r="1.5"/>
  <circle style="fill:#e4e4e4" cx="50.5" cy="16.5" r="1.5"/>
  <circle style="fill:#e4e4e4" cx="55.5" cy="16.5" r="1.5"/>
  <rect style="fill:#e4e4e4" width="20" height="3" x="38" y="21" rx=".75" ry=".75"/>
  <circle style="fill:#3399df" cx="56" cy="23" r="8"/>
  <path style="opacity:0.1" d="M 63.979,23.424 A 8,8 0 0 1 56,31 8,8 0 0 1 48.021,23.576 8,8 0 0 0 48,24 a 8,8 0 0 0 8,8 8,8 0 0 0 8,-8 8,8 0 0 0 -0.02148,-0.57617 z"/>
  <path style="fill:none;stroke:#ffffff;stroke-width:2;stroke-linecap:round;stroke-linejoin:round" d="m 58,27 h -4 v -8 h 4 v 0"/>
 </g>
 <g id="input-touchpad-on" transform="translate(0,95.999999)">
  <rect style="opacity:0.001" width="32" height="32" x="0" y="-32"/>
  <g transform="translate(0,-32)">
   <rect style="fill:#c4c4c4" width="26" height="26" x="-29" y="-29" rx="1.3" ry="1.3" transform="matrix(0,-1,-1,0,0,0)"/>
   <path style="opacity:0.1;fill:#dfdfdf" d="M 4.3008,3 C 3.5806,3 3,3.5806 3,4.3008 v 1 C 3,4.5806 3.5806,4 4.3008,4 h 23.398 c 0.72,0 1.301,0.5806 1.301,1.3008 v -1 C 28.9998,3.5806 28.4188,3 27.6988,3 Z"/>
   <g style="fill:#5d5d5d">
    <rect width="11" height="6" x="4" y="22" rx="1.222" ry="1.2"/>
    <rect width="11" height="6" x="17" y="22" rx="1.222" ry="1.2"/>
    <rect width="4" height="1" x="24" y="7"/>
    <rect width="4" height="1" x="24" y="9"/>
    <rect width="4" height="1" x="24" y="11"/>
    <rect width="4" height="1" x="24" y="13"/>
    <rect width="4" height="1" x="24" y="15"/>
    <rect width="4" height="1" x="24" y="17"/>
   </g>
   <path style="opacity:0.2" d="m 3,27.699 v 1 C 3,29.419 3.5806,30 4.3008,30 h 23.398 c 0.72,0 1.301,-0.581 1.301,-1.301 v -1 c 0,0.72 -0.581,1.301 -1.301,1.301 H 4.3008 c -0.7204,0 -1.301,-0.581 -1.301,-1.301 z"/>
  </g>
 </g>
 <g id="input-touchpad-off" transform="translate(0,64)">
  <rect style="opacity:0.001" width="32" height="32" x="0" y="-32"/>
  <g transform="translate(0,-32)">
   <rect style="fill:#c4c4c4" width="26" height="26" x="-29" y="-29" rx="1.3" ry="1.3" transform="matrix(0,-1,-1,0,0,0)"/>
   <path style="opacity:0.1;fill:#dfdfdf" d="M 4.3008,3 C 3.5806,3 3,3.5806 3,4.3008 v 1 C 3,4.5806 3.5806,4 4.3008,4 h 23.398 c 0.72,0 1.301,0.5806 1.301,1.3008 v -1 C 28.9998,3.5806 28.4188,3 27.6988,3 Z"/>
   <g style="fill:#5d5d5d">
    <rect width="11" height="6" x="4" y="22" rx="1.222" ry="1.2"/>
    <rect width="11" height="6" x="17" y="22" rx="1.222" ry="1.2"/>
    <rect width="4" height="1" x="24" y="7"/>
    <rect width="4" height="1" x="24" y="9"/>
    <rect width="4" height="1" x="24" y="11"/>
    <rect width="4" height="1" x="24" y="13"/>
    <rect width="4" height="1" x="24" y="15"/>
    <rect width="4" height="1" x="24" y="17"/>
   </g>
   <path style="opacity:0.2" d="m 3,27.699 v 1 C 3,29.419 3.5806,30 4.3008,30 h 23.398 c 0.72,0 1.301,-0.581 1.301,-1.301 v -1 c 0,0.72 -0.581,1.301 -1.301,1.301 H 4.3008 c -0.7204,0 -1.301,-0.581 -1.301,-1.301 z"/>
   <circle style="fill:#db3c30" cx="24" cy="24" r="7"/>
   <path style="opacity:0.2" d="M 30.977,24.459 A 7,7 0 0 1 24,31 7,7 0 0 1 17.023,24.541 7,7 0 0 0 17,25 a 7,7 0 0 0 7,7 7,7 0 0 0 7,-7 7,7 0 0 0 -0.02344,-0.54102 z"/>
   <g style="fill:#dfdfdf" transform="matrix(0.70711,-0.70711,0.70711,0.70711,-9.9411,24)">
    <rect style="fill:#ffffff" width="8" height="2" x="20" y="23"/>
    <rect style="fill:#ffffff" width="8" height="2" x="20" y="-25" transform="rotate(90)"/>
   </g>
  </g>
 </g>
 <g id="22-22-input-touchpad-on" transform="translate(-393.0002,239.00336)">
  <path style="opacity:0.001" d="m 425.0002,-165.00336 h 22 c 0,0 0,0 0,0 v 22 c 0,0 0,0 0,0 h -22 c 0,0 0,0 0,0 v -22 c 0,0 0,0 0,0 z"/>
  <path style="fill:#dfdfdf" d="m 428.19942,-162.00336 c -1.2,0 -1.19922,1.23047 -1.19922,1.23047 v 13.53906 c 0,0 -7.8e-4,1.23047 1.19922,1.23047 h 15.60156 c 0,0 1.19922,3e-4 1.19922,-1.23047 v -13.53906 c 0,-1.23077 -1.19922,-1.23047 -1.19922,-1.23047 z m 12.80078,2 h 2 v 1 h -2 z m 0,2 h 2 v 1 h -2 z m 0,2 h 2 v 1 h -2 z m 0,2 h 2 v 1 h -2 z m -12,3 h 6 v 3 h -6 z m 8,0 h 6 v 3 h -6 z"/>
 </g>
 <g id="22-22-input-touchpad-off" transform="translate(-415.0002,207.00336)">
  <path style="opacity:0.001" d="m 447.0002,-165.00336 h 22 c 0,0 0,0 0,0 v 22 c 0,0 0,0 0,0 h -22 c 0,0 0,0 0,0 v -22 c 0,0 0,0 0,0 z"/>
  <path id="222" style="opacity:0.35;fill:#dfdfdf" d="m 450.19942,-162.00336 c -1.2,0 -1.19922,1.23047 -1.19922,1.23047 v 13.53906 c 0,0 -7.8e-4,1.23047 1.19922,1.23047 h 15.60156 c 0,0 1.19922,3e-4 1.19922,-1.23047 v -13.53906 c 0,-1.23077 -1.19922,-1.23047 -1.19922,-1.23047 z m 12.80078,2 h 2 v 1 h -2 z m 0,2 h 2 v 1 h -2 z m 0,2 h 2 v 1 h -2 z m 0,2 h 2 v 1 h -2 z m -12,3 h 6 v 3 h -6 z m 8,0 h 6 v 3 h -6 z"/>
 </g>
 <g id="input-num-on" transform="translate(64)">
  <rect style="opacity:0.001" width="32" height="32" x="0" y="0"/>
  <g transform="translate(0,1)">
   <rect style="fill:#4f4f4f" width="28" height="20" x="2" y="5" rx="1.4" ry="1.4"/>
   <path style="opacity:0.075;fill:#ffffff" d="M 3.4004,5 C 2.6248,5 2,5.6248 2,6.4004 v 1 C 2,6.6248 2.6248,6 3.4004,6 h 25.2 c 0.775,0 1.4,0.6248 1.4,1.4004 v -1 C 30.0004,5.6248 29.3754,5 28.6004,5 Z"/>
   <path style="opacity:0.1" d="m 2,23.6 v 1 C 2,25.375 2.6248,26 3.4004,26 h 25.2 c 0.775,0 1.4,-0.625 1.4,-1.4 v -1 c 0,0.775 -0.625,1.4 -1.4,1.4 h -25.2 c -0.7752,0 -1.4,-0.625 -1.4,-1.4 z"/>
   <circle style="opacity:0.1" cx="5.5" cy="10.5" r="1.5"/>
   <circle style="opacity:0.1" cx="10.5" cy="10.5" r="1.5"/>
   <circle style="opacity:0.1" cx="15.5" cy="10.5" r="1.5"/>
   <circle style="opacity:0.1" cx="20.5" cy="10.5" r="1.5"/>
   <circle style="opacity:0.1" cx="25.5" cy="10.5" r="1.5"/>
   <circle style="opacity:0.1" cx="8.5" cy="16.5" r="1.5"/>
   <circle style="opacity:0.1" cx="13.5" cy="16.5" r="1.5"/>
   <circle style="opacity:0.1" cx="18.5" cy="16.5" r="1.5"/>
   <circle style="opacity:0.1" cx="23.5" cy="16.5" r="1.5"/>
   <rect style="opacity:0.1" width="20" height="3" x="6" y="21" rx=".75" ry=".75"/>
   <circle style="fill:#e4e4e4" cx="5.5" cy="9.5" r="1.5"/>
   <circle style="fill:#e4e4e4" cx="10.5" cy="9.5" r="1.5"/>
   <circle style="fill:#e4e4e4" cx="15.5" cy="9.5" r="1.5"/>
   <circle style="fill:#e4e4e4" cx="20.5" cy="9.5" r="1.5"/>
   <circle style="fill:#e4e4e4" cx="25.5" cy="9.5" r="1.5"/>
   <circle style="fill:#e4e4e4" cx="8.5" cy="15.5" r="1.5"/>
   <circle style="fill:#e4e4e4" cx="13.5" cy="15.5" r="1.5"/>
   <circle style="fill:#e4e4e4" cx="18.5" cy="15.5" r="1.5"/>
   <circle style="fill:#e4e4e4" cx="23.5" cy="15.5" r="1.5"/>
   <rect style="fill:#e4e4e4" width="20" height="3" x="6" y="20" rx=".75" ry=".75"/>
   <circle style="fill:#1fc238" cx="24" cy="22" r="8"/>
   <path style="opacity:0.1" d="M 31.979,22.424 A 8,8 0 0 1 24,30 8,8 0 0 1 16.021,22.576 8,8 0 0 0 16,23 a 8,8 0 0 0 8,8 8,8 0 0 0 8,-8 8,8 0 0 0 -0.02148,-0.57617 z"/>
   <path style="fill:#ffffff" d="m 25,17 v 2 5 h 1.9999 v 2 h -5.9997 v -2 h 1.9999 V 19.5 L 21.0002,20 v -2 z"/>
  </g>
 </g>
 <g id="22-22-input-num-on" transform="translate(32,-32)">
  <rect style="opacity:0.001" width="22" height="22" x="32" y="10"/>
  <path style="fill:#dfdfdf" d="m 37,15 c -1.108,0 -2,0.892 -2,2 v 8 c 0,1.108 0.892,2 2,2 h 12 c 1.108,0 2,-0.892 2,-2 v -8 c 0,-1.108 -0.892,-2 -2,-2 z m -1,2 h 2 v 2 h -2 z m 3,0 h 2 v 2 h -2 z m 3,0 h 2 v 2 h -2 z m 3,0 h 2 v 2 h -2 z m 3,0 h 2 v 2 h -2 z m -12,3 h 2 v 2 h -2 z m 3,0 h 2 v 2 h -2 z m 3,0 h 2 v 2 h -2 z m 5,0 h 1 v 4 h 1 v 1 h -1 -1 -1 v -1 h 1 v -2 h -1 v -1 h 1 z m -10,3 h 7 v 2 h -7 z"/>
 </g>
 <g id="input-keyboard-virtual-on" transform="translate(19,-47)">
  <rect style="opacity:0.001" width="32" height="32" x="109" y="47"/>
  <g>
   <rect style="fill:#3399df" width="28" height="20" x="109" y="53" rx="1.4" ry="1.4"/>
   <circle style="opacity:0.2;fill:#ffffff" cx="130.5" cy="63.5" r="3.5"/>
   <circle style="opacity:0.2;fill:#ffffff" cx="130.5" cy="63.5" r="2.5"/>
   <path style="opacity:0.2;fill:#ffffff" d="M 110.4004,53 C 109.6248,53 109,53.6248 109,54.4004 v 1 C 109,54.6248 109.6248,54 110.4004,54 h 25.2 c 0.775,0 1.4,0.6248 1.4,1.4004 v -1 c 0,-0.7756 -0.625,-1.4004 -1.4,-1.4004 z"/>
   <path style="opacity:0.2" d="m 109,71.6 v 1 c 0,0.775 0.6248,1.4 1.4004,1.4 h 25.2 c 0.775,0 1.4,-0.625 1.4,-1.4 v -1 c 0,0.775 -0.625,1.4 -1.4,1.4 h -25.2 c -0.7752,0 -1.4,-0.625 -1.4,-1.4 z"/>
   <path style="opacity:0.4" d="m 112.5,56 a 1.5,1.5 0 0 0 -1.5,1.5 1.5,1.5 0 0 0 1.5,1.5 1.5,1.5 0 0 0 1.5,-1.5 1.5,1.5 0 0 0 -1.5,-1.5 z m 5,0 a 1.5,1.5 0 0 0 -1.5,1.5 1.5,1.5 0 0 0 1.5,1.5 1.5,1.5 0 0 0 1.5,-1.5 1.5,1.5 0 0 0 -1.5,-1.5 z m 5,0 a 1.5,1.5 0 0 0 -1.5,1.5 1.5,1.5 0 0 0 1.5,1.5 1.5,1.5 0 0 0 1.5,-1.5 1.5,1.5 0 0 0 -1.5,-1.5 z m 5,0 a 1.5,1.5 0 0 0 -1.5,1.5 1.5,1.5 0 0 0 1.5,1.5 1.5,1.5 0 0 0 1.5,-1.5 1.5,1.5 0 0 0 -1.5,-1.5 z m 5,0 a 1.5,1.5 0 0 0 -1.5,1.5 1.5,1.5 0 0 0 1.5,1.5 1.5,1.5 0 0 0 1.5,-1.5 1.5,1.5 0 0 0 -1.5,-1.5 z m -17,6 a 1.5,1.5 0 0 0 -1.5,1.5 1.5,1.5 0 0 0 1.5,1.5 1.5,1.5 0 0 0 1.5,-1.5 1.5,1.5 0 0 0 -1.5,-1.5 z m 5,0 a 1.5,1.5 0 0 0 -1.5,1.5 1.5,1.5 0 0 0 1.5,1.5 1.5,1.5 0 0 0 1.5,-1.5 1.5,1.5 0 0 0 -1.5,-1.5 z m 5,0 a 1.5,1.5 0 0 0 -1.5,1.5 1.5,1.5 0 0 0 1.5,1.5 1.5,1.5 0 0 0 1.5,-1.5 1.5,1.5 0 0 0 -1.5,-1.5 z m 5,0 a 1.5,1.5 0 0 0 -1.5,1.5 1.5,1.5 0 0 0 1.5,1.5 1.5,1.5 0 0 0 1.5,-1.5 1.5,1.5 0 0 0 -1.5,-1.5 z m -16.75,6 c -0.4155,0 -0.75,0.3345 -0.75,0.75 v 1.5 c 0,0.4155 0.3345,0.75 0.75,0.75 h 18.5 c 0.4155,0 0.75,-0.3345 0.75,-0.75 v -1.5 C 133,68.3345 132.6655,68 132.25,68 Z"/>
   <path style="opacity:0.2" d="m 130.47847,63.000396 c -1.50068,0 -1.50123,0.999903 -1.50457,2 -0.0104,0.617929 -0.008,1.907833 0.004,3.810547 0.0186,3.041575 0.0129,3.99615 -0.0234,4.126953 -1.03682,-0.109281 -2.60502,-0.528244 -3.30666,-1.083455 -0.45859,-0.363804 -0.91365,-0.69731 -1.01022,-0.740234 -0.40259,-0.178945 -0.9738,-0.06626 -1.30136,0.257812 -0.2265,0.224083 -0.31028,0.423849 -0.33023,0.783203 -0.0152,0.274612 -0.006,0.339564 0.0782,0.521485 0.053,0.114607 0.14918,0.268452 0.21299,0.341797 0.0638,0.07335 0.93687,1.205649 1.94032,2.517578 1.85835,2.42964 3.70724,3.330672 4.02573,3.421345 0.19472,0.05553 10.23854,0.0573 10.4402,0.002 0.0916,-0.02514 0.22391,-0.109415 0.3185,-0.203125 0.13255,-0.131317 0.18232,-0.227341 0.28528,-0.544921 0.2948,-0.909259 0.58884,-2.292162 0.67218,-3.060547 0.0363,-0.892812 0.017,-0.926771 0,-1.650391 -3.2e-4,-0.01364 -0.003,-0.02555 -0.004,-0.03906 0.001,-0.64306 0.005,-1.186604 0,-1.460938 0.003,-1.000095 0.005,-2 -1.49285,-2 -1.35172,0 -1.47741,0.819191 -1.49286,1.712891 -0.002,0.02404 -0.009,0.04812 -0.01,0.07227 5.3e-4,-0.24172 0.003,-0.63772 0,-0.785156 0.003,-1.000095 0.003,-2 -1.49481,-2 -1.34275,0 -1.47591,0.808614 -1.49285,1.695312 -0.004,0.0021 -0.008,0.0036 -0.0117,0.0059 -2e-5,-0.0052 -0.002,-0.05373 -0.002,-0.06445 1.2e-4,-0.179803 0.002,-0.517156 0,-0.636719 0.003,-1.000095 0.003,-2 -1.49481,-2 -1.13856,0 -1.41196,0.578703 -1.47917,1.294922 -0.002,3.65e-4 -0.0252,0.0058 -0.0254,0.0059 -0.0213,0.0077 -0.004,-1.215075 -0.004,-2.53125 0,-0.901566 0.006,-1.437249 0,-1.769531 0.003,-1.000095 0.004,-2 -1.49676,-2 z"/>
   <path style="fill:#e4e4e4" d="m 130.47847,62.000396 c -1.50068,0 -1.50123,0.999903 -1.50457,2 -0.0104,0.617929 -0.008,1.907833 0.004,3.810547 0.0186,3.041575 0.0129,3.99615 -0.0234,4.126953 -1.03682,-0.109281 -2.60502,-0.528244 -3.30666,-1.083455 -0.45859,-0.363804 -0.91365,-0.69731 -1.01022,-0.740234 -0.40259,-0.178945 -0.9738,-0.06626 -1.30136,0.257812 -0.2265,0.224083 -0.31028,0.423849 -0.33023,0.783203 -0.0152,0.274612 -0.006,0.339564 0.0782,0.521485 0.053,0.114607 0.14918,0.268452 0.21299,0.341797 0.0638,0.07335 0.93687,1.205649 1.94032,2.517578 1.85835,2.42964 3.70724,3.330672 4.02573,3.421345 0.19472,0.05553 10.23854,0.0573 10.4402,0.002 0.0916,-0.02514 0.22391,-0.109415 0.3185,-0.203125 0.13255,-0.131317 0.18232,-0.227341 0.28528,-0.544921 0.2948,-0.909259 0.58884,-2.292162 0.67218,-3.060547 0.0363,-0.892812 0.017,-0.926771 0,-1.650391 -3.2e-4,-0.01364 -0.003,-0.02555 -0.004,-0.03906 0.001,-0.64306 0.005,-1.186604 0,-1.460938 0.003,-1.000095 0.005,-2 -1.49285,-2 -1.35172,0 -1.47741,0.819191 -1.49286,1.712891 -0.002,0.02404 -0.009,0.04812 -0.01,0.07227 5.3e-4,-0.24172 0.003,-0.63772 0,-0.785156 0.003,-1.000095 0.003,-2 -1.49481,-2 -1.34275,0 -1.47591,0.808614 -1.49285,1.695312 -0.004,0.0021 -0.008,0.0036 -0.0117,0.0059 -2e-5,-0.0052 -0.002,-0.05373 -0.002,-0.06445 1.2e-4,-0.179803 0.002,-0.517156 0,-0.636719 0.003,-1.000095 0.003,-2 -1.49481,-2 -1.13856,0 -1.41196,0.578703 -1.47917,1.294922 -0.002,3.65e-4 -0.0252,0.0058 -0.0254,0.0059 -0.0213,0.0077 -0.004,-1.215075 -0.004,-2.53125 0,-0.901566 0.006,-1.437249 0,-1.769531 0.003,-1.000095 0.004,-2 -1.49676,-2 z"/>
  </g>
 </g>
 <g id="input-keyboard-virtual-off" transform="translate(41,-40)">
  <rect style="opacity:0.001" width="32" height="32" x="119" y="40"/>
  <g>
   <rect style="fill:#898989" width="28" height="20" x="119" y="46" rx="1.4" ry="1.4"/>
   <path style="opacity:0.2;fill:#ffffff" d="M 120.4004,46 C 119.6248,46 119,46.6248 119,47.4004 v 1 C 119,47.6248 119.6248,47 120.4004,47 h 25.2 c 0.775,0 1.4,0.6248 1.4,1.4004 v -1 c 0,-0.7756 -0.625,-1.4004 -1.4,-1.4004 z"/>
   <path style="opacity:0.2" d="m 119,64.6 v 1 c 0,0.775 0.6248,1.4 1.4004,1.4 h 25.2 c 0.775,0 1.4,-0.625 1.4,-1.4 v -1 c 0,0.775 -0.625,1.4 -1.4,1.4 h -25.2 c -0.7752,0 -1.4,-0.625 -1.4,-1.4 z"/>
   <path style="opacity:0.4" d="m 122.5,49 a 1.5,1.5 0 0 0 -1.5,1.5 1.5,1.5 0 0 0 1.5,1.5 1.5,1.5 0 0 0 1.5,-1.5 1.5,1.5 0 0 0 -1.5,-1.5 z m 5,0 a 1.5,1.5 0 0 0 -1.5,1.5 1.5,1.5 0 0 0 1.5,1.5 1.5,1.5 0 0 0 1.5,-1.5 1.5,1.5 0 0 0 -1.5,-1.5 z m 5,0 a 1.5,1.5 0 0 0 -1.5,1.5 1.5,1.5 0 0 0 1.5,1.5 1.5,1.5 0 0 0 1.5,-1.5 1.5,1.5 0 0 0 -1.5,-1.5 z m 5,0 a 1.5,1.5 0 0 0 -1.5,1.5 1.5,1.5 0 0 0 1.5,1.5 1.5,1.5 0 0 0 1.5,-1.5 1.5,1.5 0 0 0 -1.5,-1.5 z m 5,0 a 1.5,1.5 0 0 0 -1.5,1.5 1.5,1.5 0 0 0 1.5,1.5 1.5,1.5 0 0 0 1.5,-1.5 1.5,1.5 0 0 0 -1.5,-1.5 z m -17,6 a 1.5,1.5 0 0 0 -1.5,1.5 1.5,1.5 0 0 0 1.5,1.5 1.5,1.5 0 0 0 1.5,-1.5 1.5,1.5 0 0 0 -1.5,-1.5 z m 5,0 a 1.5,1.5 0 0 0 -1.5,1.5 1.5,1.5 0 0 0 1.5,1.5 1.5,1.5 0 0 0 1.5,-1.5 1.5,1.5 0 0 0 -1.5,-1.5 z m 5,0 a 1.5,1.5 0 0 0 -1.5,1.5 1.5,1.5 0 0 0 1.5,1.5 1.5,1.5 0 0 0 1.5,-1.5 1.5,1.5 0 0 0 -1.5,-1.5 z m 5,0 a 1.5,1.5 0 0 0 -1.5,1.5 1.5,1.5 0 0 0 1.5,1.5 1.5,1.5 0 0 0 1.5,-1.5 1.5,1.5 0 0 0 -1.5,-1.5 z m -16.75,6 c -0.4155,0 -0.75,0.3345 -0.75,0.75 v 1.5 c 0,0.4155 0.3345,0.75 0.75,0.75 h 18.5 c 0.4155,0 0.75,-0.3345 0.75,-0.75 v -1.5 C 143,61.3345 142.6655,61 142.25,61 Z"/>
   <g transform="translate(91,36)">
    <g transform="translate(20,-5)">
     <circle style="opacity:0.2" cx="32" cy="33" r="8"/>
     <circle style="fill:#f34235" cx="32" cy="32" r="8"/>
    </g>
    <path style="fill:none;stroke:#ffffff;stroke-width:2;stroke-linecap:round;stroke-linejoin:round" d="m 55,24 -6,6 v 0 0 m 0,-6 6,6"/>
   </g>
  </g>
 </g>
 <g id="22-22-input-keyboard-virtual-on">
  <rect style="opacity:0.001" width="22" height="22" x="128" y="-22"/>
  <path style="fill:#dfdfdf" d="M 133 -17 C 131.892 -17 131 -16.108 131 -15 L 131 -7 C 131 -5.892 131.892 -5 133 -5 L 141.77148 -5 C 141.58746 -5.2205141 141.40507 -5.4364742 141.20898 -5.6933594 C 140.893 -6.0680237 140.62994 -6.3667681 140.41602 -6.6679688 C 140.34544 -6.7673366 140.27166 -6.8796791 140.20312 -7 L 140 -7 L 139 -7 L 133 -7 L 133 -9 L 139 -9 L 140 -9 L 141 -9 L 141 -8.9628906 C 141.21075 -9.0052653 141.38695 -9.0047583 141.52539 -8.9882812 C 141.88718 -8.9452202 142.15713 -8.844997 142.27344 -8.8125 C 142.63988 -8.7101152 142.77422 -8.5191844 143.00195 -8.34375 C 143.00095 -8.4682183 143.00088 -8.473102 143 -8.6171875 C 142.9961 -9.2211831 142.99945 -9.5370125 143 -10 L 141 -10 L 141 -12 L 143 -12 L 143 -11.099609 C 143 -11.299609 142.96771 -11.604775 143.12109 -12.035156 C 143.19778 -12.250347 143.34665 -12.515414 143.60742 -12.712891 C 143.8682 -12.91037 144.20814 -13 144.5 -13 L 144 -13 L 144 -15 L 146 -15 L 146 -13 L 144.5 -13 C 144.79186 -13 145.13182 -12.910378 145.39258 -12.712891 C 145.65335 -12.515411 145.80221 -12.250345 145.87891 -12.035156 C 146.03225 -11.604779 145.99805 -11.299609 145.99805 -11.099609 C 145.999 -11.049096 145.99774 -10.911674 145.99805 -10.839844 C 146.13256 -10.793131 146.27588 -10.799791 146.39062 -10.712891 C 146.65142 -10.515414 146.80025 -10.250347 146.87695 -10.035156 C 146.90345 -9.9596687 146.88184 -9.9390037 146.89844 -9.8710938 C 146.93222 -9.8618573 146.96597 -9.8546444 147 -9.8476562 L 147 -15 C 147 -16.108 146.108 -17 145 -17 L 133 -17 z M 132 -15 L 134 -15 L 134 -13 L 132 -13 L 132 -15 z M 135 -15 L 137 -15 L 137 -13 L 135 -13 L 135 -15 z M 138 -15 L 140 -15 L 140 -13 L 138 -13 L 138 -15 z M 141 -15 L 143 -15 L 143 -13 L 141 -13 L 141 -15 z M 132 -12 L 134 -12 L 134 -10 L 132 -10 L 132 -12 z M 135 -12 L 137 -12 L 137 -10 L 135 -10 L 135 -12 z M 138 -12 L 140 -12 L 140 -10 L 138 -10 L 138 -12 z M 144.5 -12 C 144.00079 -12 144 -11.499609 144 -11.099609 C 143.994 -10.746507 143.993 -9.7103129 144 -8.6230469 C 144.0106 -6.8850049 144.0208 -6.637245 144 -6.5625 C 143.113 -6.764093 142.76622 -7.6366184 142.00391 -7.8496094 C 141.68322 -7.9392094 141.06651 -8.1592446 141.00586 -7.8222656 C 140.95106 -7.5176066 141.32995 -7.0998371 142.00391 -6.2988281 C 143.06366 -4.9104631 143.98049 -4.0752515 144.16211 -4.0234375 C 144.27316 -3.9917075 147.15062 -3.9918075 147.26562 -4.0234375 C 147.31782 -4.0378075 147.39136 -4.0851269 147.44531 -4.1386719 C 147.52091 -4.2137119 147.5487 -4.2677437 147.60742 -4.4492188 C 147.77553 -4.9687937 147.94662 -5.560924 147.99414 -6 C 148.00584 -6.287465 147.99714 -6.5282775 147.99414 -6.7890625 C 147.99414 -7.3042445 147.99814 -6.9097344 147.99414 -7.0996094 C 147.99414 -7.4996094 147.99334 -8 147.49414 -8 C 146.99493 -8 146.99609 -7.4996094 146.99609 -7.0996094 C 146.99695 -7.5036964 146.99909 -7.9547264 146.99609 -8.0996094 C 146.99609 -8.4996094 146.99529 -9 146.49609 -9 C 145.99689 -9 145.99805 -8.4996094 145.99805 -8.0996094 C 145.99891 -8.5036944 146.00105 -8.9547264 145.99805 -9.0996094 C 145.99805 -9.4996094 145.99726 -10 145.49805 -10 C 144.99885 -10 144.99805 -9.4996094 144.99805 -9.0996094 C 144.99905 -9.3195564 144.99805 -9.3742325 144.99805 -9.7890625 C 144.99805 -10.304244 145.00205 -10.909734 144.99805 -11.099609 C 144.99805 -11.499609 144.9992 -12 144.5 -12 z"/>
 </g>
 <g id="22-22-input-keyboard-virtual-off">
  <rect style="opacity:0.001" width="22" height="22" x="160" y="-22"/>
  <path style="fill:#dfdfdf;opacity:0.35" d="M 165 -17 C 163.892 -17 163 -16.108 163 -15 L 163 -7 C 163 -5.892 163.892 -5 165 -5 L 172.00781 -5 A 5 5 0 0 1 171.10547 -7 L 171 -7 L 165 -7 L 165 -9 L 171 -9 L 171.10156 -9 A 5 5 0 0 1 171.41992 -10 L 170 -10 L 170 -12 L 172 -12 L 172 -10.990234 A 5 5 0 0 1 173 -11.992188 L 173 -12 L 173.00977 -12 A 5 5 0 0 1 176 -13 L 176 -15 L 178 -15 L 178 -13 L 176 -13 A 5 5 0 0 1 179 -11.992188 L 179 -15 C 179 -16.108 178.108 -17 177 -17 L 165 -17 z M 164 -15 L 166 -15 L 166 -13 L 164 -13 L 164 -15 z M 167 -15 L 169 -15 L 169 -13 L 167 -13 L 167 -15 z M 170 -15 L 172 -15 L 172 -13 L 170 -13 L 170 -15 z M 173 -15 L 175 -15 L 175 -13 L 173 -13 L 173 -15 z M 164 -12 L 166 -12 L 166 -10 L 164 -10 L 164 -12 z M 167 -12 L 169 -12 L 169 -10 L 167 -10 L 167 -12 z"/>
  <path style="fill:#dfdfdf" d="M 176 -12 C 173.7909 -12 172 -10.2091 172 -8 C 172 -5.7909 173.7909 -4 176 -4 C 178.2091 -4 180 -5.7909 180 -8 C 180 -10.2091 178.2091 -12 176 -12 z M 174.35742 -10.367188 L 174.35352 -10.353516 L 176 -8.7070312 L 177.64648 -10.353516 L 178.35352 -9.6464844 L 176.70703 -8 L 178.35352 -6.3535156 L 177.64648 -5.6464844 L 176.00391 -7.3066406 L 174.35742 -5.6601562 L 173.65039 -6.3671875 L 175.29688 -8.0136719 L 173.65039 -9.6601562 L 174.35742 -10.367188 z"/>
 </g>
</svg>
