<svg xmlns="http://www.w3.org/2000/svg" width="32" height="32" version="1.1">
 <g id="jami">
  <rect style="opacity:0.001" width="32" height="32" x="0" y="0"/>
  <path d="M 5.0311759,8.257607 3.0525978,11.732881 C 1.7335447,14.04973 25.649753,28.059191 26.968801,25.742347 L 28.947397,22.267084 C 30.266517,19.950274 6.3502421,5.9407723 5.0311881,8.2576245" style="opacity:0.2"/>
  <path d="M 5.0311759,7.257622 3.0525978,10.732896 C 1.7335447,13.049745 25.649753,27.059206 26.968801,24.742362 L 28.947397,21.267099 C 30.266517,18.950289 6.3502421,4.9407873 5.0311881,7.2576395" style="fill:#009688"/>
  <path d="M 5.53125,7.0078125 C 5.2839462,7.0319067 5.1136909,7.1130092 5.03125,7.2578125 L 3.0527344,10.732422 C 2.9499722,10.912918 3.0163218,11.171288 3.1972656,11.480469 L 5.03125,8.2578125 C 6.2475418,6.121457 26.66113,17.860096 28.802734,21.519531 L 28.947266,21.267578 C 30.183941,19.095569 9.2408067,6.6463994 5.53125,7.0078125 Z" style="opacity:0.1;fill:#ffffff"/>
  <path d="M 26.968824,8.257607 28.947402,11.732881 C 30.266455,14.04973 6.3502469,28.059191 5.0311989,25.742347 L 3.0526029,22.267084 C 1.7334829,19.950274 25.649758,5.9407723 26.968812,8.2576245" style="opacity:0.2"/>
  <path d="M 26.968824,7.257622 28.947402,10.732896 C 30.266455,13.049745 6.3502469,27.059206 5.0311989,24.742362 L 3.0526029,21.267099 C 1.7334829,18.950289 25.649758,4.9407873 26.968812,7.2576395" style="fill:#601ab8"/>
  <path d="M 26.46875,7.0078125 C 22.759193,6.6463994 1.8160594,19.095569 3.0527344,21.267578 L 3.1972656,21.519531 C 5.3388703,17.860096 25.752458,6.121457 26.96875,8.2578125 L 28.802734,11.480469 C 28.983678,11.171288 29.050028,10.912918 28.947266,10.732422 L 26.96875,7.2578125 C 26.886309,7.1130092 26.716054,7.0319067 26.46875,7.0078125 Z" style="opacity:0.1;fill:#ffffff"/>
  <path d="M 17.970836,3.0091651 13.971074,2.9999851 C 11.304564,2.9938651 11.362662,30.98468 14.029164,30.990799 L 18.028927,30.999999 C 20.695436,31.006199 20.637339,3.0153045 17.970827,3.0091846" style="opacity:0.2"/>
  <path d="M 17.970836,2.0091801 13.971074,2.0000001 C 11.304564,1.9938801 11.362662,29.984695 14.029164,29.990814 L 18.028927,30.000014 C 20.695436,30.006214 20.637339,2.0153195 17.970827,2.0091996" style="fill:#2176f3"/>
  <path d="M 13.970703,2 C 12.611521,1.9968805 11.964628,9.2653365 12.005859,16.396484 12.028604,9.6034023 12.67537,2.997027 13.970703,3 L 17.970703,3.0097656 C 19.278032,3.0127661 19.954481,9.7444198 19.994141,16.603516 20.018216,9.4126774 19.341881,2.0129126 17.970703,2.0097656 Z" style="opacity:0.2;fill:#ffffff"/>
 </g>
 <g id="22-22-jami">
  <rect style="opacity:0.001" id="rect2" width="22" height="22" x="32" y="10"/>
  <path d="M 36.533636,16.114499 35.523618,17.856218 C 34.850273,19.017365 48.79306,27.046717 49.466404,25.885572 L 50.476382,24.14383 C 51.14973,22.982685 37.206941,14.953331 36.533596,16.114475" style="opacity:0.6;fill:#dfdfdf"/>
  <path d="M 49.466364,16.114499 50.476382,17.856218 C 51.149727,19.017365 37.20694,27.046717 36.533596,25.885572 L 35.523618,24.14383 C 34.85027,22.982685 48.793059,14.953331 49.466404,16.114475" style="opacity:0.3;fill:#dfdfdf"/>
  <path d="M 43.985417,13.00527 41.985536,13.000025 C 40.652281,12.996529 40.68133,28.991279 42.014582,28.994775 L 44.014464,28.999975 C 45.347719,29.003475 45.318671,13.008721 43.985418,13.005224" style="fill:#dfdfdf"/>
 </g>
</svg>
