<svg xmlns="http://www.w3.org/2000/svg" width="32" height="32" version="1">
 <g id="22-22-juk" transform="translate(27,5)">
  <rect style="opacity:0.001" width="22" height="22" x="5" y="5"/>
  <path style="fill:#dfdfdf" d="m 14.191406,8 c -0.0089,-9.76e-5 -0.01649,0.0011 -0.02539,0.00195 -0.1641,0.013032 -0.275283,0.171679 -0.230469,0.3300781 0.917986,3.2447639 2.69527,9.4768659 2.806641,9.8671879 A 3.5,3 0 0 0 15.5,18 3.5,3 0 0 0 12,21 3.5,3 0 0 0 15.5,24 3.5,3 0 0 0 19,21 3.5,3 0 0 0 18.96875,20.619141 c -0.0011,-0.02355 0.01005,-0.04325 0.002,-0.06836 0,0 -1.245195,-4.880804 -2.167969,-7.972656 0.65389,0.274369 1.106603,0.424401 1.751954,0.712891 0.82956,0.370839 1.479019,0.834923 2,2.558593 0.08717,0.281979 0.50139,0.22472 0.509765,-0.07031 6.87e-4,-0.03324 -0.01205,-0.04732 -0.01172,-0.08008 0,0 0,-0.002 0,-0.002 0.01794,-1.877543 -0.37648,-2.818425 -1.1875,-3.527344 -0.825536,-0.72156 -1.893319,-1.050683 -2.941406,-1.564453 C 15.951335,10.128756 15.149694,9.1009524 14.394531,8.1035156 14.346711,8.0399476 14.270926,8.002148 14.191406,8 Z"/>
 </g>
 <g id="juk">
  <rect style="opacity:0.001" width="32" height="32" x="0" y="0"/>
  <circle style="opacity:0.2" cx="16" cy="16.5" r="14"/>
  <circle style="fill:#666f7f" cx="16" cy="15.5" r="14"/>
  <path style="opacity:0.2" d="m 13.365234,6.5 c -0.01118,-1.217e-4 -0.02207,9.258e-4 -0.0332,0.00195 -0.205125,0.016294 -0.343127,0.2160636 -0.287109,0.4140625 1.183164,4.1820735 4.167969,12.7167965 4.167969,12.7167965 0.01346,0.04087 0.03438,0.07876 0.0625,0.111329 l 0.04102,0.05469 A 4.5,3.5 0 0 0 15.5,19.5 4.5,3.5 0 0 0 11,23 4.5,3.5 0 0 0 15.5,26.5 4.5,3.5 0 0 0 20,23 4.5,3.5 0 0 0 19.886719,22.240234 c -0.0028,-0.01809 0.008,-0.03204 0.002,-0.05078 0,0 -2.108252,-6.101982 -3.261719,-9.966797 0.817363,0.342961 1.384717,0.531965 2.191406,0.892578 1.036952,0.463549 1.848775,1.042678 2.5,3.197266 0.108959,0.352474 0.62625,0.280896 0.636719,-0.08789 8.59e-4,-0.04155 -0.01408,-0.05866 -0.01367,-0.09961 -3.58e-4,-0.0011 3.7e-4,-0.0027 0,-0.0039 0.02243,-2.346929 -0.470601,-3.522054 -1.484375,-4.408203 C 19.42511,10.810941 18.091359,10.398073 16.78125,9.755859 15.565634,9.1599678 14.561141,7.8776555 13.617188,6.6308594 13.557408,6.5513964 13.464634,6.5026848 13.365234,6.5 Z"/>
  <path style="fill:#48cc41" d="m 13.365844,5.5000191 c -0.01118,-1.217e-4 -0.02237,3.327e-4 -0.0335,0.00136 -0.205125,0.016294 -0.344135,0.2160846 -0.288117,0.4140835 1.183164,4.1820734 4.168646,12.7173284 4.168646,12.7173284 0.01346,0.04087 0.03486,0.07866 0.06298,0.111226 l 2.056081,2.759453 c 0.233378,0.266818 0.664911,0.02244 0.556131,-0.31494 0,0 -2.10689,-6.101569 -3.260357,-9.966384 0.817363,0.342961 1.384152,0.531877 2.190841,0.89249 1.036952,0.463549 1.848111,1.042907 2.499336,3.197495 0.108959,0.352474 0.627409,0.281677 0.637878,-0.08711 8.59e-4,-0.04155 -0.01515,-0.05956 -0.01474,-0.10051 h 0.0013 c -3.58e-4,-0.0011 -9.3e-4,-0.0015 -0.0013,-0.0027 0.02243,-2.346929 -0.469783,-3.522776 -1.483557,-4.408925 C 19.425545,9.810936 18.090401,9.3986455 16.780292,8.7564323 15.564676,8.1605407 14.561728,6.8768303 13.617774,5.6300342 13.557994,5.5505712 13.465244,5.5027039 13.365844,5.5000191 Z"/>
  <ellipse style="fill:#48cc41" cx="15.5" cy="22" rx="4.5" ry="3.5"/>
  <path style="opacity:0.2;fill:#ffffff" d="m 13.365234,5.5 c -0.01118,-1.217e-4 -0.02207,9.258e-4 -0.0332,0.00195 -0.205125,0.016294 -0.343127,0.2160636 -0.287109,0.4140625 0.04866,0.1720023 0.135029,0.4313564 0.189453,0.6171875 0.03133,-0.013297 0.06144,-0.028373 0.09766,-0.03125 0.01113,-0.00102 0.02202,-0.00207 0.0332,-0.00195 0.0994,0.00268 0.192174,0.051396 0.251954,0.1308594 0.943953,1.2467961 1.948446,2.5291088 3.164062,3.1249996 1.310109,0.642214 2.643811,1.055075 3.675781,1.957032 0.887053,0.77538 1.375547,1.77273 1.46875,3.582031 0.007,-0.02584 0.02845,-0.04052 0.0293,-0.07031 8.59e-4,-0.04155 -0.01408,-0.05866 -0.01367,-0.09961 -3.58e-4,-0.0011 3.7e-4,-0.0027 0,-0.0039 0.02243,-2.346929 -0.470601,-3.522054 -1.484375,-4.408203 C 19.42511,9.810941 18.091359,9.3980726 16.78125,8.7558594 15.565634,8.1599678 14.561141,6.8776555 13.617188,5.6308594 13.557408,5.5513964 13.464634,5.5026848 13.365234,5.5 Z m 3.261719,6.722656 c 1.153467,3.864815 3.261719,9.966797 3.261719,9.966797 0.006,0.01874 -0.0048,0.03269 -0.002,0.05078 a 4.5,3.5 0 0 1 0.06055,0.273438 A 4.5,3.5 0 0 0 20,22 4.5,3.5 0 0 0 19.886719,21.240234 c -0.0028,-0.01809 0.008,-0.03204 0.002,-0.05078 0,0 -1.72082,-4.998203 -2.904297,-8.820312 -0.122235,-0.0492 -0.223991,-0.0905 -0.357422,-0.146485 z M 15.5,18.5 A 4.5,3.5 0 0 0 11,22 4.5,3.5 0 0 0 11.052734,22.498047 4.5,3.5 0 0 1 15.5,19.5 a 4.5,3.5 0 0 1 1.816406,0.298828 l -0.04102,-0.05469 c -0.02812,-0.03257 -0.04904,-0.07046 -0.0625,-0.111329 0,0 -0.274835,-0.802166 -0.330079,-0.960937 A 4.5,3.5 0 0 0 15.5,18.5 Z"/>
  <path style="opacity:0.1;fill:#ffffff" d="M 16,1.5 A 14,14 0 0 0 2,15.5 14,14 0 0 0 2.0214844,16.085938 14,14 0 0 1 16,2.5 14,14 0 0 1 29.978516,15.914062 14,14 0 0 0 30,15.5 14,14 0 0 0 16,1.5 Z"/>
 </g>
</svg>
