<svg xmlns="http://www.w3.org/2000/svg" width="32" height="32" version="1.1">
 <g id="22-22-kaffeine" transform="translate(0,2)">
  <path style="opacity:0.001" d="m 32,8.0000001 h 22 c 0,0 0,0 0,0 V 30 c 0,0 0,0 0,0 H 32 c 0,0 0,0 0,0 V 8.0000001 c 0,0 0,0 0,0 z"/>
  <path style="fill:#dfdfdf" d="m 35.199219,11 c -0.0089,0 -0.01466,0.0038 -0.02344,0.0039 L 37.171875,13 H 40 L 38,11 Z M 40,13 38,15 h -2.828125 l 2,-2 H 34.34375 L 34,12.65625 V 25.769531 C 34,25.769531 33.999219,27 35.199219,27 H 50.800781 C 50.800781,27 52,27.000301 52,25.769531 V 13 h -0.685547 l -2,2 h -2.828125 l 2,-2 h 2.828125 L 49.3125,11 H 46.486328 L 48.433594,12.947266 48.380859,13 H 45.65625 l -2,2 h -2.828125 l 2,-2 h 2.828125 l -2,-2 H 40.828125 L 42.820312,12.992188 42.8125,13 Z m -5.125,-1.960938 c -0.180583,0.04094 -0.324002,0.115833 -0.4375,0.208985 0.114021,-0.09345 0.256541,-0.167617 0.4375,-0.208985 z m -0.4375,0.208985 c 0,0 -0.002,0 -0.002,0 -0.05685,0.04681 -0.105532,0.09812 -0.148438,0.152344 0.04308,-0.05377 0.09338,-0.105619 0.150391,-0.152344 z M 40.773438,16 a 0.80778854,0.87104999 0 0 1 0.46289,0.132812 l 2.691406,1.814454 2.69336,1.814453 a 0.80778854,0.87104999 0 0 1 0,1.476562 l -2.69336,1.814453 -2.691406,1.814454 A 0.80778854,0.87104999 0 0 1 40,24.128906 V 20.5 16.871094 A 0.80778854,0.87104999 0 0 1 40.773438,16 Z"/>
 </g>
 <g id="kaffeine">
  <rect style="opacity:0.001" width="32" height="32" x="0" y="0"/>
  <g>
   <rect style="fill:#54402a" width="24" height="28" x="-28" y="-30" rx="1.5" ry="1.5" transform="matrix(0,-1,-1,0,0,0)"/>
   <path style="opacity:0.2" d="m 12.51,14.999648 a 0.49999,0.55556 0 0 0 -0.51,0.556 v 8.8884 a 0.49999,0.55556 0 0 0 0.74798,0.4828 l 6.9993,-4.4439 a 0.49999,0.55556 0 0 0 0,-0.9656 l -6.9993,-4.4445 a 0.49999,0.55556 0 0 0 -0.23797,-0.073 z"/>
   <path style="fill:#d2d2d2" d="m 12.51,13.999648 a 0.49999,0.55556 0 0 0 -0.51,0.556 v 8.8884 a 0.49999,0.55556 0 0 0 0.74798,0.4828 l 6.9993,-4.4439 a 0.49999,0.55556 0 0 0 0,-0.9656 l -6.9993,-4.4445 a 0.49999,0.55556 0 0 0 -0.23797,-0.073 z"/>
   <path style="opacity:0.2" d="m 2,26.5 v 1 C 2,28.331 2.669,29 3.5,29 h 25 c 0.831,0 1.5,-0.669 1.5,-1.5 v -1 C 30,27.331 29.331,28 28.5,28 H 3.5 C 2.669,28 2,27.331 2,26.5 Z"/>
   <path style="opacity:0.2" d="M 2,10 V 5.5 C 2,4.669 2.669,4 3.5,4 h 25 C 29.331,4 30,4.669 30,5.5 V 10 Z"/>
   <path style="opacity:0.2;fill:#ffffff" d="m 2,6.5 v -1 C 2,4.669 2.669,4 3.5,4 h 25 C 29.331,4 30,4.669 30,5.5 v 1 C 30,5.669 29.331,5 28.5,5 H 3.5 C 2.669,5 2,5.669 2,6.5 Z"/>
   <path style="opacity:0.2" d="M 2,7 V 5.5 C 2,4.669 2.669,4 3.5,4 h 25 C 29.331,4 30,4.669 30,5.5 V 7 Z"/>
   <path style="fill:#d2d2d2" d="M 3.5,4 C 2.669,4 2,4.669 2,5.5 V 10 H 8 V 7 L 5,4 Z"/>
   <path style="fill:#bebebe" d="M 12,7 9,4 h 4 l 3,3 z"/>
   <path style="fill:#d2d2d2" d="m 12,7 -3,3 h 4 l 3,-3 z"/>
   <path style="fill:#bebebe" d="M 19,7 16,4 h 4 l 3,3 z"/>
   <path style="fill:#d2d2d2" d="m 19,7 -3,3 h 4 l 3,-3 z"/>
   <path style="fill:#bebebe" d="M 26,7 23,4 h 4 l 3,3 z"/>
   <path style="fill:#d2d2d2" d="m 26,7 -3,3 h 4 l 3,-3 z"/>
  </g>
 </g>
</svg>
