<svg xmlns="http://www.w3.org/2000/svg" width="32" height="32" version="1">
 <g id="kate">
  <rect style="opacity:0.001" width="32" height="32" x="0" y="0"/>
  <circle style="opacity:0.2" cx="16" cy="17" r="14"/>
  <circle style="fill:#e4e4e4" cx="16" cy="16" r="14"/>
  <path style="opacity:0.1" d="M 14.986328,7.0039062 C 13.5115,7.0522186 11.847758,7.5067741 10.230469,8.6660156 8.5514177,9.8695307 7.8144594,10.197616 7,10.597656 c 0.7203879,0.05439 5.000753,-0.544194 5.814453,1.916016 -2.9202125,1.003811 -4.0847525,2.591984 -3.736328,4.4375 0.013831,0.08563 0.029867,0.172259 0.050781,0.259766 0.00613,0.02343 0.012929,0.04681 0.019531,0.07031 0.067267,0.259344 0.1568278,0.523742 0.2890625,0.798828 0.1995631,0.41515 0.4305015,0.754152 0.6757815,1.0625 0.05725,0.07811 0.108326,0.155897 0.169922,0.234375 -0.0613,-0.07722 -0.109006,-0.152676 -0.164062,-0.228515 1.38331,1.733103 3.451631,2.035902 5.849609,3.623046 C 18.175548,24.232091 18.908074,24.975401 20.332031,27 20.03592,24.202639 18.47551,20.598254 17.835938,19.009766 l -0.04297,-0.132813 c 2.009135,1.386643 4.393463,1.910222 7.207031,2.109375 -4.466853,-3.146225 -5.314314,-3.593561 -7.871094,-5.75 -1.715323,0.08555 -1.527539,0.07151 -2.539062,0.128906 0.304131,0.501645 0.623204,0.957269 0.953125,1.375 0.656759,1.616938 0.548518,3.328139 -1.330078,3.714844 -2.278975,0.46912 -4.765373,-1.475768 -4.140625,-3.560547 0.678406,-2.263829 3.695537,-1.829959 6.767578,-2.222656 3.072041,-0.392698 5.880075,-3.373538 7.568359,-5.5800781 C 21.945911,9.923079 18.913593,10.700726 15.453125,11.710938 14.771887,10.35864 14.019183,7.9458731 18.603516,7.7734375 18.435849,7.6817972 18.253151,7.602717 18.0625,7.53125 c 0,0 -0.002,-0.00195 -0.002,-0.00195 C 17.240977,7.1964442 16.18249,6.9647225 14.986328,7.0039062 Z"/>
  <path style="fill:#3aaaff" d="M 12.835074,11.564375 C 12.066873,9.0409139 7.7256503,9.6532454 7.0000001,9.5984618 7.8144595,9.1984211 8.5458683,9.3463718 10.22492,8.1428567 c 3.234578,-2.318483 5.503922,-2.3492985 7.218849,-1.4285714 -4.688363,0.1763485 -2.635348,2.7624258 -1.944795,4.0940957 -0.87818,0.252398 -2.264454,0.633413 -2.6639,0.755994 z"/>
  <path style="fill:#008bff" d="m 24.407893,8.0919782 c -1.688284,2.2065398 -4.49523,5.1877298 -7.567271,5.5804278 -3.072041,0.392697 -6.089694,-0.04234 -6.7681,2.221489 -0.6247476,2.084779 1.861265,4.031235 4.14024,3.562115 2.43466,-0.50117 1.908859,-3.231633 0.577197,-5.091008 1.011523,-0.05739 0.216603,0.291977 1.931925,0.206426 l 1.114165,3.437488 c 0.639573,1.588488 2.199149,5.193723 2.49526,7.991084 -1.423957,-2.024599 -2.156352,-2.768635 -4.36315,-4.229242 -2.826763,-1.870943 -5.205077,-1.93428 -6.5301178,-4.690753 -1.3221799,-2.750516 0.7166128,-4.731819 3.8482568,-5.589861 4.47535,-1.22621 8.13171,-2.3887658 11.121595,-3.3981658 z"/>
  <path style="fill:#3aaaff" d="m 14.59021,14.365002 c 1.011523,-0.0574 0.823364,-0.04254 2.538687,-0.128087 2.55678,2.156439 3.40425,2.60286 7.871103,5.749085 -4.489787,-0.317801 -7.886881,-1.459625 -10.40979,-5.620998 z"/>
  <path style="fill:#00ccff" d="M 7.0000001,9.5984618 C 7.8144595,9.1984211 8.550497,8.8686718 10.229548,7.6651567 13.464127,5.3466737 16.888688,5.8523025 18.603616,6.7730295 13.915252,6.9493781 14.519335,7.8736939 14.502034,8.5983018 11.387072,7.9486196 10.47757,8.8325725 7.0000001,9.5984618 Z"/>
  <path style="fill:#008bff" d="m 18.603616,6.7730295 c -4.688364,0.1763486 -3.795195,2.7036816 -3.104642,4.0353515 -0.547105,0.157243 -0.7795,0.336379 -1.510868,0.527902 -2.950992,-5.2028156 2.206978,-5.8796701 4.61551,-4.5632535 z"/>
  <path style="fill:#008bff" d="m 18.603616,6.7730295 c -4.688364,0.1763486 -3.795195,2.7036816 -3.104642,4.0353515 -0.547105,0.157243 -0.7795,0.336379 -1.510868,0.527902 -2.950992,-5.2028156 2.206978,-5.8796701 4.61551,-4.5632535 z"/>
  <path style="fill:#00ccff" d="M 10.282269,18.376144 C 7.98804,15.45314 8.7003506,12.773951 13.192782,11.381934 17.626067,10.008242 21.418008,9.1013782 24.407893,8.0919782 16.339296,11.133926 6.1468746,13.166542 10.282269,18.376144 Z"/>
  <path style="opacity:0.2;fill:#ffffff" d="M 16,2 A 14,14 0 0 0 2,16 14,14 0 0 0 2.0214844,16.585938 14,14 0 0 1 16,3 14,14 0 0 1 29.978516,16.414062 14,14 0 0 0 30,16 14,14 0 0 0 16,2 Z"/>
 </g>
 <g id="22-22-kate" transform="translate(27,5)">
  <rect style="opacity:0.001" width="22" height="22" x="5" y="5"/>
  <path style="opacity:1;fill:#dfdfdf" d="m 15.211587,8.003428 c -1.147087,0.03865 -2.441108,0.602556 -3.698999,1.529931 -1.305928,0.962793 -1.8791179,1.225256 -2.512586,1.545282 0.5603014,0.04351 3.889472,-0.635617 4.52235,1.332512 -2.271275,0.803034 -3.7772105,2.073546 -3.506213,3.54993 0.01076,0.0685 0.02323,0.137804 0.0395,0.207808 0.0048,0.01874 0.01006,0.03745 0.01519,0.05625 0.05232,0.207472 0.121977,0.418985 0.224826,0.63905 0.155216,0.332113 0.334834,0.603309 0.525607,0.849984 0.0013,0.0018 0.0033,0.0029 0.0046,0.0047 1.075909,1.386455 2.885214,1.62869 4.750307,2.89838 1.716397,1.168462 2.28614,1.763099 3.393662,3.382745 -0.230309,-2.237844 -1.044391,-5.121295 -1.541836,-6.392061 l -0.03342,-0.106247 c 1.56266,1.109291 3.417136,1.327989 5.605466,1.487308 -3.474218,-2.51693 -4.133353,-2.674633 -6.121959,-4.399751 -1.33414,0.06844 -1.188086,0.0572 -1.974825,0.103123 0.236546,0.401307 0.484714,0.765799 0.741319,1.099978 0.510813,1.293524 0.426625,2.662458 -1.034504,2.971817 -1.772536,0.375288 -4.306583,-1.180591 -3.820668,-2.848381 0.527649,-1.811028 3.474488,-1.463939 5.863852,-1.77809 C 19.042621,13.823543 20.68689,11.765197 22,10 20.084884,10.665013 18.066474,10.960839 15.375,11.768992 14.845149,10.687175 14.459409,8.757001 18.025,8.619055 17.894593,8.545745 17.752495,8.482481 17.60421,8.425309 16.96652,8.158592 16.142922,7.972064 15.211633,8.003442 Z"/>
 </g>
</svg>
