<svg xmlns="http://www.w3.org/2000/svg" width="32" height="32" version="1.1">
 <g id="22-22-keyboard-layout" transform="translate(-452,-166)">
  <rect style="opacity:0.001" width="22" height="22" x="484" y="176"/>
  <path style="fill:#dfdfdf" d="m 495.00043,178.99664 c -4.41827,0 -8,3.58173 -8,8 0,4.41827 3.58173,8 8,8 4.41828,0 8,-3.58173 8,-8 0,-4.41827 -3.58172,-8 -8,-8 z m -0.57143,2.21429 c 0.0765,-0.008 0.17286,0.005 0.25,0 0.009,0.0366 -0.0556,0.1667 -0.14285,0.35714 -0.55527,1.21298 -0.58677,2.63355 -0.0714,3.39286 0.0933,0.13766 0.17857,0.26868 0.17857,0.28571 0,0.017 -0.10057,0.0357 -0.21429,0.0357 -0.26694,0 -0.51956,-0.1627 -1.03571,-0.57142 -0.22929,-0.18157 -0.52737,-0.33407 -0.64286,-0.35715 -0.18135,-0.0362 -0.22969,-0.0204 -0.46429,0.21428 -0.21828,0.21824 -0.28571,0.33592 -0.28571,0.53572 0,0.75764 0.89952,1.35993 2.57143,1.71428 2.27052,0.48122 2.83023,0.91328 2.89286,2.10714 0.0786,1.49712 -0.7184,2.62603 -2.46429,3.5 -0.20837,0.10435 -0.34114,0.14486 -0.42857,0.17858 -0.0387,-0.003 -0.0685,0.003 -0.10708,0 -0.0149,-0.0463 -0.0357,-0.15367 -0.0357,-0.35715 0,-0.79517 -0.31342,-1.61365 -0.7857,-2.07143 -0.12678,-0.12288 -0.48175,-0.38325 -0.78573,-0.57142 -0.30397,-0.18816 -0.61023,-0.40675 -0.67857,-0.5 -0.11326,-0.15476 -0.12268,-0.24983 -0.0357,-0.53572 0.15858,-0.52214 0.34733,-0.81295 0.71428,-1.14286 0.19237,-0.17296 0.38595,-0.318 0.42857,-0.32142 0.0426,-0.003 -0.24589,-0.0901 -0.67857,-0.17858 -0.43267,-0.0887 -1.06557,-0.27442 -1.39285,-0.39285 -0.59838,-0.21652 -1.40626,-0.67104 -1.7143,-1 -0.013,-0.0139 -0.0243,-0.0233 -0.0356,-0.0357 0.44129,-1.75778 1.67969,-3.19847 3.32141,-3.89286 0.34351,-0.14529 0.69763,-0.24497 1.07143,-0.32143 0.1862,-0.038 0.37918,-0.0519 0.57143,-0.0714 z m 5.35715,2.67857 c 0.13423,0.083 0.64104,1.17948 0.78571,1.71428 0.18679,0.69051 0.17327,1.88543 0,2.57143 -0.0659,0.26108 -0.15046,0.50532 -0.17857,0.53572 -0.0281,0.0304 -0.13007,-0.14461 -0.25,-0.35715 -0.11994,-0.2125 -0.50304,-0.66405 -0.82143,-1 -0.91902,-0.96975 -1.06353,-1.47609 -0.67857,-2.25 0.19414,-0.39027 1.03897,-1.2784 1.14286,-1.21428 z"/>
 </g>
 <g id="keyboard-layout">
  <rect style="opacity:0.001" width="32" height="32" x="0" y="0"/>
  <g transform="translate(-3.95e-4)">
   <rect style="fill:#02a8f3" width="28" height="28" x="-30" y="-30" rx="14" ry="14" transform="matrix(0,-1,-1,0,0,0)"/>
   <path style="opacity:0.2;fill:#ffffff" d="M 16,2 C 8.244,2 2,8.244 2,16 2,16.16884 2.01952,16.33264 2.02539,16.5 2.28949,8.9794 8.41319,3 16.00039,3 c 7.5872,0 13.711,5.9794 13.975,13.5 0.006,-0.16736 0.0254,-0.33116 0.0254,-0.5 0,-7.756 -6.244,-14 -14,-14 z"/>
   <path style="opacity:0.2" d="M 2.0254,16.5 C 2.0195,16.667 2,16.831 2,17 c 0,7.756 6.244,14 14,14 7.756,0 14,-6.244 14,-14 0,-0.16884 -0.01952,-0.33264 -0.02539,-0.5 -0.264,7.521 -6.388,13.5 -13.975,13.5 -7.5872,0 -13.711,-5.979 -13.975,-13.5 z"/>
   <path style="opacity:0.2" d="M 16,7.0000001 C 10.477143,7.0000001 5.9999998,11.477143 5.9999998,17 5.9999998,22.522857 10.477143,27 16,27 21.522857,27 26,22.522857 26,17 26,11.477143 21.522857,7.0000001 16,7.0000001 Z m -0.935547,1.9941407 c 0.108806,-0.01139 0.245686,0.0065 0.355469,0 0.01301,0.05204 -0.07708,0.238754 -0.201172,0.509765 -0.790216,1.7262882 -0.8369,3.7475282 -0.103516,4.8281252 0.132716,0.195919 0.253907,0.38202 0.253907,0.40625 0,0.02424 -0.142858,0.05078 -0.304688,0.05078 -0.3799,10e-7 -0.740065,-0.230841 -1.474609,-0.8125 -0.326312,-0.25839 -0.749712,-0.474962 -0.914063,-0.507812 -0.258081,-0.05156 -0.326284,-0.02922 -0.660156,0.304688 -0.310635,0.310584 -0.40625,0.47934 -0.40625,0.763671 0,1.078223 1.280827,1.933145 3.660156,2.4375 3.231224,0.684838 4.026105,1.298953 4.115235,2.998047 0.111903,2.130617 -1.02133,3.736741 -3.50586,4.980469 -0.296546,0.148492 -0.484954,0.207879 -0.609375,0.255859 -0.05514,-0.0049 -0.09933,0.0049 -0.154297,0 -0.02114,-0.06587 -0.05078,-0.218244 -0.05078,-0.507812 0,-1.131635 -0.445068,-2.297836 -1.117187,-2.949219 -0.180417,-0.174873 -0.684591,-0.544709 -1.117188,-0.8125 -0.432581,-0.267775 -0.869537,-0.578221 -0.966797,-0.710937 -0.161141,-0.220234 -0.172666,-0.354868 -0.04883,-0.761719 0.22568,-0.743064 0.493412,-1.159404 1.015625,-1.628906 0.273776,-0.246141 0.548725,-0.450179 0.609375,-0.455079 0.06067,-0.0049 -0.34908,-0.129893 -0.964844,-0.255859 -0.615733,-0.12621 -1.518682,-0.390047 -1.984375,-0.558594 -0.8515642,-0.308125 -2.0011312,-0.955677 -2.4394522,-1.423827 -0.01853,-0.01985 -0.034681,-0.03321 -0.050781,-0.05078 0.628012,-2.501606 2.3902012,-4.551008 4.7265622,-5.5390622 0.488855,-0.206768 0.99342,-0.348223 1.525391,-0.457032 0.264977,-0.05416 0.538902,-0.0757 0.8125,-0.103516 z m 7.625,3.8125002 c 0.191025,0.118078 0.913249,1.680238 1.119141,2.441406 0.265819,0.982671 0.246579,2.682022 0,3.658203 -0.09385,0.37154 -0.21585,0.718459 -0.25586,0.761719 -0.04001,0.04326 -0.186741,-0.203394 -0.357422,-0.50586 -0.170692,-0.302419 -0.712909,-0.94574 -1.166015,-1.423828 -1.307875,-1.380072 -1.514642,-2.099756 -0.966797,-3.201172 0.276282,-0.555408 1.479111,-1.821708 1.626953,-1.730468 z"/>
   <path style="fill:#ffffff" d="M 16,6.0000001 C 10.477143,6.0000001 5.9999998,10.477143 5.9999998,16 5.9999998,21.522857 10.477143,26 16,26 21.522857,26 26,21.522857 26,16 26,10.477143 21.522857,6.0000001 16,6.0000001 Z m -0.935547,1.9941407 c 0.108806,-0.01139 0.245686,0.0065 0.355469,0 0.01301,0.05204 -0.07708,0.238754 -0.201172,0.509765 -0.790216,1.7262882 -0.8369,3.7475282 -0.103516,4.8281252 0.132716,0.195919 0.253907,0.38202 0.253907,0.40625 0,0.02424 -0.142858,0.05078 -0.304688,0.05078 -0.3799,10e-7 -0.740065,-0.230841 -1.474609,-0.8125 -0.326312,-0.25839 -0.749712,-0.474962 -0.914063,-0.507812 -0.258081,-0.05156 -0.326284,-0.02922 -0.660156,0.304688 -0.310635,0.310584 -0.40625,0.47934 -0.40625,0.763671 0,1.078223 1.280827,1.933145 3.660156,2.4375 3.231224,0.684838 4.026105,1.298953 4.115235,2.998047 0.111903,2.130617 -1.02133,3.736741 -3.50586,4.980469 -0.296546,0.148492 -0.484954,0.207879 -0.609375,0.255859 -0.05514,-0.0049 -0.09933,0.0049 -0.154297,0 -0.02114,-0.06587 -0.05078,-0.218244 -0.05078,-0.507812 0,-1.131635 -0.445068,-2.297836 -1.117187,-2.949219 -0.180417,-0.174873 -0.684591,-0.544709 -1.117188,-0.8125 -0.432581,-0.267775 -0.869537,-0.578221 -0.966797,-0.710937 -0.161141,-0.220234 -0.172666,-0.354868 -0.04883,-0.761719 0.22568,-0.743064 0.493412,-1.159404 1.015625,-1.628906 0.273776,-0.246141 0.548725,-0.450179 0.609375,-0.455079 0.06067,-0.0049 -0.34908,-0.129893 -0.964844,-0.255859 -0.615733,-0.12621 -1.518682,-0.390047 -1.984375,-0.558594 -0.8515642,-0.308125 -2.0011312,-0.955677 -2.4394522,-1.423827 -0.01853,-0.01985 -0.034681,-0.03321 -0.050781,-0.05078 0.628012,-2.501606 2.3902012,-4.5510082 4.7265622,-5.5390622 0.488855,-0.206768 0.99342,-0.348223 1.525391,-0.457032 0.264977,-0.05416 0.538902,-0.0757 0.8125,-0.103516 z m 7.625,3.8125002 c 0.191025,0.118078 0.913249,1.680238 1.119141,2.441406 0.265819,0.982671 0.246579,2.682022 0,3.658203 -0.09385,0.37154 -0.21585,0.718459 -0.25586,0.761719 -0.04001,0.04326 -0.186741,-0.203394 -0.357422,-0.50586 -0.170692,-0.302419 -0.712909,-0.94574 -1.166015,-1.423828 -1.307875,-1.380072 -1.514642,-2.099756 -0.966797,-3.201172 0.276282,-0.555408 1.479111,-1.821708 1.626953,-1.730468 z"/>
  </g>
 </g>
</svg>
