<svg xmlns="http://www.w3.org/2000/svg" width="32" height="32" version="1.1">
 <g id="kget">
  <rect style="opacity:0.001" width="32" height="32" x="0" y="0"/>
  <g transform="translate(-3.95e-4)">
   <rect style="fill:#37a0f2" width="28" height="28" x="-30" y="-30" rx="14" ry="14" transform="matrix(0,-1,-1,0,0,0)"/>
   <path style="opacity:0.2" d="M 14.667,9 C 14.297,9 14,9.2283 14,9.5122 v 7.8356 h -2.6667 l 4.667,6.261 4.6667,-6.2609 H 18.0003 V 9.5123 c 0,-0.28397 -0.29733,-0.51223 -0.66667,-0.51223 h -2.6667 z M 16,23.609 h -5.3997 c -0.332,0 -0.6,0.31 -0.6,0.695 0,0.386 0.268,0.696 0.6,0.696 h 10.799 c 0.333,0 0.601,-0.31 0.601,-0.696 0,-0.385 -0.268,-0.695 -0.6,-0.695 h -5.3997 z"/>
   <path style="opacity:0.1;fill:#ffffff" d="M 16,2 C 8.244,2 2,8.244 2,16 2,16.16884 2.01952,16.33264 2.02539,16.5 2.28949,8.9794 8.41319,3 16.00039,3 c 7.5872,0 13.711,5.9794 13.975,13.5 0.006,-0.16736 0.0254,-0.33116 0.0254,-0.5 0,-7.756 -6.244,-14 -14,-14 z"/>
   <path style="fill:#ffffff" d="M 14.667,8 C 14.297,8 14,8.2283 14,8.5122 v 7.8356 h -2.6667 l 4.667,6.261 4.6667,-6.2609 H 18.0003 V 8.5123 c 0,-0.28397 -0.29733,-0.51223 -0.66667,-0.51223 h -2.6667 z M 16,22.609 h -5.3997 c -0.332,0 -0.6,0.31 -0.6,0.695 0,0.386 0.268,0.696 0.6,0.696 h 10.799 c 0.333,0 0.601,-0.31 0.601,-0.696 0,-0.385 -0.268,-0.695 -0.6,-0.695 h -5.3997 z"/>
   <path style="opacity:0.2" d="M 2.0254,16.5 C 2.0195,16.667 2,16.831 2,17 c 0,7.756 6.244,14 14,14 7.756,0 14,-6.244 14,-14 0,-0.16884 -0.01952,-0.33264 -0.02539,-0.5 -0.264,7.521 -6.388,13.5 -13.975,13.5 -7.5872,0 -13.711,-5.979 -13.975,-13.5 z"/>
  </g>
 </g>
 <g id="22-22-kget" transform="translate(32,10)">
  <path style="opacity:0.001" d="m 0.25,0 h 21.5 C 21.8885,0 22,0.111499 22,0.250001 V 21.75 C 22,21.8885 21.88849,22 21.75,22 H 0.25 C 0.1115,22 0,21.888501 0,21.75 V 0.250001 C 0,0.1115 0.11151,0 0.25,0 Z"/>
  <path style="fill:#dfdfdf" d="m 11,3 a 8,8 0 0 0 -8,8 8,8 0 0 0 8,8 8,8 0 0 0 8,-8 8,8 0 0 0 -8,-8 z m -1,2 h 2 v 5 h 2.5 L 12.75,12.5 11,15 h 4 v 1 H 7 v -1 h 4 L 9.25,12.5 7.5,10 H 10 Z"/>
 </g>
</svg>
