<svg xmlns="http://www.w3.org/2000/svg" width="32" height="32" version="1.1">
 <g id="22-22-kgpg" transform="translate(-315,267)">
  <rect style="opacity:0.001" width="22" height="22" x="347" y="-257"/>
  <path style="fill:#dfdfdf" transform="translate(346.99759,-257.00336)" d="M 11,3 C 5.99738,2.997 6,7.6425781 6,7.6425781 V 10 H 5.1660156 C 4.5196856,10 4,10.36686 4,11 v 6.857422 C 4,18.490572 4.5196856,19 5.1660156,19 H 16.833984 C 17.480314,19 18,18.490572 18,17.857422 V 11 c 0,-0.63314 -0.528976,-0.89079 -1.166016,-1 H 16 V 7.6425781 C 16,7.6425781 16.003,3.00336 11,3 Z m 0,3 c 2.00262,-0.003 2,1.5722656 2,1.5722656 V 10 H 9 V 7.5722656 C 9,7.5722656 9.00301,6.00336 11,6 Z m -4,7 h 8 v 3 H 7 Z"/>
 </g>
 <g id="16-16-kgpg" transform="translate(-296,302)">
  <rect style="opacity:0.001" width="16" height="16" x="350" y="-286"/>
  <g id="layer9-4" transform="translate(2.99739,-35.00336)">
   <path style="fill:#dfdfdf" transform="translate(344.0002,-275)" d="M 11,25 C 8.784,25 7,26.82162 7,29.0625 V 31 H 6 c -0.554,0 -1,0.446 -1,1 v 6 c 0,0.554 0.446,1 1,1 h 10 c 0.554,0 1,-0.446 1,-1 v -6 c 0,-0.554 -0.446,-1 -1,-1 H 15 V 29.0625 C 15,26.8225 13.216,25 11,25 Z m 0,2 c 1.108,0 2,0.892 2,2 v 2 H 9 v -2 c 0,-1.108 0.892,-2 2,-2 z m -4,6 h 8 v 4 H 7 Z"/>
  </g>
 </g>
 <g id="kgpg">
  <rect style="opacity:0.001" width="32" height="32" x="0" y="0"/>
  <path style="fill:#d2d2d2" d="m 15.9998,2 c -4.432,0 -8,3.568 -8,8 v 3 h 3 v -3 c 0,-2.77 2.23,-5 5,-5 2.77,0 5,2.23 5,5 v 3 h 3 v -3 c 0,-4.432 -3.568,-8 -8,-8 z"/>
  <rect style="fill:#fecd38" width="17" height="22" x="-30" y="-27" rx="1.4" ry="1.4" transform="matrix(0,-1,-1,0,0,0)"/>
  <path style="opacity:0.1;fill:#ffffff" d="m 15.9998,2 c -4.432,0 -8,3.568 -8,8 v 1 c 0,-4.432 3.568,-8 8,-8 4.432,0 8,3.568 8,8 v -1 c 0,-4.432 -3.568,-8 -8,-8 z"/>
  <path style="opacity:0.1;fill:#ffffff" d="m 6.4002,13 c -0.7756,0 -1.4004,0.625 -1.4004,1.4 v 1 c 0,-0.775 0.6248,-1.4 1.4004,-1.4 h 19.2 c 0.775,0 1.4,0.625 1.4,1.4 v -1 c 0,-0.775 -0.625,-1.4 -1.4,-1.4 z"/>
  <path style="fill:#cb9a05" d="m 4.9998,27.6 v 1 c 0,0.775 0.6248,1.4 1.4004,1.4 h 19.2 c 0.775,0 1.4,-0.625 1.4,-1.4 v -1 c 0,0.775 -0.625,1.4 -1.4,1.4 h -19.2 c -0.7752,0 -1.4,-0.625 -1.4,-1.4 z"/>
  <path style="opacity:0.1;fill:#ffffff" d="m 4.9998,26.6 v 1 c 0,0.775 0.6248,1.4 1.4004,1.4 h 19.2 c 0.775,0 1.4,-0.625 1.4,-1.4 v -1 c 0,0.775 -0.625,1.4 -1.4,1.4 h -19.2 c -0.7752,0 -1.4,-0.625 -1.4,-1.4 z"/>
  <rect style="opacity:0.2" width="16" height="10" x="8" y="17" rx="0" ry="0"/>
  <rect style="fill:#ffffff" width="16" height="10" x="8" y="16" rx="0" ry="0"/>
  <path style="opacity:0.2" d="m 15.9998,5 c -2.77,0 -5,2.23 -5,5 v 1 c 0,-2.77 2.23,-5 5,-5 2.77,0 5,2.23 5,5 v -1 c 0,-2.77 -2.23,-5 -5,-5 z m -11,23.6 v 1 c 0,0.775 0.6248,1.4 1.4004,1.4 h 19.2 c 0.775,0 1.4,-0.625 1.4,-1.4 v -1 c 0,0.775 -0.625,1.4 -1.4,1.4 h -19.2 c -0.7752,0 -1.4,-0.625 -1.4,-1.4 z"/>
 </g>
</svg>
