<svg xmlns="http://www.w3.org/2000/svg" width="32" height="32" version="1.1">
 <g id="22-22-klipper" transform="translate(32,10)">
  <rect style="opacity:0.001" width="22" height="22" x="0" y="0"/>
  <path style="fill:#dfdfdf" d="M 5,8 C 3.892,8 3,8.892 3,10 v 7 c 0,1.108 0.892,2 2,2 h 6 c 1.108,0 2,-0.892 2,-2 V 10 C 13,8.892 12.108,8 11,8 Z m 0,2 h 6 v 1 H 5 Z m 0,2 h 6 v 1 H 5 Z m 0,2 h 6 v 1 H 5 Z m 0,2 h 4 v 1 H 5 Z"/>
  <path style="opacity:0.35;fill:#dfdfdf" d="M 11,3 C 9.892,3 9,3.892 9,5 v 7 c 0,1.108 0.892,2 2,2 h 6 c 1.108,0 2,-0.892 2,-2 V 5 C 19,3.892 18.108,3 17,3 Z m 0,2 h 6 v 1 h -6 z m 0,2 h 6 v 1 h -6 z m 0,2 h 6 v 1 h -6 z m 0,2 h 4 v 1 h -4 z"/>
 </g>
 <g id="klipper">
  <rect style="opacity:0.001" width="32" height="32" x="0" y="0"/>
  <g>
   <rect style="opacity:0.05;stroke:#000000;stroke-width:2" width="19" height="19" x="2" y="-30" rx="1.5" ry="1.5" transform="rotate(90)"/>
   <rect style="opacity:0.2" width="19" height="19" x="2" y="-30" rx="1.5" ry="1.5" transform="rotate(90)"/>
   <rect style="opacity:0.05;stroke:#000000;stroke-width:2" width="19" height="19" x="11" y="-21" rx="1.5" ry="1.5" transform="rotate(90)"/>
   <rect style="fill:#d3d3d3" width="19" height="19" x="1" y="-30" rx="1.5" ry="1.5" transform="rotate(90)"/>
   <g style="opacity:0.2" transform="translate(4,-4)">
    <path d="m 10,11 v -1 h 13 v 1 z"/>
    <path d="m 10,14 v -1 h 13 v 1 z"/>
    <path d="m 10,17 v -1 h 13 v 1 z"/>
    <path d="m 10,20 v -1 h 8 v 1 z"/>
   </g>
   <rect style="opacity:0.2" width="19" height="19" x="11" y="-21" rx="1.5" ry="1.5" transform="rotate(90)"/>
   <rect style="fill:#e4e4e4" width="19" height="19" x="10" y="-21" rx="1.5" ry="1.5" transform="rotate(90)"/>
   <path style="opacity:0.1;fill:#ffffff" d="M 12.5,1 C 11.669,1 11,1.669 11,2.5 v 1 C 11,2.669 11.669,2 12.5,2 h 16 C 29.331,2 30,2.669 30,3.5 v -1 C 30,1.669 29.331,1 28.5,1 Z"/>
   <path style="opacity:0.1;fill:#ffffff" d="M 3.5,10 C 2.669,10 2,10.669 2,11.5 v 1 C 2,11.669 2.669,11 3.5,11 h 16 c 0.831,0 1.5,0.669 1.5,1.5 v -1 C 21,10.669 20.331,10 19.5,10 Z"/>
   <g style="opacity:0.5" transform="translate(-5,5)">
    <path d="m 10,11 v -1 h 13 v 1 z"/>
    <path d="m 10,14 v -1 h 13 v 1 z"/>
    <path d="m 10,17 v -1 h 13 v 1 z"/>
    <path d="m 10,20 v -1 h 8 v 1 z"/>
   </g>
  </g>
 </g>
</svg>
