<svg xmlns="http://www.w3.org/2000/svg" width="32" height="32" version="1.1">
 <g id="22-22-kmail" transform="translate(-435.0002,-125)">
  <path style="opacity:0.001" d="m 467.0002,135 h 22 v 22 h -22 z"/>
  <path style="fill:#dfdfdf" d="m 472.00009,140 c -1.108,0 -2,0.892 -2,2 v 8 c 0,1.108 0.892,2 2,2 h 12 c 1.108,0 2,-0.892 2,-2 v -8 c 0,-1.108 -0.892,-2 -2,-2 z m 0,2 6,3 6,-3 v 2 l -6,3 -6,-3 z"/>
 </g>
 <g id="kmail">
  <rect style="opacity:0.001" width="32" height="32" x="0" y="0"/>
  <g transform="translate(-3.4e-4,-7.5e-4)">
   <path style="fill:#fe9700" d="m 2.637,10.827 c -0.02875,0.0187 -0.05481,0.0408 -0.08204,0.0615 l -0.0164,0.0123 v 0.002 c -0.3259,0.2559 -0.53868,0.64951 -0.53868,1.0979 l 1.5e-5,12.199 c 2e-6,2 1.5771,2 2,2 h 24 c 0,0 2,0 2,-2 l -2e-5,-12.199 c 0,-0.45851 -0.22188,-0.86056 -0.56054,-1.1156 l 0.006,-0.008 -13.445,-9.876 c 0,0 -13.445,9.8886 -13.363,9.8271 z"/>
   <path style="opacity:0.1;fill:#ffffff" d="m 16,1.002 c 0,0 -13.445,9.888 -13.363,9.826 l -3e-4,-0.002 C 2.608,10.845 2.5819,10.868 2.5547,10.889 L 2.5391,10.9 v 0.002 C 2.2132,11.158 2,11.552 2,12 v 1.002 c 0,-0.448 0.2132,-0.844 0.5391,-1.1 V 11.9 l 0.0156,-0.011 c 0.0272,-0.021 0.0533,-0.042 0.082,-0.061 -0.082,0.062 13.363,-9.826 13.363,-9.826 l 13.445,9.875 -0.006,0.008 c 0.339,0.255 0.561,0.658 0.561,1.117 V 12 c 0,-0.459 -0.222,-0.86 -0.561,-1.115 l 0.006,-0.008 -13.445,-9.875 z"/>
   <rect style="fill:#ebebeb" width="22" height="18" x="5" y="4" rx="1.5" ry="1.499"/>
   <path style="fill:#fec006" d="M 2,12 28,30 H 4 c -1,-8e-6 -2,-0.4945 -2,-1.978 z"/>
   <path style="fill:#fecd38" d="m 28,30 c 2,0 2,-1.978 2,-1.978 V 12 L 4,30 Z"/>
   <path style="fill:#848484" d="m 16,7 a 5,5 0 0 0 -5,5 5,5 0 0 0 5,5 h 3.5 C 19.777,17 20,16.777 20,16.5 20,16.223 19.777,16 19.5,16 H 16 a 4,4 0 0 1 -4,-4 4,4 0 0 1 4,-4 4,4 0 0 1 4,4 v 1.5 C 20,13.777 19.777,14 19.5,14 19.223,14 19,13.777 19,13.5 V 12 a 3,3 0 0 0 -3,-3 3,3 0 0 0 -3,3 3,3 0 0 0 3,3 3,3 0 0 0 2.1309,-0.89062 c 0.233,0.525 0.756,0.891 1.369,0.891 0.831,0 1.5,-0.669 1.5,-1.5 v -1.5 a 5,5 0 0 0 -5,-5 z m 0,3 a 2,2 0 0 1 2,2 2,2 0 0 1 -2,2 2,2 0 0 1 -2,-2 2,2 0 0 1 2,-2 z"/>
   <path style="opacity:0.2" d="m 2,28 v 1 c 0,1.2374 0.68276,1.7863 1.4824,1.9434 l -0.082,0.057 h 25.2 l -0.0957,-0.06641 c 1.4803,-0.31236 1.4961,-1.9336 1.4961,-1.9336 v -1 c 0,0 -0.01579,1.6212 -1.4961,1.9336 l 0.096,0.066 h -25.2 l 0.082,-0.057 c -0.7996,-0.157 -1.4824,-0.706 -1.4824,-1.943 z"/>
  </g>
 </g>
</svg>
