<svg xmlns="http://www.w3.org/2000/svg" width="32" height="32" version="1.1">
 <g id="22-22-kopete" transform="translate(32,10)">
  <rect style="opacity:0.001" width="22" height="22" x="0" y="0"/>
  <path style="fill:#dfdfdf" d="m 10.5,3.0000002 a 7.5,6.5 0 0 0 -7.5,6.5 A 7.5,6.5 0 0 0 10.5,16 7.5,6.5 0 0 0 14,15.244141 V 19 l 3.511719,-7.175781 h -0.01758 A 7.5,6.5 0 0 0 18,9.5000002 a 7.5,6.5 0 0 0 -7.5,-6.5 z m 1.171875,3 C 13.509832,6 14.999999,7.5670038 15,9.5000002 15,11.432997 13.509833,13 11.671875,13 11.44609,12.999887 11.22111,12.9758 11,12.92774 c 1.551421,-0.329671 2.998582,-1.76312 3,-3.4277348 -1.55e-4,-1.6604215 -1.440075,-3.0924071 -2.986328,-3.4277344 0.216855,-0.047155 0.436763,-0.071234 0.658203,-0.072266 z m -4.140625,1 a 0.5,0.5 0 0 1 0.5,0.5 0.5,0.5 0 0 1 -0.5,0.5 0.5,0.5 0 0 1 -0.5,-0.5 0.5,0.5 0 0 1 0.5,-0.5 z m 2.0683589,2 h 1.8007821 c 0.3324,0 0.599609,0.223 0.599609,0.5 C 12,9.7770002 11.732791,10 11.400391,10 H 9.5996089 C 9.267209,10 9,9.7770002 9,9.5000002 c 0,-0.277 0.267209,-0.5 0.5996089,-0.5 z M 7.5,11 c 0.276142,0 0.5,0.22385 0.5,0.5 0,0.0994 -0.25,1 -0.25,1 C 7.75,12.5 7.67674,12 7.5,12 7.223857,12 7,11.776143 7,11.5 7,11.223858 7.22385,11 7.5,11 Z"/>
 </g>
 <g id="22-22-kopete-offline" transform="translate(32,-22)">
  <rect style="opacity:0.001" width="22" height="22" x="0" y="0"/>
  <path style="opacity:0.35;fill:#dfdfdf" d="m 10.5,3.0000002 a 7.5,6.5 0 0 0 -7.5,6.5 A 7.5,6.5 0 0 0 10.5,16 7.5,6.5 0 0 0 14,15.244141 V 19 l 3.511719,-7.175781 h -0.01758 A 7.5,6.5 0 0 0 18,9.5000002 a 7.5,6.5 0 0 0 -7.5,-6.5 z m 1.171875,3 C 13.509832,6 14.999999,7.5670038 15,9.5000002 15,11.432997 13.509833,13 11.671875,13 11.44609,12.999887 11.22111,12.9758 11,12.92774 c 1.551421,-0.329671 2.998582,-1.76312 3,-3.4277348 -1.55e-4,-1.6604215 -1.440075,-3.0924071 -2.986328,-3.4277344 0.216855,-0.047155 0.436763,-0.071234 0.658203,-0.072266 z m -4.140625,1 a 0.5,0.5 0 0 1 0.5,0.5 0.5,0.5 0 0 1 -0.5,0.5 0.5,0.5 0 0 1 -0.5,-0.5 0.5,0.5 0 0 1 0.5,-0.5 z m 2.0683589,2 h 1.8007821 c 0.3324,0 0.599609,0.223 0.599609,0.5 C 12,9.7770002 11.732791,10 11.400391,10 H 9.5996089 C 9.267209,10 9,9.7770002 9,9.5000002 c 0,-0.277 0.267209,-0.5 0.5996089,-0.5 z M 7.5,11 c 0.276142,0 0.5,0.22385 0.5,0.5 0,0.0994 -0.25,1 -0.25,1 C 7.75,12.5 7.67674,12 7.5,12 7.223857,12 7,11.776143 7,11.5 7,11.223858 7.22385,11 7.5,11 Z"/>
 </g>
 <g id="kopete">
  <rect style="opacity:0.001" width="32" height="32" x="0" y="0"/>
  <g transform="translate(0,-1)">
   <path style="opacity:0.2" d="m 22,19.675 h 7.0325 L 22,32 Z"/>
   <path style="fill:#4479d9" d="m 22,18.675 h 7.0325 L 22,31 Z"/>
   <path style="opacity:0.2" d="M 30,15.5 A 14.5,12.5 0 0 1 15.5,28 14.5,12.5 0 0 1 1,15.5 14.5,12.5 0 0 1 15.5,3 14.5,12.5 0 0 1 30,15.5 Z"/>
   <path style="fill:#47b4f4" d="M 30,14.5 A 14.5,12.5 0 0 1 15.5,27 14.5,12.5 0 0 1 1,14.5 14.5,12.5 0 0 1 15.5,2 14.5,12.5 0 0 1 30,14.5 Z"/>
   <path style="opacity:0.1" d="M 16.511719,8 A 7.4878132,7.5 0 0 0 15.029297,8.1542969 7.4878132,7.5 0 0 1 21.003906,15.5 7.4878132,7.5 0 0 1 15,22.845703 7.4878132,7.5 0 0 0 16.511719,23 7.4878132,7.5 0 0 0 24,15.5 7.4878132,7.5 0 0 0 16.511719,8 Z M 8.5,10 A 1.5,1.5 0 0 0 7,11.5 1.5,1.5 0 0 0 8.5,13 1.5,1.5 0 0 0 10,11.5 1.5,1.5 0 0 0 8.5,10 Z m 3.900391,4 C 11.624791,14 11,14.669 11,15.5 c 0,0.831 0.624791,1.5 1.400391,1.5 h 4.199218 C 17.375209,17 18,16.331 18,15.5 18,14.669 17.375209,14 16.599609,14 Z M 8.5,18 C 7.67155,18 7,18.671573 7,19.5 7,20.328427 7.6715724,21 8.5,21 c 0.5302276,0 0.75,1.5 0.75,1.5 0,0 0.75,-2.7018 0.75,-3 C 10,18.67155 9.3284274,18 8.5,18 Z"/>
   <path style="fill:#2e4e8a" d="M 16.511719,7 A 7.4878132,7.5 0 0 0 15.029297,7.1542969 7.4878132,7.5 0 0 1 21.003906,14.5 7.4878132,7.5 0 0 1 15,21.845703 7.4878132,7.5 0 0 0 16.511719,22 7.4878132,7.5 0 0 0 24,14.5 7.4878132,7.5 0 0 0 16.511719,7 Z M 8.5,9 A 1.5,1.5 0 0 0 7,10.5 1.5,1.5 0 0 0 8.5,12 1.5,1.5 0 0 0 10,10.5 1.5,1.5 0 0 0 8.5,9 Z m 3.900391,4 C 11.624791,13 11,13.669 11,14.5 c 0,0.831 0.624791,1.5 1.400391,1.5 h 4.199218 C 17.375209,16 18,15.331 18,14.5 18,13.669 17.375209,13 16.599609,13 Z M 8.5,17 C 7.67155,17 7,17.671573 7,18.5 7,19.328427 7.6715724,20 8.5,20 c 0.5302276,0 0.75,1.5 0.75,1.5 0,0 0.75,-2.7018 0.75,-3 C 10,17.67155 9.3284274,17 8.5,17 Z"/>
   <path style="opacity:0.2;fill:#ffffff" d="M 15.5,2 A 14.5,12.5 0 0 0 1,14.5 14.5,12.5 0 0 0 1.0234375,15.080078 14.5,12.5 0 0 1 15.5,3 14.5,12.5 0 0 1 29.976562,14.919922 14.5,12.5 0 0 0 30,14.5 14.5,12.5 0 0 0 15.5,2 Z"/>
  </g>
 </g>
 <g id="kopete-offline" transform="translate(0,-32)">
  <rect style="opacity:0.001" width="32" height="32" x="0" y="0"/>
  <g transform="translate(0,-1)">
   <path style="opacity:0.2" d="m 22,19.675 h 7.0325 L 22,32 Z"/>
   <path style="fill:#8e8e8e" d="m 22,18.675 h 7.0325 L 22,31 Z"/>
   <path style="opacity:0.2" d="M 30,15.5 A 14.5,12.5 0 0 1 15.5,28 14.5,12.5 0 0 1 1,15.5 14.5,12.5 0 0 1 15.5,3 14.5,12.5 0 0 1 30,15.5 Z"/>
   <path style="fill:#9b9ea0" d="M 30,14.5 A 14.5,12.5 0 0 1 15.5,27 14.5,12.5 0 0 1 1,14.5 14.5,12.5 0 0 1 15.5,2 14.5,12.5 0 0 1 30,14.5 Z"/>
   <path style="opacity:0.1" d="M 16.511719,8 A 7.4878132,7.5 0 0 0 15.029297,8.1542969 7.4878132,7.5 0 0 1 21.003906,15.5 7.4878132,7.5 0 0 1 15,22.845703 7.4878132,7.5 0 0 0 16.511719,23 7.4878132,7.5 0 0 0 24,15.5 7.4878132,7.5 0 0 0 16.511719,8 Z M 8.5,10 A 1.5,1.5 0 0 0 7,11.5 1.5,1.5 0 0 0 8.5,13 1.5,1.5 0 0 0 10,11.5 1.5,1.5 0 0 0 8.5,10 Z m 3.900391,4 C 11.624791,14 11,14.669 11,15.5 c 0,0.831 0.624791,1.5 1.400391,1.5 h 4.199218 C 17.375209,17 18,16.331 18,15.5 18,14.669 17.375209,14 16.599609,14 Z M 8.5,18 C 7.67155,18 7,18.671573 7,19.5 7,20.328427 7.6715724,21 8.5,21 c 0.5302276,0 0.75,1.5 0.75,1.5 0,0 0.75,-2.7018 0.75,-3 C 10,18.67155 9.3284274,18 8.5,18 Z"/>
   <path style="fill:#5c5c5c" d="M 16.511719,7 A 7.4878132,7.5 0 0 0 15.029297,7.1542969 7.4878132,7.5 0 0 1 21.003906,14.5 7.4878132,7.5 0 0 1 15,21.845703 7.4878132,7.5 0 0 0 16.511719,22 7.4878132,7.5 0 0 0 24,14.5 7.4878132,7.5 0 0 0 16.511719,7 Z M 8.5,9 A 1.5,1.5 0 0 0 7,10.5 1.5,1.5 0 0 0 8.5,12 1.5,1.5 0 0 0 10,10.5 1.5,1.5 0 0 0 8.5,9 Z m 3.900391,4 C 11.624791,13 11,13.669 11,14.5 c 0,0.831 0.624791,1.5 1.400391,1.5 h 4.199218 C 17.375209,16 18,15.331 18,14.5 18,13.669 17.375209,13 16.599609,13 Z M 8.5,17 C 7.67155,17 7,17.671573 7,18.5 7,19.328427 7.6715724,20 8.5,20 c 0.5302276,0 0.75,1.5 0.75,1.5 0,0 0.75,-2.7018 0.75,-3 C 10,17.67155 9.3284274,17 8.5,17 Z"/>
   <path style="opacity:0.2;fill:#ffffff" d="M 15.5,2 A 14.5,12.5 0 0 0 1,14.5 14.5,12.5 0 0 0 1.0234375,15.080078 14.5,12.5 0 0 1 15.5,3 14.5,12.5 0 0 1 29.976562,14.919922 14.5,12.5 0 0 0 30,14.5 14.5,12.5 0 0 0 15.5,2 Z"/>
  </g>
 </g>
</svg>
