<svg xmlns="http://www.w3.org/2000/svg" id="svg" width="100%" height="100%" version="1.1" viewBox="0 0 22 22">
 <g id="kopete">
  <rect id="rect3009" width="22" height="22" x="0" y="0" style="fill:#d3dae3;fill-opacity:0;stroke:none"/>
  <path id="path2" d="m 10.5,3.0000002 a 7.5,6.5 0 0 0 -7.5,6.5 A 7.5,6.5 0 0 0 10.5,16 7.5,6.5 0 0 0 14,15.244141 V 19 l 3.511719,-7.175781 h -0.01758 A 7.5,6.5 0 0 0 18,9.5000002 a 7.5,6.5 0 0 0 -7.5,-6.5 z m 1.171875,3 C 13.509832,6 14.999999,7.5670038 15,9.5000002 15,11.432997 13.509833,13 11.671875,13 11.44609,12.999887 11.22111,12.9758 11,12.92774 c 1.551421,-0.329671 2.998582,-1.76312 3,-3.4277348 -1.55e-4,-1.6604215 -1.440075,-3.0924071 -2.986328,-3.4277344 0.216855,-0.047155 0.436763,-0.071234 0.658203,-0.072266 z m -4.140625,1 a 0.5,0.5 0 0 1 0.5,0.5 0.5,0.5 0 0 1 -0.5,0.5 0.5,0.5 0 0 1 -0.5,-0.5 0.5,0.5 0 0 1 0.5,-0.5 z m 2.0683589,2 h 1.8007821 c 0.3324,0 0.599609,0.223 0.599609,0.5 C 12,9.7770002 11.732791,10 11.400391,10 H 9.5996089 C 9.267209,10 9,9.7770002 9,9.5000002 c 0,-0.277 0.267209,-0.5 0.5996089,-0.5 z M 7.5,11 c 0.276142,0 0.5,0.22385 0.5,0.5 0,0.0994 -0.25,1 -0.25,1 C 7.75,12.5 7.67674,12 7.5,12 7.223857,12 7,11.776143 7,11.5 7,11.223858 7.22385,11 7.5,11 Z" style="fill:#d3dae3;fill-opacity:1"/>
 </g>
 <g id="kopete-offline" transform="translate(22)">
  <rect style="fill:#d3dae3;fill-opacity:0;stroke:none" id="rect837" width="22" height="22" x="0" y="0"/>
  <path style="fill:#d3dae3;fill-opacity:1;opacity:0.3" id="path839" d="m 10.5,3.0000002 a 7.5,6.5 0 0 0 -7.5,6.5 A 7.5,6.5 0 0 0 10.5,16 7.5,6.5 0 0 0 14,15.244141 V 19 l 3.511719,-7.175781 h -0.01758 A 7.5,6.5 0 0 0 18,9.5000002 a 7.5,6.5 0 0 0 -7.5,-6.5 z m 1.171875,3 C 13.509832,6 14.999999,7.5670038 15,9.5000002 15,11.432997 13.509833,13 11.671875,13 11.44609,12.999887 11.22111,12.9758 11,12.92774 c 1.551421,-0.329671 2.998582,-1.76312 3,-3.4277348 -1.55e-4,-1.6604215 -1.440075,-3.0924071 -2.986328,-3.4277344 0.216855,-0.047155 0.436763,-0.071234 0.658203,-0.072266 z m -4.140625,1 a 0.5,0.5 0 0 1 0.5,0.5 0.5,0.5 0 0 1 -0.5,0.5 0.5,0.5 0 0 1 -0.5,-0.5 0.5,0.5 0 0 1 0.5,-0.5 z m 2.0683589,2 h 1.8007821 c 0.3324,0 0.599609,0.223 0.599609,0.5 C 12,9.7770002 11.732791,10 11.400391,10 H 9.5996089 C 9.267209,10 9,9.7770002 9,9.5000002 c 0,-0.277 0.267209,-0.5 0.5996089,-0.5 z M 7.5,11 c 0.276142,0 0.5,0.22385 0.5,0.5 0,0.0994 -0.25,1 -0.25,1 C 7.75,12.5 7.67674,12 7.5,12 7.223857,12 7,11.776143 7,11.5 7,11.223858 7.22385,11 7.5,11 Z"/>
 </g>
</svg>
