<svg xmlns="http://www.w3.org/2000/svg" width="32" height="32" version="1.1">
 <g id="kteatime">
  <rect style="opacity:0.001" width="32" height="32" x="0" y="0"/>
  <g transform="translate(-9.5e-6)">
   <path style="fill:#bda461" d="m 6.1991,8 c -2e-7,0.99233 0.027175,2.1214 0.074219,3 h -2.1738 c -1.1634,0 -2.0996,0.936 -2.0996,2.1 v 8.8496 c 0,1.163 0.9362,2.05 2.0996,2.05 h 4.4004 c 0.98494,0 1.5,-1 1.5,-1 2.3879,1.9995 5.8668,2 8.4492,2 5.25,0 11.551,-0.2 11.551,-17 z m -0.90625,5 h 1.0488 c 0.412,4.1463 1.3308,6.9496 2.5469,8.8359 -0.1747,0.102 -0.3704,0.164 -0.5801,0.164 h -3.0156 c -0.716,0 -1.293,-0.669 -1.293,-1.5 v -6 c 0,-0.831 0.577,-1.5 1.293,-1.5 z"/>
   <path style="fill:#5b6d40" d="m 21.699,11 c 0,0 -0.90503,0.87806 -1.8838,1.2321 -7.2483,2.6217 -4.1914,7.7308 -4.0917,7.7476 0,0 0.40645,-0.70781 0.9555,-1.1115 3.4841,-2.5613 4.1922,-5.5095 4.1922,-5.5095 0,0 -0.78182,3.5476 -3.8814,5.755 -0.68459,0.48729 -1.1481,1.6871 -1.3444,2.8863 0,0 0.48527,-0.19606 0.69394,-0.24917 0.08137,-0.53102 0.2515,-1.0395 0.53914,-1.4937 4.3321,0.51578 5.7509,-2.9749 5.9362,-4.1921 0.438,-2.875 -1.116,-5.065 -1.116,-5.065 z"/>
   <path style="opacity:0.2;fill:#ffffff" d="m 6.1991,8 c 0,0.331 0.0196,0.653 0.0254,1 h 23.75 c 0.005,-0.34 0.025,-0.645 0.025,-1 h -23.8 z m -2.0996,3 c -1.1634,0 -2.0996,0.936 -2.0996,2.1 v 1 c 0,-1.164 0.9362,-2.1 2.0996,-2.1 H 6.2733 C 6.2577,11.707 6.2589,11.334 6.2479,11 Z m -0.0996,9.5 v 1 c 0,0.831 0.577,1.5 1.293,1.5 H 8.3085 C 8.5182,23 8.7139,22.938 8.8886,22.836 8.719,22.573 8.5577,22.286 8.4003,21.986 8.3691,21.989 8.3403,22 8.3085,22 H 5.2929 c -0.716,0 -1.293,-0.669 -1.293,-1.5 z"/>
   <path style="opacity:0.2" d="m 6.1991,9 c 0,0.662 0.0269,1.332 0.0488,2 H 6.2733 C 6.242,10.414 6.236,9.694 6.2245,9 Z m 23.776,0 c -0.258,15.766 -6.387,16 -11.526,16 -2.582,0 -6.061,-0.001 -8.449,-2 0,0 -0.5151,1 -1.5,1 H 4.0997 C 2.9363,24 2.0001,23.113 2.0001,21.949 v 1 c 0,1.164 0.9362,2.051 2.0996,2.051 h 4.4004 c 0.9849,0 1.5,-1 1.5,-1 2.388,1.999 5.867,2 8.449,2 5.25,0 11.551,-0.2 11.551,-17 z m -24.682,4 c -0.716,0 -1.293,0.669 -1.293,1.5 v 1 c 0,-0.831 0.577,-1.5 1.293,-1.5 h 1.0488 c 0.3545,3.568 1.0869,6.136 2.0586,7.986 0.1741,-0.015 0.3401,-0.064 0.4883,-0.15 C 7.6727,19.95 6.7539,17.146 6.3419,13 Z"/>
  </g>
 </g>
 <g id="22-22-kteatime">
  <rect style="opacity:0.001" width="22" height="22" x="32" y="10"/>
  <path style="fill:#dfdfdf" d="M 36 15 C 36 15.709 36.018734 16.3725 36.052734 17 L 34.5 17 C 33.669 17 33 17.669 33 18.5 L 33 24.5 C 33 25.331 33.669 26 34.5 26 L 38 26 C 38.4115 26 38.782234 25.835359 39.052734 25.568359 C 40.758734 26.996359 42.906 27 44.75 27 C 48.5 27 53 27 53 15 L 36 15 z M 47.09375 17 C 47.09375 17 48.273997 18.592847 47.941406 20.683594 C 47.800514 21.568788 46.721031 24.10748 43.427734 23.732422 C 43.209071 24.062777 43.07944 24.432159 43.017578 24.818359 C 42.858942 24.856982 42.490234 25 42.490234 25 C 42.639407 24.127835 42.993235 23.254787 43.513672 22.900391 C 45.870013 21.29497 46.462891 18.714844 46.462891 18.714844 C 46.462891 18.714844 45.925782 20.859991 43.277344 22.722656 C 42.859945 23.016275 42.550781 23.53125 42.550781 23.53125 C 42.474951 23.519062 40.149893 19.803257 45.660156 17.896484 C 46.404261 17.639022 47.09375 17 47.09375 17 z M 35.421875 18.5 L 36.173828 18.5 C 36.467828 21.264 37.121734 23.133125 37.990234 24.390625 C 37.865734 24.458625 37.726172 24.5 37.576172 24.5 L 35.421875 24.5 C 34.910475 24.5 34.5 24.054 34.5 23.5 L 34.5 19.5 C 34.5 18.946 34.910475 18.5 35.421875 18.5 z"/>
 </g>
</svg>
