<svg xmlns="http://www.w3.org/2000/svg" width="32" height="32" version="1.1">
 <g id="22-22-kteatime" transform="translate(27,5)">
  <rect style="opacity:0.001" width="22" height="22" x="5" y="5"/>
  <path style="fill:#dfdfdf" d="M 14.610263,8 C 13.703192,7.9967334 12.78979,8.0780928 11.905018,8.2480469 8.9351317,8.8185244 6.8698141,10.202677 6.2130573,12.0625 c -0.2110505,0.597655 -0.2488872,0.988167 -0.1837377,1.902344 0.2220616,3.115804 1.3650375,5.816705 3.2720953,7.726562 1.2865251,1.288418 2.8841221,2.093137 4.5172121,2.277344 0.131555,0.01483 0.441273,0.02905 0.688039,0.03125 2.600359,-0.01575 5.210471,-1.939427 6.116793,-3.025 0.01497,-0.01718 0.394918,0.136874 0.497765,0.237023 0.817409,0.795987 2.035568,1.073624 2.982806,0.679688 1.501754,-0.624539 2.189571,-3.023459 1.77952,-4.608508 C 25.803057,16.97207 25.600675,16.535394 25.416387,16.277344 24.857963,15.495393 24.132431,15.00772 23.18925,15 c -0.390907,-0.0032 -0.36329,0.03618 -0.273651,-0.394531 0.09768,-0.469363 0.129963,-1.450123 0.07428,-1.800781 C 22.75129,11.302308 21.835494,10.070945 20.118487,9.2050781 18.569729,8.4240622 16.605821,8.0072059 14.610263,8 Z m -0.103597,1 c 3.592666,0 6.505097,1.790861 6.505097,4 0,2.209139 -2.912431,4 -6.505097,4 -3.592667,0 -6.5050976,-1.790861 -6.5050978,-4 2e-7,-2.209139 2.9124308,-4 6.5050978,-4 z m 8.737315,7.662109 c 0.06431,6.66e-4 0.129265,0.0062 0.195465,0.01758 0.768227,0.131637 0.965401,0.816829 0.856922,1.591796 -0.104744,0.748273 -0.307412,1.915763 -0.804145,2.08507 -0.265069,0.09036 -0.674716,0.03126 -0.948009,-0.136719 -0.264735,-0.162707 -0.49576,-0.441224 -0.590307,-0.708984 -0.0429,-0.121521 -0.04206,-0.13629 0.06841,-0.476562 0.06273,-0.193208 0.192659,-1.062479 0.287334,-1.444445 l 0.17201,-0.695313 0.181783,-0.08984 c 0.198534,-0.09792 0.387611,-0.144677 0.580533,-0.142579 z"/>
 </g>
 <g id="kteatime">
  <rect style="opacity:0.001" width="32" height="32" x="0" y="0"/>
  <circle style="opacity:0.2" cx="16" cy="17" r="14"/>
  <circle style="fill:#4caf50" cx="16" cy="16" r="14"/>
  <path style="opacity:0.2" d="m 16.142054,8.0001003 c -0.963007,-0.00347 -1.934053,0.082276 -2.873388,0.2628522 -3.15303,0.6061324 -5.3455715,2.0773915 -6.0428288,4.0534545 -0.2240655,0.635007 -0.2642306,1.049881 -0.1950634,2.021193 0.2357555,3.310543 1.4505191,6.18006 3.4751802,8.209283 1.365861,1.368944 3.061176,2.223902 4.794974,2.419622 0.139667,0.01576 0.468468,0.03086 0.730452,0.0332 1.169626,0.01019 2.241686,-0.243767 3.347903,-0.792705 1.2141,-0.602474 2.355865,-1.574837 3.238615,-2.758563 0.110664,-0.148399 0.212299,-0.283446 0.226883,-0.300205 0.0159,-0.01825 0.0997,0.04023 0.208897,0.146644 0.867816,0.845736 2.161024,1.140706 3.166675,0.722151 1.594364,-0.66357 2.643295,-2.78852 2.207957,-4.472634 -0.08545,-0.330579 -0.300999,-0.795215 -0.496652,-1.069393 -0.592861,-0.830823 -1.574606,-1.347561 -2.57595,-1.355763 -0.415012,-0.0034 -0.387071,0.03707 -0.291904,-0.420563 0.103704,-0.498698 0.139363,-1.221138 0.08024,-1.593713 -0.2533,-1.596276 -1.332719,-2.905206 -3.155608,-3.8251897 -1.644264,-0.8298295 -3.727764,-1.2720148 -5.846382,-1.279671 z m 9.165234,8.8843977 c 0.06827,7.08e-4 0.137232,0.0073 0.207515,0.01937 0.815602,0.139866 1.343656,0.867152 1.228488,1.690554 -0.111203,0.79504 -0.644403,1.610271 -1.171767,1.79016 -0.281415,0.09601 -0.716992,0.03321 -1.007139,-0.14526 -0.28106,-0.172877 -0.526317,-0.468092 -0.626694,-0.752586 -0.04556,-0.129116 -0.04398,-0.144797 0.07332,-0.506337 0.06659,-0.205283 0.203841,-0.705056 0.304354,-1.110895 l 0.182613,-0.73737 0.193681,-0.09684 c 0.210776,-0.104043 0.410808,-0.153021 0.615627,-0.150793 z"/>
  <path style="fill:#ffffff" d="m 16.142054,7.0001009 c -0.963007,-0.00347 -1.934053,0.082276 -2.873388,0.2628522 -3.15303,0.6061324 -5.3455715,2.0773917 -6.0428288,4.0534549 -0.2240655,0.635007 -0.2642306,1.049881 -0.1950634,2.021193 0.2357555,3.310543 1.4505191,6.18006 3.4751802,8.209283 1.365861,1.368944 3.061176,2.223902 4.794974,2.419622 0.139667,0.01576 0.468468,0.03086 0.730452,0.0332 1.169626,0.01019 2.241686,-0.243767 3.347903,-0.792705 1.2141,-0.602474 2.355865,-1.574837 3.238615,-2.758563 0.110664,-0.148399 0.212299,-0.283446 0.226883,-0.300205 0.0159,-0.01825 0.0997,0.04023 0.208897,0.146644 0.867816,0.845736 2.161024,1.140706 3.166675,0.722151 1.594364,-0.66357 2.643295,-2.78852 2.207957,-4.472634 -0.08545,-0.330579 -0.300999,-0.795215 -0.496652,-1.069393 -0.592861,-0.830823 -1.574606,-1.347561 -2.57595,-1.355763 -0.415012,-0.0034 -0.387071,0.03707 -0.291904,-0.420563 0.103704,-0.498698 0.139363,-1.221138 0.08024,-1.593713 -0.2533,-1.596276 -1.332719,-2.9052068 -3.155608,-3.8251901 -1.644264,-0.8298295 -3.727764,-1.2720148 -5.846382,-1.279671 z m 9.165234,8.8843981 c 0.06827,7.08e-4 0.137232,0.0073 0.207515,0.01937 0.815602,0.139866 1.343656,0.867152 1.228488,1.690554 -0.111203,0.79504 -0.644403,1.610271 -1.171767,1.79016 -0.281415,0.09601 -0.716992,0.03321 -1.007139,-0.14526 -0.28106,-0.172877 -0.526317,-0.468092 -0.626694,-0.752586 -0.04556,-0.129116 -0.04398,-0.144797 0.07332,-0.506337 0.06659,-0.205283 0.203841,-0.705056 0.304354,-1.110895 l 0.182613,-0.73737 0.193681,-0.09684 c 0.210776,-0.104043 0.410808,-0.153021 0.615627,-0.150793 z"/>
  <path style="fill:#c0ca33" d="M 16.033334,8 A 7.3333336,4.0000001 0 0 1 23.366668,12.000001 7.3333336,4.0000001 0 0 1 16.033334,16 7.3333336,4.0000001 0 0 1 8.7,12.000001 7.3333336,4.0000001 0 0 1 16.033334,8 Z"/>
  <path style="opacity:0.2" d="m 16.033203,8 a 7.3333336,4.0000001 0 0 0 -7.3339842,4 7.3333336,4.0000001 0 0 0 0.0625,0.5 A 7.3333336,4.0000001 0 0 1 16.033203,9 7.3333336,4.0000001 0 0 1 23.308594,12.496094 7.3333336,4.0000001 0 0 0 23.367188,12 7.3333336,4.0000001 0 0 0 16.033203,8 Z"/>
  <path style="opacity:0.2;fill:#ffffff" d="M 16,2 A 14,14 0 0 0 2,16 14,14 0 0 0 2.0351562,16.5 14,14 0 0 1 16,3 14,14 0 0 1 29.980469,16.279297 14,14 0 0 0 30,16 14,14 0 0 0 16,2 Z"/>
 </g>
</svg>
