<svg xmlns="http://www.w3.org/2000/svg" width="32" height="32" version="1">
 <g id="22-22-ktorrent" transform="translate(32,10)">
  <rect style="opacity:0.001" width="22" height="22" x="0" y="0"/>
  <path style="fill:#dfdfdf" d="M 8.6953125,3 C 8.3523605,3 8.0433531,3.3617296 8,3.8066406 V 10 H 4 l 7,7 7,-7 H 14 V 3.8066406 C 14,3.3597156 13.64764,3 13.304688,3 Z M 11,17 H 3.8007813 C 3.3575813,17 3,17.446 3,18 c 0,0.554 0.3575813,1 0.8007813,1 H 18.199219 C 18.642419,19 19,18.554 19,18 19,17.446 18.642419,17 18.199219,17 Z"/>
 </g>
 <g id="ktorrent">
  <rect style="opacity:0.001" width="32" height="32" x="0" y="0"/>
  <g>
   <path style="opacity:0.2" d="M 11.443,3 C 10.843,3 10.076,3.6335 10,4.4121 v 10.588 H 4 l 12,12 12,-12 H 22 V 4.4121 c 0,-0.782 -0.843,-1.412 -1.443,-1.412 H 11.443 Z M 3.4004,28 C 2.6248,28 2,28.669 2,29.5 2,30.331 2.6248,31 3.4004,31 h 25.2 c 0.775,0 1.4,-0.669 1.4,-1.5 0,-0.831 -0.625,-1.5 -1.4,-1.5 z"/>
   <path style="fill:#358de7" d="M 11.443,2 C 10.843,2 10.076,2.6335 10,3.4121 v 10.588 H 4 l 12,12 12,-12 H 22 V 3.4121 c 0,-0.782 -0.843,-1.412 -1.443,-1.412 H 11.443 Z M 3.4004,27 C 2.6248,27 2,27.669 2,28.5 2,29.331 2.6248,30 3.4004,30 h 25.2 c 0.775,0 1.4,-0.669 1.4,-1.5 0,-0.831 -0.625,-1.5 -1.4,-1.5 z"/>
   <path style="opacity:0.2;fill:#ffffff" d="M 11.443,2 C 10.843,2 10.076,2.6335 10,3.4121 v 1 C 10.076,3.6335 10.843,3 11.443,3 h 9.114 C 21.157,3 22,3.63 22,4.4121 v -1 C 22,2.63 21.157,2 20.557,2 Z M 4,14 5,15 h 5 v -1 z m 18,0 v 1 h 5 l 1,-1 z M 3.4,27 c -0.7756,0 -1.4004,0.669 -1.4004,1.5 0,0.177 0.034,0.343 0.0859,0.5 C 2.2779,28.418 2.7894,28 3.4,28 h 25.2 c 0.61,0 1.122,0.418 1.314,1 C 29.966,28.843 30,28.677 30,28.5 30,27.669 29.375,27 28.6,27 H 16 Z"/>
  </g>
 </g>
</svg>
