<svg xmlns="http://www.w3.org/2000/svg" width="32" height="32" version="1">
 <g id="ktorrent">
  <rect style="opacity:0.001" width="32" height="32" x="0" y="0"/>
  <path style="opacity:0.2" d="m 17,10 c -0.552,0 -1,0.448 -1,1 0,0.552 0.448,1 1,1 0.552,0 1,-0.448 1,-1 0,-0.552 -0.448,-1 -1,-1 z M 5,12 c -0.552,0 -1,0.448 -1,1 0,0.552 0.448,1 1,1 0.552,0 1,-0.448 1,-1 0,-0.552 -0.448,-1 -1,-1 z m 3.7519531,1 c -0.2807281,0.013 -0.6074254,0.299366 -0.2695312,0.695312 0.4798281,0.563628 0.7325037,1.566607 0.3046875,1.767579 -0.4300139,0.200971 -0.3994067,-0.747257 -0.4375,-1.251953 -0.037361,-0.504696 -1.2284316,-0.809176 -1.6679688,-0.183594 -0.4395372,0.625582 0.00236,1.299551 0.4375,1.435547 0.4351418,0.136751 0.5031244,0.651384 0.7617188,1.185547 0.259327,0.534161 1.520449,0.400432 1.828125,0 C 10.016661,16.248005 10.208611,15.503186 9.609375,14.816406 9.0101393,14.129626 9.1911931,13.491193 9.0292969,13.140625 8.9890059,13.052985 8.9033388,13.009067 8.8066406,13 v 0.002 C 8.7885556,13.0004 8.7706686,12.9992 8.7519531,13 Z m 3.7285159,0 c -0.01043,5.88e-4 -0.02095,0.0026 -0.03125,0.0039 v -0.002 c -0.04677,0.0057 -0.09275,0.021 -0.136719,0.04102 -0.353181,0.158716 -0.471948,0.673258 -0.0078,1.757812 0.464859,1.084555 1.127287,1.83645 1.480468,1.677735 0.353181,-0.158715 0.261036,-1.165446 -0.203125,-2.25 C 13.188498,13.308753 12.803748,12.981776 12.480469,13 Z m 9.892578,0 c -0.357428,0.0078 -0.510909,0.717971 -0.601563,1.386719 -0.0967,0.713331 -0.460555,1.448827 -0.146484,1.591797 0.435521,0.190121 0.658399,-0.978739 1.150391,-1.416016 0.491992,-0.438037 0.08264,-1.457674 -0.328125,-1.552734 v -0.002 c -0.02567,-0.0059 -0.05039,-0.0083 -0.07422,-0.0078 z M 26,13 c -0.552,0 -1,0.448 -1,1 0,0.552 0.448,1 1,1 0.552,0 1,-0.448 1,-1 0,-0.552 -0.448,-1 -1,-1 z M 10.710938,13.5 C 10.314842,13.5201 10,13.848938 10,14.25 c 0,0.414 0.336,0.75 0.75,0.75 0.414,0 0.75,-0.336 0.75,-0.75 0,-0.414 -0.336,-0.75 -0.75,-0.75 -0.01294,0 -0.02628,-6.48e-4 -0.03906,0 z m 8.794921,0.464844 c -0.456773,0.0336 -0.911298,0.809356 -1.134765,1.347656 -0.255793,0.6146 0.05341,1.814272 -0.548828,2.263672 -0.602238,0.4501 -1.042983,0.46115 -1.34375,0.28125 -0.300767,-0.1799 0.257776,-0.156497 -0.07813,-0.841797 -0.336606,-0.6853 -1.140744,-0.469647 -1.351563,0.06445 -0.210818,0.5341 0.225308,0.509219 0.07422,0.824219 -0.150383,0.315 -1.530396,0.355156 -1.816406,-0.589844 -0.28601,-0.945 -1.302913,-1.97355 -1.619141,-1.71875 -0.316227,0.2548 0.03742,1.193659 0.865234,1.943359 0.827813,0.749701 -0.212047,1.154044 -0.93164,0.589844 -0.719594,-0.5649 -1.565762,0.42875 -2.2207034,1.09375 -0.6556447,0.6643 -1.2404202,0.708847 -1.7070312,0.310547 -0.4659084,-0.3976 -0.055461,-1.478606 -0.59375,-2.566406 -0.5375866,-1.0878 -1.6074288,-0.545547 -1.7578125,0.189453 -0.1503837,0.735 1.3495229,1.228619 1.0585937,1.636719 -0.2909292,0.4081 -1.453944,0.415784 -1.796875,-0.353516 C 4.2612873,17.670153 3.5147573,17.919528 3.5,18.548828 c -0.014757,0.63 0.5786209,0.09018 1.0410156,0.550781 0,0 8.4309714,11.900391 11.9453124,11.900391 3.51434,0 11.947266,-11.900391 11.947266,-11.900391 1.405455,-1.4 -0.203468,-0.799375 -0.535156,-0.484375 -0.330985,0.315 -1.355694,0.56971 -1.476563,0.22461 -0.120166,-0.3451 1.14661,-0.9226 1.507813,-1.3125 0.361201,-0.3899 0.714826,-1.498297 0.130859,-1.904297 -0.583967,-0.406 -1.41239,0.327487 -1.771485,0.867187 -0.361201,0.5397 -0.04723,1.913985 -0.529296,2.333985 -0.482071,0.42 -0.747942,0.164487 -0.837891,-0.195313 -0.09065,-0.3598 1.040748,-0.864465 0.566406,-1.759765 -0.475043,-0.8953 -1.351635,-0.489613 -1.757812,-0.07031 -0.406176,0.42 0.243444,1.066463 0.394531,1.726563 0.150384,0.6601 -1.389951,0.642443 -1.992188,0.402343 -0.602237,-0.2401 -0.798894,-1.74759 -1.054687,-1.83789 -0.255793,-0.0903 -0.808204,0.799722 -1.636719,0.544922 -0.827813,-0.2548 -0.140558,-0.763382 0.115235,-1.363282 C 19.812434,15.671584 20.218379,14.2268 19.701172,14 19.636522,13.9713 19.57051,13.959944 19.505859,13.964844 Z M 2.2109375,15.5 C 1.8148417,15.5201 1.5,15.848938 1.5,16.25 1.5,16.664 1.836,17 2.25,17 2.664,17 3,16.664 3,16.25 3,15.836 2.664,15.5 2.25,15.5 c -0.012938,0 -0.026285,-6.48e-4 -0.039063,0 z m 27.5000005,1 C 29.314842,16.5201 29,16.848938 29,17.25 c 0,0.414 0.336,0.75 0.75,0.75 0.414,0 0.75,-0.336 0.75,-0.75 0,-0.414 -0.336,-0.75 -0.75,-0.75 -0.01294,0 -0.02629,-6.48e-4 -0.03906,0 z"/>
  <rect style="fill:#2c96ff" width="11" height="20" x="11" y="2" rx="2.75" ry="2.759"/>
  <path style="fill:#275ce3" d="m 17,9 c -0.552,0 -1,0.448 -1,1 0,0.552 0.448,1 1,1 0.552,0 1,-0.448 1,-1 C 18,9.448 17.552,9 17,9 Z M 5,11 c -0.552,0 -1,0.448 -1,1 0,0.552 0.448,1 1,1 0.552,0 1,-0.448 1,-1 0,-0.552 -0.448,-1 -1,-1 z m 3.7519531,1 c -0.2807281,0.013 -0.6074254,0.299366 -0.2695312,0.695312 0.4798281,0.563628 0.7325037,1.566607 0.3046875,1.767579 -0.4300139,0.200971 -0.3994067,-0.747257 -0.4375,-1.251953 -0.037361,-0.504696 -1.2284316,-0.809176 -1.6679688,-0.183594 -0.4395372,0.625582 0.00236,1.299551 0.4375,1.435547 0.4351418,0.136751 0.5031244,0.651384 0.7617188,1.185547 0.259327,0.534161 1.520449,0.400432 1.828125,0 C 10.016661,15.248005 10.208611,14.503186 9.609375,13.816406 9.0101393,13.129626 9.1911931,12.491193 9.0292969,12.140625 8.9890059,12.052985 8.9033388,12.009067 8.8066406,12 v 0.002 C 8.7885556,12.0004 8.7706686,11.9992 8.7519531,12 Z m 3.7285159,0 c -0.01043,5.88e-4 -0.02095,0.0026 -0.03125,0.0039 v -0.002 c -0.04677,0.0057 -0.09275,0.021 -0.136719,0.04102 -0.353181,0.158716 -0.471948,0.673258 -0.0078,1.757812 0.464859,1.084555 1.127287,1.83645 1.480468,1.677735 0.353181,-0.158715 0.261036,-1.165446 -0.203125,-2.25 C 13.188498,12.308753 12.803748,11.981776 12.480469,12 Z m 9.892578,0 c -0.357428,0.0078 -0.510909,0.717971 -0.601563,1.386719 -0.0967,0.713331 -0.460555,1.448827 -0.146484,1.591797 0.435521,0.190121 0.658399,-0.978739 1.150391,-1.416016 0.491992,-0.438037 0.08264,-1.457674 -0.328125,-1.552734 v -0.002 c -0.02567,-0.0059 -0.05039,-0.0083 -0.07422,-0.0078 z M 26,12 c -0.552,0 -1,0.448 -1,1 0,0.552 0.448,1 1,1 0.552,0 1,-0.448 1,-1 0,-0.552 -0.448,-1 -1,-1 z M 10.710938,12.5 C 10.314842,12.5201 10,12.848938 10,13.25 c 0,0.414 0.336,0.75 0.75,0.75 0.414,0 0.75,-0.336 0.75,-0.75 0,-0.414 -0.336,-0.75 -0.75,-0.75 -0.01294,0 -0.02628,-6.48e-4 -0.03906,0 z m 8.794921,0.464844 c -0.456773,0.0336 -0.911298,0.809356 -1.134765,1.347656 -0.255793,0.6146 0.05341,1.814272 -0.548828,2.263672 -0.602238,0.4501 -1.042983,0.46115 -1.34375,0.28125 -0.300767,-0.1799 0.257776,-0.156497 -0.07813,-0.841797 -0.336606,-0.6853 -1.140744,-0.469647 -1.351563,0.06445 -0.210818,0.5341 0.225308,0.509219 0.07422,0.824219 -0.150383,0.315 -1.530396,0.355156 -1.816406,-0.589844 -0.28601,-0.945 -1.302913,-1.97355 -1.619141,-1.71875 -0.316227,0.2548 0.03742,1.193659 0.865234,1.943359 0.827813,0.749701 -0.212047,1.154044 -0.93164,0.589844 -0.719594,-0.5649 -1.565762,0.42875 -2.2207034,1.09375 -0.6556447,0.6643 -1.2404202,0.708847 -1.7070312,0.310547 -0.4659084,-0.3976 -0.055461,-1.478606 -0.59375,-2.566406 -0.5375866,-1.0878 -1.6074288,-0.545547 -1.7578125,0.189453 -0.1503837,0.735 1.3495229,1.228619 1.0585937,1.636719 -0.2909292,0.4081 -1.453944,0.415784 -1.796875,-0.353516 C 4.2612873,16.670153 3.5147573,16.919528 3.5,17.548828 c -0.014757,0.63 0.5786209,0.09018 1.0410156,0.550781 0,0 8.4309714,11.900391 11.9453124,11.900391 3.51434,0 11.947266,-11.900391 11.947266,-11.900391 1.405455,-1.4 -0.203468,-0.799375 -0.535156,-0.484375 -0.330985,0.315 -1.355694,0.56971 -1.476563,0.22461 -0.120166,-0.3451 1.14661,-0.9226 1.507813,-1.3125 0.361201,-0.3899 0.714826,-1.498297 0.130859,-1.904297 -0.583967,-0.406 -1.41239,0.327487 -1.771485,0.867187 -0.361201,0.5397 -0.04723,1.913985 -0.529296,2.333985 -0.482071,0.42 -0.747942,0.164487 -0.837891,-0.195313 -0.09065,-0.3598 1.040748,-0.864465 0.566406,-1.759765 -0.475043,-0.8953 -1.351635,-0.489613 -1.757812,-0.07031 -0.406176,0.42 0.243444,1.066463 0.394531,1.726563 0.150384,0.6601 -1.389951,0.642443 -1.992188,0.402343 -0.602237,-0.2401 -0.798894,-1.74759 -1.054687,-1.83789 -0.255793,-0.0903 -0.808204,0.799722 -1.636719,0.544922 -0.827813,-0.2548 -0.140558,-0.763382 0.115235,-1.363282 C 19.812434,14.671584 20.218379,13.2268 19.701172,13 19.636522,12.9713 19.57051,12.959944 19.505859,12.964844 Z M 2.2109375,14.5 C 1.8148417,14.5201 1.5,14.848938 1.5,15.25 1.5,15.664 1.836,16 2.25,16 2.664,16 3,15.664 3,15.25 3,14.836 2.664,14.5 2.25,14.5 c -0.012938,0 -0.026285,-6.48e-4 -0.039063,0 z m 27.5000005,1 C 29.314842,15.5201 29,15.848938 29,16.25 c 0,0.414 0.336,0.75 0.75,0.75 0.414,0 0.75,-0.336 0.75,-0.75 0,-0.414 -0.336,-0.75 -0.75,-0.75 -0.01294,0 -0.02629,-6.48e-4 -0.03906,0 z"/>
  <path style="opacity:0.2;fill:#ffffff" d="M 13.75,2 C 12.2265,2 11,3.2295366 11,4.7578125 v 1 C 11,4.2295366 12.2265,3 13.75,3 h 5.5 C 20.7735,3 22,4.2295366 22,5.7578125 v -1 C 22,3.2295366 20.7735,2 19.25,2 Z"/>
 </g>
 <g id="22-22-ktorrent">
  <rect style="opacity:0.001" width="22" height="22" x="32" y="10"/>
  <path style="fill:#dfdfdf" d="M 41.5,13 C 40.669,13 40,13.67716 40,14.517578 V 21 h 6 V 14.517578 C 46,13.67716 45.331,13 44.5,13 Z M 36,22 c 0,0 4,7.000001 7,7 3,1e-6 7,-7 7,-7 z"/>
 </g>
</svg>
