<svg xmlns="http://www.w3.org/2000/svg" width="32" height="32" version="1.1">
 <g id="22-22-lutris" transform="translate(32,10)">
  <rect style="opacity:0.001" width="22" height="22" x="0" y="0"/>
  <path style="fill:#dfdfdf" d="M 10.74648,3 C 6.5616824,2.99625 3.1127093,6.4426505 3.0027025,10.791016 2.8908177,15.208404 6.266939,18.884506 10.541412,19 c 3.45866,0.002 6.458715,-1.99765 7.185209,-5.257812 -1.072557,1.781235 -3.082126,2.333415 -4.876724,2.328124 -1.476971,-0.01224 -3.1164697,-0.356705 -4.3767477,-1.048828 -1.6464769,-0.911001 -1.5263937,-2.050513 -1.4725872,-2.847656 0.031089,-0.459186 0.2552824,-1.236413 0.8495696,-1.988281 0.192502,0.07091 0.3789271,0.155046 0.5448963,0.271484 0.4095878,0.276586 0.779476,0.690649 1.3046265,0.503907 C 10.058683,10.834994 10.0775,10.620219 9.9398775,10.269531 9.823659,9.9843942 9.63254,9.4934669 9.3949811,9.3046875 9.3004556,9.2298685 9.1622927,9.1832643 9.0141397,9.1425781 9.2654439,8.9823566 9.5388107,8.83116 9.851991,8.6992188 10.725887,8.3905772 11.694766,8.214942 12.63311,8.2265625 c 0.191785,0.2924412 0.36378,0.5935439 0.667937,0.7109375 0.508061,0.2064296 0.718609,-0.1307116 0.699187,-0.5410156 0.04719,0.013443 0.09601,0.022113 0.142571,0.037109 1.004669,0.2267407 1.728072,0.5180353 2.683468,0.8554687 0,0 -0.0082,0.016614 0.255847,0.082031 0.773302,0.1225117 1.224281,-0.093624 1.49993,-0.3828126 0.06638,-0.00381 0.129729,-0.027928 0.187491,-0.099609 0.104435,-0.1295163 0.302868,-0.3184787 0.189444,-0.5996094 0.03613,-0.1525268 0.04101,-0.2597656 0.04101,-0.2597656 l -0.05273,-0.2988281 -0.162102,-0.4042969 -0.07617,-0.171875 -0.01562,-0.03125 C 18.771739,7.0585549 18.83149,6.9496881 18.841804,6.8144531 18.858293,6.6000209 18.751008,6.414026 18.60158,6.3886719 18.601255,6.1509994 18.587078,5.8793655 18.54299,5.5097656 18.482193,4.9998633 18.147582,4.7980076 18.039107,4.71875 17.930389,4.639635 17.422945,4.2569446 16.937596,4.0664062 16.451949,3.875866 15.962175,3.7350873 15.357592,3.8203125 c -0.06713,0.00949 -0.131072,0.019368 -0.197257,0.029297 -0.01172,-0.00372 -0.02052,-0.00796 -0.0332,-0.011719 -0.230544,-0.068484 -0.393663,-0.4420136 -0.582004,-0.4375 -0.01441,3.457e-4 -0.03017,0.00236 -0.04492,0.00391 -0.01452,0.00152 -0.02803,0.00307 -0.04297,0.00586 h -0.002 c -0.01522,0.00284 -0.02919,0.00745 -0.04492,0.011719 -0.01718,0.00466 -0.03528,0.010376 -0.05078,0.017578 -0.11022,0.051252 -0.176991,0.2445701 -0.21874,0.3710938 C 13.173903,3.321627 12.092337,3.0348136 10.945689,3.0039062 10.878903,3.0020963 10.812905,3.00006 10.74648,3 Z m 5.693092,3.0039062 c 0.126994,-0.015117 0.260373,0.018183 0.369124,0.1035157 0.217747,0.1710387 0.255482,0.4841558 0.08593,0.7011719 -0.170042,0.2170151 -0.483516,0.2543995 -0.701139,0.083984 -0.217625,-0.1712882 -0.258047,-0.484031 -0.08789,-0.7011719 0.08484,-0.1083204 0.206974,-0.1723825 0.333968,-0.1875 z"/>
  <path style="opacity:0.35;fill:#dfdfdf" d="m 12.322581,9.2781112 c -0.538112,0.019536 -1.077175,0.130022 -1.605394,0.2734707 0.05261,0.1210992 0.116987,0.2646962 0.148431,0.3418385 a 1.0000531,1.0002218 0 0 1 0.0059,0.01172 c 0.09985,0.2544336 0.232915,0.5903186 0.0957,1.0704436 -0.136932,0.47912 -0.593782,0.807271 -0.935505,0.927847 -0.5510901,0.194101 -1.1579731,0.04918 -1.5077411,-0.142596 -0.121435,-0.06658 -0.148347,-0.101499 -0.238271,-0.164082 -0.07932,0.223321 -0.280519,0.547281 -0.287095,0.642656 -0.02812,0.416524 -0.04214,0.731782 0.04687,0.994263 0.08873,0.261637 0.253777,0.547005 0.90816,0.910267 l 0.0039,0.002 c 1.0622411,0.582278 2.5739141,0.912946 3.9002081,0.92394 1.586006,0.0039 3.177237,-0.458495 4.011531,-1.843974 a 1.0000531,1.0002218 0 0 1 1.074164,-0.462994 5.9995838,6.0008577 0 0 0 0.05664,-0.761812 5.9995838,6.0008577 0 0 0 -0.230458,-1.631058 c -0.267672,0.03008 -0.547817,0.03711 -0.843711,-0.0098 a 1.0000531,1.0002218 0 0 1 -0.08398,-0.01758 c -0.153558,-0.03804 -0.240601,-0.0609 -0.357405,-0.107431 -0.0047,-0.0019 -0.01668,-0.0099 -0.02148,-0.01172 -0.721985,-0.2555625 -1.294497,-0.4371537 -1.915926,-0.615309 -0.0032,0.00318 -6.06e-4,0.0066 -0.0039,0.00977 -0.418004,0.403551 -1.132705,0.436325 -1.607358,0.2480724 C 12.551367,9.7151061 12.497915,9.4988438 12.322609,9.2781112 Z"/>
 </g>
 <g id="lutris">
  <rect style="opacity:0.001" width="32" height="32" x="0" y="0"/>
  <path style="opacity:0.2" d="M 15.555987,2.5012306 C 8.2319057,2.4946636 2.1972607,8.5261364 2.0047299,16.134517 1.8089134,23.863665 7.7153964,30.293051 15.196425,30.495132 c 3.644634,0.09838 6.489848,-1.299619 8.985797,-3.653043 0.266507,-0.222354 0.411514,-0.36093 0.411514,-0.36093 0,0 2.706631,-2.840733 2.851889,-5.185626 -0.690631,1.140972 -1.324144,2.283368 -3.04329,3.129422 -0.788426,0.365213 -1.511085,0.675939 -2.239403,0.921464 -0.04663,0.01187 -0.09346,0.02288 -0.140818,0.03418 -0.34497,0.08234 -0.706528,0.151501 -1.085522,0.203705 -0.04593,0.0063 -0.09308,0.01189 -0.13945,0.01777 -0.393066,0.04985 -0.798923,0.08615 -1.218136,0.103904 -0.04315,0.0018 -0.08787,0.0013 -0.131247,0.0027 -0.41357,0.01415 -0.836549,0.01293 -1.265988,-0.0041 -0.02802,-0.0011 -0.05533,-1.21e-4 -0.0834,-0.0014 -0.436715,-0.01937 -0.380042,-0.05897 -0.823872,-0.110739 -0.06334,-0.0074 -0.126655,-0.01245 -0.190035,-0.02051 -0.432038,-0.0549 -0.863904,-0.127433 -1.29333,-0.213276 -0.06938,-0.01387 -0.138621,-0.02771 -0.207808,-0.04238 -0.420232,-0.08918 -0.836695,-0.193847 -1.24548,-0.313079 -0.131063,-0.03823 -0.261637,-0.07761 -0.391007,-0.118943 -0.09777,-0.03124 -0.195893,-0.06131 -0.292571,-0.09433 -0.138158,-0.04719 -0.273122,-0.0982 -0.40878,-0.149021 C 13.134844,24.59945 13.023426,24.559 12.914636,24.515122 12.78857,24.464272 12.666097,24.409276 12.54277,24.355165 12.438251,24.309305 12.332067,24.265285 12.229691,24.217082 12.006797,24.112124 11.787699,24.002357 11.57619,23.88623 11.407862,23.79312 11.247663,23.695628 11.094951,23.593658 10.744245,23.359485 10.43816,23.101384 10.163917,22.830785 8.7361641,21.373776 8.8024519,19.660604 8.877423,18.550217 c 0.094459,-1.394769 1.263818,-4.454927 5.111798,-6.075644 2.37751,-0.839468 5.173643,-1.426575 7.51116,-0.674008 1.758334,0.396731 3.022714,0.973616 4.694816,1.564027 0,0 -0.01353,0.0291 0.448427,0.143552 3.251893,0.515123 2.886868,-2.16384 2.886868,-2.16384 l -0.254887,-0.626928 v 0 c -0.05638,-0.330366 0.191069,-0.590913 0.191069,-0.590913 0,0 -0.200442,-0.7387257 -0.16666,-1.2269389 0.03424,-0.4879884 0.0066,-1.1135006 -0.0998,-2.0056186 C 29.093803,6.0017239 28.508238,5.2467234 28.318395,5.1080456 28.128118,4.9696178 27.241514,4.3012231 26.392071,3.9678369 25.542109,3.6344463 24.683066,3.3880631 23.624946,3.5371825 c -0.117485,0.016613 -0.228689,0.034578 -0.344523,0.051952 -0.02051,-0.00651 -0.0366,-0.013927 -0.05879,-0.020507 -0.403487,-0.1198269 -0.688905,-1.073407 -1.018531,-1.0655094 -0.02523,6.049e-4 -0.05074,0.00276 -0.07656,0.00547 -0.02542,0.00266 -0.05179,0.00606 -0.07793,0.010937 h -0.0014 c -0.02664,0.00497 -0.05313,0.011676 -0.08066,0.01914 -0.03006,0.00816 -0.05902,0.018843 -0.08613,0.031445 -0.192902,0.089676 -0.311075,1.1274854 -0.384142,1.3488651 -1.692467,-0.8554742 -3.584846,-1.3581969 -5.591668,-1.412276 -0.116888,-0.00316 -0.23237,-0.00536 -0.348625,-0.00547 z m 7.457316,22.5881624 c -0.248456,0.0926 -0.518157,0.170957 -0.795685,0.243356 0.277371,-0.07236 0.547395,-0.150823 0.795685,-0.243356 z"/>
  <path style="fill:#f8952b" d="M 17.499762,6.5004757 A 10.499764,10.499764 0 0 0 6.9999984,17.000239 10.499764,10.499764 0 0 0 17.499762,27.500002 10.499764,10.499764 0 0 0 27.999526,17.000239 10.499764,10.499764 0 0 0 17.499762,6.5004757 Z"/>
  <path style="fill:#946857" d="m 17.289998,10.021492 c 1.30062,0.307751 1.441738,1.965386 2.487932,2.369071 1.396,0.567061 1.515052,-1.208137 0.7943,-2.146826"/>
  <path style="opacity:0.2" d="m 21.462974,6.5127949 c -1.465005,-0.00175 -3.05321,0.426933 -4.213158,0.8303353 -2.199722,0.7784014 -3.571309,1.4083438 -5.353657,2.6820888 -0.472619,0.34319 -2.3298473,1.70685 -3.458322,3.608445 -3.1185909,5.513629 -0.9120173,11.368037 3.120844,12.698298 4.433892,1.658181 8.678089,2.137095 14.016425,-2.580684 -0.459493,0.367735 0,0 -2.562157,1.335117 -3.019834,1.125437 -7.854828,0.763924 -11.436709,-1.202673 -2.8816027,-1.593988 -2.5924133,-3.940994 -2.4982416,-5.335764 0.094459,-1.394769 1.0638066,-4.455448 4.9117866,-6.076165 2.37751,-0.839468 5.173146,-1.426534 7.510663,-0.673966 1.758335,0.39673 3.022223,1.11463 4.694324,1.705041 0,0 -0.01377,0.02866 0.44819,0.143124 3.251893,0.515055 3.357036,-2.346752 3.357036,-2.346752 l -0.09272,-0.521442 -0.28309,-0.707504 -0.134907,-0.3031255 -0.08137,-0.164272 c 0,0 -0.02345,-0.2068301 -0.05632,-0.4169836 C 29.289311,9.9714375 28.97651,10.397962 28.97651,10.397962 26.449047,9.9187645 25.997298,7.739595 23.332395,6.824892 22.769164,6.6033847 22.128885,6.5135894 21.462974,6.5127949 Z m 4.112132,17.2384831 c 0.294389,-0.235601 0.437011,-0.396585 0.437055,-0.396476 -0.146194,0.136593 -0.291749,0.268062 -0.437055,0.396476 z"/>
  <path style="fill:#946857" d="M 15.555987,1.500619 C 8.2319057,1.494052 2.1972607,7.5255248 2.0047299,15.133905 1.8089134,22.863053 7.7153964,29.292439 15.196425,29.49452 c 3.644634,0.09838 6.489848,-1.299619 8.985797,-3.653043 0.266507,-0.222354 0.411514,-0.36093 0.411514,-0.36093 0,0 2.706631,-2.840733 2.851889,-5.185626 -0.690631,1.140972 -1.324144,2.283368 -3.04329,3.129422 -0.788426,0.365213 -1.511085,0.675939 -2.239403,0.921464 -0.04663,0.01187 -0.09346,0.02288 -0.140818,0.03418 -0.34497,0.08234 -0.706528,0.151501 -1.085522,0.203705 -0.04593,0.0063 -0.09308,0.01189 -0.13945,0.01777 -0.393066,0.04985 -0.798923,0.08615 -1.218136,0.103904 -0.04315,0.0018 -0.08787,0.0013 -0.131247,0.0027 -0.41357,0.01415 -0.836549,0.01293 -1.265988,-0.0041 -0.02802,-0.0011 -0.05533,-1.21e-4 -0.0834,-0.0014 -0.436715,-0.01937 -0.380042,-0.05897 -0.823872,-0.110739 -0.06334,-0.0074 -0.126655,-0.01245 -0.190035,-0.02051 -0.432038,-0.0549 -0.863904,-0.127433 -1.29333,-0.213276 -0.06938,-0.01387 -0.138621,-0.02771 -0.207808,-0.04238 -0.420232,-0.08918 -0.836695,-0.193847 -1.24548,-0.313079 -0.131063,-0.03823 -0.261637,-0.07761 -0.391007,-0.118943 -0.09777,-0.03124 -0.195893,-0.06131 -0.292571,-0.09433 -0.138158,-0.04719 -0.273122,-0.0982 -0.40878,-0.149021 -0.110644,-0.04145 -0.222062,-0.0819 -0.330852,-0.125778 C 12.78857,23.46366 12.666097,23.408664 12.54277,23.354553 12.438251,23.308693 12.332067,23.264673 12.229691,23.21647 12.006797,23.111512 11.787699,23.001745 11.57619,22.885618 11.407862,22.792508 11.247663,22.695016 11.094951,22.593046 10.744245,22.358873 10.43816,22.100772 10.163917,21.830173 8.7361641,20.373164 8.8024519,18.659992 8.877423,17.549605 c 0.094459,-1.394769 1.263818,-4.454927 5.111798,-6.075644 2.37751,-0.839468 5.173643,-1.426575 7.51116,-0.674008 1.758334,0.396731 3.022714,0.973616 4.694816,1.564027 0,0 -0.01353,0.0291 0.448427,0.143552 3.251893,0.515123 2.886868,-2.16384 2.886868,-2.16384 L 29.275605,9.7167645 v 0 c -0.05638,-0.3303658 0.191069,-0.5909126 0.191069,-0.5909126 0,0 -0.200442,-0.7387262 -0.16666,-1.2269394 0.03424,-0.4879884 0.0066,-1.1135006 -0.0998,-2.0056186 C 29.093803,5.0011123 28.508238,4.2461118 28.318395,4.107434 28.128118,3.9690062 27.241514,3.3006115 26.392071,2.9672253 25.542109,2.6338347 24.683066,2.3874515 23.624946,2.5365709 c -0.117485,0.016613 -0.228689,0.034578 -0.344523,0.051952 -0.02051,-0.00651 -0.0366,-0.013927 -0.05879,-0.020507 -0.403487,-0.1198269 -0.688905,-1.073407 -1.018531,-1.0655094 -0.02523,6.049e-4 -0.05074,0.00276 -0.07656,0.00547 -0.02542,0.00266 -0.05179,0.00606 -0.07793,0.010937 h -0.0014 c -0.02664,0.00497 -0.05313,0.011676 -0.08066,0.01914 -0.03006,0.00816 -0.05902,0.018843 -0.08613,0.031445 -0.192902,0.089676 -0.311075,1.1274854 -0.384142,1.3488651 -1.692467,-0.8554742 -3.584846,-1.3581969 -5.591668,-1.412276 -0.116888,-0.00316 -0.23237,-0.00536 -0.348625,-0.00547 z m 7.457316,22.588162 c -0.248456,0.0926 -0.518157,0.170957 -0.795685,0.243356 0.277371,-0.07236 0.547395,-0.150823 0.795685,-0.243356 z"/>
  <path style="opacity:0.2;fill:#ffffff" d="M 15.556639,1.5000025 C 8.2325573,1.4934355 2.1964354,7.5263874 2.0039046,15.134768 c -0.00641,0.253062 0.011065,0.499897 0.017578,0.75 C 2.3395004,8.395928 8.3138041,2.4954615 15.556639,2.5019556 c 0.116255,1.1e-4 0.230768,7.463e-4 0.347656,0.00391 2.006822,0.054079 3.89933,0.5585883 5.591797,1.4140625 0.07307,-0.2213797 0.191863,-1.2599334 0.384765,-1.3496094 0.02711,-0.012602 0.05588,-0.02309 0.08594,-0.03125 0.02753,-0.00746 0.05344,-0.014561 0.08008,-0.019531 h 0.002 c 0.02614,-0.00488 0.0527,-0.00906 0.07813,-0.011719 0.02582,-0.00271 0.05094,-0.0033 0.07617,-0.00391 0.329626,-0.0079 0.614091,0.9446263 1.017578,1.0644532 0.02219,0.00658 0.04004,0.014974 0.06055,0.021484 0.115834,-0.017374 0.226265,-0.036121 0.34375,-0.052734 1.05812,-0.1491194 1.917616,0.09825 2.767578,0.4316406 0.849443,0.3333862 1.735504,1.0002441 1.925781,1.1386719 0.189843,0.1386778 0.776402,0.8949278 0.882813,1.7871093 0.1064,0.892118 0.133849,1.517871 0.09961,2.0058594 -0.01,0.1441524 0.0018,0.3063821 0.02148,0.46875 0.05903,-0.1450489 0.144478,-0.2441406 0.144478,-0.2441406 0,0 -0.199798,-0.7383493 -0.166016,-1.2265625 0.03424,-0.4879884 0.0068,-1.1137414 -0.09961,-2.0058594 C 29.094759,5.000399 28.5082,4.2461022 28.318357,4.1074244 28.12808,3.9689966 27.242019,3.3001856 26.392576,2.9667994 25.542614,2.6334088 24.683118,2.3879925 23.624998,2.5371119 c -0.117485,0.016613 -0.227916,0.033407 -0.34375,0.050781 -0.02051,-0.00651 -0.03836,-0.012951 -0.06055,-0.019531 C 22.817211,2.448535 22.532746,1.494058 22.20312,1.5019556 c -0.02523,6.049e-4 -0.05035,0.00315 -0.07617,0.00586 -0.02542,0.00266 -0.05199,0.00684 -0.07813,0.011719 h -0.002 c -0.02664,0.00497 -0.05255,0.010114 -0.08008,0.017578 -0.03006,0.00816 -0.05883,0.020601 -0.08594,0.033203 -0.192845,0.089675 -0.311641,1.1262759 -0.384708,1.3476557 -1.692467,-0.8554742 -3.584975,-1.3580303 -5.591797,-1.4121094 -0.116888,-0.00316 -0.231401,-0.00575 -0.347656,-0.00586 z M 29.45117,10.14844 c -0.02747,0.03041 -0.228563,0.259078 -0.175781,0.568359 l 0.191406,0.46875 c 0.114123,-0.452779 0.06445,-0.841797 0.06445,-0.841797 z"/>
  <path style="fill:#d3c9c6" d="m 21.462974,5.5148348 c -1.465005,-0.00175 -3.05321,0.426933 -4.213158,0.8303353 -2.199722,0.7784014 -3.571309,1.4083438 -5.353657,2.6820897 -0.472619,0.3431897 -2.3298473,1.7068492 -3.458322,3.6084442 -3.1185909,5.513629 -0.9120173,11.368037 3.120844,12.698298 4.433892,1.658181 8.678089,2.137095 14.016425,-2.580684 -0.459493,0.367735 0,0 -2.562157,1.335117 -3.019834,1.125437 -7.854828,0.763924 -11.436709,-1.202673 -2.8816027,-1.593988 -2.5924133,-3.940994 -2.4982416,-5.335764 0.094459,-1.394769 1.0638066,-4.455448 4.9117866,-6.076165 2.37751,-0.839468 5.173146,-1.426534 7.510663,-0.673966 1.758335,0.39673 3.022223,1.11463 4.694324,1.705041 0,0 -0.01377,0.02866 0.44819,0.143124 3.251893,0.515055 3.357036,-2.346752 3.357036,-2.346752 L 29.907278,9.7798385 29.624188,9.0723339 29.489281,8.7692086 29.407911,8.6049362 c 0,0 -0.02345,-0.2068299 -0.05632,-0.4169834 C 29.289311,8.9734773 28.97651,9.4000025 28.97651,9.4000025 26.449047,8.9208044 25.997298,6.7416349 23.332395,5.8269319 22.769164,5.6054246 22.128885,5.5156293 21.462974,5.5148348 Z m 4.112132,17.2384832 c 0.294389,-0.235601 0.437011,-0.396585 0.437055,-0.396476 -0.146194,0.136593 -0.291749,0.268062 -0.437055,0.396476 z"/>
  <path style="fill:#946857" d="m 8.0181674,12.608247 -0.015169,0.124904 c 1.0170064,-0.05153 2.2634636,0.168848 3.1880776,0.817358 0.716846,0.483945 1.362597,1.206173 2.281696,0.879426 0.628361,-0.220365 0.663275,-0.593523 0.422411,-1.207125 -0.203402,-0.498908 -0.539627,-1.360432 -0.955393,-1.690741 -0.598943,-0.473973 -2.14732,-0.308462 -2.225003,-1.299629 -0.05838,-0.4685125 0.236727,-0.8209059 0.498506,-1.1623777 -4.83e-4,0 -2.9983891,0.7537062 -3.1951256,3.5381847 z"/>
  <path style="opacity:0.2" d="m 29.025224,10.499998 c 0,0 -0.115213,0.36329 -0.656201,0.395169 -0.540776,0.0323 -0.447246,0.784347 0.02168,1.205404 0.46914,0.421273 0.836034,0.536808 1.148723,0.213526 0.312265,-0.322641 1.079212,-0.857948 -0.514204,-1.814099 z"/>
  <path style="fill:#3f3f3f" d="m 29.025224,9.4999981 c 0,0 -0.115213,0.3632904 -0.656201,0.3951694 -0.540776,0.0323 -0.447246,0.7843465 0.02168,1.2054035 0.46914,0.421273 0.836034,0.536808 1.148723,0.213526 0.312265,-0.322641 1.079212,-0.857948 -0.514204,-1.8140989 z"/>
  <path style="opacity:0.2" d="m 25.78863,9.118883 c -0.340116,0.4339785 -0.968457,0.5086815 -1.403747,0.1678939 -0.435289,-0.3425346 -0.513248,-0.9711424 -0.172886,-1.405371 0.33938,-0.4332293 0.968212,-0.5081826 1.403257,-0.1668953 0.435535,0.3420359 0.51251,0.9703932 0.173376,1.4043724 z"/>
  <path style="fill:#3f3f3f" d="m 25.78863,8.1188829 c -0.340116,0.433978 -0.968457,0.5086813 -1.403747,0.1678939 -0.435289,-0.3425346 -0.513248,-0.9711424 -0.172886,-1.405371 0.33938,-0.4332293 0.968212,-0.5081826 1.403257,-0.1668953 0.435535,0.3420359 0.51251,0.9703932 0.173376,1.4043724 z"/>
  <path style="opacity:0.2" d="m 29.722507,9.1750774 c -0.02942,0.3857161 -0.27488,0.6752521 -0.547919,0.6460231 -0.272811,-0.02847 -0.470008,-0.3637313 -0.439899,-0.7501961 0.02965,-0.3852154 0.274649,-0.6745014 0.54746,-0.6457726 0.27281,0.029476 0.470006,0.3644804 0.440358,0.7499456 z"/>
  <path style="fill:#3f3f3f" d="m 29.722507,8.1750773 c -0.02942,0.3857158 -0.27488,0.6752517 -0.547919,0.6460232 -0.272811,-0.028475 -0.470008,-0.3637314 -0.439899,-0.7501962 0.02965,-0.3852154 0.274649,-0.6745014 0.54746,-0.6457726 0.27281,0.029476 0.470006,0.3644804 0.440358,0.7499456 z"/>
 </g>
</svg>
