<svg xmlns="http://www.w3.org/2000/svg" width="32" height="32" version="1.1">
 <g id="22-22-mail-unread" transform="translate(-435.0002,-61)">
  <path style="opacity:0.001" d="m 467.0002,135 h 22 v 22 h -22 z"/>
  <path style="fill:#dfdfdf" d="m 472.00009,140 c -1.108,0 -2,0.892 -2,2 v 8 c 0,1.108 0.892,2 2,2 h 12 c 1.108,0 2,-0.892 2,-2 v -8 c 0,-1.108 -0.892,-2 -2,-2 z m 0,2 6,3 6,-3 v 2 l -6,3 -6,-3 z"/>
 </g>
 <g id="22-22-mail-unread-new" transform="translate(31.99989,64)">
  <path style="opacity:0.001" d="m 1.1e-4,-22 h 22 V 0 h -22 z"/>
  <path style="fill:#dfdfdf" d="m 5,-17 c -1.108,0 -2,0.892 -2,2 v 8 c 0,1.108 0.892,2 2,2 h 11 c -1.645,0 -3,-1.355 -3,-3 0,-1.645 1.355,-3 3,-3 1.645,0 3,1.355 3,3 v -7 c 0,-1.108 -0.892,-2 -2,-2 z m 0,2 6,3 6,-3 v 2 l -6,3 -6,-3 z"/>
  <path style="fill:#4285f4" d="m 16,-10 a 2,2 0 0 0 -2,2 2,2 0 0 0 2,2 2,2 0 0 0 2,-2 2,2 0 0 0 -2,-2 z"/>
 </g>
 <g id="22-22-mail-mark-unread-new" transform="translate(31.99989,32)">
  <path style="opacity:0.001" d="m 1.1e-4,-22 h 22 V 0 h -22 z"/>
  <path style="fill:#dfdfdf" d="m 5,-17 c -1.108,0 -2,0.892 -2,2 v 8 c 0,1.108 0.892,2 2,2 h 11 c -1.645,0 -3,-1.355 -3,-3 0,-1.645 1.355,-3 3,-3 1.645,0 3,1.355 3,3 v -7 c 0,-1.108 -0.892,-2 -2,-2 z m 0,2 6,3 6,-3 v 2 l -6,3 -6,-3 z"/>
  <path style="fill:#4285f4" d="m 16,-10 a 2,2 0 0 0 -2,2 2,2 0 0 0 2,2 2,2 0 0 0 2,-2 2,2 0 0 0 -2,-2 z"/>
 </g>
 <g id="mail-unread" transform="translate(0,64)">
  <rect style="opacity:0.001" width="32" height="32" x="0" y="0"/>
  <path style="fill:#fe9700" d="m 2.63666,10.82625 c -0.02875,0.0187 -0.05481,0.0408 -0.08204,0.0615 l -0.0164,0.0123 v 0.002 c -0.3259,0.2559 -0.53868,0.64951 -0.53868,1.0979 l 1.5e-5,12.199 c 2e-6,2 1.5771,2 2,2 h 24 c 0,0 2,0 2,-2 l -2e-5,-12.199 c 0,-0.45851 -0.22188,-0.86056 -0.56054,-1.1156 l 0.006,-0.008 -13.445,-9.876 c 0,0 -13.445,9.8886 -13.363,9.8271 z"/>
  <path style="opacity:0.2" d="M 2,13 V 29.021484 C 2,30.504984 3,30.999992 4,31 h 24 c 2,0 2,-1.978516 2,-1.978516 V 13 l -14,9.691406 z"/>
  <path style="opacity:0.1;fill:#ffffff" d="m 15.99966,1.00125 c 0,0 -13.445,9.888 -13.363,9.826 l -3e-4,-0.002 c -0.0287,0.019 -0.0548,0.042 -0.082,0.063 l -0.0156,0.011 v 0.002 c -0.3259,0.256 -0.5391,0.65 -0.5391,1.098 v 1.002 c 0,-0.448 0.2132,-0.844 0.5391,-1.1 v -0.002 l 0.0156,-0.011 c 0.0272,-0.021 0.0533,-0.042 0.082,-0.061 -0.082,0.062 13.363,-9.826 13.363,-9.826 l 13.445,9.875 -0.006,0.008 c 0.339,0.255 0.561,0.658 0.561,1.117 v -1.002 c 0,-0.459 -0.222,-0.86 -0.561,-1.115 l 0.006,-0.008 -13.445,-9.875 z"/>
  <rect style="fill:#ebebeb" width="22" height="18" x="5" y="4" rx="1.5" ry="1.499"/>
  <path style="fill:#fec006" d="m 1.99966,11.99925 26,18 h -24 c -1,-8e-6 -2,-0.4945 -2,-1.978 z"/>
  <path style="fill:#fecd38" d="m 27.99966,29.99925 c 2,0 2,-1.978 2,-1.978 v -16.022 l -26,18 z"/>
  <path style="fill:#848484" d="m 15.99966,6.99925 a 5,5 0 0 0 -5,5 5,5 0 0 0 5,5 h 3.5 c 0.277,0 0.5,-0.223 0.5,-0.5 0,-0.277 -0.223,-0.5 -0.5,-0.5 h -3.5 a 4,4 0 0 1 -4,-4 4,4 0 0 1 4,-4 4,4 0 0 1 4,4 v 1.5 c 0,0.277 -0.223,0.5 -0.5,0.5 -0.277,0 -0.5,-0.223 -0.5,-0.5 v -1.5 a 3,3 0 0 0 -3,-3 3,3 0 0 0 -3,3 3,3 0 0 0 3,3 3,3 0 0 0 2.1309,-0.89062 c 0.233,0.525 0.756,0.891 1.369,0.891 0.831,0 1.5,-0.669 1.5,-1.5 v -1.5 a 5,5 0 0 0 -5,-5 z m 0,3 a 2,2 0 0 1 2,2 2,2 0 0 1 -2,2 2,2 0 0 1 -2,-2 2,2 0 0 1 2,-2 z"/>
 </g>
 <g id="mail-unread-new" transform="translate(0,64)">
  <rect style="opacity:0.001" width="32" height="32" x="0" y="-32"/>
  <path style="opacity:0.2" d="M 2,-23 V -6.9785156 C 2,-5.4950156 3,-5.000008 4,-5 h 24 c 2,0 2,-1.9785156 2,-1.9785156 V -23 l -14,9.691406 z"/>
  <path style="fill:#ffd56d" d="m 4,-26 c -0.4229,0 -1.999998,1.38e-4 -2,1.984375 v 12.103516 c 0,0.444856 0.2131625,0.834007 0.5390625,1.08789 v 0.0019 l 0.015625,0.01367 c 0.02723,0.02054 0.053281,0.042 0.082031,0.06055 v -0.002 c -0.039947,-0.02972 3.2475509,1.06975 6.5097656,3.45 H 22.861328 l 6.583984,-3.498828 -0.0059,-0.0078 C 29.778113,-11.059671 30,-11.457213 30,-11.912109 V -24.015625 C 30,-25.999862 28,-26 28,-26 Z"/>
  <path style="fill:#fec006" d="m 1.99966,-24.00075 26,18 h -24 c -1,-8e-6 -2,-0.4945 -2,-1.978 z"/>
  <path style="fill:#fecd38" d="m 27.99966,-6.00075 c 2,0 2,-1.978 2,-1.978 v -16.022 l -26,18 z"/>
  <path style="opacity:0.1" d="m 2,-24 v 1 L 16,-13.308594 30,-23 v -1 l -14,9.691406 z"/>
  <path style="opacity:0.2;fill:#ffffff" d="m 4,-26 c -0.4229,0 -1.999998,1.38e-4 -2,1.984375 v 1 C 2.000002,-24.999862 3.5771,-25 4,-25 h 24 c 0,0 2,1.38e-4 2,1.984375 v -1 C 30,-25.999862 28,-26 28,-26 Z"/>
 </g>
 <g id="mail-mark-unread-new" transform="translate(0,32)">
  <rect style="opacity:0.001" width="32" height="32" x="0" y="-32"/>
  <path style="opacity:0.2" d="M 2,-23 V -6.9785156 C 2,-5.4950156 3,-5.000008 4,-5 h 24 c 2,0 2,-1.9785156 2,-1.9785156 V -23 l -14,9.691406 z"/>
  <path style="fill:#ffd56d" d="m 4,-26 c -0.4229,0 -1.999998,1.38e-4 -2,1.984375 v 12.103516 c 0,0.444856 0.2131625,0.834007 0.5390625,1.08789 v 0.0019 l 0.015625,0.01367 c 0.02723,0.02054 0.053281,0.042 0.082031,0.06055 v -0.002 c -0.039947,-0.02972 3.2475509,1.06975 6.5097656,3.45 H 22.861328 l 6.583984,-3.498828 -0.0059,-0.0078 C 29.778113,-11.059671 30,-11.457213 30,-11.912109 V -24.015625 C 30,-25.999862 28,-26 28,-26 Z"/>
  <path style="fill:#fec006" d="m 1.99966,-24.00075 26,18 h -24 c -1,-8e-6 -2,-0.4945 -2,-1.978 z"/>
  <path style="fill:#fecd38" d="m 27.99966,-6.00075 c 2,0 2,-1.978 2,-1.978 v -16.022 l -26,18 z"/>
  <path style="opacity:0.1" d="m 2,-24 v 1 L 16,-13.308594 30,-23 v -1 l -14,9.691406 z"/>
  <path style="opacity:0.2;fill:#ffffff" d="m 4,-26 c -0.4229,0 -1.999998,1.38e-4 -2,1.984375 v 1 C 2.000002,-24.999862 3.5771,-25 4,-25 h 24 c 0,0 2,1.38e-4 2,1.984375 v -1 C 30,-25.999862 28,-26 28,-26 Z"/>
 </g>
</svg>
