<svg xmlns="http://www.w3.org/2000/svg" width="32" height="32" version="1">
 <g id="manjaro-settings-manager">
  <rect style="opacity:0.001" width="32" height="32" x="0" y="0"/>
  <path style="opacity:0.2" d="M 3.4,3 C 2.6244,3 2,3.6244 2,4.4 V 29.6 C 2,30.3756 2.6244,31 3.4,31 H 10 V 11 H 20 V 3 Z M 22,3 v 28 h 6.6 C 29.3756,31 30,30.3756 30,29.6 V 4.4 C 30,3.6244 29.3756,3 28.6,3 Z M 12,13 v 18 h 8 V 13 Z"/>
  <path style="fill:#16a085" d="M 3.4,2 C 2.6244,2 2,2.6244 2,3.4 V 28.6 C 2,29.3756 2.6244,30 3.4,30 H 10 V 10 H 20 V 2 Z M 22,2 v 28 h 6.6 C 29.3756,30 30,29.3756 30,28.6 V 3.4 C 30,2.6244 29.3756,2 28.6,2 Z M 12,12 v 18 h 8 V 12 Z"/>
  <path style="opacity:0.2;fill:#ffffff" d="M 3.4003906,2 C 2.6247906,2 2,2.6247906 2,3.4003906 v 1 C 2,3.6247906 2.6247906,3 3.4003906,3 H 20 V 2 Z M 22,2 v 1 h 6.599609 C 29.375209,3 30,3.6247906 30,4.4003906 v -1 C 30,2.6247906 29.375209,2 28.599609,2 Z M 12,12 v 1 h 8 v -1 z"/>
 </g>
 <g id="22-22-manjaro-settings-manager" transform="translate(27,5)">
  <rect style="opacity:0.001" width="22" height="22" x="5" y="5"/>
  <path style="fill:#dfdfdf" d="M 9.75,9 C 9.3345,9 9,9.3345 9,9.75 v 12.5 C 9,22.6655 9.352874,22.877807 9.75,23 H 13 V 13 h 5 V 9 Z M 19,9 v 14 h 3.25 C 22.6655,23 23,22.6655 23,22.25 V 9.75 C 23,9.3345 22.6655,9 22.25,9 Z m -5,5 v 9 h 4 v -9 z"/>
 </g>
</svg>
