<svg xmlns="http://www.w3.org/2000/svg" width="32" height="32" version="1.1" viewBox="0 0 32 32">
 <g id="22-22-media-playback-start" transform="translate(0,32)">
  <rect style="opacity:0.00100002" width="22" height="22" x="0" y="0"/>
  <path style="fill:#d3dae3" d="m 11,3 c -4.418278,0 -8,3.581722 -8,8 0,4.418278 3.581722,8 8,8 4.418278,0 8,-3.581722 8,-8 0,-4.418278 -3.581722,-8 -8,-8 z m -3,4 8,4 -8,4 z"/>
 </g>
 <g id="22-22-media-skip-forward" transform="translate(10,32)">
  <rect style="opacity:0.00100002" width="22" height="22" x="22" y="0"/>
  <path style="fill:#d3dae3" d="m 33,3 c -4.418278,0 -8,3.581722 -8,8 0,4.418278 3.581722,8 8,8 4.418278,0 8,-3.581722 8,-8 0,-4.418278 -3.581722,-8 -8,-8 z m -4,4 6,3.5 V 7 h 2 v 4 4 H 35 V 11.5 L 29,15 Z"/>
 </g>
 <g id="22-22-media-playback-pause" transform="translate(-5,8)">
  <rect style="opacity:0.00100002" width="22" height="22" x="165" y="24"/>
  <path style="fill:#d3dae3" d="m 121,3 c -4.41828,0 -8,3.581722 -8,8 0,4.418278 3.58172,8 8,8 4.41828,0 8,-3.581722 8,-8 0,-4.418278 -3.58172,-8 -8,-8 z m -4,4 h 3 v 8 h -3 z m 5,0 h 3 v 8 h -3 z" transform="translate(55,24)"/>
 </g>
 <g id="22-22-media-playback-stop" transform="translate(5,8)">
  <rect style="opacity:0.00100002" width="22" height="22" x="187" y="24"/>
  <path style="fill:#d3dae3" d="m 143,3 c -4.41828,0 -8,3.581722 -8,8 0,4.418278 3.58172,8 8,8 4.41828,0 8,-3.581722 8,-8 0,-4.418278 -3.58172,-8 -8,-8 z m -4,4 h 2 4 2 v 8 h -2 -4 -2 z" transform="translate(55,24)"/>
 </g>
 <g id="22-22-media-record" transform="translate(102,32)">
  <rect style="opacity:0.00100002" width="22" height="22" x="154" y="0"/>
  <path style="fill:#5294e2" d="m 165,3 a 8,8 0 0 0 -8,8 8,8 0 0 0 8,8 8,8 0 0 0 8,-8 8,8 0 0 0 -8,-8 z m 0,4 a 4,4 0 0 1 4,4 4,4 0 0 1 -4,4 4,4 0 0 1 -4,-4 4,4 0 0 1 4,-4 z"/>
 </g>
 <g id="22-22-media-eject" transform="translate(-7,8)">
  <rect style="opacity:0.00100002" width="22" height="22" x="231" y="24"/>
  <path style="fill:#d3dae3" d="m 187,3 c -4.41828,0 -8,3.581722 -8,8 0,4.418278 3.58172,8 8,8 4.41828,0 8,-3.581722 8,-8 0,-4.418278 -3.58172,-8 -8,-8 z m 0,3 4,4 v 1 h -8 v -1 z m -4,7 h 8 v 2 h -8 z" transform="translate(55,24)"/>
 </g>
 <g id="22-22-media-seek-forward" transform="translate(74,32)">
  <rect style="opacity:0.00100002" width="22" height="22" x="22" y="0"/>
  <path style="fill:#d3dae3" d="m 77,3 c -4.418278,0 -8,3.581722 -8,8 0,4.418278 3.581722,8 8,8 4.418278,0 8,-3.581722 8,-8 0,-4.418278 -3.581722,-8 -8,-8 z m -5,4 5,3 V 7 l 6,4 -6,4 v -3 l -5,3 v -4 z" transform="translate(-44)"/>
 </g>
 <g id="22-22-media-skip-backward" transform="matrix(-1,0,0,1,108,32)">
  <rect style="opacity:0.00100002" width="22" height="22" x="22" y="0"/>
  <path style="fill:#d3dae3" d="m 33,3 c -4.418278,0 -8,3.581722 -8,8 0,4.418278 3.581722,8 8,8 4.418278,0 8,-3.581722 8,-8 0,-4.418278 -3.581722,-8 -8,-8 z m -4,4 6,3.5 V 7 h 2 v 4 4 H 35 V 11.5 L 29,15 Z"/>
 </g>
 <g id="22-22-media-seek-backward" transform="matrix(-1,0,0,1,172,32)">
  <rect style="opacity:0.00100002" width="22" height="22" x="22" y="0"/>
  <path style="fill:#d3dae3" d="m 77,3 c -4.418278,0 -8,3.581722 -8,8 0,4.418278 3.581722,8 8,8 4.418278,0 8,-3.581722 8,-8 0,-4.418278 -3.581722,-8 -8,-8 z m -5,4 5,3 V 7 l 6,4 -6,4 v -3 l -5,3 v -4 z" transform="translate(-44)"/>
 </g>
 <g id="22-22-media-playback-playing" transform="translate(0,-54)">
  <rect width="22" height="22" x="0" y="0" style="opacity:0.00100002"/>
  <path d="m 11,3 c -4.418278,0 -8,3.581722 -8,8 0,4.418278 3.581722,8 8,8 4.418278,0 8,-3.581722 8,-8 0,-4.418278 -3.581722,-8 -8,-8 z m -3,4 8,4 -8,4 z" style="fill:#d3dae3"/>
 </g>
 <g id="22-22-media-playback-paused" transform="translate(-5,-78)">
  <rect width="22" height="22" x="165" y="24" style="opacity:0.00100002"/>
  <path d="m 121,3 c -4.41828,0 -8,3.581722 -8,8 0,4.418278 3.58172,8 8,8 4.41828,0 8,-3.581722 8,-8 0,-4.418278 -3.58172,-8 -8,-8 z m -4,4 h 3 v 8 h -3 z m 5,0 h 3 v 8 h -3 z" transform="translate(55,24)" style="fill:#d3dae3"/>
 </g>
 <g id="22-22-media-playback-stopped" transform="translate(5,-78)">
  <rect width="22" height="22" x="187" y="24" style="opacity:0.00100002"/>
  <path d="m 143,3 c -4.41828,0 -8,3.581722 -8,8 0,4.418278 3.58172,8 8,8 4.41828,0 8,-3.581722 8,-8 0,-4.418278 -3.58172,-8 -8,-8 z m -4,4 h 2 4 2 v 8 h -2 -4 -2 z" transform="translate(55,24)" style="fill:#d3dae3"/>
 </g>
 <g id="media-playback-start">
  <rect style="opacity:0.00100002" width="32" height="32" x="0" y="0"/>
  <path style="opacity:0.2" d="M 16,3 C 8.268014,3 2,9.2680142 2,17 2,24.731986 8.268014,31 16,31 23.731986,31 30,24.731986 30,17 30,9.2680142 23.731986,3 16,3 Z"/>
  <path style="fill:#ff8b36" d="M 16,2 C 8.268014,2 2,8.2680142 2,16 2,23.731986 8.268014,30 16,30 23.731986,30 30,23.731986 30,16 30,8.2680142 23.731986,2 16,2 Z"/>
  <path style="opacity:0.2" d="M 16,7 A 10,10 0 0 0 6,17 10,10 0 0 0 16,27 10,10 0 0 0 26,17 10,10 0 0 0 16,7 Z m -2.693359,4.001953 a 1.3639004,1.3848953 0 0 1 0.779297,0.208985 l 3.636718,2.30664 3.636719,2.308594 a 1.3639004,1.3848953 0 0 1 0,2.347656 l -3.636719,2.308594 -3.636718,2.30664 A 1.3639004,1.3848953 0 0 1 12,21.615234 v -9.230468 a 1.3639004,1.3848953 0 0 1 1.306641,-1.382813 z"/>
  <path d="M 16,6 A 10,10 0 0 0 6,16 10,10 0 0 0 16,26 10,10 0 0 0 26,16 10,10 0 0 0 16,6 Z m -2.693359,4.001953 a 1.3639004,1.3848953 0 0 1 0.779297,0.208985 l 3.636718,2.30664 3.636719,2.308594 a 1.3639004,1.3848953 0 0 1 0,2.347656 l -3.636719,2.308594 -3.636718,2.30664 A 1.3639004,1.3848953 0 0 1 12,20.615234 v -9.230468 a 1.3639004,1.3848953 0 0 1 1.306641,-1.382813 z" style="fill:#ffffff"/>
  <path style="opacity:0.1;fill:#ffffff" d="M 16,2 C 8.268014,2 2,8.2680142 2,16 2,16.168777 2.019467,16.332668 2.025391,16.5 2.2908203,9.0015478 8.4367912,3 16,3 23.563209,3 29.70918,9.0015478 29.974609,16.5 29.980533,16.332668 30,16.168777 30,16 30,8.2680142 23.731986,2 16,2 Z"/>
 </g>
 <g id="media-playback-pause" transform="translate(160)">
  <rect width="32" height="32" x="0" y="0" style="opacity:0.00100002"/>
  <path d="M 16,3 C 8.268014,3 2,9.2680142 2,17 2,24.731986 8.268014,31 16,31 23.731986,31 30,24.731986 30,17 30,9.2680142 23.731986,3 16,3 Z" style="opacity:0.2"/>
  <path d="M 16,2 C 8.268014,2 2,8.2680142 2,16 2,23.731986 8.268014,30 16,30 23.731986,30 30,23.731986 30,16 30,8.2680142 23.731986,2 16,2 Z" style="fill:#ff8b36"/>
  <path style="opacity:0.2" d="M 16,7 C 10.477153,7 6,11.477153 6,17 6,22.522847 10.477153,27 16,27 21.522847,27 26,22.522847 26,17 26,11.477153 21.522847,7 16,7 Z m -3.5,5 c 0.831,0 1.5,0.669 1.5,1.5 v 7 C 14,21.331 13.331,22 12.5,22 11.669,22 11,21.331 11,20.5 v -7 C 11,12.669 11.669,12 12.5,12 Z m 7,0 c 0.831,0 1.5,0.669 1.5,1.5 v 7 C 21,21.331 20.331,22 19.5,22 18.669,22 18,21.331 18,20.5 v -7 C 18,12.669 18.669,12 19.5,12 Z"/>
  <path d="M 16,6 C 10.477153,6 6,10.477153 6,16 6,21.522847 10.477153,26 16,26 21.522847,26 26,21.522847 26,16 26,10.477153 21.522847,6 16,6 Z m -3.5,5 c 0.831,0 1.5,0.669 1.5,1.5 v 7 C 14,20.331 13.331,21 12.5,21 11.669,21 11,20.331 11,19.5 v -7 C 11,11.669 11.669,11 12.5,11 Z m 7,0 c 0.831,0 1.5,0.669 1.5,1.5 v 7 C 21,20.331 20.331,21 19.5,21 18.669,21 18,20.331 18,19.5 v -7 C 18,11.669 18.669,11 19.5,11 Z" style="fill:#ffffff"/>
  <path d="M 16,2 C 8.268014,2 2,8.2680142 2,16 2,16.168777 2.019467,16.332668 2.025391,16.5 2.2908203,9.0015478 8.4367912,3 16,3 23.563209,3 29.70918,9.0015478 29.974609,16.5 29.980533,16.332668 30,16.168777 30,16 30,8.2680142 23.731986,2 16,2 Z" style="opacity:0.1;fill:#ffffff"/>
 </g>
 <g id="media-playback-stop" transform="translate(192)">
  <rect width="32" height="32" x="0" y="0" style="opacity:0.00100002"/>
  <path d="M 16,3 C 8.268014,3 2,9.2680142 2,17 2,24.731986 8.268014,31 16,31 23.731986,31 30,24.731986 30,17 30,9.2680142 23.731986,3 16,3 Z" style="opacity:0.2"/>
  <path d="M 16,2 C 8.268014,2 2,8.2680142 2,16 2,23.731986 8.268014,30 16,30 23.731986,30 30,23.731986 30,16 30,8.2680142 23.731986,2 16,2 Z" style="fill:#ff8b36"/>
  <path style="opacity:0.2" d="M 16,7 A 10,10 0 0 0 6,17 10,10 0 0 0 16,27 10,10 0 0 0 26,17 10,10 0 0 0 16,7 Z m -4,5 h 1 7 c 0.554,0 1,0.446 1,1 v 4 4 c 0,0.554 -0.446,1 -1,1 h -7 -1 c -0.554,0 -1,-0.446 -1,-1 v -8 c 0,-0.554 0.446,-1 1,-1 z"/>
  <path d="M 16,6 A 10,10 0 0 0 6,16 10,10 0 0 0 16,26 10,10 0 0 0 26,16 10,10 0 0 0 16,6 Z m -4,5 h 1 7 c 0.554,0 1,0.446 1,1 v 4 4 c 0,0.554 -0.446,1 -1,1 h -7 -1 c -0.554,0 -1,-0.446 -1,-1 v -8 c 0,-0.554 0.446,-1 1,-1 z" style="fill:#ffffff"/>
  <path d="M 16,2 C 8.268014,2 2,8.2680142 2,16 2,16.168777 2.019467,16.332668 2.025391,16.5 2.2908203,9.0015478 8.4367912,3 16,3 23.563209,3 29.70918,9.0015478 29.974609,16.5 29.980533,16.332668 30,16.168777 30,16 30,8.2680142 23.731986,2 16,2 Z" style="opacity:0.1;fill:#ffffff"/>
 </g>
 <g id="media-skip-forward" transform="translate(32)">
  <rect width="32" height="32" x="0" y="0" style="opacity:0.00100002"/>
  <path d="M 16,3 C 8.268014,3 2,9.2680142 2,17 2,24.731986 8.268014,31 16,31 23.731986,31 30,24.731986 30,17 30,9.2680142 23.731986,3 16,3 Z" style="opacity:0.2"/>
  <path d="M 16,2 C 8.268014,2 2,8.2680142 2,16 2,23.731986 8.268014,30 16,30 23.731986,30 30,23.731986 30,16 30,8.2680142 23.731986,2 16,2 Z" style="fill:#ff8b36"/>
  <path style="opacity:0.2" d="M 16,7 C 10.477153,7 6,11.477153 6,17 6,22.522847 10.477153,27 16,27 21.522847,27 26,22.522847 26,17 26,11.477153 21.522847,7 16,7 Z m 5,4 c 0.554,0 1,0.446 1,1 v 10 c 0,0.554 -0.446,1 -1,1 -0.554,0 -1,-0.446 -1,-1 v -3.597656 l -3.277344,2.080078 -3.636718,2.30664 C 12.177886,23.364414 11.000839,22.702042 11,21.615234 v -9.230468 c 4.54e-4,-0.741908 0.576624,-1.351666 1.306641,-1.382813 0.274569,-0.01165 0.546197,0.0612 0.779297,0.208985 l 3.636718,2.30664 L 20,15.597656 V 12 c 0,-0.554 0.446,-1 1,-1 z"/>
  <path d="M 16,6 C 10.477153,6 6,10.477153 6,16 6,21.522847 10.477153,26 16,26 21.522847,26 26,21.522847 26,16 26,10.477153 21.522847,6 16,6 Z m 5,4 c 0.554,0 1,0.446 1,1 v 10 c 0,0.554 -0.446,1 -1,1 -0.554,0 -1,-0.446 -1,-1 v -3.597656 l -3.277344,2.080078 -3.636718,2.30664 C 12.177886,22.364414 11.000839,21.702042 11,20.615234 v -9.230468 c 4.54e-4,-0.741908 0.576624,-1.351666 1.306641,-1.382813 0.274569,-0.011647 0.546197,0.0612 0.779297,0.208985 l 3.636718,2.30664 L 20,14.597656 V 11 c 0,-0.554 0.446,-1 1,-1 z" style="fill:#ffffff"/>
  <path d="M 16,2 C 8.268014,2 2,8.2680142 2,16 2,16.168777 2.019467,16.332668 2.025391,16.5 2.2908203,9.0015478 8.4367912,3 16,3 23.563209,3 29.70918,9.0015478 29.974609,16.5 29.980533,16.332668 30,16.168777 30,16 30,8.2680142 23.731986,2 16,2 Z" style="opacity:0.1;fill:#ffffff"/>
 </g>
 <g id="media-skip-backward" transform="matrix(-1,0,0,1,96,0)">
  <rect style="opacity:0.00100002" width="32" height="32" x="0" y="0"/>
  <path style="opacity:0.2" d="M 16,3 C 8.268014,3 2,9.2680142 2,17 2,24.731986 8.268014,31 16,31 23.731986,31 30,24.731986 30,17 30,9.2680142 23.731986,3 16,3 Z"/>
  <path style="fill:#ff8b36" d="M 16,2 C 8.268014,2 2,8.2680142 2,16 2,23.731986 8.268014,30 16,30 23.731986,30 30,23.731986 30,16 30,8.2680142 23.731986,2 16,2 Z"/>
  <path d="M 16,7 C 10.477153,7 6,11.477153 6,17 6,22.522847 10.477153,27 16,27 21.522847,27 26,22.522847 26,17 26,11.477153 21.522847,7 16,7 Z m 5,4 c 0.554,0 1,0.446 1,1 v 10 c 0,0.554 -0.446,1 -1,1 -0.554,0 -1,-0.446 -1,-1 v -3.597656 l -3.277344,2.080078 -3.636718,2.30664 C 12.177886,23.364414 11.000839,22.702042 11,21.615234 v -9.230468 c 4.54e-4,-0.741908 0.576624,-1.351666 1.306641,-1.382813 0.274569,-0.01165 0.546197,0.0612 0.779297,0.208985 l 3.636718,2.30664 L 20,15.597656 V 12 c 0,-0.554 0.446,-1 1,-1 z" style="opacity:0.2"/>
  <path style="fill:#ffffff" d="M 16,6 C 10.477153,6 6,10.477153 6,16 6,21.522847 10.477153,26 16,26 21.522847,26 26,21.522847 26,16 26,10.477153 21.522847,6 16,6 Z m 5,4 c 0.554,0 1,0.446 1,1 v 10 c 0,0.554 -0.446,1 -1,1 -0.554,0 -1,-0.446 -1,-1 v -3.597656 l -3.277344,2.080078 -3.636718,2.30664 C 12.177886,22.364414 11.000839,21.702042 11,20.615234 v -9.230468 c 4.54e-4,-0.741908 0.576624,-1.351666 1.306641,-1.382813 0.274569,-0.011647 0.546197,0.0612 0.779297,0.208985 l 3.636718,2.30664 L 20,14.597656 V 11 c 0,-0.554 0.446,-1 1,-1 z"/>
  <path style="opacity:0.1;fill:#ffffff" d="M 16,2 C 8.268014,2 2,8.2680142 2,16 2,16.168777 2.019467,16.332668 2.025391,16.5 2.2908203,9.0015478 8.4367912,3 16,3 23.563209,3 29.70918,9.0015478 29.974609,16.5 29.980533,16.332668 30,16.168777 30,16 30,8.2680142 23.731986,2 16,2 Z"/>
 </g>
 <g id="media-seek-forward" transform="translate(96)">
  <rect width="32" height="32" x="0" y="0" style="opacity:0.00100002"/>
  <path d="M 16,3 C 8.268014,3 2,9.2680142 2,17 2,24.731986 8.268014,31 16,31 23.731986,31 30,24.731986 30,17 30,9.2680142 23.731986,3 16,3 Z" style="opacity:0.2"/>
  <path d="M 16,2 C 8.268014,2 2,8.2680142 2,16 2,23.731986 8.268014,30 16,30 23.731986,30 30,23.731986 30,16 30,8.2680142 23.731986,2 16,2 Z" style="fill:#ff8b36"/>
  <path style="opacity:0.2" d="M 16,7 A 10,10 0 0 0 6,17 10,10 0 0 0 16,27 10,10 0 0 0 26,17 10,10 0 0 0 16,7 Z m -4.984375,5.003906 a 1.0911166,1.1542433 0 0 1 0.0293,0 1.0911166,1.1542433 0 0 1 0.623047,0.173828 L 14.578125,14.099609 16,15.039062 V 13.15625 a 1.0911166,1.1542433 0 0 1 1.044922,-1.152344 1.0911166,1.1542433 0 0 1 0.623047,0.173828 l 2.910156,1.921875 2.910156,1.923829 a 1.0911166,1.1542433 0 0 1 0,1.957031 l -2.910156,1.923828 -2.910156,1.921875 A 1.0911166,1.1542433 0 0 1 16,20.847656 v -1.882812 l -1.421875,0.939453 -2.910156,1.921875 A 1.0911166,1.1542433 0 0 1 10,20.847656 V 13.15625 a 1.0911166,1.1542433 0 0 1 1.015625,-1.152344 z"/>
  <path d="M 16,6 A 10,10 0 0 0 6,16 10,10 0 0 0 16,26 10,10 0 0 0 26,16 10,10 0 0 0 16,6 Z m -4.984375,5.003906 a 1.0911166,1.1542433 0 0 1 0.0293,0 1.0911166,1.1542433 0 0 1 0.623047,0.173828 L 14.578125,13.099609 16,14.039062 V 12.15625 a 1.0911166,1.1542433 0 0 1 1.044922,-1.152344 1.0911166,1.1542433 0 0 1 0.623047,0.173828 l 2.910156,1.921875 2.910156,1.923829 a 1.0911166,1.1542433 0 0 1 0,1.957031 l -2.910156,1.923828 -2.910156,1.921875 A 1.0911166,1.1542433 0 0 1 16,19.847656 v -1.882812 l -1.421875,0.939453 -2.910156,1.921875 A 1.0911166,1.1542433 0 0 1 10,19.847656 V 12.15625 a 1.0911166,1.1542433 0 0 1 1.015625,-1.152344 z" style="fill:#ffffff"/>
  <path d="M 16,2 C 8.268014,2 2,8.2680142 2,16 2,16.168777 2.019467,16.332668 2.025391,16.5 2.2908203,9.0015478 8.4367912,3 16,3 23.563209,3 29.70918,9.0015478 29.974609,16.5 29.980533,16.332668 30,16.168777 30,16 30,8.2680142 23.731986,2 16,2 Z" style="opacity:0.1;fill:#ffffff"/>
 </g>
 <g id="media-seek-backward" transform="matrix(-1,0,0,1,160,0)">
  <rect style="opacity:0.00100002" width="32" height="32" x="0" y="0"/>
  <path style="opacity:0.2" d="M 16,3 C 8.268014,3 2,9.2680142 2,17 2,24.731986 8.268014,31 16,31 23.731986,31 30,24.731986 30,17 30,9.2680142 23.731986,3 16,3 Z"/>
  <path style="fill:#ff8b36" d="M 16,2 C 8.268014,2 2,8.2680142 2,16 2,23.731986 8.268014,30 16,30 23.731986,30 30,23.731986 30,16 30,8.2680142 23.731986,2 16,2 Z"/>
  <path d="M 16,7 A 10,10 0 0 0 6,17 10,10 0 0 0 16,27 10,10 0 0 0 26,17 10,10 0 0 0 16,7 Z m -4.984375,5.003906 a 1.0911166,1.1542433 0 0 1 0.0293,0 1.0911166,1.1542433 0 0 1 0.623047,0.173828 L 14.578125,14.099609 16,15.039062 V 13.15625 a 1.0911166,1.1542433 0 0 1 1.044922,-1.152344 1.0911166,1.1542433 0 0 1 0.623047,0.173828 l 2.910156,1.921875 2.910156,1.923829 a 1.0911166,1.1542433 0 0 1 0,1.957031 l -2.910156,1.923828 -2.910156,1.921875 A 1.0911166,1.1542433 0 0 1 16,20.847656 v -1.882812 l -1.421875,0.939453 -2.910156,1.921875 A 1.0911166,1.1542433 0 0 1 10,20.847656 V 13.15625 a 1.0911166,1.1542433 0 0 1 1.015625,-1.152344 z" style="opacity:0.2"/>
  <path style="fill:#ffffff" d="M 16,6 A 10,10 0 0 0 6,16 10,10 0 0 0 16,26 10,10 0 0 0 26,16 10,10 0 0 0 16,6 Z m -4.984375,5.003906 a 1.0911166,1.1542433 0 0 1 0.0293,0 1.0911166,1.1542433 0 0 1 0.623047,0.173828 L 14.578125,13.099609 16,14.039062 V 12.15625 a 1.0911166,1.1542433 0 0 1 1.044922,-1.152344 1.0911166,1.1542433 0 0 1 0.623047,0.173828 l 2.910156,1.921875 2.910156,1.923829 a 1.0911166,1.1542433 0 0 1 0,1.957031 l -2.910156,1.923828 -2.910156,1.921875 A 1.0911166,1.1542433 0 0 1 16,19.847656 v -1.882812 l -1.421875,0.939453 -2.910156,1.921875 A 1.0911166,1.1542433 0 0 1 10,19.847656 V 12.15625 a 1.0911166,1.1542433 0 0 1 1.015625,-1.152344 z"/>
  <path style="opacity:0.1;fill:#ffffff" d="M 16,2 C 8.268014,2 2,8.2680142 2,16 2,16.168777 2.019467,16.332668 2.025391,16.5 2.2908203,9.0015478 8.4367912,3 16,3 23.563209,3 29.70918,9.0015478 29.974609,16.5 29.980533,16.332668 30,16.168777 30,16 30,8.2680142 23.731986,2 16,2 Z"/>
 </g>
 <g id="media-record" transform="translate(256)">
  <rect style="opacity:0.00100002" width="32" height="32" x="0" y="0"/>
  <path style="opacity:0.2" d="M 16,3 C 8.268014,3 2,9.2680142 2,17 2,24.731986 8.268014,31 16,31 23.731986,31 30,24.731986 30,17 30,9.2680142 23.731986,3 16,3 Z"/>
  <path style="fill:#ff8b36" d="M 16,2 C 8.268014,2 2,8.2680142 2,16 2,23.731986 8.268014,30 16,30 23.731986,30 30,23.731986 30,16 30,8.2680142 23.731986,2 16,2 Z"/>
  <path d="M 16,6 A 10,10 0 0 0 6,16 10,10 0 0 0 16,26 10,10 0 0 0 26,16 10,10 0 0 0 16,6 Z" style="fill:#ffffff"/>
  <path style="opacity:0.1;fill:#ffffff" d="M 16,2 C 8.268014,2 2,8.2680142 2,16 2,16.168777 2.019467,16.332668 2.025391,16.5 2.2908203,9.0015478 8.4367912,3 16,3 23.563209,3 29.70918,9.0015478 29.974609,16.5 29.980533,16.332668 30,16.168777 30,16 30,8.2680142 23.731986,2 16,2 Z"/>
  <circle cx="16" cy="16" r="5" style="fill:#ff4b4b"/>
 </g>
 <g id="media-eject" transform="translate(224)">
  <rect width="32" height="32" x="0" y="0" style="opacity:0.00100002"/>
  <path d="M 16,3 C 8.268014,3 2,9.2680142 2,17 2,24.731986 8.268014,31 16,31 23.731986,31 30,24.731986 30,17 30,9.2680142 23.731986,3 16,3 Z" style="opacity:0.2"/>
  <path d="M 16,2 C 8.268014,2 2,8.2680142 2,16 2,23.731986 8.268014,30 16,30 23.731986,30 30,23.731986 30,16 30,8.2680142 23.731986,2 16,2 Z" style="fill:#ff8b36"/>
  <path style="opacity:0.2" d="M 16,7 A 10,10 0 0 0 6,17 10,10 0 0 0 16,27 10,10 0 0 0 26,17 10,10 0 0 0 16,7 Z m -0.01367,3 a 1.1542432,1.091172 0 0 1 0.992188,0.511719 l 1.923828,2.910156 1.921875,2.910156 A 1.1542432,1.091172 0 0 1 19.845703,18 h -7.691406 a 1.1542432,1.091172 0 0 1 -1.152344,-1.044922 1.1542432,1.091172 0 0 1 0.173828,-0.623047 l 1.921875,-2.910156 1.923828,-2.910156 A 1.1542432,1.091172 0 0 1 15.986328,10 Z M 12.5,19 h 7 c 0.831,0 1.5,0.669 1.5,1.5 0,0.831 -0.669,1.5 -1.5,1.5 h -7 C 11.669,22 11,21.331 11,20.5 11,19.669 11.669,19 12.5,19 Z"/>
  <path d="M 16,6 A 10,10 0 0 0 6,16 10,10 0 0 0 16,26 10,10 0 0 0 26,16 10,10 0 0 0 16,6 Z m -0.01367,3 a 1.1542432,1.091172 0 0 1 0.992188,0.5117188 l 1.923828,2.9101562 1.921875,2.910156 A 1.1542432,1.091172 0 0 1 19.845703,17 h -7.691406 a 1.1542432,1.091172 0 0 1 -1.152344,-1.044922 1.1542432,1.091172 0 0 1 0.173828,-0.623047 l 1.921875,-2.910156 1.923828,-2.9101562 A 1.1542432,1.091172 0 0 1 15.986328,9 Z M 12.5,18 h 7 c 0.831,0 1.5,0.669 1.5,1.5 0,0.831 -0.669,1.5 -1.5,1.5 h -7 C 11.669,21 11,20.331 11,19.5 11,18.669 11.669,18 12.5,18 Z" style="fill:#ffffff"/>
  <path d="M 16,2 C 8.268014,2 2,8.2680142 2,16 2,16.168777 2.019467,16.332668 2.025391,16.5 2.2908203,9.0015478 8.4367912,3 16,3 23.563209,3 29.70918,9.0015478 29.974609,16.5 29.980533,16.332668 30,16.168777 30,16 30,8.2680142 23.731986,2 16,2 Z" style="opacity:0.1;fill:#ffffff"/>
 </g>
 <g id="media-playback-playing" transform="translate(0,-32)">
  <rect width="32" height="32" x="0" y="0" style="opacity:0.00100002"/>
  <path d="M 16,3 C 8.268014,3 2,9.2680142 2,17 2,24.731986 8.268014,31 16,31 23.731986,31 30,24.731986 30,17 30,9.2680142 23.731986,3 16,3 Z" style="opacity:0.2"/>
  <path d="M 16,2 C 8.268014,2 2,8.2680142 2,16 2,23.731986 8.268014,30 16,30 23.731986,30 30,23.731986 30,16 30,8.2680142 23.731986,2 16,2 Z" style="fill:#ff8b36"/>
  <path d="M 16,7 A 10,10 0 0 0 6,17 10,10 0 0 0 16,27 10,10 0 0 0 26,17 10,10 0 0 0 16,7 Z m -2.693359,4.001953 a 1.3639004,1.3848953 0 0 1 0.779297,0.208985 l 3.636718,2.30664 3.636719,2.308594 a 1.3639004,1.3848953 0 0 1 0,2.347656 l -3.636719,2.308594 -3.636718,2.30664 A 1.3639004,1.3848953 0 0 1 12,21.615234 v -9.230468 a 1.3639004,1.3848953 0 0 1 1.306641,-1.382813 z" style="opacity:0.2"/>
  <path style="fill:#ffffff" d="M 16,6 A 10,10 0 0 0 6,16 10,10 0 0 0 16,26 10,10 0 0 0 26,16 10,10 0 0 0 16,6 Z m -2.693359,4.001953 a 1.3639004,1.3848953 0 0 1 0.779297,0.208985 l 3.636718,2.30664 3.636719,2.308594 a 1.3639004,1.3848953 0 0 1 0,2.347656 l -3.636719,2.308594 -3.636718,2.30664 A 1.3639004,1.3848953 0 0 1 12,20.615234 v -9.230468 a 1.3639004,1.3848953 0 0 1 1.306641,-1.382813 z"/>
  <path d="M 16,2 C 8.268014,2 2,8.2680142 2,16 2,16.168777 2.019467,16.332668 2.025391,16.5 2.2908203,9.0015478 8.4367912,3 16,3 23.563209,3 29.70918,9.0015478 29.974609,16.5 29.980533,16.332668 30,16.168777 30,16 30,8.2680142 23.731986,2 16,2 Z" style="opacity:0.1;fill:#ffffff"/>
 </g>
 <g id="media-playback-paused" transform="translate(160,-32)">
  <rect style="opacity:0.00100002" width="32" height="32" x="0" y="0"/>
  <path style="opacity:0.2" d="M 16,3 C 8.268014,3 2,9.2680142 2,17 2,24.731986 8.268014,31 16,31 23.731986,31 30,24.731986 30,17 30,9.2680142 23.731986,3 16,3 Z"/>
  <path style="fill:#ff8b36" d="M 16,2 C 8.268014,2 2,8.2680142 2,16 2,23.731986 8.268014,30 16,30 23.731986,30 30,23.731986 30,16 30,8.2680142 23.731986,2 16,2 Z"/>
  <path d="M 16,7 C 10.477153,7 6,11.477153 6,17 6,22.522847 10.477153,27 16,27 21.522847,27 26,22.522847 26,17 26,11.477153 21.522847,7 16,7 Z m -3.5,5 c 0.831,0 1.5,0.669 1.5,1.5 v 7 C 14,21.331 13.331,22 12.5,22 11.669,22 11,21.331 11,20.5 v -7 C 11,12.669 11.669,12 12.5,12 Z m 7,0 c 0.831,0 1.5,0.669 1.5,1.5 v 7 C 21,21.331 20.331,22 19.5,22 18.669,22 18,21.331 18,20.5 v -7 C 18,12.669 18.669,12 19.5,12 Z" style="opacity:0.2"/>
  <path style="fill:#ffffff" d="M 16,6 C 10.477153,6 6,10.477153 6,16 6,21.522847 10.477153,26 16,26 21.522847,26 26,21.522847 26,16 26,10.477153 21.522847,6 16,6 Z m -3.5,5 c 0.831,0 1.5,0.669 1.5,1.5 v 7 C 14,20.331 13.331,21 12.5,21 11.669,21 11,20.331 11,19.5 v -7 C 11,11.669 11.669,11 12.5,11 Z m 7,0 c 0.831,0 1.5,0.669 1.5,1.5 v 7 C 21,20.331 20.331,21 19.5,21 18.669,21 18,20.331 18,19.5 v -7 C 18,11.669 18.669,11 19.5,11 Z"/>
  <path style="opacity:0.1;fill:#ffffff" d="M 16,2 C 8.268014,2 2,8.2680142 2,16 2,16.168777 2.019467,16.332668 2.025391,16.5 2.2908203,9.0015478 8.4367912,3 16,3 23.563209,3 29.70918,9.0015478 29.974609,16.5 29.980533,16.332668 30,16.168777 30,16 30,8.2680142 23.731986,2 16,2 Z"/>
 </g>
 <g id="media-playback-stopped" transform="translate(192,-32)">
  <rect style="opacity:0.00100002" width="32" height="32" x="0" y="0"/>
  <path style="opacity:0.2" d="M 16,3 C 8.268014,3 2,9.2680142 2,17 2,24.731986 8.268014,31 16,31 23.731986,31 30,24.731986 30,17 30,9.2680142 23.731986,3 16,3 Z"/>
  <path style="fill:#ff8b36" d="M 16,2 C 8.268014,2 2,8.2680142 2,16 2,23.731986 8.268014,30 16,30 23.731986,30 30,23.731986 30,16 30,8.2680142 23.731986,2 16,2 Z"/>
  <path d="M 16,7 A 10,10 0 0 0 6,17 10,10 0 0 0 16,27 10,10 0 0 0 26,17 10,10 0 0 0 16,7 Z m -4,5 h 1 7 c 0.554,0 1,0.446 1,1 v 4 4 c 0,0.554 -0.446,1 -1,1 h -7 -1 c -0.554,0 -1,-0.446 -1,-1 v -8 c 0,-0.554 0.446,-1 1,-1 z" style="opacity:0.2"/>
  <path style="fill:#ffffff" d="M 16,6 A 10,10 0 0 0 6,16 10,10 0 0 0 16,26 10,10 0 0 0 26,16 10,10 0 0 0 16,6 Z m -4,5 h 1 7 c 0.554,0 1,0.446 1,1 v 4 4 c 0,0.554 -0.446,1 -1,1 h -7 -1 c -0.554,0 -1,-0.446 -1,-1 v -8 c 0,-0.554 0.446,-1 1,-1 z"/>
  <path style="opacity:0.1;fill:#ffffff" d="M 16,2 C 8.268014,2 2,8.2680142 2,16 2,16.168777 2.019467,16.332668 2.025391,16.5 2.2908203,9.0015478 8.4367912,3 16,3 23.563209,3 29.70918,9.0015478 29.974609,16.5 29.980533,16.332668 30,16.168777 30,16 30,8.2680142 23.731986,2 16,2 Z"/>
 </g>
</svg>
