<svg xmlns="http://www.w3.org/2000/svg" id="svg40" width="22" height="22" version="1.1">
 <g id="notifications-disabled">
  <rect id="rect861" style="opacity:0.001" width="22" height="22" x="0" y="0"/>
  <path id="path863" style="opacity:0.3;fill:#dfdfdf" d="m 11,3 a 8,8 0 0 0 -8,8 8,8 0 0 0 8,8 8,8 0 0 0 3,-0.589844 V 18.171875 L 14.671875,17.5 14,16.828125 V 16.1875 A 6,6 0 0 1 11,17 6,6 0 0 1 5,11 a 6,6 0 0 1 6,-6 6,6 0 0 1 6,6 6,6 0 0 1 -0.810547,3 h 0.638672 L 17.5,14.671875 18.171875,14 h 0.240234 A 8,8 0 0 0 19,11 8,8 0 0 0 11,3 Z m -1,3 v 6 h 2 V 6 Z m 1,7 c -0.453152,0 -1,0.518427 -1,0.980469 C 10,14.442512 10.546848,15 11,15 11.453152,15 12,14.442512 12,13.980469 12,13.518427 11.453152,13 11,13 Z"/>
  <path id="path871" style="fill:#4285f4;opacity:1" d="m 15,15 v 1.414062 L 16.085938,17.5 15,18.585938 V 20 h 1.414062 L 17.5,18.914062 18.585938,20 H 20 V 18.585938 L 18.914062,17.5 20,16.414062 V 15 H 18.585938 L 17.5,16.085938 16.414062,15 Z"/>
 </g>
</svg>
