<svg xmlns="http://www.w3.org/2000/svg" width="32" height="32" version="1.1">
 <g id="22-22-nulloy" transform="translate(27,5)">
  <rect style="opacity:0.001" width="22" height="22" x="5" y="5"/>
  <path style="fill:#dfdfdf" d="m 7.8007812,8 0.015625,0.109375 c 0.38758,2.568739 0.6101395,4.688491 0.8984376,5.976563 0.2882979,1.288071 0.646903,2.055427 1.3203122,2.480468 0.673409,0.42504 1.632521,0.497668 3.107422,0.451172 1.474902,-0.04647 3.470212,-0.41522 6.22461,-0.5 l 0.08984,-0.002 -0.01172,-0.08594 C 19.18584,14.455564 19.099433,12.986687 18.923828,12.001953 18.748223,11.017214 18.473372,10.402694 17.84375,9.9863281 17.214126,9.5699601 16.249941,9.3509211 14.683594,9.0957031 13.117248,8.8404851 10.946504,8.5523653 7.9082031,8.0195312 Z M 21,8 c -1.101094,0 -2,0.8931412 -2,2 0,1.106982 0.898917,2 2,2 1.101083,0 2,-0.893018 2,-2 0,-1.1068588 -0.898906,-2 -2,-2 z m 3.230469,3.529297 -0.16211,0.0957 c -1.297474,0.775815 -2.256257,0.91491 -2.998047,1.322266 -0.370893,0.203677 -0.685086,0.478048 -0.941406,0.925781 -0.256321,0.447738 -0.457447,1.065933 -0.61914,1.966797 l -0.02344,0.138672 0.128906,-0.04883 c 2.014055,-0.753822 2.909082,-0.820274 3.451172,-1.212891 0.271046,-0.196312 0.438077,-0.473804 0.591797,-0.933594 0.153721,-0.459789 0.297716,-1.10737 0.527344,-2.070312 z m -0.166016,3.371094 -0.214844,0.07031 c -2.152232,0.718146 -3.034326,0.924717 -3.486328,1.253906 -0.226003,0.16459 -0.333616,0.365254 -0.416015,0.648438 -0.0824,0.283189 -0.146477,0.65599 -0.294922,1.199219 l -0.03516,0.126953 0.128906,-0.0293 c 1.303416,-0.287641 1.903723,-0.35643 2.412109,-0.714844 0.508386,-0.358413 0.893709,-0.983894 1.783203,-2.365234 z m -4.546875,2.039062 -0.109375,0.0078 c -3.273446,0.17059 -4.97801,0.192331 -6.113281,0.917968 -0.567635,0.362799 -0.978567,0.949706 -1.353516,1.894532 -0.374949,0.944826 -0.719444,1.920856 -1.158203,3.746093 l -0.03125,0.132813 0.130859,-0.03906 c 1.953683,-0.573969 3.339572,-0.822115 4.351563,-0.984375 1.011989,-0.162254 1.653327,-0.23478 2.128906,-0.476562 0.47558,-0.241783 0.762858,-0.653913 1.048828,-1.44336 0.285969,-0.789448 0.578918,-1.835053 1.076172,-3.648437 z m 3.929688,0.07617 c -0.961323,1.008581 -1.781951,1.19094 -2.417969,1.414063 -0.31801,0.111564 -0.594522,0.235462 -0.802735,0.482421 -0.208213,0.246958 -0.34213,0.608529 -0.394531,1.181641 l -0.0078,0.09961 0.09766,-0.01172 c 1.169105,-0.151304 1.825311,-0.268194 2.322266,-0.685547 0.496955,-0.417353 0.813565,-1.113546 1.333984,-2.396485 z m -11.78711,1.886719 -0.142578,0.03711 c -1.484411,0.371915 -2.1690519,0.827698 -2.5937499,1.582031 -0.424698,0.754333 -0.5954657,1.784385 -1.1054687,3.330078 L 7.7695312,24 7.9199219,23.949219 c 0.67387,-0.222834 1.1517931,-0.383803 1.5175781,-0.566407 0.365785,-0.182576 0.620186,-0.389667 0.826172,-0.697265 0.411972,-0.61519 0.64305,-1.607648 1.347656,-3.646485 z m 11.472656,0.902344 -0.144531,0.05469 c -1.191389,0.453627 -1.8455,0.656192 -2.203125,0.966797 -0.178813,0.155303 -0.2777,0.342515 -0.3125,0.582031 -0.0348,0.239516 -0.012,0.257178 0.03516,0.646485 l 0.0098,0.08984 0.08789,-0.02148 c 0.406632,-0.102815 0.702196,-0.1021 0.939453,-0.0918 0.237255,0.0103 0.423722,0.03653 0.597656,-0.04492 0.173933,-0.08146 0.306779,-0.262931 0.447266,-0.613281 0.140486,-0.350356 0.292452,-0.606726 0.503906,-1.419922 z"/>
 </g>
 <g id="nulloy">
  <rect style="opacity:0.001" width="32" height="32" x="0" y="0"/>
  <g>
   <rect style="opacity:0.2" width="28" height="28" x="-31" y="-30" rx="1.4" ry="1.4" transform="matrix(0,-1,-1,0,0,0)"/>
   <rect style="fill:#4f4f4f" width="28" height="28" x="-30" y="-30" rx="1.4" ry="1.4" transform="matrix(0,-1,-1,0,0,0)"/>
   <path style="opacity:0.2" d="m 5.4648438,6.8710938 0.021484,0.1386718 c 0.4979688,3.3003534 0.7819346,5.6419424 1.1523438,7.2968754 0.3704092,1.654933 0.8320593,2.639448 1.6972656,3.185547 0.8652063,0.546098 2.0972138,0.639816 3.9921878,0.580078 1.894975,-0.05971 4.46111,-0.277792 8,-0.386719 l 0.113281,-0.002 -0.01563,-0.111328 C 20.092416,15.035884 19.981479,13.278873 19.755859,12.013672 19.53024,10.748465 19.178089,9.9587814 18.369141,9.4238281 17.560192,8.8888734 16.321058,8.6052518 14.308594,8.2773438 12.296129,7.9494358 9.5071682,7.5810777 5.6035156,6.8964844 Z M 22.5,8 C 21.123633,8 20,9.1164264 20,10.5 20,11.883727 21.123646,13 22.5,13 23.876353,13 25,11.883727 25,10.5 25,9.1164257 23.876368,8 22.5,8 Z m 4.074219,3.861328 -0.208985,0.125 c -1.667014,0.996779 -2.896547,1.175843 -3.849609,1.699219 -0.47653,0.261688 -0.881612,0.6142 -1.210937,1.189453 -0.329324,0.57526 -0.587176,1.369901 -0.794922,2.527344 l -0.03125,0.175781 0.167968,-0.06055 c 2.587686,-0.96852 3.735155,-1.054153 4.431641,-1.558594 0.348242,-0.252224 0.564217,-0.610426 0.761719,-1.201172 0.197504,-0.590744 0.382705,-1.421002 0.677734,-2.658203 z m -0.212891,4.332031 -0.27539,0.0918 c -2.765217,0.922684 -3.897775,1.186428 -4.478516,1.609375 -0.290372,0.211468 -0.431241,0.470146 -0.53711,0.833985 -0.105866,0.363845 -0.188181,0.843066 -0.378906,1.541015 l -0.04492,0.16211 0.166016,-0.03516 c 1.674648,-0.369565 2.448381,-0.459427 3.101562,-0.919922 0.653183,-0.460495 1.146228,-1.264296 2.289063,-3.039062 z m -5.841797,2.19336 -0.140625,0.0098 c -4.205771,0.219177 -6.396857,-0.0085 -7.855468,0.923828 -0.729306,0.46613 -1.256542,1.219668 -1.738282,2.433594 -0.48174,1.213926 -0.9226046,2.89319 -1.4863279,5.238282 l -0.041016,0.171874 0.1679687,-0.04883 c 2.5101202,-0.737443 4.2896242,-1.057151 5.5898442,-1.265625 1.300219,-0.208467 2.125297,-0.302636 2.736328,-0.613281 0.611032,-0.310646 0.980238,-0.839223 1.347656,-1.853516 0.367418,-1.014293 0.743933,-2.527556 1.382813,-4.857421 z m 5.048828,0.52539 c -1.235122,1.29584 -2.290255,1.531689 -3.107421,1.81836 -0.408584,0.143339 -0.763737,0.301844 -1.03125,0.61914 -0.267514,0.317296 -0.438534,0.781236 -0.50586,1.517579 l -0.0098,0.126953 0.125,-0.01367 c 1.502083,-0.194397 2.345881,-0.346592 2.984376,-0.882813 0.638494,-0.536221 1.044247,-1.427834 1.71289,-3.076172 z m -15.144531,2.166016 -0.18164,0.04883 C 8.3349951,21.604796 7.4538601,22.190978 6.9082031,23.160156 6.3625454,24.129334 6.1435407,25.451571 5.4882812,27.4375 l -0.0625,0.191406 0.1933594,-0.06641 C 6.4849393,27.2762 7.0983934,27.070549 7.5683594,26.835938 8.0383254,26.60136 8.3642523,26.334659 8.6289062,25.939453 9.158214,25.149048 9.45604,23.873431 10.361328,21.253906 Z m 14.740234,1.416016 -0.183593,0.07031 c -1.530713,0.582827 -2.374503,0.843119 -2.833985,1.242188 -0.229741,0.199535 -0.355678,0.442267 -0.40039,0.75 -0.04471,0.307734 -0.01567,0.329892 0.04492,0.830078 l 0.01367,0.115234 0.113281,-0.0293 c 0.522447,-0.132098 0.902202,-0.128471 1.207031,-0.115234 0.30483,0.01323 0.542152,0.0441 0.765625,-0.06055 0.223472,-0.104664 0.39372,-0.335021 0.574219,-0.785156 0.1805,-0.450142 0.378711,-0.781366 0.65039,-1.826172 z"/>
   <path style="fill:#ffffff" d="m 5.4648438,5.8710938 0.021484,0.1386718 c 0.4979688,3.3003537 0.7819346,5.6419424 1.1523438,7.2968754 0.3704092,1.654933 0.8320593,2.639448 1.6972656,3.185547 0.8652063,0.546098 2.0972138,0.639816 3.9921878,0.580078 1.894975,-0.05971 4.46111,-0.277792 8,-0.386719 l 0.113281,-0.002 -0.01563,-0.111328 C 20.092416,14.035884 19.981479,12.278873 19.755859,11.013672 19.53024,9.7484653 19.178089,8.9587814 18.369141,8.4238281 17.560192,7.8888734 16.321058,7.6052518 14.308594,7.2773438 12.296129,6.9494358 9.5071682,6.5810777 5.6035156,5.8964844 Z M 22.5,7 C 21.123633,7 20,8.1164264 20,9.5 20,10.883727 21.123646,12 22.5,12 23.876353,12 25,10.883727 25,9.5 25,8.1164257 23.876368,7 22.5,7 Z m 4.074219,3.861328 -0.208985,0.125 c -1.667014,0.996779 -2.896547,1.175843 -3.849609,1.699219 -0.47653,0.261688 -0.881612,0.6142 -1.210937,1.189453 -0.329324,0.57526 -0.587176,1.369901 -0.794922,2.527344 l -0.03125,0.175781 0.167968,-0.06055 c 2.587686,-0.96852 3.735155,-1.054153 4.431641,-1.558594 0.348242,-0.252224 0.564217,-0.610426 0.761719,-1.201172 0.197504,-0.590744 0.382705,-1.421002 0.677734,-2.658203 z m -0.212891,4.332031 -0.27539,0.0918 c -2.765217,0.922684 -3.897775,1.186428 -4.478516,1.609375 -0.290372,0.211468 -0.431241,0.470146 -0.53711,0.833985 -0.105866,0.363845 -0.188181,0.843066 -0.378906,1.541015 l -0.04492,0.16211 0.166016,-0.03516 c 1.674648,-0.369565 2.448381,-0.459427 3.101562,-0.919922 0.653183,-0.460495 1.146228,-1.264296 2.289063,-3.039062 z m -5.841797,2.19336 -0.140625,0.0098 c -4.205771,0.219177 -6.396857,-0.0085 -7.855468,0.923828 -0.729306,0.46613 -1.256542,1.219668 -1.738282,2.433594 -0.48174,1.213926 -0.9226046,2.89319 -1.4863279,5.238282 l -0.041016,0.171874 0.1679687,-0.04883 c 2.5101202,-0.737443 4.2896242,-1.057151 5.5898442,-1.265625 1.300219,-0.208467 2.125297,-0.302636 2.736328,-0.613281 0.611032,-0.310646 0.980238,-0.839223 1.347656,-1.853516 0.367418,-1.014293 0.743933,-2.527556 1.382813,-4.857421 z m 5.048828,0.52539 c -1.235122,1.29584 -2.290255,1.531689 -3.107421,1.81836 -0.408584,0.143339 -0.763737,0.301844 -1.03125,0.61914 -0.267514,0.317296 -0.438534,0.781236 -0.50586,1.517579 l -0.0098,0.126953 0.125,-0.01367 c 1.502083,-0.194397 2.345881,-0.346592 2.984376,-0.882813 0.638494,-0.536221 1.044247,-1.427834 1.71289,-3.076172 z m -15.144531,2.166016 -0.18164,0.04883 C 8.3349951,20.604796 7.4538601,21.190978 6.9082031,22.160156 6.3625454,23.129334 6.1435407,24.451571 5.4882812,26.4375 l -0.0625,0.191406 0.1933594,-0.06641 C 6.4849393,26.2762 7.0983934,26.070549 7.5683594,25.835938 8.0383254,25.60136 8.3642523,25.334659 8.6289062,24.939453 9.158214,24.149048 9.45604,22.873431 10.361328,20.253906 Z m 14.740234,1.416016 -0.183593,0.07031 c -1.530713,0.582827 -2.374503,0.843119 -2.833985,1.242188 -0.229741,0.199535 -0.355678,0.442267 -0.40039,0.75 -0.04471,0.307734 -0.01567,0.329892 0.04492,0.830078 l 0.01367,0.115234 0.113281,-0.0293 c 0.522447,-0.132098 0.902202,-0.128471 1.207031,-0.115234 0.30483,0.01323 0.542152,0.0441 0.765625,-0.06055 0.223472,-0.104664 0.39372,-0.335021 0.574219,-0.785156 0.1805,-0.450142 0.378711,-0.781366 0.65039,-1.826172 z"/>
   <path style="opacity:0.1;fill:#ffffff" d="M 3.4003906,2 C 2.6247906,2 2,2.6247906 2,3.4003906 v 1 C 2,3.6247906 2.6247906,3 3.4003906,3 H 28.599609 C 29.375209,3 30,3.6247906 30,4.4003906 v -1 C 30,2.6247906 29.375209,2 28.599609,2 Z"/>
  </g>
 </g>
</svg>
