<svg xmlns="http://www.w3.org/2000/svg" width="32" height="32" version="1">
 <g id="22-22-offline" transform="translate(27,5)">
  <path style="fill:#f44336" d="m 22,22 v 1.414062 L 23.085938,24.5 22,25.585938 V 27 h 1.414062 L 24.5,25.914062 25.585938,27 H 27 V 25.585938 L 25.914062,24.5 27,23.414062 V 22 H 25.585938 L 24.5,23.085938 23.414062,22 Z"/>
  <path style="opacity:0.35;fill:#dfdfdf" d="M 16,6 C 10.477144,6 6,10.477143 6,16 c 0,5.522858 4.477144,10 10,10 2.038144,0 3.932817,-0.611187 5.513672,-1.658203 L 21.292969,24.121094 A 1.0001,1.0001 0 0 1 21,23.414062 V 22 a 1.0001,1.0001 0 0 1 1,-1 h 1.414062 a 1.0001,1.0001 0 0 1 0.707032,0.292969 l 0.220703,0.220703 C 25.388813,19.932817 26,18.038144 26,16 26,10.477143 21.522857,6 16,6 Z m -0.935547,1.9941406 c 0.108806,-0.01139 0.245686,0.0065 0.355469,0 0.01301,0.05204 -0.07708,0.2387546 -0.201172,0.5097656 -0.790216,1.7262878 -0.8369,3.7475278 -0.103516,4.8281248 0.132716,0.195919 0.253907,0.38202 0.253907,0.40625 0,0.02424 -0.142858,0.05078 -0.304688,0.05078 -0.3799,10e-7 -0.740065,-0.23084 -1.474609,-0.8125 -0.326312,-0.25839 -0.749712,-0.474962 -0.914063,-0.507812 -0.258081,-0.05156 -0.326284,-0.02922 -0.660156,0.304688 -0.310635,0.310584 -0.40625,0.47934 -0.40625,0.763671 0,1.078223 1.280827,1.933145 3.660156,2.4375 3.231223,0.684839 4.026105,1.298953 4.115235,2.998047 0.111903,2.130617 -1.021331,3.736741 -3.50586,4.980469 -0.296546,0.148492 -0.484954,0.207878 -0.609375,0.255859 -0.05514,-0.0049 -0.09933,0.0049 -0.154297,0 -0.02114,-0.06587 -0.05078,-0.218243 -0.05078,-0.507812 0,-1.131634 -0.445068,-2.297837 -1.117187,-2.949219 -0.180417,-0.174873 -0.684591,-0.544709 -1.117188,-0.8125 -0.432581,-0.267776 -0.869537,-0.57822 -0.966797,-0.710937 -0.161141,-0.220233 -0.172664,-0.354867 -0.04883,-0.761719 0.22568,-0.743063 0.493412,-1.159403 1.015625,-1.628906 0.273776,-0.246141 0.548725,-0.450178 0.609375,-0.455079 0.06067,-0.0049 -0.34908,-0.129893 -0.964844,-0.255859 -0.615733,-0.12621 -1.518682,-0.390047 -1.984375,-0.558594 C 9.6386694,15.260234 8.4891023,14.612681 8.0507812,14.144531 8.0322512,14.124681 8.0161,14.11132 8,14.09375 c 0.628012,-2.501606 2.3902,-4.5510085 4.726562,-5.5390625 0.488855,-0.206768 0.99342,-0.3482222 1.525391,-0.4570313 0.264977,-0.05416 0.538903,-0.0757 0.8125,-0.1035156 z m 7.625,3.8125004 c 0.191025,0.118078 0.913249,1.680238 1.119141,2.441406 0.265819,0.982671 0.246579,2.682021 0,3.658203 -0.09385,0.37154 -0.21585,0.718459 -0.25586,0.761719 -0.04001,0.04326 -0.18674,-0.203394 -0.357422,-0.50586 C 23.02462,17.85969 22.482403,17.21637 22.029297,16.738281 20.721422,15.358208 20.514655,14.638525 21.0625,13.537109 c 0.276282,-0.555408 1.479111,-1.821708 1.626953,-1.730468 z"/>
  <rect style="opacity:0.001" width="22" height="22" x="5" y="5"/>
 </g>
 <g id="offline">
  <g transform="translate(60.338984,7.050847)">
   <rect style="fill:#4795d1" width="28" height="28" x="-22.95" y="30.34" rx="14" ry="14" transform="matrix(0,-1,-1,0,0,0)"/>
   <path style="opacity:0.2" d="m -44.338983,-0.05084796 c -5.522856,0 -10,4.47714246 -10,10.00000046 0,5.5228575 4.477144,10.0000005 10,10.0000005 5.522857,0 10,-4.477143 10,-10.0000005 0,-5.522858 -4.477143,-10.00000046 -10,-10.00000046 z m -0.935546,1.99414066 c 0.108806,-0.01139 0.245686,0.0065 0.355469,0 0.01301,0.05204 -0.07708,0.238754 -0.201172,0.509765 -0.790216,1.7262878 -0.8369,3.7475278 -0.103516,4.8281248 0.132716,0.195919 0.253907,0.38202 0.253907,0.40625 0,0.02424 -0.142858,0.05078 -0.304688,0.05078 -0.3799,10e-7 -0.740065,-0.230841 -1.474609,-0.8125 -0.326312,-0.25839 -0.749712,-0.474962 -0.914063,-0.507812 -0.258081,-0.05156 -0.326284,-0.02922 -0.660156,0.304688 -0.310635,0.310584 -0.40625,0.47934 -0.40625,0.763671 0,1.078223 1.280827,1.933146 3.660156,2.437501 3.231223,0.6848385 4.026104,1.2989535 4.115234,2.9980475 0.111903,2.130617 -1.02133,3.736741 -3.505859,4.980469 -0.296546,0.148492 -0.484954,0.207879 -0.609375,0.255859 -0.05514,-0.0049 -0.09933,0.0049 -0.154297,0 -0.02114,-0.06587 -0.05078,-0.218244 -0.05078,-0.507812 0,-1.131635 -0.445068,-2.297836 -1.117187,-2.949219 -0.180417,-0.174873 -0.684591,-0.544709 -1.117188,-0.8125 -0.432581,-0.267775 -0.869537,-0.578221 -0.966797,-0.710937 -0.161141,-0.220234 -0.172666,-0.354868 -0.04883,-0.761719 0.22568,-0.743064 0.493412,-1.159404 1.015625,-1.628906 0.273776,-0.246141 0.548725,-0.450179 0.609375,-0.455079 0.06067,-0.0049 -0.34908,-0.129893 -0.964844,-0.255859 -0.615733,-0.1262105 -1.518682,-0.3900475 -1.984375,-0.5585945 -0.851565,-0.308125 -2.001132,-0.955678 -2.439453,-1.423828 -0.01853,-0.01985 -0.03468,-0.03321 -0.05078,-0.05078 0.628012,-2.501606 2.390201,-4.551008 4.726563,-5.539062 0.488855,-0.2067678 0.99342,-0.3482228 1.525391,-0.4570318 0.264977,-0.05416 0.538902,-0.0757 0.812499,-0.103516 z m 7.624999,3.8124998 c 0.191025,0.118078 0.913249,1.680238 1.119141,2.441406 0.265819,0.982672 0.246579,2.6820235 0,3.6582045 -0.09385,0.37154 -0.21585,0.718459 -0.25586,0.761719 -0.04001,0.04326 -0.186741,-0.203394 -0.357422,-0.50586 -0.170692,-0.302419 -0.712909,-0.94574 -1.166015,-1.423828 -1.307875,-1.3800725 -1.514642,-2.0997575 -0.966797,-3.2011735 0.276282,-0.555408 1.479111,-1.821708 1.626953,-1.730468 z"/>
   <path style="opacity:0.2;fill:#ffffff" d="m -44.338983,-5.0508475 c -7.756,0 -14,6.244 -14,14 0,0.169 0.0195,0.333 0.0254,0.5 0.2641,-7.5206 6.3878,-13.5 13.975,-13.5 7.5872,0 13.711,5.9794 13.975,13.5 0.006,-0.16736 0.0254,-0.33116 0.0254,-0.5 0,-7.756 -6.244,-14 -14,-14 z"/>
   <path style="fill:#ffffff" d="m -44.338983,-1.050848 c -5.522856,0 -10,4.4771425 -10,9.9999995 0,5.5228585 4.477144,10.0000015 10,10.0000015 5.522857,0 10,-4.477143 10,-10.0000015 0,-5.522857 -4.477143,-9.9999995 -10,-9.9999995 z m -0.935546,1.99414074 c 0.108806,-0.01139 0.245686,0.0065 0.355469,0 0.01301,0.05204 -0.07708,0.23875396 -0.201172,0.50976496 -0.790216,1.7262878 -0.8369,3.7475278 -0.103516,4.8281248 0.132716,0.195919 0.253907,0.38202 0.253907,0.40625 0,0.02424 -0.142858,0.05078 -0.304688,0.05078 -0.3799,10e-7 -0.740065,-0.230841 -1.474609,-0.8125 -0.326312,-0.25839 -0.749712,-0.474962 -0.914063,-0.507812 -0.258081,-0.05156 -0.326284,-0.02922 -0.660156,0.304688 -0.310635,0.310584 -0.40625,0.47934 -0.40625,0.763671 0,1.078223 1.280827,1.933145 3.660156,2.4375 3.231223,0.684839 4.026104,1.2989545 4.115234,2.9980485 0.111903,2.130617 -1.02133,3.736741 -3.505859,4.980469 -0.296546,0.148492 -0.484954,0.207879 -0.609375,0.255859 -0.05514,-0.0049 -0.09933,0.0049 -0.154297,0 -0.02114,-0.06587 -0.05078,-0.218244 -0.05078,-0.507812 0,-1.131635 -0.445068,-2.297836 -1.117187,-2.949219 -0.180417,-0.174873 -0.684591,-0.544709 -1.117188,-0.8125 -0.432581,-0.267775 -0.869537,-0.578221 -0.966797,-0.710937 -0.161141,-0.220234 -0.172666,-0.354868 -0.04883,-0.761719 0.22568,-0.743064 0.493412,-1.159404 1.015625,-1.6289065 0.273776,-0.246141 0.548725,-0.450179 0.609375,-0.455079 0.06067,-0.0049 -0.34908,-0.129893 -0.964844,-0.255859 -0.615733,-0.12621 -1.518682,-0.390048 -1.984375,-0.558595 -0.851565,-0.308125 -2.001132,-0.955677 -2.439453,-1.423827 -0.01853,-0.01985 -0.03468,-0.03321 -0.05078,-0.05078 0.628012,-2.501606 2.390201,-4.5510078 4.726563,-5.5390618 0.488855,-0.206768 0.99342,-0.348223 1.525391,-0.457032 0.264977,-0.05416 0.538902,-0.0757 0.812499,-0.10351596 z m 7.624999,3.81249976 c 0.191025,0.118078 0.913249,1.680238 1.119141,2.441406 0.265819,0.982671 0.246579,2.682023 0,3.6582045 -0.09385,0.37154 -0.21585,0.718459 -0.25586,0.761719 -0.04001,0.04326 -0.186741,-0.203394 -0.357422,-0.50586 -0.170692,-0.302419 -0.712909,-0.94574 -1.166015,-1.4238285 -1.307875,-1.380073 -1.514642,-2.099757 -0.966797,-3.201173 0.276282,-0.555408 1.479111,-1.821708 1.626953,-1.730468 z"/>
   <path style="opacity:0.2" d="m -58.313583,9.4491525 c -0.0059,0.167 -0.0254,0.331 -0.0254,0.5 0,7.7560005 6.244,14.0000005 14,14.0000005 7.756,0 14,-6.244 14,-14.0000005 0,-0.16884 -0.01952,-0.33264 -0.02539,-0.5 -0.264,7.5210005 -6.388,13.5000005 -13.975,13.5000005 -7.5872,0 -13.711,-5.979 -13.975,-13.5000005 z"/>
   <circle style="fill:#db3c30" cx="-35.339" cy="16.949" r="7"/>
   <path style="opacity:0.2" d="m -28.361983,17.408153 a 7,7 0 0 1 -6.977,6.541 7,7 0 0 1 -6.977,-6.459 7,7 0 0 0 -0.023,0.459 7,7 0 0 0 7,7 7,7 0 0 0 7,-7 7,7 0 0 0 -0.02344,-0.54102 z"/>
   <path style="fill:#ffffff" d="m -37.460077,13.413997 -1.414062,1.414062 2.121094,2.121094 -2.121094,2.121094 1.414062,1.414062 2.121094,-2.121094 2.121094,2.121094 1.414062,-1.414062 -2.121094,-2.121094 2.121094,-2.121094 -1.414062,-1.414062 -2.121094,2.121094 z"/>
  </g>
  <rect style="opacity:0.001" width="32" height="32" x="0" y="0"/>
 </g>
</svg>
