<svg xmlns="http://www.w3.org/2000/svg" id="svg846" width="32" height="32" version="1.1">
 <g id="22-22-onboard" transform="translate(32,-288.53)">
  <rect id="rect1406" style="opacity:0.00100002;fill:#000000;fill-opacity:1;stroke:none;stroke-width:0.79733855;stroke-linejoin:round;stroke-miterlimit:4;stroke-dasharray:none;stroke-opacity:1" width="22" height="22" x="0" y="298.53"/>
  <path id="path833" style="color:#dfdfdf;fill:#dfdfdf;fill-opacity:1;stroke-width:1.14285719" d="m 5.2851562,301.53332 c -1.2662857,0 -2.2851561,1.01887 -2.2851561,2.28516 v 11.42968 c 0,1.26629 1.0188705,2.28516 2.2851561,2.28516 H 16.714844 C 17.981129,317.53332 19,316.51445 19,315.24816 v -11.42968 c 0,-1.26629 -1.018871,-2.28516 -2.285156,-2.28516 z m 2.2167969,2 c 0.7813261,0 1.3913201,0.22266 1.8339845,0.66602 C 9.7788026,304.64259 10,305.25221 10,306.03332 c 0,0.77903 -0.2211974,1.39073 -0.6640624,1.83398 -0.4426644,0.44306 -1.0526583,0.66602 -1.8339845,0.66602 -0.7792221,0 -1.3929214,-0.22296 -1.8378905,-0.66602 -0.4427648,-0.44325 -0.6640625,-1.05495 -0.6640625,-1.83398 0,-0.78111 0.2212977,-1.39073 0.6640625,-1.83398 0.4449691,-0.44336 1.0586684,-0.66602 1.8378905,-0.66602 z m 0,0.90039 c -0.3820461,0 -0.6781606,0.14018 -0.8886719,0.41992 -0.2106114,0.27974 -0.3183594,0.67186 -0.3183593,1.17969 0,0.50574 0.1077479,0.89995 0.3183593,1.17969 0.2105112,0.27974 0.5066257,0.41992 0.8886719,0.41992 0.3841502,0 0.6801138,-0.14018 0.8906251,-0.41992 0.2105112,-0.27974 0.3164062,-0.67395 0.3164062,-1.17969 0,-0.50783 -0.1058951,-0.89995 -0.3164062,-1.17969 -0.2105113,-0.27974 -0.5064748,-0.41992 -0.8906251,-0.41992 z M 13,310.53332 h 1.880859 c 0.674989,0 1.163403,0.10421 1.464844,0.31445 0.304446,0.21024 0.455078,0.54508 0.455078,1.00782 0,0.24322 -0.05485,0.45289 -0.166015,0.625 -0.110161,0.17004 -0.272114,0.2945 -0.482422,0.37695 0.269395,0.0804 0.479738,0.22889 0.626953,0.44531 C 16.926514,313.51928 17,313.78539 17,314.09973 c 0,0.48231 -0.158146,0.84407 -0.474609,1.08007 -0.316464,0.23704 -0.799367,0.35352 -1.445313,0.35352 H 13 Z m 1.253906,0.87695 v 1.0586 h 0.691406 c 0.197292,0 0.347069,-0.0451 0.449219,-0.13477 0.102143,-0.0886 0.154297,-0.22036 0.154297,-0.39453 0,-0.17211 -0.05215,-0.30395 -0.154297,-0.39258 -0.10215,-0.0917 -0.251928,-0.13672 -0.449219,-0.13672 z m -0.002,1.9375 v 1.3086 h 0.734375 c 0.251368,0 0.443174,-0.0548 0.56836,-0.16407 0.128186,-0.10924 0.191406,-0.27554 0.191406,-0.49609 0,-0.21642 -0.06131,-0.37914 -0.1875,-0.48633 -0.126184,-0.10924 -0.318895,-0.16211 -0.572266,-0.16211 z"/>
 </g>
 <g id="onboard" transform="translate(0,-288.53)">
  <rect id="rect1440" style="opacity:0.00100002;fill:#000000;fill-opacity:1;stroke:none;stroke-width:0.7719245;stroke-linejoin:round;stroke-miterlimit:4;stroke-dasharray:none;stroke-opacity:1" width="32" height="32" x="0" y="288.53"/>
  <g id="g1438" transform="translate(0,288.53332)">
   <path id="path1412" style="fill:#325f78" transform="matrix(0,-1,-1,0,0,0)" d="m -25.5,-31 h 19 c 0.831,0 1.5,0.669 1.5,1.5 v 26 c 0,0.831 -0.669,1.5 -1.5,1.5 h -19 c -0.831,0 -1.5,-0.669 -1.5,-1.5 v -26 c 0,-0.831 0.669,-1.5 1.5,-1.5 z"/>
   <path id="path1414" style="opacity:0.2" transform="matrix(0,-1,-1,0,0,0)" d="M -25,-29 H -7 V -4 H -25 Z"/>
   <path id="path1416" style="opacity:0.1;fill:#ffffff" d="m 3.5,4.9994 c -0.831,0 -1.5,0.669 -1.5,1.5 v 1 c 0,-0.831 0.669,-1.5 1.5,-1.5 h 26 c 0.831,0 1.5,0.669 1.5,1.5 v -1 c 0,-0.831 -0.669,-1.5 -1.5,-1.5 z"/>
   <path id="path1418" style="opacity:0.2" d="m 2,25.5 v 1 C 2,27.331 2.669,28 3.5,28 h 26 c 0.831,0 1.5,-0.669 1.5,-1.5 v -1 C 31,26.331 30.331,27 29.5,27 H 3.5 C 2.669,27 2,26.331 2,25.5 Z"/>
   <path id="path1420" style="opacity:0.2" d="m 5.375,10.000022 c -0.2078,0 -0.375,0.1672 -0.375,0.375 v 2.25 c 0,0.208 0.1672,0.375 0.375,0.375 h 2.25 c 0.2078,0 0.375,-0.167 0.375,-0.375 v -2.25 c 0,-0.2078 -0.1672,-0.375 -0.375,-0.375 z m 5,0 c -0.2078,0 -0.375,0.1672 -0.375,0.375 v 2.25 c 0,0.208 0.1672,0.375 0.375,0.375 h 2.25 c 0.208,0 0.375,-0.167 0.375,-0.375 v -2.25 c 0,-0.2078 -0.167,-0.375 -0.375,-0.375 z m 5,0 c -0.208,0 -0.375,0.1672 -0.375,0.375 v 2.25 c 0,0.208 0.167,0.375 0.375,0.375 h 2.25 c 0.208,0 0.375,-0.167 0.375,-0.375 v -2.25 c 0,-0.2078 -0.167,-0.375 -0.375,-0.375 z m 5,0 c -0.208,0 -0.375,0.1672 -0.375,0.375 v 2.25 c 0,0.208 0.167,0.375 0.375,0.375 h 2.25 c 0.208,0 0.375,-0.167 0.375,-0.375 v -2.25 c 0,-0.2078 -0.167,-0.375 -0.375,-0.375 z m 5,0 c -0.208,0 -0.375,0.1672 -0.375,0.375 v 2.25 c 0,0.208 0.167,0.375 0.375,0.375 h 2.25 c 0.208,0 0.375,-0.167 0.375,-0.375 v -2.25 c 0,-0.2078 -0.167,-0.375 -0.375,-0.375 z m -20,5 c -0.2078,0 -0.375,0.167 -0.375,0.375 v 2.25 c 0,0.208 0.1672,0.375 0.375,0.375 h 2.25 c 0.2078,0 0.375,-0.167 0.375,-0.375 v -2.25 c 0,-0.208 -0.1672,-0.375 -0.375,-0.375 z m 5,0 c -0.2078,0 -0.375,0.167 -0.375,0.375 v 2.25 c 0,0.208 0.1672,0.375 0.375,0.375 h 2.25 c 0.208,0 0.375,-0.167 0.375,-0.375 v -2.25 c 0,-0.208 -0.167,-0.375 -0.375,-0.375 z m 5,0 c -0.208,0 -0.375,0.167 -0.375,0.375 v 2.25 c 0,0.208 0.167,0.375 0.375,0.375 h 2.25 c 0.208,0 0.375,-0.167 0.375,-0.375 v -2.25 c 0,-0.208 -0.167,-0.375 -0.375,-0.375 z m 5,0 c -0.208,0 -0.375,0.167 -0.375,0.375 v 2.25 c 0,0.208 0.167,0.375 0.375,0.375 h 2.25 c 0.208,0 0.375,-0.167 0.375,-0.375 v -2.25 c 0,-0.208 -0.167,-0.375 -0.375,-0.375 z m 5,0 c -0.208,0 -0.375,0.167 -0.375,0.375 v 2.25 c 0,0.208 0.167,0.375 0.375,0.375 h 2.25 c 0.208,0 0.375,-0.167 0.375,-0.375 v -2.25 c 0,-0.208 -0.167,-0.375 -0.375,-0.375 z m -15,5 c -0.2078,0 -0.375,0.167 -0.375,0.375 v 2.25 c 0,0.208 0.1672,0.375 0.375,0.375 h 12.25 c 0.208,0 0.375,-0.167 0.375,-0.375 v -2.25 c 0,-0.208 -0.167,-0.375 -0.375,-0.375 z"/>
   <path id="path1422" style="fill:#ffffff" d="m 5.375,9.000022 c -0.2078,0 -0.375,0.1672 -0.375,0.375 v 2.25 c 0,0.2078 0.1672,0.375 0.375,0.375 h 2.25 c 0.2078,0 0.375,-0.1672 0.375,-0.375 v -2.25 c 0,-0.2078 -0.1672,-0.375 -0.375,-0.375 z m 5,0 c -0.2078,0 -0.375,0.1672 -0.375,0.375 v 2.25 c 0,0.2078 0.1672,0.375 0.375,0.375 h 2.25 c 0.208,0 0.375,-0.1672 0.375,-0.375 v -2.25 c 0,-0.2078 -0.167,-0.375 -0.375,-0.375 z m 5,0 c -0.208,0 -0.375,0.1672 -0.375,0.375 v 2.25 c 0,0.2078 0.167,0.375 0.375,0.375 h 2.25 c 0.208,0 0.375,-0.1672 0.375,-0.375 v -2.25 c 0,-0.2078 -0.167,-0.375 -0.375,-0.375 z m 5,0 c -0.208,0 -0.375,0.1672 -0.375,0.375 v 2.25 c 0,0.2078 0.167,0.375 0.375,0.375 h 2.25 c 0.208,0 0.375,-0.1672 0.375,-0.375 v -2.25 c 0,-0.2078 -0.167,-0.375 -0.375,-0.375 z m 5,0 c -0.208,0 -0.375,0.1672 -0.375,0.375 v 2.25 c 0,0.2078 0.167,0.375 0.375,0.375 h 2.25 c 0.208,0 0.375,-0.1672 0.375,-0.375 v -2.25 c 0,-0.2078 -0.167,-0.375 -0.375,-0.375 z m -20,5 c -0.2078,0 -0.375,0.167 -0.375,0.375 v 2.25 c 0,0.208 0.1672,0.375 0.375,0.375 h 2.25 c 0.2078,0 0.375,-0.167 0.375,-0.375 v -2.25 c 0,-0.208 -0.1672,-0.375 -0.375,-0.375 z m 5,0 c -0.2078,0 -0.375,0.167 -0.375,0.375 v 2.25 c 0,0.208 0.1672,0.375 0.375,0.375 h 2.25 c 0.208,0 0.375,-0.167 0.375,-0.375 v -2.25 c 0,-0.208 -0.167,-0.375 -0.375,-0.375 z m 5,0 c -0.208,0 -0.375,0.167 -0.375,0.375 v 2.25 c 0,0.208 0.167,0.375 0.375,0.375 h 2.25 c 0.208,0 0.375,-0.167 0.375,-0.375 v -2.25 c 0,-0.208 -0.167,-0.375 -0.375,-0.375 z m 5,0 c -0.208,0 -0.375,0.167 -0.375,0.375 v 2.25 c 0,0.208 0.167,0.375 0.375,0.375 h 2.25 c 0.208,0 0.375,-0.167 0.375,-0.375 v -2.25 c 0,-0.208 -0.167,-0.375 -0.375,-0.375 z m 5,0 c -0.208,0 -0.375,0.167 -0.375,0.375 v 2.25 c 0,0.208 0.167,0.375 0.375,0.375 h 2.25 c 0.208,0 0.375,-0.167 0.375,-0.375 v -2.25 c 0,-0.208 -0.167,-0.375 -0.375,-0.375 z m -15,5 c -0.2078,0 -0.375,0.167 -0.375,0.375 v 2.25 c 0,0.208 0.1672,0.375 0.375,0.375 h 12.25 c 0.208,0 0.375,-0.167 0.375,-0.375 v -2.25 c 0,-0.208 -0.167,-0.375 -0.375,-0.375 z"/>
  </g>
 </g>
</svg>
