<svg xmlns="http://www.w3.org/2000/svg" xmlns:osb="http://www.openswatchbook.org/uri/2009/osb" id="svg" width="32" height="32" version="1.1" viewBox="0 0 32 32">
 <defs id="defs4">
  <linearGradient id="linearGradient5606" osb:paint="solid">
   <stop id="stop5608" offset="0" style="stop-color:#000000"/>
  </linearGradient>
 </defs>
 <g id="22-22-phone" transform="translate(32,9.9999997)">
  <rect style="opacity:0;fill:#111213" id="rect6" width="22" height="22" x="0" y="0" rx="0" ry="0"/>
  <path style="fill:#dfdfdf;filter:url(#filter7554)" id="path8" d="M 39 13 C 38 13 38 14 38 14 L 38 28 C 38 28 38 29 39 29 L 47 29 C 48 29 48 28 48 28 L 48 14 C 48 14 48 13 47 13 L 39 13 z M 46 16 L 46 25 L 40 25 L 40 16.001953 L 46 16 z M 42.5 26 L 43 26 L 43.5 26 C 43.777 26 44 26.223 44 26.5 L 44 27 L 44 27.5 C 44 27.777 43.777 28 43.5 28 L 43 28 L 42.5 28 C 42.223 28 42 27.777 42 27.5 L 42 27 L 42 26.5 C 42 26.223 42.223 26 42.5 26 z" transform="translate(-32,-9.9999997)"/>
 </g>
 <g id="22-22-phone-battery" transform="translate(2,-22)">
  <rect style="opacity:0;fill:#111213" id="rect11" width="22" height="22" x="30" y="0" rx="0" ry="0"/>
  <path style="fill:#dfdfdf;filter:url(#filter7554)" id="path13" d="m 39,-19 c -1,0 -1,1 -1,1 v 14 c 0,0 0,1 1,1 h 8 c 1,0 1,-1 1,-1 v -14 c 0,0 0,-1 -1,-1 z m 4,3 h 3 v 9 h -6 v -8.998047 h 3 z m 0,0.002 L 41,-11 h 2 v 3 l 2,-4 H 43 Z M 42.5,-6 h 1 c 0.277,0 0.5,0.223 0.5,0.5 v 1 c 0,0.277 -0.223,0.5 -0.5,0.5 h -1 C 42.223,-4 42,-4.223 42,-4.5 v -1 C 42,-5.777 42.223,-6 42.5,-6 Z" transform="translate(-2,22)"/>
 </g>
 <g id="16-16-phone-battery" transform="translate(21,-42)">
  <rect style="opacity:0;fill:#6b727a" id="rect16" width="16" height="16" x="33" y="26" rx="0" ry="0"/>
  <path style="fill:#dfdfdf;filter:url(#filter7554)" id="path18" d="M 58.798828 -14 C 57.998828 -14 58 -13.25 58 -13.25 L 58 -2.75 C 58 -2.75 57.9988 -2 58.798828 -2 L 65.199219 -2 C 65.999219 -2 66 -2.75 66 -2.75 L 66 -13.25 C 66 -13.25 65.999158 -14 65.199219 -14 L 58.798828 -14 z M 60 -12 L 62 -12 L 64 -12 L 64 -6 L 62 -6 L 60 -6 L 60 -12 z M 62 -6 L 63.5 -9.75 L 62 -9.75 L 62 -12 L 60.5 -9 L 62 -9 L 62 -6 z M 61.5 -5 L 62 -5 L 62.5 -5 C 62.777 -5 63 -4.777 63 -4.5 L 63 -4 L 63 -3.5 C 63 -3.223 62.777 -3 62.5 -3 L 62 -3 L 61.5 -3 C 61.223 -3 61 -3.223 61 -3.5 L 61 -4 L 61 -4.5 C 61 -4.777 61.223 -5 61.5 -5 z" transform="translate(-21,42)"/>
 </g>
 <g id="16-16-phone" transform="translate(54,-10)">
  <rect style="opacity:0;fill:#5f666d;fill-opacity:0.80740739" id="rect21" width="16" height="16" x="0" y="26" rx="0" ry="0"/>
  <path style="fill:#dfdfdf;filter:url(#filter7554)" id="path23" d="M 58.798828 18 C 57.998828 18 58 18.75 58 18.75 L 58 29.25 C 58 29.25 57.9988 30 58.798828 30 L 65.199219 30 C 65.999219 30 66 29.25 66 29.25 L 66 18.75 C 66 18.75 65.999158 18 65.199219 18 L 58.798828 18 z M 60 20 L 62 20 L 64 20 L 64 26 L 60 26 L 60 20 z M 61.5 27 L 62 27 L 62.5 27 C 62.777 27 63 27.223 63 27.5 L 63 28 L 63 28.5 C 63 28.777 62.777 29 62.5 29 L 62 29 L 61.5 29 C 61.223 29 61 28.777 61 28.5 L 61 28 L 61 27.5 C 61 27.223 61.223 27 61.5 27 z" transform="translate(-54,10)"/>
 </g>
 <g id="phone">
  <rect id="rect922" width="32" height="32" x="0" y="0" style="opacity:0.00100002"/>
  <g id="g942">
   <rect id="rect924" width="20" height="30" x="6" y="2" rx="1.5" ry="1.5" style="opacity:0.2"/>
   <rect id="rect926" width="20" height="30" x="6" y="1" rx="1.5" ry="1.5" style="fill:#8e8e8e"/>
   <rect id="rect928" width="18" height="22" x="7" y="4" style="fill:#333333"/>
   <rect id="rect930" width="4" height="1" x="14" y="2" rx=".5" ry=".492" style="fill:#333333"/>
   <rect id="rect932" width="4" height="3" x="14" y="27" rx="1" ry="1" style="fill:#4d4d4d"/>
   <path id="path934" d="M 7.5,1 C 6.669,1 6,1.669 6,2.5 v 1 C 6,2.669 6.669,2 7.5,2 h 17 C 25.331,2 26,2.669 26,3.5 v -1 C 26,1.669 25.331,1 24.5,1 Z" style="opacity:0.2;fill:#ffffff"/>
   <rect id="rect936" width="3" height="1" x="20" y="28" rx=".5" ry=".5" style="fill:#4d4d4d"/>
   <rect id="rect938" width="3" height="1" x="9" y="28" rx=".5" ry=".5" style="fill:#4d4d4d"/>
   <circle id="circle940" cx="19.5" cy="2.5" r=".5" style="fill:#333333"/>
  </g>
 </g>
 <g id="phone-battery" transform="translate(0,-32)">
  <rect style="opacity:0.00100002" id="rect26" width="32" height="32" x="0" y="0"/>
  <rect id="rect2" width="20" height="30" x="6" y="2" rx="1.5" ry="1.5" style="opacity:0.2"/>
  <rect id="rect4" width="20" height="30" x="6" y="1" rx="1.5" ry="1.5" style="fill:#8e8e8e"/>
  <rect id="rect6-3" width="18" height="22" x="7" y="4" style="fill:#333333"/>
  <rect id="rect8" width="4" height="1" x="14" y="2" rx=".5" ry=".492" style="fill:#333333"/>
  <rect id="rect10" width="4" height="3" x="14" y="27" rx="1" ry="1" style="fill:#4d4d4d"/>
  <path id="path12" d="M 7.5,1 C 6.669,1 6,1.669 6,2.5 v 1 C 6,2.669 6.669,2 7.5,2 h 17 C 25.331,2 26,2.669 26,3.5 v -1 C 26,1.669 25.331,1 24.5,1 Z" style="opacity:0.2;fill:#ffffff"/>
  <rect id="rect14" width="3" height="1" x="20" y="28" rx=".5" ry=".5" style="fill:#4d4d4d"/>
  <rect id="rect16-6" width="3" height="1" x="9" y="28" rx=".5" ry=".5" style="fill:#4d4d4d"/>
  <circle id="circle18" cx="19.5" cy="2.5" r=".5" style="fill:#333333"/>
  <path style="opacity:0.2" id="path59" d="m 16,10 v 5 h 4 l -4,7 v -5 h -4 z"/>
  <path style="fill:#f45744" id="path61" d="m 16,9 v 5 h 4 l -4,7 v -5 h -4 z"/>
 </g>
</svg>
