<svg xmlns="http://www.w3.org/2000/svg" width="32" height="32" version="1.1">
 <g id="22-22-plasmavault" transform="translate(32,10)">
  <rect style="opacity:0.001" width="22" height="22" x="0" y="0"/>
  <path style="fill:#dfdfdf" d="m 4.1425782,3.0000002 c 0,0 -1.142578,0.04269 -1.142578,1.1855469 V 16.857422 c 0,0 -2.79e-4,1.142578 1.142578,1.142578 H 17.857422 C 17.857422,18 19,18.000279 19,16.857422 V 6.1718752 c 0,-1.1428573 -1.142578,-1.171875 -1.142578,-1.171875 h -5.714844 l -2.2851558,-2 z m 6.8574218,3 c 1.6,0 3,0.9993514 3,2.9160156 V 10 h 0.333984 C 14.657204,10 15,10.366005 15,10.761719 v 4.523437 C 15,15.68087 14.703318,16 14.333984,16 H 7.6660152 c -0.369333,0 -0.666015,-0.31913 -0.666015,-0.714844 V 10.761719 C 7.0000002,10.366005 7.2966822,10 7.6660152,10 h 0.333985 V 8.9160158 C 8.0000002,6.9993516 9.3999992,6.0000002 11,6.0000002 Z m 0,1 c -0.8,0 -1.9999998,0.5633376 -1.9999998,1.9160156 V 10 H 13 V 8.9160158 c 0,-1.3662 -1.2,-1.9160156 -2,-1.9160156 z"/>
 </g>
 <g id="plasmavault">
  <rect style="opacity:0.001" width="32" height="32" x="0" y="0"/>
  <g>
   <rect style="opacity:0.2" width="25" height="16" x="3" y="12" rx="1.25" ry="1.25"/>
   <path style="fill:#3f3f3f" d="M 3,21.75 C 3,22.442 3.5575,23 4.25,23 h 22.5 C 27.442,23 28,22.442 28,21.75 V 8.25 C 28,7.5575 27.442,7 26.75,7 H 14 V 6.25 C 14,5.5575 13.443,5 12.75,5 H 4.25 C 3.5575,5 3,5.5575 3,6.25"/>
   <rect style="opacity:0.2" width="25" height="16" x="3" y="10" rx="1.25" ry="1.25"/>
   <rect style="fill:#dcdcdc" width="21" height="10" x="5" y="9" rx="1.25" ry="1.25"/>
   <rect style="fill:#4f4f4f" width="25" height="16" x="3" y="11" rx="1.25" ry="1.25"/>
   <path style="opacity:0.1;fill:#ffffff" d="M 4.25,5 C 3.5575,5 3,5.5575 3,6.25 v 1 C 3,6.5575 3.5575,6 4.25,6 h 8.5 C 13.443,6 14,6.5575 14,7.25 V 8 H 26.75 C 27.442,8 28,8.5575 28,9.25 v -1 C 28,7.5575 27.442,7 26.75,7 H 14 V 6.25 C 14,5.5575 13.443,5 12.75,5 Z"/>
   <path style="fill:#c2c2c2" d="m 16,14 c -1.66,0 -3,1.3 -3,3 v 1 H 12.5 C 12.223,18 12,18.223 12,18.5 v 5 c 0,0.277 0.223,0.5 0.5,0.5 h 7 c 0.277,0 0.5,-0.223 0.5,-0.5 v -5 C 20,18.223 19.777,18 19.5,18 H 19 v -1 c 0,-1.7 -1.34,-3 -3,-3 z m 0,1 c 1.11,0 2,0.9 2,2 v 1 h -4 v -1 c 0,-1.1 0.89,-2 2,-2 z"/>
   <path style="fill:#3f51b5" d="M 12,23.5 V 24 h 0.5 C 12.223,24 12,23.777 12,23.5 Z"/>
   <path style="fill:#3f51b5" d="M 20,23.5 C 20,23.777 19.777,24 19.5,24 H 20 Z"/>
  </g>
 </g>
</svg>
