<svg xmlns="http://www.w3.org/2000/svg" width="32" height="32" version="1">
 <g id="plasma-browser-integration">
  <rect style="opacity:0.001" width="32" height="32" x="0" y="0"/>
  <circle style="opacity:0.2" cx="16" cy="17" r="14"/>
  <path style="fill:#1ab5bc" d="M 16,2 C 8.244,2 2,8.244 2,16 2,18.571988 2.6866337,20.977706 3.8873419,23.044594 18.342164,23.546283 25.8,7.6 26.287795,6.4859066 23.733799,3.7241796 20.075657,2 16,2 Z"/>
  <path style="fill:#df5b6f" d="M 29.096289,11.071289 9.9761717,18.316016 23.117578,28.053125 C 27.238537,25.621816 30,21.150259 30,16 30,14.260804 29.670868,12.605073 29.096289,11.071289 Z"/>
  <path style="fill:#445c5c" d="M 9.9994138,18.254492 3.7896484,22.856445 C 6.1828963,27.123748 10.740262,30 16,30 c 2.638586,0 5.09322,-0.735734 7.195508,-1.994726 z"/>
  <path style="fill:#9f327b" d="M 26.137695,6.3435546 9.9775388,18.317383 29.096289,11.071289 C 28.430359,9.2936514 27.420697,7.6905401 26.137695,6.3435546 Z"/>
  <path style="opacity:0.2" d="M 11.5,7 C 10.669,7 10,7.669 10,8.5 10,9.331 10.669,10 11.5,10 12.331,10 13,9.331 13,8.5 13,7.669 12.331,7 11.5,7 Z M 18.857422,7 16,9.8007812 20.285156,14 16,18.199219 18.857422,21 23.142578,16.800781 26,14 23.142578,11.199219 Z M 8,14 c -1.107992,0 -2,0.891992 -2,2 0,1.107992 0.892008,2 2,2 1.108008,0 2,-0.892008 2,-2 0,-1.108008 -0.891992,-2 -2,-2 z m 5.5,8 C 12.115,22 11,23.115 11,24.5 11,25.885 12.115,27 13.5,27 14.885,27 16,25.885 16,24.5 16,23.115 14.885,22 13.5,22 Z"/>
  <path style="fill:#ffffff" d="M 11.5,6 C 10.669,6 10,6.669 10,7.5 10,8.331 10.669,9 11.5,9 12.331,9 13,8.331 13,7.5 13,6.669 12.331,6 11.5,6 Z M 18.857422,6 16,8.8007812 20.285156,13 16,17.199219 18.857422,20 23.142578,15.800781 26,13 23.142578,10.199219 Z M 8,13 c -1.107992,0 -2,0.891992 -2,2 0,1.107992 0.892008,2 2,2 1.108008,0 2,-0.892008 2,-2 0,-1.108008 -0.891992,-2 -2,-2 z m 5.5,8 C 12.115,21 11,22.115 11,23.5 11,24.885 12.115,26 13.5,26 14.885,26 16,24.885 16,23.5 16,22.115 14.885,21 13.5,21 Z"/>
  <path style="opacity:0.2;fill:#ffffff" d="M 16,2 A 14,14 0 0 0 2,16 14,14 0 0 0 2.0214844,16.585938 14,14 0 0 1 16,3 14,14 0 0 1 29.978516,16.414062 14,14 0 0 0 30,16 14,14 0 0 0 16,2 Z"/>
  <rect style="opacity:0.2" width="14" height="14" x="-32" y="-31" rx="7" ry="7" transform="matrix(0,-1,-1,0,0,0)"/>
  <rect style="fill:#02a8f3" width="14" height="14" x="-31" y="-31" rx="7" ry="7" transform="matrix(0,-1,-1,0,0,0)"/>
  <path style="fill:#ffffff" d="m 24,20 c -2.209143,0 -4,1.790857 -4,4 0,2.209142 1.790857,4 4,4 2.209142,0 4,-1.790858 4,-4 0,-2.209143 -1.790858,-4 -4,-4 z m -0.374219,0.797657 c 0.04352,-0.0046 0.09827,0.0026 0.142188,0 0.0052,0.02082 -0.03083,0.0955 -0.08047,0.203906 -0.316086,0.690515 -0.334761,1.49901 -0.04141,1.931249 0.05309,0.07837 0.101562,0.152808 0.101562,0.1625 0,0.0097 -0.05714,0.02032 -0.121875,0.02032 -0.15196,10e-7 -0.296026,-0.09234 -0.589843,-0.325 -0.130526,-0.103357 -0.299885,-0.189985 -0.365626,-0.203125 -0.103232,-0.02063 -0.130513,-0.01168 -0.264062,0.121875 -0.124254,0.124234 -0.162501,0.191736 -0.162501,0.305469 0,0.431289 0.512332,0.773257 1.464063,0.975 1.29249,0.273935 1.610443,0.51958 1.646094,1.199218 0.04476,0.852247 -0.408532,1.494697 -1.402343,1.992189 -0.118619,0.0594 -0.193982,0.08315 -0.243751,0.102343 -0.02205,-0.0019 -0.03973,0.0019 -0.06172,0 -0.0084,-0.02634 -0.02032,-0.0873 -0.02032,-0.203125 0,-0.452654 -0.178027,-0.919134 -0.446875,-1.179687 -0.07216,-0.06995 -0.273837,-0.217885 -0.446874,-0.325001 -0.173034,-0.10711 -0.347816,-0.231288 -0.38672,-0.284375 -0.06446,-0.08809 -0.06907,-0.141947 -0.01954,-0.304687 0.09028,-0.297225 0.197365,-0.463761 0.40625,-0.651562 0.109511,-0.09846 0.21949,-0.180072 0.24375,-0.182033 0.02426,-0.0019 -0.139632,-0.05196 -0.385938,-0.102343 -0.246293,-0.05049 -0.607472,-0.156019 -0.793749,-0.223437 -0.340627,-0.123251 -0.800453,-0.382272 -0.975782,-0.569531 -0.0074,-0.008 -0.01387,-0.01328 -0.02032,-0.02032 0.251204,-1.000641 0.956081,-1.820403 1.890625,-2.215624 0.195542,-0.08271 0.397368,-0.139289 0.610156,-0.182813 0.105992,-0.02167 0.215561,-0.03028 0.325001,-0.04141 z m 3.05,1.525 c 0.07641,0.04723 0.3653,0.672094 0.447657,0.976561 0.106327,0.393069 0.09863,1.072809 0,1.463282 -0.03754,0.148616 -0.08634,0.287383 -0.102345,0.304687 -0.016,0.01731 -0.0747,-0.08135 -0.142968,-0.202344 -0.06828,-0.120967 -0.285163,-0.378296 -0.466407,-0.569531 -0.523149,-0.552029 -0.605857,-0.839903 -0.386718,-1.280469 0.110513,-0.222163 0.591645,-0.728683 0.650781,-0.692186 z"/>
 </g>
 <g id="22-22-plasma-browser-integration" transform="translate(27,5)">
  <rect style="opacity:0.001" width="22" height="22" x="5" y="5"/>
  <path style="fill:#dfdfdf" d="m 11,7 c -0.554,0 -1,0.446 -1,1 0,0.554 0.446,1 1,1 0.554,0 1,-0.446 1,-1 C 12,7.446 11.554,7 11,7 Z M 17.285156,7 15,9.201172 18.427734,12.5 15,15.798828 17.285156,18 20.714844,14.701172 23,12.5 20.714844,10.298828 Z M 8.5,13 C 7.669006,13 7,13.668994 7,14.5 7,15.330994 7.669006,16 8.5,16 9.331006,16 10,15.330994 10,14.5 10,13.668994 9.331006,13 8.5,13 Z M 21,17 c -2.209143,0 -4,1.790857 -4,4 0,2.209142 1.790857,4 4,4 2.209142,0 4,-1.790858 4,-4 0,-2.209143 -1.790858,-4 -4,-4 z m -0.375,0.796875 c 0.04352,-0.0046 0.09866,0.0026 0.142578,0 0.0052,0.02082 -0.03044,0.09667 -0.08008,0.205078 -0.316086,0.690515 -0.334367,1.499402 -0.04102,1.931641 0.05309,0.07837 0.101563,0.152417 0.101563,0.162109 0,0.0097 -0.05831,0.01953 -0.123047,0.01953 -0.15196,1e-6 -0.296027,-0.09156 -0.589844,-0.324218 -0.130526,-0.103357 -0.299493,-0.189985 -0.365234,-0.203125 -0.103232,-0.02063 -0.130123,-0.01246 -0.263672,0.121093 -0.124254,0.124234 -0.162109,0.192908 -0.162109,0.306641 0,0.431289 0.511159,0.772866 1.46289,0.974609 1.29249,0.273935 1.610834,0.519581 1.646485,1.199219 0.04476,0.852247 -0.408533,1.494696 -1.402344,1.992188 -0.118619,0.0594 -0.194372,0.08237 -0.244141,0.101562 -0.02205,-0.0019 -0.03856,0.0019 -0.06055,0 -0.0084,-0.02634 -0.02148,-0.0873 -0.02148,-0.203125 0,-0.452654 -0.176465,-0.919134 -0.445312,-1.179687 -0.07216,-0.06995 -0.274229,-0.217103 -0.447266,-0.324219 -0.173034,-0.10711 -0.347815,-0.232069 -0.386719,-0.285156 -0.06446,-0.08809 -0.06906,-0.141948 -0.01953,-0.304688 0.09028,-0.297225 0.197365,-0.46259 0.40625,-0.65039 0.109511,-0.09846 0.219881,-0.181633 0.24414,-0.183594 0.02426,-0.0019 -0.140412,-0.05118 -0.386718,-0.101563 -0.246293,-0.05049 -0.606692,-0.155238 -0.792969,-0.222656 -0.340627,-0.123251 -0.801233,-0.383054 -0.976563,-0.570313 -0.0074,-0.008 -0.01308,-0.01249 -0.01953,-0.01953 0.251204,-1.000641 0.956081,-1.821576 1.890625,-2.216797 0.195542,-0.08271 0.396587,-0.138116 0.609375,-0.18164 0.105992,-0.02167 0.214779,-0.03184 0.324219,-0.04297 z M 13,19 c -1.108,0 -2,0.892 -2,2 0,1.108 0.892,2 2,2 1.108,0 2,-0.892 2,-2 0,-1.108 -0.892,-2 -2,-2 z m 10.675781,0.322266 c 0.07641,0.04723 0.364909,0.672095 0.447266,0.976562 0.106327,0.393069 0.09863,1.072418 0,1.462891 -0.03754,0.148616 -0.08556,0.287383 -0.101563,0.304687 -0.016,0.01731 -0.07431,-0.08018 -0.142578,-0.201172 -0.06828,-0.120967 -0.285553,-0.379077 -0.466797,-0.570312 -0.523149,-0.552029 -0.605857,-0.838731 -0.386718,-1.279297 0.110513,-0.222163 0.591254,-0.729856 0.65039,-0.693359 z"/>
 </g>
</svg>
