<svg xmlns="http://www.w3.org/2000/svg" id="svg4168" width="22" height="22" version="1.1" viewBox="0 0 22 22">
 <g id="plasmavault-error">
  <rect style="opacity:0;fill:#2b0000;fill-opacity:0.40392157;fill-rule:nonzero;stroke:none;stroke-width:1;stroke-linecap:round;stroke-linejoin:round;stroke-miterlimit:4;stroke-dasharray:none;stroke-dashoffset:0;stroke-opacity:1" id="rect4192" width="22" height="22" x="0" y="0"/>
  <path style="color:#5c616c;fill:#338dd6;fill-opacity:1;stroke-width:1.14285719" id="path5" d="M 4.1425781 3 C 4.1425781 3 3 3.04269 3 4.1855469 L 3 16.857422 C 3 16.857422 2.9997211 18 4.1425781 18 L 17.857422 18 C 17.857422 18 19 18.000279 19 16.857422 L 19 6.171875 C 19 5.0290177 17.857422 5 17.857422 5 L 12.142578 5 L 9.8574219 3 L 4.1425781 3 z M 10 6 L 12 6 L 12 13 L 10 13 L 10 6 z M 11 14 A 1 1 0 0 1 12 15 A 1 1 0 0 1 11 16 A 1 1 0 0 1 10 15 A 1 1 0 0 1 11 14 z"/>
 </g>
</svg>
