<svg xmlns="http://www.w3.org/2000/svg" id="svg4168" width="22" height="22" version="1.1" viewBox="0 0 22 22">
 <g id="plasmavault">
  <rect style="opacity:0;fill:#2b0000;fill-opacity:0.40392157;fill-rule:nonzero;stroke:none;stroke-width:1;stroke-linecap:round;stroke-linejoin:round;stroke-miterlimit:4;stroke-dasharray:none;stroke-dashoffset:0;stroke-opacity:1" id="rect4192" width="22" height="22" x="0" y="0"/>
  <path id="path5" d="m 4.1425782,3.0000002 c 0,0 -1.142578,0.04269 -1.142578,1.1855469 V 16.857422 c 0,0 -2.79e-4,1.142578 1.142578,1.142578 H 17.857422 C 17.857422,18 19,18.000279 19,16.857422 V 6.1718752 c 0,-1.1428573 -1.142578,-1.171875 -1.142578,-1.171875 h -5.714844 l -2.2851558,-2 z m 6.8574218,3 c 1.6,0 3,0.9993514 3,2.9160156 V 10 h 0.333984 C 14.657204,10 15,10.366005 15,10.761719 v 4.523437 C 15,15.68087 14.703318,16 14.333984,16 H 7.6660152 c -0.369333,0 -0.666015,-0.31913 -0.666015,-0.714844 V 10.761719 C 7.0000002,10.366005 7.2966822,10 7.6660152,10 h 0.333985 V 8.9160158 C 8.0000002,6.9993516 9.3999992,6.0000002 11,6.0000002 Z m 0,1 c -0.8,0 -1.9999998,0.5633376 -1.9999998,1.9160156 V 10 H 13 V 8.9160158 c 0,-1.3662 -1.2,-1.9160156 -2,-1.9160156 z" style="color:#5c616c;fill:#d3dae3;fill-opacity:1;stroke-width:1.14285719"/>
 </g>
</svg>
