<svg xmlns="http://www.w3.org/2000/svg" width="32" height="32" version="1">
 <g id="plasma-browser-integration">
  <rect style="opacity:0.001" width="32" height="32" x="0" y="0"/>
  <rect style="fill:#eba229" width="28" height="28" x="-30" y="-30" rx="14" ry="14" transform="matrix(0,-1,-1,0,0,0)"/>
  <g style="opacity:0.2" transform="translate(0,1.0003081)">
   <g transform="matrix(-0.062787,0,0,-0.062292,23.766,25.082)">
    <g>
     <path transform="matrix(11.498,0,0,11.498,-135.83,-118.41)" d="m 20.314,12.539 c -0.83567,0.7607 -1.5166,1.6303 -1.7871,2.8809 -0.53798,2.4879 0.77013,5.9992 6.0527,8.3926 4.9711,2.2523 5.9094,5.5908 5.2031,7.7656 -0.71244,2.1934 -3.3358,4.1732 -7.4102,3.3359 -0.43517,-0.09181 -0.86438,-0.21026 -1.2891,-0.35156 1.0881,0.73142 4.0872,1.2861 6.068,0.79777 3.7616,-0.92745 7.5687,-2.6789 9.4984,-6.6982 2.9574,-6.5276 0.05302,-14.246 -6.4746,-17.203 -3.6091,-1.6034 -7.0252,-1.4532 -9.8613,1.0801 z"/>
    </g>
   </g>
   <path d="m 22,9 a 2,2 0 0 1 -2,2 2,2 0 0 1 -2,-2 2,2 0 0 1 2,-2 2,2 0 0 1 2,2 z"/>
   <path d="m 25,13 a 2,2 0 0 1 -2,2 2,2 0 0 1 -2,-2 2,2 0 0 1 2,-2 2,2 0 0 1 2,2 z"/>
   <path d="m 26,18 a 2,2 0 0 1 -2,2 2,2 0 0 1 -2,-2 2,2 0 0 1 2,-2 2,2 0 0 1 2,2 z"/>
  </g>
  <path style="opacity:0.1;fill:#ffffff" d="M 16,2 C 8.244,2 2,8.244 2,16 2,16.169 2.0195,16.333 2.0254,16.5 2.2891,8.9794 8.4128,3 16.0004,3 c 7.5872,0 13.711,5.9794 13.975,13.5 0.006,-0.16736 0.0254,-0.33116 0.0254,-0.5 0,-7.756 -6.244,-14 -14,-14 z"/>
  <g>
   <g style="fill:#3f3f3f" transform="matrix(-0.062787,0,0,-0.062292,23.766,25.082)">
    <g>
     <path transform="matrix(11.498,0,0,11.498,-135.83,-118.41)" d="m 20.314,12.539 c -0.83567,0.7607 -1.5166,1.6303 -1.7871,2.8809 -0.53798,2.4879 0.77013,5.9992 6.0527,8.3926 4.9711,2.2523 5.9094,5.5908 5.2031,7.7656 -0.71244,2.1934 -3.3358,4.1732 -7.4102,3.3359 -0.43517,-0.09181 -0.86438,-0.21026 -1.2891,-0.35156 1.0881,0.73142 4.0872,1.2861 6.068,0.79777 3.7616,-0.92745 7.5687,-2.6789 9.4984,-6.6982 2.9574,-6.5276 0.05302,-14.246 -6.4746,-17.203 -3.6091,-1.6034 -7.0252,-1.4532 -9.8613,1.0801 z"/>
    </g>
   </g>
   <path style="fill:#3f3f3f" d="m 22,9 a 2,2 0 0 1 -2,2 2,2 0 0 1 -2,-2 2,2 0 0 1 2,-2 2,2 0 0 1 2,2 z"/>
   <path style="fill:#3f3f3f" d="m 25,13 a 2,2 0 0 1 -2,2 2,2 0 0 1 -2,-2 2,2 0 0 1 2,-2 2,2 0 0 1 2,2 z"/>
   <path style="fill:#3f3f3f" d="m 26,18 a 2,2 0 0 1 -2,2 2,2 0 0 1 -2,-2 2,2 0 0 1 2,-2 2,2 0 0 1 2,2 z"/>
  </g>
  <path style="opacity:0.2" d="M 2.0254,16.5 C 2.0195,16.667 2,16.831 2,17 c 0,7.756 6.244,14 14,14 7.756,0 14,-6.244 14,-14 0,-0.16884 -0.01952,-0.33264 -0.02539,-0.5 -0.264,7.521 -6.388,13.5 -13.975,13.5 -7.5872,0 -13.711,-5.979 -13.975,-13.5 z"/>
  <rect style="opacity:0.2" width="16" height="16" x="-32" y="-32" rx="8" ry="8" transform="matrix(0,-1,-1,0,0,0)"/>
  <rect style="fill:#02a8f3" width="16" height="16" x="-31" y="-32" rx="8" ry="8" transform="matrix(0,-1,-1,0,0,0)"/>
  <path style="fill:#ffffff" d="m 24,18 c -2.761429,0 -5,2.238572 -5,5 0,2.761428 2.238571,5 5,5 2.761428,0 5,-2.238572 5,-5 0,-2.761428 -2.238572,-5 -5,-5 z m -0.467774,0.997071 c 0.0544,-0.0057 0.122843,0.0032 0.177735,0 0.0065,0.02602 -0.03854,0.119377 -0.100586,0.254882 -0.395108,0.863144 -0.41845,1.873764 -0.05176,2.414062 0.06636,0.09796 0.126953,0.19101 0.126953,0.203125 0,0.01212 -0.07143,0.02539 -0.152344,0.02539 -0.18995,1e-6 -0.370032,-0.11542 -0.737304,-0.40625 -0.163156,-0.129195 -0.374856,-0.237481 -0.457032,-0.253906 -0.12904,-0.02578 -0.163142,-0.01461 -0.330078,0.152344 -0.155317,0.155292 -0.203125,0.23967 -0.203125,0.381836 0,0.539111 0.640414,0.966572 1.830078,1.21875 1.615612,0.342419 2.013053,0.649476 2.057618,1.499023 0.05595,1.065309 -0.510665,1.868371 -1.75293,2.490235 -0.148273,0.07425 -0.242477,0.103939 -0.304688,0.127929 -0.02757,-0.0024 -0.04967,0.0024 -0.07715,0 -0.01057,-0.03293 -0.02539,-0.109122 -0.02539,-0.253906 0,-0.565817 -0.222534,-1.148918 -0.558593,-1.474609 -0.09021,-0.08744 -0.342296,-0.272355 -0.558594,-0.40625 -0.216291,-0.133888 -0.434769,-0.289111 -0.483399,-0.355469 -0.08057,-0.110117 -0.08633,-0.177434 -0.02442,-0.380859 0.11284,-0.371532 0.246706,-0.579702 0.507813,-0.814453 0.136888,-0.123071 0.274362,-0.22509 0.304687,-0.22754 0.03033,-0.0024 -0.17454,-0.06495 -0.482422,-0.127929 -0.307866,-0.06311 -0.759341,-0.195024 -0.992188,-0.279297 -0.425782,-0.154063 -1.000565,-0.477839 -1.219726,-0.711914 -0.0093,-0.0099 -0.01734,-0.0166 -0.02539,-0.02539 0.314006,-1.250802 1.195101,-2.275503 2.363282,-2.76953 0.244427,-0.103384 0.49671,-0.174112 0.762695,-0.228516 0.132489,-0.02708 0.269451,-0.03785 0.40625,-0.05176 z m 3.812501,1.90625 c 0.09551,0.05904 0.456624,0.840118 0.55957,1.220702 0.13291,0.491336 0.12329,1.341011 0,1.829102 -0.04693,0.18577 -0.107925,0.359229 -0.12793,0.380859 -0.02,0.02163 -0.09337,-0.101697 -0.178711,-0.25293 -0.08535,-0.151209 -0.356454,-0.47287 -0.583008,-0.711914 -0.653937,-0.690036 -0.757321,-1.049878 -0.483398,-1.600586 0.138141,-0.277704 0.739556,-0.910853 0.813477,-0.865233 z"/>
 </g>
 <g id="22-22-plasma-browser-integration" transform="translate(27,5)">
  <rect style="opacity:0.001" width="22" height="22" x="5" y="5"/>
  <path style="fill:#dfdfdf" d="m 16,8 c -4.432,0 -8,3.568 -8,8 0,4.432 3.568,8 8,8 0.467807,0 0.923765,-0.04868 1.369141,-0.125 A 5,5 0 0 1 17,22 5,5 0 0 1 19.351562,17.761719 0.99999999,1 0 0 1 19,17 0.99999999,1 0 0 1 20,16 0.99999999,1 0 0 1 21,17 0.99999999,1 0 0 1 20.9922,17.107422 5,5 0 0 1 22,17 5,5 0 0 1 23.875,17.369141 C 23.951324,16.923765 24,16.467807 24,16 24,11.568 20.432,8 16,8 Z m -1.564453,3 c 0.62453,-0.0063 1.306985,0.172348 1.601562,0.390625 -0.15331,-0.05622 -0.307761,-0.104093 -0.464843,-0.140625 -1.470729,-0.333166 -2.418613,0.455359 -2.675782,1.328125 -0.254951,0.865365 0.0845,2.193641 1.878907,3.089844 1.906839,0.952347 2.377787,2.349895 2.183593,3.339843 -0.09764,0.497622 -0.342881,0.843798 -0.644531,1.146485 -1.023742,1.008014 -2.255823,1.067689 -3.558594,0.429687 -2.356263,-1.176606 -3.405418,-4.248335 -2.33789,-6.845703 0.69656,-1.599301 2.069916,-2.295025 3.427734,-2.664062 C 14.024455,11.025641 14.22737,11.002086 14.435547,11 Z M 18,11 a 0.99999999,1 0 0 1 1,1 0.99999999,1 0 0 1 -1,1 0.99999999,1 0 0 1 -1,-1 0.99999999,1 0 0 1 1,-1 z m 2,2 a 0.99999999,1 0 0 1 1,1 0.99999999,1 0 0 1 -1,1 0.99999999,1 0 0 1 -1,-1 0.99999999,1 0 0 1 1,-1 z"/>
  <path style="fill:#dfdfdf" d="m 22,18 c -2.209143,0 -4,1.790858 -4,4 0,2.209142 1.790857,4 4,4 2.209142,0 4,-1.790858 4,-4 0,-2.209142 -1.790858,-4 -4,-4 z m -0.374219,0.797657 c 0.04352,-0.0046 0.09827,0.0026 0.142188,0 0.0052,0.02082 -0.03083,0.0955 -0.08047,0.203905 -0.316086,0.690516 -0.33476,1.499012 -0.04141,1.93125 0.05309,0.07837 0.101562,0.152808 0.101562,0.1625 0,0.0097 -0.05714,0.02031 -0.121875,0.02031 -0.15196,1e-6 -0.296025,-0.09234 -0.589843,-0.325 -0.130525,-0.103356 -0.299885,-0.189985 -0.365626,-0.203125 -0.103232,-0.02062 -0.130513,-0.01169 -0.264062,0.121875 -0.124254,0.124234 -0.1625,0.191736 -0.1625,0.305469 0,0.431289 0.512331,0.773258 1.464062,0.975 1.29249,0.273935 1.610443,0.519581 1.646095,1.199219 0.04476,0.852247 -0.408532,1.494696 -1.402344,1.992188 -0.118619,0.0594 -0.193982,0.08315 -0.243751,0.102343 -0.02206,-0.0019 -0.03974,0.0019 -0.06172,0 -0.0085,-0.02634 -0.02031,-0.0873 -0.02031,-0.203125 0,-0.452654 -0.178027,-0.919134 -0.446874,-1.179687 -0.07217,-0.06995 -0.273837,-0.217884 -0.446875,-0.325 -0.173033,-0.107111 -0.347815,-0.231289 -0.386719,-0.284375 -0.06446,-0.08809 -0.06906,-0.141948 -0.01954,-0.304688 0.09027,-0.297225 0.197364,-0.463761 0.40625,-0.651562 0.10951,-0.09846 0.21949,-0.180072 0.24375,-0.182032 0.02426,-0.0019 -0.139632,-0.05196 -0.385938,-0.102343 -0.246293,-0.05049 -0.607473,-0.156019 -0.79375,-0.223438 -0.340626,-0.12325 -0.800452,-0.382271 -0.975781,-0.569531 -0.0074,-0.0079 -0.01387,-0.01328 -0.02031,-0.02031 0.251205,-1.000642 0.956081,-1.820402 1.890625,-2.215624 0.195542,-0.08271 0.397368,-0.13929 0.610156,-0.182813 0.105992,-0.02166 0.215561,-0.03028 0.325,-0.04141 z m 3.050001,1.525 c 0.07641,0.04723 0.365299,0.672094 0.447656,0.976561 0.106328,0.393069 0.09863,1.072809 0,1.463282 -0.03754,0.148616 -0.08634,0.287383 -0.102344,0.304687 -0.016,0.0173 -0.0747,-0.08136 -0.142969,-0.202344 -0.06828,-0.120967 -0.285163,-0.378296 -0.466407,-0.569531 -0.523149,-0.552029 -0.605856,-0.839902 -0.386718,-1.280469 0.110513,-0.222163 0.591645,-0.728682 0.650782,-0.692186 z"/>
 </g>
</svg>
