<svg xmlns="http://www.w3.org/2000/svg" width="32" height="32" version="1.1">
 <g id="22-22-plasmavault_error" transform="translate(32,10)">
  <rect style="opacity:0.001" width="22" height="22" x="0" y="0"/>
  <path style="fill:#f44336" d="M 4.1425781,3 C 4.1425781,3 3,3.04269 3,4.1855469 V 16.857422 C 3,16.857422 2.9997211,18 4.1425781,18 H 17.857422 C 17.857422,18 19,18.000279 19,16.857422 V 6.171875 C 19,5.0290177 17.857422,5 17.857422,5 H 12.142578 L 9.8574219,3 Z M 10,6 h 2 v 7 h -2 z m 1,8 a 1,1 0 0 1 1,1 1,1 0 0 1 -1,1 1,1 0 0 1 -1,-1 1,1 0 0 1 1,-1 z"/>
 </g>
 <g id="plasmavault_error">
  <rect style="opacity:0.001" width="32" height="32" x="0" y="0"/>
  <rect width="28" height="18" x="2" y="11" rx="1.4" ry="1.4" style="opacity:0.2"/>
  <path d="M 2,22.6 C 2,23.376 2.6244,24 3.4,24 H 28.6 C 29.376,24 30,23.376 30,22.6 V 7.4 C 30,6.6244 29.376,6 28.6,6 H 16 C 13.9,6 13.2,3 11.1,3 H 3.4 C 2.6244,3 2,3.6244 2,4.4" style="fill:#bf4b4b"/>
  <rect width="28" height="18" x="2" y="9" rx="1.4" ry="1.4" style="opacity:0.2"/>
  <rect width="24" height="11" x="4" y="8" rx="1.4" ry="1.4" style="fill:#e4e4e4"/>
  <rect width="28" height="18" x="2" y="10" rx="1.4" ry="1.4" style="fill:#e25252"/>
  <path d="M 3.4004,3 C 2.6248,3 2,3.6248 2,4.4004 V 5.4004 C 2,4.6248 2.6248,4 3.4004,4 H 11.1 C 13.2,4 13.9,7 16,7 H 28.6 C 29.375,7 30,7.6248 30,8.4004 V 7.4004 C 30,6.6248 29.375,6 28.6,6 H 16 C 13.9,6 13.2,3 11.1,3 Z" style="opacity:0.1;fill:#ffffff"/>
  <path style="fill:#4f1d1d" d="M 15,14 V 21 H 17 V 14 Z M 16,22 A 1,1 0 0 0 15,23 1,1 0 0 0 16,24 1,1 0 0 0 17,23 1,1 0 0 0 16,22 Z"/>
 </g>
</svg>
