<svg xmlns="http://www.w3.org/2000/svg" width="32" height="32" version="1.1">
 <g id="22-22-plasmavault" transform="translate(32,10)">
  <rect style="opacity:0.001" width="22" height="22" x="0" y="0"/>
  <path style="fill:#dfdfdf" d="m 4.1425782,3.0000002 c 0,0 -1.142578,0.04269 -1.142578,1.1855469 V 16.857422 c 0,0 -2.79e-4,1.142578 1.142578,1.142578 H 17.857422 C 17.857422,18 19,18.000279 19,16.857422 V 6.1718752 c 0,-1.1428573 -1.142578,-1.171875 -1.142578,-1.171875 h -5.714844 l -2.2851558,-2 z m 6.8574218,3 c 1.6,0 3,0.9993514 3,2.9160156 V 10 h 0.333984 C 14.657204,10 15,10.366005 15,10.761719 v 4.523437 C 15,15.68087 14.703318,16 14.333984,16 H 7.6660152 c -0.369333,0 -0.666015,-0.31913 -0.666015,-0.714844 V 10.761719 C 7.0000002,10.366005 7.2966822,10 7.6660152,10 h 0.333985 V 8.9160158 C 8.0000002,6.9993516 9.3999992,6.0000002 11,6.0000002 Z m 0,1 c -0.8,0 -1.9999998,0.5633376 -1.9999998,1.9160156 V 10 H 13 V 8.9160158 c 0,-1.3662 -1.2,-1.9160156 -2,-1.9160156 z"/>
 </g>
 <g id="plasmavault">
  <rect style="opacity:0.001" width="32" height="32" x="0" y="0"/>
  <rect width="28" height="18" x="2" y="11" rx="1.4" ry="1.4" style="opacity:0.2"/>
  <path d="M 2,22.6 C 2,23.376 2.6244,24 3.4,24 H 28.6 C 29.376,24 30,23.376 30,22.6 V 7.4 C 30,6.6244 29.376,6 28.6,6 H 16 C 13.9,6 13.2,3 11.1,3 H 3.4 C 2.6244,3 2,3.6244 2,4.4" style="fill:#3f3f3f"/>
  <rect width="28" height="18" x="2" y="9" rx="1.4" ry="1.4" style="opacity:0.2"/>
  <rect width="24" height="11" x="4" y="8" rx="1.4" ry="1.4" style="fill:#dcdcdc"/>
  <rect width="28" height="18" x="2" y="10" rx="1.4" ry="1.4" style="fill:#4f4f4f"/>
  <path d="M 3.4004,3 C 2.6248,3 2,3.6248 2,4.4004 V 5.4004 C 2,4.6248 2.6248,4 3.4004,4 H 11.1 C 13.2,4 13.9,7 16,7 H 28.6 C 29.375,7 30,7.6248 30,8.4004 V 7.4004 C 30,6.6248 29.375,6 28.6,6 H 16 C 13.9,6 13.2,3 11.1,3 Z" style="opacity:0.1;fill:#ffffff"/>
  <path d="M 16,14 C 14.34,14 13,15.3 13,17 V 18 H 12.5 C 12.223,18 12,18.223 12,18.5 V 23.5 C 12,23.777 12.223,24 12.5,24 H 19.5 C 19.777,24 20,23.777 20,23.5 V 18.5 C 20,18.223 19.777,18 19.5,18 H 19 V 17 C 19,15.3 17.66,14 16,14 Z M 16,15 C 17.11,15 18,15.9 18,17 V 18 H 14 V 17 C 14,15.9 14.89,15 16,15 Z" style="fill:#c2c2c2"/>
 </g>
</svg>
