<svg xmlns="http://www.w3.org/2000/svg" width="32" height="32" version="1.1">
 <g id="22-22-preferences-desktop-notification" transform="translate(32,-8)">
  <rect style="opacity:0.001" width="22" height="22" x="0" y="40"/>
  <path style="fill:#4285f4" d="m 11,43 c -4.418278,0 -8,3.581722 -8,8 0,4.418278 3.581722,8 8,8 4.418278,0 8,-3.581722 8,-8 0,-4.418278 -3.581722,-8 -8,-8 z"/>
  <path style="fill:#dfdfdf" d="m 10,47 v 6 h 2 v -6 z m 1,7 c -0.453152,0 -1,0.518427 -1,0.980469 C 10,55.442512 10.546848,56 11,56 11.453152,56 12,55.442512 12,54.980469 12,54.518427 11.453152,54 11,54 Z"/>
 </g>
 <g id="22-22-preferences-desktop-display-randr" transform="translate(0,32)">
  <rect style="opacity:0.001" width="22" height="22" x="0" y="0"/>
  <path style="fill:#dfdfdf" d="M 3.125,2.9999998 C 2,2.9999998 2,4.1431759 2,4.1431759 V 15.874512 c 0,1.143176 1.125,1.143176 1.125,1.143176 h 5.0375 c 0,0 -1.2001266,-0.298955 -1.1625,0.843601 V 19 h 8 v -1.138711 c 0,-1.143176 -1.050415,-0.843601 -1.050415,-0.843601 H 18.875 C 20,17.017688 20,15.874512 20,15.874512 V 4.1431759 c 0,0 0,-1.1431761 -1.125,-1.1431761 z M 4,5 h 14 v 9.98549 L 4,15.01451 Z"/>
 </g>
 <g id="preferences-desktop-display-randr">
  <rect style="opacity:0.001" width="32" height="32" x="0" y="0"/>
  <g transform="translate(0,-1)">
   <rect style="opacity:0.2" width="16" height="21" x="8" y="8" rx="1.25" ry="1.25"/>
   <rect style="fill:#8e8e8e" width="16" height="21" x="8" y="7" rx="1.25" ry="1.25"/>
   <rect style="opacity:0.2" width="26" height="20" x="3" y="6" rx="1.25" ry="1.25"/>
   <path style="fill:#595959" d="m 3,22 v 1.75 C 3,24.4425 3.5575,25 4.25,25 h 23.5 C 28.4425,25 29,24.4425 29,23.75 V 22 Z"/>
   <path style="fill:#333333" d="M 4.25,5 C 3.5575,5 3,5.5575 3,6.25 V 22 H 29 V 6.25 C 29,5.5575 28.4425,5 27.75,5 Z"/>
   <rect style="opacity:0.1;fill:#ffffff" width="26" height="1" x="3" y="22"/>
   <path style="fill:#ffffff;opacity:0.1" d="M 4.25 5 C 3.5575 5 3 5.5575 3 6.25 L 3 7.25 C 3 6.5575 3.5575 6 4.25 6 L 27.75 6 C 28.442 6 29 6.5575 29 7.25 L 29 6.25 C 29 5.5575 28.442 5 27.75 5 L 4.25 5 z"/>
  </g>
 </g>
 <g id="preferences-desktop-notification" transform="translate(32)">
  <rect style="opacity:0.001" width="32" height="32" x="0" y="0"/>
  <path style="opacity:0.2" d="M 16,3 C 8.2680132,3 1.9999996,9.2680135 1.9999996,17 1.9999996,24.731986 8.2680132,31 16,31 23.731987,31 30,24.731986 30,17 30,9.2680135 23.731987,3 16,3 Z"/>
  <path style="fill:#4285f4" d="M 16,2 C 8.2680132,2 1.9999996,8.2680135 1.9999996,16 1.9999996,23.731986 8.2680132,30 16,30 23.731987,30 30,23.731986 30,16 30,8.2680135 23.731987,2 16,2 Z"/>
  <path style="opacity:0.2" d="m 14,8 v 12 h 4 V 8 Z m 2,14 c -0.906304,0 -2,1.036854 -2,1.960938 C 14,24.885024 15.093696,26 16,26 16.906304,26 18,24.885024 18,23.960938 18,23.036854 16.906304,22 16,22 Z"/>
  <path style="fill:#ffffff" d="m 14,7 v 12 h 4 V 7 Z m 2,14 c -0.906304,0 -2,1.036854 -2,1.960938 C 14,23.885024 15.093696,25 16,25 16.906304,25 18,23.885024 18,22.960938 18,22.036854 16.906304,21 16,21 Z"/>
  <path style="opacity:0.2;fill:#ffffff" d="M 16,2 C 8.2680132,2 2,8.2680135 2,16 2,16.168777 2.019467,16.332668 2.025391,16.5 2.2908203,9.0015471 8.4367904,3 16,3 23.56321,3 29.70918,9.0015471 29.974609,16.5 29.980533,16.332668 30,16.168777 30,16 30,8.2680135 23.731987,2 16,2 Z"/>
 </g>
 <g id="preferences-system-bluetooth" transform="translate(64)">
  <rect style="opacity:0.001" width="32" height="32" x="0" y="0"/>
  <g>
   <rect style="fill:#324090" width="28" height="20" x="-30" y="-26" rx="11" ry="10" transform="matrix(0,-1,-1,0,0,0)"/>
   <path style="opacity:0.1;fill:#ffffff" d="M 16,2 C 10.46,2 6,6.906 6,13 v 1 C 6,7.906 10.46,3 16,3 21.54,3 26,7.906 26,14 V 13 C 26,6.906 21.54,2 16,2 Z"/>
   <path style="fill:none;stroke:#ffffff;stroke-linecap:square" d="m 11,11.5 9,9 -4.5,4.25 V 7.25 l 4.5,4.25 -9,8"/>
   <path style="opacity:0.2" d="m 6,19 v 1 c 0,6.094 4.46,11 10,11 5.54,0 10,-4.906 10,-11 V 19 C 26,25.094 21.54,30 16,30 10.46,30 6,25.094 6,19 Z"/>
  </g>
 </g>
 <g id="22-22-preferences-system-windows" transform="translate(155,27)">
  <rect style="opacity:0.001" width="22" height="22" x="5" y="5"/>
  <path style="fill:#dfdfdf" d="M 13.5,9 C 13,9 13,9.5 13,9.5 v 8 c 0,0.5 0.5,0.5 0.5,0.5 h 10 c 0,0 0.5,0 0.5,-0.5 v -8 C 24,9 23.5,9 23.5,9 Z m 1.5,3 h 7 v 4 H 15 Z M 7.519531,14 C 7.519531,14 7,14 7,14.5 v 8 C 7,23 7.5,23 7.5,23 h 10 c 0,0 0.5,-0.02 0.5,-0.5 V 19 h -2 v 2 H 9 v -4 h 3 v -3 z"/>
 </g>
 <g id="preferences-system-windows" transform="translate(160)">
  <rect style="opacity:0.001" width="32" height="32" x="0" y="0"/>
  <g transform="translate(0,1)">
   <path style="fill:#d3d3d3" d="M 9.5,1 C 9.3521,1 9.2129,1.0288 9.0781,1.0684 9.2147,1.0357 9.3499,1 9.5,1 Z M 8,4.9 V 18.5 C 8,19.331 8.669,20 9.5,20 h 19 C 29.331,20 30,19.331 30,18.5 V 4.9 Z"/>
   <path style="opacity:0.2" d="m 8,18.5 v 1 C 8,20.331 8.669,21 9.5,21 h 19 c 0.831,0 1.5,-0.669 1.5,-1.5 v -1 C 30,19.331 29.331,20 28.5,20 H 9.5 C 8.669,20 8,19.331 8,18.5 Z"/>
   <path style="fill:#e4e4e4" d="M 2,13.9 V 27.5 C 2,28.331 2.669,29 3.5,29 h 19 C 23.331,29 24,28.331 24,27.5 V 13.9 Z"/>
   <path style="fill:#636e73" d="M 3.5,10 C 2.669,10 2,10.669 2,11.5 V 14 H 24 V 11.5 C 24,10.669 23.331,10 22.5,10 Z"/>
   <path style="fill:#5a6367" d="M 9.5,1 C 8.669,1 8,1.5 8,2.5 V 5 H 30 V 2.5 C 30,1.669 29.331,1 28.5,1 Z"/>
   <path style="opacity:0.1;fill:#ffffff" d="M 9.5,1 C 8.669,1 8,1.669 8,2.5 v 1 C 8,2.669 8.669,2 9.5,2 h 19 C 29.331,2 30,2.669 30,3.5 v -1 C 30,1.669 29.331,1 28.5,1 Z"/>
   <path style="opacity:0.2" d="m 2,27.5 v 1 C 2,29.331 2.669,30 3.5,30 h 19 c 0.831,0 1.5,-0.669 1.5,-1.5 v -1 C 24,28.331 23.331,29 22.5,29 H 3.5 C 2.669,29 2,28.331 2,27.5 Z"/>
  </g>
 </g>
 <g id="preferences-desktop-notification-bell" transform="translate(-22,32)">
  <rect style="opacity:0.001" width="22" height="22" x="0" y="0"/>
  <path style="fill:#dfdfdf" d="M 11,3.0000001 C 11.55,3.0000001 12,3.4500001 12,4.0000001 12,4.0300001 12,4.0700001 11.99,4.1000001 14.28,4.5600001 16,6.5700001 16,9.0000001 V 11 13.5 L 18,15.5 V 16 H 16 6 4 V 15.5 L 6,13.5 V 9.0000001 C 6,6.5700001 7.72,4.5600001 10.01,4.1000001 10,4.0700001 10,4.0300001 10,4.0000001 10,3.4500001 10.45,3.0000001 11,3.0000001 Z M 12.73,17 C 12.37,17.62 11.71,18 11,18 10.29,18 9.63,17.62 9.27,17 Z"/>
 </g>
 <g id="22-22-preferences-system-bluetooth" transform="translate(-128,54)">
  <rect style="opacity:0.001" width="22" height="22" x="192" y="-22"/>
  <path style="fill:#dfdfdf" d="m 201.56552,-18.900774 a 1.0001,1.0001 0 0 0 -0.5664,0.900391 v 4.066406 l -2.38672,-1.855468 a 1,1 0 0 0 -1.40235,0.175781 1,1 0 0 0 0.17579,1.402344 l 3.61328,2.810546 v 0.800782 l -3.61328,2.8105474 a 1,1 0 0 0 -0.17579,1.402343 1,1 0 0 0 1.40235,0.175782 l 2.38672,-1.855469 v 4.066406 a 1.0001,1.0001 0 0 0 1.625,0.78125 l 5,-4 a 1.0001,1.0001 0 0 0 -0.0117,-1.570312 l -2.8418,-2.2109384 2.8418,-2.210937 a 1.0001,1.0001 0 0 0 0.0117,-1.570313 l -5,-4 a 1.0001,1.0001 0 0 0 -1.0586,-0.119141 z m 1.4336,2.982422 2.38476,1.908203 -2.24219,1.744141 -0.14257,-0.111328 z m 0.14257,6.1835944 2.24219,1.744141 -2.38476,1.908203 v -3.541016 z"/>
 </g>
 <g id="22-22-preferences-system-bluetooth-activated" transform="translate(-128,54)">
  <rect style="opacity:0.001" width="22" height="22" x="224" y="-22"/>
  <path style="fill:#dfdfdf" d="m 233.92578,-18.998047 a 1.0001,1.0001 0 0 0 -0.35937,0.09766 A 1.0001,1.0001 0 0 0 233,-18 v 4.066406 l -2.38672,-1.855468 a 1,1 0 0 0 -1.40234,0.175781 1,1 0 0 0 0.17578,1.402343 L 233,-11.400391 v 0.800782 l -3.61328,2.8105465 a 1,1 0 0 0 -0.17578,1.4023437 1,1 0 0 0 1.40234,0.1757813 L 233,-8.0664062 V -4 a 1.0001,1.0001 0 0 0 1.625,0.78125 l 5,-4 a 1.0001,1.0001 0 0 0 -0.0117,-1.5703125 L 236.77148,-11 l 2.8418,-2.210938 a 1.0001,1.0001 0 0 0 0.0117,-1.570312 l -5,-4 a 1.0001,1.0001 0 0 0 -0.69922,-0.216797 z m 1.07422,3.080078 2.38477,1.908203 -2.24219,1.744141 L 235,-12.376953 Z M 229,-12 a 1,1 0 0 0 -1,1 1,1 0 0 0 1,1 1,1 0 0 0 1,-1 1,1 0 0 0 -1,-1 z m 12,0 a 1,1 0 0 0 -1,1 1,1 0 0 0 1,1 1,1 0 0 0 1,-1 1,1 0 0 0 -1,-1 z m -5.85742,2.265625 2.24219,1.7441406 L 235,-6.0820312 v -3.5410157 z"/>
 </g>
 <g id="22-22-preferences-system-bluetooth-inactive" style="opacity:1">
  <rect style="opacity:0.001" width="22" height="22" x="128" y="32"/>
  <path style="opacity:0.35;fill:#dfdfdf" d="m 137.92578,35.002771 c -0.12472,0.0092 -0.24662,0.04052 -0.35937,0.09461 -0.346,0.166512 -0.56611,0.516414 -0.56641,0.900391 v 2.029297 l 2,1.558594 v -1.50586 l 2.38477,1.908203 -0.93555,0.728516 1.62695,1.267578 1.53711,-1.197266 c 0.51053,-0.396616 0.51628,-1.16612 0.0117,-1.570312 l -5,-4 c -0.19758,-0.157339 -0.44738,-0.232998 -0.69922,-0.21375 z M 133.23242,37.120818 132,38.69699 l 5,3.90039 v 0.800782 l -3.61328,2.810547 c -0.43546,0.338893 -0.51412,0.966456 -0.17578,1.402343 0.33889,0.435458 0.96645,0.514122 1.40234,0.175781 L 137,45.931365 v 4.066406 c -3.5e-4,0.838869 0.97005,1.305407 1.625,0.78125 l 4.38086,-3.503906 1.76172,1.373047 L 146,47.07199 Z m 5.91016,7.142578 2.24023,1.746094 L 139,47.91574 v -3.541016 z"/>
 </g>
 <g id="preferences-system-bluetooth-activated">
  <rect style="opacity:0.001" width="32" height="32" x="96" y="0"/>
  <rect style="fill:#324090" width="28" height="20" x="-30" y="-122" rx="11" ry="10" transform="matrix(0,-1,-1,0,0,0)"/>
  <path style="opacity:0.1;fill:#ffffff" d="m 112,2 c -5.54,0 -10,4.906 -10,11 v 1 c 0,-6.094 4.46,-11 10,-11 5.54,0 10,4.906 10,11 V 13 C 122,6.906 117.54,2 112,2 Z"/>
  <path style="fill:none;stroke:#2fec5d;stroke-linecap:square" d="m 107,11.5 9,9 -4.5,4.25 V 7.25 l 4.5,4.25 -9,8"/>
  <path style="opacity:0.2" d="m 102,19 v 1 c 0,6.094 4.46,11 10,11 5.54,0 10,-4.906 10,-11 v -1 c 0,6.094 -4.46,11 -10,11 -5.54,0 -10,-4.906 -10,-11 z"/>
  <path style="fill:#2fec5d" d="M 105.5 14 A 1.5 1.5 0 0 0 104 15.5 A 1.5 1.5 0 0 0 105.5 17 A 1.5 1.5 0 0 0 107 15.5 A 1.5 1.5 0 0 0 105.5 14 z M 118.5 14 A 1.5 1.5 0 0 0 117 15.5 A 1.5 1.5 0 0 0 118.5 17 A 1.5 1.5 0 0 0 120 15.5 A 1.5 1.5 0 0 0 118.5 14 z"/>
 </g>
 <g id="preferences-system-bluetooth-inactive">
  <rect style="opacity:0.001" width="32" height="32" x="128" y="0"/>
  <rect style="fill:#324090" width="28" height="20" x="-30" y="-154" rx="11" ry="10" transform="matrix(0,-1,-1,0,0,0)"/>
  <path style="opacity:0.1;fill:#ffffff" d="m 144,2 c -5.54,0 -10,4.906 -10,11 v 1 c 0,-6.094 4.46,-11 10,-11 5.54,0 10,4.906 10,11 V 13 C 154,6.906 149.54,2 144,2 Z"/>
  <path style="fill:none;stroke:#ffffff;stroke-linecap:square" d="m 139,11.5 9,9 -4.5,4.25 V 7.25 l 4.5,4.25 -9,8"/>
  <path style="opacity:0.2" d="m 134,19 v 1 c 0,6.094 4.46,11 10,11 5.54,0 10,-4.906 10,-11 v -1 c 0,6.094 -4.46,11 -10,11 -5.54,0 -10,-4.906 -10,-11 z"/>
  <circle style="opacity:0.2;fill:#000000" cx="152" cy="24" r="8"/>
  <circle style="fill:#db3c30" cx="152" cy="23" r="8"/>
  <path style="fill:#ffffff" d="M 149.14286,19 148,20.142631 150.85714,23.000789 148,25.857368 149.14286,27 152.00001,24.143421 154.85714,27 156,25.857368 153.14285,23.000789 156,20.142631 154.85714,19 l -2.85713,2.856578 z"/>
 </g>
</svg>
