<svg xmlns="http://www.w3.org/2000/svg" id="svg" width="22" height="22" version="1.1" viewBox="0 0 22 22">
 <g id="preferences-desktop-notification" transform="translate(22,-40)">
  <rect id="rect3068" width="22" height="22" x="0" y="40" style="opacity:0;fill:#000000;fill-opacity:0.94117647;stroke:none"/>
  <path id="path4238" d="m 11,43 c -4.418278,0 -8,3.581722 -8,8 0,4.418278 3.581722,8 8,8 4.418278,0 8,-3.581722 8,-8 0,-4.418278 -3.581722,-8 -8,-8 z" style="opacity:1;fill:#338dd6;fill-opacity:1;fill-rule:nonzero;stroke:none;stroke-width:1;stroke-linecap:round;stroke-linejoin:round;stroke-miterlimit:4;stroke-dasharray:none;stroke-dashoffset:0;stroke-opacity:1"/>
  <path id="path4173-0" d="m 10,47 v 6 h 2 v -6 z m 1,7 c -0.453152,0 -1,0.518427 -1,0.980469 C 10,55.442512 10.546848,56 11,56 11.453152,56 12,55.442512 12,54.980469 12,54.518427 11.453152,54 11,54 Z" style="opacity:1;fill:#d3dae3;fill-opacity:1;stroke:none"/>
 </g>
 <g id="preferences-system-bluetooth-activated" transform="translate(44,-104)">
  <rect id="rect3969-75" width="22" height="22" x="0" y="104" style="opacity:0;fill:#000000;fill-opacity:1;stroke:none"/>
  <path id="rect5886-2" d="M 11.5,107 C 8.453,107 6,109.676 6,113 v 4 c 0,3.324 2.453,6 5.5,6 3.047,0 5.5,-2.676 5.5,-6 v -4 c 0,-3.324 -2.453,-6 -5.5,-6 z m 7.5,0 a 2,2 0 0 0 -2,2 2,2 0 0 0 2,2 2,2 0 0 0 2,-2 2,2 0 0 0 -2,-2 z m -8,2 h 0.5 c 0.20775,0 0.39305,0.13292 0.46875,0.3125 l 2.875,2.84375 0.40625,0.375 -0.4375,0.34375 -2.5625,2.125 2.5625,2.125 0.4375,0.34375 -0.40625,0.375 -2.875,2.84375 c -0.0252,0.0599 -0.0798,0.11106 -0.125,0.15625 C 11.75335,120.93415 11.6385,121 11.5,121 H 11 v -0.5 -4.4375 l -2.15625,1.78125 C 8.75325,117.93425 8.63807,118 8.5,118 H 8 v -0.5 c 0,-0.15322 0.079,-0.28328 0.1875,-0.375 L 10.75,115 8.3125,112.96875 C 8.2658,112.94905 8.2257,112.9072 8.1875,112.875 8.07896,112.7833 8,112.65322 8,112.5 V 112 h 0.5 c 0.12292,0 0.22543,0.0514 0.3125,0.125 0.0107,0.009 0.02135,0.0213 0.03125,0.0312 L 11,113.9375 V 109.5 Z m 1,1.6875 v 3.25 l 1.78125,-1.46875 z m 0,5.375 v 3.25 l 1.78125,-1.78125 z" style="opacity:1;fill:#d3dae3;fill-opacity:1;stroke:none"/>
 </g>
 <g id="preferences-system-bluetooth" transform="translate(10)">
  <rect id="rect4174" width="22" height="22" x="56" y="0" style="opacity:0;fill:#000000;fill-opacity:1;stroke:none"/>
  <path id="path4176" d="M 67.5,3 C 64.453,3 62,5.676 62,9 v 4 c 0,3.324 2.453,6 5.5,6 3.047,0 5.5,-2.676 5.5,-6 V 9 C 73,5.676 70.547,3 67.5,3 Z M 67,5 h 0.5 c 0.20775,0 0.39305,0.13292 0.46875,0.3125 l 2.875,2.84375 L 71.25,8.53125 70.8125,8.875 68.25,11 l 2.5625,2.125 0.4375,0.34375 -0.40625,0.375 -2.875,2.84375 c -0.0252,0.0599 -0.0798,0.11106 -0.125,0.15625 C 67.75335,16.93415 67.6385,17 67.5,17 H 67 v -0.5 -4.4375 l -2.15625,1.78125 C 64.75325,13.93425 64.63807,14 64.5,14 H 64 v -0.5 c 0,-0.15322 0.079,-0.28328 0.1875,-0.375 L 66.75,11 64.3125,8.96875 C 64.2658,8.94905 64.2257,8.90725 64.1875,8.87505 64.07896,8.78335 64,8.65327 64,8.50005 v -0.5 h 0.5 c 0.12292,0 0.22543,0.0514 0.3125,0.125 0.0107,0.009 0.0213,0.0213 0.0312,0.0312 L 66.99995,9.9375 V 5.5 5 Z m 1,1.6875 v 3.25 l 1.78125,-1.46875 z m 0,5.375 v 3.25 l 1.78125,-1.78125 z" style="opacity:1;fill:#d3dae3;fill-opacity:1;stroke:none"/>
 </g>
 <g id="preferences-system-bluetooth-inactive" transform="translate(32)">
  <rect id="rect4180" width="22" height="22" x="56" y="0" style="opacity:0;fill:#000000;fill-opacity:1;stroke:none"/>
  <path id="path4182" d="M 67.5,3 C 64.453,3 62,5.676 62,9 v 4 c 0,3.324 2.453,6 5.5,6 3.047,0 5.5,-2.676 5.5,-6 V 9 C 73,5.676 70.547,3 67.5,3 Z M 67,5 h 0.5 c 0.20775,0 0.39305,0.13292 0.46875,0.3125 l 2.875,2.84375 L 71.25,8.53125 70.8125,8.875 68.25,11 l 2.5625,2.125 0.4375,0.34375 -0.40625,0.375 -2.875,2.84375 c -0.0252,0.0599 -0.0798,0.11106 -0.125,0.15625 C 67.75335,16.93415 67.6385,17 67.5,17 H 67 v -0.5 -4.4375 l -2.15625,1.78125 C 64.75325,13.93425 64.63807,14 64.5,14 H 64 v -0.5 c 0,-0.15322 0.079,-0.28328 0.1875,-0.375 L 66.75,11 64.3125,8.96875 C 64.2658,8.94905 64.2257,8.90725 64.1875,8.87505 64.07896,8.78335 64,8.65327 64,8.50005 v -0.5 h 0.5 c 0.12292,0 0.22543,0.0514 0.3125,0.125 0.0107,0.009 0.0213,0.0213 0.0312,0.0312 L 66.99995,9.9375 V 5.5 5 Z m 1,1.6875 v 3.25 l 1.78125,-1.46875 z m 0,5.375 v 3.25 l 1.78125,-1.78125 z" style="opacity:0.3;fill:#d3dae3;fill-opacity:1;stroke:none"/>
 </g>
 <g id="preferences-desktop-display-randr">
  <rect style="opacity:0.00100002;fill:#000000;fill-opacity:1;stroke:none;stroke-width:2.51063204;stroke-linecap:round;stroke-linejoin:round;stroke-miterlimit:4;stroke-dasharray:none;stroke-opacity:1" id="rect859" width="22" height="22" x="0" y="0"/>
  <path id="path5" d="M 3.125,2.9999998 C 2,2.9999998 2,4.1431759 2,4.1431759 V 15.874512 c 0,1.143176 1.125,1.143176 1.125,1.143176 h 5.0375 c 0,0 -1.2001266,-0.298955 -1.1625,0.843601 V 19 h 8 v -1.138711 c 0,-1.143176 -1.050415,-0.843601 -1.050415,-0.843601 H 18.875 C 20,17.017688 20,15.874512 20,15.874512 V 4.1431759 c 0,0 0,-1.1431761 -1.125,-1.1431761 z M 4,5 h 14 v 9.98549 L 4,15.01451 Z" style="fill:#d3dae3;fill-opacity:1;stroke-width:1.13405168"/>
 </g>
</svg>
