<svg xmlns="http://www.w3.org/2000/svg" id="svg3869" width="22" height="22" version="1.1" viewBox="0 0 22 22">
 <g id="quota">
  <rect id="rect4156" width="22" height="22" x="0" y="0" style="opacity:0.001;fill:#000000;fill-opacity:1;stroke:none;stroke-width:1;stroke-linecap:butt;stroke-linejoin:miter;stroke-miterlimit:4;stroke-dasharray:2, 1;stroke-dashoffset:0;stroke-opacity:1"/>
  <path id="path849" d="M 4.1425781,2.9999997 C 4.1425781,2.9999997 3,3.0426897 3,4.1855465 V 16.857422 C 3,16.857422 2.9997211,18 4.1425781,18 H 13 v -5 c 0,-0.543401 0.326275,-0.944564 0.617188,-1.173828 C 13.908099,11.596908 14.218671,11.45836 14.5625,11.34375 15.250157,11.114531 16.0815,11 17,11 c 0.732868,0 1.406822,0.07675 2,0.222656 V 6.1718746 C 19,5.0290173 17.857422,4.9999996 17.857422,4.9999996 H 12.142578 L 9.8574219,2.9999997 Z" style="color:#5c616c;fill:#d3dae3;fill-opacity:1;stroke-width:1.14285719"/>
  <path style="opacity:1;fill:#d3dae3;fill-opacity:1;stroke:none;stroke-opacity:1" id="path4203" d="m 17,12 a 3,1 0 0 0 -3,1 v 5 a 3,1 0 0 0 3,1 3,1 0 0 0 3,-1 v -5 a 3,1 0 0 0 -3,-1 z m 0,1 a 3,1 0 0 1 2,0.257812 v 0.486329 A 3,1 0 0 1 17,14 3,1 0 0 1 15,13.742188 V 13.255859 A 3,1 0 0 1 17,13 Z m -2,1.744141 A 3,1 0 0 0 17,15 3,1 0 0 0 19,14.744141 v 1 A 3,1 0 0 1 17,16 3,1 0 0 1 15,15.742188 Z m 0,2 A 3,1 0 0 0 17,17 3,1 0 0 0 19,16.744141 v 1 A 3,1 0 0 1 17,18 3,1 0 0 1 15,17.742188 Z"/>
 </g>
 <g id="quota-missing" transform="translate(22)">
  <rect style="opacity:0.001;fill:#000000;fill-opacity:1;stroke:none;stroke-width:1;stroke-linecap:butt;stroke-linejoin:miter;stroke-miterlimit:4;stroke-dasharray:2, 1;stroke-dashoffset:0;stroke-opacity:1" id="rect902" width="22" height="22" x="0" y="0"/>
  <path style="color:#5c616c;fill:#d3dae3;fill-opacity:1;stroke-width:1.14285719;opacity:0.3" id="path904" d="M 4.1425781,2.9999997 C 4.1425781,2.9999997 3,3.0426897 3,4.1855465 V 16.857422 C 3,16.857422 2.9997211,18 4.1425781,18 H 13 v -5 c 0,-0.543401 0.326275,-0.944564 0.617188,-1.173828 C 13.908099,11.596908 14.218671,11.45836 14.5625,11.34375 15.250157,11.114531 16.0815,11 17,11 c 0.732868,0 1.406822,0.07675 2,0.222656 V 6.1718746 C 19,5.0290173 17.857422,4.9999996 17.857422,4.9999996 H 12.142578 L 9.8574219,2.9999997 Z"/>
  <path id="path906" d="m 17,12 a 3,1 0 0 0 -3,1 v 5 a 3,1 0 0 0 3,1 3,1 0 0 0 3,-1 v -5 a 3,1 0 0 0 -3,-1 z m 0,1 a 3,1 0 0 1 2,0.257812 v 0.486329 A 3,1 0 0 1 17,14 3,1 0 0 1 15,13.742188 V 13.255859 A 3,1 0 0 1 17,13 Z m -2,1.744141 A 3,1 0 0 0 17,15 3,1 0 0 0 19,14.744141 v 1 A 3,1 0 0 1 17,16 3,1 0 0 1 15,15.742188 Z m 0,2 A 3,1 0 0 0 17,17 3,1 0 0 0 19,16.744141 v 1 A 3,1 0 0 1 17,18 3,1 0 0 1 15,17.742188 Z" style="opacity:0.3;fill:#d3dae3;fill-opacity:1;stroke:none;stroke-opacity:1"/>
 </g>
 <g id="quota-low" transform="translate(44)">
  <rect style="opacity:0.001;fill:#000000;fill-opacity:1;stroke:none;stroke-width:1;stroke-linecap:butt;stroke-linejoin:miter;stroke-miterlimit:4;stroke-dasharray:2, 1;stroke-dashoffset:0;stroke-opacity:1" id="rect910" width="22" height="22" x="0" y="0"/>
  <path style="color:#5c616c;fill:#d3dae3;fill-opacity:1;stroke-width:1.14285719" id="path912" d="M 4.1425781,2.9999997 C 4.1425781,2.9999997 3,3.0426897 3,4.1855465 V 16.857422 C 3,16.857422 2.9997211,18 4.1425781,18 H 13 v -5 c 0,-0.543401 0.326275,-0.944564 0.617188,-1.173828 C 13.908099,11.596908 14.218671,11.45836 14.5625,11.34375 15.250157,11.114531 16.0815,11 17,11 c 0.732868,0 1.406822,0.07675 2,0.222656 V 6.1718746 C 19,5.0290173 17.857422,4.9999996 17.857422,4.9999996 H 12.142578 L 9.8574219,2.9999997 Z"/>
  <path id="path914" d="m 17,12 c -1.656854,0 -3,0.447715 -3,1 v 5 c 0,0.552285 1.343146,1 3,1 1.656854,0 3,-0.447715 3,-1 v -5 c 0,-0.552285 -1.343146,-1 -3,-1 z m 0,1 c 0.739186,8.7e-4 1.451386,0.09268 2,0.257812 v 0.486329 C 18.450517,13.908567 17.738413,13.999666 17,14 16.260814,13.99913 15.548614,13.907323 15,13.742188 V 13.255859 C 15.549483,13.091433 16.261587,13.000334 17,13 Z m -2,1.744141 c 0.549483,0.164426 1.261587,0.255525 2,0.255859 0.738413,-3.34e-4 1.450517,-0.09143 2,-0.255859 v 1 C 18.450517,15.908567 17.738413,15.999666 17,16 c -0.739186,-8.7e-4 -1.451386,-0.09268 -2,-0.257812 z" style="opacity:1;fill:#d3dae3;fill-opacity:1;stroke:none;stroke-opacity:1"/>
 </g>
 <g id="quota-high" transform="translate(66)">
  <rect id="rect918" width="22" height="22" x="0" y="0" style="opacity:0.001;fill:#000000;fill-opacity:1;stroke:none;stroke-width:1;stroke-linecap:butt;stroke-linejoin:miter;stroke-miterlimit:4;stroke-dasharray:2, 1;stroke-dashoffset:0;stroke-opacity:1"/>
  <path id="path920" d="M 4.1425781,2.9999997 C 4.1425781,2.9999997 3,3.0426897 3,4.1855465 V 16.857422 C 3,16.857422 2.9997211,18 4.1425781,18 H 13 v -5 c 0,-0.543401 0.326275,-0.944564 0.617188,-1.173828 C 13.908099,11.596908 14.218671,11.45836 14.5625,11.34375 15.250157,11.114531 16.0815,11 17,11 c 0.732868,0 1.406822,0.07675 2,0.222656 V 6.1718746 C 19,5.0290173 17.857422,4.9999996 17.857422,4.9999996 H 12.142578 L 9.8574219,2.9999997 Z" style="color:#5c616c;fill:#d3dae3;fill-opacity:1;stroke-width:1.14285719"/>
  <path style="opacity:1;fill:#338dd6;fill-opacity:1;stroke:none;stroke-opacity:1" id="path922" d="m 17,12 c -1.656854,0 -3,0.447715 -3,1 v 5 c 0,0.552285 1.343146,1 3,1 1.656854,0 3,-0.447715 3,-1 v -5 c 0,-0.552285 -1.343146,-1 -3,-1 z m 0,1 c 0.739186,8.7e-4 1.451386,0.09268 2,0.257812 v 0.486329 C 18.450517,13.908567 17.738413,13.999666 17,14 16.260814,13.99913 15.548614,13.907323 15,13.742188 V 13.255859 C 15.549483,13.091433 16.261587,13.000334 17,13 Z"/>
 </g>
 <g id="quota-critical" transform="translate(88)">
  <rect style="opacity:0.001;fill:#000000;fill-opacity:1;stroke:none;stroke-width:1;stroke-linecap:butt;stroke-linejoin:miter;stroke-miterlimit:4;stroke-dasharray:2, 1;stroke-dashoffset:0;stroke-opacity:1" id="rect926" width="22" height="22" x="0" y="0"/>
  <path style="color:#5c616c;fill:#338dd6;fill-opacity:1;stroke-width:1.14285719" id="path928" d="M 92.142578 3 C 92.142578 3 91 3.0426901 91 4.1855469 L 91 16.857422 C 91 16.857422 90.999721 18 92.142578 18 L 101 18 L 101 13 C 101 12.456599 101.32627 12.055436 101.61719 11.826172 C 101.9081 11.596908 102.21867 11.45836 102.5625 11.34375 C 103.25016 11.114531 104.0815 11 105 11 C 105.73287 11 106.40682 11.07675 107 11.222656 L 107 6.171875 C 107 5.0290177 105.85742 5 105.85742 5 L 100.14258 5 L 97.857422 3 L 92.142578 3 z M 98 6 L 100 6 L 100 13 L 98 13 L 98 6 z M 99 14 A 1 1 0 0 1 100 15 A 1 1 0 0 1 99 16 A 1 1 0 0 1 98 15 A 1 1 0 0 1 99 14 z" transform="translate(-88)"/>
  <path id="path930" d="m 17,12 c -1.656854,0 -3,0.447715 -3,1 v 5 c 0,0.552285 1.343146,1 3,1 1.656854,0 3,-0.447715 3,-1 v -5 c 0,-0.552285 -1.343146,-1 -3,-1 z m 0,1 c 0.739186,8.7e-4 1.451386,0.09268 2,0.257812 v 0.486329 C 18.450517,13.908567 17.738413,13.999666 17,14 16.260814,13.99913 15.548614,13.907323 15,13.742188 V 13.255859 C 15.549483,13.091433 16.261587,13.000334 17,13 Z" style="opacity:1;fill:#338dd6;fill-opacity:1;stroke:none;stroke-opacity:1"/>
 </g>
</svg>
