<svg xmlns="http://www.w3.org/2000/svg" width="32" height="32" version="1.1">
 <g id="quota">
  <rect style="opacity:0.001" width="32" height="32" x="0" y="0"/>
  <rect style="fill:#8e8e8e" width="28" height="22" x="-29" y="-26" rx="2" ry="2" transform="matrix(0,-1,-1,0,0,0)"/>
  <path style="opacity:0.5" d="M 15,5 C 11.134,5 8,8.134 8,12 v 7 h 7 c 3.866,0 7,-3.134 7,-7 0,-3.866 -3.134,-7 -7,-7 z m 0,3 a 4,4 0 0 1 4,4 4,4 0 0 1 -4,4 4,4 0 0 1 -4,-4 4,4 0 0 1 4,-4 z"/>
  <path style="opacity:0.2;fill:#ffffff" d="M 6,1 C 4.892,1 4,1.892 4,3 V 4 C 4,2.892 4.892,2 6,2 h 18 c 1.108,0 2,0.892 2,2 V 3 C 26,1.892 25.108,1 24,1 Z"/>
  <path style="opacity:0.2" d="m 4,27 v 1 c 0,1.108 0.892,2 2,2 h 18 c 1.108,0 2,-0.892 2,-2 v -1 c 0,1.108 -0.892,2 -2,2 H 6 C 4.892,29 4,28.108 4,27 Z"/>
  <circle style="fill:#47cd3b" cx="23" cy="22" r="8"/>
  <path style="opacity:0.2" d="M 30.979,22.424 A 8,8 0 0 1 23,30 8,8 0 0 1 15.021,22.576 8,8 0 0 0 15,23 a 8,8 0 0 0 8,8 8,8 0 0 0 8,-8 8,8 0 0 0 -0.02148,-0.57617 z"/>
  <path style="fill:#ffffff" d="m 23,19 a 3,1 0 0 0 -3,1 v 5 a 3,1 0 0 0 3,1 3,1 0 0 0 3,-1 v -5 a 3,1 0 0 0 -3,-1 z m 0,1 a 3,1 0 0 1 2,0.257812 v 0.486329 A 3,1 0 0 1 23,21 3,1 0 0 1 21,20.742188 V 20.255859 A 3,1 0 0 1 23,20 Z m -2,1.744141 A 3,1 0 0 0 23,22 3,1 0 0 0 25,21.744141 v 1 A 3,1 0 0 1 23,23 3,1 0 0 1 21,22.742188 Z m 0,2 A 3,1 0 0 0 23,24 3,1 0 0 0 25,23.744141 v 1 A 3,1 0 0 1 23,25 3,1 0 0 1 21,24.742188 Z"/>
 </g>
 <g id="quota-low" transform="translate(32)">
  <rect style="opacity:0.001" width="32" height="32" x="0" y="0"/>
  <rect style="fill:#8e8e8e" width="28" height="22" x="-29" y="-26" rx="2" ry="2" transform="matrix(0,-1,-1,0,0,0)"/>
  <path style="opacity:0.5" d="M 15,5 C 11.134,5 8,8.134 8,12 v 7 h 7 c 3.866,0 7,-3.134 7,-7 0,-3.866 -3.134,-7 -7,-7 z m 0,3 a 4,4 0 0 1 4,4 4,4 0 0 1 -4,4 4,4 0 0 1 -4,-4 4,4 0 0 1 4,-4 z"/>
  <path style="opacity:0.2;fill:#ffffff" d="M 6,1 C 4.892,1 4,1.892 4,3 V 4 C 4,2.892 4.892,2 6,2 h 18 c 1.108,0 2,0.892 2,2 V 3 C 26,1.892 25.108,1 24,1 Z"/>
  <path style="opacity:0.2" d="m 4,27 v 1 c 0,1.108 0.892,2 2,2 h 18 c 1.108,0 2,-0.892 2,-2 v -1 c 0,1.108 -0.892,2 -2,2 H 6 C 4.892,29 4,28.108 4,27 Z"/>
  <circle style="fill:#b658e3" cx="23" cy="22" r="8"/>
  <path style="opacity:0.2" d="M 30.979,22.424 A 8,8 0 0 1 23,30 8,8 0 0 1 15.021,22.576 8,8 0 0 0 15,23 a 8,8 0 0 0 8,8 8,8 0 0 0 8,-8 8,8 0 0 0 -0.02148,-0.57617 z"/>
  <path style="fill:#ffffff" d="m 23,19 c -1.656854,0 -3,0.447715 -3,1 v 5 c 0,0.552285 1.343146,1 3,1 1.656854,0 3,-0.447715 3,-1 v -5 c 0,-0.552285 -1.343146,-1 -3,-1 z m 0,1 c 0.739186,8.7e-4 1.451386,0.09268 2,0.257812 v 0.486329 C 24.450517,20.908567 23.738413,20.999666 23,21 22.260814,20.99913 21.548614,20.907323 21,20.742188 V 20.255859 C 21.549483,20.091433 22.261587,20.000334 23,20 Z m -2,1.744141 c 0.549483,0.164426 1.261587,0.255525 2,0.255859 0.738413,-3.34e-4 1.450517,-0.09143 2,-0.255859 v 1 C 24.450517,22.908567 23.738413,22.999666 23,23 22.260814,22.99913 21.548614,22.90732 21,22.742188 Z"/>
 </g>
 <g id="quota-high" transform="translate(64)">
  <rect style="opacity:0.001" width="32" height="32" x="0" y="0"/>
  <rect style="fill:#8e8e8e" width="28" height="22" x="-29" y="-26" rx="2" ry="2" transform="matrix(0,-1,-1,0,0,0)"/>
  <path style="opacity:0.5" d="M 15,5 C 11.134,5 8,8.134 8,12 v 7 h 7 c 3.866,0 7,-3.134 7,-7 0,-3.866 -3.134,-7 -7,-7 z m 0,3 a 4,4 0 0 1 4,4 4,4 0 0 1 -4,4 4,4 0 0 1 -4,-4 4,4 0 0 1 4,-4 z"/>
  <path style="opacity:0.2;fill:#ffffff" d="M 6,1 C 4.892,1 4,1.892 4,3 V 4 C 4,2.892 4.892,2 6,2 h 18 c 1.108,0 2,0.892 2,2 V 3 C 26,1.892 25.108,1 24,1 Z"/>
  <path style="opacity:0.2" d="m 4,27 v 1 c 0,1.108 0.892,2 2,2 h 18 c 1.108,0 2,-0.892 2,-2 v -1 c 0,1.108 -0.892,2 -2,2 H 6 C 4.892,29 4,28.108 4,27 Z"/>
  <circle style="fill:#ff711b" cx="23" cy="22" r="8"/>
  <path style="opacity:0.2" d="M 30.979,22.424 A 8,8 0 0 1 23,30 8,8 0 0 1 15.021,22.576 8,8 0 0 0 15,23 a 8,8 0 0 0 8,8 8,8 0 0 0 8,-8 8,8 0 0 0 -0.02148,-0.57617 z"/>
  <path style="fill:#ffffff" d="m 23,19 c -1.656854,0 -3,0.447715 -3,1 v 5 c 0,0.552285 1.343146,1 3,1 1.656854,0 3,-0.447715 3,-1 v -5 c 0,-0.552285 -1.343146,-1 -3,-1 z m 0,1 c 0.739186,8.7e-4 1.451386,0.09268 2,0.257812 v 0.486329 C 24.450517,20.908567 23.738413,20.999666 23,21 22.260814,20.99913 21.548614,20.907323 21,20.742188 V 20.255859 C 21.549483,20.091433 22.261587,20.000334 23,20 Z"/>
 </g>
 <g id="quota-critical">
  <rect style="opacity:0.001" width="32" height="32" x="96" y="0"/>
  <rect style="fill:#8e8e8e" width="28" height="22" x="-29" y="-122" rx="2" ry="2" transform="matrix(0,-1,-1,0,0,0)"/>
  <path style="opacity:0.5" d="m 111,5 c -3.866,0 -7,3.134 -7,7 v 7 h 7 c 3.866,0 7,-3.134 7,-7 0,-3.866 -3.134,-7 -7,-7 z m 0,3 a 4,4 0 0 1 4,4 4,4 0 0 1 -4,4 4,4 0 0 1 -4,-4 4,4 0 0 1 4,-4 z"/>
  <path style="opacity:0.2;fill:#ffffff" d="m 102,1 c -1.108,0 -2,0.892 -2,2 v 1 c 0,-1.108 0.892,-2 2,-2 h 18 c 1.108,0 2,0.892 2,2 V 3 c 0,-1.108 -0.892,-2 -2,-2 z"/>
  <path style="opacity:0.2" d="m 100,27 v 1 c 0,1.108 0.892,2 2,2 h 18 c 1.108,0 2,-0.892 2,-2 v -1 c 0,1.108 -0.892,2 -2,2 h -18 c -1.108,0 -2,-0.892 -2,-2 z"/>
  <circle style="fill:#f14f4f" cx="119" cy="22" r="8"/>
  <path style="opacity:0.2" d="M 126.979,22.424 A 8,8 0 0 1 119,30 8,8 0 0 1 111.021,22.576 8,8 0 0 0 111,23 a 8,8 0 0 0 8,8 8,8 0 0 0 8,-8 8,8 0 0 0 -0.0215,-0.57617 z"/>
  <path style="fill:#ffffff" d="m 118,17 v 7 h 2 v -7 z m 1,8 a 1,1 0 0 0 -1,1 1,1 0 0 0 1,1 1,1 0 0 0 1,-1 1,1 0 0 0 -1,-1 z"/>
 </g>
 <g id="quota-missing">
  <rect style="opacity:0.001" width="32" height="32" x="128" y="0"/>
  <rect style="fill:#8e8e8e" width="28" height="22" x="-29" y="-154" rx="2" ry="2" transform="matrix(0,-1,-1,0,0,0)"/>
  <path style="opacity:0.5" d="m 143,5 c -3.866,0 -7,3.134 -7,7 v 7 h 7 c 3.866,0 7,-3.134 7,-7 0,-3.866 -3.134,-7 -7,-7 z m 0,3 a 4,4 0 0 1 4,4 4,4 0 0 1 -4,4 4,4 0 0 1 -4,-4 4,4 0 0 1 4,-4 z"/>
  <path style="opacity:0.2;fill:#ffffff" d="m 134,1 c -1.108,0 -2,0.892 -2,2 v 1 c 0,-1.108 0.892,-2 2,-2 h 18 c 1.108,0 2,0.892 2,2 V 3 c 0,-1.108 -0.892,-2 -2,-2 z"/>
  <path style="opacity:0.2" d="m 132,27 v 1 c 0,1.108 0.892,2 2,2 h 18 c 1.108,0 2,-0.892 2,-2 v -1 c 0,1.108 -0.892,2 -2,2 h -18 c -1.108,0 -2,-0.892 -2,-2 z"/>
  <circle style="fill:#e4e4e4" cx="151" cy="22" r="8"/>
  <path style="opacity:0.2" d="M 158.979,22.424 A 8,8 0 0 1 151,30 8,8 0 0 1 143.021,22.576 8,8 0 0 0 143,23 a 8,8 0 0 0 8,8 8,8 0 0 0 8,-8 8,8 0 0 0 -0.0215,-0.57617 z"/>
  <path style="fill:#3f3f3f" d="m 151,16 c -2.21,0 -4,1.79 -4,4 h 2 c 0,-1.1 0.9,-2 2,-2 1.1,0 2,0.9 2,2 0,0.55 -0.21984,1.050156 -0.58984,1.410156 l -1.24024,1.259766 C 150.44992,23.399922 150,23.4 150,24.5 V 25 h 2 c 0,-1 0.44982,-1.100078 1.16992,-1.830078 L 154.07031,22.25 C 154.64031,21.68 155,20.88 155,20 c 0,-2.21 -1.79,-4 -4,-4 z m 0,10 a 1,1 0 0 0 -1,1 1,1 0 0 0 1,1 1,1 0 0 0 1,-1 1,1 0 0 0 -1,-1 z"/>
 </g>
 <g id="22-22-quota" transform="translate(-5,-27)">
  <rect style="opacity:0.001" width="22" height="22" x="5" y="5"/>
  <g transform="translate(8,8.0002)">
   <path style="fill:#dfdfdf" transform="translate(-8,-8.0002)" d="M 11,8 C 10,8 10,9.1425781 10,9.1425781 V 22.857422 C 10,22.857422 10,24 11,24 h 7 v -5 c 0,-0.248628 0.07186,-0.464157 0.173828,-0.650391 C 17.547198,18.757079 16.80311,19 16,19 h -4 v -4 c 0,-2.2091 1.7909,-4 4,-4 2.209,0 4,1.7909 4,4 0,0.974222 -0.362523,1.855007 -0.941406,2.548828 0.160758,-0.08044 0.327471,-0.146266 0.503906,-0.205078 C 20.250157,17.114531 21.0815,17 22,17 V 9.1425781 C 22,9.1424781 22,8 21,8 Z m 5,5 c -1.1046,0 -2,0.8954 -2,2 0,1.1046 0.8954,2 2,2 1.1046,0 2,-0.8954 2,-2 0,-1.1046 -0.8954,-2 -2,-2 z"/>
  </g>
  <path style="fill:#dfdfdf" d="m 22,18 a 3,1 0 0 0 -3,1 v 5 a 3,1 0 0 0 3,1 3,1 0 0 0 3,-1 v -5 a 3,1 0 0 0 -3,-1 z m 0,1 a 3,1 0 0 1 2,0.257812 v 0.486329 A 3,1 0 0 1 22,20 3,1 0 0 1 20,19.742188 V 19.255859 A 3,1 0 0 1 22,19 Z m -2,1.744141 A 3,1 0 0 0 22,21 3,1 0 0 0 24,20.744141 v 1 A 3,1 0 0 1 22,22 3,1 0 0 1 20,21.742188 Z m 0,2 A 3,1 0 0 0 22,23 3,1 0 0 0 24,22.744141 v 1 A 3,1 0 0 1 22,24 3,1 0 0 1 20,23.742188 Z"/>
 </g>
 <g id="22-22-quota-low" transform="translate(27,-27)">
  <rect style="opacity:0.001" width="22" height="22" x="5" y="5"/>
  <g transform="translate(8,8.0002)">
   <path style="fill:#dfdfdf" transform="translate(-8,-8.0002)" d="M 11,8 C 10,8 10,9.1425781 10,9.1425781 V 22.857422 C 10,22.857422 10,24 11,24 h 7 v -5 c 0,-0.248628 0.07186,-0.464157 0.173828,-0.650391 C 17.547198,18.757079 16.80311,19 16,19 h -4 v -4 c 0,-2.2091 1.7909,-4 4,-4 2.209,0 4,1.7909 4,4 0,0.974222 -0.362523,1.855007 -0.941406,2.548828 0.160758,-0.08044 0.327471,-0.146266 0.503906,-0.205078 C 20.250157,17.114531 21.0815,17 22,17 V 9.1425781 C 22,9.1424781 22,8 21,8 Z m 5,5 c -1.1046,0 -2,0.8954 -2,2 0,1.1046 0.8954,2 2,2 1.1046,0 2,-0.8954 2,-2 0,-1.1046 -0.8954,-2 -2,-2 z"/>
  </g>
  <path style="fill:#dfdfdf" d="m 22,18 c -1.656854,0 -3,0.447715 -3,1 v 5 c 0,0.552285 1.343146,1 3,1 1.656854,0 3,-0.447715 3,-1 v -5 c 0,-0.552285 -1.343146,-1 -3,-1 z m 0,1 c 0.739186,8.7e-4 1.451386,0.09268 2,0.257812 v 0.486329 C 23.450517,19.908567 22.738413,19.999666 22,20 21.260814,19.99913 20.548614,19.907323 20,19.742188 V 19.255859 C 20.549483,19.091433 21.261587,19.000334 22,19 Z m -2,1.744141 c 0.549483,0.164426 1.261587,0.255525 2,0.255859 0.738413,-3.34e-4 1.450517,-0.09143 2,-0.255859 v 1 C 23.450517,21.908567 22.738413,21.999666 22,22 21.260814,21.99913 20.548614,21.90732 20,21.742188 Z"/>
 </g>
 <g id="22-22-quota-high" transform="translate(59,-27)">
  <rect style="opacity:0.001" width="22" height="22" x="5" y="5"/>
  <g transform="translate(8,8.0002)">
   <path style="fill:#dfdfdf" transform="translate(-8,-8.0002)" d="M 11,8 C 10,8 10,9.1425781 10,9.1425781 V 22.857422 C 10,22.857422 10,24 11,24 h 7 v -5 c 0,-0.248628 0.07186,-0.464157 0.173828,-0.650391 C 17.547198,18.757079 16.80311,19 16,19 h -4 v -4 c 0,-2.2091 1.7909,-4 4,-4 2.209,0 4,1.7909 4,4 0,0.974222 -0.362523,1.855007 -0.941406,2.548828 0.160758,-0.08044 0.327471,-0.146266 0.503906,-0.205078 C 20.250157,17.114531 21.0815,17 22,17 V 9.1425781 C 22,9.1424781 22,8 21,8 Z m 5,5 c -1.1046,0 -2,0.8954 -2,2 0,1.1046 0.8954,2 2,2 1.1046,0 2,-0.8954 2,-2 0,-1.1046 -0.8954,-2 -2,-2 z"/>
  </g>
  <path style="fill:#ff9800" d="m 22,18 c -1.656854,0 -3,0.447715 -3,1 v 5 c 0,0.552285 1.343146,1 3,1 1.656854,0 3,-0.447715 3,-1 v -5 c 0,-0.552285 -1.343146,-1 -3,-1 z m 0,1 c 0.739186,8.7e-4 1.451386,0.09268 2,0.257812 v 0.486329 C 23.450517,19.908567 22.738413,19.999666 22,20 21.260814,19.99913 20.548614,19.907323 20,19.742188 V 19.255859 C 20.549483,19.091433 21.261587,19.000334 22,19 Z"/>
 </g>
 <g id="22-22-quota-critical" transform="translate(91,-27)">
  <rect style="opacity:0.001" width="22" height="22" x="5" y="5"/>
  <g transform="translate(8,8.0002)">
   <path style="fill:#f44336" transform="translate(-8,-8.0002)" d="M 11,8 C 10,8 10,9.1425781 10,9.1425781 V 22.857422 C 10,22.857422 10,24 11,24 h 7 v -5 c 0,-0.248628 0.07186,-0.464157 0.173828,-0.650391 C 17.547198,18.757079 16.80311,19 16,19 h -4 v -4 c 0,-2.2091 1.7909,-4 4,-4 2.209,0 4,1.7909 4,4 0,0.974222 -0.362523,1.855007 -0.941406,2.548828 0.160758,-0.08044 0.327471,-0.146266 0.503906,-0.205078 C 20.250157,17.114531 21.0815,17 22,17 V 9.1425781 C 22,9.1424781 22,8 21,8 Z m 5,5 c -1.1046,0 -2,0.8954 -2,2 0,1.1046 0.8954,2 2,2 1.1046,0 2,-0.8954 2,-2 0,-1.1046 -0.8954,-2 -2,-2 z"/>
  </g>
  <path style="fill:#f44336" d="m 22,18 c -1.656854,0 -3,0.447715 -3,1 v 5 c 0,0.552285 1.343146,1 3,1 1.656854,0 3,-0.447715 3,-1 v -5 c 0,-0.552285 -1.343146,-1 -3,-1 z m 0,1 c 0.739186,8.7e-4 1.451386,0.09268 2,0.257812 v 0.486329 C 23.450517,19.908567 22.738413,19.999666 22,20 21.260814,19.99913 20.548614,19.907323 20,19.742188 V 19.255859 C 20.549483,19.091433 21.261587,19.000334 22,19 Z"/>
 </g>
 <g id="22-22-quota-missing" transform="translate(123,-27)">
  <rect style="opacity:0.001" width="22" height="22" x="5" y="5"/>
  <g transform="translate(8,8.0002)">
   <path style="opacity:0.35;fill:#dfdfdf" transform="translate(-8,-8.0002)" d="M 11,8 C 10,8 10,9.1425781 10,9.1425781 V 22.857422 C 10,22.857422 10,24 11,24 h 7 v -5 c 0,-0.248628 0.07186,-0.464157 0.173828,-0.650391 C 17.547198,18.757079 16.80311,19 16,19 h -4 v -4 c 0,-2.2091 1.7909,-4 4,-4 2.209,0 4,1.7909 4,4 0,0.974222 -0.362523,1.855007 -0.941406,2.548828 0.160758,-0.08044 0.327471,-0.146266 0.503906,-0.205078 C 20.250157,17.114531 21.0815,17 22,17 V 9.1425781 C 22,9.1424781 22,8 21,8 Z m 5,5 c -1.1046,0 -2,0.8954 -2,2 0,1.1046 0.8954,2 2,2 1.1046,0 2,-0.8954 2,-2 0,-1.1046 -0.8954,-2 -2,-2 z"/>
  </g>
  <path style="opacity:0.35;fill:#dfdfdf" d="m 22,18 a 3,1 0 0 0 -3,1 v 5 a 3,1 0 0 0 3,1 3,1 0 0 0 3,-1 v -5 a 3,1 0 0 0 -3,-1 z m 0,1 a 3,1 0 0 1 2,0.257812 v 0.486329 A 3,1 0 0 1 22,20 3,1 0 0 1 20,19.742188 V 19.255859 A 3,1 0 0 1 22,19 Z m -2,1.744141 A 3,1 0 0 0 22,21 3,1 0 0 0 24,20.744141 v 1 A 3,1 0 0 1 22,22 3,1 0 0 1 20,21.742188 Z m 0,2 A 3,1 0 0 0 22,23 3,1 0 0 0 24,22.744141 v 1 A 3,1 0 0 1 22,24 3,1 0 0 1 20,23.742188 Z"/>
 </g>
</svg>
