<svg xmlns="http://www.w3.org/2000/svg" width="32" height="32" version="1.1">
 <g id="22-22-start-here-kde" transform="translate(27,4.999994)">
  <rect style="opacity:0.001" width="22" height="22" x="5" y="5"/>
  <path style="fill:#dfdfdf" d="m 17.007931,8.000006 -3.01305,0.5245581 V 18.894826 l 2.997438,-0.386106 -0.01562,-4.674223 3.536041,5.173431 3.473594,-0.499208 -3.996585,-5.354784 4.010245,-4.4928697 -3.516526,-0.6474102 -3.506769,4.4928699 z m -6.336382,2.648141 c -0.02894,0.0024 -0.05625,0.01509 -0.07806,0.03705 l -1.0342725,1.045216 c -0.044912,0.04523 -0.052405,0.115739 -0.017565,0.169653 l 1.2489325,1.91688 c -0.235608,0.417818 -0.41363,0.875932 -0.528845,1.355271 L 8.1053789,15.700675 C 8.0455199,15.715355 8,15.769425 8,15.831327 v 0.680561 0.680561 c 0,0.0619 0.045521,0.115975 0.1053789,0.130651 l 2.1563601,0.528459 c 0.115215,0.47934 0.293237,0.937455 0.528845,1.355272 l -1.2489325,1.91688 c -0.03484,0.05391 -0.027347,0.124425 0.017565,0.169652 l 1.0342725,1.045217 c 0.0436,0.04393 0.111261,0.04755 0.163922,0.01559 l 1.957312,-1.199264 c 0.384,0.223545 0.984668,0.403397 1.422612,0.522608 l 0.458593,2.213284 C 14.608668,23.954698 14.659458,24 14.722773,24 h 0.770825 0.770825 c 0.06333,0 0.114105,-0.0453 0.126846,-0.109202 l 0.458592,-2.213284 c 0.437944,-0.119211 1.038614,-0.299063 1.422612,-0.522608 l 1.957311,1.199268 c 0.05266,0.03195 0.120319,0.02834 0.163923,-0.0156 l 1.034272,-1.045217 c 0.04491,-0.04523 0.05241,-0.115738 0.01757,-0.169652 l -1.040126,-1.597076 -0.128797,0.0195 -0.729844,-1.068616 c -0.745428,1.561485 -2.321859,2.556557 -4.053177,2.55844 -2.483159,0 -4.496158,-2.011527 -4.496158,-4.492871 0.0014,-1.705422 0.969019,-3.263001 2.497864,-4.020965 v -0.980866 c -0.284995,0.09495 -0.565029,0.202121 -0.780583,0.327606 l -1.957312,-1.199269 c -0.02633,-0.01598 -0.05692,-0.02385 -0.08587,-0.02145 z"/>
 </g>
 <g id="start-here-kde">
  <rect style="opacity:0.001" width="32" height="32" x="0" y="0"/>
  <circle style="opacity:0.2" cx="16" cy="17" r="14"/>
  <circle style="fill:#fafafa" cx="16" cy="16" r="14"/>
  <path style="fill:#4285f4" d="M 8,10 V 21 H 24 Z"/>
  <path style="fill:#7baaf7" d="M 24,10 V 21 H 8 Z"/>
  <path style="opacity:0.2;fill:#ffffff" d="M 16,2 A 14,14 0 0 0 2,16 14,14 0 0 0 2.0214844,16.585938 14,14 0 0 1 16,3 14,14 0 0 1 29.978516,16.414062 14,14 0 0 0 30,16 14,14 0 0 0 16,2 Z"/>
 </g>
</svg>
