<svg xmlns="http://www.w3.org/2000/svg" id="svg2" width="22" height="22" version="1.1">
 <g id="start-here-kde">
  <rect id="rect4161" width="22" height="22" x="0" y="0" style="opacity:0.00100002;fill:#000000;fill-opacity:1;stroke:none;stroke-width:4;stroke-linecap:round;stroke-linejoin:miter;stroke-miterlimit:4;stroke-dasharray:none;stroke-dashoffset:0;stroke-opacity:1"/>
  <path id="rect824" d="m 17.5625,2.9726562 c -0.402579,-0.00878 -0.791788,0.1446473 -1.080078,0.4257813 L 11,8.4589844 5.5175781,3.3984375 C 5.2237036,3.1188471 4.8291332,2.9701786 4.4238281,2.9863281 3.8847222,3.0087892 3.3992099,3.3190398 3.1523438,3.7988281 3.1045976,3.8794336 3.0725261,3.9653175 3.0488281,4.0585938 2.9878846,4.263017 3,4.6894531 3,4.6894531 V 18 c 0,0.554 0.446,1 1,1 h 1 c 0.554,0 1,-0.446 1,-1 V 7.9257812 l 3.9824219,3.6757808 c 0.5746661,0.530515 1.4604901,0.530515 2.0351561,0 L 16,7.9257812 V 18 c 0,0.554 0.446,1 1,1 h 1 c 0.554,0 1,-0.446 1,-1 V 4.7578125 c 0,0 0.02842,-0.5659487 -0.07422,-0.8300781 -0.0045,-0.011251 -0.0088,-0.022161 -0.01367,-0.033203 C 18.683823,3.3476359 18.15497,2.9863932 17.5625,2.9726562 Z" style="opacity:1;fill:#d3dae3;fill-opacity:1;stroke:none;stroke-width:14;stroke-linecap:round;stroke-linejoin:round;stroke-miterlimit:4;stroke-dasharray:none;stroke-opacity:1"/>
 </g>
</svg>
