<svg xmlns="http://www.w3.org/2000/svg" width="32" height="32" version="1.1">
 <g id="22-22-start-here-kde" transform="translate(32,10)">
  <rect style="opacity:0.00100002" width="22" height="22" x="0" y="0"/>
  <path style="fill:#d3dae3" d="m 17.5625,2.9726562 c -0.402579,-0.00878 -0.791788,0.1446473 -1.080078,0.4257813 L 11,8.4589844 5.5175781,3.3984375 C 5.2237036,3.1188471 4.8291332,2.9701786 4.4238281,2.9863281 3.8847222,3.0087892 3.3992099,3.3190398 3.1523438,3.7988281 3.1045976,3.8794336 3.0725261,3.9653175 3.0488281,4.0585938 2.9878846,4.263017 3,4.6894531 3,4.6894531 V 18 c 0,0.554 0.446,1 1,1 h 1 c 0.554,0 1,-0.446 1,-1 V 7.9257812 l 3.9824219,3.6757808 c 0.5746661,0.530515 1.4604901,0.530515 2.0351561,0 L 16,7.9257812 V 18 c 0,0.554 0.446,1 1,1 h 1 c 0.554,0 1,-0.446 1,-1 V 4.7578125 c 0,0 0.02842,-0.5659487 -0.07422,-0.8300781 -0.0045,-0.011251 -0.0088,-0.022161 -0.01367,-0.033203 C 18.683823,3.3476359 18.15497,2.9863932 17.5625,2.9726562 Z"/>
 </g>
 <g id="start-here-kde">
  <rect width="32" height="32" x="0" y="0" style="opacity:0.00100002"/>
  <rect width="6" height="22" x="24" y="3" rx="3" ry="3" style="opacity:0.2"/>
  <rect style="fill:#0f7269" width="6" height="22" x="24" y="2" rx="3" ry="3"/>
  <rect style="opacity:0.2" width="6" height="28" x="2" y="3" rx="3" ry="3"/>
  <rect width="6" height="28" x="2" y="2" rx="3" ry="3" style="fill:#0f7269"/>
  <path style="opacity:0.2" d="m 4.9948231,3.0063467 v 0 a 2.9926825,2.9919225 0 0 0 -1.9731478,5.2433 L 13.993159,18.222747 a 2.9926825,2.9919225 0 0 0 4.02444,0 L 28.991036,8.2496467 a 2.9926825,2.9919225 0 0 0 -1.928215,-5.2316 2.9926825,2.9919225 0 0 0 -0.06251,0 v -0.018 z"/>
  <path d="m 4.9948231,2.0063 v 0 A 2.9926825,2.9919225 0 0 0 3.0216753,7.2496 l 10.9714837,9.9731 a 2.9926825,2.9919225 0 0 0 4.02444,0 L 28.991036,7.2496 a 2.9926825,2.9919225 0 0 0 -1.928215,-5.2316 2.9926825,2.9919225 0 0 0 -0.06251,0 V 2 Z" style="fill:#009688"/>
  <rect width="1" height="3" x="29.5" y="-20" rx=".5" ry=".5" transform="rotate(90)" style="opacity:0.2"/>
  <path style="opacity:0.2" d="m 21.463795,26.4581 c 0.239889,-0.1385 0.331138,-0.4125 0.469618,-0.1727 l 0.650235,1.1263 1.349765,2.3378 c 0.1385,0.2399 0.05688,0.5445 -0.183013,0.683 -0.239889,0.1385 -0.544513,0.057 -0.683013,-0.183 l -1.44233,-2.4982 -0.202052,-0.8236 c -0.06596,-0.2691 -0.199232,-0.3311 0.04077,-0.4697 z"/>
  <path style="opacity:0.2" d="m 21.5,26.5 c 0.277,0 0.5,0.223 0.5,0.5 v 3 c 0,0.277 -0.223,0.5 -0.5,0.5 C 21.223,30.5 21,30.277 21,30 v -3 c 0,-0.277 0.223,-0.5 0.5,-0.5 z"/>
  <rect width="1" height="5" x="14" y="25.5" rx=".5" ry=".5" style="opacity:0.2"/>
  <path style="opacity:0.2" d="m 27.5,26.5 c 0.277,0 0.5,0.223 0.5,0.5 v 3 c 0,0.277 -0.223,0.5 -0.5,0.5 C 27.223,30.5 27,30.277 27,30 v -3 c 0,-0.277 0.223,-0.5 0.5,-0.5 z"/>
  <path style="opacity:0.2" d="m 29.5,26.5 c 0.277,0 0.5,0.223 0.5,0.5 v 3 c 0,0.277 -0.223,0.5 -0.5,0.5 C 29.223,30.5 29,30.277 29,30 v -3 c 0,-0.277 0.223,-0.5 0.5,-0.5 z"/>
  <rect style="opacity:0.2" width="1" height="3" x="25" y="27.5" rx=".5" ry=".5"/>
  <path d="m 9.4999999,26.5 c 0.277,0 0.5,0.223 0.5,0.5 v 3 c 0,0.277 -0.223,0.5 -0.5,0.5 -0.277,0 -0.5,-0.223 -0.5,-0.5 v -3 c 0,-0.277 0.223,-0.5 0.5,-0.5 z" style="opacity:0.2"/>
  <path d="m 11.5,26.5 c 0.277,0 0.5,0.223 0.5,0.5 v 3 c 0,0.277 -0.223,0.5 -0.5,0.5 C 11.223,30.5 11,30.277 11,30 v -3 c 0,-0.277 0.223,-0.5 0.5,-0.5 z" style="opacity:0.2"/>
  <path d="m 21.463795,25.9581 c 0.239889,-0.1385 0.331138,-0.4125 0.469618,-0.1727 l 0.650235,1.1263 1.349765,2.3378 c 0.1385,0.2399 0.05688,0.5445 -0.183013,0.683 -0.239889,0.1385 -0.544513,0.057 -0.683013,-0.183 l -1.44233,-2.4982 -0.202052,-0.8236 c -0.06596,-0.2691 -0.199232,-0.3311 0.04077,-0.4697 z" style="fill:#e03939"/>
  <path d="m 21.5,26 c 0.277,0 0.5,0.223 0.5,0.5 v 3 C 22,29.777 21.777,30 21.5,30 21.223,30 21,29.777 21,29.5 v -3 C 21,26.223 21.223,26 21.5,26 Z" style="fill:#e03939"/>
  <rect width="1" height="5" x="17" y="25" rx=".5" ry=".5" style="fill:#e03939"/>
  <rect width="1" height="3" x="25.5" y="-20" rx=".5" ry=".5" transform="rotate(90)" style="opacity:0.2"/>
  <rect style="fill:#e03939" width="1" height="5" x="14" y="25" rx=".5" ry=".5"/>
  <path d="m 27.5,26 c 0.277,0 0.5,0.223 0.5,0.5 v 3 C 28,29.777 27.777,30 27.5,30 27.223,30 27,29.777 27,29.5 v -3 C 27,26.223 27.223,26 27.5,26 Z" style="fill:#e03939"/>
  <path d="m 29.5,26 c 0.277,0 0.5,0.223 0.5,0.5 v 3 C 30,29.777 29.777,30 29.5,30 29.223,30 29,29.777 29,29.5 v -3 C 29,26.223 29.223,26 29.5,26 Z" style="fill:#e03939"/>
  <rect style="opacity:0.2" width="1" height="3" x="25.5" y="-16" rx=".5" ry=".5" transform="rotate(90)"/>
  <rect width="1" height="3" x="25" y="-16" rx=".5" ry=".5" transform="rotate(90)" style="fill:#ff5252"/>
  <rect style="fill:#ff5252" width="1" height="3" x="25" y="-20" rx=".5" ry=".5" transform="rotate(90)"/>
  <rect style="opacity:0.2" width="1" height="3" x="27.5" y="-20" rx=".5" ry=".5" transform="rotate(90)"/>
  <rect width="1" height="3" x="27" y="-20" rx=".5" ry=".5" transform="rotate(90)" style="fill:#ff5252"/>
  <rect style="fill:#ff5252" width="1" height="3" x="29" y="-20" rx=".5" ry=".5" transform="rotate(90)"/>
  <path style="opacity:0.2" d="m 24,26.9999 a 1.5,1.5 0 0 1 -1.5,1.5 1.5,1.5 0 0 1 -1.5,-1.5 1.5,1.5 0 0 1 1.5,-1.5 1.5,1.5 0 0 1 1.5,1.5 z"/>
  <path d="M 24,26.5 A 1.5,1.5 0 0 1 22.5,28 1.5,1.5 0 0 1 21,26.5 1.5,1.5 0 0 1 22.5,25 1.5,1.5 0 0 1 24,26.5 Z" style="fill:#ff5252"/>
  <rect width="1" height="3" x="25" y="27" rx=".5" ry=".5" style="fill:#e03939"/>
  <circle style="opacity:0.2" cx="25.5" cy="26" r=".5"/>
  <circle cx="25.5" cy="25.5" r=".5" style="fill:#ff5252"/>
  <path d="m 30,26.9999 a 1.5,1.5 0 0 1 -1.5,1.5 1.5,1.5 0 0 1 -1.5,-1.5 1.5,1.5 0 0 1 1.5,-1.5 1.5,1.5 0 0 1 1.5,1.5 z" style="opacity:0.2"/>
  <path style="fill:#ff5252" d="M 30,26.5 A 1.5,1.5 0 0 1 28.5,28 1.5,1.5 0 0 1 27,26.5 1.5,1.5 0 0 1 28.5,25 1.5,1.5 0 0 1 30,26.5 Z"/>
  <path style="fill:#e03939" d="m 9.4999999,26 c 0.277,0 0.5,0.223 0.5,0.5 v 3 c 0,0.277 -0.223,0.5 -0.5,0.5 -0.277,0 -0.5,-0.223 -0.5,-0.5 v -3 c 0,-0.277 0.223,-0.5 0.5,-0.5 z"/>
  <path style="fill:#e03939" d="m 11.5,26 c 0.277,0 0.5,0.223 0.5,0.5 v 3 C 12,29.777 11.777,30 11.5,30 11.223,30 11,29.777 11,29.5 v -3 C 11,26.223 11.223,26 11.5,26 Z"/>
  <path style="opacity:0.2" d="m 12,26.9999 a 1.5,1.5 0 0 1 -1.5,1.5 1.5,1.5 0 0 1 -1.5000001,-1.5 1.5,1.5 0 0 1 1.5000001,-1.5 1.5,1.5 0 0 1 1.5,1.5 z"/>
  <path d="M 12,26.5 A 1.5,1.5 0 0 1 10.5,28 1.5,1.5 0 0 1 8.9999999,26.5 1.5,1.5 0 0 1 10.5,25 1.5,1.5 0 0 1 12,26.5 Z" style="fill:#ff5252"/>
 </g>
</svg>
