<svg xmlns="http://www.w3.org/2000/svg" id="svg88" width="32" height="32" version="1.1">
 <g id="start-here-kde">
  <rect style="opacity:0.00100002" id="rect7" width="32" height="32" x="0" y="0"/>
  <rect style="opacity:0.2" id="rect9" width="6" height="22" x="24" y="3" rx="3" ry="3"/>
  <rect style="fill:#0f7269" id="rect11" width="6" height="22" x="24" y="2" rx="3" ry="3"/>
  <rect style="opacity:0.2" id="rect13" width="6" height="28" x="2" y="3" rx="3" ry="3"/>
  <rect style="fill:#0f7269" id="rect15" width="6" height="28" x="2" y="2" rx="3" ry="3"/>
  <path style="opacity:0.2" id="path17" d="m 4.9948231,3.0063467 v 0 a 2.9926825,2.9919225 0 0 0 -1.9731478,5.2433 L 13.993159,18.222747 a 2.9926825,2.9919225 0 0 0 4.02444,0 L 28.991036,8.2496467 a 2.9926825,2.9919225 0 0 0 -1.928215,-5.2316 2.9926825,2.9919225 0 0 0 -0.06251,0 v -0.018 z"/>
  <path style="fill:#01a299" id="path19" d="m 4.9948231,2.0063 v 0 A 2.9926825,2.9919225 0 0 0 3.0216753,7.2496 l 10.9714837,9.9731 a 2.9926825,2.9919225 0 0 0 4.02444,0 L 28.991036,7.2496 a 2.9926825,2.9919225 0 0 0 -1.928215,-5.2316 2.9926825,2.9919225 0 0 0 -0.06251,0 V 2 Z"/>
  <rect style="opacity:0.2" id="rect21" width="1" height="3" x="29.5" y="-20" rx=".5" ry=".5" transform="rotate(90)"/>
  <path style="opacity:0.2" id="path23" d="m 21.463795,26.4581 c 0.239889,-0.1385 0.331138,-0.4125 0.469618,-0.1727 l 0.650235,1.1263 1.349765,2.3378 c 0.1385,0.2399 0.05688,0.5445 -0.183013,0.683 -0.239889,0.1385 -0.544513,0.057 -0.683013,-0.183 l -1.44233,-2.4982 -0.202052,-0.8236 c -0.06596,-0.2691 -0.199232,-0.3311 0.04077,-0.4697 z"/>
  <path style="opacity:0.2" id="path25" d="m 21.5,26.5 c 0.277,0 0.5,0.223 0.5,0.5 v 3 c 0,0.277 -0.223,0.5 -0.5,0.5 C 21.223,30.5 21,30.277 21,30 v -3 c 0,-0.277 0.223,-0.5 0.5,-0.5 z"/>
  <rect style="opacity:0.2" id="rect27" width="1" height="5" x="14" y="25.5" rx=".5" ry=".5"/>
  <path style="opacity:0.2" id="path29" d="m 27.5,26.5 c 0.277,0 0.5,0.223 0.5,0.5 v 3 c 0,0.277 -0.223,0.5 -0.5,0.5 C 27.223,30.5 27,30.277 27,30 v -3 c 0,-0.277 0.223,-0.5 0.5,-0.5 z"/>
  <path style="opacity:0.2" id="path31" d="m 29.5,26.5 c 0.277,0 0.5,0.223 0.5,0.5 v 3 c 0,0.277 -0.223,0.5 -0.5,0.5 C 29.223,30.5 29,30.277 29,30 v -3 c 0,-0.277 0.223,-0.5 0.5,-0.5 z"/>
  <rect style="opacity:0.2" id="rect33" width="1" height="3" x="25" y="27.5" rx=".5" ry=".5"/>
  <path style="opacity:0.2" id="path35" d="m 9.4999999,26.5 c 0.277,0 0.5,0.223 0.5,0.5 v 3 c 0,0.277 -0.223,0.5 -0.5,0.5 -0.277,0 -0.5,-0.223 -0.5,-0.5 v -3 c 0,-0.277 0.223,-0.5 0.5,-0.5 z"/>
  <path style="opacity:0.2" id="path37" d="m 11.5,26.5 c 0.277,0 0.5,0.223 0.5,0.5 v 3 c 0,0.277 -0.223,0.5 -0.5,0.5 C 11.223,30.5 11,30.277 11,30 v -3 c 0,-0.277 0.223,-0.5 0.5,-0.5 z"/>
  <path style="fill:#e03939" id="path39" d="m 21.463795,25.9581 c 0.239889,-0.1385 0.331138,-0.4125 0.469618,-0.1727 l 0.650235,1.1263 1.349765,2.3378 c 0.1385,0.2399 0.05688,0.5445 -0.183013,0.683 -0.239889,0.1385 -0.544513,0.057 -0.683013,-0.183 l -1.44233,-2.4982 -0.202052,-0.8236 c -0.06596,-0.2691 -0.199232,-0.3311 0.04077,-0.4697 z"/>
  <path style="fill:#e03939" id="path41" d="m 21.5,26 c 0.277,0 0.5,0.223 0.5,0.5 v 3 C 22,29.777 21.777,30 21.5,30 21.223,30 21,29.777 21,29.5 v -3 C 21,26.223 21.223,26 21.5,26 Z"/>
  <rect style="fill:#e03939" id="rect43" width="1" height="5" x="17" y="25" rx=".5" ry=".5"/>
  <rect style="opacity:0.2" id="rect45" width="1" height="3" x="25.5" y="-20" rx=".5" ry=".5" transform="rotate(90)"/>
  <rect style="fill:#e03939" id="rect47" width="1" height="5" x="14" y="25" rx=".5" ry=".5"/>
  <path style="fill:#e03939" id="path49" d="m 27.5,26 c 0.277,0 0.5,0.223 0.5,0.5 v 3 C 28,29.777 27.777,30 27.5,30 27.223,30 27,29.777 27,29.5 v -3 C 27,26.223 27.223,26 27.5,26 Z"/>
  <path style="fill:#e03939" id="path51" d="m 29.5,26 c 0.277,0 0.5,0.223 0.5,0.5 v 3 C 30,29.777 29.777,30 29.5,30 29.223,30 29,29.777 29,29.5 v -3 C 29,26.223 29.223,26 29.5,26 Z"/>
  <rect style="opacity:0.2" id="rect53" width="1" height="3" x="25.5" y="-16" rx=".5" ry=".5" transform="rotate(90)"/>
  <rect style="fill:#ff5252" id="rect55" width="1" height="3" x="25" y="-16" rx=".5" ry=".5" transform="rotate(90)"/>
  <rect style="fill:#ff5252" id="rect57" width="1" height="3" x="25" y="-20" rx=".5" ry=".5" transform="rotate(90)"/>
  <rect style="opacity:0.2" id="rect59" width="1" height="3" x="27.5" y="-20" rx=".5" ry=".5" transform="rotate(90)"/>
  <rect style="fill:#ff5252" id="rect61" width="1" height="3" x="27" y="-20" rx=".5" ry=".5" transform="rotate(90)"/>
  <rect style="fill:#ff5252" id="rect63" width="1" height="3" x="29" y="-20" rx=".5" ry=".5" transform="rotate(90)"/>
  <path style="opacity:0.2" id="path65" d="m 24,26.9999 a 1.5,1.5 0 0 1 -1.5,1.5 1.5,1.5 0 0 1 -1.5,-1.5 1.5,1.5 0 0 1 1.5,-1.5 1.5,1.5 0 0 1 1.5,1.5 z"/>
  <path style="fill:#ff5252" id="path67" d="M 24,26.5 A 1.5,1.5 0 0 1 22.5,28 1.5,1.5 0 0 1 21,26.5 1.5,1.5 0 0 1 22.5,25 1.5,1.5 0 0 1 24,26.5 Z"/>
  <rect style="fill:#e03939" id="rect69" width="1" height="3" x="25" y="27" rx=".5" ry=".5"/>
  <circle style="opacity:0.2" id="circle71" cx="25.5" cy="26" r=".5"/>
  <circle style="fill:#ff5252" id="circle73" cx="25.5" cy="25.5" r=".5"/>
  <path style="opacity:0.2" id="path75" d="m 30,26.9999 a 1.5,1.5 0 0 1 -1.5,1.5 1.5,1.5 0 0 1 -1.5,-1.5 1.5,1.5 0 0 1 1.5,-1.5 1.5,1.5 0 0 1 1.5,1.5 z"/>
  <path style="fill:#ff5252" id="path77" d="M 30,26.5 A 1.5,1.5 0 0 1 28.5,28 1.5,1.5 0 0 1 27,26.5 1.5,1.5 0 0 1 28.5,25 1.5,1.5 0 0 1 30,26.5 Z"/>
  <path style="fill:#e03939" id="path79" d="m 9.4999999,26 c 0.277,0 0.5,0.223 0.5,0.5 v 3 c 0,0.277 -0.223,0.5 -0.5,0.5 -0.277,0 -0.5,-0.223 -0.5,-0.5 v -3 c 0,-0.277 0.223,-0.5 0.5,-0.5 z"/>
  <path style="fill:#e03939" id="path81" d="m 11.5,26 c 0.277,0 0.5,0.223 0.5,0.5 v 3 C 12,29.777 11.777,30 11.5,30 11.223,30 11,29.777 11,29.5 v -3 C 11,26.223 11.223,26 11.5,26 Z"/>
  <path style="opacity:0.2" id="path83" d="m 12,26.9999 a 1.5,1.5 0 0 1 -1.5,1.5 1.5,1.5 0 0 1 -1.5000001,-1.5 1.5,1.5 0 0 1 1.5000001,-1.5 1.5,1.5 0 0 1 1.5,1.5 z"/>
  <path style="fill:#ff5252" id="path85" d="M 12,26.5 A 1.5,1.5 0 0 1 10.5,28 1.5,1.5 0 0 1 8.9999999,26.5 1.5,1.5 0 0 1 10.5,25 1.5,1.5 0 0 1 12,26.5 Z"/>
 </g>
 <g id="22-22-start-here-kde" transform="translate(27,4.999994)">
  <rect style="opacity:0.00100002" id="rect2" width="22" height="22" x="5" y="5"/>
  <path id="path10" d="m 17.007931,8.000006 -3.01305,0.5245581 V 18.894826 l 2.997438,-0.386106 -0.01562,-4.674223 3.536041,5.173431 3.473594,-0.499208 -3.996585,-5.354784 4.010245,-4.4928697 -3.516526,-0.6474102 -3.506769,4.4928699 z m -6.336382,2.648141 c -0.02894,0.0024 -0.05625,0.01509 -0.07806,0.03705 l -1.0342725,1.045216 c -0.044912,0.04523 -0.052405,0.115739 -0.017565,0.169653 l 1.2489325,1.91688 c -0.235608,0.417818 -0.41363,0.875932 -0.528845,1.355271 L 8.1053789,15.700675 C 8.0455199,15.715355 8,15.769425 8,15.831327 v 0.680561 0.680561 c 0,0.0619 0.045521,0.115975 0.1053789,0.130651 l 2.1563601,0.528459 c 0.115215,0.47934 0.293237,0.937455 0.528845,1.355272 l -1.2489325,1.91688 c -0.03484,0.05391 -0.027347,0.124425 0.017565,0.169652 l 1.0342725,1.045217 c 0.0436,0.04393 0.111261,0.04755 0.163922,0.01559 l 1.957312,-1.199264 c 0.384,0.223545 0.984668,0.403397 1.422612,0.522608 l 0.458593,2.213284 C 14.608668,23.954698 14.659458,24 14.722773,24 h 0.770825 0.770825 c 0.06333,0 0.114105,-0.0453 0.126846,-0.109202 l 0.458592,-2.213284 c 0.437944,-0.119211 1.038614,-0.299063 1.422612,-0.522608 l 1.957311,1.199268 c 0.05266,0.03195 0.120319,0.02834 0.163923,-0.0156 l 1.034272,-1.045217 c 0.04491,-0.04523 0.05241,-0.115738 0.01757,-0.169652 l -1.040126,-1.597076 -0.128797,0.0195 -0.729844,-1.068616 c -0.745428,1.561485 -2.321859,2.556557 -4.053177,2.55844 -2.483159,0 -4.496158,-2.011527 -4.496158,-4.492871 0.0014,-1.705422 0.969019,-3.263001 2.497864,-4.020965 v -0.980866 c -0.284995,0.09495 -0.565029,0.202121 -0.780583,0.327606 l -1.957312,-1.199269 c -0.02633,-0.01598 -0.05692,-0.02385 -0.08587,-0.02145 z" style="fill:#dfdfdf;fill-opacity:1;stroke-width:0.99878067"/>
 </g>
</svg>
