<svg xmlns="http://www.w3.org/2000/svg" width="32" height="32" version="1">
 <g id="22-22-strawberry" transform="translate(27,5)">
  <rect style="opacity:0.001" width="22" height="22" x="5" y="5"/>
  <path style="fill:#dfdfdf;fill-opacity:1" d="m 17.087373,8.0000204 c -0.08879,0 -0.115275,0.181015 -0.06055,0.4199219 0,0 0.15734,0.7619523 1.21289,1.3203126 0.734159,0.3629501 0.733731,0.5733741 -0.0039,0.7910151 -0.321469,0.09485 -0.713233,0.273527 -0.86914,0.398438 -0.257133,0.206014 -0.163188,0.290926 1.009765,0.916016 0.711194,0.379009 1.425049,0.800284 1.585938,0.935546 0.279332,0.23484 0.267634,0.267203 -0.277344,0.722657 -0.608397,0.508453 -1.328125,1.697155 -1.328125,2.193359 0,0.268262 0.119072,0.291638 1.121094,0.207031 0.616429,-0.05205 1.293297,-0.118481 1.505859,-0.146485 l 0.386719,-0.05078 -0.05469,1.34961 c -0.03035,0.74213 -0.11895,1.534076 -0.197265,1.759765 -0.07831,0.22569 -0.110753,0.44416 -0.07227,0.486328 0.162017,0.17752 0.822036,-0.213548 1.275391,-0.755859 0.463478,-0.554422 0.493251,-0.566767 0.591796,-0.226563 0.331871,0.609879 0.479188,1.145229 0.994141,1.679688 0.114993,0.01131 0.201612,-0.136263 0.275391,-0.439453 0.227139,-0.933414 0.10531,-1.836435 -0.373047,-2.769531 -0.257766,-0.502807 -0.509504,-1.295915 -0.560544,-1.76172 -0.05104,-0.465805 -0.134056,-1.006569 -0.185547,-1.203125 -0.07824,-0.298677 0.07175,-0.474213 0.921875,-1.0625 0.967991,-0.669843 1.219598,-1.050925 0.853516,-1.298828 -0.09096,-0.06159 -0.571545,0.125064 -1.066406,0.414063 -0.494862,0.288997 -0.996348,0.52539 -1.115235,0.52539 -0.118886,0 -0.491278,-0.362572 -0.828125,-0.804687 -0.585419,-0.768368 -0.613281,-0.856185 -0.613281,-1.9902345 0,-1.0775592 -0.03025,-1.1900385 -0.326172,-1.2363282 -0.239184,-0.037414 -0.378069,0.085476 -0.521484,0.4648437 -0.107448,0.2842238 -0.24821,0.5175783 -0.314453,0.5175783 -0.06624,0 -0.727156,-0.3050905 -1.466797,-0.6777345 -0.739656,-0.372642 -1.414223,-0.6777344 -1.5,-0.6777344 z M 16.214326,9.041036 c -0.06635,0.00626 -0.09727,0.00375 -0.171875,0.011719 -2.442654,0.2609121 -4.479565,1.774117 -6.8105454,5.054687 -0.703828,0.990553 -1.608029,2.261654 -2.009766,2.826172 -1.692378,2.378122 -1.620267,4.819444 0.173828,5.845703 1.159538,0.663275 2.2790505,0.925376 4.0527344,0.951172 0.891515,0.01295 2.198516,0.07777 2.902343,0.142578 1.963706,0.180839 2.209599,0.17624 3.591796,-0.06445 1.546994,-0.269402 2.73888,-0.83045 3.697266,-1.738282 0.38599,-0.365628 0.852472,-1.062621 1.242187,-1.771484 -0.135912,-0.219608 -0.216507,-0.4261 -0.328124,-0.648437 -0.157601,0.132513 -0.299836,0.304158 -0.46875,0.404297 -0.180998,0.107295 -0.360995,0.200902 -0.619141,0.257812 -0.258146,0.05691 -0.766022,0.09377 -1.158203,-0.335938 -0.347774,-0.381028 -0.272544,-0.5705 -0.277344,-0.697265 -0.0048,-0.126766 0.0069,-0.213818 0.01953,-0.298828 0.02531,-0.170015 0.06514,-0.3253 0.123047,-0.492188 -0.04121,0.118766 0.03562,-0.17892 0.06836,-0.470703 0.03274,-0.291783 0.06203,-0.656165 0.07617,-1.001953 l 0.0078,-0.189453 c -0.271467,0.02598 -0.456151,0.04825 -0.763672,0.07422 -0.511484,0.04319 -0.771607,0.09436 -1.201172,0.01563 -0.214783,-0.03938 -0.573515,-0.17616 -0.791016,-0.488282 -0.217487,-0.312122 -0.21289,-0.589621 -0.21289,-0.730468 0,-0.731649 0.279178,-1.112467 0.580078,-1.609375 0.205027,-0.338552 0.485638,-0.625314 0.753921,-0.919931 -0.242262,-0.139885 -0.503947,-0.290632 -0.783203,-0.439453 -0.593302,-0.316182 -0.88868,-0.435186 -1.242187,-0.755859 -0.08838,-0.08017 -0.19239,-0.183471 -0.28711,-0.365235 -0.09471,-0.181763 -0.156162,-0.472623 -0.107422,-0.724609 0.09749,-0.503973 0.359035,-0.641389 0.472657,-0.732422 0.112319,-0.08999 0.214211,-0.09022 0.318359,-0.1523436 C 16.848776,9.7982547 16.526626,9.6066959 16.403779,9.4199424 16.314328,9.2839572 16.267074,9.1618983 16.214326,9.041036 Z m -1.023437,2.96875 c 0.107057,-0.01419 0.212149,-0.01409 0.308594,0.002 0.128594,0.02139 0.243532,0.07166 0.330078,0.158203 0.346183,0.346185 0.119025,1.134882 -0.265625,1.519531 -0.384649,0.384656 -0.978035,0.416501 -1.324219,0.07032 -0.346185,-0.346185 -0.31434,-0.939569 0.07031,-1.324218 0.216366,-0.216366 0.559689,-0.383218 0.880859,-0.425782 z m -4,2 c 0.107057,-0.01419 0.212149,-0.01409 0.308594,0.002 0.128594,0.02139 0.243532,0.07166 0.330078,0.158203 0.346185,0.346188 0.119025,1.134884 -0.265625,1.519534 -0.38465,0.38465 -0.978034,0.416498 -1.324219,0.07031 -0.3461849,-0.346176 -0.3143379,-0.939566 0.07031,-1.324216 0.216365,-0.216365 0.559689,-0.383218 0.880859,-0.425781 z m 3,2 c 0.107056,-0.01419 0.212148,-0.01414 0.308594,0.002 0.128593,0.02139 0.243531,0.07166 0.330078,0.158203 0.346185,0.346186 0.119026,1.134882 -0.265625,1.519531 -0.384649,0.384649 -0.978034,0.416497 -1.324219,0.07031 -0.346185,-0.346185 -0.314336,-0.939569 0.07031,-1.324219 0.216366,-0.216366 0.55969,-0.383218 0.880859,-0.425781 z m 3.999999,1 c 0.107057,-0.01419 0.212149,-0.01414 0.308594,0.002 0.128594,0.02139 0.243532,0.07166 0.330078,0.158203 0.346185,0.346185 0.119025,1.134881 -0.265625,1.519531 -0.38465,0.384649 -0.978035,0.416497 -1.324219,0.07031 -0.346185,-0.346185 -0.314338,-0.939568 0.07031,-1.324219 0.216367,-0.216365 0.55969,-0.383218 0.880859,-0.425781 z m -8.9999984,1 c 0.107057,-0.01419 0.212148,-0.01414 0.308594,0.002 0.1285935,0.02139 0.2435315,0.07166 0.3300775,0.158203 0.3461849,0.346185 0.119025,1.134881 -0.265625,1.519531 -0.3846485,0.384649 -0.9780335,0.416497 -1.3242185,0.07031 -0.346185,-0.346185 -0.314336,-0.939569 0.07031,-1.324219 0.216366,-0.216366 0.55969,-0.383218 0.88086,-0.425781 z m 3.9999994,2 c 0.107057,-0.01419 0.212148,-0.01414 0.308594,0.002 0.128594,0.02139 0.243532,0.07166 0.330078,0.158203 0.346185,0.346186 0.119026,1.134881 -0.265625,1.519531 -0.384649,0.384649 -0.978035,0.416497 -1.324219,0.07031 -0.346185,-0.346186 -0.314337,-0.939571 0.07031,-1.324219 0.216366,-0.216366 0.55969,-0.383218 0.88086,-0.425781 z m 2.999999,1 c 0.107057,-0.01419 0.212149,-0.01414 0.308594,0.002 0.128594,0.02139 0.243532,0.07166 0.330078,0.158203 0.346185,0.346184 0.119025,1.13488 -0.265625,1.519531 -0.384651,0.38465 -0.978033,0.416497 -1.324218,0.07031 -0.346184,-0.346186 -0.314338,-0.939569 0.07031,-1.324219 0.216367,-0.216365 0.55969,-0.383218 0.880858,-0.425781 z"/>
 </g>
 <g id="strawberry">
  <rect style="opacity:0.001" width="32" height="32" x="0" y="0"/>
  <g>
   <path style="opacity:0.2" d="m 17.900829,6.0003362 c -0.287491,-0.00384 -0.658469,0.025286 -1.164722,0.081796 -3.584014,0.4000648 -6.573848,2.7185292 -9.994008,7.7487378 -1.0326995,1.518846 -2.3600001,3.46963 -2.9494525,4.335224 -2.483163,3.646454 -2.3761885,7.388632 0.256219,8.962222 1.7013455,1.017024 3.345343,1.420322 5.9478015,1.45987 1.308086,0.01987 3.223274,0.117579 4.255974,0.216961 2.881271,0.277283 3.242048,0.270823 5.270092,-0.09826 2.269846,-0.413081 4.020849,-1.273371 5.427053,-2.665375 1.10409,-1.092943 2.680758,-4.118281 2.927937,-5.440973 C 29.948317,14.168408 22.625997,6.3259878 17.900829,6.0003362 Z"/>
   <path style="fill:#dc3a2d" d="m 17.900829,5.0003363 c -0.287491,-0.00384 -0.658469,0.025286 -1.164722,0.081796 -3.584014,0.4000648 -6.573848,2.7185292 -9.994008,7.7487377 -1.0326995,1.518846 -2.3600001,3.46963 -2.9494525,4.335224 -2.483163,3.646454 -2.3761885,7.388632 0.256219,8.962222 1.7013455,1.017024 3.345343,1.420322 5.9478015,1.45987 1.308086,0.01987 3.223274,0.117579 4.255974,0.216961 2.881271,0.277283 3.242048,0.270823 5.270092,-0.09826 2.269846,-0.413081 4.020849,-1.273371 5.427053,-2.665375 1.10409,-1.092943 2.680758,-4.118281 2.927937,-5.440973 C 29.948317,13.168408 22.625997,5.3259879 17.900829,5.0003363 Z"/>
   <path style="opacity:0.2;fill:#ffffff" d="M 17.900391,5 C 17.6129,4.99616 17.242581,5.0255212 16.736328,5.0820312 13.152314,5.482096 10.162348,7.7998696 6.7421875,12.830078 5.709488,14.348924 4.3824211,16.300422 3.7929688,17.166016 2.4709519,19.10736 1.8888663,21.072644 2.0253906,22.726562 2.1435734,21.307348 2.7292161,19.728106 3.7929688,18.166016 4.3824211,17.300422 5.709488,15.348924 6.7421875,13.830078 10.162348,8.7998695 13.152314,6.482096 16.736328,6.0820312 17.242581,6.0255213 17.6129,5.99616 17.900391,6 21.933693,6.2779692 27.840111,12.033405 28.201172,17.712891 28.540114,11.728741 22.171182,5.2943366 17.900391,5 Z"/>
   <path style="opacity:0.2" d="m 19.132643,5.0000024 c -0.133175,0 -0.171763,0.2562936 -0.08968,0.594745 0,0 0.235979,1.0799292 1.81931,1.8709396 1.101242,0.51418 1.099258,0.8113319 -0.0073,1.1196576 -0.482204,0.1343652 -1.068232,0.3891987 -1.302095,0.5661551 -0.3857,0.2918526 -0.244929,0.4122099 1.514508,1.2977533 1.066795,0.536931 2.137311,1.132847 2.378645,1.324469 0.419001,0.332689 0.399895,0.379291 -0.417576,1.024517 -0.912598,0.72031 -1.99232,2.404339 -1.99232,3.107296 0,0.380035 0.178136,0.410908 1.681174,0.291046 0.924648,-0.07373 1.942048,-0.166545 2.260892,-0.206216 l 0.579716,-0.07218 -0.08288,1.911713 c -0.04552,1.051353 -0.178726,2.173141 -0.296198,2.492867 -0.117469,0.319727 -0.166422,0.63015 -0.108696,0.689886 0.243026,0.251488 1.234385,-0.303578 1.914419,-1.071853 0.69522,-0.785431 0.739419,-0.801592 0.887237,-0.319635 0.497809,0.863994 0.718157,1.62083 1.490588,2.37798 0.17249,0.01601 0.304105,-0.192345 0.414773,-0.621865 0.340711,-1.322335 0.158206,-2.602305 -0.559332,-3.924192 -0.386657,-0.712309 -0.765386,-1.834851 -0.841948,-2.494742 -0.07656,-0.65989 -0.202661,-1.427513 -0.279896,-1.705966 -0.117364,-0.423128 0.110225,-0.670094 1.385431,-1.503501 1.451992,-0.948945 1.826764,-1.488812 1.27764,-1.8400076 -0.136436,-0.087257 -0.855093,0.1764266 -1.597389,0.5858416 -0.742292,0.409413 -1.495597,0.74425 -1.673928,0.74425 -0.17833,0 -0.737947,-0.512544 -1.243219,-1.138873 -0.878133,-1.0885209 -0.918488,-1.212961 -0.918488,-2.8195318 0,-1.5265421 -0.04479,-1.6872568 -0.488681,-1.7528339 -0.358778,-0.053003 -0.566586,0.1224531 -0.781711,0.6598905 -0.161172,0.4026505 -0.37437,0.7320653 -0.473735,0.7320653 -0.09937,0 -1.088475,-0.4319277 -2.197939,-0.95984 C 20.274569,5.4319307 19.261324,5.0000024 19.132656,5.0000024 Z"/>
   <path style="fill:#75ac4c" d="m 19.132643,4.0000025 c -0.133175,0 -0.171763,0.2562936 -0.08968,0.594745 0,0 0.235979,1.0799292 1.81931,1.8709396 1.101242,0.51418 1.099258,0.8113319 -0.0073,1.1196576 -0.482204,0.1343652 -1.068232,0.3891987 -1.302095,0.5661551 -0.3857,0.2918526 -0.244929,0.4122099 1.514508,1.2977532 1.066795,0.536931 2.137311,1.132847 2.378645,1.324469 0.419001,0.332689 0.399895,0.379291 -0.417576,1.024517 -0.912598,0.72031 -1.99232,2.404339 -1.99232,3.107296 0,0.380035 0.178136,0.410908 1.681174,0.291046 0.924648,-0.07373 1.942048,-0.166545 2.260892,-0.206216 l 0.579716,-0.07218 -0.08288,1.911713 c -0.04552,1.051353 -0.178726,2.173141 -0.296198,2.492867 -0.117469,0.319727 -0.166422,0.63015 -0.108696,0.689886 0.243026,0.251488 1.234385,-0.303578 1.914419,-1.071853 0.69522,-0.785431 0.739419,-0.801592 0.887237,-0.319635 0.497809,0.863994 0.718157,1.62083 1.490588,2.37798 0.17249,0.01601 0.304105,-0.192345 0.414773,-0.621865 0.340711,-1.322335 0.158206,-2.602305 -0.559332,-3.924192 -0.386657,-0.712309 -0.765386,-1.834851 -0.841948,-2.494742 -0.07656,-0.65989 -0.202661,-1.427513 -0.279896,-1.705966 -0.117364,-0.423128 0.110225,-0.670094 1.385431,-1.503501 1.451992,-0.948945 1.826764,-1.488812 1.27764,-1.8400075 -0.136436,-0.087257 -0.855093,0.1764265 -1.597389,0.5858415 -0.742292,0.409413 -1.495597,0.74425 -1.673928,0.74425 -0.17833,0 -0.737947,-0.512544 -1.243219,-1.138873 -0.878133,-1.0885208 -0.918488,-1.2129609 -0.918488,-2.8195317 0,-1.5265421 -0.04479,-1.6872568 -0.488681,-1.7528339 -0.358778,-0.053003 -0.566586,0.1224531 -0.781711,0.6598905 -0.161172,0.4026505 -0.37437,0.7320653 -0.473735,0.7320653 -0.09937,0 -1.088475,-0.4319277 -2.197939,-0.95984 C 20.274569,4.4319308 19.261324,4.0000025 19.132656,4.0000025 Z"/>
   <path style="fill:#b4291e" d="m 16.345752,12.534716 c -0.576973,0.576974 -1.465662,0.623747 -1.984938,0.104471 -0.519277,-0.519278 -0.472505,-1.407967 0.104471,-1.98494 0.576976,-0.576975 1.759397,-0.917483 2.278675,-0.398205 0.519277,0.519277 0.17877,1.701698 -0.398206,2.278674 z"/>
   <path style="fill:#b4291e" d="m 14.345753,17.534716 c -0.576974,0.576974 -1.465663,0.623747 -1.984939,0.104471 -0.519277,-0.519278 -0.472505,-1.407967 0.104471,-1.98494 0.576976,-0.576976 1.759397,-0.917483 2.278675,-0.398205 0.519277,0.519277 0.17877,1.701698 -0.398207,2.278674 z"/>
   <path style="fill:#b4291e" d="m 21.345753,20.534716 c -0.576975,0.576974 -1.465663,0.623747 -1.98494,0.104471 -0.519276,-0.519278 -0.472504,-1.407966 0.104471,-1.984941 0.576976,-0.576974 1.759398,-0.917482 2.278675,-0.398204 0.519278,0.519277 0.17877,1.701699 -0.398206,2.278674 z"/>
   <path style="fill:#b4291e" d="m 19.345753,25.534716 c -0.576974,0.576974 -1.465663,0.623747 -1.984939,0.104471 -0.519277,-0.519278 -0.472505,-1.407966 0.104471,-1.98494 0.576976,-0.576974 1.759397,-0.917482 2.278675,-0.398204 0.519277,0.519277 0.17877,1.701698 -0.398206,2.278673 z"/>
   <path style="fill:#b4291e" d="m 13.345752,24.534716 c -0.576974,0.576974 -1.465662,0.623747 -1.984938,0.104471 -0.519277,-0.519278 -0.472505,-1.407965 0.104471,-1.98494 0.576976,-0.576974 1.759398,-0.917481 2.278675,-0.398204 0.519277,0.519276 0.178769,1.701699 -0.398206,2.278673 z"/>
   <path style="fill:#b4291e" d="M 7.3457545,22.534716 C 6.7687804,23.11169 5.8800915,23.158463 5.3608147,22.639187 4.841537,22.119909 4.8883093,21.23122 5.4652839,20.654247 c 0.5769759,-0.576976 1.7593985,-0.917484 2.2786759,-0.398206 0.5192775,0.519277 0.1787701,1.7017 -0.3982058,2.278676 z"/>
   <path style="fill:#b4291e" d="M 9.3457537,16.534715 C 8.7687795,17.11169 7.8800911,17.158463 7.3608144,16.639186 6.841537,16.119909 6.8883093,15.23122 7.4652847,14.654245 c 0.5769757,-0.576974 1.7593978,-0.917482 2.2786752,-0.398204 0.5192771,0.519277 0.17877,1.701699 -0.3982062,2.278674 z"/>
   <path style="opacity:0.2" d="m 16.908203,10.503906 c -0.10745,0.388075 -0.303702,0.772452 -0.5625,1.03125 -0.576973,0.576974 -1.465099,0.622792 -1.984375,0.103516 -0.118604,-0.118605 -0.203623,-0.257264 -0.263672,-0.40625 -0.182251,0.493668 -0.101657,1.04092 0.263672,1.40625 0.519276,0.519276 1.407402,0.473458 1.984375,-0.103516 0.498099,-0.498098 0.817855,-1.446776 0.5625,-2.03125 z m -6.9999999,4 c -0.1074497,0.388075 -0.3037019,0.772453 -0.5625,1.03125 -0.5769742,0.576975 -1.4650983,0.622793 -1.984375,0.103516 -0.1186047,-0.118605 -0.2036226,-0.257264 -0.2636719,-0.40625 -0.1822513,0.493668 -0.101657,1.040921 0.2636719,1.40625 0.5192767,0.519277 1.4074008,0.473459 1.984375,-0.103516 0.4980986,-0.498097 0.8178549,-1.446775 0.5625,-2.03125 z m 4.9999999,1 c -0.10745,0.388075 -0.303701,0.772452 -0.5625,1.03125 -0.576974,0.576974 -1.465099,0.622792 -1.984375,0.103516 -0.118604,-0.118605 -0.203623,-0.257264 -0.263672,-0.40625 -0.182251,0.493668 -0.101657,1.04092 0.263672,1.40625 0.519276,0.519276 1.407401,0.473458 1.984375,-0.103516 0.498099,-0.498098 0.817855,-1.446776 0.5625,-2.03125 z m 7,3 c -0.10745,0.388075 -0.303702,0.772453 -0.5625,1.03125 -0.576975,0.576974 -1.465098,0.622792 -1.984375,0.103516 -0.118604,-0.118605 -0.203623,-0.257264 -0.263672,-0.40625 -0.182251,0.493668 -0.101656,1.04092 0.263672,1.40625 0.519277,0.519276 1.4074,0.473458 1.984375,-0.103516 0.498099,-0.498097 0.817855,-1.446775 0.5625,-2.03125 z m -13.9999999,2 c -0.1074497,0.388075 -0.303702,0.772452 -0.5625,1.03125 -0.5769741,0.576974 -1.4650982,0.622792 -1.984375,0.103516 -0.1186047,-0.118605 -0.2036227,-0.257264 -0.2636719,-0.40625 -0.1822513,0.493668 -0.1016572,1.04092 0.2636719,1.40625 0.5192768,0.519276 1.4074009,0.473458 1.984375,-0.103516 0.4980984,-0.498098 0.8178549,-1.446776 0.5625,-2.03125 z m 5.9999999,2 c -0.10745,0.388075 -0.303702,0.772453 -0.5625,1.03125 -0.576974,0.576974 -1.465099,0.622792 -1.984375,0.103516 -0.118604,-0.118605 -0.203623,-0.257264 -0.263672,-0.40625 -0.182251,0.493668 -0.101657,1.04092 0.263672,1.40625 0.519276,0.519276 1.407401,0.473458 1.984375,-0.103516 0.498098,-0.498096 0.817855,-1.446776 0.5625,-2.03125 z m 6,1 c -0.10745,0.388075 -0.303702,0.772453 -0.5625,1.03125 -0.576974,0.576974 -1.465099,0.622792 -1.984375,0.103516 -0.118604,-0.118605 -0.203623,-0.257264 -0.263672,-0.40625 -0.182251,0.493668 -0.101657,1.04092 0.263672,1.40625 0.519276,0.519276 1.407401,0.473458 1.984375,-0.103516 0.498099,-0.498097 0.817855,-1.446775 0.5625,-2.03125 z"/>
   <path style="opacity:0.2;fill:#ffffff" d="m 19.132812,4 c -0.133175,0 -0.171926,0.2572517 -0.08984,0.5957031 0,0 0.06732,0.1948237 0.210937,0.4492188 0.243808,0.061529 1.110096,0.428331 2.13086,0.9140625 1.109464,0.5279123 2.097895,0.9609375 2.197265,0.9609375 0.09936,0 0.311484,-0.3297714 0.472657,-0.7324219 0.215125,-0.5374374 0.424425,-0.7131593 0.783203,-0.6601562 0.443891,0.065577 0.488281,0.2273641 0.488281,1.7539062 0,1.6065708 0.03984,1.7298385 0.917969,2.818359 0.505272,0.626329 1.06581,1.138672 1.24414,1.138672 0.178331,0 0.931536,-0.334727 1.673828,-0.74414 0.57278,-0.315918 1.124117,-0.5397969 1.41211,-0.587891 0.462892,-0.4466033 0.541678,-0.770281 0.185547,-0.9980469 -0.136436,-0.087257 -0.855361,0.1765225 -1.597657,0.5859375 -0.742292,0.409413 -1.495497,0.7441404 -1.673828,0.7441404 -0.17833,0 -0.738868,-0.5123426 -1.24414,-1.1386716 C 25.366008,8.0110886 25.326172,7.8878208 25.326172,6.28125 c 0,-1.5265421 -0.04439,-1.6883292 -0.488281,-1.7539062 -0.358778,-0.053003 -0.568078,0.1227188 -0.783203,0.6601562 -0.161173,0.4026505 -0.373292,0.7324219 -0.472657,0.7324219 -0.09937,0 -1.087801,-0.4330252 -2.197265,-0.9609375 C 20.27537,4.431077 19.261481,4 19.132812,4 Z m 1.855469,3.5371094 c -0.05261,0.016373 -0.07395,0.032426 -0.132812,0.048828 -0.482204,0.1343652 -1.068872,0.3894498 -1.302735,0.5664063 -0.286026,0.2164312 -0.273601,0.3401939 0.464844,0.75 0.261612,-0.1211425 0.55627,-0.2379332 0.837891,-0.3164063 1.049723,-0.2924895 1.069982,-0.5816352 0.132812,-1.048828 z m 2.234375,4.1015626 c -0.0678,0.05485 -0.108922,0.09351 -0.193359,0.160156 -0.912598,0.72031 -1.992188,2.404465 -1.992188,3.107422 0,0.156134 0.05565,0.240945 0.195313,0.292969 0.35136,-0.80142 1.119094,-1.865421 1.796875,-2.400391 0.817471,-0.645226 0.835017,-0.692701 0.416015,-1.02539 -0.03055,-0.02426 -0.167221,-0.09849 -0.222656,-0.134766 z m 4.960938,1.152344 c -0.0987,0.155232 -0.133322,0.297146 -0.08789,0.460937 0.07723,0.278453 0.202737,1.047141 0.279297,1.707031 0.07656,0.659891 0.457093,1.781832 0.84375,2.494141 0.391715,0.721638 0.608861,1.43026 0.683594,2.140625 0.105797,-1.048445 -0.1088,-2.081708 -0.683594,-3.140625 -0.386657,-0.712309 -0.767188,-1.83425 -0.84375,-2.494141 -0.05239,-0.451522 -0.124157,-0.806786 -0.191407,-1.167968 z m -2.625,3.126953 -0.04492,0.0059 -0.03906,0.90625 c -0.04552,1.051353 -0.17745,2.172462 -0.294921,2.492188 -0.117469,0.319727 -0.167101,0.629717 -0.109376,0.689453 0.03555,0.03679 0.09004,0.05251 0.154297,0.05664 0.104154,-0.447262 0.210431,-1.324377 0.25,-2.238281 z"/>
  </g>
 </g>
</svg>
