<svg xmlns="http://www.w3.org/2000/svg" width="32" height="32" version="1.1">
 <g id="system-software-update" transform="translate(-64)">
  <rect style="opacity:0.001" width="32" height="32" x="0" y="0"/>
  <g transform="translate(-1,1.4317501e-4)">
   <path style="opacity:0.2" d="m 15.927613,29.999718 c 0.560622,0.0035 1.126071,-0.02559 1.689923,-0.08985 2.237634,-0.254997 4.417218,-1.045757 6.332309,-2.349796 2.820395,-1.920485 4.734979,-4.79266 5.583411,-8.002588 0.660909,-0.300914 1.256149,-0.757194 1.727172,-1.382923 0.935035,-1.242142 1.035838,-3.471298 0,-4.84804 a 3.0115789,3.0005382 0 0 0 0,-0.002 l -0.941024,-1.250099 a 3.0115789,3.0005382 0 0 0 -0.002,-0.002 l -0.942985,-1.2501 C 28.337625,9.4477225 26.868382,9.0000045 25.555468,9.0000045 c -1.312914,0 -2.782157,0.447718 -3.81899,1.8224105 l -0.942985,1.250099 a 3.0115789,3.0005382 0 0 0 -0.002,0.002 l -0.941024,1.250099 a 3.0115789,3.0005382 0 0 0 0,0.002 c -1.035838,1.376742 -0.935035,3.605898 0,4.84804 0.129089,0.171489 0.32603,0.234339 0.472472,0.380891 -0.366891,0.614874 -0.859027,1.156741 -1.472311,1.574343 -1.373489,0.935247 -3.10291,1.131925 -4.654148,0.529339 l 0.04705,0.01758 c -1.172805,-0.478007 -2.638144,-0.438132 -3.73077,0.109384 -1.092626,0.547516 -1.80519,1.444249 -2.187882,2.422067 -0.38269,0.977818 -0.467497,2.118146 -0.03529,3.258071 0.429684,1.133063 1.473242,2.140715 2.652555,2.584096 1.612823,0.622725 3.303038,0.93869 4.985468,0.949294 z"/>
   <path style="fill:#ff9932" d="m 15.927613,28.999714 c 0.560622,0.0035 1.126071,-0.02559 1.689923,-0.08985 2.237634,-0.254997 4.417218,-1.045757 6.332309,-2.349796 2.820395,-1.920485 4.734979,-4.79266 5.583411,-8.002588 0.660909,-0.300914 1.256149,-0.757194 1.727172,-1.382923 0.935035,-1.242142 1.035838,-3.471298 0,-4.84804 a 3.0115789,3.0005382 0 0 0 0,-0.002 l -0.941024,-1.250099 a 3.0115789,3.0005382 0 0 0 -0.002,-0.002 l -0.942985,-1.2501 C 28.337625,8.447718 26.868382,8 25.555468,8 24.242554,8 22.773311,8.447718 21.736478,9.822411 l -0.942985,1.250099 a 3.0115789,3.0005382 0 0 0 -0.002,0.002 l -0.941024,1.250099 a 3.0115789,3.0005382 0 0 0 0,0.002 c -1.035838,1.376742 -0.935035,3.605898 0,4.84804 0.129089,0.171489 0.32603,0.234339 0.472472,0.380891 -0.366891,0.614874 -0.859027,1.156741 -1.472311,1.574343 -1.373489,0.935247 -3.10291,1.131925 -4.654148,0.529339 l 0.04705,0.01758 c -1.172805,-0.478007 -2.638144,-0.438132 -3.73077,0.109384 -1.092626,0.547516 -1.80519,1.444249 -2.187882,2.422067 -0.38269,0.977818 -0.467497,2.118146 -0.03529,3.258071 0.429684,1.133063 1.473242,2.140715 2.652555,2.584096 1.612823,0.622725 3.303038,0.93869 4.985468,0.949294 z"/>
   <path style="opacity:0.2" d="M 17.072266,3 C 16.511644,2.99647 15.946665,3.0255878 15.382812,3.0898438 13.145179,3.344841 10.965872,4.1354146 9.0507812,5.4394531 6.2303866,7.3599378 4.3152294,10.233432 3.4667969,13.443359 2.805888,13.744273 2.2112573,14.200443 1.7402344,14.826172 c -0.93503502,1.242142 -1.03583802,3.470914 0,4.847656 a 3.0115789,3.0005382 0 0 0 0,0.002 l 0.9394531,1.25 a 3.0115789,3.0005382 0 0 0 0.00195,0.002 l 0.9433594,1.25 C 4.6618337,23.552333 6.1323984,24 7.4453125,24 8.7582266,24 10.226839,23.552427 11.263672,22.177734 l 0.943359,-1.25 a 3.0115789,3.0005382 0 0 0 0.002,-0.002 l 0.941407,-1.25 a 3.0115789,3.0005382 0 0 0 0,-0.002 c 1.035838,-1.376742 0.935035,-3.605514 0,-4.847656 -0.129089,-0.171489 -0.326215,-0.234307 -0.472657,-0.38086 0.366891,-0.614874 0.85742,-1.156616 1.470704,-1.574218 1.373488,-0.935247 3.103058,-1.133836 4.654296,-0.53125 l -0.04687,-0.01758 c 0.297303,0.121173 0.613438,0.206937 0.9375,0.261718 0.05276,-0.08577 0.09581,-0.177478 0.15625,-0.257812 v -0.002 l 0.941407,-1.25 0.002,-0.002 0.943359,-1.2500004 c 0.890065,-1.1800994 2.095069,-1.6524771 3.25,-1.7695312 -0.0054,-0.4974277 -0.08125,-1.0075016 -0.27539,-1.5195313 C 24.281253,5.4001411 23.237907,4.3925996 22.058594,3.9492188 20.445771,3.3264935 18.754696,3.0106042 17.072266,3 Z"/>
   <path style="fill:#ffda43" d="M 17.072375,2.0002858 C 16.511753,1.9967556 15.946304,2.0258809 15.382452,2.090137 13.144818,2.345134 10.965234,3.1358943 9.0501428,4.4399328 6.2297481,6.3604175 4.3151644,9.2325934 3.4667319,12.442521 2.805823,12.743435 2.210583,13.199715 1.7395601,13.825444 c -0.935035,1.242142 -1.035838,3.471298 0,4.84804 a 3.0115789,3.0005382 0 0 0 0,0.002 l 0.9410243,1.250099 a 3.0115789,3.0005382 0 0 0 0.00196,0.002 l 0.9429849,1.2501 C 4.662363,22.552282 6.1316059,23 7.44452,23 c 1.3129141,0 2.782157,-0.447718 3.81899,-1.822411 l 0.942985,-1.250099 a 3.0115789,3.0005382 0 0 0 0.002,-0.002 l 0.941024,-1.250099 a 3.0115789,3.0005382 0 0 0 0,-0.002 c 1.035838,-1.376742 0.935035,-3.605898 0,-4.84804 -0.129089,-0.171489 -0.32603,-0.234339 -0.472472,-0.380891 0.366891,-0.614874 0.859027,-1.156741 1.472311,-1.574343 1.373489,-0.935247 3.10291,-1.131925 4.654148,-0.529339 l -0.04705,-0.01758 c 1.172805,0.478007 2.638144,0.438132 3.73077,-0.109384 1.092626,-0.547516 1.80519,-1.4442495 2.187882,-2.4220673 0.38269,-0.9778178 0.467497,-2.1181455 0.03529,-3.2580712 C 24.280714,4.4006135 23.237156,3.3929609 22.057843,2.94958 20.44502,2.3268547 18.754805,2.01089 17.072375,2.0002858 Z"/>
   <path style="opacity:0.1" d="M 17.072266,6.0019576 C 16.630436,5.9991626 16.188236,6.0221457 15.75,6.0722701 13.997056,6.2727677 12.292011,6.893478 10.792969,7.9179733 8.0725613,9.77719 6.3576256,12.752311 6.0605469,16.000004 h -0.4375 a 1.6244921,1.250232 0 0 0 -1.40625,1.875 l 0.9375,1.25 0.9394531,1.25 a 1.6244921,1.250232 0 0 0 2.8125,0 l 0.9394531,-1.25 0.9374999,-1.25 a 1.6244921,1.250232 0 0 0 -1.4062499,-1.875 h -0.3125 C 9.3481147,13.742796 10.581445,11.696396 12.486328,10.394536 14.669114,8.9027473 17.44299,8.5864947 19.90625,9.5468795 a 1.50015,1.50015 0 1 0 1.089844,-2.7949219 c -1.268744,-0.4946627 -2.598339,-0.7416149 -3.923828,-0.75 z"/>
   <path style="fill:#3f3f3f" d="M 17.072266,5.0019531 C 16.630436,4.9991581 16.188236,5.0221412 15.75,5.0722656 13.997056,5.2727632 12.292011,5.8934735 10.792969,6.9179688 8.0725613,8.7771855 6.3576256,11.752307 6.0605469,15 h -0.4375 a 1.6244921,1.250232 0 0 0 -1.40625,1.875 l 0.9375,1.25 0.9394531,1.25 a 1.6244921,1.250232 0 0 0 2.8125,0 l 0.9394531,-1.25 0.9374999,-1.25 A 1.6244921,1.250232 0 0 0 9.3769531,15 h -0.3125 C 9.3481147,12.742792 10.581445,10.696392 12.486328,9.3945312 14.669114,7.9027428 17.44299,7.5864902 19.90625,8.546875 a 1.50015,1.50015 0 1 0 1.089844,-2.7949219 c -1.268744,-0.4946627 -2.598339,-0.7416149 -3.923828,-0.75 z"/>
   <path style="opacity:0.2;fill:#ffffff" d="M 17.072266,2 C 16.511644,1.99647 15.946664,2.025588 15.382812,2.089844 13.145179,2.3448407 10.965872,3.1354146 9.0507812,4.4394531 6.2303866,6.3599378 4.3152294,9.2334318 3.4667969,12.443359 2.805888,12.744273 2.2112573,13.200443 1.7402344,13.826172 1.167218,14.587392 0.91001218,15.717641 1.0332031,16.796875 1.1070624,16.05675 1.3443703,15.352055 1.7402344,14.826172 2.2112573,14.200443 2.805888,13.744273 3.4667969,13.443359 4.3152294,10.233431 6.2303866,7.3599378 9.0507812,5.4394531 10.965872,4.1354146 13.145179,3.3448407 15.382812,3.0898438 15.946664,3.0255876 16.511644,2.9964698 17.072266,3 c 1.68243,0.010604 3.373505,0.3264935 4.986328,0.9492188 1.179313,0.4433809 2.222659,1.4509223 2.652344,2.5839843 0.133803,0.3529016 0.202937,0.7045895 0.24414,1.0527344 0.07274,-0.6608972 0.02051,-1.3547376 -0.24414,-2.0527344 C 24.281253,4.4001411 23.237907,3.3925997 22.058594,2.9492188 20.445771,2.3264935 18.754696,2.0106042 17.072266,2 Z m -3.939454,11.810547 c -0.166201,0.201694 -0.321756,0.411331 -0.455078,0.634765 0.146442,0.146552 0.343568,0.209371 0.472657,0.38086 0.395864,0.525883 0.631218,1.230578 0.705078,1.970703 0.123191,-1.079234 -0.132062,-2.209483 -0.705078,-2.970703 -0.005,-0.0066 -0.01242,-0.0093 -0.01758,-0.01563 z"/>
   <path style="fill:#ff9932" d="m 31.260428,12.326517 v -0.002 l -0.941024,-1.250099 -0.002,-0.002 -0.942985,-1.2501 C 28.337625,8.447718 26.868382,8 25.555468,8 24.242554,8 22.773311,8.447718 21.736478,9.822411 l -0.942985,1.250099 -0.002,0.002 -0.941024,1.250099 v 0.002 z"/>
   <path style="opacity:0.1" d="m 15.927722,26.998051 c 0.44183,0.0028 0.88403,-0.02019 1.322266,-0.07031 1.752944,-0.200497 3.457989,-0.821208 4.957031,-1.845703 2.720408,-1.85922 4.435343,-4.834341 4.732422,-8.082034 h 0.4375 a 1.6244921,1.250232 0 0 0 1.40625,-1.875 l -0.9375,-1.25 -0.939453,-1.25 a 1.6244921,1.250232 0 0 0 -2.8125,0 l -0.939453,1.25 -0.9375,1.25 a 1.6244921,1.250232 0 0 0 1.40625,1.875 h 0.3125 c -0.283662,2.257208 -1.516992,4.303608 -3.421875,5.605469 -2.182786,1.491788 -4.956662,1.808041 -7.419922,0.847656 a 1.50015,1.50015 0 1 0 -1.089844,2.794922 c 1.268744,0.494663 2.598339,0.741615 3.923828,0.75 z"/>
   <path style="fill:#3f3f3f" d="m 15.927722,25.998047 c 0.44183,0.0028 0.88403,-0.02019 1.322266,-0.07031 1.752944,-0.200497 3.457989,-0.821208 4.957031,-1.845703 C 24.927427,22.222814 26.642362,19.247693 26.939441,16 h 0.4375 a 1.6244921,1.250232 0 0 0 1.40625,-1.875 l -0.9375,-1.25 -0.939453,-1.25 a 1.6244921,1.250232 0 0 0 -2.8125,0 l -0.939453,1.25 -0.9375,1.25 A 1.6244921,1.250232 0 0 0 23.623035,16 h 0.3125 c -0.283662,2.257208 -1.516992,4.303608 -3.421875,5.605469 -2.182786,1.491788 -4.956662,1.808041 -7.419922,0.847656 a 1.50015,1.50015 0 1 0 -1.089844,2.794922 c 1.268744,0.494663 2.598339,0.741615 3.923828,0.75 z"/>
  </g>
 </g>
 <g id="22-22-system-software-update" transform="translate(-54,-72)">
  <rect style="opacity:0.001" width="22" height="22" x="0" y="32"/>
  <path style="fill:#dfdfdf" d="m 11,35 c -4.4183,0 -8,3.5817 -8,8 0,4.418 3.5817,8 8,8 4.418,0 8,-3.582 8,-8 0,-4.4183 -3.582,-8 -8,-8 z m 0,2 c 1.495771,0 2.989091,0.560161 4.148438,1.671875 -0.370703,0.143824 -0.713602,0.377967 -0.976563,0.75 l -0.460937,0.654297 C 12.142097,38.621879 9.6974738,38.646276 8.171875,40.171875 7.3909653,40.952785 7.0040093,41.976417 7.0039062,43 h 0.296875 A 0.69923716,0.5746971 1.1588047e-6 0 1 7.90625,43.861328 l -0.6503906,0.925781 -0.6523438,0.925782 a 0.69923716,0.5746971 1.1588047e-6 0 1 -1.2089844,0 L 4.7441406,44.787109 4.09375,43.861328 A 0.69923716,0.5746971 1.1588047e-6 0 1 4.4921875,43.025391 0.69923716,0.5746971 1.1588047e-6 0 1 4.6972656,43 H 5.0019531 C 5.0020237,41.464515 5.5863637,39.929261 6.7578125,38.757812 7.9293912,37.586234 9.464469,37 11,37 Z m 4.962891,3.001953 a 0.69923716,0.5746971 1.1588047e-6 0 1 0.642578,0.285156 l 0.65039,0.925782 0.650391,0.925781 A 0.69923716,0.5746971 1.1588047e-6 0 1 17.507812,42.974609 0.69923716,0.5746971 1.1588047e-6 0 1 17.302734,43 h -0.304687 c -7.1e-5,1.535485 -0.584412,3.070735 -1.755859,4.242188 C 14.070609,48.413764 12.535531,49 11,49 9.5050912,49 8.0125771,48.440509 6.8535156,47.330078 c 0.363732,-0.140945 0.7082551,-0.373476 0.9746094,-0.75 v -0.002 l 0.4609375,-0.654297 c 1.5688391,1.454293 4.0134635,1.429896 5.5390625,-0.0957 C 14.609035,45.047215 14.995991,44.023583 14.996094,43 H 14.699219 A 0.69923716,0.5746971 1.1588047e-6 0 1 14.09375,42.138672 l 0.650391,-0.925781 0.652343,-0.925782 a 0.69923716,0.5746971 1.1588047e-6 0 1 0.566407,-0.285156 z"/>
 </g>
 <g id="22-22-system-shutdown" transform="translate(-15,-45)">
  <rect style="opacity:0.001" width="22" height="22" x="5" y="5"/>
  <path style="fill:#dfdfdf" d="M 15.985352,7.9999031 A 1.0001,0.9966092 0 0 0 15,9.0096686 V 14.98916 a 1.0001,0.9966092 0 1 0 2,0 V 9.0096686 A 1.0001,0.9966092 0 0 0 15.985352,7.9999031 Z m -3.356446,2.0009759 a 1.0001608,1.0010221 0 0 0 -0.533203,0.176758 c -2.5474257,1.713274 -3.6839537,4.900139 -2.7968747,7.840821 0.8870797,2.940681 3.5949607,4.965361 6.6640627,4.981445 3.069102,0.01609 5.798998,-1.979911 6.716797,-4.911133 0.917799,-2.931224 -0.185483,-6.129262 -2.714843,-7.869141 a 1.0001608,1.0010221 0 1 0 -1.132814,1.648437 c 1.812622,1.246854 2.597178,3.521463 1.939454,5.622071 -0.657724,2.100608 -2.598436,3.519339 -4.797852,3.507813 -2.199416,-0.01152 -4.124056,-1.450231 -4.759766,-3.557618 -0.635709,-2.107387 0.171503,-4.373776 1.997071,-5.601563 a 1.0001608,1.0010221 0 0 0 -0.582032,-1.83789 z"/>
 </g>
 <g id="22-22-system-reboot" transform="translate(7,-45)">
  <rect style="opacity:0.001" width="22" height="22" x="5" y="5"/>
  <path style="fill:#dfdfdf" d="m 16.015625,9 a 1.0001,1.0001 0 1 0 -0.0039,2 c 1.397778,0.0024 2.730544,0.589407 3.675775,1.619141 0.850536,0.926572 1.310887,2.133499 1.310547,3.380859 h -1.994141 l 1.5,2 1.5,2 1.5,-2 1.5,-2 H 22.998047 C 22.997824,14.254653 22.349711,12.561524 21.160156,11.265625 19.837636,9.824874 17.971338,9.003413 16.015625,9 Z M 10,12 8.5,14 7,16 h 2.0058594 c 2.232e-4,1.745347 0.6483363,3.438476 1.8378906,4.734375 1.32252,1.440752 3.188818,2.262212 5.144531,2.265625 a 1.0001,1.0001 0 1 0 0.0039,-2 C 14.594406,20.99756 13.261637,20.410593 12.316406,19.380859 11.46587,18.454287 11.005519,17.24736 11.005859,16 H 13 l -1.5,-2 z"/>
 </g>
 <g id="22-22-system-save-session" transform="translate(-37,-45)">
  <rect style="opacity:0.001" width="22" height="22" x="5" y="5"/>
  <path style="fill:#dfdfdf" d="m 10,9.0000001 c -0.55,0 -1,0.45 -1,0.9999999 v 11 l 1.999999,2 H 22 c 0.55,0 1,-0.45 1,-1 V 10 C 23,9.45 22.55,9 22,9 Z M 10.999999,11 H 21 v 10 h -1 v -5 h -8.000001 v 5 h -1 z M 16,17 h 2 v 4 h -2 z"/>
 </g>
 <g id="22-22-system-suspend" transform="translate(29,-45)">
  <rect style="opacity:0.001" width="22" height="22" x="5" y="5"/>
  <path style="fill:#dfdfdf" d="m 16,9 a 7,7 0 0 0 -7,7 7,7 0 0 0 7,7 7,7 0 0 0 7,-7 7,7 0 0 0 -7,-7 z m 0,2 a 5,5 0 0 1 5,5 5,5 0 0 1 -5,5 5,5 0 0 1 -5,-5 5,5 0 0 1 5,-5 z m -1.990234,4 a 0.99537445,1.0001 0 1 0 0,2 h 3.980469 a 0.99537445,1.0001 0 1 0 0,-2 z"/>
 </g>
 <g id="22-22-system-suspend-hibernate" transform="translate(51,-45)">
  <rect style="opacity:0.001" width="22" height="22" x="5" y="5"/>
  <path style="fill:#dfdfdf" d="m 16,9 a 7,7 0 0 0 -7,7 7,7 0 0 0 7,7 7,7 0 0 0 7,-7 7,7 0 0 0 -7,-7 z m 0,2 a 5,5 0 0 1 5,5 5,5 0 0 1 -5,5 5,5 0 0 1 -5,-5 5,5 0 0 1 5,-5 z m 0,3 a 1.9999998,1.9999998 0 0 0 -2,2 1.9999998,1.9999998 0 0 0 2,2 1.9999998,1.9999998 0 0 0 2,-2 1.9999998,1.9999998 0 0 0 -2,-2 z"/>
 </g>
 <g id="22-22-system-log-out" transform="translate(73,-45)">
  <rect style="opacity:0.001" width="22" height="22" x="5" y="5"/>
  <path style="fill:#dfdfdf" d="m 15.818271,9.0027023 c -0.209035,0.00578 -0.417466,0.020695 -0.625,0.044925 -1.660273,0.193856 -3.251137,0.9749297 -4.431641,2.3047377 -2.3610069,2.659615 -2.3473049,6.687193 0.03223,9.330277 2.379537,2.643085 6.387181,3.083813 9.284179,1.019553 1.089858,-0.774228 -0.07499,-2.406614 -1.163085,-1.629917 -2.080767,1.482652 -4.922736,1.171814 -6.631836,-0.726578 -1.7091,-1.898394 -1.719229,-4.754915 -0.02343,-6.665182 1.69579,-1.910265 4.535876,-2.242535 6.626953,-0.774431 1.09802,0.801101 2.278302,-0.875336 1.152343,-1.636754 C 18.765266,9.3750786 17.281519,8.962265 15.818281,9.0027023 Z m 4.18164,3.4971457 v 2.500054 h -3 c -0.552285,0 -1,0.447725 -1,1.000021 0,0.552296 0.447715,1.000021 1,1.000021 h 3 v 2.500054 l 4.5,-3.500075 z"/>
 </g>
 <g id="22-22-system-lock-screen" transform="translate(95,-45)">
  <rect style="opacity:0.001" width="22" height="22" x="5" y="5"/>
  <path style="fill:#dfdfdf" d="m 16,9 c -2.216,0 -4,1.784 -4,4 v 2 h -1 c -0.554,0 -1,0.446 -1,1 v 6 c 0,0.554 0.446,1 1,1 h 10 c 0.554,0 1,-0.446 1,-1 v -6 c 0,-0.554 -0.446,-1 -1,-1 H 20 V 13 C 20,10.784 18.216,9 16,9 Z m 0,2 c 1.108,0 2,0.892 2,2 v 2 h -4 v -2 c 0,-1.108 0.892,-2 2,-2 z"/>
 </g>
 <g id="22-22-system-switch-user" transform="translate(117,-45)">
  <rect style="opacity:0.001" width="22" height="22" x="5" y="5"/>
  <path style="fill:#dfdfdf" d="m 20,9.0000884 c -0.504781,0 -1.00956,0.337357 -1,1.0117176 v 7.988282 h -2.5 l 3.5,4.5 3.5,-4.5 H 21 V 10.011806 C 21.0096,9.3374454 20.504781,9.0000884 20,9.0000884 Z m -8,0.5 -3.4999998,4.4999996 H 11 v 7.988281 c -0.01913,1.348723 2.019125,1.348723 2,0 v -7.988281 h 2.5 z"/>
 </g>
 <g id="32-32-system-shutdown">
  <rect style="opacity:0.001" width="32" height="32" x="0" y="0"/>
  <circle style="opacity:0.2" cx="16.5" cy="16.5" r="14.5"/>
  <circle style="fill:#f44336" cx="16.5" cy="15.5" r="14.5"/>
  <path style="opacity:0.2" d="M 16.476562,5 A 1.50015,1.4947898 0 0 0 15,6.515625 v 8.96875 a 1.50015,1.4947898 0 1 0 3,0 V 6.515625 A 1.50015,1.4947898 0 0 0 16.476562,5 Z M 11.490234,7.5 A 1.5003103,1.499483 0 0 0 10.689453,7.7617188 C 6.8435316,10.315534 5.1165042,15.101284 6.4433594,19.521484 7.7702145,23.941685 11.84553,26.983891 16.462891,27 c 4.61736,0.01611 8.71652,-2.997369 10.074218,-7.408203 1.3577,-4.410836 -0.338025,-9.208475 -4.166015,-11.7890626 a 1.5003103,1.499483 0 1 0 -1.677735,2.4863286 c 2.743355,1.849395 3.947614,5.258866 2.97461,8.419921 -0.973004,3.161055 -3.884296,5.304514 -7.19336,5.292969 -3.309063,-0.01155 -6.207302,-2.175983 -7.1582028,-5.34375 -0.9508998,-3.167767 0.2769976,-6.566276 3.0332028,-8.396484 A 1.5003103,1.499483 0 0 0 11.490234,7.5 Z"/>
  <path style="fill:#ffffff" d="M 16.476562,4 A 1.50015,1.4947898 0 0 0 15,5.515625 v 8.96875 a 1.50015,1.4947898 0 1 0 3,0 V 5.515625 A 1.50015,1.4947898 0 0 0 16.476562,4 Z M 11.490234,6.5 A 1.5003103,1.499483 0 0 0 10.689453,6.7617188 C 6.8435316,9.3155336 5.1165042,14.101284 6.4433594,18.521484 7.7702145,22.941685 11.84553,25.983891 16.462891,26 c 4.61736,0.01611 8.71652,-2.997369 10.074218,-7.408203 1.3577,-4.410836 -0.338025,-9.2084754 -4.166015,-11.7890626 a 1.5003103,1.499483 0 1 0 -1.677735,2.4863281 c 2.743355,1.8493955 3.947614,5.2588665 2.97461,8.4199215 -0.973004,3.161055 -3.884296,5.304514 -7.19336,5.292969 C 13.165546,22.990403 10.267307,20.82597 9.3164062,17.658203 8.3655064,14.490436 9.5934038,11.091927 12.349609,9.2617188 A 1.5003103,1.499483 0 0 0 11.490234,6.5 Z"/>
  <path style="opacity:0.2;fill:#ffffff" d="M 16.5,1 A 14.5,14.5 0 0 0 2,15.5 14.5,14.5 0 0 0 2.0214844,16.080078 14.5,14.5 0 0 1 16.5,2 14.5,14.5 0 0 1 30.978516,15.919922 14.5,14.5 0 0 0 31,15.5 14.5,14.5 0 0 0 16.5,1 Z"/>
 </g>
 <g id="32-32-system-save-session" transform="translate(-32)">
  <rect style="opacity:0.001" width="32" height="32" x="0" y="0"/>
  <rect style="opacity:0.2" width="29" height="29" x="2" y="2" rx="8.7" ry="8.7"/>
  <rect style="fill:#e91e63" width="29" height="29" x="2" y="1" rx="8.7" ry="8.7"/>
  <path style="opacity:0.2" d="M 7.5,6 C 6.675,6 6,6.675 6,7.5 V 24 l 3,3 H 25.5 C 26.325,27 27,26.325 27,25.5 V 7.5 C 27,6.675 26.325,6 25.5,6 Z M 9,9 H 24 V 24 H 22 V 16 H 11 v 8 H 9 Z m 8,9 h 3 v 6 h -3 z"/>
  <path style="fill:#ffffff" d="M 7.5,5 C 6.675,5 6,5.675 6,6.5 V 23 l 3,3 H 25.5 C 26.325,26 27,25.325 27,24.5 V 6.5 C 27,5.675 26.325,5 25.5,5 Z M 9,8 H 24 V 23 H 22 V 15 H 11 v 8 H 9 Z m 8,9 h 3 v 6 h -3 z"/>
  <path style="opacity:0.2;fill:#ffffff" d="M 10.699219,1 C 5.8794189,1 2,4.8794189 2,9.6992188 V 10.699219 C 2,5.8794189 5.8794189,2 10.699219,2 H 22.300781 C 27.120581,2 31,5.8794189 31,10.699219 V 9.6992188 C 31,4.8794189 27.120581,1 22.300781,1 Z"/>
 </g>
 <g id="32-32-system-reboot" transform="translate(32)">
  <rect style="opacity:0.001" width="32" height="32" x="0" y="0"/>
  <circle style="opacity:0.2" cx="16.5" cy="16.5" r="14.5"/>
  <circle style="fill:#ff9800" cx="16.5" cy="15.5" r="14.5"/>
  <path style="opacity:0.2" d="m 16.470703,6.9998104 c -1.961062,-0.02773 -1.961062,3.0023416 0,2.97461 1.909924,0 3.771324,0.8349356 5.011719,2.2871096 0.906277,1.061009 1.430052,2.37312 1.533203,3.738281 H 20 l 2.25,3 2.25,3 2.25,-3 2.25,-3 H 25.910156 C 25.802358,13.948772 25.044479,11.967379 23.6875,10.378716 21.897237,8.2827944 19.227294,6.9998104 16.470703,6.9998104 Z M 8.5,10.999811 l -2.25,3 -2.25,3 h 3.089844 c 0.107798,2.051039 0.865676,4.032433 2.222656,5.621094 1.790263,2.095922 4.460206,3.378906 7.216797,3.378906 1.961062,0.02773 1.961062,-3.002341 0,-2.974609 -1.909923,0 -3.771324,-0.834937 -5.011719,-2.28711 -0.906277,-1.061009 -1.430052,-2.37312 -1.533203,-3.738281 H 13 l -2.25,-3 z"/>
  <path style="fill:#ffffff" d="m 16.470703,5.9998106 c -1.961062,-0.02773 -1.961062,3.002342 0,2.97461 1.909924,0 3.771324,0.834936 5.011719,2.2871094 0.906277,1.061009 1.430052,2.37312 1.533203,3.738281 H 20 l 2.25,3 2.25,3 2.25,-3 2.25,-3 H 25.910156 C 25.802358,12.948772 25.044479,10.967379 23.6875,9.3787166 21.897237,7.2827946 19.227294,5.9998106 16.470703,5.9998106 Z M 8.5,9.9998108 6.25,12.999811 l -2.25,3 h 3.089844 c 0.107798,2.051039 0.865676,4.032433 2.222656,5.621094 1.790263,2.095922 4.460206,3.378906 7.216797,3.378906 1.961062,0.02773 1.961062,-3.002341 0,-2.974609 -1.909923,0 -3.771324,-0.834937 -5.011719,-2.28711 -0.906277,-1.061009 -1.430052,-2.37312 -1.533203,-3.738281 H 13 l -2.25,-3 z"/>
  <path style="opacity:0.2;fill:#ffffff" d="M 16.5,1 A 14.5,14.5 0 0 0 2,15.5 14.5,14.5 0 0 0 2.0214844,16.080078 14.5,14.5 0 0 1 16.5,2 14.5,14.5 0 0 1 30.978516,15.919922 14.5,14.5 0 0 0 31,15.5 14.5,14.5 0 0 0 16.5,1 Z"/>
 </g>
 <g id="32-32-system-suspend" transform="translate(64)">
  <rect style="opacity:0.001" width="32" height="32" x="0" y="0"/>
  <circle style="opacity:0.2" cx="16.5" cy="16.5" r="14.5"/>
  <circle style="fill:#00bcd4" cx="16.5" cy="15.5" r="14.5"/>
  <path style="opacity:0.2" d="M 16.5,6 A 10.5,10.5 0 0 0 6,16.5 10.5,10.5 0 0 0 16.5,27 10.5,10.5 0 0 0 27,16.5 10.5,10.5 0 0 0 16.5,6 Z m 0,3 A 7.5,7.5 0 0 1 24,16.5 7.5,7.5 0 0 1 16.5,24 7.5,7.5 0 0 1 9,16.5 7.5,7.5 0 0 1 16.5,9 Z m -2.984375,6 a 1.4932186,1.50015 0 1 0 0,3 h 5.970703 a 1.4932186,1.50015 0 1 0 0,-3 z"/>
  <path style="fill:#ffffff" d="M 16.5,5 A 10.5,10.5 0 0 0 6,15.5 10.5,10.5 0 0 0 16.5,26 10.5,10.5 0 0 0 27,15.5 10.5,10.5 0 0 0 16.5,5 Z m 0,3 A 7.5,7.5 0 0 1 24,15.5 7.5,7.5 0 0 1 16.5,23 7.5,7.5 0 0 1 9,15.5 7.5,7.5 0 0 1 16.5,8 Z m -2.984375,6 a 1.4932186,1.50015 0 1 0 0,3 h 5.970703 a 1.4932186,1.50015 0 1 0 0,-3 z"/>
  <path style="opacity:0.2;fill:#ffffff" d="M 16.5,1 A 14.5,14.5 0 0 0 2,15.5 14.5,14.5 0 0 0 2.0214844,16.080078 14.5,14.5 0 0 1 16.5,2 14.5,14.5 0 0 1 30.978516,15.919922 14.5,14.5 0 0 0 31,15.5 14.5,14.5 0 0 0 16.5,1 Z"/>
 </g>
 <g id="32-32-system-suspend-hibernate" transform="translate(96)">
  <rect style="opacity:0.001" width="32" height="32" x="0" y="0"/>
  <circle style="opacity:0.2" cx="16.5" cy="16.5" r="14.5"/>
  <circle style="fill:#673ab7" cx="16.5" cy="15.5" r="14.5"/>
  <path style="opacity:0.2" d="M 16.5,6 A 10.5,10.5 0 0 0 6,16.5 10.5,10.5 0 0 0 16.5,27 10.5,10.5 0 0 0 27,16.5 10.5,10.5 0 0 0 16.5,6 Z m 0,3 A 7.5,7.5 0 0 1 24,16.5 7.5,7.5 0 0 1 16.5,24 7.5,7.5 0 0 1 9,16.5 7.5,7.5 0 0 1 16.5,9 Z m 0,4 A 3.4999998,3.4999998 0 0 0 13,16.5 3.4999998,3.4999998 0 0 0 16.5,20 3.4999998,3.4999998 0 0 0 20,16.5 3.4999998,3.4999998 0 0 0 16.5,13 Z"/>
  <path style="fill:#ffffff" d="M 16.5,5 A 10.5,10.5 0 0 0 6,15.5 10.5,10.5 0 0 0 16.5,26 10.5,10.5 0 0 0 27,15.5 10.5,10.5 0 0 0 16.5,5 Z m 0,3 A 7.5,7.5 0 0 1 24,15.5 7.5,7.5 0 0 1 16.5,23 7.5,7.5 0 0 1 9,15.5 7.5,7.5 0 0 1 16.5,8 Z m 0,4 A 3.4999998,3.4999998 0 0 0 13,15.5 3.4999998,3.4999998 0 0 0 16.5,19 3.4999998,3.4999998 0 0 0 20,15.5 3.4999998,3.4999998 0 0 0 16.5,12 Z"/>
  <path style="opacity:0.1;fill:#ffffff" d="M 16.5,1 A 14.5,14.5 0 0 0 2,15.5 14.5,14.5 0 0 0 2.0214844,16.080078 14.5,14.5 0 0 1 16.5,2 14.5,14.5 0 0 1 30.978516,15.919922 14.5,14.5 0 0 0 31,15.5 14.5,14.5 0 0 0 16.5,1 Z"/>
 </g>
 <g id="32-32-system-lock-screen" transform="translate(160)">
  <rect style="opacity:0.001" width="32" height="32" x="0" y="0"/>
  <rect style="opacity:0.2" width="29" height="29" x="2" y="2" rx="8.7" ry="8.7"/>
  <rect style="fill:#ff5722" width="29" height="29" x="2" y="1" rx="8.7" ry="8.7"/>
  <path style="opacity:0.2" d="M 16.5,6 C 12.991333,6 10,8.676 10,12 v 3 H 8.5833333 C 7.7061667,15 7,15.669 7,16.5 v 9 C 7,26.331 7.7061667,27 8.5833333,27 H 24.416667 C 25.293833,27 26,26.331 26,25.5 v -9 C 26,15.669 25.293833,15 24.416667,15 H 23 V 12 C 23,8.676 20.008667,6 16.5,6 Z m 0,3 c 1.754333,0 3.683537,1.348165 3.5,3 v 3 h -7 v -3 c 0,-1.662 1.745667,-3 3.5,-3 z"/>
  <path style="fill:#ffffff" d="M 16.5,5 C 12.991333,5 10,7.676 10,11 v 3 H 8.5833333 C 7.7061667,14 7,14.669 7,15.5 v 9 C 7,25.331 7.7061667,26 8.5833333,26 H 24.416667 C 25.293833,26 26,25.331 26,24.5 v -9 C 26,14.669 25.293833,14 24.416667,14 H 23 V 11 C 23,7.676 20.008667,5 16.5,5 Z m 0,3 c 1.754333,0 3.683537,1.3481652 3.5,3 v 3 h -7 v -3 c 0,-1.662 1.745667,-3 3.5,-3 z"/>
  <path style="opacity:0.2;fill:#ffffff" d="M 10.699219,1 C 5.8794189,1 2,4.8794189 2,9.6992188 V 10.699219 C 2,5.8794189 5.8794189,2 10.699219,2 H 22.300781 C 27.120581,2 31,5.8794189 31,10.699219 V 9.6992188 C 31,4.8794189 27.120581,1 22.300781,1 Z"/>
 </g>
 <g id="32-32-system-switch-user" transform="translate(192)">
  <rect style="opacity:0.001" width="32" height="32" x="0" y="0"/>
  <rect style="opacity:0.2" width="29" height="29" x="2" y="2" rx="8.7" ry="8.7"/>
  <rect style="fill:#3f51b5" width="29" height="29" x="2" y="1" rx="8.7" ry="8.7"/>
  <path style="opacity:0.2" d="M 21.5,6 C 20.74317,6 19.98634,6.4904746 20,7.4707031 V 20 h -3.5 l 5,6.5 5,-6.5 H 23 V 7.4707031 C 23.013661,6.4904746 22.25683,6 21.5,6 Z m -10,0.5 -5,6.5 H 10 v 12.529297 c -0.02732,1.960457 3.027321,1.960457 3,0 V 13 h 3.5 z"/>
  <path style="fill:#ffffff" d="M 21.5,5 C 20.74317,5 19.98634,5.4904746 20,6.4707031 V 19 h -3.5 l 5,6.5 5,-6.5 H 23 V 6.4707031 C 23.013661,5.4904746 22.25683,5 21.5,5 Z m -10,0.5 -5,6.5 H 10 v 12.529297 c -0.02732,1.960457 3.027321,1.960457 3,0 V 12 h 3.5 z"/>
  <path style="opacity:0.1;fill:#ffffff" d="M 10.699219,1 C 5.8794189,1 2,4.8794189 2,9.6992188 V 10.699219 C 2,5.8794189 5.8794189,2 10.699219,2 H 22.300781 C 27.120581,2 31,5.8794189 31,10.699219 V 9.6992188 C 31,4.8794189 27.120581,1 22.300781,1 Z"/>
 </g>
 <g id="32-32-system-log-out" transform="translate(128)">
  <rect style="opacity:0.001" width="32" height="32" x="0" y="0"/>
  <circle style="opacity:0.2" cx="16.5" cy="16.5" r="14.5"/>
  <circle style="fill:#4caf50" cx="16.5" cy="15.5" r="14.5"/>
  <path style="opacity:0.2" d="m 16.039062,6.0097656 c -0.308704,0.0135 -0.615761,0.041602 -0.921874,0.082031 C 12.668283,6.4152341 10.331073,7.5952328 8.5996094,9.5703125 5.1366807,13.520472 5.1318549,19.457859 8.5878906,23.414062 12.043927,27.370265 17.923767,28.158256 22.296875,25.25 a 1.5003306,1.501761 0 1 0 -1.660156,-2.501953 c -3.140123,2.088281 -7.3094,1.532168 -9.791016,-1.308594 -2.4816155,-2.840762 -2.4768388,-7.052248 0.0098,-9.888672 2.486566,-2.8364213 6.656492,-3.3867322 9.792969,-1.292968 A 1.4997883,1.5012181 0 1 0 22.3125,7.7597656 c -1.911018,-1.2757024 -4.112508,-1.8444976 -6.273438,-1.75 z M 23,11.25 V 15 h -5.5 c -0.828427,0 -1.5,0.671555 -1.5,1.5 0,0.828445 0.671573,1.5 1.5,1.5 H 23 v 3.75 l 6.5,-5.25 z"/>
  <path style="fill:#ffffff" d="m 16.039062,5.0097656 c -0.308704,0.0135 -0.615761,0.041602 -0.921874,0.082031 C 12.668283,5.4152341 10.331073,6.5952328 8.5996094,8.5703125 5.1366807,12.520472 5.1318549,18.457859 8.5878906,22.414062 12.043927,26.370265 17.923767,27.158256 22.296875,24.25 a 1.5003306,1.501761 0 1 0 -1.660156,-2.501953 c -3.140123,2.088281 -7.3094,1.532168 -9.791016,-1.308594 -2.4816155,-2.840762 -2.4768388,-7.052248 0.0098,-9.888672 2.486566,-2.8364213 6.656492,-3.3867322 9.792969,-1.2929685 A 1.4997883,1.5012181 0 1 0 22.3125,6.7597656 c -1.911018,-1.2757024 -4.112508,-1.8444976 -6.273438,-1.75 z M 23,10.25 V 14 h -5.5 c -0.828427,0 -1.5,0.671555 -1.5,1.5 0,0.828445 0.671573,1.5 1.5,1.5 H 23 v 3.75 l 6.5,-5.25 z"/>
  <path style="opacity:0.2;fill:#ffffff" d="M 16.5,1 A 14.5,14.5 0 0 0 2,15.5 14.5,14.5 0 0 0 2.0214844,16.080078 14.5,14.5 0 0 1 16.5,2 14.5,14.5 0 0 1 30.978516,15.919922 14.5,14.5 0 0 0 31,15.5 14.5,14.5 0 0 0 16.5,1 Z"/>
 </g>
 <g id="system-shutdown" transform="matrix(2,0,0,2,61.000299,55.000161)">
  <rect style="opacity:0.001" width="32" height="32" x=".5" y="-.5"/>
  <circle style="opacity:0.2" cx="16.5" cy="16" r="14.5"/>
  <circle style="fill:#f44336" cx="16.5" cy="15.5" r="14.5"/>
  <path style="opacity:0.2" d="M 16.476562,4.5 A 1.50015,1.4947898 0 0 0 15,6.015625 v 8.96875 a 1.50015,1.4947898 0 1 0 3,0 V 6.015625 A 1.50015,1.4947898 0 0 0 16.476562,4.5 Z M 11.490234,7 A 1.5003103,1.499483 0 0 0 10.689453,7.2617188 C 6.8435316,9.815534 5.1165042,14.601284 6.4433594,19.021484 7.7702145,23.441685 11.84553,26.483891 16.462891,26.5 c 4.61736,0.01611 8.71652,-2.997369 10.074218,-7.408203 1.3577,-4.410836 -0.338025,-9.208475 -4.166015,-11.7890626 A 1.5003103,1.499483 0 1 0 20.693359,9.789063 c 2.743355,1.849395 3.947614,5.258866 2.97461,8.419921 -0.973004,3.161055 -3.884296,5.304514 -7.19336,5.292969 C 13.165546,23.490403 10.267307,21.32597 9.3164062,18.158203 8.3655064,14.990436 9.5934038,11.591927 12.349609,9.761719 A 1.5003103,1.499483 0 0 0 11.490234,7 Z"/>
  <path style="fill:#ffffff" d="M 16.476562,4 A 1.50015,1.4947898 0 0 0 15,5.515625 v 8.96875 a 1.50015,1.4947898 0 1 0 3,0 V 5.515625 A 1.50015,1.4947898 0 0 0 16.476562,4 Z M 11.490234,6.5 A 1.5003103,1.499483 0 0 0 10.689453,6.7617188 C 6.8435316,9.3155336 5.1165042,14.101284 6.4433594,18.521484 7.7702145,22.941685 11.84553,25.983891 16.462891,26 c 4.61736,0.01611 8.71652,-2.997369 10.074218,-7.408203 1.3577,-4.410836 -0.338025,-9.2084754 -4.166015,-11.7890626 a 1.5003103,1.499483 0 1 0 -1.677735,2.4863281 c 2.743355,1.8493955 3.947614,5.2588665 2.97461,8.4199215 -0.973004,3.161055 -3.884296,5.304514 -7.19336,5.292969 C 13.165546,22.990403 10.267307,20.82597 9.3164062,17.658203 8.3655064,14.490436 9.5934038,11.091927 12.349609,9.2617188 A 1.5003103,1.499483 0 0 0 11.490234,6.5 Z"/>
  <path style="opacity:0.2;fill:#ffffff" transform="matrix(0.5,0,0,0.5,-64,67.5)" d="m 161,-133 a 29,29 0 0 0 -29,29 29,29 0 0 0 0.0176,0.48828 A 29,29 0 0 1 161,-132 29,29 0 0 1 189.97461,-103.50586 29,29 0 0 0 190,-104 29,29 0 0 0 161,-133 Z"/>
 </g>
 <g id="system-save-session" transform="matrix(2,0,0,2,-2.999701,55.000161)">
  <rect style="opacity:0.001" width="32" height="32" x=".5" y="-.5"/>
  <rect style="opacity:0.2" width="29" height="29" x="2" y="1.5" rx="8.7" ry="8.7"/>
  <rect style="fill:#e91e63" width="29" height="29" x="2" y="1" rx="8.7" ry="8.7"/>
  <path style="opacity:0.2" d="M 7.5,5.5 C 6.675,5.5 6,6.175 6,7 v 16.5 l 3,3 H 25.5 C 26.325,26.5 27,25.825 27,25 V 7 C 27,6.175 26.325,5.5 25.5,5.5 Z m 1.5,3 h 15 v 15 h -2 v -8 H 11 v 8 H 9 Z m 8,9 h 3 v 6 h -3 z"/>
  <path style="fill:#ffffff" d="M 7.5,5 C 6.675,5 6,5.675 6,6.5 V 23 l 3,3 H 25.5 C 26.325,26 27,25.325 27,24.5 V 6.5 C 27,5.675 26.325,5 25.5,5 Z M 9,8 H 24 V 23 H 22 V 15 H 11 v 8 H 9 Z m 8,9 h 3 v 6 h -3 z"/>
  <path style="opacity:0.2;fill:#ffffff" transform="matrix(0.5,0,0,0.5,-32,67.5)" d="M 85.398438,-133 C 75.758837,-133 68,-125.24116 68,-115.60156 v 1 C 68,-124.24116 75.758837,-132 85.398438,-132 h 23.203122 c 9.6396,0 17.39844,7.75884 17.39844,17.39844 v -1 C 126,-125.24116 118.24116,-133 108.60156,-133 Z"/>
 </g>
 <g id="system-reboot" transform="matrix(2,0,0,2,125.0003,55.000161)">
  <rect style="opacity:0.001" width="32" height="32" x=".5" y="-.5"/>
  <circle style="opacity:0.2" cx="16.5" cy="16" r="14.5"/>
  <circle style="fill:#ff9800" cx="16.5" cy="15.5" r="14.5"/>
  <path style="opacity:0.2" d="m 16.470703,6.4998104 c -1.961062,-0.02773 -1.961062,3.0023416 0,2.97461 1.909924,0 3.771324,0.8349356 5.011719,2.2871096 0.906277,1.061009 1.430052,2.37312 1.533203,3.738281 H 20 l 2.25,3 2.25,3 2.25,-3 2.25,-3 H 25.910156 C 25.802358,13.448772 25.044479,11.467379 23.6875,9.878716 21.897237,7.7827944 19.227294,6.4998104 16.470703,6.4998104 Z M 8.5,10.499811 l -2.25,3 -2.25,3 h 3.089844 c 0.107798,2.051039 0.865676,4.032433 2.222656,5.621094 1.790263,2.095922 4.460206,3.378906 7.216797,3.378906 1.961062,0.02773 1.961062,-3.002341 0,-2.974609 -1.909923,0 -3.771324,-0.834937 -5.011719,-2.28711 -0.906277,-1.061009 -1.430052,-2.37312 -1.533203,-3.738281 H 13 l -2.25,-3 z"/>
  <path style="fill:#ffffff" d="m 16.470703,5.9998106 c -1.961062,-0.02773 -1.961062,3.002342 0,2.97461 1.909924,0 3.771324,0.834936 5.011719,2.2871094 0.906277,1.061009 1.430052,2.37312 1.533203,3.738281 H 20 l 2.25,3 2.25,3 2.25,-3 2.25,-3 H 25.910156 C 25.802358,12.948772 25.044479,10.967379 23.6875,9.3787166 21.897237,7.2827946 19.227294,5.9998106 16.470703,5.9998106 Z M 8.5,9.9998108 6.25,12.999811 l -2.25,3 h 3.089844 c 0.107798,2.051039 0.865676,4.032433 2.222656,5.621094 1.790263,2.095922 4.460206,3.378906 7.216797,3.378906 1.961062,0.02773 1.961062,-3.002341 0,-2.974609 -1.909923,0 -3.771324,-0.834937 -5.011719,-2.28711 -0.906277,-1.061009 -1.430052,-2.37312 -1.533203,-3.738281 H 13 l -2.25,-3 z"/>
  <path style="opacity:0.2;fill:#ffffff" transform="matrix(0.5,0,0,0.5,-96,67.5)" d="m 225,-133 a 29,29 0 0 0 -29,29 29,29 0 0 0 0.0176,0.48828 A 29,29 0 0 1 225,-132 29,29 0 0 1 253.97461,-103.50586 29,29 0 0 0 254,-104 29,29 0 0 0 225,-133 Z"/>
 </g>
 <g id="system-suspend" transform="matrix(2,0,0,2,189.0003,55.000161)">
  <rect style="opacity:0.001" width="32" height="32" x=".5" y="-.5"/>
  <circle style="opacity:0.2" cx="16.5" cy="16" r="14.5"/>
  <circle style="fill:#00bcd4" cx="16.5" cy="15.5" r="14.5"/>
  <path style="opacity:0.2" d="M 16.5,5.5 A 10.5,10.5 0 0 0 6,16 10.5,10.5 0 0 0 16.5,26.5 10.5,10.5 0 0 0 27,16 10.5,10.5 0 0 0 16.5,5.5 Z m 0,3 A 7.5,7.5 0 0 1 24,16 7.5,7.5 0 0 1 16.5,23.5 7.5,7.5 0 0 1 9,16 7.5,7.5 0 0 1 16.5,8.5 Z m -2.984375,6 a 1.4932186,1.50015 0 1 0 0,3 h 5.970703 a 1.4932186,1.50015 0 1 0 0,-3 z"/>
  <path style="fill:#ffffff" d="M 16.5,5 A 10.5,10.5 0 0 0 6,15.5 10.5,10.5 0 0 0 16.5,26 10.5,10.5 0 0 0 27,15.5 10.5,10.5 0 0 0 16.5,5 Z m 0,3 A 7.5,7.5 0 0 1 24,15.5 7.5,7.5 0 0 1 16.5,23 7.5,7.5 0 0 1 9,15.5 7.5,7.5 0 0 1 16.5,8 Z m -2.984375,6 a 1.4932186,1.50015 0 1 0 0,3 h 5.970703 a 1.4932186,1.50015 0 1 0 0,-3 z"/>
  <path style="opacity:0.2;fill:#ffffff" transform="matrix(0.5,0,0,0.5,-128,67.5)" d="m 289,-133 a 29,29 0 0 0 -29,29 29,29 0 0 0 0.0176,0.48828 A 29,29 0 0 1 289,-132 29,29 0 0 1 317.97461,-103.50586 29,29 0 0 0 318,-104 29,29 0 0 0 289,-133 Z"/>
 </g>
 <g id="system-suspend-hibernate" transform="matrix(2,0,0,2,253.0003,55.000161)">
  <rect style="opacity:0.001" width="32" height="32" x=".5" y="-.5"/>
  <circle style="opacity:0.2" cx="16.5" cy="16" r="14.5"/>
  <circle style="fill:#673ab7" cx="16.5" cy="15.5" r="14.5"/>
  <path style="opacity:0.2" d="M 16.5,5.5 A 10.5,10.5 0 0 0 6,16 10.5,10.5 0 0 0 16.5,26.5 10.5,10.5 0 0 0 27,16 10.5,10.5 0 0 0 16.5,5.5 Z m 0,3 A 7.5,7.5 0 0 1 24,16 7.5,7.5 0 0 1 16.5,23.5 7.5,7.5 0 0 1 9,16 7.5,7.5 0 0 1 16.5,8.5 Z m 0,4 A 3.4999998,3.4999998 0 0 0 13,16 3.4999998,3.4999998 0 0 0 16.5,19.5 3.4999998,3.4999998 0 0 0 20,16 3.4999998,3.4999998 0 0 0 16.5,12.5 Z"/>
  <path style="fill:#ffffff" d="M 16.5,5 A 10.5,10.5 0 0 0 6,15.5 10.5,10.5 0 0 0 16.5,26 10.5,10.5 0 0 0 27,15.5 10.5,10.5 0 0 0 16.5,5 Z m 0,3 A 7.5,7.5 0 0 1 24,15.5 7.5,7.5 0 0 1 16.5,23 7.5,7.5 0 0 1 9,15.5 7.5,7.5 0 0 1 16.5,8 Z m 0,4 A 3.4999998,3.4999998 0 0 0 13,15.5 3.4999998,3.4999998 0 0 0 16.5,19 3.4999998,3.4999998 0 0 0 20,15.5 3.4999998,3.4999998 0 0 0 16.5,12 Z"/>
  <path style="opacity:0.1;fill:#ffffff" transform="matrix(0.5,0,0,0.5,-160,67.5)" d="m 353,-133 a 29,29 0 0 0 -29,29 29,29 0 0 0 0.0176,0.48828 A 29,29 0 0 1 353,-132 29,29 0 0 1 381.97461,-103.50586 29,29 0 0 0 382,-104 29,29 0 0 0 353,-133 Z"/>
 </g>
 <g id="system-lock-screen" transform="matrix(2,0,0,2,381.0003,55.000161)">
  <rect style="opacity:0.001" width="32" height="32" x=".5" y="-.5"/>
  <rect style="opacity:0.2" width="29" height="29" x="2" y="1.5" rx="8.7" ry="8.7"/>
  <rect style="fill:#ff5722" width="29" height="29" x="2" y="1" rx="8.7" ry="8.7"/>
  <path style="opacity:0.2" d="m 16.5,5.5 c -3.508667,0 -6.5,2.676 -6.5,6 v 3 H 8.5833333 C 7.7061667,14.5 7,15.169 7,16 v 9 c 0,0.831 0.7061667,1.5 1.5833333,1.5 H 24.416667 C 25.293833,26.5 26,25.831 26,25 v -9 c 0,-0.831 -0.706167,-1.5 -1.583333,-1.5 H 23 v -3 c 0,-3.324 -2.991333,-6 -6.5,-6 z m 0,3 c 1.754333,0 3.683537,1.348165 3.5,3 v 3 h -7 v -3 c 0,-1.662 1.745667,-3 3.5,-3 z"/>
  <path style="fill:#ffffff" d="M 16.5,5 C 12.991333,5 10,7.676 10,11 v 3 H 8.5833333 C 7.7061667,14 7,14.669 7,15.5 v 9 C 7,25.331 7.7061667,26 8.5833333,26 H 24.416667 C 25.293833,26 26,25.331 26,24.5 v -9 C 26,14.669 25.293833,14 24.416667,14 H 23 V 11 C 23,7.676 20.008667,5 16.5,5 Z m 0,3 c 1.754333,0 3.683537,1.3481652 3.5,3 v 3 h -7 v -3 c 0,-1.662 1.745667,-3 3.5,-3 z"/>
  <path style="opacity:0.2;fill:#ffffff" transform="matrix(0.5,0,0,0.5,-224,67.5)" d="M 469.39844,-133 C 459.75884,-133 452,-125.24116 452,-115.60156 v 1 C 452,-124.24116 459.75884,-132 469.39844,-132 h 23.20312 c 9.6396,0 17.39844,7.75884 17.39844,17.39844 v -1 C 510,-125.24116 502.24116,-133 492.60156,-133 Z"/>
 </g>
 <g id="system-switch-user" transform="matrix(2,0,0,2,445.0003,55.000161)">
  <rect style="opacity:0.001" width="32" height="32" x=".5" y="-.5"/>
  <rect style="opacity:0.2" width="29" height="29" x="2" y="1.5" rx="8.7" ry="8.7"/>
  <rect style="fill:#3f51b5" width="29" height="29" x="2" y="1" rx="8.7" ry="8.7"/>
  <path style="opacity:0.2" d="M 21.5,5.5 C 20.74317,5.5 19.98634,5.9904746 20,6.9707031 V 19.5 h -3.5 l 5,6.5 5,-6.5 H 23 V 6.9707031 C 23.013661,5.9904746 22.25683,5.5 21.5,5.5 Z m -10,0.5 -5,6.5 H 10 v 12.529297 c -0.02732,1.960457 3.027321,1.960457 3,0 V 12.5 h 3.5 z"/>
  <path style="fill:#ffffff" d="M 21.5,5 C 20.74317,5 19.98634,5.4904746 20,6.4707031 V 19 h -3.5 l 5,6.5 5,-6.5 H 23 V 6.4707031 C 23.013661,5.4904746 22.25683,5 21.5,5 Z m -10,0.5 -5,6.5 H 10 v 12.529297 c -0.02732,1.960457 3.027321,1.960457 3,0 V 12 h 3.5 z"/>
  <path style="opacity:0.1;fill:#ffffff" transform="matrix(0.5,0,0,0.5,-256,67.5)" d="M 533.39844,-133 C 523.75884,-133 516,-125.24116 516,-115.60156 v 1 C 516,-124.24116 523.75884,-132 533.39844,-132 h 23.20312 c 9.6396,0 17.39844,7.75884 17.39844,17.39844 v -1 C 574,-125.24116 566.24116,-133 556.60156,-133 Z"/>
 </g>
 <g id="system-log-out" transform="matrix(2,0,0,2,317.0003,55.000161)">
  <rect style="opacity:0.001" width="32" height="32" x=".5" y="-.5"/>
  <circle style="opacity:0.2" cx="16.5" cy="16" r="14.5"/>
  <circle style="fill:#4caf50" cx="16.5" cy="15.5" r="14.5"/>
  <path style="opacity:0.2" d="m 16.039062,5.5097656 c -0.308704,0.0135 -0.615761,0.041602 -0.921874,0.082031 C 12.668283,5.9152341 10.331073,7.0952328 8.5996094,9.0703125 5.1366807,13.020472 5.1318549,18.957859 8.5878906,22.914062 12.043927,26.870265 17.923767,27.658256 22.296875,24.75 a 1.5003306,1.501761 0 1 0 -1.660156,-2.501953 c -3.140123,2.088281 -7.3094,1.532168 -9.791016,-1.308594 -2.4816155,-2.840762 -2.4768388,-7.052248 0.0098,-9.888672 2.486566,-2.8364213 6.656492,-3.3867322 9.792969,-1.292968 A 1.4997883,1.5012181 0 1 0 22.3125,7.2597656 c -1.911018,-1.2757024 -4.112508,-1.8444976 -6.273438,-1.75 z M 23,10.75 v 3.75 h -5.5 c -0.828427,0 -1.5,0.671555 -1.5,1.5 0,0.828445 0.671573,1.5 1.5,1.5 H 23 v 3.75 L 29.5,16 Z"/>
  <path style="fill:#ffffff" d="m 16.039062,5.0097656 c -0.308704,0.0135 -0.615761,0.041602 -0.921874,0.082031 C 12.668283,5.4152341 10.331073,6.5952328 8.5996094,8.5703125 5.1366807,12.520472 5.1318549,18.457859 8.5878906,22.414062 12.043927,26.370265 17.923767,27.158256 22.296875,24.25 a 1.5003306,1.501761 0 1 0 -1.660156,-2.501953 c -3.140123,2.088281 -7.3094,1.532168 -9.791016,-1.308594 -2.4816155,-2.840762 -2.4768388,-7.052248 0.0098,-9.888672 2.486566,-2.8364213 6.656492,-3.3867322 9.792969,-1.2929685 A 1.4997883,1.5012181 0 1 0 22.3125,6.7597656 c -1.911018,-1.2757024 -4.112508,-1.8444976 -6.273438,-1.75 z M 23,10.25 V 14 h -5.5 c -0.828427,0 -1.5,0.671555 -1.5,1.5 0,0.828445 0.671573,1.5 1.5,1.5 H 23 v 3.75 l 6.5,-5.25 z"/>
  <path style="opacity:0.2;fill:#ffffff" transform="matrix(0.5,0,0,0.5,-192,67.5)" d="m 417,-133 a 29,29 0 0 0 -29,29 29,29 0 0 0 0.0176,0.48828 A 29,29 0 0 1 417,-132 29,29 0 0 1 445.97461,-103.50586 29,29 0 0 0 446,-104 29,29 0 0 0 417,-133 Z"/>
 </g>
 <g id="system-users" transform="translate(224)">
  <rect style="opacity:0.001" width="32" height="32" x="0" y="0"/>
  <circle style="opacity:0.2;fill:#00100f" cx="16" cy="17" r="14"/>
  <circle style="fill:#009587" cx="16" cy="16" r="14"/>
  <g style="opacity:0.2" transform="translate(0,1)">
   <path d="m 16,6 c -2.2096,0 -4,1.7912 -4,4 0,2.2088 1.7904,4 4,4 2.2096,0 4,-1.7912 4,-4 0,-2.2088 -1.7904,-4 -4,-4 z"/>
   <path d="m 16,16.000001 c -6.9993,0.0042 -7,4.430769 -7,4.430769 v 1.8 c 0,0 1.292299,2.76923 7,2.76923 5.707701,0 7,-2.76923 7,-2.76923 v -1.8 c 0,0 0,-4.433538 -6.9986,-4.430769 z"/>
  </g>
  <g>
   <path style="fill:#ffffff" d="m 16,6 c -2.2096,0 -4,1.7912 -4,4 0,2.2088 1.7904,4 4,4 2.2096,0 4,-1.7912 4,-4 0,-2.2088 -1.7904,-4 -4,-4 z"/>
   <path style="fill:#ffffff" d="m 16,16.000001 c -6.9993,0.0042 -7,4.430769 -7,4.430769 v 1.8 c 0,0 1.292299,2.76923 7,2.76923 5.707701,0 7,-2.76923 7,-2.76923 v -1.8 c 0,0 0,-4.433538 -6.9986,-4.430769 z"/>
  </g>
  <path style="opacity:0.2;fill:#ffffff" d="M 16,2 A 14,14 0 0 0 2,16 14,14 0 0 0 2.0214844,16.585938 14,14 0 0 1 16,3 14,14 0 0 1 29.978516,16.414062 14,14 0 0 0 30,16 14,14 0 0 0 16,2 Z"/>
 </g>
 <g id="system-user-prompt" transform="translate(288)">
  <rect style="opacity:0.001" width="32" height="32" x="0" y="0"/>
  <circle style="opacity:0.2" cx="16" cy="17" r="14"/>
  <circle style="fill:#818181" cx="16" cy="16" r="14"/>
  <path style="opacity:0.2" d="M 7.8867188,11 A 0.8857898,0.78166256 0 0 0 7.1191406,12.171875 L 9,15.046875 v 5.128906 C 9,21.740017 10.274565,23 11.857422,23 h 9.285156 C 22.725435,23 24,21.740017 24,20.175781 V 13.824219 C 24,12.259983 22.725435,11 21.142578,11 h -5.226562 -4.015625 -0.04297 z"/>
  <rect style="fill:#ffffff" width="15" height="12" x="9" y="10" rx="2.857" ry="2.824"/>
  <path style="fill:#ffffff" d="m 7.8866666,10.000001 a 0.8857898,0.78166256 0 0 0 -0.7680694,1.172377 l 2.008398,3.06833 2.0066668,3.068328 a 0.8857898,0.78166256 0 0 0 1.534407,0 l 2.006667,-3.068328 2.006667,-3.06833 a 0.8857898,0.78166256 0 0 0 -0.766339,-1.172377 h -4.015063 z"/>
  <rect style="fill:#4a8bf4" width="11" height="1" x="11" y="13" rx=".5" ry=".5"/>
  <rect style="fill:#4a8bf4" width="8" height="1" x="11.1" y="19" rx=".5" ry=".5"/>
  <rect style="fill:#4a8bf4" width="11" height="1" x="11" y="16" rx=".5" ry=".5"/>
  <path style="opacity:0.1;fill:#ffffff" d="M 16,2 A 14,14 0 0 0 2,16 14,14 0 0 0 2.0214844,16.585938 14,14 0 0 1 16,3 14,14 0 0 1 29.978516,16.414062 14,14 0 0 0 30,16 14,14 0 0 0 16,2 Z"/>
 </g>
 <g id="system-user-list" transform="translate(256)">
  <rect style="opacity:0.001" width="32" height="32" x="0" y="0"/>
  <circle style="opacity:0.2;fill:#00100f" cx="16" cy="17" r="14"/>
  <circle style="fill:#8e24aa" cx="16" cy="16" r="14"/>
  <path style="opacity:0.2" d="m 19,9 c -1.6572,0 -3,1.343399 -3,3 0,1.656599 1.3428,3 3,3 1.657199,0 3,-1.343401 3,-3 0,-1.656601 -1.342801,-3 -3,-3 z m -6,3 c -1.6572,0 -3,1.343399 -3,3 0,1.656599 1.3428,3 3,3 1.657199,0 3,-1.343401 3,-3 0,-1.656601 -1.342801,-3 -3,-3 z m 6,4 c -0.889194,4.98e-4 -1.6177,0.09621 -2.21875,0.25 -0.311931,0.874439 -0.935726,1.602393 -1.722656,2.091797 1.398133,0.315634 2.506597,0.810251 3.080078,1.488281 C 18.97573,20.819742 19,21.953125 19,21.953125 V 22 c 4.076929,0 5,-1.845703 5,-1.845703 v -1.201172 c 0,0 9.54e-4,-2.954971 -4.998047,-2.953125 z m -6,3 c -4.9994999,0.0028 -5,2.953125 -5,2.953125 v 1.201172 C 8,23.154297 8.9230708,25 13,25 c 4.076929,0 5,-1.845703 5,-1.845703 v -1.201172 c 0,0 9.54e-4,-2.954971 -4.998047,-2.953125 z"/>
  <path style="fill:#ffffff" d="m 19,8 c -1.6572,0 -3,1.343399 -3,3 0,1.656599 1.3428,3 3,3 1.657199,0 3,-1.343401 3,-3 0,-1.656601 -1.342801,-3 -3,-3 z m -6,3 c -1.6572,0 -3,1.343399 -3,3 0,1.656599 1.3428,3 3,3 1.657199,0 3,-1.343401 3,-3 0,-1.656601 -1.342801,-3 -3,-3 z m 6,4 c -0.889194,4.98e-4 -1.6177,0.09621 -2.21875,0.25 -0.311931,0.874439 -0.935726,1.602393 -1.722656,2.091797 1.398133,0.315634 2.506597,0.810251 3.080078,1.488281 C 18.97573,19.819742 19,20.953125 19,20.953125 V 21 c 4.076929,0 5,-1.845703 5,-1.845703 v -1.201172 c 0,0 9.54e-4,-2.954971 -4.998047,-2.953125 z m -6,3 c -4.9994999,0.0028 -5,2.953125 -5,2.953125 v 1.201172 C 8,22.154297 8.9230708,24 13,24 c 4.076929,0 5,-1.845703 5,-1.845703 v -1.201172 c 0,0 9.54e-4,-2.954971 -4.998047,-2.953125 z"/>
  <path style="opacity:0.1;fill:#ffffff" d="M 16,2 A 14,14 0 0 0 2,16 14,14 0 0 0 2.0214844,16.585938 14,14 0 0 1 16,3 14,14 0 0 1 29.978516,16.414062 14,14 0 0 0 30,16 14,14 0 0 0 16,2 Z"/>
 </g>
 <g id="22-22-system-user-prompt" transform="translate(183,-45)">
  <rect style="opacity:0.001" width="22" height="22" x="5" y="5"/>
  <path style="fill:#dfdfdf" d="m 8.8356824,10 c -0.64199,-7.92e-4 -1.04331,0.601892 -0.72265,1.083984 l 1.49023,2.835937 0.3984396,0.597657 v 3.892578 c 0,1.433883 1.15487,2.589844 2.58984,2.589844 h 8.81836 c 1.43497,0 2.58984,-1.155961 2.58984,-2.589844 V 12.589843 C 23.999742,11.155961 22.844872,10 21.409902,10 h -5.01953 -3.79883 -0.3789 z m 4.4941396,2 h 7.27344 c 0.20146,0 0.36328,0.222999 0.36328,0.5 0,0.277 -0.16182,0.5 -0.36328,0.5 h -7.27344 c -0.20145,0 -0.36328,-0.223 -0.36328,-0.5 0,-0.277001 0.16183,-0.5 0.36328,-0.5 z m 0,3 h 7.27344 c 0.20146,0 0.36328,0.222999 0.36328,0.5 0,0.277 -0.16182,0.5 -0.36328,0.5 h -7.27344 c -0.20145,0 -0.36328,-0.223 -0.36328,-0.5 0,-0.277001 0.16183,-0.5 0.36328,-0.5 z m 0.0996,3 h 5.14258 c 0.23743,0 0.42773,0.223 0.42773,0.5 0,0.277 -0.1903,0.5 -0.42773,0.5 h -5.14258 c -0.23743,0 -0.42969,-0.223 -0.42969,-0.5 0,-0.277 0.19226,-0.5 0.42969,-0.5 z"/>
 </g>
 <g id="22-22-system-user-list" transform="translate(161,-45)">
  <rect style="opacity:0.001" width="22" height="22" x="5" y="5"/>
  <path style="fill:#dfdfdf" d="m 19,8 c -1.6572,0 -3,1.3434 -3,3 0,1.6566 1.3428,3 3,3 1.6572,0 3,-1.3434 3,-3 0,-1.6566 -1.3428,-3 -3,-3 z m -6,3 c -1.6572,0 -3,1.3434 -3,3 0,1.6566 1.3428,3 3,3 1.6572,0 3,-1.3434 3,-3 0,-1.6566 -1.3428,-3 -3,-3 z m 6,4 c -0.88919,5e-4 -1.6177,0.0962 -2.21875,0.25 -0.31193,0.87444 -0.93573,1.6024 -1.72266,2.0918 1.39814,0.31564 2.5066,0.81025 3.08008,1.48828 C 18.97573,19.81975 19,20.95313 19,20.95313 v 0.0469 c 4.07693,0 5,-1.8457 5,-1.8457 v -1.20118 c 0,0 9.5e-4,-2.95497 -4.99805,-2.95312 z m -6,3 c -4.9995,0.003 -5,2.95313 -5,2.95313 v 1.20117 c 0,0 0.92307,1.8457 5,1.8457 4.07693,0 5,-1.8457 5,-1.8457 v -1.20117 c 0,0 9.5e-4,-2.95497 -4.99805,-2.95313 z"/>
 </g>
 <g id="22-22-system-users" transform="translate(139,-45)">
  <rect style="opacity:0.001" width="22" height="22" x="5" y="5"/>
  <path style="fill:#dfdfdf" d="m 16,8 c -1.6572,0 -3,1.3434 -3,3 0,1.656601 1.3428,3 3,3 1.6572,0 3,-1.343399 3,-3 0,-1.6566 -1.3428,-3 -3,-3 z m 0,7 c -5.9994,0.0037 -6,3.9375 -6,3.9375 v 1.601562 c 0,0 1.107685,2.460938 6,2.460938 4.892314,0 6,-2.460938 6,-2.460938 V 18.9375 c 0,0 7.53e-4,-3.939961 -5.998047,-3.9375 z"/>
 </g>
</svg>
