<svg xmlns="http://www.w3.org/2000/svg" width="32" height="32" version="1.1">
 <g id="system-log-out" transform="translate(32.00009,-1020.36)">
  <rect  style="opacity:0.001" width="32" height="32" x="96" y="1020.36"/>
  <g  transform="translate(96,1020.3622)">
   <circle  style="fill:#7bbb36" cx="16" cy="16" r="14"/>
   <path  style="opacity:0.2" d="m 16,8 a 9,9 0 0 1 9,9 9,9 0 0 1 -9,9 9,9 0 0 1 -9,-9 9,9 0 0 1 9,-9 z m 0,2 a 7,7 0 0 0 -7,7 7,7 0 0 0 7,7 7,7 0 0 0 7,-7 7,7 0 0 0 -7,-7 z m 0,4 1.9824,1.5391 2.018,1.461 -2.017,1.461 -1.983,1.539 0.024,-2 h -3.024 c -0.554,0 -1,-0.446 -1,-1 0,-0.554 0.446,-1 1,-1 h 3.0234 l -0.02344,-2 z"/>
   <path  style="fill:#ffffff" d="m 16,7 a 9,9 0 0 1 9,9 9,9 0 0 1 -9,9 9,9 0 0 1 -9,-9 9,9 0 0 1 9,-9 z m 0,2 a 7,7 0 0 0 -7,7 7,7 0 0 0 7,7 7,7 0 0 0 7,-7 7,7 0 0 0 -7,-7 z m 0,4 1.9824,1.5391 2.018,1.461 -2.017,1.461 -1.983,1.539 0.024,-2 h -3.024 c -0.554,0 -1,-0.446 -1,-1 0,-0.554 0.446,-1 1,-1 h 3.0234 l -0.02344,-2 z"/>
   <path  style="opacity:0.2;fill:#dfdfdf" d="M 16,2 A 14,14 0 0 0 2,16 14,14 0 0 0 2.0215,16.586 14,14 0 0 1 15.9995,3 14,14 0 0 1 29.9785,16.414 14,14 0 0 0 29.9995,16 a 14,14 0 0 0 -14,-14 z"/>
   <path  style="opacity:0.2" d="M 29.979,16.414 A 14,14 0 0 1 16,30 14,14 0 0 1 2.022,16.586 14,14 0 0 0 2,17 14,14 0 0 0 16,31 14,14 0 0 0 30,17 14,14 0 0 0 29.979,16.414 Z"/>
  </g>
 </g>
 <g id="system-shutdown" transform="translate(-32,-1020.36)">
  <rect  style="opacity:0.001" width="32" height="32" x="32" y="1020.36"/>
  <g  transform="translate(32,1020.3622)">
   <circle  style="fill:#c2352a" cx="16" cy="16" r="14"/>
   <path  style="opacity:0.2" d="m 16,8 a 9,9 0 0 0 -9,9 9,9 0 0 0 9,9 9,9 0 0 0 9,-9 9,9 0 0 0 -9,-9 z m 0,2 a 7,7 0 0 1 7,7 7,7 0 0 1 -7,7 7,7 0 0 1 -7,-7 7,7 0 0 1 7,-7 z m 0,3 c -0.554,0 -1,0.446 -1,1 v 6 c 0,0.554 0.446,1 1,1 0.554,0 1,-0.446 1,-1 v -6 c 0,-0.554 -0.446,-1 -1,-1 z"/>
   <path  style="fill:#ffffff" d="m 16,7 a 9,9 0 0 0 -9,9 9,9 0 0 0 9,9 9,9 0 0 0 9,-9 9,9 0 0 0 -9,-9 z m 0,2 a 7,7 0 0 1 7,7 7,7 0 0 1 -7,7 7,7 0 0 1 -7,-7 7,7 0 0 1 7,-7 z m 0,3 c -0.554,0 -1,0.446 -1,1 v 6 c 0,0.554 0.446,1 1,1 0.554,0 1,-0.446 1,-1 v -6 c 0,-0.554 -0.446,-1 -1,-1 z"/>
   <path  style="opacity:0.2;fill:#dfdfdf" d="M 16,2 A 14,14 0 0 0 2,16 14,14 0 0 0 2.0215,16.586 14,14 0 0 1 15.9995,3 14,14 0 0 1 29.9785,16.414 14,14 0 0 0 29.9995,16 a 14,14 0 0 0 -14,-14 z"/>
   <path  style="opacity:0.2" d="M 29.979,16.414 A 14,14 0 0 1 16,30 14,14 0 0 1 2.022,16.586 14,14 0 0 0 2,17 14,14 0 0 0 16,31 14,14 0 0 0 30,17 14,14 0 0 0 29.979,16.414 Z"/>
  </g>
 </g>
 <g id="system-suspend-hibernate" transform="translate(96.00009,-1020.36)">
  <rect  style="opacity:0.001" width="32" height="32" x="0" y="1020.36"/>
  <g  transform="translate(0,1020.3622)">
   <circle  style="fill:#9f65d3" cx="16" cy="16" r="14"/>
   <path  style="opacity:0.2" d="m 16,8 c -4.9706,0 -9,4.0294 -9,9 0,4.9706 4.0294,9 9,9 4.9706,0 9,-4.0294 9,-9 0,-4.9706 -4.0294,-9 -9,-9 z m 0,2 c 3.866,0 7,3.134 7,7 0,3.866 -3.134,7 -7,7 -3.866,0 -7,-3.134 -7,-7 0,-3.866 3.134,-7 7,-7 z m 0,5 a 2,2 0 0 0 -2,2 2,2 0 0 0 2,2 2,2 0 0 0 2,-2 2,2 0 0 0 -2,-2 z"/>
   <path  style="fill:#ffffff" d="m 16,7 c -4.9706,0 -9,4.0294 -9,9 0,4.9706 4.0294,9 9,9 4.9706,0 9,-4.0294 9,-9 0,-4.9706 -4.0294,-9 -9,-9 z m 0,2 c 3.866,0 7,3.134 7,7 0,3.866 -3.134,7 -7,7 -3.866,0 -7,-3.134 -7,-7 0,-3.866 3.134,-7 7,-7 z m 0,5 a 2,2 0 0 0 -2,2 2,2 0 0 0 2,2 2,2 0 0 0 2,-2 2,2 0 0 0 -2,-2 z"/>
   <path  style="opacity:0.2;fill:#dfdfdf" d="M 16,2 A 14,14 0 0 0 2,16 14,14 0 0 0 2.0215,16.586 14,14 0 0 1 15.9995,3 14,14 0 0 1 29.9785,16.414 14,14 0 0 0 29.9995,16 a 14,14 0 0 0 -14,-14 z"/>
   <path  style="opacity:0.2" d="M 29.979,16.414 A 14,14 0 0 1 16,30 14,14 0 0 1 2.022,16.586 14,14 0 0 0 2,17 14,14 0 0 0 16,31 14,14 0 0 0 30,17 14,14 0 0 0 29.979,16.414 Z"/>
  </g>
 </g>
 <g id="system-switch-user" transform="translate(192.00009,-1020.36)">
  <rect  style="opacity:0.001" width="32" height="32" x="0" y="1020.36"/>
  <g  transform="translate(0,1020.3622)">
   <circle  style="fill:#36bb94" cx="16" cy="16" r="14"/>
   <path  style="opacity:0.2;fill-rule:evenodd" d="m 13,8.9999 c -0.665,0 -1,0.4129 -1,0.9258 v 11.074 H 9 l 4,4 4,-4 H 14 V 9.9257 c 0,-0.5129 -0.335,-0.926 -1,-0.926 z m 6,0 -4,4 h 3 v 11.074 c 0,0.513 0.335,0.926 1,0.926 0.6648,0 1,-0.41291 1,-0.92578 v -11.074 h 3 l -4,-4 z"/>
   <path  style="fill:#ffffff;fill-rule:evenodd" d="m 13,8 c -0.665,0 -1,0.4129 -1,0.9258 v 11.074 H 9 l 4,4 4,-4 H 14 V 8.9258 c 0,-0.5129 -0.335,-0.926 -1,-0.926 z m 6,0 -4,4 h 3 v 11.074 c 0,0.513 0.335,0.926 1,0.926 0.6648,0 1,-0.41291 1,-0.92578 v -11.074 h 3 l -4,-4 z"/>
   <path  style="opacity:0.2;fill:#dfdfdf" d="M 16,2 A 14,14 0 0 0 2,16 14,14 0 0 0 2.0215,16.586 14,14 0 0 1 15.9995,3 14,14 0 0 1 29.9785,16.414 14,14 0 0 0 29.9995,16 a 14,14 0 0 0 -14,-14 z"/>
   <path  style="opacity:0.2" d="M 29.979,16.414 A 14,14 0 0 1 16,30 14,14 0 0 1 2.022,16.586 14,14 0 0 0 2,17 14,14 0 0 0 16,31 14,14 0 0 0 30,17 14,14 0 0 0 29.979,16.414 Z"/>
  </g>
 </g>
 <g id="system-suspend" transform="translate(64.00009,-1020.36)">
  <rect  style="opacity:0.001" width="32" height="32" x="0" y="1020.36"/>
  <g  transform="translate(0,1020.3622)">
   <circle  style="fill:#41a5c7" cx="16" cy="16" r="14"/>
   <path  style="opacity:0.2" d="m 25,17 a 9,9 0 0 0 -9,-9 9,9 0 0 0 -9,9 9,9 0 0 0 9,9 9,9 0 0 0 9,-9 z m -2,0 a 7,7 0 0 1 -7,7 7,7 0 0 1 -7,-7 7,7 0 0 1 7,-7 7,7 0 0 1 7,7 z m -3,0 c 0,-0.554 -0.446,-1 -1,-1 h -6 c -0.554,0 -1,0.446 -1,1 0,0.554 0.446,1 1,1 h 6 c 0.554,0 1,-0.446 1,-1 z"/>
   <path  style="fill:#ffffff" d="m 25,16 a 9,9 0 0 0 -9,-9 9,9 0 0 0 -9,9 9,9 0 0 0 9,9 9,9 0 0 0 9,-9 z m -2,0 a 7,7 0 0 1 -7,7 7,7 0 0 1 -7,-7 7,7 0 0 1 7,-7 7,7 0 0 1 7,7 z m -3,0 c 0,-0.554 -0.446,-1 -1,-1 h -6 c -0.554,0 -1,0.446 -1,1 0,0.554 0.446,1 1,1 h 6 c 0.554,0 1,-0.446 1,-1 z"/>
   <path  style="opacity:0.2;fill:#dfdfdf" d="M 16,2 A 14,14 0 0 0 2,16 14,14 0 0 0 2.0215,16.586 14,14 0 0 1 15.9995,3 14,14 0 0 1 29.9785,16.414 14,14 0 0 0 29.9995,16 a 14,14 0 0 0 -14,-14 z"/>
   <path  style="opacity:0.2" d="M 29.979,16.414 A 14,14 0 0 1 16,30 14,14 0 0 1 2.022,16.586 14,14 0 0 0 2,17 14,14 0 0 0 16,31 14,14 0 0 0 30,17 14,14 0 0 0 29.979,16.414 Z"/>
  </g>
 </g>
 <g id="system-reboot" transform="translate(32.00009,-1020.36)">
  <rect  style="opacity:0.001" width="32" height="32" x="0" y="1020.36"/>
  <g  transform="translate(0,1020.3622)">
   <circle  style="fill:#eac046" cx="16" cy="16" r="14"/>
   <path  style="opacity:0.2" d="M 14,5 V 8.2344 C 9.9084,9.167 7.0044,12.803 7,17 c 0,4.9706 4.0294,9 9,9 4.5795,-0.0054 8.4248,-3.4488 8.9336,-8 0,0 0.06641,-1 -0.93359,-1 -1,0 -1.0801,1 -1.0801,1 -0.497,3.441 -3.443,5.996 -6.92,6 -3.866,0 -7,-3.134 -7,-7 0.0031,-3.093 2.036,-5.817 5,-6.701 V 13 l 4,-4 z"/>
   <path  style="fill:#ffffff" d="M 14,4 V 7.2344 C 9.9084,8.1669 7.0044,11.803 7,16 c 0,4.9706 4.0294,9 9,9 4.5795,-0.0054 8.4248,-3.4488 8.9336,-8 0,0 0.06641,-1 -0.93359,-1 -1,0 -1.0801,1 -1.0801,1 -0.497,3.441 -3.443,5.996 -6.92,6 -3.866,0 -7,-3.134 -7,-7 0.0031,-3.093 2.036,-5.817 5,-6.701 V 12 l 4,-4 z"/>
   <path  style="opacity:0.2;fill:#dfdfdf" d="M 16,2 A 14,14 0 0 0 2,16 14,14 0 0 0 2.0215,16.586 14,14 0 0 1 15.9995,3 14,14 0 0 1 29.9785,16.414 14,14 0 0 0 29.9995,16 a 14,14 0 0 0 -14,-14 z"/>
   <path  style="opacity:0.2" d="M 29.979,16.414 A 14,14 0 0 1 16,30 14,14 0 0 1 2.022,16.586 14,14 0 0 0 2,17 14,14 0 0 0 16,31 14,14 0 0 0 30,17 14,14 0 0 0 29.979,16.414 Z"/>
  </g>
 </g>
 <g id="system-lock-screen" transform="translate(32.00009,-1020.36)">
  <rect  style="opacity:0.001" width="32" height="32" x="128" y="1020.36"/>
  <g  transform="translate(128,1.7382813e-5)">
   <circle  style="opacity:0.2" cx="16" cy="1037.362" r="14"/>
   <circle  style="fill:#ea882b" cx="16" cy="1036.362" r="14"/>
   <path  style="opacity:0.2" d="m 16,1027.3623 c -2.8204,0 -5,2.2937 -5,5.1429 v 1.857 H 9.8909 c -0.4932,0 -0.8909,0.473 -0.8909,0.971 v 9.129 c 0,0.498 0.3977,0.9 0.8909,0.9 h 12.218 c 0.493,0 0.891,-0.402 0.891,-0.9 v -9.1286 c 0,-0.498 -0.399,-1.003 -0.891,-0.971 h -1.109 v -1.857 c 0,-2.8493 -2.18,-5.143 -5,-5.143 z m 0,2 c 1.7627,0 3,1.3621 3,3.1429 v 1.857 h -6 v -1.857 c 0,-1.781 1.237,-3.143 3,-3.143 z"/>
   <path  style="fill:#ffffff" d="m 16,1026.3624 c -2.8204,0 -5,2.2937 -5,5.1429 v 1.857 H 9.8909 c -0.4932,0 -0.8909,0.473 -0.8909,0.971 v 9.129 c 0,0.498 0.3977,0.9 0.8909,0.9 h 12.218 c 0.493,0 0.891,-0.402 0.891,-0.9 v -9.1286 c 0,-0.498 -0.399,-1.003 -0.891,-0.971 h -1.109 v -1.857 c 0,-2.8493 -2.18,-5.143 -5,-5.143 z m 0,2 c 1.7627,0 3,1.3621 3,3.1429 v 1.857 h -6 v -1.857 c 0,-1.781 1.237,-3.143 3,-3.143 z"/>
   <path  style="opacity:0.2;fill:#dfdfdf" transform="translate(0,1020.3622)" d="M 16,2 A 14,14 0 0 0 2,16 14,14 0 0 0 2.0214844,16.585938 14,14 0 0 1 16,3 14,14 0 0 1 29.978516,16.414062 14,14 0 0 0 30,16 14,14 0 0 0 16,2 Z"/>
  </g>
 </g>
 <g id="22-22-system-shutdown" transform="translate(-5,-27.000015)">
  <rect  style="opacity:0.001" width="22" height="22" x="5" y="5"/>
  <path  style="fill:#dfdfdf" transform="translate(5,27.000015)" d="M 11 -19 C 6.581722 -19 3 -15.418278 3 -11 C 3 -6.581722 6.581722 -3 11 -3 C 15.418278 -3 19 -6.581722 19 -11 C 19 -15.418278 15.418278 -19 11 -19 z M 11 -17 A 6 6 0 0 1 17 -11 A 6 6 0 0 1 11 -5 A 6 6 0 0 1 5 -11 A 6 6 0 0 1 11 -17 z M 11 -15 A 3.9999999 3.9999999 0 0 0 7 -11 A 3.9999999 3.9999999 0 0 0 11 -7 A 3.9999999 3.9999999 0 0 0 15 -11 A 3.9999999 3.9999999 0 0 0 11 -15 z M 11 -14 C 11.554 -14 12 -13.554 12 -13 L 12 -9 C 12 -8.446 11.554 -8 11 -8 C 10.446 -8 10 -8.446 10 -9 L 10 -13 C 10 -13.554 10.446 -14 11 -14 z"/>
 </g>
 <g id="22-22-system-suspend" transform="rotate(90,49.000008,21.999991)">
  <rect  style="opacity:0.001" width="22" height="22" x="5" y="5"/>
  <path  style="fill:#dfdfdf" transform="rotate(-90,49.000008,21.999991)" d="M 55 -19 C 50.581722 -19 47 -15.418278 47 -11 C 47 -6.581722 50.581722 -3 55 -3 C 59.418278 -3 63 -6.581722 63 -11 C 63 -15.418278 59.418278 -19 55 -19 z M 55 -17 A 6 6 0 0 1 61 -11 A 6 6 0 0 1 55 -5 A 6 6 0 0 1 49 -11 A 6 6 0 0 1 55 -17 z M 55 -15 A 3.9999999 3.9999999 0 0 0 51 -11 A 3.9999999 3.9999999 0 0 0 55 -7 A 3.9999999 3.9999999 0 0 0 59 -11 A 3.9999999 3.9999999 0 0 0 55 -15 z M 53 -12 L 57 -12 C 57.554 -12 58 -11.554 58 -11 C 58 -10.446 57.554 -10 57 -10 L 53 -10 C 52.446 -10 52 -10.446 52 -11 C 52 -11.554 52.446 -12 53 -12 z"/>
 </g>
 <g id="22-22-system-suspend-hibernate" transform="rotate(90,60.000008,32.999991)">
  <rect  style="opacity:0.001" width="22" height="22" x="5" y="5"/>
  <path  style="fill:#dfdfdf" transform="rotate(-90,60.000008,32.999991)" d="M 77 -19 C 72.581722 -19 69 -15.418278 69 -11 C 69 -6.581722 72.581722 -3 77 -3 C 81.418278 -3 85 -6.581722 85 -11 C 85 -15.418278 81.418278 -19 77 -19 z M 77 -17 A 6 6 0 0 1 83 -11 A 6 6 0 0 1 77 -5 A 6 6 0 0 1 71 -11 A 6 6 0 0 1 77 -17 z M 77 -15 A 3.9999999 3.9999999 0 0 0 73 -11 A 3.9999999 3.9999999 0 0 0 77 -7 A 3.9999999 3.9999999 0 0 0 81 -11 A 3.9999999 3.9999999 0 0 0 77 -15 z M 77 -13 A 2 2 0 0 1 79 -11 A 2 2 0 0 1 77 -9 A 2 2 0 0 1 75 -11 A 2 2 0 0 1 77 -13 z"/>
 </g>
 <g id="22-22-system-log-out" transform="rotate(90,71.000008,43.999991)">
  <rect  style="opacity:0.001" width="22" height="22" x="5" y="5"/>
  <path  style="fill:#dfdfdf" transform="rotate(-90,71.000008,43.999991)" d="M 99 -19 C 94.581722 -19 91 -15.418278 91 -11 C 91 -6.581722 94.581722 -3 99 -3 C 103.41828 -3 107 -6.581722 107 -11 C 107 -15.418278 103.41828 -19 99 -19 z M 99 -17 A 6 6 0 0 1 105 -11 A 6 6 0 0 1 99 -5 A 6 6 0 0 1 93 -11 A 6 6 0 0 1 99 -17 z M 99 -15 A 3.9999999 3.9999999 0 0 0 95 -11 A 3.9999999 3.9999999 0 0 0 99 -7 A 3.9999999 3.9999999 0 0 0 103 -11 A 3.9999999 3.9999999 0 0 0 99 -15 z M 99 -14 L 102.5 -11 L 99 -8 L 99 -10 L 97 -10 C 96.446 -10 96 -10.446 96 -11 C 96 -11.554 96.446 -12 97 -12 L 99 -12 L 99 -14 z"/>
 </g>
 <g id="22-22-system-reboot" transform="translate(44)">
  <rect  style="opacity:0.001" width="22" height="22" x="-22" y="-22"/>
  <path  style="fill:#dfdfdf" d="m -11,-19 c -4.418278,0 -8,3.581722 -8,8 0,4.418278 3.581722,8 8,8 4.418278,0 8,-3.581722 8,-8 0,-4.418278 -3.581722,-8 -8,-8 z m 0,1 2.5,2 -2.5,2 v -1 c -2.209139,0 -4,1.790861 -4,4 0,2.209139 1.790861,4 4,4 1.5474642,-0.00224 2.9275891,-0.8924323 3.5873031,-2.2415197 0.1210539,-0.2769147 0.2147262,-0.6439996 0.3005381,-0.9549653 C -7.0146305,-10.654684 -6.5846419,-11 -6.0996094,-11 c 0.4730695,0 0.8694155,0.328493 0.9733804,0.769821 0.062371,0.281703 -0.024194,0.5398334 -0.08458,0.7713493 C -5.9053203,-6.8421858 -8.2752576,-5.0043324 -11,-5 c -3.313708,0 -6,-2.6862915 -6,-6 0,-3.313708 2.686292,-6 6,-6 z"/>
 </g>
 <g id="22-22-system-switch-user" transform="translate(127,-27.000015)">
  <rect  style="opacity:0.001" width="22" height="22" x="5" y="5"/>
  <path  style="fill:#dfdfdf" transform="translate(27,27.000015)" d="m -11,-19 c -4.418278,0 -8,3.581722 -8,8 0,4.418278 3.581722,8 8,8 4.418278,0 8,-3.581722 8,-8 0,-4.418278 -3.581722,-8 -8,-8 z m -2,4 c 0.554,0 1,0.446 1,1 v 4 h 1 l -1,1.5 -1,1.5 -1,-1.5 -1,-1.5 h 1 v -4 c 0,-0.554 0.446,-1 1,-1 z m 4,0 1,1.5 1,1.5 h -1 v 4 c 0,0.554 -0.446,1 -1,1 -0.554,0 -1,-0.446 -1,-1 v -4 h -1 l 1,-1.5 z"/>
 </g>
 <g id="22-22-system-lock-screen" transform="translate(105,-27.000015)">
  <rect  style="opacity:0.001" width="22" height="22" x="5" y="5"/>
  <path  style="fill:#dfdfdf" transform="translate(27,27.000015)" d="m -11,-19 c -4.418278,0 -8,3.581722 -8,8 0,4.418278 3.581722,8 8,8 4.418278,0 8,-3.581722 8,-8 0,-4.418278 -3.581722,-8 -8,-8 z m 0,3 c 1.662,0 3,1.338 3,3 v 1 h 0.3339844 C -7.2966822,-12 -7,-11.736518 -7,-11.367188 v 4.7011724 C -7,-6.2966816 -7.2966822,-6 -7.6660156,-6 H -14.333984 C -14.703318,-6 -15,-6.2966816 -15,-6.6660156 V -11.367188 C -15,-11.736518 -14.703318,-12 -14.333984,-12 H -14 v -1 c 0,-1.662 1.338,-3 3,-3 z m 0,2 c -0.588594,0 -1,0.411406 -1,1 v 1 h 2 v -1 c 0,-0.588594 -0.411406,-1 -1,-1 z"/>
 </g>
 <g id="system-save-session" transform="translate(-32,-1.4648438e-5)">
  <rect  style="opacity:0.001" width="32" height="32" x="0" y="0"/>
  <g >
   <circle  style="fill:#ed60be;fill-opacity:1" cx="16" cy="16" r="14"/>
   <path id="path8-3" style="opacity:0.2;fill:#ffffff" d="M 16,2 A 14,14 0 0 0 2,16 14,14 0 0 0 2.0215,16.586 14,14 0 0 1 15.9995,3 14,14 0 0 1 29.9785,16.414 14,14 0 0 0 29.9995,16 a 14,14 0 0 0 -14,-14 z"/>
   <path id="path10-6" style="opacity:0.2" d="M 29.979,16.414 A 14,14 0 0 1 16,30 14,14 0 0 1 2.022,16.586 14,14 0 0 0 2,17 14,14 0 0 0 16,31 14,14 0 0 0 30,17 14,14 0 0 0 29.979,16.414 Z"/>
   <path  style="opacity:0.2;fill:#000000" d="m 9.9999997,10 c -0.55,0 -1,0.45 -1,1 v 11 l 1.9999993,2 H 22 c 0.55,0 1,-0.45 1,-1 V 11 c 0,-0.55 -0.45,-1 -1,-1 z m 0.9999993,2 H 21 v 10 h -1 v -5 h -8.000001 v 5 h -1 z M 16,18 h 2 v 4 h -2 z"/>
   <path  style="fill:#ffffff" d="m 9.9999997,9.0000003 c -0.55,0 -1,0.45 -1,0.9999995 V 21 l 1.9999993,2 H 22 c 0.55,0 1,-0.45 1,-1 V 9.9999998 C 23,9.4500003 22.55,9.0000003 22,9.0000003 Z M 10.999999,11 H 21 v 10 h -1 v -5 h -8.000001 v 5 h -1 z M 16,17 h 2 v 4 h -2 z"/>
  </g>
 </g>
 <g id="22-22-system-save-session" transform="translate(-22,-308.76668)">
  <rect  style="opacity:0.001" width="22" height="22" x="0" y="286.77"/>
  <path id="circle2-5" style="fill:#dfdfdf;fill-opacity:1;stroke-width:0.5714286" d="m 11,289.76666 a 8,8 0 0 0 -8.0000001,8 8,8 0 0 0 8.0000001,8 8,8 0 0 0 8,-8 8,8 0 0 0 -8,-8 z m -4.2851561,3 h 8.5703121 c 0.392856,0 0.714844,0.32198 0.714844,0.71484 v 8.57032 c 0,0.39285 -0.321988,0.71484 -0.714844,0.71484 H 7.4277348 l -1.4277349,-1.42773 v -7.85743 c 0,-0.39286 0.321987,-0.71484 0.714844,-0.71484 z m 1.285156,2 v 6 h 1 v -3 H 13 v 3 h 1 v -6 z m 3.0000001,4 v 2 h 1 v -2 z"/>
 </g>
 <g id="system-software-update" transform="translate(0,31.999985)">
  <rect  style="opacity:0.001" width="32" height="32" x="0" y="0"/>
  <g  transform="translate(-1,1.4317501e-4)">
   <path  style="opacity:0.2" d="m 15.927613,29.999718 c 0.560622,0.0035 1.126071,-0.02559 1.689923,-0.08985 2.237634,-0.254997 4.417218,-1.045757 6.332309,-2.349796 2.820395,-1.920485 4.734979,-4.79266 5.583411,-8.002588 0.660909,-0.300914 1.256149,-0.757194 1.727172,-1.382923 0.935035,-1.242142 1.035838,-3.471298 0,-4.84804 a 3.0115789,3.0005382 0 0 0 0,-0.002 l -0.941024,-1.250099 a 3.0115789,3.0005382 0 0 0 -0.002,-0.002 l -0.942985,-1.2501 C 28.337625,9.4477225 26.868382,9.0000045 25.555468,9.0000045 c -1.312914,0 -2.782157,0.447718 -3.81899,1.8224105 l -0.942985,1.250099 a 3.0115789,3.0005382 0 0 0 -0.002,0.002 l -0.941024,1.250099 a 3.0115789,3.0005382 0 0 0 0,0.002 c -1.035838,1.376742 -0.935035,3.605898 0,4.84804 0.129089,0.171489 0.32603,0.234339 0.472472,0.380891 -0.366891,0.614874 -0.859027,1.156741 -1.472311,1.574343 -1.373489,0.935247 -3.10291,1.131925 -4.654148,0.529339 l 0.04705,0.01758 c -1.172805,-0.478007 -2.638144,-0.438132 -3.73077,0.109384 -1.092626,0.547516 -1.80519,1.444249 -2.187882,2.422067 -0.38269,0.977818 -0.467497,2.118146 -0.03529,3.258071 0.429684,1.133063 1.473242,2.140715 2.652555,2.584096 1.612823,0.622725 3.303038,0.93869 4.985468,0.949294 z"/>
   <path  style="fill:#ff9932" d="m 15.927613,28.999714 c 0.560622,0.0035 1.126071,-0.02559 1.689923,-0.08985 2.237634,-0.254997 4.417218,-1.045757 6.332309,-2.349796 2.820395,-1.920485 4.734979,-4.79266 5.583411,-8.002588 0.660909,-0.300914 1.256149,-0.757194 1.727172,-1.382923 0.935035,-1.242142 1.035838,-3.471298 0,-4.84804 a 3.0115789,3.0005382 0 0 0 0,-0.002 l -0.941024,-1.250099 a 3.0115789,3.0005382 0 0 0 -0.002,-0.002 l -0.942985,-1.2501 C 28.337625,8.447718 26.868382,8 25.555468,8 24.242554,8 22.773311,8.447718 21.736478,9.822411 l -0.942985,1.250099 a 3.0115789,3.0005382 0 0 0 -0.002,0.002 l -0.941024,1.250099 a 3.0115789,3.0005382 0 0 0 0,0.002 c -1.035838,1.376742 -0.935035,3.605898 0,4.84804 0.129089,0.171489 0.32603,0.234339 0.472472,0.380891 -0.366891,0.614874 -0.859027,1.156741 -1.472311,1.574343 -1.373489,0.935247 -3.10291,1.131925 -4.654148,0.529339 l 0.04705,0.01758 c -1.172805,-0.478007 -2.638144,-0.438132 -3.73077,0.109384 -1.092626,0.547516 -1.80519,1.444249 -2.187882,2.422067 -0.38269,0.977818 -0.467497,2.118146 -0.03529,3.258071 0.429684,1.133063 1.473242,2.140715 2.652555,2.584096 1.612823,0.622725 3.303038,0.93869 4.985468,0.949294 z"/>
   <path  style="opacity:0.2" d="M 17.072266,3 C 16.511644,2.99647 15.946665,3.0255878 15.382812,3.0898438 13.145179,3.344841 10.965872,4.1354146 9.0507812,5.4394531 6.2303866,7.3599378 4.3152294,10.233432 3.4667969,13.443359 2.805888,13.744273 2.2112573,14.200443 1.7402344,14.826172 c -0.93503502,1.242142 -1.03583802,3.470914 0,4.847656 a 3.0115789,3.0005382 0 0 0 0,0.002 l 0.9394531,1.25 a 3.0115789,3.0005382 0 0 0 0.00195,0.002 l 0.9433594,1.25 C 4.6618337,23.552333 6.1323984,24 7.4453125,24 8.7582266,24 10.226839,23.552427 11.263672,22.177734 l 0.943359,-1.25 a 3.0115789,3.0005382 0 0 0 0.002,-0.002 l 0.941407,-1.25 a 3.0115789,3.0005382 0 0 0 0,-0.002 c 1.035838,-1.376742 0.935035,-3.605514 0,-4.847656 -0.129089,-0.171489 -0.326215,-0.234307 -0.472657,-0.38086 0.366891,-0.614874 0.85742,-1.156616 1.470704,-1.574218 1.373488,-0.935247 3.103058,-1.133836 4.654296,-0.53125 l -0.04687,-0.01758 c 0.297303,0.121173 0.613438,0.206937 0.9375,0.261718 0.05276,-0.08577 0.09581,-0.177478 0.15625,-0.257812 v -0.002 l 0.941407,-1.25 0.002,-0.002 0.943359,-1.2500004 c 0.890065,-1.1800994 2.095069,-1.6524771 3.25,-1.7695312 -0.0054,-0.4974277 -0.08125,-1.0075016 -0.27539,-1.5195313 C 24.281253,5.4001411 23.237907,4.3925996 22.058594,3.9492188 20.445771,3.3264935 18.754696,3.0106042 17.072266,3 Z"/>
   <path  style="fill:#ffda43" d="M 17.072375,2.0002858 C 16.511753,1.9967556 15.946304,2.0258809 15.382452,2.090137 13.144818,2.345134 10.965234,3.1358943 9.0501428,4.4399328 6.2297481,6.3604175 4.3151644,9.2325934 3.4667319,12.442521 2.805823,12.743435 2.210583,13.199715 1.7395601,13.825444 c -0.935035,1.242142 -1.035838,3.471298 0,4.84804 a 3.0115789,3.0005382 0 0 0 0,0.002 l 0.9410243,1.250099 a 3.0115789,3.0005382 0 0 0 0.00196,0.002 l 0.9429849,1.2501 C 4.662363,22.552282 6.1316059,23 7.44452,23 c 1.3129141,0 2.782157,-0.447718 3.81899,-1.822411 l 0.942985,-1.250099 a 3.0115789,3.0005382 0 0 0 0.002,-0.002 l 0.941024,-1.250099 a 3.0115789,3.0005382 0 0 0 0,-0.002 c 1.035838,-1.376742 0.935035,-3.605898 0,-4.84804 -0.129089,-0.171489 -0.32603,-0.234339 -0.472472,-0.380891 0.366891,-0.614874 0.859027,-1.156741 1.472311,-1.574343 1.373489,-0.935247 3.10291,-1.131925 4.654148,-0.529339 l -0.04705,-0.01758 c 1.172805,0.478007 2.638144,0.438132 3.73077,-0.109384 1.092626,-0.547516 1.80519,-1.4442495 2.187882,-2.4220673 0.38269,-0.9778178 0.467497,-2.1181455 0.03529,-3.2580712 C 24.280714,4.4006135 23.237156,3.3929609 22.057843,2.94958 20.44502,2.3268547 18.754805,2.01089 17.072375,2.0002858 Z"/>
   <path  style="opacity:0.1" d="M 17.072266,6.0019576 C 16.630436,5.9991626 16.188236,6.0221457 15.75,6.0722701 13.997056,6.2727677 12.292011,6.893478 10.792969,7.9179733 8.0725613,9.77719 6.3576256,12.752311 6.0605469,16.000004 h -0.4375 a 1.6244921,1.250232 0 0 0 -1.40625,1.875 l 0.9375,1.25 0.9394531,1.25 a 1.6244921,1.250232 0 0 0 2.8125,0 l 0.9394531,-1.25 0.9374999,-1.25 a 1.6244921,1.250232 0 0 0 -1.4062499,-1.875 h -0.3125 C 9.3481147,13.742796 10.581445,11.696396 12.486328,10.394536 14.669114,8.9027473 17.44299,8.5864947 19.90625,9.5468795 a 1.50015,1.50015 0 1 0 1.089844,-2.7949219 c -1.268744,-0.4946627 -2.598339,-0.7416149 -3.923828,-0.75 z"/>
   <path  style="fill:#3f3f3f" d="M 17.072266,5.0019531 C 16.630436,4.9991581 16.188236,5.0221412 15.75,5.0722656 13.997056,5.2727632 12.292011,5.8934735 10.792969,6.9179688 8.0725613,8.7771855 6.3576256,11.752307 6.0605469,15 h -0.4375 a 1.6244921,1.250232 0 0 0 -1.40625,1.875 l 0.9375,1.25 0.9394531,1.25 a 1.6244921,1.250232 0 0 0 2.8125,0 l 0.9394531,-1.25 0.9374999,-1.25 A 1.6244921,1.250232 0 0 0 9.3769531,15 h -0.3125 C 9.3481147,12.742792 10.581445,10.696392 12.486328,9.3945312 14.669114,7.9027428 17.44299,7.5864902 19.90625,8.546875 a 1.50015,1.50015 0 1 0 1.089844,-2.7949219 c -1.268744,-0.4946627 -2.598339,-0.7416149 -3.923828,-0.75 z"/>
   <path  style="opacity:0.2;fill:#ffffff" d="M 17.072266,2 C 16.511644,1.99647 15.946664,2.025588 15.382812,2.089844 13.145179,2.3448407 10.965872,3.1354146 9.0507812,4.4394531 6.2303866,6.3599378 4.3152294,9.2334318 3.4667969,12.443359 2.805888,12.744273 2.2112573,13.200443 1.7402344,13.826172 1.167218,14.587392 0.91001218,15.717641 1.0332031,16.796875 1.1070624,16.05675 1.3443703,15.352055 1.7402344,14.826172 2.2112573,14.200443 2.805888,13.744273 3.4667969,13.443359 4.3152294,10.233431 6.2303866,7.3599378 9.0507812,5.4394531 10.965872,4.1354146 13.145179,3.3448407 15.382812,3.0898438 15.946664,3.0255876 16.511644,2.9964698 17.072266,3 c 1.68243,0.010604 3.373505,0.3264935 4.986328,0.9492188 1.179313,0.4433809 2.222659,1.4509223 2.652344,2.5839843 0.133803,0.3529016 0.202937,0.7045895 0.24414,1.0527344 0.07274,-0.6608972 0.02051,-1.3547376 -0.24414,-2.0527344 C 24.281253,4.4001411 23.237907,3.3925997 22.058594,2.9492188 20.445771,2.3264935 18.754696,2.0106042 17.072266,2 Z m -3.939454,11.810547 c -0.166201,0.201694 -0.321756,0.411331 -0.455078,0.634765 0.146442,0.146552 0.343568,0.209371 0.472657,0.38086 0.395864,0.525883 0.631218,1.230578 0.705078,1.970703 0.123191,-1.079234 -0.132062,-2.209483 -0.705078,-2.970703 -0.005,-0.0066 -0.01242,-0.0093 -0.01758,-0.01563 z"/>
   <path  style="fill:#ff9932" d="m 31.260428,12.326517 v -0.002 l -0.941024,-1.250099 -0.002,-0.002 -0.942985,-1.2501 C 28.337625,8.447718 26.868382,8 25.555468,8 24.242554,8 22.773311,8.447718 21.736478,9.822411 l -0.942985,1.250099 -0.002,0.002 -0.941024,1.250099 v 0.002 z"/>
   <path  style="opacity:0.1" d="m 15.927722,26.998051 c 0.44183,0.0028 0.88403,-0.02019 1.322266,-0.07031 1.752944,-0.200497 3.457989,-0.821208 4.957031,-1.845703 2.720408,-1.85922 4.435343,-4.834341 4.732422,-8.082034 h 0.4375 a 1.6244921,1.250232 0 0 0 1.40625,-1.875 l -0.9375,-1.25 -0.939453,-1.25 a 1.6244921,1.250232 0 0 0 -2.8125,0 l -0.939453,1.25 -0.9375,1.25 a 1.6244921,1.250232 0 0 0 1.40625,1.875 h 0.3125 c -0.283662,2.257208 -1.516992,4.303608 -3.421875,5.605469 -2.182786,1.491788 -4.956662,1.808041 -7.419922,0.847656 a 1.50015,1.50015 0 1 0 -1.089844,2.794922 c 1.268744,0.494663 2.598339,0.741615 3.923828,0.75 z"/>
   <path  style="fill:#3f3f3f" d="m 15.927722,25.998047 c 0.44183,0.0028 0.88403,-0.02019 1.322266,-0.07031 1.752944,-0.200497 3.457989,-0.821208 4.957031,-1.845703 C 24.927427,22.222814 26.642362,19.247693 26.939441,16 h 0.4375 a 1.6244921,1.250232 0 0 0 1.40625,-1.875 l -0.9375,-1.25 -0.939453,-1.25 a 1.6244921,1.250232 0 0 0 -2.8125,0 l -0.939453,1.25 -0.9375,1.25 A 1.6244921,1.250232 0 0 0 23.623035,16 h 0.3125 c -0.283662,2.257208 -1.516992,4.303608 -3.421875,5.605469 -2.182786,1.491788 -4.956662,1.808041 -7.419922,0.847656 a 1.50015,1.50015 0 1 0 -1.089844,2.794922 c 1.268744,0.494663 2.598339,0.741615 3.923828,0.75 z"/>
  </g>
 </g>
 <g id="22-22-system-software-update" transform="translate(32,9.9999854)">
  <rect  style="opacity:0.001" width="22" height="22" x="0" y="32"/>
  <path  style="fill:#4285f4;fill-opacity:1" d="m 11,35 c -4.4183,0 -8,3.5817 -8,8 0,4.418 3.5817,8 8,8 4.418,0 8,-3.582 8,-8 0,-4.4183 -3.582,-8 -8,-8 z m 0,2 c 1.495771,0 2.989091,0.560161 4.148438,1.671875 -0.370703,0.143824 -0.713602,0.377967 -0.976563,0.75 l -0.460937,0.654297 C 12.142097,38.621879 9.6974738,38.646276 8.171875,40.171875 7.3909653,40.952785 7.0040093,41.976417 7.0039062,43 h 0.296875 A 0.69923716,0.5746971 1.1588047e-6 0 1 7.90625,43.861328 l -0.6503906,0.925781 -0.6523438,0.925782 a 0.69923716,0.5746971 1.1588047e-6 0 1 -1.2089844,0 L 4.7441406,44.787109 4.09375,43.861328 A 0.69923716,0.5746971 1.1588047e-6 0 1 4.4921875,43.025391 0.69923716,0.5746971 1.1588047e-6 0 1 4.6972656,43 H 5.0019531 C 5.0020237,41.464515 5.5863637,39.929261 6.7578125,38.757812 7.9293912,37.586234 9.464469,37 11,37 Z m 4.962891,3.001953 a 0.69923716,0.5746971 1.1588047e-6 0 1 0.642578,0.285156 l 0.65039,0.925782 0.650391,0.925781 A 0.69923716,0.5746971 1.1588047e-6 0 1 17.507812,42.974609 0.69923716,0.5746971 1.1588047e-6 0 1 17.302734,43 h -0.304687 c -7.1e-5,1.535485 -0.584412,3.070735 -1.755859,4.242188 C 14.070609,48.413764 12.535531,49 11,49 9.5050912,49 8.0125771,48.440509 6.8535156,47.330078 c 0.363732,-0.140945 0.7082551,-0.373476 0.9746094,-0.75 v -0.002 l 0.4609375,-0.654297 c 1.5688391,1.454293 4.0134635,1.429896 5.5390625,-0.0957 C 14.609035,45.047215 14.995991,44.023583 14.996094,43 H 14.699219 A 0.69923716,0.5746971 1.1588047e-6 0 1 14.09375,42.138672 l 0.650391,-0.925781 0.652343,-0.925782 a 0.69923716,0.5746971 1.1588047e-6 0 1 0.566407,-0.285156 z"/>
 </g>
</svg>
