<svg xmlns="http://www.w3.org/2000/svg" width="32" height="32" x="0" y="0" version="1.1" xml:space="preserve">
 <g id="thunderbird">
  <rect style="opacity:0.001" width="32" height="32" x="0" y="0"/>
  <path style="opacity:0.2" d="M 13,3.0003076 C 10.808991,3.0587851 9.523723,5.1285823 8.6015625,6.9221826 8.4263287,7.0150367 8.2506697,7.1047634 8.0761719,7.2014795 6.3354829,8.3717707 4.9096653,9.9927524 3.8085938,11.765933 2.8400527,13.475517 2.2533209,15.377751 2.0351562,17.32648 1.905508,19.302221 2.1310116,21.314016 2.875,23.162417 c 1.4083891,3.174878 4.8947028,6.877482 8.125,6.837891 -0.699845,-0.404632 -2.4515387,-1.99068 -3,-5 0.5822585,1.140374 3.211045,2.65286 4,3 -0.391947,-0.366012 -1.896881,-2.560828 -2,-3.849609 L 4.9746094,22.605777 C 4.5311117,21.202886 4.2670547,19.751229 4.1054688,18.267886 4.0848368,17.936427 4.0426864,17.57797 4.1621094,17.666324 4.6088416,18.374357 5.2244946,18.598307 6,19.000308 5.2645412,17.843571 4.9298826,16.517902 5.0507812,15.142886 5.1720919,13.763184 5.9497658,12.425073 6.8046875,11.433902 6.9060047,11.317912 7.0195993,11.208048 7.125,11.094058 c 0.045713,0.354968 0.1052068,0.709414 0.1464844,1.052734 -0.012278,0.265666 0.1509049,0.822721 0.023437,0.878907 -0.2571483,0.776811 -0.5035642,1.780706 0.1113281,2.458984 0.1947603,-0.877979 1.1531078,-1.302589 1.9082031,-1.671875 0.8535814,-0.370582 1.5454574,-0.930835 2.3906254,-1.320312 1.113704,-0.638871 2.188496,0.302734 3.619141,0.302734 1.367776,0 2.812533,-0.791781 4.166015,-1.400391 0.315,0.325857 0.878677,0.855519 1.125,1.242188 h -0.0039 c 0.705491,1.128284 1.194812,2.43931 1.355469,3.726562 0.200478,1.683718 0.03266,3.361753 -0.962891,4.636719 0.02052,0.0027 1.805099,0.130409 2.996094,-1 -0.849742,6.570236 -4.87845,10.082465 -7,11 2.824197,0.190066 5,-2 5,-2 0.410709,-0.584957 -0.992747,1.398133 -2,2 1.84547,-0.516751 3.081511,-0.70496 4.246094,-1.554688 -4.36e-4,0 0.946341,-0.514535 1.933594,-1.640624 0.131339,-0.14981 0.356974,-0.358689 0.492187,-0.529297 0.08405,-0.106058 0.161991,-0.21375 0.244141,-0.320313 0.01448,-0.01752 0.031,-0.03496 0.04492,-0.05273 2.07791,-2.541944 3.088697,-5.702434 3.013671,-8.566406 C 29.989199,14.864469 28.57991,11.851123 26.212891,9.3596826 24.501088,7.5579016 22.557447,6.3566175 20.806641,5.7600732 18.538258,5.1086894 15.740265,4.8304998 13.738281,5.209292 13.548694,5.272678 13.766011,4.166665 14,4.0003076 c -0.49911,0.046723 -1.030395,1.0027346 -1.462891,1.4160156 -0.03138,0.00734 -0.06991,0.013685 -0.09961,0.021484 C 12.703594,4.9029511 12.587096,4.5377524 13,4.0003076 11.800974,4.22416 11.5663,5.0081756 11.150391,5.7913232 10.992263,5.8447079 10.839043,5.9100178 10.683594,5.9690576 11.077613,4.6627228 11.794408,3.9974476 13,3.0003076 Z"/>
  <path style="fill:#304776" d="M 6.4261835,24.917543 C 7.6411617,26.664997 9.2095227,28.723925 11,29 10.300155,28.595368 8.5484613,27.00932 8,24 c 0.5822585,1.140374 3.211045,2.65286 4,3 -0.391947,-0.366012 -1.896881,-2.561219 -2,-3.85 L 4.9556779,21.599245 c 0.031428,0.04782 0.1430917,1.451275 1.4705056,3.318298 z"/>
  <path style="opacity:0.2" d="M 24.387733,13.494081 15.292862,10.304614 5.5460923,10.954089 3.058517,14.058441 c 0.4426297,2.869627 0.1676173,5.976021 1.709075,8.483118 L 22,28 24.373175,21.375843 Z"/>
  <path style="fill:#ebebeb" d="M 24.387733,12.494081 15.292862,9.3046142 5.5460923,9.9540887 3.058517,13.058441 c 0.4426297,2.869627 0.1676173,5.976021 1.709075,8.483118 L 22,27 24.373175,20.375843 Z"/>
  <path style="fill:#3f7da7;fill-rule:evenodd" d="M 5.7794092,9.767613 7.4214653,10.002133 7.8722805,7.8045804 6.9706494,8.2440907 Z"/>
  <path style="opacity:0.2" d="M 23.647957,15.243162 22.298608,10.810565 5.7943289,10.64492 5.7007531,10.760225 5.5460923,10.954089 11.794835,19.79053 Z"/>
  <path style="fill:#f7f7f7" d="M 23.647957,14.243162 22.298608,9.8105653 5.7943289,9.6449204 5.7007531,9.7602252 5.5460923,9.9540887 11.794835,18.79053 Z"/>
  <path style="fill:#2f67a4" d="m 15.257336,4.1685036 c -0.0017,3.96e-4 -2.075098,0.00999 -2.980156,0.3006117 -1.508106,0.3480266 -2.8611361,0.9895862 -4.2017312,1.7326162 -1.740689,1.1702912 -3.1662484,2.7906523 -4.26732,4.5638325 -0.9685411,1.709584 -1.5554445,3.61122 -1.7736091,5.559949 -0.1296483,1.975741 0.096358,3.988932 0.8403464,5.837333 C 4.2832552,25.337724 7.7697028,29.039591 11,29 10.589682,28.936733 10.277236,28.521214 9.8918278,28.295891 8.5954558,27.537986 7.362729,26.264539 6.4261835,24.917543 5.0987695,23.050521 4.9873466,21.647708 4.955919,21.599883 l 0.017763,0.0055 C 4.5301843,20.202492 4.2662272,18.751685 4.1046413,17.268342 4.0840093,16.936883 4.0426083,16.577398 4.1620313,16.665752 4.6087635,17.373785 5.2244946,17.597999 6,18 5.2645412,16.843263 4.9291013,15.516996 5.05,14.14198 5.1713106,12.762278 5.9497596,11.424696 6.8046813,10.433525 9.0444771,7.8693603 12.312661,5.7949666 15.257336,4.1685036 Z"/>
  <path style="opacity:0.1;fill:#ffffff" d="m 15.257812,4.1679688 c -0.0017,3.96e-4 -2.07541,0.01016 -2.980468,0.3007812 -1.508106,0.3480266 -2.860577,0.9893919 -4.2011721,1.7324219 -1.740689,1.1702912 -3.1665066,2.7912729 -4.2675781,4.5644531 -0.9685411,1.709584 -1.5552729,3.611818 -1.7734376,5.560547 -0.036687,0.559089 -0.037621,1.119184 -0.013672,1.679687 0.00528,-0.22685 -0.00117,-0.453515 0.013672,-0.679687 C 2.2533208,15.377443 2.8400527,13.475209 3.8085938,11.765625 4.9096654,9.992445 6.3354829,8.3714631 8.0761719,7.2011719 9.416767,6.4581419 10.769238,5.8167766 12.277344,5.46875 12.554079,5.3798881 12.941175,5.3233817 13.34375,5.2792969 13.986896,4.8920507 14.630946,4.5142122 15.257812,4.1679688 Z"/>
  <path style="fill:#4a96e1" d="M 12.999992,2.0000033 C 10.630328,2.0632491 9.2995673,4.4899377 8.3657101,6.3628717 8.0293371,6.9581831 7.6806746,7.664597 7.3868613,8.2268881 6.8245255,9.1129915 7.1545912,10.17718 7.2711476,11.146623 c -0.012278,0.265666 0.1504684,0.823433 0.023001,0.879619 -0.2571483,0.776811 -0.5021886,1.779195 0.1127037,2.457473 0.1947603,-0.877979 1.1529417,-1.301021 1.908037,-1.670307 0.8535807,-0.370582 1.5445067,-0.931983 2.3896747,-1.32146 1.113704,-0.63887 2.189087,0.302528 3.619732,0.302528 1.367777,0 2.812717,-0.790601 4.166199,-1.399211 0.315001,0.325857 0.878397,0.855127 1.12472,1.241796 h -0.0035 c 0.705491,1.128284 1.194628,2.439901 1.355285,3.727153 0.200478,1.683718 0.0325,3.35997 -0.96305,4.634936 -1.18e-4,2e-5 -0.0079,0.0017 -0.0079,0.0017 2.3e-5,0 0.0069,-1.8e-5 0.007,0 C 21.02357,20.00355 22.809004,20.130409 24,19 c -0.849742,6.570236 -4.87845,10.082465 -7,11 2.824197,0.190066 5,-2 5,-2 0.410709,-0.584957 -0.992748,1.398133 -2,2 1.845469,-0.516751 3.080933,-0.704546 4.245516,-1.554273 -4.36e-4,0 0.946324,-0.515161 1.933576,-1.64125 0.131339,-0.14981 0.356986,-0.357691 0.492199,-0.528299 0.08405,-0.106058 0.161748,-0.214819 0.243898,-0.321382 0.01448,-0.01752 0.03099,-0.03418 0.04491,-0.05195 2.07791,-2.541944 3.089855,-5.702403 3.014829,-8.566375 0.01459,-3.471777 -1.394493,-6.485542 -3.761512,-8.9769823 C 24.501613,6.5577077 22.557514,5.3554337 20.806708,4.7588894 18.538325,4.1075056 15.739608,3.8298055 13.737624,4.2085977 13.548037,4.2719837 13.766011,3.1663574 14,3 13.438695,3.052545 12.830316,4.296728 12.375493,4.5736653 12.748755,3.9552539 12.551012,3.5844118 13,3 11.330878,3.3116171 11.535838,4.7042094 10.509733,5.67696 10.847793,3.8694193 11.593223,3.1635396 13,2 Z"/>
  <path style="fill:#4271a3" d="M 8.310329,12 C 11.643979,11.90405 9.5508374,9.8379792 14,5.9999995 10.375291,7.8767699 6.9252559,7.8741704 8.3146296,12 h -0.0042 z"/>
  <path style="fill:#ffffff" d="M 10.806094,10.319479 C 10.486456,10.903305 9.7406318,11.13861 9.3280448,10.918843 8.9063938,10.699076 8.9086608,9.9642993 9.2350644,9.3804724 9.5501688,8.7966455 10.94207,9.0585919 10.948871,9.0585919 c 0.0066,0 0.176817,0.6792796 -0.142824,1.2608871 z"/>
  <path style="fill:#5c5f60" d="m 8.9104789,12.984083 c 0,0 0.1795104,-0.173232 0.085935,-0.490002 C 7.8773937,12.864068 7.3279113,11.79293 7.3318158,11.79293 7.3355958,11.79293 6.4934583,14 7.4987041,15 7.5857831,14.176395 8.8688874,13.027164 8.8727919,13.027164"/>
  <path style="opacity:0.1;fill:#ffffff" d="M 13,2 C 10.630336,2.0632458 9.2990916,4.4903472 8.3652344,6.3632812 8.0288614,6.9585926 7.680532,7.6642714 7.3867188,8.2265625 7.0440557,8.7665154 7.0414935,9.3739022 7.1113281,9.984375 7.1546078,9.7232236 7.2341658,9.4669486 7.3867188,9.2265625 7.680532,8.6642714 8.0288614,7.9585926 8.3652344,7.3632812 9.0825827,5.9245752 10.040839,4.1703449 11.517578,3.4003906 11.901413,2.9350882 12.383558,2.5098563 13,2 Z m 0,1 C 11.593223,4.1635396 10.847826,4.8701937 10.509766,6.6777344 11.435604,5.8000366 11.371909,4.5877566 12.574219,4.1289062 12.689935,3.7457345 12.66918,3.4306023 13,3 Z m 1,0 C 13.629557,3.034678 13.24245,3.5810509 12.888672,4.0332031 12.928875,4.0238686 12.957408,4.0079517 13,4 12.551012,4.5844118 12.748262,4.9558073 12.375,5.5742188 12.744374,5.3493104 13.215223,4.4948115 13.679688,4.1503906 13.621671,3.9345587 13.803487,3.1397136 14,3 Z m 1.367188,1.0429688 c -0.525978,0.015484 -1.021819,0.065387 -1.484376,0.1445312 -0.178331,0.3554668 -0.300838,1.0737436 -0.144531,1.0214844 2.001984,-0.3787922 4.799977,-0.1006026 7.06836,0.5507812 1.750806,0.5965443 3.694447,1.7978284 5.40625,3.5996094 2.298812,2.419649 3.682908,5.335591 3.748047,8.681641 0.0082,-0.235855 0.01976,-0.47264 0.01367,-0.705078 C 29.989199,13.864161 28.57991,10.850815 26.212891,8.359375 24.501088,6.557594 22.557447,5.3563099 20.806641,4.7597656 19.105353,4.2712278 17.105244,3.9918026 15.367188,4.0429688 Z"/>
 </g>
 <g id="22-22-thunderbird" transform="translate(27,5)">
  <rect style="opacity:0.001" width="22" height="22" x="5" y="5"/>
  <path style="opacity:0.35;fill:#dfdfdf;fill-opacity:1" d="m 17.818359,13.310582 c -0.567804,0.231761 -1.10149,0.484375 -1.824218,0.484375 -0.02606,3.7e-4 -0.05212,-2.84e-4 -0.07813,-0.002 -1.291809,-0.101243 -1.894597,-0.02099 -2.837886,0.898434 -0.07581,0.07372 -0.162828,0.13518 -0.257812,0.181641 -0.05975,0.02922 -0.11626,0.05116 -0.173828,0.07617 -0.06556,0.04068 -0.135855,0.07308 -0.208985,0.09766 l 1.556641,1.748047 4.914062,-1.544922 c 0.04003,-0.147765 0.07825,-0.316126 0.08399,-0.300781 -0.2267,-0.922367 -0.496956,-1.302578 -1.173829,-1.638672 z m -5.673828,1.90625 c -0.208772,0.439056 -0.699741,0.675018 -1.173828,0.537109 -4e-5,0.262589 -0.07252,0.548361 -0.0098,0.783203 0.102689,0.390092 -0.03903,0.803687 -0.359375,1.048829 0.191507,0.669017 0.438161,1.310166 0.761719,1.921874 l 6.205078,1.902344 c 0.03813,-0.04568 0.07765,-0.08161 0.115235,-0.128906 0.389406,-0.490041 0.754454,-1.068637 1.054687,-1.724609 -0.0088,0.0042 -0.0247,0.01162 -0.0332,0.01563 -0.09192,0.04338 -0.167699,0.07808 -0.224609,0.103515 -0.02846,0.01272 -0.05156,0.02165 -0.07422,0.03125 -0.01133,0.0048 -0.02051,0.01028 -0.03906,0.01758 -0.0093,0.0037 -0.01904,0.0067 -0.04492,0.01563 -0.01294,0.0045 -0.06611,0.01945 -0.06641,0.01953 -1.5e-4,4e-5 -0.08975,0.02147 -0.08984,0.02148 -9.2e-5,10e-5 -0.257733,0.0053 -0.289063,0.0059 -0.774371,-0.09183 -1.15041,-0.995198 -0.669922,-1.609375 0.0027,-0.0034 0.01097,-0.01603 0.01367,-0.01953 0.243167,-0.313175 0.751662,-1.042657 1.158203,-1.765625 0.112572,-0.200191 0.181438,-0.37224 0.271485,-0.560547 l -4.656251,1.462891 z"/>
  <path style="fill:#dfdfdf;fill-opacity:1" d="m 14.396657,7.7953428 c -1.20476,0.032155 -1.859552,1.1267711 -2.367188,2.1230469 -0.185205,0.09344 -0.373364,0.1757623 -0.55664,0.2773433 -0.99468,0.668738 -1.8102696,1.59613 -2.4394534,2.609375 -0.5534521,0.976906 -0.8890064,2.062222 -1.0136719,3.175782 -0.074085,1.128995 0.055332,2.279708 0.4804688,3.335937 0.3295182,0.928332 0.9097504,1.947786 1.6523435,2.583262 0.985875,0.657857 1.769874,1.133727 2.845703,1.087891 -2.239841,-1.791482 -3.4216124,-3.939763 -3.7949215,-6.468027 -0.011789,-0.189405 -0.035038,-0.394238 0.033203,-0.34375 0.2552755,0.40459 0.3146666,0.389425 0.7578125,0.61914 -0.3820351,-1.429782 0.128135,-3.020414 0.751953,-4.181641 0.07805,-0.08935 0.162801,-0.175074 0.246094,-0.261719 l 0.03906,0.0059 c 0.01402,0.22327 0.04043,0.448037 0.06641,0.664063 -0.0048,0.104082 0.0616,0.281849 0.08203,0.396484 -0.01537,0.04023 -0.09877,0.280853 -0.130859,0.582031 -0.01935,0.119286 -0.02002,0.236507 -0.002,0.351563 0.0032,0.02268 0.005,0.0441 0.0098,0.06641 0.0097,0.04048 0.02065,0.08136 0.03711,0.121094 0.03475,0.09384 0.08104,0.182539 0.156242,0.255859 0.02782,-0.125426 0.08458,-0.226611 0.16211,-0.310547 0.01936,-0.02096 0.04863,-0.03376 0.07031,-0.05273 0.07025,-0.05953 0.143598,-0.116958 0.222656,-0.160156 0.01556,-0.0085 0.01582,-0.0058 0.03125,-0.01367 0.196357,-0.100226 0.389587,-0.16211 0.390625,-0.16211 l 0.01563,-0.01563 c 0.08124,-0.03308 0.163188,-0.06874 0.238282,-0.105469 1.127185,-1.098669 2.193155,-1.290982 3.613281,-1.179687 0.781587,0 1.226582,-0.203004 2,-0.550781 1.186546,0.49605 1.695811,1.270693 2,2.550781 0.114559,0.962125 -1.431114,3.269495 -2,3.998047 -6.8e-5,1.1e-5 -0.0039,0.002 -0.0039,0.002 1.2e-5,0 0.0039,-10e-6 0.0039,0 0.01173,0.0016 1.717869,-0.760302 2.398438,-1.40625 -0.485567,3.754421 -3.186124,6.081862 -4.398438,6.606168 0.936965,0.06306 2.220246,-0.52096 3.103516,-1.060547 -0.403265,0.43212 -0.834566,0.89984 -1.103516,1.060547 1.054554,-0.295286 2.053274,-0.403114 2.71875,-0.888672 -2.49e-4,0 0.539372,-0.493939 1.103516,-1.137418 0.07505,-0.08561 0.203986,-0.203291 0.28125,-0.300781 0.04803,-0.06061 0.09368,-0.122701 0.140625,-0.183594 0.0083,-0.01001 0.01744,-0.02109 0.02539,-0.03125 1.187377,-1.452539 1.765529,-3.257976 1.722657,-4.894531 0.0083,-1.983918 -0.797808,-3.705273 -2.150391,-5.128954 C 20.857921,10.400564 19.746711,9.7690828 18.74625,9.4282003 17.71093,9.1309001 16.492766,8.980078 15.457188,9.0375753 c -0.103696,0.00127 -0.391212,0.00968 -0.783203,0.042969 -0.04584,-0.086358 0.0112,-0.4068056 0.123047,-0.4863281 -0.245162,0.02295 -0.471027,0.3418588 -0.679688,0.5625 -0.03512,0.00685 -0.07117,0.013798 -0.103516,0.021484 0.18793,-0.3251345 0.379542,-0.6908926 0.603516,-0.9824218 -0.69386,0.1295199 -0.99666,0.6750525 -1.335938,1.1777344 -0.09792,0.032234 -0.192967,0.071367 -0.289062,0.1074219 0.251668,-0.7261876 0.724921,-1.123638 1.404297,-1.6855469 z m -1.798828,4.2001992 c 0.194105,-0.0038 0.369394,0.0293 0.371094,0.0293 0.0033,0 0.08755,0.340058 -0.07227,0.63086 -0.159818,0.291911 -0.531988,0.408711 -0.73828,0.298828 -0.210825,-0.109883 -0.210076,-0.477619 -0.04687,-0.769531 0.07878,-0.145956 0.292222,-0.185708 0.486328,-0.189454 z"/>
 </g>
</svg>
