<svg xmlns="http://www.w3.org/2000/svg" width="32" height="32" version="1.1">
 <g id="22-22-tools-report-bug" transform="translate(36.915254,-1.025424)">
  <rect style="opacity:0.001" width="22" height="22" x="0" y="10"/>
  <path style="fill:#f44336" d="M 3.125,13 C 2,13 2,14.142578 2,14.142578 V 25.875 c 0,1.143176 1.125,1.142578 1.125,1.142578 H 7.5507812 C 7.2610936,27.089594 6.9815288,27.300445 7,27.861328 V 29 h 8 v -1.138672 c 0,-0.561433 -0.253862,-0.7719 -0.511719,-0.84375 H 18.875 C 20,27.017578 20,25.875 20,25.875 V 14.142578 C 20,14.142578 20,13 18.875,13 Z M 4,15 h 14 v 9.986328 l -14,0.02734 z m 5,2 v 2 h 1 v -2 z m 3,0 v 2 h 1 v -2 z m -4,4 v 1 h 6 v -1 z m 6,1 v 1 h 1 V 22 Z M 8,22 H 7 v 1 h 1 z"/>
 </g>
 <g id="tools-report-bug">
  <rect style="opacity:0.001" width="32" height="32" x="0" y="0"/>
  <g transform="translate(0,-1)">
   <rect style="opacity:0.2" width="16" height="21" x="8" y="8" rx="1.25" ry="1.25"/>
   <rect style="fill:#8e8e8e" width="16" height="21" x="8" y="7" rx="1.25" ry="1.25"/>
   <rect style="opacity:0.2" width="26" height="20" x="3" y="6" rx="1.25" ry="1.25"/>
   <path style="fill:#3f3f3f;fill-opacity:1" d="m 3,22 v 1.75 C 3,24.4425 3.5575,25 4.25,25 h 23.5 C 28.4425,25 29,24.4425 29,23.75 V 22 Z"/>
   <path style="fill:#f34235;fill-opacity:1" d="M 4.25,5 C 3.5575,5 3,5.5575 3,6.25 V 22 H 29 V 6.25 C 29,5.5575 28.4425,5 27.75,5 Z"/>
   <rect style="opacity:0.1;fill:#000000" width="26" height="1" x="3" y="22"/>
   <path style="fill:#ffffff;opacity:0.2" d="M 4.25 5 C 3.5575 5 3 5.5575 3 6.25 L 3 7.25 C 3 6.5575 3.5575 6 4.25 6 L 27.75 6 C 28.442 6 29 6.5575 29 7.25 L 29 6.25 C 29 5.5575 28.442 5 27.75 5 L 4.25 5 z"/>
   <path style="opacity:0.2" d="m 13,10 v 3 h 2 v -3 z m 4,0 v 3 h 2 v -3 z m -5,5 v 2 h 8 v -2 z m 0,2 h -2 v 2 h 2 z m 8.167969,-0.05273 V 19 H 22 v -2.052734 z"/>
   <path style="fill:#ffffff" d="m 13,9 v 3 h 2 V 9 Z m 4,0 v 3 h 2 V 9 Z m -5,5 v 2 h 8 v -2 z m 0,2 h -2 v 2 h 2 z m 8.167969,-0.05273 V 18 H 22 v -2.052734 z"/>
  </g>
 </g>
</svg>
