<svg xmlns="http://www.w3.org/2000/svg" width="32" height="32" version="1.1">
 <g id="touchpad_enabled" transform="translate(0,32)">
  <rect style="opacity:0.001" width="32" height="32" x="0" y="-32"/>
  <g transform="translate(0,-32)">
   <rect style="fill:#c4c4c4" width="26" height="26" x="-29" y="-29" rx="1.3" ry="1.3" transform="matrix(0,-1,-1,0,0,0)"/>
   <path style="opacity:0.1;fill:#dfdfdf" d="M 4.3008,3 C 3.5806,3 3,3.5806 3,4.3008 v 1 C 3,4.5806 3.5806,4 4.3008,4 h 23.398 c 0.72,0 1.301,0.5806 1.301,1.3008 v -1 C 28.9998,3.5806 28.4188,3 27.6988,3 Z"/>
   <g style="fill:#5d5d5d">
    <rect width="11" height="6" x="4" y="22" rx="1.222" ry="1.2"/>
    <rect width="11" height="6" x="17" y="22" rx="1.222" ry="1.2"/>
    <rect width="4" height="1" x="24" y="7"/>
    <rect width="4" height="1" x="24" y="9"/>
    <rect width="4" height="1" x="24" y="11"/>
    <rect width="4" height="1" x="24" y="13"/>
    <rect width="4" height="1" x="24" y="15"/>
    <rect width="4" height="1" x="24" y="17"/>
   </g>
   <path style="opacity:0.2" d="m 3,27.699 v 1 C 3,29.419 3.5806,30 4.3008,30 h 23.398 c 0.72,0 1.301,-0.581 1.301,-1.301 v -1 c 0,0.72 -0.581,1.301 -1.301,1.301 H 4.3008 c -0.7204,0 -1.301,-0.581 -1.301,-1.301 z"/>
  </g>
 </g>
 <g id="touchpad_disabled">
  <rect style="opacity:0.001" width="32" height="32" x="0" y="-32"/>
  <g transform="translate(0,-32)">
   <rect style="fill:#c4c4c4" width="26" height="26" x="-29" y="-29" rx="1.3" ry="1.3" transform="matrix(0,-1,-1,0,0,0)"/>
   <path style="opacity:0.1;fill:#dfdfdf" d="M 4.3008,3 C 3.5806,3 3,3.5806 3,4.3008 v 1 C 3,4.5806 3.5806,4 4.3008,4 h 23.398 c 0.72,0 1.301,0.5806 1.301,1.3008 v -1 C 28.9998,3.5806 28.4188,3 27.6988,3 Z"/>
   <g style="fill:#5d5d5d">
    <rect width="11" height="6" x="4" y="22" rx="1.222" ry="1.2"/>
    <rect width="11" height="6" x="17" y="22" rx="1.222" ry="1.2"/>
    <rect width="4" height="1" x="24" y="7"/>
    <rect width="4" height="1" x="24" y="9"/>
    <rect width="4" height="1" x="24" y="11"/>
    <rect width="4" height="1" x="24" y="13"/>
    <rect width="4" height="1" x="24" y="15"/>
    <rect width="4" height="1" x="24" y="17"/>
   </g>
   <path style="opacity:0.2" d="m 3,27.699 v 1 C 3,29.419 3.5806,30 4.3008,30 h 23.398 c 0.72,0 1.301,-0.581 1.301,-1.301 v -1 c 0,0.72 -0.581,1.301 -1.301,1.301 H 4.3008 c -0.7204,0 -1.301,-0.581 -1.301,-1.301 z"/>
   <circle style="fill:#db3c30" cx="24" cy="24" r="7"/>
   <path style="opacity:0.2" d="M 30.977,24.459 A 7,7 0 0 1 24,31 7,7 0 0 1 17.023,24.541 7,7 0 0 0 17,25 a 7,7 0 0 0 7,7 7,7 0 0 0 7,-7 7,7 0 0 0 -0.02344,-0.54102 z"/>
   <g style="fill:#dfdfdf" transform="matrix(0.70711,-0.70711,0.70711,0.70711,-9.9411,24)">
    <rect style="fill:#ffffff" width="8" height="2" x="20" y="23"/>
    <rect style="fill:#ffffff" width="8" height="2" x="20" y="-25" transform="rotate(90)"/>
   </g>
  </g>
 </g>
 <g id="22-22-touchpad_enabled" transform="translate(-393.0002,175.00336)">
  <path style="opacity:0.001" d="m 425.0002,-165.00336 h 22 c 0,0 0,0 0,0 v 22 c 0,0 0,0 0,0 h -22 c 0,0 0,0 0,0 v -22 c 0,0 0,0 0,0 z"/>
  <path style="fill:#dfdfdf" d="m 428.19942,-162.00336 c -1.2,0 -1.19922,1.23047 -1.19922,1.23047 v 13.53906 c 0,0 -7.8e-4,1.23047 1.19922,1.23047 h 15.60156 c 0,0 1.19922,3e-4 1.19922,-1.23047 v -13.53906 c 0,-1.23077 -1.19922,-1.23047 -1.19922,-1.23047 z m 12.80078,2 h 2 v 1 h -2 z m 0,2 h 2 v 1 h -2 z m 0,2 h 2 v 1 h -2 z m 0,2 h 2 v 1 h -2 z m -12,3 h 6 v 3 h -6 z m 8,0 h 6 v 3 h -6 z"/>
 </g>
 <g id="22-22-touchpad_disabled" transform="translate(-415.0002,143.00336)">
  <path style="opacity:0.001" d="m 447.0002,-165.00336 h 22 c 0,0 0,0 0,0 v 22 c 0,0 0,0 0,0 h -22 c 0,0 0,0 0,0 v -22 c 0,0 0,0 0,0 z"/>
  <path style="opacity:0.35;fill:#dfdfdf" d="m 450.19942,-162.00336 c -1.2,0 -1.19922,1.23047 -1.19922,1.23047 v 13.53906 c 0,0 -7.8e-4,1.23047 1.19922,1.23047 h 15.60156 c 0,0 1.19922,3e-4 1.19922,-1.23047 v -13.53906 c 0,-1.23077 -1.19922,-1.23047 -1.19922,-1.23047 z m 12.80078,2 h 2 v 1 h -2 z m 0,2 h 2 v 1 h -2 z m 0,2 h 2 v 1 h -2 z m 0,2 h 2 v 1 h -2 z m -12,3 h 6 v 3 h -6 z m 8,0 h 6 v 3 h -6 z"/>
 </g>
</svg>
