<svg xmlns="http://www.w3.org/2000/svg" width="32" height="32" version="1.1">
 <g id="update-low">
  <rect style="opacity:0.001" width="32" height="32" x="0" y="0"/>
  <g transform="translate(-1,1.4317501e-4)">
   <path style="opacity:0.2" d="m 15.927613,29.999718 c 0.560622,0.0035 1.126071,-0.02559 1.689923,-0.08985 2.237634,-0.254997 4.417218,-1.045757 6.332309,-2.349796 2.820395,-1.920485 4.734979,-4.79266 5.583411,-8.002588 0.660909,-0.300914 1.256149,-0.757194 1.727172,-1.382923 0.935035,-1.242142 1.035838,-3.471298 0,-4.84804 a 3.0115789,3.0005382 0 0 0 0,-0.002 l -0.941024,-1.250099 a 3.0115789,3.0005382 0 0 0 -0.002,-0.002 l -0.942985,-1.2501 C 28.337625,9.4477225 26.868382,9.0000045 25.555468,9.0000045 c -1.312914,0 -2.782157,0.447718 -3.81899,1.8224105 l -0.942985,1.250099 a 3.0115789,3.0005382 0 0 0 -0.002,0.002 l -0.941024,1.250099 a 3.0115789,3.0005382 0 0 0 0,0.002 c -1.035838,1.376742 -0.935035,3.605898 0,4.84804 0.129089,0.171489 0.32603,0.234339 0.472472,0.380891 -0.366891,0.614874 -0.859027,1.156741 -1.472311,1.574343 -1.373489,0.935247 -3.10291,1.131925 -4.654148,0.529339 l 0.04705,0.01758 c -1.172805,-0.478007 -2.638144,-0.438132 -3.73077,0.109384 -1.092626,0.547516 -1.80519,1.444249 -2.187882,2.422067 -0.38269,0.977818 -0.467497,2.118146 -0.03529,3.258071 0.429684,1.133063 1.473242,2.140715 2.652555,2.584096 1.612823,0.622725 3.303038,0.93869 4.985468,0.949294 z"/>
   <path style="fill:#3281ff;fill-opacity:1" d="m 15.927613,28.999714 c 0.560622,0.0035 1.126071,-0.02559 1.689923,-0.08985 2.237634,-0.254997 4.417218,-1.045757 6.332309,-2.349796 2.820395,-1.920485 4.734979,-4.79266 5.583411,-8.002588 0.660909,-0.300914 1.256149,-0.757194 1.727172,-1.382923 0.935035,-1.242142 1.035838,-3.471298 0,-4.84804 a 3.0115789,3.0005382 0 0 0 0,-0.002 l -0.941024,-1.250099 a 3.0115789,3.0005382 0 0 0 -0.002,-0.002 l -0.942985,-1.2501 C 28.337625,8.447718 26.868382,8 25.555468,8 24.242554,8 22.773311,8.447718 21.736478,9.822411 l -0.942985,1.250099 a 3.0115789,3.0005382 0 0 0 -0.002,0.002 l -0.941024,1.250099 a 3.0115789,3.0005382 0 0 0 0,0.002 c -1.035838,1.376742 -0.935035,3.605898 0,4.84804 0.129089,0.171489 0.32603,0.234339 0.472472,0.380891 -0.366891,0.614874 -0.859027,1.156741 -1.472311,1.574343 -1.373489,0.935247 -3.10291,1.131925 -4.654148,0.529339 l 0.04705,0.01758 c -1.172805,-0.478007 -2.638144,-0.438132 -3.73077,0.109384 -1.092626,0.547516 -1.80519,1.444249 -2.187882,2.422067 -0.38269,0.977818 -0.467497,2.118146 -0.03529,3.258071 0.429684,1.133063 1.473242,2.140715 2.652555,2.584096 1.612823,0.622725 3.303038,0.93869 4.985468,0.949294 z"/>
   <path style="opacity:0.2" d="M 17.072266,3 C 16.511644,2.99647 15.946665,3.0255878 15.382812,3.0898438 13.145179,3.344841 10.965872,4.1354146 9.0507812,5.4394531 6.2303866,7.3599378 4.3152294,10.233432 3.4667969,13.443359 2.805888,13.744273 2.2112573,14.200443 1.7402344,14.826172 c -0.93503502,1.242142 -1.03583802,3.470914 0,4.847656 a 3.0115789,3.0005382 0 0 0 0,0.002 l 0.9394531,1.25 a 3.0115789,3.0005382 0 0 0 0.00195,0.002 l 0.9433594,1.25 C 4.6618337,23.552333 6.1323984,24 7.4453125,24 8.7582266,24 10.226839,23.552427 11.263672,22.177734 l 0.943359,-1.25 a 3.0115789,3.0005382 0 0 0 0.002,-0.002 l 0.941407,-1.25 a 3.0115789,3.0005382 0 0 0 0,-0.002 c 1.035838,-1.376742 0.935035,-3.605514 0,-4.847656 -0.129089,-0.171489 -0.326215,-0.234307 -0.472657,-0.38086 0.366891,-0.614874 0.85742,-1.156616 1.470704,-1.574218 1.373488,-0.935247 3.103058,-1.133836 4.654296,-0.53125 l -0.04687,-0.01758 c 0.297303,0.121173 0.613438,0.206937 0.9375,0.261718 0.05276,-0.08577 0.09581,-0.177478 0.15625,-0.257812 v -0.002 l 0.941407,-1.25 0.002,-0.002 0.943359,-1.2500004 c 0.890065,-1.1800994 2.095069,-1.6524771 3.25,-1.7695312 -0.0054,-0.4974277 -0.08125,-1.0075016 -0.27539,-1.5195313 C 24.281253,5.4001411 23.237907,4.3925996 22.058594,3.9492188 20.445771,3.3264935 18.754696,3.0106042 17.072266,3 Z"/>
   <path style="fill:#43ffc5;fill-opacity:1" d="M 17.072375,2.0002858 C 16.511753,1.9967556 15.946304,2.0258809 15.382452,2.090137 13.144818,2.345134 10.965234,3.1358943 9.0501428,4.4399328 6.2297481,6.3604175 4.3151644,9.2325934 3.4667319,12.442521 2.805823,12.743435 2.210583,13.199715 1.7395601,13.825444 c -0.935035,1.242142 -1.035838,3.471298 0,4.84804 a 3.0115789,3.0005382 0 0 0 0,0.002 l 0.9410243,1.250099 a 3.0115789,3.0005382 0 0 0 0.00196,0.002 l 0.9429849,1.2501 C 4.662363,22.552282 6.1316059,23 7.44452,23 c 1.3129141,0 2.782157,-0.447718 3.81899,-1.822411 l 0.942985,-1.250099 a 3.0115789,3.0005382 0 0 0 0.002,-0.002 l 0.941024,-1.250099 a 3.0115789,3.0005382 0 0 0 0,-0.002 c 1.035838,-1.376742 0.935035,-3.605898 0,-4.84804 -0.129089,-0.171489 -0.32603,-0.234339 -0.472472,-0.380891 0.366891,-0.614874 0.859027,-1.156741 1.472311,-1.574343 1.373489,-0.935247 3.10291,-1.131925 4.654148,-0.529339 l -0.04705,-0.01758 c 1.172805,0.478007 2.638144,0.438132 3.73077,-0.109384 1.092626,-0.547516 1.80519,-1.4442495 2.187882,-2.4220673 0.38269,-0.9778178 0.467497,-2.1181455 0.03529,-3.2580712 C 24.280714,4.4006135 23.237156,3.3929609 22.057843,2.94958 20.44502,2.3268547 18.754805,2.01089 17.072375,2.0002858 Z"/>
   <path style="opacity:0.1" d="M 17.072266,6.0019576 C 16.630436,5.9991626 16.188236,6.0221457 15.75,6.0722701 13.997056,6.2727677 12.292011,6.893478 10.792969,7.9179733 8.0725613,9.77719 6.3576256,12.752311 6.0605469,16.000004 h -0.4375 a 1.6244921,1.250232 0 0 0 -1.40625,1.875 l 0.9375,1.25 0.9394531,1.25 a 1.6244921,1.250232 0 0 0 2.8125,0 l 0.9394531,-1.25 0.9374999,-1.25 a 1.6244921,1.250232 0 0 0 -1.4062499,-1.875 h -0.3125 C 9.3481147,13.742796 10.581445,11.696396 12.486328,10.394536 14.669114,8.9027473 17.44299,8.5864947 19.90625,9.5468795 a 1.50015,1.50015 0 1 0 1.089844,-2.7949219 c -1.268744,-0.4946627 -2.598339,-0.7416149 -3.923828,-0.75 z"/>
   <path style="fill:#3f3f3f" d="M 17.072266,5.0019531 C 16.630436,4.9991581 16.188236,5.0221412 15.75,5.0722656 13.997056,5.2727632 12.292011,5.8934735 10.792969,6.9179688 8.0725613,8.7771855 6.3576256,11.752307 6.0605469,15 h -0.4375 a 1.6244921,1.250232 0 0 0 -1.40625,1.875 l 0.9375,1.25 0.9394531,1.25 a 1.6244921,1.250232 0 0 0 2.8125,0 l 0.9394531,-1.25 0.9374999,-1.25 A 1.6244921,1.250232 0 0 0 9.3769531,15 h -0.3125 C 9.3481147,12.742792 10.581445,10.696392 12.486328,9.3945312 14.669114,7.9027428 17.44299,7.5864902 19.90625,8.546875 a 1.50015,1.50015 0 1 0 1.089844,-2.7949219 c -1.268744,-0.4946627 -2.598339,-0.7416149 -3.923828,-0.75 z"/>
   <path style="opacity:0.2;fill:#ffffff" d="M 17.072266,2 C 16.511644,1.99647 15.946664,2.025588 15.382812,2.089844 13.145179,2.3448407 10.965872,3.1354146 9.0507812,4.4394531 6.2303866,6.3599378 4.3152294,9.2334318 3.4667969,12.443359 2.805888,12.744273 2.2112573,13.200443 1.7402344,13.826172 1.167218,14.587392 0.91001218,15.717641 1.0332031,16.796875 1.1070624,16.05675 1.3443703,15.352055 1.7402344,14.826172 2.2112573,14.200443 2.805888,13.744273 3.4667969,13.443359 4.3152294,10.233431 6.2303866,7.3599378 9.0507812,5.4394531 10.965872,4.1354146 13.145179,3.3448407 15.382812,3.0898438 15.946664,3.0255876 16.511644,2.9964698 17.072266,3 c 1.68243,0.010604 3.373505,0.3264935 4.986328,0.9492188 1.179313,0.4433809 2.222659,1.4509223 2.652344,2.5839843 0.133803,0.3529016 0.202937,0.7045895 0.24414,1.0527344 0.07274,-0.6608972 0.02051,-1.3547376 -0.24414,-2.0527344 C 24.281253,4.4001411 23.237907,3.3925997 22.058594,2.9492188 20.445771,2.3264935 18.754696,2.0106042 17.072266,2 Z m -3.939454,11.810547 c -0.166201,0.201694 -0.321756,0.411331 -0.455078,0.634765 0.146442,0.146552 0.343568,0.209371 0.472657,0.38086 0.395864,0.525883 0.631218,1.230578 0.705078,1.970703 0.123191,-1.079234 -0.132062,-2.209483 -0.705078,-2.970703 -0.005,-0.0066 -0.01242,-0.0093 -0.01758,-0.01563 z"/>
   <path style="fill:#3286ff;fill-opacity:1" d="m 31.260428,12.326517 v -0.002 l -0.941024,-1.250099 -0.002,-0.002 -0.942985,-1.2501 C 28.337625,8.447718 26.868382,8 25.555468,8 24.242554,8 22.773311,8.447718 21.736478,9.822411 l -0.942985,1.250099 -0.002,0.002 -0.941024,1.250099 v 0.002 z"/>
   <path style="opacity:0.1" d="m 15.927722,26.998051 c 0.44183,0.0028 0.88403,-0.02019 1.322266,-0.07031 1.752944,-0.200497 3.457989,-0.821208 4.957031,-1.845703 2.720408,-1.85922 4.435343,-4.834341 4.732422,-8.082034 h 0.4375 a 1.6244921,1.250232 0 0 0 1.40625,-1.875 l -0.9375,-1.25 -0.939453,-1.25 a 1.6244921,1.250232 0 0 0 -2.8125,0 l -0.939453,1.25 -0.9375,1.25 a 1.6244921,1.250232 0 0 0 1.40625,1.875 h 0.3125 c -0.283662,2.257208 -1.516992,4.303608 -3.421875,5.605469 -2.182786,1.491788 -4.956662,1.808041 -7.419922,0.847656 a 1.50015,1.50015 0 1 0 -1.089844,2.794922 c 1.268744,0.494663 2.598339,0.741615 3.923828,0.75 z"/>
   <path style="fill:#3f3f3f" d="m 15.927722,25.998047 c 0.44183,0.0028 0.88403,-0.02019 1.322266,-0.07031 1.752944,-0.200497 3.457989,-0.821208 4.957031,-1.845703 C 24.927427,22.222814 26.642362,19.247693 26.939441,16 h 0.4375 a 1.6244921,1.250232 0 0 0 1.40625,-1.875 l -0.9375,-1.25 -0.939453,-1.25 a 1.6244921,1.250232 0 0 0 -2.8125,0 l -0.939453,1.25 -0.9375,1.25 A 1.6244921,1.250232 0 0 0 23.623035,16 h 0.3125 c -0.283662,2.257208 -1.516992,4.303608 -3.421875,5.605469 -2.182786,1.491788 -4.956662,1.808041 -7.419922,0.847656 a 1.50015,1.50015 0 1 0 -1.089844,2.794922 c 1.268744,0.494663 2.598339,0.741615 3.923828,0.75 z"/>
  </g>
 </g>
 <g id="update-medium" transform="translate(0,-32)">
  <rect style="opacity:0.001" width="32" height="32" x="0" y="0"/>
  <g transform="translate(-1,1.4317501e-4)">
   <path style="opacity:0.2" d="m 15.927613,29.999718 c 0.560622,0.0035 1.126071,-0.02559 1.689923,-0.08985 2.237634,-0.254997 4.417218,-1.045757 6.332309,-2.349796 2.820395,-1.920485 4.734979,-4.79266 5.583411,-8.002588 0.660909,-0.300914 1.256149,-0.757194 1.727172,-1.382923 0.935035,-1.242142 1.035838,-3.471298 0,-4.84804 a 3.0115789,3.0005382 0 0 0 0,-0.002 l -0.941024,-1.250099 a 3.0115789,3.0005382 0 0 0 -0.002,-0.002 l -0.942985,-1.2501 C 28.337625,9.4477225 26.868382,9.0000045 25.555468,9.0000045 c -1.312914,0 -2.782157,0.447718 -3.81899,1.8224105 l -0.942985,1.250099 a 3.0115789,3.0005382 0 0 0 -0.002,0.002 l -0.941024,1.250099 a 3.0115789,3.0005382 0 0 0 0,0.002 c -1.035838,1.376742 -0.935035,3.605898 0,4.84804 0.129089,0.171489 0.32603,0.234339 0.472472,0.380891 -0.366891,0.614874 -0.859027,1.156741 -1.472311,1.574343 -1.373489,0.935247 -3.10291,1.131925 -4.654148,0.529339 l 0.04705,0.01758 c -1.172805,-0.478007 -2.638144,-0.438132 -3.73077,0.109384 -1.092626,0.547516 -1.80519,1.444249 -2.187882,2.422067 -0.38269,0.977818 -0.467497,2.118146 -0.03529,3.258071 0.429684,1.133063 1.473242,2.140715 2.652555,2.584096 1.612823,0.622725 3.303038,0.93869 4.985468,0.949294 z"/>
   <path style="fill:#ff9932" d="m 15.927613,28.999714 c 0.560622,0.0035 1.126071,-0.02559 1.689923,-0.08985 2.237634,-0.254997 4.417218,-1.045757 6.332309,-2.349796 2.820395,-1.920485 4.734979,-4.79266 5.583411,-8.002588 0.660909,-0.300914 1.256149,-0.757194 1.727172,-1.382923 0.935035,-1.242142 1.035838,-3.471298 0,-4.84804 a 3.0115789,3.0005382 0 0 0 0,-0.002 l -0.941024,-1.250099 a 3.0115789,3.0005382 0 0 0 -0.002,-0.002 l -0.942985,-1.2501 C 28.337625,8.447718 26.868382,8 25.555468,8 24.242554,8 22.773311,8.447718 21.736478,9.822411 l -0.942985,1.250099 a 3.0115789,3.0005382 0 0 0 -0.002,0.002 l -0.941024,1.250099 a 3.0115789,3.0005382 0 0 0 0,0.002 c -1.035838,1.376742 -0.935035,3.605898 0,4.84804 0.129089,0.171489 0.32603,0.234339 0.472472,0.380891 -0.366891,0.614874 -0.859027,1.156741 -1.472311,1.574343 -1.373489,0.935247 -3.10291,1.131925 -4.654148,0.529339 l 0.04705,0.01758 c -1.172805,-0.478007 -2.638144,-0.438132 -3.73077,0.109384 -1.092626,0.547516 -1.80519,1.444249 -2.187882,2.422067 -0.38269,0.977818 -0.467497,2.118146 -0.03529,3.258071 0.429684,1.133063 1.473242,2.140715 2.652555,2.584096 1.612823,0.622725 3.303038,0.93869 4.985468,0.949294 z"/>
   <path style="opacity:0.2" d="M 17.072266,3 C 16.511644,2.99647 15.946665,3.0255878 15.382812,3.0898438 13.145179,3.344841 10.965872,4.1354146 9.0507812,5.4394531 6.2303866,7.3599378 4.3152294,10.233432 3.4667969,13.443359 2.805888,13.744273 2.2112573,14.200443 1.7402344,14.826172 c -0.93503502,1.242142 -1.03583802,3.470914 0,4.847656 a 3.0115789,3.0005382 0 0 0 0,0.002 l 0.9394531,1.25 a 3.0115789,3.0005382 0 0 0 0.00195,0.002 l 0.9433594,1.25 C 4.6618337,23.552333 6.1323984,24 7.4453125,24 8.7582266,24 10.226839,23.552427 11.263672,22.177734 l 0.943359,-1.25 a 3.0115789,3.0005382 0 0 0 0.002,-0.002 l 0.941407,-1.25 a 3.0115789,3.0005382 0 0 0 0,-0.002 c 1.035838,-1.376742 0.935035,-3.605514 0,-4.847656 -0.129089,-0.171489 -0.326215,-0.234307 -0.472657,-0.38086 0.366891,-0.614874 0.85742,-1.156616 1.470704,-1.574218 1.373488,-0.935247 3.103058,-1.133836 4.654296,-0.53125 l -0.04687,-0.01758 c 0.297303,0.121173 0.613438,0.206937 0.9375,0.261718 0.05276,-0.08577 0.09581,-0.177478 0.15625,-0.257812 v -0.002 l 0.941407,-1.25 0.002,-0.002 0.943359,-1.2500004 c 0.890065,-1.1800994 2.095069,-1.6524771 3.25,-1.7695312 -0.0054,-0.4974277 -0.08125,-1.0075016 -0.27539,-1.5195313 C 24.281253,5.4001411 23.237907,4.3925996 22.058594,3.9492188 20.445771,3.3264935 18.754696,3.0106042 17.072266,3 Z"/>
   <path style="fill:#ffda43" d="M 17.072375,2.0002858 C 16.511753,1.9967556 15.946304,2.0258809 15.382452,2.090137 13.144818,2.345134 10.965234,3.1358943 9.0501428,4.4399328 6.2297481,6.3604175 4.3151644,9.2325934 3.4667319,12.442521 2.805823,12.743435 2.210583,13.199715 1.7395601,13.825444 c -0.935035,1.242142 -1.035838,3.471298 0,4.84804 a 3.0115789,3.0005382 0 0 0 0,0.002 l 0.9410243,1.250099 a 3.0115789,3.0005382 0 0 0 0.00196,0.002 l 0.9429849,1.2501 C 4.662363,22.552282 6.1316059,23 7.44452,23 c 1.3129141,0 2.782157,-0.447718 3.81899,-1.822411 l 0.942985,-1.250099 a 3.0115789,3.0005382 0 0 0 0.002,-0.002 l 0.941024,-1.250099 a 3.0115789,3.0005382 0 0 0 0,-0.002 c 1.035838,-1.376742 0.935035,-3.605898 0,-4.84804 -0.129089,-0.171489 -0.32603,-0.234339 -0.472472,-0.380891 0.366891,-0.614874 0.859027,-1.156741 1.472311,-1.574343 1.373489,-0.935247 3.10291,-1.131925 4.654148,-0.529339 l -0.04705,-0.01758 c 1.172805,0.478007 2.638144,0.438132 3.73077,-0.109384 1.092626,-0.547516 1.80519,-1.4442495 2.187882,-2.4220673 0.38269,-0.9778178 0.467497,-2.1181455 0.03529,-3.2580712 C 24.280714,4.4006135 23.237156,3.3929609 22.057843,2.94958 20.44502,2.3268547 18.754805,2.01089 17.072375,2.0002858 Z"/>
   <path style="opacity:0.1" d="M 17.072266,6.0019576 C 16.630436,5.9991626 16.188236,6.0221457 15.75,6.0722701 13.997056,6.2727677 12.292011,6.893478 10.792969,7.9179733 8.0725613,9.77719 6.3576256,12.752311 6.0605469,16.000004 h -0.4375 a 1.6244921,1.250232 0 0 0 -1.40625,1.875 l 0.9375,1.25 0.9394531,1.25 a 1.6244921,1.250232 0 0 0 2.8125,0 l 0.9394531,-1.25 0.9374999,-1.25 a 1.6244921,1.250232 0 0 0 -1.4062499,-1.875 h -0.3125 C 9.3481147,13.742796 10.581445,11.696396 12.486328,10.394536 14.669114,8.9027473 17.44299,8.5864947 19.90625,9.5468795 a 1.50015,1.50015 0 1 0 1.089844,-2.7949219 c -1.268744,-0.4946627 -2.598339,-0.7416149 -3.923828,-0.75 z"/>
   <path style="fill:#3f3f3f" d="M 17.072266,5.0019531 C 16.630436,4.9991581 16.188236,5.0221412 15.75,5.0722656 13.997056,5.2727632 12.292011,5.8934735 10.792969,6.9179688 8.0725613,8.7771855 6.3576256,11.752307 6.0605469,15 h -0.4375 a 1.6244921,1.250232 0 0 0 -1.40625,1.875 l 0.9375,1.25 0.9394531,1.25 a 1.6244921,1.250232 0 0 0 2.8125,0 l 0.9394531,-1.25 0.9374999,-1.25 A 1.6244921,1.250232 0 0 0 9.3769531,15 h -0.3125 C 9.3481147,12.742792 10.581445,10.696392 12.486328,9.3945312 14.669114,7.9027428 17.44299,7.5864902 19.90625,8.546875 a 1.50015,1.50015 0 1 0 1.089844,-2.7949219 c -1.268744,-0.4946627 -2.598339,-0.7416149 -3.923828,-0.75 z"/>
   <path style="opacity:0.2;fill:#ffffff" d="M 17.072266,2 C 16.511644,1.99647 15.946664,2.025588 15.382812,2.089844 13.145179,2.3448407 10.965872,3.1354146 9.0507812,4.4394531 6.2303866,6.3599378 4.3152294,9.2334318 3.4667969,12.443359 2.805888,12.744273 2.2112573,13.200443 1.7402344,13.826172 1.167218,14.587392 0.91001218,15.717641 1.0332031,16.796875 1.1070624,16.05675 1.3443703,15.352055 1.7402344,14.826172 2.2112573,14.200443 2.805888,13.744273 3.4667969,13.443359 4.3152294,10.233431 6.2303866,7.3599378 9.0507812,5.4394531 10.965872,4.1354146 13.145179,3.3448407 15.382812,3.0898438 15.946664,3.0255876 16.511644,2.9964698 17.072266,3 c 1.68243,0.010604 3.373505,0.3264935 4.986328,0.9492188 1.179313,0.4433809 2.222659,1.4509223 2.652344,2.5839843 0.133803,0.3529016 0.202937,0.7045895 0.24414,1.0527344 0.07274,-0.6608972 0.02051,-1.3547376 -0.24414,-2.0527344 C 24.281253,4.4001411 23.237907,3.3925997 22.058594,2.9492188 20.445771,2.3264935 18.754696,2.0106042 17.072266,2 Z m -3.939454,11.810547 c -0.166201,0.201694 -0.321756,0.411331 -0.455078,0.634765 0.146442,0.146552 0.343568,0.209371 0.472657,0.38086 0.395864,0.525883 0.631218,1.230578 0.705078,1.970703 0.123191,-1.079234 -0.132062,-2.209483 -0.705078,-2.970703 -0.005,-0.0066 -0.01242,-0.0093 -0.01758,-0.01563 z"/>
   <path style="fill:#ff9932" d="m 31.260428,12.326517 v -0.002 l -0.941024,-1.250099 -0.002,-0.002 -0.942985,-1.2501 C 28.337625,8.447718 26.868382,8 25.555468,8 24.242554,8 22.773311,8.447718 21.736478,9.822411 l -0.942985,1.250099 -0.002,0.002 -0.941024,1.250099 v 0.002 z"/>
   <path style="opacity:0.1" d="m 15.927722,26.998051 c 0.44183,0.0028 0.88403,-0.02019 1.322266,-0.07031 1.752944,-0.200497 3.457989,-0.821208 4.957031,-1.845703 2.720408,-1.85922 4.435343,-4.834341 4.732422,-8.082034 h 0.4375 a 1.6244921,1.250232 0 0 0 1.40625,-1.875 l -0.9375,-1.25 -0.939453,-1.25 a 1.6244921,1.250232 0 0 0 -2.8125,0 l -0.939453,1.25 -0.9375,1.25 a 1.6244921,1.250232 0 0 0 1.40625,1.875 h 0.3125 c -0.283662,2.257208 -1.516992,4.303608 -3.421875,5.605469 -2.182786,1.491788 -4.956662,1.808041 -7.419922,0.847656 a 1.50015,1.50015 0 1 0 -1.089844,2.794922 c 1.268744,0.494663 2.598339,0.741615 3.923828,0.75 z"/>
   <path style="fill:#3f3f3f" d="m 15.927722,25.998047 c 0.44183,0.0028 0.88403,-0.02019 1.322266,-0.07031 1.752944,-0.200497 3.457989,-0.821208 4.957031,-1.845703 C 24.927427,22.222814 26.642362,19.247693 26.939441,16 h 0.4375 a 1.6244921,1.250232 0 0 0 1.40625,-1.875 l -0.9375,-1.25 -0.939453,-1.25 a 1.6244921,1.250232 0 0 0 -2.8125,0 l -0.939453,1.25 -0.9375,1.25 A 1.6244921,1.250232 0 0 0 23.623035,16 h 0.3125 c -0.283662,2.257208 -1.516992,4.303608 -3.421875,5.605469 -2.182786,1.491788 -4.956662,1.808041 -7.419922,0.847656 a 1.50015,1.50015 0 1 0 -1.089844,2.794922 c 1.268744,0.494663 2.598339,0.741615 3.923828,0.75 z"/>
  </g>
 </g>
 <g id="update-high" transform="translate(0,-64)">
  <rect style="opacity:0.001" width="32" height="32" x="0" y="0"/>
  <g transform="translate(-1,1.4317501e-4)">
   <path style="opacity:0.2" d="m 15.927613,29.999718 c 0.560622,0.0035 1.126071,-0.02559 1.689923,-0.08985 2.237634,-0.254997 4.417218,-1.045757 6.332309,-2.349796 2.820395,-1.920485 4.734979,-4.79266 5.583411,-8.002588 0.660909,-0.300914 1.256149,-0.757194 1.727172,-1.382923 0.935035,-1.242142 1.035838,-3.471298 0,-4.84804 a 3.0115789,3.0005382 0 0 0 0,-0.002 l -0.941024,-1.250099 a 3.0115789,3.0005382 0 0 0 -0.002,-0.002 l -0.942985,-1.2501 C 28.337625,9.4477225 26.868382,9.0000045 25.555468,9.0000045 c -1.312914,0 -2.782157,0.447718 -3.81899,1.8224105 l -0.942985,1.250099 a 3.0115789,3.0005382 0 0 0 -0.002,0.002 l -0.941024,1.250099 a 3.0115789,3.0005382 0 0 0 0,0.002 c -1.035838,1.376742 -0.935035,3.605898 0,4.84804 0.129089,0.171489 0.32603,0.234339 0.472472,0.380891 -0.366891,0.614874 -0.859027,1.156741 -1.472311,1.574343 -1.373489,0.935247 -3.10291,1.131925 -4.654148,0.529339 l 0.04705,0.01758 c -1.172805,-0.478007 -2.638144,-0.438132 -3.73077,0.109384 -1.092626,0.547516 -1.80519,1.444249 -2.187882,2.422067 -0.38269,0.977818 -0.467497,2.118146 -0.03529,3.258071 0.429684,1.133063 1.473242,2.140715 2.652555,2.584096 1.612823,0.622725 3.303038,0.93869 4.985468,0.949294 z"/>
   <path style="fill:#ff4545;fill-opacity:1" d="m 15.927613,28.999714 c 0.560622,0.0035 1.126071,-0.02559 1.689923,-0.08985 2.237634,-0.254997 4.417218,-1.045757 6.332309,-2.349796 2.820395,-1.920485 4.734979,-4.79266 5.583411,-8.002588 0.660909,-0.300914 1.256149,-0.757194 1.727172,-1.382923 0.935035,-1.242142 1.035838,-3.471298 0,-4.84804 a 3.0115789,3.0005382 0 0 0 0,-0.002 l -0.941024,-1.250099 a 3.0115789,3.0005382 0 0 0 -0.002,-0.002 l -0.942985,-1.2501 C 28.337625,8.447718 26.868382,8 25.555468,8 24.242554,8 22.773311,8.447718 21.736478,9.822411 l -0.942985,1.250099 a 3.0115789,3.0005382 0 0 0 -0.002,0.002 l -0.941024,1.250099 a 3.0115789,3.0005382 0 0 0 0,0.002 c -1.035838,1.376742 -0.935035,3.605898 0,4.84804 0.129089,0.171489 0.32603,0.234339 0.472472,0.380891 -0.366891,0.614874 -0.859027,1.156741 -1.472311,1.574343 -1.373489,0.935247 -3.10291,1.131925 -4.654148,0.529339 l 0.04705,0.01758 c -1.172805,-0.478007 -2.638144,-0.438132 -3.73077,0.109384 -1.092626,0.547516 -1.80519,1.444249 -2.187882,2.422067 -0.38269,0.977818 -0.467497,2.118146 -0.03529,3.258071 0.429684,1.133063 1.473242,2.140715 2.652555,2.584096 1.612823,0.622725 3.303038,0.93869 4.985468,0.949294 z"/>
   <path style="opacity:0.2" d="M 17.072266,3 C 16.511644,2.99647 15.946665,3.0255878 15.382812,3.0898438 13.145179,3.344841 10.965872,4.1354146 9.0507812,5.4394531 6.2303866,7.3599378 4.3152294,10.233432 3.4667969,13.443359 2.805888,13.744273 2.2112573,14.200443 1.7402344,14.826172 c -0.93503502,1.242142 -1.03583802,3.470914 0,4.847656 a 3.0115789,3.0005382 0 0 0 0,0.002 l 0.9394531,1.25 a 3.0115789,3.0005382 0 0 0 0.00195,0.002 l 0.9433594,1.25 C 4.6618337,23.552333 6.1323984,24 7.4453125,24 8.7582266,24 10.226839,23.552427 11.263672,22.177734 l 0.943359,-1.25 a 3.0115789,3.0005382 0 0 0 0.002,-0.002 l 0.941407,-1.25 a 3.0115789,3.0005382 0 0 0 0,-0.002 c 1.035838,-1.376742 0.935035,-3.605514 0,-4.847656 -0.129089,-0.171489 -0.326215,-0.234307 -0.472657,-0.38086 0.366891,-0.614874 0.85742,-1.156616 1.470704,-1.574218 1.373488,-0.935247 3.103058,-1.133836 4.654296,-0.53125 l -0.04687,-0.01758 c 0.297303,0.121173 0.613438,0.206937 0.9375,0.261718 0.05276,-0.08577 0.09581,-0.177478 0.15625,-0.257812 v -0.002 l 0.941407,-1.25 0.002,-0.002 0.943359,-1.2500004 c 0.890065,-1.1800994 2.095069,-1.6524771 3.25,-1.7695312 -0.0054,-0.4974277 -0.08125,-1.0075016 -0.27539,-1.5195313 C 24.281253,5.4001411 23.237907,4.3925996 22.058594,3.9492188 20.445771,3.3264935 18.754696,3.0106042 17.072266,3 Z"/>
   <path style="fill:#ff43a6;fill-opacity:1" d="M 17.072375,2.0002858 C 16.511753,1.9967556 15.946304,2.0258809 15.382452,2.090137 13.144818,2.345134 10.965234,3.1358943 9.0501428,4.4399328 6.2297481,6.3604175 4.3151644,9.2325934 3.4667319,12.442521 2.805823,12.743435 2.210583,13.199715 1.7395601,13.825444 c -0.935035,1.242142 -1.035838,3.471298 0,4.84804 a 3.0115789,3.0005382 0 0 0 0,0.002 l 0.9410243,1.250099 a 3.0115789,3.0005382 0 0 0 0.00196,0.002 l 0.9429849,1.2501 C 4.662363,22.552282 6.1316059,23 7.44452,23 c 1.3129141,0 2.782157,-0.447718 3.81899,-1.822411 l 0.942985,-1.250099 a 3.0115789,3.0005382 0 0 0 0.002,-0.002 l 0.941024,-1.250099 a 3.0115789,3.0005382 0 0 0 0,-0.002 c 1.035838,-1.376742 0.935035,-3.605898 0,-4.84804 -0.129089,-0.171489 -0.32603,-0.234339 -0.472472,-0.380891 0.366891,-0.614874 0.859027,-1.156741 1.472311,-1.574343 1.373489,-0.935247 3.10291,-1.131925 4.654148,-0.529339 l -0.04705,-0.01758 c 1.172805,0.478007 2.638144,0.438132 3.73077,-0.109384 1.092626,-0.547516 1.80519,-1.4442495 2.187882,-2.4220673 0.38269,-0.9778178 0.467497,-2.1181455 0.03529,-3.2580712 C 24.280714,4.4006135 23.237156,3.3929609 22.057843,2.94958 20.44502,2.3268547 18.754805,2.01089 17.072375,2.0002858 Z"/>
   <path style="opacity:0.1" d="M 17.072266,6.0019576 C 16.630436,5.9991626 16.188236,6.0221457 15.75,6.0722701 13.997056,6.2727677 12.292011,6.893478 10.792969,7.9179733 8.0725613,9.77719 6.3576256,12.752311 6.0605469,16.000004 h -0.4375 a 1.6244921,1.250232 0 0 0 -1.40625,1.875 l 0.9375,1.25 0.9394531,1.25 a 1.6244921,1.250232 0 0 0 2.8125,0 l 0.9394531,-1.25 0.9374999,-1.25 a 1.6244921,1.250232 0 0 0 -1.4062499,-1.875 h -0.3125 C 9.3481147,13.742796 10.581445,11.696396 12.486328,10.394536 14.669114,8.9027473 17.44299,8.5864947 19.90625,9.5468795 a 1.50015,1.50015 0 1 0 1.089844,-2.7949219 c -1.268744,-0.4946627 -2.598339,-0.7416149 -3.923828,-0.75 z"/>
   <path style="fill:#3f3f3f" d="M 17.072266,5.0019531 C 16.630436,4.9991581 16.188236,5.0221412 15.75,5.0722656 13.997056,5.2727632 12.292011,5.8934735 10.792969,6.9179688 8.0725613,8.7771855 6.3576256,11.752307 6.0605469,15 h -0.4375 a 1.6244921,1.250232 0 0 0 -1.40625,1.875 l 0.9375,1.25 0.9394531,1.25 a 1.6244921,1.250232 0 0 0 2.8125,0 l 0.9394531,-1.25 0.9374999,-1.25 A 1.6244921,1.250232 0 0 0 9.3769531,15 h -0.3125 C 9.3481147,12.742792 10.581445,10.696392 12.486328,9.3945312 14.669114,7.9027428 17.44299,7.5864902 19.90625,8.546875 a 1.50015,1.50015 0 1 0 1.089844,-2.7949219 c -1.268744,-0.4946627 -2.598339,-0.7416149 -3.923828,-0.75 z"/>
   <path style="opacity:0.2;fill:#ffffff" d="M 17.072266,2 C 16.511644,1.99647 15.946664,2.025588 15.382812,2.089844 13.145179,2.3448407 10.965872,3.1354146 9.0507812,4.4394531 6.2303866,6.3599378 4.3152294,9.2334318 3.4667969,12.443359 2.805888,12.744273 2.2112573,13.200443 1.7402344,13.826172 1.167218,14.587392 0.91001218,15.717641 1.0332031,16.796875 1.1070624,16.05675 1.3443703,15.352055 1.7402344,14.826172 2.2112573,14.200443 2.805888,13.744273 3.4667969,13.443359 4.3152294,10.233431 6.2303866,7.3599378 9.0507812,5.4394531 10.965872,4.1354146 13.145179,3.3448407 15.382812,3.0898438 15.946664,3.0255876 16.511644,2.9964698 17.072266,3 c 1.68243,0.010604 3.373505,0.3264935 4.986328,0.9492188 1.179313,0.4433809 2.222659,1.4509223 2.652344,2.5839843 0.133803,0.3529016 0.202937,0.7045895 0.24414,1.0527344 0.07274,-0.6608972 0.02051,-1.3547376 -0.24414,-2.0527344 C 24.281253,4.4001411 23.237907,3.3925997 22.058594,2.9492188 20.445771,2.3264935 18.754696,2.0106042 17.072266,2 Z m -3.939454,11.810547 c -0.166201,0.201694 -0.321756,0.411331 -0.455078,0.634765 0.146442,0.146552 0.343568,0.209371 0.472657,0.38086 0.395864,0.525883 0.631218,1.230578 0.705078,1.970703 0.123191,-1.079234 -0.132062,-2.209483 -0.705078,-2.970703 -0.005,-0.0066 -0.01242,-0.0093 -0.01758,-0.01563 z"/>
   <path style="fill:#ff4545;fill-opacity:1" d="m 31.260428,12.326517 v -0.002 l -0.941024,-1.250099 -0.002,-0.002 -0.942985,-1.2501 C 28.337625,8.447718 26.868382,8 25.555468,8 24.242554,8 22.773311,8.447718 21.736478,9.822411 l -0.942985,1.250099 -0.002,0.002 -0.941024,1.250099 v 0.002 z"/>
   <path style="opacity:0.1" d="m 15.927722,26.998051 c 0.44183,0.0028 0.88403,-0.02019 1.322266,-0.07031 1.752944,-0.200497 3.457989,-0.821208 4.957031,-1.845703 2.720408,-1.85922 4.435343,-4.834341 4.732422,-8.082034 h 0.4375 a 1.6244921,1.250232 0 0 0 1.40625,-1.875 l -0.9375,-1.25 -0.939453,-1.25 a 1.6244921,1.250232 0 0 0 -2.8125,0 l -0.939453,1.25 -0.9375,1.25 a 1.6244921,1.250232 0 0 0 1.40625,1.875 h 0.3125 c -0.283662,2.257208 -1.516992,4.303608 -3.421875,5.605469 -2.182786,1.491788 -4.956662,1.808041 -7.419922,0.847656 a 1.50015,1.50015 0 1 0 -1.089844,2.794922 c 1.268744,0.494663 2.598339,0.741615 3.923828,0.75 z"/>
   <path style="fill:#3f3f3f" d="m 15.927722,25.998047 c 0.44183,0.0028 0.88403,-0.02019 1.322266,-0.07031 1.752944,-0.200497 3.457989,-0.821208 4.957031,-1.845703 C 24.927427,22.222814 26.642362,19.247693 26.939441,16 h 0.4375 a 1.6244921,1.250232 0 0 0 1.40625,-1.875 l -0.9375,-1.25 -0.939453,-1.25 a 1.6244921,1.250232 0 0 0 -2.8125,0 l -0.939453,1.25 -0.9375,1.25 A 1.6244921,1.250232 0 0 0 23.623035,16 h 0.3125 c -0.283662,2.257208 -1.516992,4.303608 -3.421875,5.605469 -2.182786,1.491788 -4.956662,1.808041 -7.419922,0.847656 a 1.50015,1.50015 0 1 0 -1.089844,2.794922 c 1.268744,0.494663 2.598339,0.741615 3.923828,0.75 z"/>
  </g>
 </g>
 <g id="22-22-update-low" transform="translate(32,-22)">
  <rect style="opacity:0.001" width="22" height="22" x="0" y="32"/>
  <path style="fill:#dfdfdf" d="m 11,35 c -4.4183,0 -8,3.5817 -8,8 0,4.418 3.5817,8 8,8 4.418,0 8,-3.582 8,-8 0,-4.4183 -3.582,-8 -8,-8 z m 0,2 c 1.495771,0 2.989091,0.560161 4.148438,1.671875 -0.370703,0.143824 -0.713602,0.377967 -0.976563,0.75 l -0.460937,0.654297 C 12.142097,38.621879 9.6974738,38.646276 8.171875,40.171875 7.3909653,40.952785 7.0040093,41.976417 7.0039062,43 h 0.296875 A 0.69923716,0.5746971 1.1588047e-6 0 1 7.90625,43.861328 l -0.6503906,0.925781 -0.6523438,0.925782 a 0.69923716,0.5746971 1.1588047e-6 0 1 -1.2089844,0 L 4.7441406,44.787109 4.09375,43.861328 A 0.69923716,0.5746971 1.1588047e-6 0 1 4.4921875,43.025391 0.69923716,0.5746971 1.1588047e-6 0 1 4.6972656,43 H 5.0019531 C 5.0020237,41.464515 5.5863637,39.929261 6.7578125,38.757812 7.9293912,37.586234 9.464469,37 11,37 Z m 4.962891,3.001953 a 0.69923716,0.5746971 1.1588047e-6 0 1 0.642578,0.285156 l 0.65039,0.925782 0.650391,0.925781 A 0.69923716,0.5746971 1.1588047e-6 0 1 17.507812,42.974609 0.69923716,0.5746971 1.1588047e-6 0 1 17.302734,43 h -0.304687 c -7.1e-5,1.535485 -0.584412,3.070735 -1.755859,4.242188 C 14.070609,48.413764 12.535531,49 11,49 9.5050912,49 8.0125771,48.440509 6.8535156,47.330078 c 0.363732,-0.140945 0.7082551,-0.373476 0.9746094,-0.75 v -0.002 l 0.4609375,-0.654297 c 1.5688391,1.454293 4.0134635,1.429896 5.5390625,-0.0957 C 14.609035,45.047215 14.995991,44.023583 14.996094,43 H 14.699219 A 0.69923716,0.5746971 1.1588047e-6 0 1 14.09375,42.138672 l 0.650391,-0.925781 0.652343,-0.925782 a 0.69923716,0.5746971 1.1588047e-6 0 1 0.566407,-0.285156 z"/>
  <circle style="fill:#4285f4" cx="20" cy="50" r="2"/>
 </g>
 <g id="22-22-update-medium" transform="translate(32,-54)">
  <rect style="opacity:0.001" width="22" height="22" x="0" y="32"/>
  <path style="fill:#dfdfdf" d="m 11,35 c -4.4183,0 -8,3.5817 -8,8 0,4.418 3.5817,8 8,8 4.418,0 8,-3.582 8,-8 0,-4.4183 -3.582,-8 -8,-8 z m 0,2 c 1.495771,0 2.989091,0.560161 4.148438,1.671875 -0.370703,0.143824 -0.713602,0.377967 -0.976563,0.75 l -0.460937,0.654297 C 12.142097,38.621879 9.6974738,38.646276 8.171875,40.171875 7.3909653,40.952785 7.0040093,41.976417 7.0039062,43 h 0.296875 A 0.69923716,0.5746971 1.1588047e-6 0 1 7.90625,43.861328 l -0.6503906,0.925781 -0.6523438,0.925782 a 0.69923716,0.5746971 1.1588047e-6 0 1 -1.2089844,0 L 4.7441406,44.787109 4.09375,43.861328 A 0.69923716,0.5746971 1.1588047e-6 0 1 4.4921875,43.025391 0.69923716,0.5746971 1.1588047e-6 0 1 4.6972656,43 H 5.0019531 C 5.0020237,41.464515 5.5863637,39.929261 6.7578125,38.757812 7.9293912,37.586234 9.464469,37 11,37 Z m 4.962891,3.001953 a 0.69923716,0.5746971 1.1588047e-6 0 1 0.642578,0.285156 l 0.65039,0.925782 0.650391,0.925781 A 0.69923716,0.5746971 1.1588047e-6 0 1 17.507812,42.974609 0.69923716,0.5746971 1.1588047e-6 0 1 17.302734,43 h -0.304687 c -7.1e-5,1.535485 -0.584412,3.070735 -1.755859,4.242188 C 14.070609,48.413764 12.535531,49 11,49 9.5050912,49 8.0125771,48.440509 6.8535156,47.330078 c 0.363732,-0.140945 0.7082551,-0.373476 0.9746094,-0.75 v -0.002 l 0.4609375,-0.654297 c 1.5688391,1.454293 4.0134635,1.429896 5.5390625,-0.0957 C 14.609035,45.047215 14.995991,44.023583 14.996094,43 H 14.699219 A 0.69923716,0.5746971 1.1588047e-6 0 1 14.09375,42.138672 l 0.650391,-0.925781 0.652343,-0.925782 a 0.69923716,0.5746971 1.1588047e-6 0 1 0.566407,-0.285156 z"/>
  <circle style="fill:#ff9800" cx="20" cy="50" r="2"/>
 </g>
 <g id="22-22-update-high" transform="translate(32,-86)">
  <rect style="opacity:0.001" width="22" height="22" x="0" y="32"/>
  <path style="fill:#dfdfdf" d="m 11,35 c -4.4183,0 -8,3.5817 -8,8 0,4.418 3.5817,8 8,8 4.418,0 8,-3.582 8,-8 0,-4.4183 -3.582,-8 -8,-8 z m 0,2 c 1.495771,0 2.989091,0.560161 4.148438,1.671875 -0.370703,0.143824 -0.713602,0.377967 -0.976563,0.75 l -0.460937,0.654297 C 12.142097,38.621879 9.6974738,38.646276 8.171875,40.171875 7.3909653,40.952785 7.0040093,41.976417 7.0039062,43 h 0.296875 A 0.69923716,0.5746971 1.1588047e-6 0 1 7.90625,43.861328 l -0.6503906,0.925781 -0.6523438,0.925782 a 0.69923716,0.5746971 1.1588047e-6 0 1 -1.2089844,0 L 4.7441406,44.787109 4.09375,43.861328 A 0.69923716,0.5746971 1.1588047e-6 0 1 4.4921875,43.025391 0.69923716,0.5746971 1.1588047e-6 0 1 4.6972656,43 H 5.0019531 C 5.0020237,41.464515 5.5863637,39.929261 6.7578125,38.757812 7.9293912,37.586234 9.464469,37 11,37 Z m 4.962891,3.001953 a 0.69923716,0.5746971 1.1588047e-6 0 1 0.642578,0.285156 l 0.65039,0.925782 0.650391,0.925781 A 0.69923716,0.5746971 1.1588047e-6 0 1 17.507812,42.974609 0.69923716,0.5746971 1.1588047e-6 0 1 17.302734,43 h -0.304687 c -7.1e-5,1.535485 -0.584412,3.070735 -1.755859,4.242188 C 14.070609,48.413764 12.535531,49 11,49 9.5050912,49 8.0125771,48.440509 6.8535156,47.330078 c 0.363732,-0.140945 0.7082551,-0.373476 0.9746094,-0.75 v -0.002 l 0.4609375,-0.654297 c 1.5688391,1.454293 4.0134635,1.429896 5.5390625,-0.0957 C 14.609035,45.047215 14.995991,44.023583 14.996094,43 H 14.699219 A 0.69923716,0.5746971 1.1588047e-6 0 1 14.09375,42.138672 l 0.650391,-0.925781 0.652343,-0.925782 a 0.69923716,0.5746971 1.1588047e-6 0 1 0.566407,-0.285156 z"/>
  <circle style="fill:#f44336" cx="20" cy="50" r="2"/>
 </g>
 <g id="22-22-update-none" transform="translate(32,-118)">
  <rect style="opacity:0.001" width="22" height="22" x="0" y="32"/>
  <path style="fill:#dfdfdf;opacity:0.35" d="m 11,35 c -4.4183,0 -8,3.5817 -8,8 0,4.418 3.5817,8 8,8 4.418,0 8,-3.582 8,-8 0,-4.4183 -3.582,-8 -8,-8 z m 0,2 c 1.495771,0 2.989091,0.560161 4.148438,1.671875 -0.370703,0.143824 -0.713602,0.377967 -0.976563,0.75 l -0.460937,0.654297 C 12.142097,38.621879 9.6974738,38.646276 8.171875,40.171875 7.3909653,40.952785 7.0040093,41.976417 7.0039062,43 h 0.296875 A 0.69923716,0.5746971 1.1588047e-6 0 1 7.90625,43.861328 l -0.6503906,0.925781 -0.6523438,0.925782 a 0.69923716,0.5746971 1.1588047e-6 0 1 -1.2089844,0 L 4.7441406,44.787109 4.09375,43.861328 A 0.69923716,0.5746971 1.1588047e-6 0 1 4.4921875,43.025391 0.69923716,0.5746971 1.1588047e-6 0 1 4.6972656,43 H 5.0019531 C 5.0020237,41.464515 5.5863637,39.929261 6.7578125,38.757812 7.9293912,37.586234 9.464469,37 11,37 Z m 4.962891,3.001953 a 0.69923716,0.5746971 1.1588047e-6 0 1 0.642578,0.285156 l 0.65039,0.925782 0.650391,0.925781 A 0.69923716,0.5746971 1.1588047e-6 0 1 17.507812,42.974609 0.69923716,0.5746971 1.1588047e-6 0 1 17.302734,43 h -0.304687 c -7.1e-5,1.535485 -0.584412,3.070735 -1.755859,4.242188 C 14.070609,48.413764 12.535531,49 11,49 9.5050912,49 8.0125771,48.440509 6.8535156,47.330078 c 0.363732,-0.140945 0.7082551,-0.373476 0.9746094,-0.75 v -0.002 l 0.4609375,-0.654297 c 1.5688391,1.454293 4.0134635,1.429896 5.5390625,-0.0957 C 14.609035,45.047215 14.995991,44.023583 14.996094,43 H 14.699219 A 0.69923716,0.5746971 1.1588047e-6 0 1 14.09375,42.138672 l 0.650391,-0.925781 0.652343,-0.925782 a 0.69923716,0.5746971 1.1588047e-6 0 1 0.566407,-0.285156 z"/>
 </g>
 <g id="update-none" transform="translate(0,-96)">
  <rect style="opacity:0.001" width="32" height="32" x="0" y="0"/>
  <g transform="translate(-1,1.4317501e-4)">
   <path style="opacity:0.2" d="m 15.927613,29.999718 c 0.560622,0.0035 1.126071,-0.02559 1.689923,-0.08985 2.237634,-0.254997 4.417218,-1.045757 6.332309,-2.349796 2.820395,-1.920485 4.734979,-4.79266 5.583411,-8.002588 0.660909,-0.300914 1.256149,-0.757194 1.727172,-1.382923 0.935035,-1.242142 1.035838,-3.471298 0,-4.84804 a 3.0115789,3.0005382 0 0 0 0,-0.002 l -0.941024,-1.250099 a 3.0115789,3.0005382 0 0 0 -0.002,-0.002 l -0.942985,-1.2501 C 28.337625,9.4477225 26.868382,9.0000045 25.555468,9.0000045 c -1.312914,0 -2.782157,0.447718 -3.81899,1.8224105 l -0.942985,1.250099 a 3.0115789,3.0005382 0 0 0 -0.002,0.002 l -0.941024,1.250099 a 3.0115789,3.0005382 0 0 0 0,0.002 c -1.035838,1.376742 -0.935035,3.605898 0,4.84804 0.129089,0.171489 0.32603,0.234339 0.472472,0.380891 -0.366891,0.614874 -0.859027,1.156741 -1.472311,1.574343 -1.373489,0.935247 -3.10291,1.131925 -4.654148,0.529339 l 0.04705,0.01758 c -1.172805,-0.478007 -2.638144,-0.438132 -3.73077,0.109384 -1.092626,0.547516 -1.80519,1.444249 -2.187882,2.422067 -0.38269,0.977818 -0.467497,2.118146 -0.03529,3.258071 0.429684,1.133063 1.473242,2.140715 2.652555,2.584096 1.612823,0.622725 3.303038,0.93869 4.985468,0.949294 z"/>
   <path style="fill:#808080;fill-opacity:1" d="m 15.927613,28.999714 c 0.560622,0.0035 1.126071,-0.02559 1.689923,-0.08985 2.237634,-0.254997 4.417218,-1.045757 6.332309,-2.349796 2.820395,-1.920485 4.734979,-4.79266 5.583411,-8.002588 0.660909,-0.300914 1.256149,-0.757194 1.727172,-1.382923 0.935035,-1.242142 1.035838,-3.471298 0,-4.84804 a 3.0115789,3.0005382 0 0 0 0,-0.002 l -0.941024,-1.250099 a 3.0115789,3.0005382 0 0 0 -0.002,-0.002 l -0.942985,-1.2501 C 28.337625,8.447718 26.868382,8 25.555468,8 24.242554,8 22.773311,8.447718 21.736478,9.822411 l -0.942985,1.250099 a 3.0115789,3.0005382 0 0 0 -0.002,0.002 l -0.941024,1.250099 a 3.0115789,3.0005382 0 0 0 0,0.002 c -1.035838,1.376742 -0.935035,3.605898 0,4.84804 0.129089,0.171489 0.32603,0.234339 0.472472,0.380891 -0.366891,0.614874 -0.859027,1.156741 -1.472311,1.574343 -1.373489,0.935247 -3.10291,1.131925 -4.654148,0.529339 l 0.04705,0.01758 c -1.172805,-0.478007 -2.638144,-0.438132 -3.73077,0.109384 -1.092626,0.547516 -1.80519,1.444249 -2.187882,2.422067 -0.38269,0.977818 -0.467497,2.118146 -0.03529,3.258071 0.429684,1.133063 1.473242,2.140715 2.652555,2.584096 1.612823,0.622725 3.303038,0.93869 4.985468,0.949294 z"/>
   <path style="opacity:0.2" d="M 17.072266,3 C 16.511644,2.99647 15.946665,3.0255878 15.382812,3.0898438 13.145179,3.344841 10.965872,4.1354146 9.0507812,5.4394531 6.2303866,7.3599378 4.3152294,10.233432 3.4667969,13.443359 2.805888,13.744273 2.2112573,14.200443 1.7402344,14.826172 c -0.93503502,1.242142 -1.03583802,3.470914 0,4.847656 a 3.0115789,3.0005382 0 0 0 0,0.002 l 0.9394531,1.25 a 3.0115789,3.0005382 0 0 0 0.00195,0.002 l 0.9433594,1.25 C 4.6618337,23.552333 6.1323984,24 7.4453125,24 8.7582266,24 10.226839,23.552427 11.263672,22.177734 l 0.943359,-1.25 a 3.0115789,3.0005382 0 0 0 0.002,-0.002 l 0.941407,-1.25 a 3.0115789,3.0005382 0 0 0 0,-0.002 c 1.035838,-1.376742 0.935035,-3.605514 0,-4.847656 -0.129089,-0.171489 -0.326215,-0.234307 -0.472657,-0.38086 0.366891,-0.614874 0.85742,-1.156616 1.470704,-1.574218 1.373488,-0.935247 3.103058,-1.133836 4.654296,-0.53125 l -0.04687,-0.01758 c 0.297303,0.121173 0.613438,0.206937 0.9375,0.261718 0.05276,-0.08577 0.09581,-0.177478 0.15625,-0.257812 v -0.002 l 0.941407,-1.25 0.002,-0.002 0.943359,-1.2500004 c 0.890065,-1.1800994 2.095069,-1.6524771 3.25,-1.7695312 -0.0054,-0.4974277 -0.08125,-1.0075016 -0.27539,-1.5195313 C 24.281253,5.4001411 23.237907,4.3925996 22.058594,3.9492188 20.445771,3.3264935 18.754696,3.0106042 17.072266,3 Z"/>
   <path style="fill:#b0b0b0;fill-opacity:1" d="M 17.072375,2.0002858 C 16.511753,1.9967556 15.946304,2.0258809 15.382452,2.090137 13.144818,2.345134 10.965234,3.1358943 9.0501428,4.4399328 6.2297481,6.3604175 4.3151644,9.2325934 3.4667319,12.442521 2.805823,12.743435 2.210583,13.199715 1.7395601,13.825444 c -0.935035,1.242142 -1.035838,3.471298 0,4.84804 a 3.0115789,3.0005382 0 0 0 0,0.002 l 0.9410243,1.250099 a 3.0115789,3.0005382 0 0 0 0.00196,0.002 l 0.9429849,1.2501 C 4.662363,22.552282 6.1316059,23 7.44452,23 c 1.3129141,0 2.782157,-0.447718 3.81899,-1.822411 l 0.942985,-1.250099 a 3.0115789,3.0005382 0 0 0 0.002,-0.002 l 0.941024,-1.250099 a 3.0115789,3.0005382 0 0 0 0,-0.002 c 1.035838,-1.376742 0.935035,-3.605898 0,-4.84804 -0.129089,-0.171489 -0.32603,-0.234339 -0.472472,-0.380891 0.366891,-0.614874 0.859027,-1.156741 1.472311,-1.574343 1.373489,-0.935247 3.10291,-1.131925 4.654148,-0.529339 l -0.04705,-0.01758 c 1.172805,0.478007 2.638144,0.438132 3.73077,-0.109384 1.092626,-0.547516 1.80519,-1.4442495 2.187882,-2.4220673 0.38269,-0.9778178 0.467497,-2.1181455 0.03529,-3.2580712 C 24.280714,4.4006135 23.237156,3.3929609 22.057843,2.94958 20.44502,2.3268547 18.754805,2.01089 17.072375,2.0002858 Z"/>
   <path style="opacity:0.1" d="M 17.072266,6.0019576 C 16.630436,5.9991626 16.188236,6.0221457 15.75,6.0722701 13.997056,6.2727677 12.292011,6.893478 10.792969,7.9179733 8.0725613,9.77719 6.3576256,12.752311 6.0605469,16.000004 h -0.4375 a 1.6244921,1.250232 0 0 0 -1.40625,1.875 l 0.9375,1.25 0.9394531,1.25 a 1.6244921,1.250232 0 0 0 2.8125,0 l 0.9394531,-1.25 0.9374999,-1.25 a 1.6244921,1.250232 0 0 0 -1.4062499,-1.875 h -0.3125 C 9.3481147,13.742796 10.581445,11.696396 12.486328,10.394536 14.669114,8.9027473 17.44299,8.5864947 19.90625,9.5468795 a 1.50015,1.50015 0 1 0 1.089844,-2.7949219 c -1.268744,-0.4946627 -2.598339,-0.7416149 -3.923828,-0.75 z"/>
   <path style="fill:#3f3f3f" d="M 17.072266,5.0019531 C 16.630436,4.9991581 16.188236,5.0221412 15.75,5.0722656 13.997056,5.2727632 12.292011,5.8934735 10.792969,6.9179688 8.0725613,8.7771855 6.3576256,11.752307 6.0605469,15 h -0.4375 a 1.6244921,1.250232 0 0 0 -1.40625,1.875 l 0.9375,1.25 0.9394531,1.25 a 1.6244921,1.250232 0 0 0 2.8125,0 l 0.9394531,-1.25 0.9374999,-1.25 A 1.6244921,1.250232 0 0 0 9.3769531,15 h -0.3125 C 9.3481147,12.742792 10.581445,10.696392 12.486328,9.3945312 14.669114,7.9027428 17.44299,7.5864902 19.90625,8.546875 a 1.50015,1.50015 0 1 0 1.089844,-2.7949219 c -1.268744,-0.4946627 -2.598339,-0.7416149 -3.923828,-0.75 z"/>
   <path style="opacity:0.2;fill:#ffffff" d="M 17.072266,2 C 16.511644,1.99647 15.946664,2.025588 15.382812,2.089844 13.145179,2.3448407 10.965872,3.1354146 9.0507812,4.4394531 6.2303866,6.3599378 4.3152294,9.2334318 3.4667969,12.443359 2.805888,12.744273 2.2112573,13.200443 1.7402344,13.826172 1.167218,14.587392 0.91001218,15.717641 1.0332031,16.796875 1.1070624,16.05675 1.3443703,15.352055 1.7402344,14.826172 2.2112573,14.200443 2.805888,13.744273 3.4667969,13.443359 4.3152294,10.233431 6.2303866,7.3599378 9.0507812,5.4394531 10.965872,4.1354146 13.145179,3.3448407 15.382812,3.0898438 15.946664,3.0255876 16.511644,2.9964698 17.072266,3 c 1.68243,0.010604 3.373505,0.3264935 4.986328,0.9492188 1.179313,0.4433809 2.222659,1.4509223 2.652344,2.5839843 0.133803,0.3529016 0.202937,0.7045895 0.24414,1.0527344 0.07274,-0.6608972 0.02051,-1.3547376 -0.24414,-2.0527344 C 24.281253,4.4001411 23.237907,3.3925997 22.058594,2.9492188 20.445771,2.3264935 18.754696,2.0106042 17.072266,2 Z m -3.939454,11.810547 c -0.166201,0.201694 -0.321756,0.411331 -0.455078,0.634765 0.146442,0.146552 0.343568,0.209371 0.472657,0.38086 0.395864,0.525883 0.631218,1.230578 0.705078,1.970703 0.123191,-1.079234 -0.132062,-2.209483 -0.705078,-2.970703 -0.005,-0.0066 -0.01242,-0.0093 -0.01758,-0.01563 z"/>
   <path style="fill:#808080;fill-opacity:1" d="m 31.260428,12.326517 v -0.002 l -0.941024,-1.250099 -0.002,-0.002 -0.942985,-1.2501 C 28.337625,8.447718 26.868382,8 25.555468,8 24.242554,8 22.773311,8.447718 21.736478,9.822411 l -0.942985,1.250099 -0.002,0.002 -0.941024,1.250099 v 0.002 z"/>
   <path style="opacity:0.1" d="m 15.927722,26.998051 c 0.44183,0.0028 0.88403,-0.02019 1.322266,-0.07031 1.752944,-0.200497 3.457989,-0.821208 4.957031,-1.845703 2.720408,-1.85922 4.435343,-4.834341 4.732422,-8.082034 h 0.4375 a 1.6244921,1.250232 0 0 0 1.40625,-1.875 l -0.9375,-1.25 -0.939453,-1.25 a 1.6244921,1.250232 0 0 0 -2.8125,0 l -0.939453,1.25 -0.9375,1.25 a 1.6244921,1.250232 0 0 0 1.40625,1.875 h 0.3125 c -0.283662,2.257208 -1.516992,4.303608 -3.421875,5.605469 -2.182786,1.491788 -4.956662,1.808041 -7.419922,0.847656 a 1.50015,1.50015 0 1 0 -1.089844,2.794922 c 1.268744,0.494663 2.598339,0.741615 3.923828,0.75 z"/>
   <path style="fill:#3f3f3f" d="m 15.927722,25.998047 c 0.44183,0.0028 0.88403,-0.02019 1.322266,-0.07031 1.752944,-0.200497 3.457989,-0.821208 4.957031,-1.845703 C 24.927427,22.222814 26.642362,19.247693 26.939441,16 h 0.4375 a 1.6244921,1.250232 0 0 0 1.40625,-1.875 l -0.9375,-1.25 -0.939453,-1.25 a 1.6244921,1.250232 0 0 0 -2.8125,0 l -0.939453,1.25 -0.9375,1.25 A 1.6244921,1.250232 0 0 0 23.623035,16 h 0.3125 c -0.283662,2.257208 -1.516992,4.303608 -3.421875,5.605469 -2.182786,1.491788 -4.956662,1.808041 -7.419922,0.847656 a 1.50015,1.50015 0 1 0 -1.089844,2.794922 c 1.268744,0.494663 2.598339,0.741615 3.923828,0.75 z"/>
  </g>
 </g>
</svg>
