<svg xmlns="http://www.w3.org/2000/svg" width="32" height="32" version="1">
 <g id="22-22-utilities-terminal" transform="translate(27,5)">
  <rect style="opacity:0.001" width="22" height="22" x="5" y="5"/>
  <path style="fill:#dfdfdf" d="M 8.800781,9 C 8.357581,9 8,9.357581 8,9.800781 V 22.199219 C 8,22.642419 8.357581,23 8.800781,23 H 23.199219 C 23.642419,23 24,22.642419 24,22.199219 V 9.800781 C 24,9.357581 23.642419,9 23.199219,9 Z M 12,12 h 1 v 1 h 0.5 c 0.654,0 1.202203,0.418 1.408203,1 H 13 v 1 h 0.5 c 0.831,0 1.5,0.669 1.5,1.5 0,0.831 -0.669,1.5 -1.5,1.5 H 13 v 1 h -1 v -1 h -0.5 c -0.6542,0 -1.202203,-0.418 -1.408203,-1 H 12 V 16 H 11.5 C 10.669,16 10,15.331 10,14.5 10,13.669 10.669,13 11.5,13 H 12 Z m -0.5,2 c -0.277,0 -0.5,0.223 -0.5,0.5 0,0.277 0.223,0.5 0.5,0.5 H 12 v -1 z m 1.5,2 v 1 h 0.5 C 13.7767,17.0129 14,16.777 14,16.5 14,16.223 13.777,16 13.5,16 Z m 4,2 h 6 v 1 h -6 z"/>
 </g>
 <g id="utilities-terminal">
  <rect style="opacity:0.001" width="32" height="32" x="0" y="0"/>
  <g>
   <path style="opacity:0.2" d="m 2,26.5 v 1 C 2,28.331 2.669,29 3.5,29 h 25 c 0.831,0 1.5,-0.669 1.5,-1.5 v -1 C 30,27.331 29.331,28 28.5,28 H 3.5 C 2.669,28 2,27.331 2,26.5 Z"/>
   <rect style="fill:#4f4f4f" width="28" height="24" x="2" y="4" rx="1.5" ry="1.5"/>
   <path style="opacity:0.1;fill:#ffffff" d="M 3.5,4 C 2.669,4 2,4.669 2,5.5 v 1 C 2,5.669 2.669,5 3.5,5 h 25 C 29.331,5 30,5.669 30,6.5 v -1 C 30,4.669 29.331,4 28.5,4 Z"/>
   <path style="opacity:0.2" d="M 6,8 V 9 H 5.5 C 4.669,9 4,9.669 4,10.5 4,11.331 4.669,12 5.5,12 H 6 v 1 H 4.0918 c 0.206,0.582 0.754,1 1.4082,1 H 6 v 1 H 7 V 14 H 7.5 C 8.331,14 9,13.331 9,12.5 9,11.669 8.331,11 7.5,11 H 7 V 10 H 8.9082 C 8.7022,9.418 8.1542,9 7.5002,9 h -0.5 V 8 h -1 z M 5.5,10 H 6 v 1 H 5.5 C 5.223,11 5,10.777 5,10.5 5,10.223 5.223,10 5.5,10 Z M 7,12 H 7.5 C 7.777,12 8,12.223 8,12.5 8,12.777 7.7767,13.013 7.5,13 H 7 Z m 4,2 v 1 h 6 v -1 z"/>
   <path style="fill:#ffffff" d="M 6,7 V 8 H 5.5 C 4.669,8 4,8.669 4,9.5 4,10.331 4.669,11 5.5,11 H 6 v 1 H 4.0918 c 0.206,0.582 0.754,1 1.4082,1 H 6 v 1 H 7 V 13 H 7.5 C 8.331,13 9,12.331 9,11.5 9,10.669 8.331,10 7.5,10 H 7 V 9 H 8.9082 C 8.7022,8.418 8.1542,8 7.5002,8 h -0.5 V 7 h -1 z M 5.5,9 H 6 v 1 H 5.5 C 5.223,10 5,9.777 5,9.5 5,9.223 5.223,9 5.5,9 Z M 7,11 H 7.5 C 7.777,11 8,11.223 8,11.5 8,11.777 7.7767,12.013 7.5,12 H 7 Z m 4,2 v 1 h 6 v -1 z"/>
  </g>
 </g>
</svg>
