<svg xmlns="http://www.w3.org/2000/svg" width="32" height="32" version="1.1">
 <g id="22-22-veracrypt" transform="translate(32,10)">
  <rect style="opacity:0.001" width="22" height="22" x="0" y="0"/>
  <path style="opacity:0.35;fill:#dfdfdf" d="m 2,3 4.4492188,16 0.2910156,-0.955078 1.6152344,-7.029297 h 0.085937 L 6.3007812,3 Z"/>
  <path style="opacity:0.15;fill:#dfdfdf" d="m 12.035877,11.019838 -3.6795694,-0.0049 -1.6153846,7.029384 -0.2923077,0.955077 4.1588307,-7e-6 c 1.687754,-7.318154 1.4288,-7.980154 1.4288,-7.980154 z"/>
  <path style="fill:#dfdfdf" d="M 11.038461,3.0000005 8.4394615,11.015539 10.6,19 h 8.631384 L 17.38523,15 h -3.7 L 12.562539,11.015539 13.992923,7 h 3.392307 l 1.846154,-3.9999995 z"/>
 </g>
 <g id="veracrypt">
  <rect style="opacity:0.001" width="32" height="32" x="0" y="0"/>
  <rect style="fill:#4f4f4f" width="28" height="28" x="-30" y="-30" rx="1.5" ry="1.5" transform="matrix(0,-1,-1,0,0,0)"/>
  <path style="opacity:0.2" d="m 5,8 6,20 H 26 L 24,23 H 19.5 L 18,18.5 19.5,13 H 24 L 26,8 H 16 L 13.008,18.471 10,8 Z"/>
  <path style="opacity:0.1;fill:#ffffff" d="M 3.5,2 C 2.669,2 2,2.669 2,3.5 v 1 C 2,3.669 2.669,3 3.5,3 h 25 C 29.331,3 30,3.669 30,4.5 v -1 C 30,2.669 29.331,2 28.5,2 Z"/>
  <path style="opacity:0.2" d="m 2,28.5 v 1 C 2,30.331 2.669,31 3.5,31 h 25 c 0.831,0 1.5,-0.669 1.5,-1.5 v -1 C 30,29.331 29.331,30 28.5,30 H 3.5 C 2.669,30 2,29.331 2,28.5 Z"/>
  <path style="fill:#0198c4" d="m 5,7 5,-8e-7 5.269,18.3349998 0.356,1.665 H 11 Z"/>
  <path style="fill:#4dbac2" d="M 17.344,17.505 13.225,17.5 11,27 h 4.5 c 2.0569,-8.9187 1.8443,-9.4947 1.8443,-9.4947 z"/>
  <path style="fill:#06b788" d="M 16,7 13,17.5 15.625,27 H 26 L 24,22 H 19.5 L 18,17.5 19.5,12 H 24 l 2,-5 z"/>
 </g>
</svg>
