<svg xmlns="http://www.w3.org/2000/svg" width="32" height="32" version="1.1">
 <g id="22-22-virt-manager" transform="translate(32,10)">
  <rect style="opacity:0.001" width="22" height="22" x="0" y="0"/>
  <path style="opacity:0.35;fill:#dfdfdf" d="m 0,7 3.225,8 h 2.3 L 8.7,7 H 6.525 L 4.35,12.275 2.2,7 Z"/>
  <path style="fill:#dfdfdf" d="M 9.825,7 C 8.7419,9.6805 7.6411,12.3442 6.5,15 H 8.8 L 10.95,9.75 13.075,15 h 2.3 L 17.5,9.6 19.7,15 H 22 C 20.8589,12.3442 19.7331,9.6805 18.65,7 h -2.3 L 14.225,12.275 12.05,7 Z"/>
 </g>
 <g id="virt-manager">
  <rect style="opacity:0.001" width="32" height="32" x="0" y="0"/>
  <g transform="translate(-2e-4)">
   <rect style="fill:#4f4f4f" width="28" height="28" x="2" y="2" rx="1.4" ry="1.4"/>
   <path style="opacity:0.1;fill:#ffffff" d="M 3.4004,2 C 2.6248,2 2,2.6248 2,3.4004 v 1 C 2,3.6248 2.6248,3 3.4004,3 h 25.2 c 0.775,0 1.4,0.6248 1.4,1.4004 v -1 C 30.0004,2.6248 29.3754,2 28.6004,2 Z"/>
   <path style="opacity:0.2" d="m 2,28.6 v 1 C 2,30.375 2.6248,31 3.4004,31 h 25.2 c 0.775,0 1.4,-0.625 1.4,-1.4 v -1 c 0,0.775 -0.625,1.4 -1.4,1.4 h -25.2 c -0.7752,0 -1.4,-0.625 -1.4,-1.4 z"/>
   <path style="opacity:0.2" d="m 4.5,13 3.225,8 h 2.3 L 13.2,13 H 11.025 L 8.85,18.275 6.7,13 Z"/>
   <path style="fill:#6a2537" d="m 4.5,12 3.225,8 h 2.3 L 13.2,12 H 11.025 L 8.85,17.275 6.7,12 Z"/>
   <path style="opacity:0.2" d="M 15.325,13 C 14.2419,15.6805 13.1411,18.3442 12,21 h 2.3 l 2.15,-5.25 2.125,5.25 h 2.3 L 23,15.6 25.2,21 h 2.3 c -1.1411,-2.6558 -2.2669,-5.3195 -3.35,-8 h -2.3 L 19.725,18.275 17.55,13 Z"/>
   <path style="fill:#a6aaad" d="M 15.325,12 C 14.2419,14.6805 13.1411,17.3442 12,20 h 2.3 l 2.15,-5.25 2.125,5.25 h 2.3 L 23,14.6 25.2,20 h 2.3 c -1.1411,-2.6558 -2.2669,-5.3195 -3.35,-8 h -2.3 L 19.725,17.275 17.55,12 Z"/>
  </g>
 </g>
</svg>
