<svg xmlns="http://www.w3.org/2000/svg" width="32" height="32" version="1.1">
 <g id="22-22-vlc" transform="translate(32,10)">
  <rect style="opacity:0.001" width="22" height="22" x="0" y="0" rx=".752" ry=".72"/>
  <path style="fill:#dfdfdf" d="m 10.96,3 c -0.005,-2e-5 -0.01,-0.002 -0.0154,-0.002 -0.687,0 -1.1558,0.1941 -1.2235,0.45952 -0.0348,0.0546 -0.0769,0.1056 -0.0957,0.16913 l -0.64422,3.1748 c 0.96505,0.69965 3.066,0.69965 4.0311,0 l -0.64421,-3.1748 c -0.004,-0.0136 -0.0157,-0.0226 -0.0205,-0.0359 6e-5,-0.002 0.003,-0.004 0.003,-0.005 C 12.35056,3.50385 12.29467,3.4229 12.20702,3.3483 12.13002,3.2658 12.03317,3.19985 11.92337,3.1621 11.62677,3.06002 11.3151,2.99995 10.9972,2.9964 Z M 8.1542,9.6003 7.50314,11.7989 h -1.056 c -0.28245,7e-5 -0.53724,0.16987 -0.64593,0.43049 l -1.7498,5.7989 c -0.19207,0.46083 0.14656,0.96845 0.64593,0.9686 h 12.599 c 0.49936,-1.5e-4 0.83799,-0.50777 0.64592,-0.9686 l -1.7498,-5.7989 c -0.1087,-0.26062 -0.36349,-0.43042 -0.64593,-0.43049 h -1.056 L 13.83948,9.6003 c -1.9246,0.76526 -3.5418,0.96203 -5.6852,0 z m 6.4371,2.5351 0.57587,1.9492 c 0.0897,0.30331 -0.0346,0.62879 -0.30417,0.79435 -1.0985,0.67411 -2.4982,1.0048 -3.8927,1.0181 C 9.5759,15.91045 8.1751,15.60862 7.0964,14.85665 6.84937,14.68431 6.74103,14.37329 6.82641,14.08451 l 0.55024,-1.8603 c 0.75371,0.44185 4.1682,1.7558 7.2146,-0.0888 z"/>
 </g>
 <g id="vlc">
  <rect style="opacity:0.001" width="32" height="32" x="0" y="0"/>
  <g transform="translate(0.00119667)">
   <path style="fill:#ff8800" d="m 6.8995,18.988 c -0.56496,1.4e-4 -1.0745,0.33981 -1.2919,0.86126 l -3.4997,8.2118 c -0.38418,0.92201 0.29304,1.9382 1.2919,1.9385 h 25.198 c 0.99885,-3.1e-4 1.6761,-1.0165 1.2919,-1.9385 L 26.39,19.84926 C 26.17259,19.32781 25.66308,18.98814 25.0981,18.988 Z"/>
   <path style="opacity:0.2;fill:#ffffff" d="m 6.8991,18.988 c -0.56496,1.4e-4 -1.0736,0.33988 -1.291,0.86133 l -3.5,8.2109 c -0.14785,0.35483 -0.1361,0.72351 -0.01172,1.043 0.0054,-0.0142 0.0058,-0.0288 0.01172,-0.043 l 3.5,-8.2109 c 0.21741,-0.52145 0.72606,-0.8612 1.291,-0.86133 h 18.199 c 0.56496,1.3e-4 1.0736,0.33988 1.291,0.86133 l 3.5,8.2109 c 0.006,0.0142 0.006,0.0288 0.0117,0.043 0.12438,-0.31946 0.13614,-0.68814 -0.0117,-1.043 l -3.5,-8.2109 C 26.17169,19.32788 25.66305,18.98814 25.0981,18.988 Z"/>
   <path style="fill:#ff8800" d="m 16.001,1.9884 c -0.63588,-0.007 -1.2843,0.10086 -1.9248,0.35818 -0.39691,0.15963 -0.69905,0.49198 -0.82025,0.90227 l -1.2878,4.3528 c 2.0367,4.38 6.1312,1.4352 8.0603,0 l -1.2878,-4.3528 C 18.61222,2.81457 18.28167,2.46925 17.85342,2.32197 17.26018,2.11773 16.63692,1.99551 16.00102,1.9884 Z m -5.689,11.213 -1.5536,5.25 c 0.50292,4.4562 8.3306,3.5251 14.428,-0.17873 l -1.5004,-5.0707 c -3.8497,1.5311 -5.4111,-2.9352 -11.374,0 z"/>
   <path style="opacity:0.2" d="M 2.0964,29.104 C 1.7487,30.014 2.4151,31 3.3991,31 h 25.199 c 0.98407,-3.1e-4 1.6505,-0.98561 1.3027,-1.8965 -0.19885,0.51062 -0.69024,0.89629 -1.3047,0.89648 H 3.4011 c -0.6144,0 -1.1058,-0.386 -1.3046,-0.897 z"/>
   <path style="fill:#ffffff" d="m 11.968,7.6018 -3.2099,10.848 1.5539,-5.249 c 4.2871,1.9248 7.5239,1.5311 11.374,0 l 1.5005,5.0709 c -6.093,3.691 -12.92,1.062 -14.428,0.178 l -1.1013,3.7201 c -0.17073,0.57777 0.04736,1.2001 0.5414,1.5449 2.1575,1.5044 4.9594,2.1103 7.7485,2.0836 2.7891,-0.0267 5.5868,-0.6897 7.7841,-2.0385 0.53921,-0.33126 0.78922,-0.98317 0.60976,-1.59 l -4.312,-14.568 c -1.9303,1.3999 -6.1306,1.3999 -8.0609,0 z"/>
   <path style="opacity:0.2" d="m 15.893,1.9919 c -1.4863,0 -2.4746,0.45284 -2.4746,1.0508 0,0.16432 0.1063,0.33481 0.2793,0.49805 0.38993,-0.33089 1.1688,-0.54883 2.1953,-0.54883 1.0268,0 1.9668,0.27693 2.457,0.64453 0.20761,-0.16502 0.35938,-0.3311 0.35938,-0.4707 -2e-5,-0.59794 -1.3301,-1.1738 -2.8164,-1.1738 z"/>
  </g>
 </g>
</svg>
