<svg xmlns="http://www.w3.org/2000/svg" id="svg51" width="32" height="32" version="1.1">
 <g id="22-22-window-close" transform="translate(32,10)">
  <rect id="rect12" style="opacity:0.00100002" width="22" height="22" x="0" y="0"/>
  <g id="g18" style="fill:#ffffff" transform="matrix(1.7493122,0,0,1.7499488,-107.95048,-909.47286)">
   <g id="g16" style="fill:#ffffff" transform="translate(19,-242)">
    <path id="path14" style="fill:#dfdfdf" d="m 45.571203,764.57141 h 0.857142 c 0.0089,-1.1e-4 0.01782,-4e-4 0.02679,0 0.21853,0.01 0.437032,0.11021 0.589286,0.26785 l 1.955357,1.95536 1.982143,-1.95536 c 0.227678,-0.19757 0.382861,-0.26185 0.589285,-0.26785 h 0.857143 v 0.85714 c 0,0.24555 -0.02943,0.47199 -0.214285,0.64286 l -1.955357,1.95535 1.928571,1.92858 c 0.161304,0.16128 0.241064,0.38867 0.241071,0.61607 v 0.85714 h -0.857143 c -0.2274,-10e-6 -0.454788,-0.0798 -0.616071,-0.24107 l -1.955357,-1.95536 -1.955357,1.95536 c -0.161288,0.1613 -0.388684,0.24107 -0.616076,0.24107 h -0.857142 v -0.85714 c -3e-6,-0.22739 0.07977,-0.45479 0.241071,-0.61607 l 1.955357,-1.92858 -1.955357,-1.95535 c -0.180636,-0.16683 -0.259851,-0.40222 -0.241071,-0.64286 z"/>
   </g>
  </g>
 </g>
 <g id="16-16-window-close" transform="translate(54,32)">
  <rect id="rect21" style="opacity:0.00100002" width="16" height="16" x="0" y="-16"/>
  <g id="g27" style="fill:#ffffff" transform="matrix(1.2495087,0,0,1.2499635,-76.964626,-665.48065)">
   <g id="g25" style="fill:#ffffff" transform="translate(19,-242)">
    <path id="path23" style="fill:#dfdfdf" d="m 45.799685,764.79997 h 0.8 c 0.0083,-10e-5 0.01663,-3.7e-4 0.025,0 0.203961,0.009 0.407896,0.10286 0.55,0.25 l 1.825,1.825 1.85,-1.825 c 0.2125,-0.1844 0.357337,-0.2444 0.55,-0.25 h 0.8 v 0.8 c 0,0.22918 -0.02747,0.44052 -0.2,0.6 l -1.825,1.825 1.8,1.8 c 0.15055,0.15054 0.224993,0.36276 0.225,0.575 v 0.8 h -0.8 c -0.212241,-10e-6 -0.424469,-0.0745 -0.575,-0.225 l -1.825,-1.825 -1.825,1.825 c -0.150531,0.15055 -0.362768,0.225 -0.575,0.225 h -0.8 v -0.8 c -3e-6,-0.21223 0.07445,-0.42446 0.225,-0.575 l 1.825,-1.8 -1.825,-1.825 c -0.168594,-0.1557 -0.242528,-0.3754 -0.225,-0.6 z"/>
   </g>
  </g>
 </g>
 <g id="window-close">
  <rect id="rect30" style="opacity:0.00100002" width="32" height="32" x="0" y="0"/>
  <rect id="rect32" style="opacity:0.2" width="28" height="28" x="-31" y="-30" rx="14" ry="14" transform="matrix(0,-1,-1,0,0,0)"/>
  <rect id="rect34" style="fill:#f34235" width="28" height="28" x="-30" y="-30" rx="14" ry="14" transform="matrix(0,-1,-1,0,0,0)"/>
  <g id="g40" style="opacity:0.2" transform="matrix(1.7493122,0,0,1.7499488,-102.95048,-903.47286)">
   <g id="g38" transform="translate(19,-242)">
    <path id="path36" d="m 45.571203,764.57141 h 0.857142 c 0.0089,-1.1e-4 0.01782,-4e-4 0.02679,0 0.21853,0.01 0.437032,0.11021 0.589286,0.26785 l 1.955357,1.95536 1.982143,-1.95536 c 0.227678,-0.19757 0.382861,-0.26185 0.589285,-0.26785 h 0.857143 v 0.85714 c 0,0.24555 -0.02943,0.47199 -0.214285,0.64286 l -1.955357,1.95535 1.928571,1.92858 c 0.161304,0.16128 0.241064,0.38867 0.241071,0.61607 v 0.85714 h -0.857143 c -0.2274,-10e-6 -0.454788,-0.0798 -0.616071,-0.24107 l -1.955357,-1.95536 -1.955357,1.95536 c -0.161288,0.1613 -0.388684,0.24107 -0.616076,0.24107 h -0.857142 v -0.85714 c -3e-6,-0.22739 0.07977,-0.45479 0.241071,-0.61607 l 1.955357,-1.92858 -1.955357,-1.95535 c -0.180636,-0.16683 -0.259851,-0.40222 -0.241071,-0.64286 z"/>
   </g>
  </g>
  <g id="g46" style="fill:#ffffff" transform="matrix(1.7493122,0,0,1.7499488,-102.95048,-904.47286)">
   <g id="g44" style="fill:#ffffff" transform="translate(19,-242)">
    <path id="path42" style="fill:#ffffff" d="m 45.571203,764.57141 h 0.857142 c 0.0089,-1.1e-4 0.01782,-4e-4 0.02679,0 0.21853,0.01 0.437032,0.11021 0.589286,0.26785 l 1.955357,1.95536 1.982143,-1.95536 c 0.227678,-0.19757 0.382861,-0.26185 0.589285,-0.26785 h 0.857143 v 0.85714 c 0,0.24555 -0.02943,0.47199 -0.214285,0.64286 l -1.955357,1.95535 1.928571,1.92858 c 0.161304,0.16128 0.241064,0.38867 0.241071,0.61607 v 0.85714 h -0.857143 c -0.2274,-10e-6 -0.454788,-0.0798 -0.616071,-0.24107 l -1.955357,-1.95536 -1.955357,1.95536 c -0.161288,0.1613 -0.388684,0.24107 -0.616076,0.24107 h -0.857142 v -0.85714 c -3e-6,-0.22739 0.07977,-0.45479 0.241071,-0.61607 l 1.955357,-1.92858 -1.955357,-1.95535 c -0.180636,-0.16683 -0.259851,-0.40222 -0.241071,-0.64286 z"/>
   </g>
  </g>
  <path id="path48" style="opacity:0.2;fill:#ffffff" d="M 16,2 C 8.244,2 2,8.244 2,16 2,16.168842 2.019521,16.33264 2.025391,16.5 2.2891326,8.9794325 8.4128418,3 16,3 23.587158,3 29.710867,8.9794325 29.974609,16.5 29.980479,16.33264 30,16.168842 30,16 30,8.244 23.756,2 16,2 Z"/>
 </g>
 <g id="22-22-window-pin" transform="translate(27,-27)">
  <rect id="rect864" style="opacity:0.001" width="22" height="22" x="5" y="5"/>
  <path id="path4" style="fill:#dfdfdf" d="m 18,8 c -0.778504,0.778504 -0.936706,2.168688 -0.03126,3.6875 l -4.25,2.84375 C 13.190334,14.318042 12.623146,14.159068 12.06249,14.15625 11.33374,14.15265 10.625,14.375 10,15 l 3,3 -4,4 -1,2 2,-1 4,-4 3,3 c 1.106964,-1.106964 0.964748,-2.507768 0.46875,-3.71875 l 2.84375,-4.25 c 1.518812,0.905456 2.908996,0.747254 3.6875,-0.03126 z"/>
 </g>
 <g id="16-16-window-pin" transform="translate(46,-24)">
  <rect id="rect872" style="opacity:0.001" width="16" height="16" x="8" y="8"/>
  <path id="path874" style="fill:#dfdfdf" d="m 17,12 c -0.389252,0.389252 -0.468353,1.084344 -0.01563,1.84375 l -2.125,1.421875 C 14.595167,15.159021 14.311573,15.079534 14.031245,15.078125 13.66687,15.076325 13.3125,15.1875 13,15.5 l 1.5,1.5 -2,2 -0.5,1 1,-0.5 2,-2 1.5,1.5 c 0.553482,-0.553482 0.482374,-1.253884 0.234375,-1.859375 l 1.421875,-2.125 c 0.759406,0.452728 1.454498,0.373627 1.84375,-0.01563 z"/>
 </g>
 <g id="window-pin" transform="translate(5e-7,-32)">
  <rect id="rect884" style="opacity:0.001" width="32" height="32" x="0" y="0"/>
  <path id="path886" style="fill:#dfdfdf" d="m 19.500001,2 c -1.362381,1.362382 -1.639235,3.795204 -0.05471,6.453125 l -7.437499,4.976562 C 11.083085,13.056574 10.090505,12.778369 9.109358,12.773438 7.834045,12.767182 6.59375,13.156251 5.5,14.249999 L 10.750001,19.5 3.75,26.5 2,30 l 3.5,-1.750001 7,-7 L 17.750001,26.5 c 1.937186,-1.937188 1.688308,-4.388594 0.820312,-6.507812 l 4.976561,-7.4375 C 26.204796,14.139235 28.637619,13.862381 30,12.499978 Z"/>
 </g>
</svg>
