<svg xmlns="http://www.w3.org/2000/svg" xmlns:osb="http://www.openswatchbook.org/uri/2009/osb" id="svg" width="100%" height="100%" version="1.1" viewBox="0 0 22 22">
 <defs id="defs81">
  <linearGradient id="linearGradient5606" osb:paint="solid">
   <stop id="stop5608" offset="0" style="stop-color:#000000;stop-opacity:1"/>
  </linearGradient>
 </defs>
 <g id="window-pin" transform="translate(31,-30)">
  <rect id="rect3022" width="8" height="8" x="-46" y="44" style="fill:#d3dae3;fill-opacity:0;stroke:none"/>
  <path id="rect3845" d="m -41,44 c -0.389252,0.389252 -0.468353,1.084344 -0.01563,1.84375 l -2.125,1.421875 c -0.264203,-0.106604 -0.547797,-0.186091 -0.828125,-0.1875 C -44.33313,47.076275 -44.6875,47.1875 -45,47.5 l 1.5,1.5 -2,2 -0.5,1 1,-0.5 2,-2 1.5,1.5 c 0.553482,-0.553482 0.482374,-1.253884 0.234375,-1.859375 l 1.421875,-2.125 C -39.084344,47.468353 -38.389252,47.389252 -38,47 z" style="fill:#d3dae3;fill-opacity:1;opacity:1"/>
 </g>
 <g id="window-unpin" transform="translate(31,-30)">
  <path id="path3024" d="m -61,44 c -0.389252,0.389252 -0.468353,1.084344 -0.01563,1.84375 l -2.125,1.421875 c -0.264203,-0.106604 -0.547797,-0.186091 -0.828125,-0.1875 C -64.33313,47.076275 -64.6875,47.1875 -65,47.5 l 1.5,1.5 -2,2 -0.5,1 1,-0.5 2,-2 1.5,1.5 c 0.553482,-0.553482 0.482374,-1.253884 0.234375,-1.859375 l 1.421875,-2.125 C -59.084344,47.468353 -58.389252,47.389252 -58,47 z" style="fill:#338dd6"/>
  <rect id="rect3030" width="8" height="8" x="-66" y="44" style="fill:#d3dae3;fill-opacity:0;stroke:none"/>
 </g>
 <rect id="rect3009" width="22" height="22" x="0" y="0" style="fill:#d3dae3;fill-opacity:0;stroke:none"/>
 <g id="window-close">
  <rect id="rect4224" width="22" height="22" x="0" y="0" style="opacity:0.001;fill:#000000;fill-opacity:1;fill-rule:nonzero;stroke:none;stroke-width:2;stroke-linecap:round;stroke-linejoin:round;stroke-miterlimit:4;stroke-dasharray:none;stroke-opacity:1"/>
  <g id="g4232" transform="matrix(1.7493122,0,0,1.7499488,-107.95048,-909.47286)" style="fill:#ffffff;fill-opacity:1">
   <g id="g4234" transform="translate(19,-242)" style="display:inline;fill:#ffffff;fill-opacity:1">
    <path id="path4236" d="m 45.571203,764.57141 0.857142,0 c 0.0089,-1.1e-4 0.01782,-4e-4 0.02679,0 0.21853,0.01 0.437032,0.11021 0.589286,0.26785 l 1.955357,1.95536 1.982143,-1.95536 c 0.227678,-0.19757 0.382861,-0.26185 0.589285,-0.26785 l 0.857143,0 0,0.85714 c 0,0.24555 -0.02943,0.47199 -0.214285,0.64286 l -1.955357,1.95535 1.928571,1.92858 c 0.161304,0.16128 0.241064,0.38867 0.241071,0.61607 l 0,0.85714 -0.857143,0 c -0.2274,-10e-6 -0.454788,-0.0798 -0.616071,-0.24107 l -1.955357,-1.95536 -1.955357,1.95536 c -0.161288,0.1613 -0.388684,0.24107 -0.616076,0.24107 l -0.857142,0 0,-0.85714 c -3e-6,-0.22739 0.07977,-0.45479 0.241071,-0.61607 l 1.955357,-1.92858 -1.955357,-1.95535 c -0.180636,-0.16683 -0.259851,-0.40222 -0.241071,-0.64286 l 0,-0.85714 z" style="color:#bebebe;font-style:normal;font-variant:normal;font-weight:normal;font-stretch:normal;font-size:medium;line-height:normal;font-family:'Andale Mono';-inkscape-font-specification:'Andale Mono';text-indent:0;text-align:start;text-decoration:none;text-decoration-line:none;letter-spacing:normal;word-spacing:normal;text-transform:none;direction:ltr;block-progression:tb;writing-mode:lr-tb;text-anchor:start;display:inline;overflow:visible;visibility:visible;fill:#d3dae3;fill-opacity:1;fill-rule:nonzero;stroke:none;stroke-width:1.78124988;marker:none;enable-background:new"/>
   </g>
  </g>
 </g>
 <g id="16-16-window-close">
  <rect id="rect4200" width="16" height="16" x="0" y="-16" style="opacity:0.001;fill:#000000;fill-opacity:1;fill-rule:nonzero;stroke:none;stroke-width:2;stroke-linecap:round;stroke-linejoin:round;stroke-miterlimit:4;stroke-dasharray:none;stroke-opacity:1"/>
  <g id="g4208" transform="matrix(1.2495087,0,0,1.2499635,-76.964626,-665.48065)" style="fill:#ffffff;fill-opacity:1">
   <g id="g4210" transform="translate(19,-242)" style="display:inline;fill:#ffffff;fill-opacity:1">
    <path id="path4212" d="m 45.799685,764.79997 0.8,0 c 0.0083,-10e-5 0.01663,-3.7e-4 0.025,0 0.203961,0.009 0.407896,0.10286 0.55,0.25 l 1.825,1.825 1.85,-1.825 c 0.2125,-0.1844 0.357337,-0.2444 0.55,-0.25 l 0.8,0 0,0.8 c 0,0.22918 -0.02747,0.44052 -0.2,0.6 l -1.825,1.825 1.8,1.8 c 0.15055,0.15054 0.224993,0.36276 0.225,0.575 l 0,0.8 -0.8,0 c -0.212241,-10e-6 -0.424469,-0.0745 -0.575,-0.225 l -1.825,-1.825 -1.825,1.825 c -0.150531,0.15055 -0.362768,0.225 -0.575,0.225 l -0.8,0 0,-0.8 c -3e-6,-0.21223 0.07445,-0.42446 0.225,-0.575 l 1.825,-1.8 -1.825,-1.825 c -0.168594,-0.1557 -0.242528,-0.3754 -0.225,-0.6 l 0,-0.8 z" style="color:#bebebe;font-style:normal;font-variant:normal;font-weight:normal;font-stretch:normal;font-size:medium;line-height:normal;font-family:'Andale Mono';-inkscape-font-specification:'Andale Mono';text-indent:0;text-align:start;text-decoration:none;text-decoration-line:none;letter-spacing:normal;word-spacing:normal;text-transform:none;direction:ltr;block-progression:tb;writing-mode:lr-tb;text-anchor:start;display:inline;overflow:visible;visibility:visible;fill:#d3dae3;fill-opacity:1;fill-rule:nonzero;stroke:none;stroke-width:1.78124988;marker:none;enable-background:new"/>
   </g>
  </g>
 </g>
</svg>
