<svg xmlns="http://www.w3.org/2000/svg" width="32" height="32" version="1.1">
 <g id="16-16-zoom-fit-width" transform="translate(-435.0002,43)">
  <rect style="opacity:0.001" width="16" height="16" x="489" y="-59"/>
  <path style="fill:#dfdfdf" d="m 494.0002,-54.00334 -4,2.999999 4,3.000001 v -2.000001 h 6 v 2.000001 l 4,-3.000001 -4,-2.999999 v 2.000001 h -6 z"/>
 </g>
 <g id="16-16-zoom-fit-height" transform="rotate(90,242,-231)">
  <rect style="opacity:0.001" width="16" height="16" x="489" y="-59"/>
  <path style="fill:#dfdfdf" d="m 494.0002,-54.00334 -4,2.999999 4,3.000001 v -2.000001 h 6 v 2.000001 l 4,-3.000001 -4,-2.999999 v 2.000001 h -6 z"/>
 </g>
 <g id="22-22-zoom-fit-width" transform="translate(-433,43)">
  <rect style="opacity:0.001" width="22" height="22" x="465" y="-65"/>
  <path style="fill:#dfdfdf" d="m 472.0002,-58.00334 -5,4 5,4 v -3 h 8 v 3 l 5,-4 -5,-4 v 3 h -8 z"/>
 </g>
 <g id="zoom-fit-width" transform="translate(0,-32)">
  <rect style="opacity:0.001" width="32" height="32" x="0" y="0"/>
  <g>
   <rect style="opacity:0.2" width="14" height="4" x="9" y="15"/>
   <path style="opacity:0.2" d="M 10.202981,11.000734 A 1.7460457,1.722978 0 0 0 9.3811936,11.230386 L 5.6268885,13.36875 1.8725838,15.507957 a 1.7460457,1.722978 0 0 0 0,2.983785 l 3.7543047,2.139207 3.7543051,2.138365 A 1.7460457,1.722978 0 0 0 12,21.277842 V 17.00027 12.722698 a 1.7460457,1.722978 0 0 0 -1.797019,-1.721964 z"/>
   <path style="opacity:0.2" d="m 21.797019,11.000734 a 1.7460457,1.722978 0 0 1 0.821787,0.229652 l 3.754305,2.138364 3.754305,2.139207 a 1.7460457,1.722978 0 0 1 0,2.983785 l -3.754305,2.139207 -3.754305,2.138365 A 1.7460457,1.722978 0 0 1 20,21.277842 V 17.00027 12.722698 a 1.7460457,1.722978 0 0 1 1.797019,-1.721964 z"/>
   <rect style="fill:#8e8e8e" width="14" height="4" x="9" y="14"/>
   <path style="fill:#e4e4e4" d="M 10.202981,10.000734 A 1.7460457,1.722978 0 0 0 9.3811936,10.230386 L 5.6268885,12.36875 1.8725838,14.507957 a 1.7460457,1.722978 0 0 0 0,2.983785 l 3.7543047,2.139207 3.7543051,2.138365 A 1.7460457,1.722978 0 0 0 12,20.277842 V 16.00027 11.722698 a 1.7460457,1.722978 0 0 0 -1.797019,-1.721964 z"/>
   <path style="fill:#e4e4e4" d="m 21.797019,10.000734 a 1.7460457,1.722978 0 0 1 0.821787,0.229652 l 3.754305,2.138364 3.754305,2.139207 a 1.7460457,1.722978 0 0 1 0,2.983785 l -3.754305,2.139207 -3.754305,2.138365 A 1.7460457,1.722978 0 0 1 20,20.277842 V 16.00027 11.722698 a 1.7460457,1.722978 0 0 1 1.797019,-1.721964 z"/>
   <path style="opacity:0.2;fill:#ffffff" d="M 10.203125,10 A 1.7460457,1.722978 0 0 0 9.3808594,10.230469 L 5.6269531,12.369141 1.8730469,14.507812 A 1.7460457,1.722978 0 0 0 1.0761719,16.5 1.7460457,1.722978 0 0 1 1.8730469,15.507812 L 5.6269531,13.369141 9.3808594,11.230469 A 1.7460457,1.722978 0 0 1 10.203125,11 1.7460457,1.722978 0 0 1 12,12.722656 v -1 A 1.7460457,1.722978 0 0 0 10.203125,10 Z"/>
   <path style="opacity:0.2;fill:#ffffff" d="M 21.796875,10 A 1.7460457,1.722978 0 0 0 20,11.722656 v 1 A 1.7460457,1.722978 0 0 1 21.796875,11 a 1.7460457,1.722978 0 0 1 0.822266,0.230469 l 3.753906,2.138672 3.753906,2.138671 A 1.7460457,1.722978 0 0 1 30.923828,16.5 1.7460457,1.722978 0 0 0 30.126953,14.507812 L 26.373047,12.369141 22.619141,10.230469 A 1.7460457,1.722978 0 0 0 21.796875,10 Z"/>
  </g>
 </g>
 <g id="22-22-zoom-fit-height" transform="rotate(90,222,-233)">
  <rect style="opacity:0.001" width="22" height="22" x="465" y="-65"/>
  <path style="fill:#dfdfdf" d="m 472.0002,-58.00334 -5,4 5,4 v -3 h 8 v 3 l 5,-4 -5,-4 v 3 h -8 z"/>
 </g>
 <g id="zoom-fit-height" transform="translate(0,32)">
  <rect style="opacity:0.001" width="32" height="32" x="-32" y="-32" transform="rotate(90)"/>
  <rect style="fill:#8e8e8e" width="14" height="4" x="-23" y="-18" transform="rotate(90)"/>
  <path style="opacity:0.2" d="m 21.999266,-20.797019 a 1.722978,1.7460457 0 0 0 -0.229652,-0.821787 l -2.138364,-3.754305 -2.139207,-3.754305 a 1.722978,1.7460457 0 0 0 -2.983785,0 l -2.139207,3.754305 -2.138365,3.754305 A 1.722978,1.7460457 0 0 0 11.722158,-19 h 4.277572 4.277572 a 1.722978,1.7460457 0 0 0 1.721964,-1.797019 z"/>
  <path style="fill:#e4e4e4" d="m 21.999266,-21.797019 a 1.722978,1.7460457 0 0 0 -0.229652,-0.821787 l -2.138364,-3.754305 -2.139207,-3.754305 a 1.722978,1.7460457 0 0 0 -2.983785,0 l -2.139207,3.754305 -2.138365,3.754305 A 1.722978,1.7460457 0 0 0 11.722158,-20 h 4.277572 4.277572 a 1.722978,1.7460457 0 0 0 1.721964,-1.797019 z"/>
  <path style="opacity:0.2" d="m 21.999266,-9.2029808 a 1.722978,1.7460457 0 0 1 -0.229652,0.821787 l -2.138364,3.754305 -2.139207,3.754305 a 1.722978,1.7460457 0 0 1 -2.983785,0 l -2.139207,-3.754305 -2.138365,-3.754305 A 1.722978,1.7460457 0 0 1 11.722158,-11 h 4.277572 4.277572 a 1.722978,1.7460457 0 0 1 1.721964,1.7970192 z"/>
  <path style="fill:#e4e4e4" d="m 21.999266,-10.202981 a 1.722978,1.7460457 0 0 1 -0.229652,0.821787 l -2.138364,3.754305 -2.139207,3.754305 a 1.722978,1.7460457 0 0 1 -2.983785,0 L 12.369051,-5.626889 10.230686,-9.381194 A 1.722978,1.7460457 0 0 1 11.722158,-12 h 4.277572 4.277572 a 1.722978,1.7460457 0 0 1 1.721964,1.797019 z"/>
  <path style="opacity:0.2;fill:#ffffff" d="m 15.908203,-30.998047 a 1.722978,1.7460457 0 0 0 -1.400391,0.871094 l -2.138671,3.753906 -2.138672,3.753906 a 1.722978,1.7460457 0 0 0 -0.15625,1.373047 1.722978,1.7460457 0 0 1 0.15625,-0.373047 l 2.138672,-3.753906 2.138671,-3.753906 a 1.722978,1.7460457 0 0 1 2.984376,0 l 2.138671,3.753906 2.138672,3.753906 a 1.722978,1.7460457 0 0 1 0.15625,0.373047 A 1.722978,1.7460457 0 0 0 22,-21.796875 1.722978,1.7460457 0 0 0 21.769531,-22.619141 l -2.138672,-3.753906 -2.138671,-3.753906 a 1.722978,1.7460457 0 0 0 -1.583985,-0.871094 z"/>
  <path style="opacity:0.2;fill:#ffffff" d="M 11.722656,-12 A 1.722978,1.7460457 0 0 0 10.074219,-9.7539062 1.722978,1.7460457 0 0 1 11.722656,-11 H 16 20.277344 A 1.722978,1.7460457 0 0 1 21.925781,-9.7539062 1.722978,1.7460457 0 0 0 22,-10.203125 1.722978,1.7460457 0 0 0 20.277344,-12 H 16 Z"/>
 </g>
</svg>
