<svg xmlns="http://www.w3.org/2000/svg" width="112" height="41" version="1.1">
 <defs id="materia">
  <style id="current-color-scheme" type="text/css">
   .ColorScheme-Background {color:#181818; } .ColorScheme-ButtonBackground { color:#343434; } .ColorScheme-Highlight { color:#4285f4; } .ColorScheme-Text { color:#dfdfdf; } .ColorScheme-ViewBackground { color:#242424; } .ColorScheme-NegativeText { color:#f44336; } .ColorScheme-PositiveText { color:#4caf50; } .ColorScheme-NeutralText { color:#ff9800; }
  </style>
 </defs>
 <rect id="hint-rotation-angle" style="fill:#ff00ff" width="3.704" height="3.704" x="0" y="0"/>
 <g id="22-22-busywidget" transform="matrix(3.7773007,0,0,3.7773007,-6.9679581,1.0317159)">
  <rect style="opacity:0.001" width="5.82" height="5.82" x="6.61" y="4.76"/>
  <path style="fill:currentColor" class="ColorScheme-Highlight" transform="matrix(0.26455883,0,0,0.26455881,0,-0.00117624)" d="m 36,18 a 2,2.0000001 0 0 0 -2,2 2,2.0000001 0 0 0 2,2 2,2.0000001 0 0 0 2,-2 2,2.0000001 0 0 0 -2,-2 z m -6.392578,2.636719 a 2.0000001,2 0 0 0 -1.384766,0.585937 2.0000001,2 0 0 0 0,2.828125 2.0000001,2 0 0 0 2.828125,0 2.0000001,2 0 0 0 0,-2.828125 2.0000001,2 0 0 0 -1.443359,-0.585937 z m 12.726562,0 a 1.9999999,2.0000002 0 0 0 -1.384765,0.585937 1.9999999,2.0000002 0 0 0 0,2.828125 1.9999999,2.0000002 0 0 0 2.828125,0 1.9999999,2.0000002 0 0 0 0,-2.828125 1.9999999,2.0000002 0 0 0 -1.44336,-0.585937 z M 27,27 a 2.0000001,2 0 0 0 -2,2 2.0000001,2 0 0 0 2,2 2.0000001,2 0 0 0 2,-2 2.0000001,2 0 0 0 -2,-2 z m 18,0 a 2.0000001,2 0 0 0 -2,2 2.0000001,2 0 0 0 2,2 2.0000001,2 0 0 0 2,-2 2.0000001,2 0 0 0 -2,-2 z m -15.392578,6.363281 a 1.9999999,2.0000002 0 0 0 -1.384766,0.585938 1.9999999,2.0000002 0 0 0 0,2.828125 1.9999999,2.0000002 0 0 0 2.828125,0 1.9999999,2.0000002 0 0 0 0,-2.828125 1.9999999,2.0000002 0 0 0 -1.443359,-0.585938 z m 12.726562,0 a 2.0000001,2 0 0 0 -1.384765,0.585938 2.0000001,2 0 0 0 0,2.828125 2.0000001,2 0 0 0 2.828125,0 2.0000001,2 0 0 0 0,-2.828125 2.0000001,2 0 0 0 -1.44336,-0.585938 z M 36,36 a 2,2.0000001 0 0 0 -2,2 2,2.0000001 0 0 0 2,2 2,2.0000001 0 0 0 2,-2 2,2.0000001 0 0 0 -2,-2 z"/>
 </g>
 <g id="16-16-busywidget" transform="matrix(3.7798254,0,0,3.7798254,0,0.9981089)">
  <rect style="opacity:0.001" width="4.233" height="4.233" x="0" y="6.35"/>
  <path style="fill:currentColor" class="ColorScheme-Highlight" d="M 2.1164706,6.3482352 A 0.39683825,0.39683821 0 0 0 1.7196324,6.7450734 0.39683825,0.39683821 0 0 0 2.1164706,7.1419116 0.39683825,0.39683821 0 0 0 2.5133089,6.7450734 0.39683825,0.39683821 0 0 0 2.1164706,6.3482352 Z M 0.89495292,6.8520337 a 0.39683825,0.39683821 0 0 0 -0.27489316,0.1162612 0.39683825,0.39683821 0 0 0 0,0.5611541 0.39683825,0.39683821 0 0 0 0.56115414,0 0.39683825,0.39683821 0 0 0 0,-0.5611541 0.39683825,0.39683821 0 0 0 -0.28626098,-0.1162612 z m 2.43166778,0 a 0.39683825,0.39683821 0 0 0 -0.2748933,0.1162612 0.39683825,0.39683821 0 0 0 0,0.5611541 0.39683825,0.39683821 0 0 0 0.5611541,0 0.39683825,0.39683821 0 0 0 0,-0.5611541 A 0.39683825,0.39683821 0 0 0 3.3266207,6.8520337 Z M 0.39683825,8.0678675 A 0.39683825,0.39683821 0 0 0 0,8.4647057 0.39683825,0.39683821 0 0 0 0.39683825,8.8615439 0.39683825,0.39683821 0 0 0 0.79367649,8.4647057 0.39683825,0.39683821 0 0 0 0.39683825,8.0678675 Z m 3.43926475,0 A 0.39683825,0.39683821 0 0 0 3.4392648,8.4647057 0.39683825,0.39683821 0 0 0 3.836103,8.8615439 0.39683825,0.39683821 0 0 0 4.2329413,8.4647057 0.39683825,0.39683821 0 0 0 3.836103,8.0678675 Z M 0.89495292,9.2837012 a 0.39683825,0.39683821 0 0 0 -0.27489316,0.1162611 0.39683825,0.39683821 0 0 0 0,0.5611541 0.39683825,0.39683821 0 0 0 0.56115414,0 0.39683825,0.39683821 0 0 0 0,-0.5611541 0.39683825,0.39683821 0 0 0 -0.28626098,-0.1162611 z m 2.43166778,0 a 0.39683825,0.39683821 0 0 0 -0.2748933,0.1162611 0.39683825,0.39683821 0 0 0 0,0.5611541 0.39683825,0.39683821 0 0 0 0.5611541,0 0.39683825,0.39683821 0 0 0 0,-0.5611541 A 0.39683825,0.39683821 0 0 0 3.3266207,9.2837012 Z M 2.1164706,9.7874997 A 0.39683825,0.39683821 0 0 0 1.7196324,10.184338 0.39683825,0.39683821 0 0 0 2.1164706,10.581176 0.39683825,0.39683821 0 0 0 2.5133089,10.184338 0.39683825,0.39683821 0 0 0 2.1164706,9.7874997 Z"/>
 </g>
 <g id="busywidget" transform="matrix(7.5596507,0,0,7.5596507,44,-39.003781)">
  <rect style="opacity:0.001" width="4.233" height="4.233" x="0" y="6.35"/>
  <path style="fill:currentColor" class="ColorScheme-Highlight" d="M 2.1164706,6.3482352 A 0.39683825,0.39683821 0 0 0 1.7196324,6.7450734 0.39683825,0.39683821 0 0 0 2.1164706,7.1419116 0.39683825,0.39683821 0 0 0 2.5133089,6.7450734 0.39683825,0.39683821 0 0 0 2.1164706,6.3482352 Z M 0.89495292,6.8520337 a 0.39683825,0.39683821 0 0 0 -0.27489316,0.1162612 0.39683825,0.39683821 0 0 0 0,0.5611541 0.39683825,0.39683821 0 0 0 0.56115414,0 0.39683825,0.39683821 0 0 0 0,-0.5611541 0.39683825,0.39683821 0 0 0 -0.28626098,-0.1162612 z m 2.43166778,0 a 0.39683825,0.39683821 0 0 0 -0.2748933,0.1162612 0.39683825,0.39683821 0 0 0 0,0.5611541 0.39683825,0.39683821 0 0 0 0.5611541,0 0.39683825,0.39683821 0 0 0 0,-0.5611541 A 0.39683825,0.39683821 0 0 0 3.3266207,6.8520337 Z M 0.39683825,8.0678675 A 0.39683825,0.39683821 0 0 0 0,8.4647057 0.39683825,0.39683821 0 0 0 0.39683825,8.8615439 0.39683825,0.39683821 0 0 0 0.79367649,8.4647057 0.39683825,0.39683821 0 0 0 0.39683825,8.0678675 Z m 3.43926475,0 A 0.39683825,0.39683821 0 0 0 3.4392648,8.4647057 0.39683825,0.39683821 0 0 0 3.836103,8.8615439 0.39683825,0.39683821 0 0 0 4.2329413,8.4647057 0.39683825,0.39683821 0 0 0 3.836103,8.0678675 Z M 0.89495292,9.2837012 a 0.39683825,0.39683821 0 0 0 -0.27489316,0.1162611 0.39683825,0.39683821 0 0 0 0,0.5611541 0.39683825,0.39683821 0 0 0 0.56115414,0 0.39683825,0.39683821 0 0 0 0,-0.5611541 0.39683825,0.39683821 0 0 0 -0.28626098,-0.1162611 z m 2.43166778,0 a 0.39683825,0.39683821 0 0 0 -0.2748933,0.1162611 0.39683825,0.39683821 0 0 0 0,0.5611541 0.39683825,0.39683821 0 0 0 0.5611541,0 0.39683825,0.39683821 0 0 0 0,-0.5611541 A 0.39683825,0.39683821 0 0 0 3.3266207,9.2837012 Z M 2.1164706,9.7874997 A 0.39683825,0.39683821 0 0 0 1.7196324,10.184338 0.39683825,0.39683821 0 0 0 2.1164706,10.581176 0.39683825,0.39683821 0 0 0 2.5133089,10.184338 0.39683825,0.39683821 0 0 0 2.1164706,9.7874997 Z"/>
 </g>
 <g id="stopped" transform="matrix(3.7795628,0,0,3.7795628,-11.992336,0.98955013)">
  <rect style="opacity:0.001" width="8.466" height="8.466" x="24.34" y="2.12"/>
  <path style="fill:currentColor" class="ColorScheme-Highlight" d="m 28.572354,2.1152942 a 4.2329413,4.2329412 0 0 0 -4.232942,4.232941 4.2329413,4.2329412 0 0 0 4.232942,4.2329408 4.2329413,4.2329412 0 0 0 4.232941,-4.2329408 4.2329413,4.2329412 0 0 0 -4.232941,-4.232941 z m 0,1.5873529 a 2.6455882,2.6455881 0 0 1 2.645588,2.6455881 2.6455882,2.6455881 0 0 1 -2.645588,2.6455881 2.6455882,2.6455881 0 0 1 -2.645589,-2.6455881 2.6455882,2.6455881 0 0 1 2.645589,-2.6455881 z"/>
 </g>
</svg>
