<svg xmlns="http://www.w3.org/2000/svg" width="172" height="172" version="1">
 <defs id="materia">
  <style id="current-color-scheme" type="text/css">
   .ColorScheme-Background {color:#181818; } .ColorScheme-ButtonBackground { color:#343434; } .ColorScheme-Highlight { color:#4285f4; } .ColorScheme-Text { color:#dfdfdf; } .ColorScheme-ViewBackground { color:#242424; } .ColorScheme-NegativeText { color:#f44336; } .ColorScheme-PositiveText { color:#4caf50; } .ColorScheme-NeutralText { color:#ff9800; }
  </style>
 </defs>
 <g id="SecondHand">
  <rect style="opacity:0.001" width="22" height="96" x="233" y="76"/>
  <path style="fill:currentColor" class="ColorScheme-Highlight" d="m 245,83 v 78.99958 c 0,0 0,4.2e-4 -1,4.2e-4 -1,0 -1,4.2e-4 -1,4.2e-4 V 83.00027 Z"/>
  <circle style="fill:none;stroke-width:2;stroke:#000000;stroke-opacity:1;stroke-miterlimit:4;stroke-dasharray:none;opacity:0.05" cx="244" cy="87" r="10"/>
  <circle style="fill:none;stroke-width:1;stroke:#000000;stroke-opacity:1;stroke-miterlimit:4;stroke-dasharray:none;opacity:0.05" cx="244" cy="87" r="10"/>
  <circle style="fill:currentColor" class="ColorScheme-ViewBackground" cx="244" cy="87" r="10"/>
 </g>
 <g id="MinuteHand" transform="translate(-35,-36)">
  <rect style="opacity:0.05;fill:none;stroke:#000000;stroke-width:2;stroke-linecap:round;stroke-linejoin:bevel" width="6" height="94" x="241" y="113" rx="3" ry="3"/>
  <rect style="opacity:0.05;fill:none;stroke:#000000;stroke-linecap:round;stroke-linejoin:bevel" width="6" height="94" x="241" y="113" rx="3" ry="3"/>
  <rect style="fill:currentColor" class="ColorScheme-Text" width="6" height="94" x="241" y="113" rx="3" ry="3"/>
  <rect style="fill:currentColor;opacity:0.4" class="ColorScheme-Background" width="6" height="94" x="241" y="113" rx="3" ry="3"/>
 </g>
 <g id="HourHand">
  <rect style="opacity:0.001" width="10" height="96" x="176" y="76"/>
  <path style="fill:none;stroke:#000000;stroke-opacity:1;opacity:0.05" d="m 181.00002,76.999998 c -2.20914,0 -4,1.79086 -4,4 V 127 v 1 c 0,2.216 1.784,4 4,4 2.216,0 4,-1.784 4,-4 v -1 -46.000002 c 0,-2.20914 -1.79086,-4 -4,-4 z"/>
  <path style="fill:none;stroke:#000000;stroke-opacity:1;opacity:0.05;stroke-width:2;stroke-miterlimit:4;stroke-dasharray:none" d="m 181.00002,76.999998 c -2.20914,0 -4,1.79086 -4,4 V 127 v 1 c 0,2.216 1.784,4 4,4 2.216,0 4,-1.784 4,-4 v -1 -46.000002 c 0,-2.20914 -1.79086,-4 -4,-4 z"/>
  <path id="HourHand2" style="fill:currentColor" class="ColorScheme-Text" d="m 181.00002,76.999998 c -2.20914,0 -4,1.79086 -4,4 V 127 v 1 c 0,2.216 1.784,4 4,4 2.216,0 4,-1.784 4,-4 v -1 -46.000002 c 0,-2.20914 -1.79086,-4 -4,-4 z"/>
 </g>
 <g id="ClockFace">
  <rect style="opacity:0.001" width="172" height="172" x="0" y="0"/>
  <path style="opacity:0.03" d="m 86,11 c 41.55,0 75,33.45 75,75 0,41.55 -33.45,75 -75,75 C 44.45,161 11,127.55 11,86 11,44.45 44.45,11 86,11 Z m 0,0 C 43.342,11 9,45.342 9,88 c 0,42.658 34.342,77 77,77 42.658,0 77,-34.342 77,-77 0,-42.658 -34.342,-77 -77,-77 z"/>
  <path style="opacity:0.03" d="M 35.357422,30.595703 C 19.490995,44.592954 9.5,65.081272 9.5,88 c 0,42.381 34.119,76.5 76.5,76.5 42.381,0 76.5,-34.119 76.5,-76.5 0,-22.918728 -9.991,-43.407046 -25.85742,-57.404297 C 151.62511,44.290392 161,64.008401 161,86 161,127.55 127.55,161 86,161 44.45,161 11,127.55 11,86 11,64.008401 20.374889,44.290392 35.357422,30.595703 Z"/>
  <path style="opacity:0.03" d="M 21.027344,48.447266 C 14.027531,59.956171 10,73.490124 10,88 c 0,42.104 33.896,76 76,76 42.104,0 76,-33.896 76,-76 C 162,73.490124 157.97247,59.956171 150.97266,48.447266 157.3425,59.480709 161,72.293788 161,86 161,127.55 127.55,161 86,161 44.45,161 11,127.55 11,86 11,72.293788 14.657502,59.480709 21.027344,48.447266 Z"/>
  <path style="opacity:0.03" d="M 13.154297,68.076172 C 11.43422,74.421081 10.5,81.09602 10.5,88 c 0,41.827 33.673,75.5 75.5,75.5 41.827,0 75.5,-33.673 75.5,-75.5 0,-6.90398 -0.93422,-13.578919 -2.6543,-19.923828 C 160.24393,73.817535 161,79.816253 161,86 c 0,41.55 -33.45,75 -75,75 -41.55,0 -75,-33.45 -75,-75 0,-6.183747 0.756068,-12.182465 2.154297,-17.923828 z"/>
  <path style="opacity:0.03" d="M 15.230469,61.070312 C 12.176051,69.290099 10.5,78.191152 10.5,87.5 c 0,41.827 33.673,75.5 75.5,75.5 41.827,0 75.5,-33.673 75.5,-75.5 0,-9.308848 -1.67605,-18.209901 -4.73047,-26.429688 C 159.49994,68.865475 161,77.249537 161,86 c 0,41.55 -33.45,75 -75,75 -41.55,0 -75,-33.45 -75,-75 0,-8.750463 1.500061,-17.134525 4.230469,-24.929688 z"/>
  <path style="opacity:0.03" d="M 21.427734,47.75 C 14.490093,59.173893 10.5,72.603657 10.5,87 c 0,41.827 33.673,75.5 75.5,75.5 41.827,0 75.5,-33.673 75.5,-75.5 0,-14.396343 -3.99009,-27.826107 -10.92773,-39.25 C 157.19294,58.938167 161,72.005488 161,86 161,127.55 127.55,161 86,161 44.45,161 11,127.55 11,86 11,72.005488 14.807058,58.938167 21.427734,47.75 Z"/>
  <path style="opacity:0.03" d="M 82.103516,11.097656 C 42.101451,13.112309 10.5,45.980094 10.5,86.5 10.5,128.327 44.173,162 86,162 127.827,162 161.5,128.327 161.5,86.5 161.5,45.971582 129.88509,13.099766 89.871094,11.097656 129.60824,13.098967 161,45.748438 161,86 c 0,41.55 -33.45,75 -75,75 -41.55,0 -75,-33.45 -75,-75 0,-40.251562 31.391756,-72.901033 71.128906,-74.902344 -0.0084,4.21e-4 -0.01699,-4.23e-4 -0.02539,0 z"/>
  <path style="opacity:0.03" d="m 86,10.5 c -41.827,0 -75.5,33.673 -75.5,75.5 0,41.827 33.673,75.5 75.5,75.5 41.827,0 75.5,-33.673 75.5,-75.5 0,-41.827 -33.673,-75.5 -75.5,-75.5 z m 0,0.5 c 41.55,0 75,33.45 75,75 0,41.55 -33.45,75 -75,75 C 44.45,161 11,127.55 11,86 11,44.45 44.45,11 86,11 Z"/>
  <rect style="fill:currentColor" class="ColorScheme-Background" width="150" height="150" x="-161" y="-161" rx="75" ry="75" transform="matrix(0,-1,-1,0,0,0)"/>
  <path style="opacity:0.2;fill:#000000" d="m 91.416016,20 c -0.825046,0 -1.533952,0.09764 -2.126954,0.291016 -0.58011,0.180478 -1.095677,0.424982 -1.546874,0.734375 -0.451198,0.296501 -0.86912,0.61209 -1.25586,0.947265 l 1.585938,1.875 c 0.554327,-0.451197 1.083175,-0.798033 1.585937,-1.042968 0.502763,-0.244936 1.01833,-0.369141 1.546875,-0.369141 0.515654,0 0.920296,0.135532 1.216797,0.40625 0.309392,0.270718 0.464844,0.683953 0.464844,1.238281 0,0.451197 -0.09765,0.875759 -0.291016,1.275391 -0.19337,0.38674 -0.50232,0.826535 -0.927734,1.316406 -0.425415,0.47698 -0.985508,1.07496 -1.681641,1.796875 l -3.460937,3.5 V 34 h 9.648437 v -2.455078 h -6.013672 v -0.136719 l 1.779297,-1.662109 c 0.812155,-0.747698 1.50114,-1.431997 2.068359,-2.050782 0.580111,-0.618784 1.017953,-1.243324 1.314454,-1.875 0.309392,-0.631675 0.464843,-1.327301 0.464843,-2.08789 0,-0.709024 -0.180058,-1.340204 -0.541015,-1.894531 C 94.898027,21.270671 94.39574,20.824237 93.738281,20.501953 93.093714,20.166778 92.31841,20 91.416016,20 Z m -11.142578,0.193359 -4.447266,3.539063 1.412109,1.759766 1.585938,-1.277344 c 0.180479,-0.154696 0.373816,-0.328114 0.580078,-0.521485 0.219153,-0.206261 0.359371,-0.348433 0.423828,-0.425781 -0.02578,0.412523 -0.04375,0.896844 -0.05664,1.451172 -0.01289,0.541436 -0.01953,0.972638 -0.01953,1.294922 V 34 h 2.919922 V 20.193359 Z m -28.832032,7.84375 -4.509765,3.589844 1.43164,1.783203 1.607422,-1.292968 c 0.183007,-0.156863 0.37874,-0.333219 0.587891,-0.529297 0.222222,-0.209151 0.366281,-0.35321 0.43164,-0.431641 -0.02614,0.418301 -0.04552,0.908612 -0.05859,1.470703 -0.01307,0.54902 -0.01953,0.985703 -0.01953,1.3125 v 8.097656 h 2.960938 v -14 z m 11.220703,0 -4.509765,3.589844 1.43164,1.783203 1.607422,-1.292968 c 0.183007,-0.156863 0.378741,-0.333219 0.587891,-0.529297 0.222222,-0.209151 0.366281,-0.35321 0.431641,-0.431641 -0.02614,0.418301 -0.04552,0.908612 -0.05859,1.470703 -0.01307,0.54902 -0.01953,0.985703 -0.01953,1.3125 v 8.097656 h 2.960938 v -14 z m 54.363281,0.09766 -4.44727,3.539062 1.41211,1.759766 1.58399,-1.277344 c 0.18048,-0.154697 0.37382,-0.328114 0.58008,-0.521484 0.21914,-0.206262 0.36131,-0.348434 0.42578,-0.425782 -0.0258,0.412523 -0.0438,0.896844 -0.0566,1.451172 -0.0129,0.541437 -0.0195,0.972639 -0.0195,1.294922 v 7.986328 h 2.91992 V 28.134766 Z M 39.203125,50 c -1.155556,0 -2.082837,0.27916 -2.78125,0.837891 -0.698413,0.55873 -1.199144,1.365953 -1.503906,2.419921 -0.304762,1.04127 -0.457031,2.291636 -0.457031,3.751954 0,2.196825 0.380673,3.910832 1.142578,5.142578 C 36.36542,63.38409 37.56503,64 39.203125,64 c 1.155556,0 2.082837,-0.27916 2.78125,-0.837891 0.698413,-0.55873 1.199144,-1.35912 1.503906,-2.40039 0.317461,-1.04127 0.476563,-2.291636 0.476563,-3.751953 0,-2.209524 -0.387506,-3.930364 -1.16211,-5.16211 C 42.028131,50.61591 40.828522,50 39.203125,50 Z m 98.845705,0 c -0.82505,0 -1.53395,0.09569 -2.12695,0.289062 -0.58011,0.180479 -1.09568,0.426936 -1.54688,0.736329 -0.45119,0.2965 -0.87107,0.61209 -1.25781,0.947265 l 1.58593,1.875 c 0.55433,-0.451196 1.08318,-0.799986 1.58594,-1.044922 0.50276,-0.244935 1.01833,-0.367187 1.54688,-0.367187 0.51565,0 0.92225,0.135532 1.21875,0.40625 0.30939,0.270719 0.46289,0.683954 0.46289,1.238281 0,0.451197 -0.0957,0.875759 -0.28906,1.275391 -0.19337,0.38674 -0.50233,0.826535 -0.92774,1.316406 -0.42541,0.476979 -0.98746,1.07496 -1.68359,1.796875 l -3.46094,3.5 V 64 h 9.64844 v -2.455078 h -6.01367 v -0.136719 l 1.77929,-1.662109 c 0.81216,-0.747698 1.5031,-1.431998 2.07031,-2.050782 0.58011,-0.618784 1.01796,-1.243323 1.31446,-1.875 0.30939,-0.631675 0.46289,-1.327301 0.46289,-2.08789 0,-0.709024 -0.18006,-1.342157 -0.54102,-1.896484 -0.34806,-0.56722 -0.85035,-1.011701 -1.50781,-1.333985 C 139.72457,50.166778 138.95122,50 138.04883,50 Z m -109.669924,0.208984 -4.380859,3.486328 1.390625,1.732422 1.5625,-1.255859 c 0.177778,-0.152381 0.367138,-0.325149 0.570312,-0.515625 0.215873,-0.203175 0.35643,-0.341778 0.419922,-0.417969 -0.0254,0.406349 -0.0459,0.881703 -0.05859,1.427735 -0.0127,0.533333 -0.01758,0.959883 -0.01758,1.277343 v 7.865235 h 2.875 v -13.59961 z m 10.824219,2.115235 c 0.711111,0 1.206963,0.392386 1.486328,1.179687 0.279365,0.787302 0.417969,1.956653 0.417969,3.50586 0,1.561904 -0.138604,2.729303 -0.417969,3.503906 -0.279365,0.774603 -0.775217,1.162109 -1.486328,1.162109 -0.72381,0 -1.219661,-0.387506 -1.486328,-1.162109 -0.266667,-0.787302 -0.400391,-1.9547 -0.400391,-3.503906 0,-1.549207 0.133724,-2.718558 0.400391,-3.50586 0.266667,-0.787301 0.762518,-1.179687 1.486328,-1.179687 z M 25.626953,80 c -1.428053,0 -2.56277,0.422142 -3.404297,1.263672 -0.82878,0.84153 -1.242187,2.001416 -1.242187,3.480469 0,1.377049 0.349508,2.441082 1.050781,3.193359 0.70128,0.752277 1.632682,1.128906 2.792969,1.128906 0.867033,0 1.517658,-0.152973 1.951172,-0.458984 0.446266,-0.306011 0.802552,-0.68264 1.070312,-1.128906 h 0.115235 c -0.03825,0.84153 -0.18444,1.588008 -0.439454,2.238281 -0.255006,0.637523 -0.695539,1.135175 -1.320312,1.492187 -0.61202,0.357013 -1.484347,0.535157 -2.619141,0.535157 -0.280506,0 -0.561283,-0.02034 -0.841797,-0.05859 -0.280506,-0.03825 -0.549674,-0.08181 -0.804687,-0.132813 v 2.314454 c 0.24226,0.051 0.543377,0.08295 0.900391,0.0957 0.357013,0.0255 0.667786,0.03711 0.935546,0.03711 1.134794,0 2.098146,-0.146192 2.888672,-0.439453 0.80328,-0.306011 1.46069,-0.721372 1.970703,-1.244141 0.522774,-0.535519 0.924572,-1.140632 1.205079,-1.816406 0.29326,-0.688525 0.496574,-1.41466 0.611328,-2.179688 0.114753,-0.777778 0.171875,-1.556207 0.171875,-2.333984 0,-1.364299 -0.223662,-2.485453 -0.669922,-3.365234 -0.446267,-0.892534 -1.044595,-1.54994 -1.796875,-1.970705 C 27.40007,80.216875 26.55774,80 25.626953,80 Z m 120.124997,0 c -0.99182,0 -1.84942,0.126546 -2.57422,0.380859 -0.71208,0.254315 -1.33508,0.571654 -1.86914,0.953125 l 1.33399,1.984375 c 0.31789,-0.203451 0.71993,-0.419554 1.20312,-0.648437 0.4832,-0.228883 1.04877,-0.34375 1.69727,-0.34375 0.69937,0 1.19387,0.140176 1.48633,0.419922 0.30517,0.26703 0.45898,0.641802 0.45898,1.125 0,0.35604 -0.0828,0.675333 -0.24805,0.955078 -0.15259,0.26703 -0.45143,0.483133 -0.89648,0.648437 -0.43233,0.152589 -1.06896,0.228516 -1.9082,0.228516 h -1.04883 v 2.212891 h 1.03125 c 0.85195,0 1.51194,0.06911 1.98242,0.208984 0.4832,0.127157 0.82099,0.324767 1.01172,0.591797 0.19073,0.26703 0.28516,0.584369 0.28516,0.953125 0,0.648501 -0.2093,1.151772 -0.62891,1.507812 -0.40691,0.35604 -1.12432,0.533203 -2.1543,0.533204 -0.55949,0 -1.15719,-0.07593 -1.79297,-0.228516 -0.63578,-0.152589 -1.2471,-0.375508 -1.83203,-0.667969 v 2.441406 C 142.43348,93.751772 143.74372,94 145.21875,94 c 1.27157,0 2.30829,-0.179116 3.10937,-0.535156 0.81381,-0.368756 1.4115,-0.863258 1.79297,-1.486328 0.39419,-0.635786 0.58985,-1.348345 0.58985,-2.136719 0,-0.8901 -0.28522,-1.602659 -0.85742,-2.136719 -0.57221,-0.53406 -1.39963,-0.869893 -2.48047,-1.009766 v -0.05859 c 0.82652,-0.203452 1.52058,-0.58504 2.08007,-1.144531 0.57221,-0.559492 0.85743,-1.309038 0.85743,-2.25 0,-1.029973 -0.41372,-1.825275 -1.24024,-2.384766 C 148.25651,80.285215 147.15068,80 145.75195,80 Z M 25.685547,82.314453 c 0.459013,0 0.840471,0.134585 1.146484,0.402344 0.306014,0.255009 0.536453,0.586126 0.689453,0.994141 0.153007,0.408014 0.228516,0.821422 0.228516,1.242187 0,0.306011 -0.08907,0.60713 -0.267578,0.900391 -0.178507,0.28051 -0.427334,0.515774 -0.746094,0.707031 -0.31876,0.191257 -0.688608,0.287109 -1.109375,0.287109 -0.624773,0 -1.090478,-0.191705 -1.396484,-0.574218 -0.306014,-0.382514 -0.458985,-0.905336 -0.458985,-1.56836 0,-0.816029 0.180096,-1.414362 0.53711,-1.796875 0.357013,-0.395264 0.815933,-0.59375 1.376953,-0.59375 z M 34.046875,110 c -0.763987,0 -1.48335,0.12135 -2.158203,0.36328 -0.66212,0.24193 -1.196062,0.61084 -1.603516,1.10742 -0.40746,0.48386 -0.611328,1.08187 -0.611328,1.79492 0,0.81492 0.210666,1.49741 0.63086,2.04493 0.43292,0.53478 0.955219,0.993 1.566406,1.375 -0.72578,0.35652 -1.344189,0.82639 -1.853516,1.41211 -0.50932,0.57298 -0.763672,1.32439 -0.763672,2.2539 0,1.13324 0.412588,2.02444 1.240235,2.67383 0.840386,0.64939 2.024767,0.97461 3.552734,0.97461 0.942247,0 1.771328,-0.15339 2.484375,-0.45898 0.725793,-0.3056 1.284967,-0.73858 1.679688,-1.29883 0.407453,-0.56026 0.611328,-1.21555 0.611328,-1.9668 0,-0.59845 -0.139796,-1.12755 -0.419922,-1.58594 -0.267394,-0.45839 -0.624659,-0.85253 -1.070313,-1.18359 -0.432926,-0.34379 -0.891146,-0.64182 -1.375,-0.89648 0.700314,-0.3438 1.279888,-0.77678 1.738281,-1.29883 0.471121,-0.52206 0.707032,-1.19775 0.707032,-2.02539 0,-0.72579 -0.203875,-1.3306 -0.611328,-1.81446 -0.394727,-0.49658 -0.923818,-0.86549 -1.585938,-1.10742 C 35.555698,110.12135 34.836328,110 34.046875,110 Z m 104.777345,0 -6.13672,9.03906 v 2.0586 h 5.98047 V 124 h 2.88281 v -2.90234 h 1.68555 v -2.29297 h -1.68555 V 110 Z m -104.794923,2.10156 c 0.47112,0 0.865267,0.1262 1.183594,0.38086 0.318326,0.24193 0.476562,0.58075 0.476562,1.01367 0,0.49659 -0.165034,0.89074 -0.496094,1.1836 -0.33106,0.28012 -0.713564,0.52283 -1.146484,0.72656 -0.44566,-0.21647 -0.833003,-0.47276 -1.164063,-0.76563 -0.331059,-0.29285 -0.496093,-0.67341 -0.496093,-1.14453 0,-0.43292 0.151438,-0.77174 0.457031,-1.01367 0.318327,-0.25466 0.71442,-0.38086 1.185547,-0.38086 z m 104.677733,1.29102 h 0.0781 c -0.0131,0.11764 -0.0325,0.36505 -0.0586,0.74414 -0.0131,0.36601 -0.026,0.7659 -0.0391,1.19726 -0.0131,0.43138 -0.0195,0.79701 -0.0195,1.09766 v 2.37305 h -3.37305 l 2.56836,-3.88281 c 0.16993,-0.26145 0.32045,-0.51726 0.45117,-0.76563 0.14379,-0.24836 0.27493,-0.50223 0.39258,-0.76367 z m -104.792968,4.47656 0.248047,0.13281 c 0.305594,0.17826 0.610416,0.37729 0.916016,0.59375 0.305593,0.20373 0.561898,0.43769 0.765625,0.70508 0.203727,0.25466 0.304688,0.55465 0.304688,0.89844 -10e-7,0.50933 -0.17863,0.91706 -0.535157,1.22266 -0.35652,0.30559 -0.890462,0.45898 -1.603515,0.45898 -0.687587,0 -1.20988,-0.16019 -1.566407,-0.47852 -0.343793,-0.31832 -0.515625,-0.72606 -0.515625,-1.22265 0,-0.52206 0.17863,-0.96668 0.535157,-1.33594 0.36926,-0.36926 0.852718,-0.69448 1.451171,-0.97461 z m 17.066407,14.0918 v 2.49023 h 6.902343 l -5.255859,11.50977 h 3.097656 l 5.294922,-12.13672 v -1.86328 z m 61.201171,0 -0.52148,7.03906 1.16015,0.61914 c 0.25783,-0.0644 0.58006,-0.12889 0.9668,-0.19336 0.38674,-0.0773 0.76013,-0.11523 1.12109,-0.11523 1.84346,0 2.76563,0.69562 2.76563,2.08789 0,0.7477 -0.23318,1.30115 -0.69727,1.66211 -0.4512,0.34806 -1.10893,0.52343 -1.97265,0.52343 -0.593,0 -1.22418,-0.0844 -1.89453,-0.25195 -0.67035,-0.18047 -1.24373,-0.39373 -1.72071,-0.63867 v 2.51367 c 0.47698,0.24494 1.03044,0.43163 1.66211,0.56055 0.64457,0.12891 1.32886,0.19336 2.05078,0.19336 1.81768,0 3.19097,-0.42457 4.11914,-1.27539 0.92818,-0.86372 1.39063,-2.04367 1.39063,-3.53907 0,-0.91528 -0.19334,-1.682 -0.58008,-2.30078 -0.37385,-0.61878 -0.88942,-1.08982 -1.54687,-1.41211 -0.65746,-0.32228 -1.40425,-0.48242 -2.24219,-0.48242 -0.4512,0 -0.80663,0.0246 -1.06446,0.0762 -0.24494,0.0387 -0.47615,0.0785 -0.69531,0.11719 l 0.25196,-2.70703 h 4.92968 v -2.47656 z M 88.027344,140 c -1.134794,0 -2.102977,0.15298 -2.90625,0.45898 -0.790534,0.29326 -1.447937,0.70863 -1.970703,1.24414 -0.510014,0.52278 -0.911818,1.12789 -1.205079,1.81641 -0.280513,0.67577 -0.477043,1.40191 -0.591796,2.17969 -0.114754,0.76503 -0.173828,1.53667 -0.173828,2.31445 0,1.3643 0.223661,2.49223 0.669921,3.38477 0.446274,0.87978 1.046555,1.53718 1.798829,1.9707 0.752273,0.42076 1.59265,0.63086 2.523437,0.63086 1.428053,0 2.555986,-0.42019 3.384766,-1.26172 0.841526,-0.84153 1.263671,-2.00141 1.263671,-3.48047 0,-1.37704 -0.351461,-2.44304 -1.052734,-3.19531 -0.70128,-0.75228 -1.651069,-1.12695 -2.849609,-1.12695 -0.765027,0 -1.388527,0.15297 -1.873047,0.45898 -0.47176,0.30601 -0.836784,0.68069 -1.091797,1.12695 h -0.113281 c 0.03825,-0.84152 0.18444,-1.58122 0.439453,-2.21875 0.255007,-0.65027 0.688761,-1.15275 1.300781,-1.50976 0.624773,-0.35701 1.503879,-0.53516 2.638672,-0.53516 0.280507,0 0.561284,0.0184 0.841797,0.0566 0.29326,0.0383 0.560474,0.0838 0.802734,0.13477 v -2.31445 c -0.24226,-0.051 -0.541424,-0.083 -0.898437,-0.0957 -0.357014,-0.0255 -0.66974,-0.039 -0.9375,-0.039 z m -1.855469,7.1543 c 0.624773,0 1.090478,0.18975 1.396484,0.57226 0.306014,0.38252 0.458985,0.90534 0.458985,1.56836 0,0.81603 -0.178143,1.42309 -0.535156,1.81836 -0.357014,0.38251 -0.815934,0.57227 -1.376954,0.57227 -0.446266,0 -0.829677,-0.12586 -1.148437,-0.38086 -0.306007,-0.26776 -0.534493,-0.60565 -0.6875,-1.01367 -0.153007,-0.40802 -0.230469,-0.82338 -0.230469,-1.24414 0,-0.30601 0.08907,-0.5984 0.267578,-0.87891 0.178507,-0.29326 0.422509,-0.53726 0.728516,-0.72852 0.318767,-0.19126 0.69344,-0.28515 1.126953,-0.28515 z"/>
  <path style="fill:currentColor" class="ColorScheme-Text" d="M 91.416016 19 C 90.59097 19 89.882064 19.09764 89.289062 19.291016 C 88.708952 19.471494 88.193385 19.715998 87.742188 20.025391 C 87.290989 20.321892 86.873068 20.637481 86.486328 20.972656 L 88.072266 22.847656 C 88.626593 22.396459 89.155441 22.049622 89.658203 21.804688 C 90.160966 21.559752 90.676533 21.435547 91.205078 21.435547 C 91.720732 21.435547 92.125374 21.571079 92.421875 21.841797 C 92.731267 22.112515 92.886719 22.52575 92.886719 23.080078 C 92.886719 23.531275 92.789069 23.955837 92.595703 24.355469 C 92.402333 24.742209 92.093383 25.182004 91.667969 25.671875 C 91.242554 26.148855 90.682461 26.746835 89.986328 27.46875 L 86.525391 30.96875 L 86.525391 33 L 96.173828 33 L 96.173828 30.544922 L 90.160156 30.544922 L 90.160156 30.408203 L 91.939453 28.746094 C 92.751608 27.998396 93.440593 27.314097 94.007812 26.695312 C 94.587924 26.076528 95.025765 25.451989 95.322266 24.820312 C 95.631658 24.188637 95.787109 23.493011 95.787109 22.732422 C 95.787109 22.023398 95.607051 21.392218 95.246094 20.837891 C 94.898027 20.270671 94.39574 19.824237 93.738281 19.501953 C 93.093714 19.166778 92.31841 19 91.416016 19 z M 80.273438 19.193359 L 75.826172 22.732422 L 77.238281 24.492188 L 78.824219 23.214844 C 79.004698 23.060148 79.198035 22.88673 79.404297 22.693359 C 79.62345 22.487098 79.763668 22.344926 79.828125 22.267578 C 79.802345 22.680101 79.784374 23.164422 79.771484 23.71875 C 79.758594 24.260186 79.751953 24.691388 79.751953 25.013672 L 79.751953 33 L 82.671875 33 L 82.671875 19.193359 L 80.273438 19.193359 z M 25.626953 79 C 24.1989 79 23.064183 79.422142 22.222656 80.263672 C 21.393876 81.105202 20.980469 82.265088 20.980469 83.744141 C 20.980469 85.12119 21.329977 86.185223 22.03125 86.9375 C 22.73253 87.689777 23.663932 88.066406 24.824219 88.066406 C 25.691252 88.066406 26.341877 87.913433 26.775391 87.607422 C 27.221657 87.301411 27.577943 86.924782 27.845703 86.478516 L 27.960938 86.478516 C 27.922687 87.320046 27.776498 88.066524 27.521484 88.716797 C 27.266478 89.35432 26.825945 89.851972 26.201172 90.208984 C 25.589152 90.565997 24.716825 90.744141 23.582031 90.744141 C 23.301525 90.744141 23.020748 90.723797 22.740234 90.685547 C 22.459728 90.647297 22.19056 90.603737 21.935547 90.552734 L 21.935547 92.867188 C 22.177807 92.918188 22.478923 92.950141 22.835938 92.962891 C 23.19295 92.988391 23.503724 93 23.771484 93 C 24.906278 93 25.86963 92.853808 26.660156 92.560547 C 27.463436 92.254536 28.120846 91.839175 28.630859 91.316406 C 29.153633 90.780887 29.55543 90.175774 29.835938 89.5 C 30.129198 88.811475 30.332512 88.08534 30.447266 87.320312 C 30.562019 86.542535 30.619141 85.764105 30.619141 84.986328 C 30.619141 83.622029 30.395479 82.500875 29.949219 81.621094 C 29.502952 80.72856 28.904624 80.071156 28.152344 79.650391 C 27.40007 79.216875 26.55774 79 25.626953 79 z M 145.75195 79 C 144.76013 79 143.90253 79.126546 143.17773 79.380859 C 142.46565 79.635174 141.84265 79.952513 141.30859 80.333984 L 142.64258 82.318359 C 142.96047 82.114908 143.36251 81.898805 143.8457 81.669922 C 144.3289 81.441039 144.89447 81.326172 145.54297 81.326172 C 146.24234 81.326172 146.73684 81.466348 147.0293 81.746094 C 147.33447 82.013124 147.48828 82.387896 147.48828 82.871094 C 147.48828 83.227134 147.40548 83.546427 147.24023 83.826172 C 147.08764 84.093202 146.7888 84.309305 146.34375 84.474609 C 145.91142 84.627198 145.27479 84.703125 144.43555 84.703125 L 143.38672 84.703125 L 143.38672 86.916016 L 144.41797 86.916016 C 145.26992 86.916016 145.92991 86.985126 146.40039 87.125 C 146.88359 87.252157 147.22138 87.449767 147.41211 87.716797 C 147.60284 87.983827 147.69727 88.301166 147.69727 88.669922 C 147.69727 89.318423 147.48797 89.821694 147.06836 90.177734 C 146.66145 90.533774 145.94404 90.710937 144.91406 90.710938 C 144.35457 90.710938 143.75687 90.635008 143.12109 90.482422 C 142.48531 90.329833 141.87399 90.106914 141.28906 89.814453 L 141.28906 92.255859 C 142.43348 92.751772 143.74372 93 145.21875 93 C 146.49032 93 147.52704 92.820884 148.32812 92.464844 C 149.14193 92.096088 149.73962 91.601586 150.12109 90.978516 C 150.51528 90.34273 150.71094 89.630171 150.71094 88.841797 C 150.71094 87.951697 150.42572 87.239138 149.85352 86.705078 C 149.28131 86.171018 148.45389 85.835186 147.37305 85.695312 L 147.37305 85.636719 C 148.19957 85.433267 148.89364 85.051678 149.45312 84.492188 C 150.02534 83.932695 150.31055 83.18315 150.31055 82.242188 C 150.31055 81.212215 149.89683 80.416913 149.07031 79.857422 C 148.25651 79.285212 147.15068 79 145.75195 79 z M 25.685547 81.314453 C 26.14456 81.314453 26.526018 81.449038 26.832031 81.716797 C 27.138045 81.971806 27.368484 82.302923 27.521484 82.710938 C 27.674491 83.11895 27.75 83.53236 27.75 83.953125 C 27.75 84.259136 27.66093 84.560255 27.482422 84.853516 C 27.303915 85.134026 27.055088 85.36929 26.736328 85.560547 C 26.417568 85.751804 26.04772 85.847656 25.626953 85.847656 C 25.00218 85.847656 24.536475 85.655949 24.230469 85.273438 C 23.924455 84.890923 23.771484 84.368102 23.771484 83.705078 C 23.771484 82.889049 23.95158 82.290716 24.308594 81.908203 C 24.665607 81.512939 25.124527 81.314453 25.685547 81.314453 z M 88.027344 139 C 86.89255 139 85.924367 139.15298 85.121094 139.45898 C 84.33056 139.75224 83.673157 140.16762 83.150391 140.70312 C 82.640377 141.22591 82.238573 141.83101 81.945312 142.51953 C 81.6648 143.1953 81.468269 143.92144 81.353516 144.69922 C 81.238762 145.46425 81.179686 146.23589 81.179688 147.01367 C 81.179688 148.37797 81.403349 149.5059 81.849609 150.39844 C 82.295883 151.27822 82.896164 151.93562 83.648438 152.36914 C 84.400711 152.7899 85.241088 153 86.171875 153 C 87.599928 153 88.727861 152.57981 89.556641 151.73828 C 90.398167 150.89675 90.820312 149.73687 90.820312 148.25781 C 90.820312 146.88077 90.468851 145.81477 89.767578 145.0625 C 89.066298 144.31022 88.116509 143.93555 86.917969 143.93555 C 86.152942 143.93555 85.529442 144.08852 85.044922 144.39453 C 84.573162 144.70054 84.208138 145.07522 83.953125 145.52148 L 83.839844 145.52148 C 83.878094 144.67996 84.024284 143.94026 84.279297 143.30273 C 84.534304 142.65246 84.968058 142.14998 85.580078 141.79297 C 86.204851 141.43596 87.083957 141.25781 88.21875 141.25781 C 88.499257 141.25781 88.780034 141.27625 89.060547 141.31445 C 89.353807 141.35275 89.621021 141.39825 89.863281 141.44922 L 89.863281 139.13477 C 89.621021 139.08377 89.321857 139.05176 88.964844 139.03906 C 88.60783 139.01356 88.295104 139 88.027344 139 z M 86.171875 146.1543 C 86.796648 146.1543 87.262353 146.34405 87.568359 146.72656 C 87.874373 147.10908 88.027344 147.6319 88.027344 148.29492 C 88.027344 149.11095 87.849201 149.71801 87.492188 150.11328 C 87.135172 150.49579 86.676254 150.68555 86.115234 150.68555 C 85.668968 150.68555 85.285557 150.55969 84.966797 150.30469 C 84.66079 150.03693 84.432304 149.69904 84.279297 149.29102 C 84.12629 148.883 84.048828 148.46764 84.048828 148.04688 C 84.048828 147.74087 84.137898 147.44848 84.316406 147.16797 C 84.494913 146.87471 84.738915 146.63071 85.044922 146.43945 C 85.363689 146.24819 85.738362 146.1543 86.171875 146.1543 z"/>
  <path style="fill:currentColor;opacity:0.24" class="ColorScheme-Text" d="M 51.441406 27.037109 L 46.931641 30.626953 L 48.363281 32.410156 L 49.970703 31.117188 C 50.15371 30.960324 50.349443 30.783969 50.558594 30.587891 C 50.780816 30.37874 50.924875 30.234681 50.990234 30.15625 C 50.964094 30.574551 50.944711 31.064862 50.931641 31.626953 C 50.918571 32.175973 50.912109 32.612656 50.912109 32.939453 L 50.912109 41.037109 L 53.873047 41.037109 L 53.873047 27.037109 L 51.441406 27.037109 z M 62.662109 27.037109 L 58.152344 30.626953 L 59.583984 32.410156 L 61.191406 31.117188 C 61.374413 30.960324 61.570147 30.783969 61.779297 30.587891 C 62.001519 30.37874 62.145578 30.234681 62.210938 30.15625 C 62.184798 30.574551 62.165414 31.064862 62.152344 31.626953 C 62.139274 32.175973 62.132812 32.612656 62.132812 32.939453 L 62.132812 41.037109 L 65.09375 41.037109 L 65.09375 27.037109 L 62.662109 27.037109 z M 117.02539 27.134766 L 112.57812 30.673828 L 113.99023 32.433594 L 115.57422 31.15625 C 115.7547 31.001553 115.94804 30.828136 116.1543 30.634766 C 116.37344 30.428504 116.51561 30.286332 116.58008 30.208984 C 116.55428 30.621507 116.53624 31.105828 116.52344 31.660156 C 116.51054 32.201593 116.50391 32.632795 116.50391 32.955078 L 116.50391 40.941406 L 119.42383 40.941406 L 119.42383 27.134766 L 117.02539 27.134766 z M 39.203125 49 C 38.047569 49 37.120288 49.27916 36.421875 49.837891 C 35.723462 50.396621 35.222731 51.203844 34.917969 52.257812 C 34.613207 53.299082 34.460938 54.549448 34.460938 56.009766 C 34.460938 58.206591 34.841611 59.920598 35.603516 61.152344 C 36.36542 62.38409 37.56503 63 39.203125 63 C 40.358681 63 41.285962 62.72084 41.984375 62.162109 C 42.682788 61.603379 43.183519 60.802989 43.488281 59.761719 C 43.805742 58.720449 43.964844 57.470083 43.964844 56.009766 C 43.964844 53.800242 43.577338 52.079402 42.802734 50.847656 C 42.028131 49.61591 40.828522 49 39.203125 49 z M 138.04883 49 C 137.22378 49 136.51487 49.09569 135.92188 49.289062 C 135.34177 49.469541 134.8262 49.715998 134.375 50.025391 C 133.92381 50.321891 133.50393 50.637481 133.11719 50.972656 L 134.70312 52.847656 C 135.25745 52.39646 135.7863 52.04767 136.28906 51.802734 C 136.79182 51.557799 137.30739 51.435547 137.83594 51.435547 C 138.35159 51.435547 138.75819 51.571079 139.05469 51.841797 C 139.36408 52.112516 139.51758 52.525751 139.51758 53.080078 C 139.51758 53.531275 139.42188 53.955837 139.22852 54.355469 C 139.03515 54.742209 138.72619 55.182004 138.30078 55.671875 C 137.87537 56.148854 137.31332 56.746835 136.61719 57.46875 L 133.15625 60.96875 L 133.15625 63 L 142.80469 63 L 142.80469 60.544922 L 136.79102 60.544922 L 136.79102 60.408203 L 138.57031 58.746094 C 139.38247 57.998396 140.07341 57.314096 140.64062 56.695312 C 141.22073 56.076529 141.65858 55.45199 141.95508 54.820312 C 142.26447 54.188637 142.41797 53.493011 142.41797 52.732422 C 142.41797 52.023398 142.23791 51.390265 141.87695 50.835938 C 141.52889 50.268718 141.0266 49.824237 140.36914 49.501953 C 139.72457 49.166778 138.95122 49 138.04883 49 z M 28.378906 49.208984 L 23.998047 52.695312 L 25.388672 54.427734 L 26.951172 53.171875 C 27.12895 53.019494 27.31831 52.846726 27.521484 52.65625 C 27.737357 52.453075 27.877914 52.314472 27.941406 52.238281 C 27.916006 52.64463 27.895503 53.119984 27.882812 53.666016 C 27.870113 54.199349 27.865234 54.625899 27.865234 54.943359 L 27.865234 62.808594 L 30.740234 62.808594 L 30.740234 49.208984 L 28.378906 49.208984 z M 39.203125 51.324219 C 39.914236 51.324219 40.410088 51.716605 40.689453 52.503906 C 40.968818 53.291208 41.107422 54.460559 41.107422 56.009766 C 41.107422 57.57167 40.968818 58.739069 40.689453 59.513672 C 40.410088 60.288275 39.914236 60.675781 39.203125 60.675781 C 38.479315 60.675781 37.983464 60.288275 37.716797 59.513672 C 37.45013 58.72637 37.316406 57.558972 37.316406 56.009766 C 37.316406 54.460559 37.45013 53.291208 37.716797 52.503906 C 37.983464 51.716605 38.479315 51.324219 39.203125 51.324219 z M 34.046875 109 C 33.282888 109 32.563525 109.12135 31.888672 109.36328 C 31.226552 109.60521 30.69261 109.97412 30.285156 110.4707 C 29.877696 110.95456 29.673828 111.55257 29.673828 112.26562 C 29.673828 113.08056 29.884494 113.76303 30.304688 114.31055 C 30.737607 114.84533 31.259907 115.30355 31.871094 115.68555 C 31.145314 116.04207 30.526905 116.51194 30.017578 117.09766 C 29.508258 117.67064 29.253906 118.42205 29.253906 119.35156 C 29.253906 120.4848 29.666494 121.376 30.494141 122.02539 C 31.334527 122.67478 32.518908 123 34.046875 123 C 34.989122 123 35.818203 122.84661 36.53125 122.54102 C 37.257043 122.23542 37.816217 121.80244 38.210938 121.24219 C 38.618389 120.68193 38.822266 120.02664 38.822266 119.27539 C 38.822266 118.67694 38.68247 118.14784 38.402344 117.68945 C 38.13495 117.23106 37.777685 116.83692 37.332031 116.50586 C 36.899105 116.16207 36.440885 115.86403 35.957031 115.60938 C 36.657345 115.26556 37.236919 114.8326 37.695312 114.31055 C 38.166433 113.78849 38.402344 113.1128 38.402344 112.28516 C 38.402344 111.55937 38.198469 110.95456 37.791016 110.4707 C 37.396289 109.97412 36.867198 109.60521 36.205078 109.36328 C 35.555698 109.12135 34.836328 109 34.046875 109 z M 138.82422 109 L 132.6875 118.03906 L 132.6875 120.09766 L 138.66797 120.09766 L 138.66797 123 L 141.55078 123 L 141.55078 120.09766 L 143.23633 120.09766 L 143.23633 117.80469 L 141.55078 117.80469 L 141.55078 109 L 138.82422 109 z M 34.029297 111.10156 C 34.500417 111.10156 34.894564 111.22776 35.212891 111.48242 C 35.531217 111.72435 35.689453 112.06317 35.689453 112.49609 C 35.689453 112.99268 35.524419 113.38683 35.193359 113.67969 C 34.862299 113.95981 34.479795 114.20252 34.046875 114.40625 C 33.601215 114.18978 33.213873 113.93351 32.882812 113.64062 C 32.551753 113.34779 32.386719 112.96721 32.386719 112.49609 C 32.386719 112.06317 32.538157 111.72435 32.84375 111.48242 C 33.162077 111.22776 33.55817 111.10156 34.029297 111.10156 z M 138.70703 112.39258 L 138.78516 112.39258 C 138.77206 112.51022 138.75266 112.75763 138.72656 113.13672 C 138.71346 113.50273 138.7006 113.90262 138.6875 114.33398 C 138.6744 114.76536 138.66797 115.13099 138.66797 115.43164 L 138.66797 117.80469 L 135.29492 117.80469 L 137.86328 113.92188 C 138.03321 113.66043 138.18373 113.40462 138.31445 113.15625 C 138.45824 112.90789 138.58938 112.65402 138.70703 112.39258 z M 33.914062 116.86914 L 34.162109 117.00195 C 34.467703 117.18021 34.772525 117.37924 35.078125 117.5957 C 35.383718 117.79943 35.640023 118.03339 35.84375 118.30078 C 36.047477 118.55544 36.148438 118.85543 36.148438 119.19922 C 36.148437 119.70855 35.969808 120.11628 35.613281 120.42188 C 35.256761 120.72745 34.722819 120.88086 34.009766 120.88086 C 33.322179 120.88086 32.799886 120.72067 32.443359 120.40234 C 32.099566 120.08402 31.927734 119.67628 31.927734 119.17969 C 31.927734 118.65763 32.106364 118.21301 32.462891 117.84375 C 32.832151 117.47449 33.31561 117.14927 33.914062 116.86914 z M 50.980469 130.96094 L 50.980469 133.45117 L 57.882812 133.45117 L 52.626953 144.96094 L 55.724609 144.96094 L 61.019531 132.82422 L 61.019531 130.96094 L 50.980469 130.96094 z M 112.18164 130.96094 L 111.66016 138 L 112.82031 138.61914 C 113.07814 138.55474 113.40037 138.49025 113.78711 138.42578 C 114.17385 138.34848 114.54724 138.31055 114.9082 138.31055 C 116.75166 138.31055 117.67383 139.00617 117.67383 140.39844 C 117.67383 141.14614 117.44065 141.69959 116.97656 142.06055 C 116.52536 142.40861 115.86763 142.58398 115.00391 142.58398 C 114.41091 142.58398 113.77972 142.49958 113.10938 142.33203 C 112.43903 142.15156 111.86565 141.9383 111.38867 141.69336 L 111.38867 144.20703 C 111.86565 144.45197 112.41911 144.63866 113.05078 144.76758 C 113.69535 144.89649 114.37964 144.96094 115.10156 144.96094 C 116.91924 144.96094 118.29253 144.53637 119.2207 143.68555 C 120.14888 142.82183 120.61133 141.64188 120.61133 140.14648 C 120.61133 139.2312 120.41799 138.46448 120.03125 137.8457 C 119.6574 137.22692 119.14182 136.75588 118.48438 136.43359 C 117.82691 136.11131 117.08013 135.95117 116.24219 135.95117 C 115.79099 135.95117 115.43556 135.97574 115.17773 136.02734 C 114.93279 136.06604 114.70158 136.10584 114.48242 136.14453 L 114.73438 133.4375 L 119.66406 133.4375 L 119.66406 130.96094 L 112.18164 130.96094 z"/>
 </g>
</svg>
