<svg xmlns="http://www.w3.org/2000/svg" width="36" height="52" version="1">
 <defs id="materia">
  <style id="current-color-scheme" type="text/css">
   .ColorScheme-Background {color:#181818; } .ColorScheme-ButtonBackground { color:#343434; } .ColorScheme-Highlight { color:#4285f4; } .ColorScheme-Text { color:#dfdfdf; } .ColorScheme-ViewBackground { color:#242424; } .ColorScheme-NegativeText { color:#f44336; } .ColorScheme-PositiveText { color:#4caf50; } .ColorScheme-NeutralText { color:#ff9800; }
  </style>
 </defs>
 <rect id="hint-glow-radius" style="fill:#ff00ff" width="5" height="5" x="0" y="0"/>
 <rect id="hint-stretch-borders" style="fill:#ff00ff" width="5" height="5" x="0" y="8"/>
 <rect id="center" style="opacity:0.01" width="12" height="12" x="12" y="27"/>
 <g id="topleft" transform="translate(21,-11)">
  <path style="opacity:0.25;fill:currentColor" class="ColorScheme-Highlight" d="M -21,38 C -21,26 -9,26 -9,26 v 12 z"/>
  <path style="opacity:0.5;fill:currentColor" class="ColorScheme-Highlight" d="m -18,38 c 0,-9 9,-9 9,-9 v 9 z"/>
  <path style="fill:currentColor" class="ColorScheme-Highlight" d="m -15,38 c 0,-6 6,-6 6,-6 v 6 z"/>
 </g>
 <g id="topright" transform="matrix(-1,0,0,1,15,-11)">
  <path style="opacity:0.25;fill:currentColor" class="ColorScheme-Highlight" d="M -21,38 C -21,26 -9,26 -9,26 v 12 z"/>
  <path style="opacity:0.5;fill:currentColor" class="ColorScheme-Highlight" d="m -18,38 c 0,-9 9,-9 9,-9 v 9 z"/>
  <path style="fill:currentColor" class="ColorScheme-Highlight" d="m -15,38 c 0,-6 6,-6 6,-6 v 6 z"/>
 </g>
 <g id="top">
  <rect style="opacity:0.25;fill:currentColor" class="ColorScheme-Highlight" width="12" height="12" x="12" y="15"/>
  <rect style="opacity:0.5;fill:currentColor" class="ColorScheme-Highlight" width="12" height="9" x="12" y="18"/>
  <rect style="fill:currentColor" class="ColorScheme-Highlight" width="12" height="6" x="12" y="21"/>
 </g>
 <g id="bottomright" transform="matrix(0,-1,-1,0,62,30)">
  <path style="opacity:0.25;fill:currentColor" class="ColorScheme-Highlight" d="M -21,38 C -21,26 -9,26 -9,26 v 12 z"/>
  <path style="opacity:0.5;fill:currentColor" class="ColorScheme-Highlight" d="m -18,38 c 0,-9 9,-9 9,-9 v 9 z"/>
  <path style="fill:currentColor" class="ColorScheme-Highlight" d="m -15,38 c 0,-6 6,-6 6,-6 v 6 z"/>
 </g>
 <g id="right" transform="rotate(90,18,33)">
  <rect style="opacity:0.25;fill:currentColor" class="ColorScheme-Highlight" width="12" height="12" x="12" y="15"/>
  <rect style="opacity:0.5;fill:currentColor" class="ColorScheme-Highlight" width="12" height="9" x="12" y="18"/>
  <rect style="fill:currentColor" class="ColorScheme-Highlight" width="12" height="6" x="12" y="21"/>
 </g>
 <g id="bottomleft" transform="rotate(-90,2,28)">
  <path style="opacity:0.25;fill:currentColor" class="ColorScheme-Highlight" d="M -21,38 C -21,26 -9,26 -9,26 v 12 z"/>
  <path style="opacity:0.5;fill:currentColor" class="ColorScheme-Highlight" d="m -18,38 c 0,-9 9,-9 9,-9 v 9 z"/>
  <path style="fill:currentColor" class="ColorScheme-Highlight" d="m -15,38 c 0,-6 6,-6 6,-6 v 6 z"/>
 </g>
 <g id="left" transform="matrix(0,1,1,0,-15,15)">
  <rect style="opacity:0.25;fill:currentColor" class="ColorScheme-Highlight" width="12" height="12" x="12" y="15"/>
  <rect style="opacity:0.5;fill:currentColor" class="ColorScheme-Highlight" width="12" height="9" x="12" y="18"/>
  <rect style="fill:currentColor" class="ColorScheme-Highlight" width="12" height="6" x="12" y="21"/>
 </g>
 <g id="bottom" transform="matrix(1,0,0,-1,0,66)">
  <rect style="opacity:0.25;fill:currentColor" class="ColorScheme-Highlight" width="12" height="12" x="12" y="15"/>
  <rect style="opacity:0.5;fill:currentColor" class="ColorScheme-Highlight" width="12" height="9" x="12" y="18"/>
  <rect style="fill:currentColor" class="ColorScheme-Highlight" width="12" height="6" x="12" y="21"/>
 </g>
</svg>
