<svg xmlns="http://www.w3.org/2000/svg" width="129" height="85" version="1">
 <defs id="materia">
  <style id="current-color-scheme" type="text/css">
   .ColorScheme-Background {color:#181818; } .ColorScheme-ButtonBackground { color:#343434; } .ColorScheme-Highlight { color:#4285f4; } .ColorScheme-Text { color:#dfdfdf; } .ColorScheme-ViewBackground { color:#242424; } .ColorScheme-NegativeText { color:#f44336; } .ColorScheme-PositiveText { color:#4caf50; } .ColorScheme-NeutralText { color:#ff9800; }
  </style>
 </defs>
 <g id="header-center">
  <rect style="fill:currentColor" class="ColorScheme-Background" width="50" height="50" x="7" y="28"/>
  <rect style="opacity:0.03;fill:currentColor" class="ColorScheme-Text" width="50" height="50" x="7" y="28"/>
 </g>
 <g id="header-topleft" transform="matrix(0.99999857,0,0,1,-182.99974,-230.99982)">
  <path style="fill:currentColor" class="ColorScheme-Background" d="m 190.00001,251.99982 v 7 h -7 c -1e-5,-5 1.99999,-7 7,-6.99999 z"/>
  <path style="opacity:0.03;fill:currentColor" class="ColorScheme-Text" d="m 190.00001,251.99982 v 7 h -7 c -1e-5,-5 1.99999,-7 7,-6.99999 z"/>
 </g>
 <g id="header-left" transform="translate(-183.00002,-230.99981)">
  <path style="fill:currentColor" class="ColorScheme-Background" d="m 183.00002,258.99981 v 50 l 7,10e-6 v -50 z"/>
  <path style="opacity:0.03;fill:currentColor" class="ColorScheme-Text" d="m 183.00002,258.99981 v 50 l 7,10e-6 v -50 z"/>
 </g>
 <g id="header-right" transform="translate(-182.99997,-231.00185)">
  <path style="fill:currentColor" class="ColorScheme-Background" d="m 247,258.99982 v 50 l -7,10e-6 v -50 z"/>
  <path style="opacity:0.03;fill:currentColor" class="ColorScheme-Text" d="m 247,258.99982 v 50 l -7,10e-6 v -50 z"/>
 </g>
 <g id="header-topright" transform="translate(-182.99997,-230.99982)">
  <path style="fill:currentColor" class="ColorScheme-Background" d="m 240,251.99982 v 7 h 7 c -3e-5,-5 -2.00003,-7 -7,-7 z"/>
  <path style="opacity:0.03;fill:currentColor" class="ColorScheme-Text" d="m 240,251.99982 v 7 h 7 c -3e-5,-5 -2.00003,-7 -7,-7 z"/>
 </g>
 <g id="header-top" transform="translate(-182.99997,-230.99982)">
  <path style="fill:currentColor" class="ColorScheme-Background" d="M 189.99998,251.99982 H 240 v 7 h -50.00001 z"/>
  <path style="opacity:0.03;fill:currentColor" class="ColorScheme-Text" d="M 189.99998,251.99982 H 240 v 7 h -50.00001 z"/>
 </g>
 <rect id="hint-top-margin" style="fill:#ff00ff" width="4" height="7" x="30" y="28"/>
 <rect id="hint-left-margin" style="fill:#ff00ff" width="7" height="4" x="7" y="50"/>
 <rect id="hint-right-margin" style="fill:#ff00ff" width="7" height="4" x="50" y="50"/>
 <rect id="hint-tile-center" style="fill:#ff00ff" width="5" height="5" x="0" y="0"/>
 <g id="header-bottomleft" transform="matrix(0.99999714,0,0,6.9987361,1.69e-6,-509.89652)">
  <path style="fill:currentColor" class="ColorScheme-Background" d="m 7.00002,84.857574 v -0.857261 h -7 l -1e-5,0.857406 z"/>
  <path style="opacity:0.03;fill:currentColor" class="ColorScheme-Text" d="m 7.00002,84.857574 v -0.857261 h -7 l -1e-5,0.857406 z"/>
  <path style="opacity:0.1;fill:currentColor" class="ColorScheme-Text" d="m 7.00002,85.000534 v -0.142852 h -7 l -1e-5,0.142873 z"/>
 </g>
 <g id="header-bottom" transform="matrix(1,0,0,6.9992408,1.69e-6,-509.93236)">
  <path style="fill:currentColor" class="ColorScheme-Background" d="M 6.99999,84.85672 H 57.00001 V 83.999449 H 7 Z"/>
  <path style="opacity:0.03;fill:currentColor" class="ColorScheme-Text" d="M 6.99999,84.85672 H 57.00001 V 83.999449 H 7 Z"/>
  <path style="opacity:0.1;fill:currentColor" class="ColorScheme-Text" d="M 6.99999,84.999546 H 57.00001 V 84.856694 H 7 Z"/>
 </g>
 <g id="header-bottomright" transform="matrix(1,0,0,6.9992408,-8.31e-6,-509.9359)">
  <path style="fill:currentColor" class="ColorScheme-Background" d="m 57.00001,84.857153 v -0.857271 h 7 v 0.857415 z"/>
  <path style="opacity:0.03;fill:currentColor" class="ColorScheme-Text" d="m 57.00001,84.857153 v -0.857271 h 7 v 0.857415 z"/>
  <path style="opacity:0.1;fill:currentColor" class="ColorScheme-Text" d="m 57.00001,85.000041 v -0.142852 h 7 v 0.142873 z"/>
 </g>
 <rect id="hint-bottom-margin" style="fill:#ff00ff" width="4" height="7" x="30" y="71"/>
 <g id="footer-center">
  <rect style="fill:currentColor" class="ColorScheme-Background" width="50" height="50" x="72" y="28"/>
  <rect style="opacity:0.03;fill:currentColor" class="ColorScheme-Text" width="50" height="50" x="72" y="28"/>
 </g>
 <g id="footer-bottomleft" transform="matrix(0.99999855,0,0,1,-117.99972,-173.99982)">
  <path style="fill:currentColor" class="ColorScheme-Background" d="m 190.00001,251.99982 v 7 c -5.00002,0 -7.00002,-2 -7.00001,-6.99899 0,0 7,0 7.00001,-0.001 z"/>
  <path style="opacity:0.03;fill:currentColor" class="ColorScheme-Text" d="m 190.00001,251.99982 v 7 c -5.00002,0 -7.00002,-2 -7.00001,-6.99899 0,0 7,0 7.00001,-0.001 z"/>
 </g>
 <g id="footer-left" transform="translate(-118.00001,-230.99982)">
  <path style="fill:currentColor" class="ColorScheme-Background" d="m 183.00002,258.99981 v 50 l 7,10e-6 v -50 z"/>
  <path style="opacity:0.03;fill:currentColor" class="ColorScheme-Text" d="m 183.00002,258.99981 v 50 l 7,10e-6 v -50 z"/>
 </g>
 <g id="footer-right" transform="translate(-117.99999,-230.99983)">
  <path style="fill:currentColor" class="ColorScheme-Background" d="m 247,258.99982 v 50 l -7,10e-6 v -50 z"/>
  <path style="opacity:0.03;fill:currentColor" class="ColorScheme-Text" d="m 247,258.99982 v 50 l -7,10e-6 v -50 z"/>
 </g>
 <g id="footer-bottomright" transform="translate(-117.99997,-173.99982)">
  <path style="fill:currentColor" class="ColorScheme-Background" d="m 240,251.99982 v 7 c 4.99997,0 6.99997,-2 7,-6.99899 z"/>
  <path style="opacity:0.03;fill:currentColor" class="ColorScheme-Text" d="m 240,251.99982 v 7 c 4.99997,0 6.99997,-2 7,-6.99899 z"/>
 </g>
 <g id="footer-bottom" transform="translate(-117.99997,-173.99982)">
  <path style="fill:currentColor" class="ColorScheme-Background" d="M 189.99998,251.99982 H 240 v 7 h -50.00001 z"/>
  <path style="opacity:0.03;fill:currentColor" class="ColorScheme-Text" d="M 189.99998,251.99982 H 240 v 7 h -50.00001 z"/>
 </g>
 <g id="footer-topleft" transform="matrix(0.99999857,0,0,-0.99985574,64.999992,105.98758)">
  <path style="fill:currentColor" class="ColorScheme-Background" d="m 7.00002,83.997972 v -5.999136 h -7 l -1e-5,6.000002 z"/>
  <path style="opacity:0.03;fill:currentColor" class="ColorScheme-Text" d="m 7.00002,83.997972 v -5.999136 h -7 l -1e-5,6.000002 z"/>
  <path style="opacity:0.1;fill:currentColor" class="ColorScheme-Text" d="m 7.00002,84.998839 v -0.999141 h -7 l -1e-5,0.999285 z"/>
 </g>
 <g id="footer-top" transform="matrix(1,0,0,-1,65.000012,105.99898)">
  <path style="fill:currentColor" class="ColorScheme-Background" d="M 6.99999,83.998116 H 57.00001 V 77.99898 H 7 Z"/>
  <path style="opacity:0.03;fill:currentColor" class="ColorScheme-Text" d="M 6.99999,83.998116 H 57.00001 V 77.99898 H 7 Z"/>
  <path style="opacity:0.1;fill:currentColor" class="ColorScheme-Text" d="M 6.99999,84.998836 H 57.00001 V 83.999695 H 7 Z"/>
 </g>
 <g id="footer-topright" transform="matrix(1,0,0,-0.99985574,65.000012,105.98672)">
  <path style="fill:currentColor" class="ColorScheme-Background" d="m 57.00001,83.997972 v -5.999136 h 7 v 6.000002 z"/>
  <path style="opacity:0.03;fill:currentColor" class="ColorScheme-Text" d="m 57.00001,83.997972 v -5.999136 h 7 v 6.000002 z"/>
  <path style="opacity:0.1;fill:currentColor" class="ColorScheme-Text" d="m 57.00001,84.998838 v -0.999141 h 7 v 0.999285 z"/>
 </g>
</svg>
