<svg xmlns="http://www.w3.org/2000/svg" width="228" height="84" version="1">
 <defs id="materia">
  <style id="current-color-scheme" type="text/css">
   .ColorScheme-Background {color:#181818; } .ColorScheme-ButtonBackground { color:#343434; } .ColorScheme-Highlight { color:#4285f4; } .ColorScheme-Text { color:#dfdfdf; } .ColorScheme-ViewBackground { color:#242424; } .ColorScheme-NegativeText { color:#f44336; } .ColorScheme-PositiveText { color:#4caf50; } .ColorScheme-NeutralText { color:#ff9800; }
  </style>
 </defs>
 <g id="center">
  <rect style="fill:currentColor" class="ColorScheme-Background" width="50" height="50" x="7" y="27"/>
 </g>
 <g id="topleft" transform="translate(-183,-231.99995)">
  <path style="fill:currentColor" class="ColorScheme-Background" d="m 190.00001,251.99982 v 7 h -7 v -2 c 0,-2.77 2.23,-5 5,-5 z"/>
 </g>
 <g id="left" transform="translate(-183,-231.99995)">
  <path style="fill:currentColor" class="ColorScheme-Background" d="m 183.00002,258.99981 v 50 l 7,10e-6 v -50 z"/>
 </g>
 <g id="right" transform="translate(-183,-231.99995)">
  <path style="fill:currentColor" class="ColorScheme-Background" d="m 247,258.99982 v 50 l -7,10e-6 v -50 z"/>
 </g>
 <g id="bottomleft" transform="translate(-183,-231.99995)">
  <path style="fill:currentColor" class="ColorScheme-Background" d="m 190.00001,315.99991 v -7 h -7 v 2 c 0,2.77 2.23,5 5,5 z"/>
 </g>
 <g id="bottom" transform="translate(-183,-231.99995)">
  <path style="fill:currentColor" class="ColorScheme-Background" d="M 189.99998,315.99995 H 240 v -7 h -50.00001 z"/>
 </g>
 <g id="bottomright" transform="translate(-183,-231.99995)">
  <path style="fill:currentColor" class="ColorScheme-Background" d="m 240,315.99991 v -7 h 7 v 2 c 0,2.77 -2.23,5 -5,5 z"/>
 </g>
 <g id="topright" transform="translate(-183,-231.99995)">
  <path style="fill:currentColor" class="ColorScheme-Background" d="m 240,251.99982 v 7 h 7 v -2 c 0,-2.77 -2.23,-5 -5,-5 z"/>
 </g>
 <g id="top" transform="translate(-183,-231.99995)">
  <path style="fill:currentColor" class="ColorScheme-Background" d="M 189.99998,251.99982 H 240 v 7 h -50.00001 z"/>
 </g>
 <rect id="hint-top-margin" style="fill:#ff00ff" width="4" height="10" x="29" y="27"/>
 <rect id="hint-bottom-margin" style="fill:#ff00ff" width="4" height="10" x="29" y="67"/>
 <rect id="hint-left-margin" style="fill:#ff00ff" width="10" height="4" x="7" y="49"/>
 <rect id="hint-right-margin" style="fill:#ff00ff" width="10" height="4" x="47" y="49"/>
 <rect id="hint-tile-center" style="fill:#ff00ff" width="5" height="5" x="0" y="2"/>
 <path id="shadow-topleft" style="opacity:0.001" d="m 144.00001,16.998965 h 10 v -2 c 0,-2.77 2.23,-5.0000004 5,-5.0000004 h 2 v -9.99999996 h -17 z"/>
 <g id="shadow-left" transform="matrix(-1,0,0,1,442.00001,-240.00103)">
  <rect style="opacity:0.001" width="50" height="10" x="-307" y="288" transform="rotate(-90)"/>
 </g>
 <path id="shadow-bottomright" style="opacity:0.001" d="m 228.00001,66.998965 h -10 v 2 c 0,2.77 -2.23,5 -5,5 h -2 v 10 h 17 z"/>
 <g id="shadow-bottom" transform="rotate(90,341.00052,126.9995)">
  <rect style="opacity:0.001" width="50" height="10" x="-307" y="288" transform="rotate(-90)"/>
 </g>
 <g id="shadow-right" transform="translate(-69.999994,-240.00103)">
  <rect style="opacity:0.001" width="50" height="10" x="-307" y="288" transform="rotate(-90)"/>
 </g>
 <g id="shadow-top" transform="matrix(0,-1,-1,0,468.00001,297.99896)">
  <rect style="opacity:0.001" width="50" height="10" x="-307" y="288" transform="rotate(-90)"/>
 </g>
 <path id="shadow-topright" style="opacity:0.001" d="M 211.00001,-0.00103536 V 9.9989646 h 2 c 2.77,0 5,2.2300004 5,5.0000004 v 2 h 10 V -0.00103536 Z"/>
 <path id="shadow-bottomleft" style="opacity:0.001" d="m 161.00001,83.998965 v -10 h -2 c -2.77,0 -5,-2.23 -5,-5 v -2 h -10 v 17 z"/>
 <rect id="shadow-hint-right-margin" style="fill:#ff00ff" width="10" height="4" x="218" y="40"/>
 <rect id="shadow-hint-bottom-margin" style="fill:#ff00ff" width="4" height="10" x="184" y="74"/>
 <rect id="shadow-hint-left-margin" style="fill:#ff00ff" width="10" height="4" x="144" y="40"/>
 <rect id="shadow-hint-top-margin" style="fill:#ff00ff" width="4" height="10" x="185" y="0"/>
 <rect id="mask-center" width="50" height="50" x="79" y="27"/>
 <path id="mask-topleft" d="m 79.00001,19.999875 v 7 H 72 v -2 c 0,-2.77 2.23,-5 5,-5 z"/>
 <path id="mask-left" d="m 72.00001,26.999865 v 50 l 7.00001,1e-5 v -50 z"/>
 <path id="mask-right" d="m 135.99999,26.999875 v 50 l -7,1e-5 v -50 z"/>
 <path id="mask-bottomleft" d="m 79.00001,83.999965 v -7 H 72 v 2 c 0,2.77 2.23,5 5,5 z"/>
 <path id="mask-bottom" d="m 78.99998,84.000005 h 50.00001 v -7 h -50 z"/>
 <path id="mask-bottomright" d="m 128.99999,83.999965 v -7 h 7 v 2 c 0,2.77 -2.23,5 -5,5 z"/>
 <path id="mask-topright" d="m 128.99999,19.999875 v 7 h 7 v -2 c 0,-2.77 -2.23,-5 -5,-5 z"/>
 <path id="mask-top" d="m 78.99998,19.999875 h 50.00001 v 7 h -50 z"/>
 <rect id="shadow-center" style="fill:none" width="50" height="50" x="161" y="17.06"/>
</svg>
