<svg xmlns="http://www.w3.org/2000/svg" id="svg88" width="32" height="32" version="1.1">
<rect id="rect1419" width="32" height="32" x="0" y="0" style="opacity:0.00100002;fill:#000000;fill-opacity:1;fill-rule:nonzero;stroke:none;stroke-width:5.38707685;stroke-linecap:round;stroke-linejoin:round;stroke-miterlimit:4;stroke-dasharray:none;stroke-opacity:1"/>
<circle id="circle1393" cx="16" cy="17" r="14" style="opacity:0.2;fill:#000000;stroke-width:0.15909091"/>
<circle style="fill:#fafafa;stroke-width:0.15909091" id="circle15" cx="16" cy="16" r="14"/>
<path style="fill:#4285f4;stroke-width:0.1692508" id="path17-3" d="M 8.0000001,10 V 21 H 24 Z"/>
<path style="fill:#7baaf7;stroke-width:0.1692508" id="path19-6" d="M 24,10 V 21 H 8.0000001 Z"/>
<path id="circle1395" d="M 16,2 A 14,14 0 0 0 2,16 14,14 0 0 0 2.0214844,16.585938 14,14 0 0 1 16,3 14,14 0 0 1 29.978516,16.414062 14,14 0 0 0 30,16 14,14 0 0 0 16,2 Z" style="opacity:0.2;fill:#ffffff;stroke-width:0.15909091"/>
</svg>
