<svg xmlns="http://www.w3.org/2000/svg" width="22" height="22" version="1.1">
 <g transform="translate(-5,-5)">
  <rect style="opacity:0.001" width="22" height="22" x="5" y="5"/>
  <path style="fill:#dfdfdf" d="m 16.015625,9 a 1.0001,1.0001 0 1 0 -0.0039,2 c 1.397778,0.0024 2.730544,0.589407 3.675775,1.619141 0.850536,0.926572 1.310887,2.133499 1.310547,3.380859 h -1.994141 l 1.5,2 1.5,2 1.5,-2 1.5,-2 H 22.998047 C 22.997824,14.254653 22.349711,12.561524 21.160156,11.265625 19.837636,9.824874 17.971338,9.003413 16.015625,9 Z M 10,12 8.5,14 7,16 h 2.0058594 c 2.232e-4,1.745347 0.6483363,3.438476 1.8378906,4.734375 1.32252,1.440752 3.188818,2.262212 5.144531,2.265625 a 1.0001,1.0001 0 1 0 0.0039,-2 C 14.594406,20.99756 13.261637,20.410593 12.316406,19.380859 11.46587,18.454287 11.005519,17.24736 11.005859,16 H 13 l -1.5,-2 z"/>
 </g>
</svg>
