<svg xmlns="http://www.w3.org/2000/svg" width="88" height="110" version="1.0">
 <defs id="materia">
  <style id="current-color-scheme" type="text/css">
   .ColorScheme-Background {color:#181818; } .ColorScheme-ButtonBackground { color:#343434; } .ColorScheme-Highlight { color:#4285f4; } .ColorScheme-Text { color:#dfdfdf; } .ColorScheme-ViewBackground { color:#242424; } .ColorScheme-NegativeText { color:#f44336; } .ColorScheme-PositiveText { color:#4caf50; } .ColorScheme-NeutralText { color:#ff9800; }
  </style>
 </defs>
 <g id="S">
  <rect width="22" height="22" x="0" y="0" style="opacity:0.01"/>
  <path style="fill:currentColor" class="ColorScheme-Text" d="M 11,2 A 1.0001,1.0001 0 0 0 10.019531,2.8046875 L 7.0195312,17.804688 a 1.0001,1.0001 0 0 0 1.5351563,1.027343 L 11,17.201172 l 2.445312,1.630859 a 1.0001,1.0001 0 0 0 1.535157,-1.027343 l -3,-15.0000005 A 1.0001,1.0001 0 0 0 11,2 Z"/>
 </g>
 <g id="SSW">
  <rect width="22" height="22" x="22" y="0" style="opacity:0.01"/>
  <path style="fill:currentColor" class="ColorScheme-Text" d="M 35.996094,2.6132812 A 1.0001,1.0001 0 0 0 35.230469,3.0546875 L 26.71875,15.763672 a 1.0001,1.0001 0 0 0 1.025391,1.537109 l 2.882812,-0.570312 1.634766,2.443359 a 1.0001,1.0001 0 0 0 1.8125,-0.363281 L 37.042969,3.8046875 A 1.0001,1.0001 0 0 0 35.996094,2.6132812 Z"/>
 </g>
 <g id="SW">
  <rect width="22" height="22" x="44" y="0" style="opacity:0.01"/>
  <path style="fill:currentColor" class="ColorScheme-Text" d="M 60.978516,4.4003906 A 1.0001,1.0001 0 0 0 60.101562,4.5136719 L 47.373047,13 a 1.0001,1.0001 0 0 0 0.359375,1.8125 l 2.880859,0.576172 0.578125,2.880859 a 1.0001,1.0001 0 0 0 1.8125,0.359375 L 61.488281,5.9003906 a 1.0001,1.0001 0 0 0 -0.509765,-1.5 z"/>
 </g>
 <g id="WSW">
  <rect width="22" height="22" x="66" y="0" style="opacity:0.01"/>
  <path style="fill:currentColor" class="ColorScheme-Text" d="m 84.195312,6.9609375 -15.005859,2.96875 a 1.0001,1.0001 0 0 0 -0.363281,1.8125005 l 2.443359,1.634765 -0.570312,2.882813 a 1.0001,1.0001 0 0 0 1.537109,1.02539 L 84.945312,8.7734375 a 1.0001,1.0001 0 0 0 -0.75,-1.8125 z"/>
 </g>
 <g id="W">
  <rect width="22" height="22" x="0" y="22" style="opacity:0.01"/>
  <path style="fill:currentColor" class="ColorScheme-Text" d="m 4.1933594,29.023437 a 1.0001,1.0001 0 0 0 -1.0273438,1.53711 l 1.6289063,2.445312 -1.6289063,2.445313 a 1.0001,1.0001 0 0 0 1.0273438,1.535156 l 14.9999996,-3 a 1.0001,1.0001 0 0 0 0,-1.962891 z"/>
 </g>
 <g id="N">
  <rect width="22" height="22" x="0" y="44" style="opacity:0.01"/>
  <path style="fill:currentColor" class="ColorScheme-Text" d="m 14.1875,47.021484 a 1.0001,1.0001 0 0 0 -0.75,0.148438 l -2.445312,1.630859 -2.445313,-1.630859 a 1.0001,1.0001 0 0 0 -1.5351563,1.029297 l 3.0000003,15 a 1.0001,1.0001 0 0 0 1.960937,0 l 3,-15 A 1.0001,1.0001 0 0 0 14.1875,47.021484 Z"/>
 </g>
 <g id="E">
  <rect width="22" height="22" x="0" y="66" style="opacity:0.01"/>
  <path style="fill:currentColor" class="ColorScheme-Text" d="m 17.798828,73.015625 -14.9999999,3 a 1.0001,1.0001 0 0 0 0,1.962891 l 14.9999999,3 a 1.0001,1.0001 0 0 0 1.027344,-1.535157 l -1.628906,-2.445312 1.628906,-2.445313 a 1.0001,1.0001 0 0 0 -1.027344,-1.537109 z"/>
 </g>
 <g id="ESE">
  <rect width="22" height="22" x="22" y="66" style="opacity:0.01"/>
  <path style="fill:currentColor" class="ColorScheme-Text" d="m 25.798828,72.955078 a 1.0001,1.0001 0 0 0 -0.75,1.810547 l 12.710938,8.513672 a 1.0001,1.0001 0 0 0 1.537109,-1.025391 l -0.570313,-2.882812 2.441407,-1.636719 a 1.0001,1.0001 0 0 0 -0.361328,-1.810547 z"/>
 </g>
 <g id="SE">
  <rect width="22" height="22" x="44" y="66" style="opacity:0.01"/>
  <path style="fill:currentColor" class="ColorScheme-Text" d="m 49.896484,70.507812 a 1.0001,1.0001 0 0 0 -1.386718,1.386719 l 8.484375,12.728516 a 1.0001,1.0001 0 0 0 1.8125,-0.357422 l 0.576171,-2.882813 2.882813,-0.576171 a 1.0001,1.0001 0 0 0 0.357422,-1.8125 z"/>
 </g>
 <g id="SSE">
  <rect width="22" height="22" x="66" y="66" style="opacity:0.01"/>
  <path style="fill:currentColor" class="ColorScheme-Text" d="m 73.554687,68.683594 a 1.0001,1.0001 0 0 0 -0.597656,1.117187 l 2.96875,15.007813 a 1.0001,1.0001 0 0 0 1.8125,0.361328 l 1.634766,-2.441406 2.882812,0.570312 A 1.0001,1.0001 0 0 0 83.28125,81.761719 L 74.769531,69.050781 a 1.0001,1.0001 0 0 0 -1.214844,-0.367187 z"/>
 </g>
 <g id="NNE">
  <rect width="22" height="22" x="22" y="44" style="opacity:0.01"/>
  <path style="fill:currentColor" class="ColorScheme-Text" d="m 32.703125,46.404297 a 1.0001,1.0001 0 0 0 -0.785156,0.787109 l -2.96875,15.00586 a 1.0001,1.0001 0 0 0 1.8125,0.75 l 8.511718,-12.708985 a 1.0001,1.0001 0 0 0 -1.02539,-1.537109 l -2.882813,0.570312 -1.634765,-2.443359 a 1.0001,1.0001 0 0 0 -1.027344,-0.423828 z"/>
 </g>
 <g id="NE">
  <rect width="22" height="22" x="44" y="44" style="opacity:0.01"/>
  <path style="fill:currentColor" class="ColorScheme-Text" d="m 58.015625,46.947266 a 1.0001,1.0001 0 0 0 -1.027344,0.425781 l -8.484375,12.728515 a 1.0001,1.0001 0 0 0 1.386719,1.386719 l 12.728516,-8.486328 a 1.0001,1.0001 0 0 0 -0.359375,-1.8125 l -2.88086,-0.576172 -0.578125,-2.880859 a 1.0001,1.0001 0 0 0 -0.785156,-0.785156 z"/>
 </g>
 <g id="ENE">
  <rect width="22" height="22" x="66" y="44" style="opacity:0.01"/>
  <path style="fill:currentColor" class="ColorScheme-Text" d="m 82.505859,48.566406 a 1.0001,1.0001 0 0 0 -0.75,0.150391 l -12.708984,8.511719 a 1.0001,1.0001 0 0 0 0.75,1.8125 l 15.005859,-2.96875 a 1.0001,1.0001 0 0 0 0.363282,-1.8125 L 82.722656,52.625 83.292969,49.742187 a 1.0001,1.0001 0 0 0 -0.78711,-1.175781 z"/>
 </g>
 <g id="WNW">
  <rect width="22" height="22" x="22" y="22" style="opacity:0.01"/>
  <path style="fill:currentColor" class="ColorScheme-Text" d="m 27.121094,26.722656 a 1.0001,1.0001 0 0 0 -0.425782,1.025391 l 0.570313,2.882812 -2.441406,1.636719 a 1.0001,1.0001 0 0 0 0.361328,1.810547 l 15.007812,2.96875 a 1.0001,1.0001 0 0 0 0.75,-1.810547 L 28.232422,26.724609 a 1.0001,1.0001 0 0 0 -1.111328,-0.002 z"/>
 </g>
 <g id="NW">
  <rect width="22" height="22" x="44" y="22" style="opacity:0.01"/>
  <path style="fill:currentColor" class="ColorScheme-Text" d="m 51.970703,24.953125 a 1.0001,1.0001 0 0 0 -0.785156,0.785156 l -0.576172,2.88086 -2.882813,0.576171 a 1.0001,1.0001 0 0 0 -0.357421,1.8125 l 12.726562,8.486329 a 1.0001,1.0001 0 0 0 1.386719,-1.386719 L 52.998047,25.378906 a 1.0001,1.0001 0 0 0 -1.027344,-0.425781 z"/>
 </g>
 <g id="NNW">
  <rect width="22" height="22" x="66" y="22" style="opacity:0.01"/>
  <path style="fill:currentColor" class="ColorScheme-Text" d="m 77.28125,24.408203 a 1.0001,1.0001 0 0 0 -1.027344,0.423828 l -1.634765,2.441406 -2.882813,-0.570312 a 1.0001,1.0001 0 0 0 -1.025391,1.537109 l 8.511719,12.710938 a 1.0001,1.0001 0 0 0 1.8125,-0.75 L 78.066406,25.193359 A 1.0001,1.0001 0 0 0 77.28125,24.408203 Z"/>
 </g>
</svg>
