<svg xmlns="http://www.w3.org/2000/svg" xmlns:xlink="http://www.w3.org/1999/xlink" width="228" height="84" version="1">
 <defs id="materia">
  <style id="current-color-scheme" type="text/css">
   .ColorScheme-Background {color:#181818; } .ColorScheme-ButtonBackground { color:#343434; } .ColorScheme-Highlight { color:#4285f4; } .ColorScheme-Text { color:#dfdfdf; } .ColorScheme-ViewBackground { color:#242424; } .ColorScheme-NegativeText { color:#f44336; } .ColorScheme-PositiveText { color:#4caf50; } .ColorScheme-NeutralText { color:#ff9800; }
  </style>
 </defs>
 <g id="center">
  <rect style="fill:currentColor" class="ColorScheme-ViewBackground" width="50" height="50" x="7" y="27"/>
 </g>
 <g id="topleft" transform="translate(-183,-231.99995)">
  <path style="fill:currentColor" class="ColorScheme-ViewBackground" d="m 190.00001,251.99982 v 7 h -7 v -2 c 0,-2.77 2.23,-5 5,-5 z"/>
 </g>
 <g id="left" transform="translate(-183,-231.99995)">
  <path style="fill:currentColor" class="ColorScheme-ViewBackground" d="m 183.00002,258.99981 v 50 l 7,10e-6 v -50 z"/>
 </g>
 <g id="right" transform="translate(-183,-231.99995)">
  <path style="fill:currentColor" class="ColorScheme-ViewBackground" d="m 247,258.99982 v 50 l -7,10e-6 v -50 z"/>
 </g>
 <g id="bottomleft" transform="translate(-183,-231.99995)">
  <path style="fill:currentColor" class="ColorScheme-ViewBackground" d="m 190.00001,315.99991 v -7 h -7 v 2 c 0,2.77 2.23,5 5,5 z"/>
 </g>
 <g id="bottom" transform="translate(-183,-231.99995)">
  <path style="fill:currentColor" class="ColorScheme-ViewBackground" d="M 189.99998,315.99995 H 240 v -7 h -50.00001 z"/>
 </g>
 <g id="bottomright" transform="translate(-183,-231.99995)">
  <path style="fill:currentColor" class="ColorScheme-ViewBackground" d="m 240,315.99991 v -7 h 7 v 2 c 0,2.77 -2.23,5 -5,5 z"/>
 </g>
 <g id="topright" transform="translate(-183,-231.99995)">
  <path style="fill:currentColor" class="ColorScheme-ViewBackground" d="m 240,251.99982 v 7 h 7 v -2 c 0,-2.77 -2.23,-5 -5,-5 z"/>
 </g>
 <g id="top" transform="translate(-183,-231.99995)">
  <path style="fill:currentColor" class="ColorScheme-ViewBackground" d="M 189.99998,251.99982 H 240 v 7 h -50.00001 z"/>
 </g>
 <rect id="hint-top-margin" style="fill:#ff00ff" width="4" height="7" x="29" y="27"/>
 <rect id="hint-bottom-margin" style="fill:#ff00ff" width="4" height="7" x="29" y="70"/>
 <rect id="hint-left-margin" style="fill:#ff00ff" width="7" height="4" x="7" y="49"/>
 <rect id="hint-right-margin" style="fill:#ff00ff" width="7" height="4" x="50" y="49"/>
 <rect id="hint-tile-center" style="fill:#ff00ff" width="5" height="5" x="0" y="2"/>
 <rect id="mask-center" style="fill:#000000" width="50" height="50" x="79" y="20"/>
 <path id="mask-topleft" style="fill:#000000" d="M 79,6 V 19.99998 H 65 V 15.999986 C 65,10.459994 69.459994,6 74.999986,6 Z"/>
 <path id="mask-left" style="fill:#000000" d="m 65,19.99998 v 50 l 14,1e-5 v -50 z"/>
 <path id="mask-right" style="fill:#000000" d="m 143.00001,20 v 50 l -14,1e-5 v -50 z"/>
 <path id="mask-bottomleft" style="fill:#000000" d="M 79.000008,83.99998 V 70 h -14 v 3.999994 c 0,5.539992 4.459994,9.999986 9.999986,9.999986 z"/>
 <path id="mask-bottom" style="fill:#000000" d="M 78.999998,84 H 129.00001 V 70 H 79.000008 Z"/>
 <path id="mask-bottomright" style="fill:#000000" d="M 129.00001,84 V 70 h 14 v 4 c 0,5.54 -4.46,10 -10,10 z"/>
 <path id="mask-topright" style="fill:#000000" d="m 129.00001,6 v 14 h 14 v -4 c 0,-5.54 -4.46,-10 -10,-10 z"/>
 <path id="mask-top" style="fill:#000000" d="m 79,6 h 50.00001 v 14 h -50 z"/>
</svg>
