<svg xmlns="http://www.w3.org/2000/svg" id="svg4306" width="22" height="22" version="1.1" style="enable-background:new">
 <g id="active-center">
  <rect id="rect4175" width="22" height="22" x="0" y="0" style="opacity:0.001;fill:#000000;fill-opacity:1;fill-rule:nonzero;stroke:none;stroke-width:2;stroke-linecap:round;stroke-linejoin:round;stroke-miterlimit:4;stroke-dasharray:none;stroke-opacity:1"/>
  <g id="layer12" transform="matrix(0.99960695,0,0,0.99997077,-56.9717,-514.98451)" style="fill:#dfdfdf;fill-opacity:1">
   <g id="layer4-4-1" transform="translate(19,-242)" style="display:inline;fill:#dfdfdf;fill-opacity:1">
    <path id="path10839-9" d="m 45,764 1,0 c 0.01037,-1.2e-4 0.02079,-4.6e-4 0.03125,0 0.254951,0.0112 0.50987,0.12858 0.6875,0.3125 L 49,766.59375 51.3125,764.3125 C 51.578125,764.082 51.759172,764.007 52,764 l 1,0 0,1 c 0,0.28647 -0.03434,0.55065 -0.25,0.75 l -2.28125,2.28125 2.25,2.25 C 52.906938,770.46942 52.999992,770.7347 53,771 l 0,1 -1,0 c -0.265301,-10e-6 -0.530586,-0.0931 -0.71875,-0.28125 L 49,769.4375 46.71875,771.71875 C 46.530586,771.90694 46.26529,772 46,772 l -1,0 0,-1 c -3e-6,-0.26529 0.09306,-0.53058 0.28125,-0.71875 l 2.28125,-2.25 L 45.28125,765.75 C 45.070508,765.55537 44.97809,765.28075 45,765 l 0,-1 z" style="color:#bebebe;font-style:normal;font-variant:normal;font-weight:normal;font-stretch:normal;font-size:medium;line-height:normal;font-family:'Andale Mono';-inkscape-font-specification:'Andale Mono';text-indent:0;text-align:start;text-decoration:none;text-decoration-line:none;letter-spacing:normal;word-spacing:normal;text-transform:none;direction:ltr;block-progression:tb;writing-mode:lr-tb;text-anchor:start;display:inline;overflow:visible;visibility:visible;fill:#dfdfdf;fill-opacity:1;fill-rule:nonzero;stroke:none;stroke-width:1.78124988;marker:none;enable-background:new"/>
   </g>
  </g>
 </g>
 <g id="pressed-center">
  <rect id="rect4211" width="22" height="22" x="46" y="0" style="opacity:0.001;fill:#000000;fill-opacity:1;fill-rule:nonzero;stroke:none;stroke-width:2;stroke-linecap:round;stroke-linejoin:round;stroke-miterlimit:4;stroke-dasharray:none;stroke-opacity:1"/>
  <circle id="circle4215" cx="57" cy="11" r="11" style="opacity:0.19;fill:#ffffff;fill-opacity:1;fill-rule:nonzero;stroke:none;stroke-width:0;stroke-linecap:square;stroke-linejoin:round;stroke-miterlimit:4;stroke-dasharray:none;stroke-dashoffset:478.43673706;stroke-opacity:0.4"/>
  <path id="path4221" d="m 53.003145,7.0002283 h 0.999607 c 0.01037,-1.2e-4 0.02078,-4.6e-4 0.03124,0 0.25485,0.0112 0.509669,0.1285762 0.687229,0.3124908 l 2.280354,2.2811834 2.311591,-2.2811834 c 0.26552,-0.2304932 0.446496,-0.305491 0.68723,-0.3124908 H 61 V 8.000199 c 0,0.2864617 -0.03433,0.550634 -0.249901,0.7499781 l -2.280354,2.2811829 2.249116,2.249935 C 60.906975,13.469459 60.999992,13.734731 61,14.000024 v 0.99997 h -0.999606 c -0.265197,-10e-6 -0.530378,-0.0931 -0.718468,-0.281241 l -2.280353,-2.281184 -2.280354,2.281184 c -0.18809,0.188184 -0.453281,0.281241 -0.718467,0.281241 h -0.999607 v -0.99997 c -3e-6,-0.265283 0.09302,-0.530565 0.281139,-0.718729 L 55.564638,11.03136 53.284284,8.7501771 C 53.073625,8.5555528 52.981243,8.2809408 53.003145,8.000199 Z" style="color:#bebebe;font-style:normal;font-variant:normal;font-weight:normal;font-stretch:normal;font-size:medium;line-height:normal;font-family:'Andale Mono';-inkscape-font-specification:'Andale Mono';text-indent:0;text-align:start;text-decoration:none;text-decoration-line:none;letter-spacing:normal;word-spacing:normal;text-transform:none;writing-mode:lr-tb;direction:ltr;text-anchor:start;display:inline;overflow:visible;visibility:visible;fill:#dfdfdf;fill-opacity:1;fill-rule:nonzero;stroke:none;stroke-width:1.78087378;marker:none;enable-background:new"/>
 </g>
 <g id="inactive-center" transform="translate(69,0)">
  <rect id="rect4225" width="22" height="22" x="0" y="0" style="opacity:0.001;fill:#000000;fill-opacity:1;fill-rule:nonzero;stroke:none;stroke-width:2;stroke-linecap:round;stroke-linejoin:round;stroke-miterlimit:4;stroke-dasharray:none;stroke-opacity:1"/>
  <g id="g4227" transform="matrix(0.99960695,0,0,0.99997077,-56.9717,-514.98451)" style="fill:#dfdfdf;fill-opacity:1">
   <g id="g4229" transform="translate(19,-242)" style="display:inline;fill:#dfdfdf;fill-opacity:1">
    <path id="path4231" d="m 45,764 1,0 c 0.01037,-1.2e-4 0.02079,-4.6e-4 0.03125,0 0.254951,0.0112 0.50987,0.12858 0.6875,0.3125 L 49,766.59375 51.3125,764.3125 C 51.578125,764.082 51.759172,764.007 52,764 l 1,0 0,1 c 0,0.28647 -0.03434,0.55065 -0.25,0.75 l -2.28125,2.28125 2.25,2.25 C 52.906938,770.46942 52.999992,770.7347 53,771 l 0,1 -1,0 c -0.265301,-10e-6 -0.530586,-0.0931 -0.71875,-0.28125 L 49,769.4375 46.71875,771.71875 C 46.530586,771.90694 46.26529,772 46,772 l -1,0 0,-1 c -3e-6,-0.26529 0.09306,-0.53058 0.28125,-0.71875 l 2.28125,-2.25 L 45.28125,765.75 C 45.070508,765.55537 44.97809,765.28075 45,765 l 0,-1 z" style="color:#bebebe;font-style:normal;font-variant:normal;font-weight:normal;font-stretch:normal;font-size:medium;line-height:normal;font-family:'Andale Mono';-inkscape-font-specification:'Andale Mono';text-indent:0;text-align:start;text-decoration:none;text-decoration-line:none;letter-spacing:normal;word-spacing:normal;text-transform:none;direction:ltr;block-progression:tb;writing-mode:lr-tb;text-anchor:start;display:inline;overflow:visible;visibility:visible;fill:#dfdfdf;fill-opacity:1;fill-rule:nonzero;stroke:none;stroke-width:1.78124988;marker:none;enable-background:new;opacity:0.3"/>
   </g>
  </g>
 </g>
 <g id="deactivated-center" transform="translate(92,0)">
  <rect id="rect4235" width="22" height="22" x="0" y="0" style="opacity:0.001;fill:#000000;fill-opacity:1;fill-rule:nonzero;stroke:none;stroke-width:2;stroke-linecap:round;stroke-linejoin:round;stroke-miterlimit:4;stroke-dasharray:none;stroke-opacity:1"/>
  <g id="g4237" transform="matrix(0.99960695,0,0,0.99997077,-56.9717,-514.98451)" style="fill:#dfdfdf;fill-opacity:1">
   <g id="g4239" transform="translate(19,-242)" style="display:inline;fill:#dfdfdf;fill-opacity:1">
    <path id="path4241" d="m 45,764 1,0 c 0.01037,-1.2e-4 0.02079,-4.6e-4 0.03125,0 0.254951,0.0112 0.50987,0.12858 0.6875,0.3125 L 49,766.59375 51.3125,764.3125 C 51.578125,764.082 51.759172,764.007 52,764 l 1,0 0,1 c 0,0.28647 -0.03434,0.55065 -0.25,0.75 l -2.28125,2.28125 2.25,2.25 C 52.906938,770.46942 52.999992,770.7347 53,771 l 0,1 -1,0 c -0.265301,-10e-6 -0.530586,-0.0931 -0.71875,-0.28125 L 49,769.4375 46.71875,771.71875 C 46.530586,771.90694 46.26529,772 46,772 l -1,0 0,-1 c -3e-6,-0.26529 0.09306,-0.53058 0.28125,-0.71875 l 2.28125,-2.25 L 45.28125,765.75 C 45.070508,765.55537 44.97809,765.28075 45,765 l 0,-1 z" style="color:#bebebe;font-style:normal;font-variant:normal;font-weight:normal;font-stretch:normal;font-size:medium;line-height:normal;font-family:'Andale Mono';-inkscape-font-specification:'Andale Mono';text-indent:0;text-align:start;text-decoration:none;text-decoration-line:none;letter-spacing:normal;word-spacing:normal;text-transform:none;direction:ltr;block-progression:tb;writing-mode:lr-tb;text-anchor:start;display:inline;overflow:visible;visibility:visible;opacity:0.3;fill:#dfdfdf;fill-opacity:1;fill-rule:nonzero;stroke:none;stroke-width:1.78124988;marker:none;enable-background:new"/>
   </g>
  </g>
 </g>
 <g id="hover-center">
  <rect id="rect4224" width="22" height="22" x="23" y="0" style="opacity:0.001;fill:#000000;fill-opacity:1;fill-rule:nonzero;stroke:none;stroke-width:2;stroke-linecap:round;stroke-linejoin:round;stroke-miterlimit:4;stroke-dasharray:none;stroke-opacity:1"/>
  <circle id="circle4230" cx="34" cy="11" r="11" style="opacity:0.08;fill:#ffffff;fill-opacity:1;fill-rule:nonzero;stroke:none;stroke-width:0;stroke-linecap:square;stroke-linejoin:round;stroke-miterlimit:4;stroke-dasharray:none;stroke-dashoffset:478.43673706;stroke-opacity:0.4"/>
  <g style="display:inline;fill:#ffffff;fill-opacity:1" id="g4234" transform="matrix(0.99960695,0,0,0.99997077,-14.979168,-756.97744)">
   <path style="color:#bebebe;font-style:normal;font-variant:normal;font-weight:normal;font-stretch:normal;font-size:medium;line-height:normal;font-family:'Andale Mono';-inkscape-font-specification:'Andale Mono';text-indent:0;text-align:start;text-decoration:none;text-decoration-line:none;letter-spacing:normal;word-spacing:normal;text-transform:none;writing-mode:lr-tb;direction:ltr;text-anchor:start;display:inline;overflow:visible;visibility:visible;fill:#dfdfdf;fill-opacity:1;fill-rule:nonzero;stroke:none;stroke-width:1.78124988;marker:none;enable-background:new" id="path4236" d="m 45,764 h 1 c 0.01037,-1.2e-4 0.02079,-4.6e-4 0.03125,0 0.254951,0.0112 0.50987,0.12858 0.6875,0.3125 L 49,766.59375 51.3125,764.3125 C 51.578125,764.082 51.759172,764.007 52,764 h 1 v 1 c 0,0.28647 -0.03434,0.55065 -0.25,0.75 l -2.28125,2.28125 2.25,2.25 C 52.906938,770.46942 52.999992,770.7347 53,771 v 1 h -1 c -0.265301,-10e-6 -0.530586,-0.0931 -0.71875,-0.28125 L 49,769.4375 46.71875,771.71875 C 46.530586,771.90694 46.26529,772 46,772 h -1 v -1 c -3e-6,-0.26529 0.09306,-0.53058 0.28125,-0.71875 l 2.28125,-2.25 L 45.28125,765.75 C 45.070508,765.55537 44.97809,765.28075 45,765 Z"/>
  </g>
 </g>
</svg>
