<svg xmlns="http://www.w3.org/2000/svg" id="svg4306" style="enable-background:new" width="22" height="22" version="1.1">
 <g id="active-center">
  <rect id="rect4175" style="opacity:0.001" width="22" height="22" x="0" y="0"/>
  <path id="path10839-9" style="opacity:1;fill:#dfdfdf" d="m 7.0031447,7.0002283 h 0.999607 c 0.010366,-1.2e-4 0.020782,-4.6e-4 0.031238,0 0.2548508,0.0112 0.5096696,0.1285762 0.6872298,0.3124908 l 2.2803535,2.2811834 2.311591,-2.2811834 c 0.26552,-0.2304932 0.446496,-0.305491 0.687229,-0.3124908 H 15 V 8.000199 c 0,0.2864617 -0.03433,0.550634 -0.249901,0.7499781 l -2.280354,2.2811829 2.249116,2.249935 C 14.906975,13.469459 14.999992,13.734731 15,14.000024 v 0.99997 h -0.999607 c -0.265196,-10e-6 -0.530377,-0.0931 -0.718467,-0.281241 l -2.280353,-2.281184 -2.2803538,2.281184 c -0.18809,0.188184 -0.4532818,0.281241 -0.7184675,0.281241 h -0.999607 v -0.99997 c -2.9e-6,-0.265283 0.093024,-0.530565 0.2811395,-0.718729 L 9.5646376,11.03136 7.2842842,8.7501771 C 7.073625,8.5555528 6.9812434,8.2809408 7.0031447,8.000199 Z"/>
 </g>
 <g id="pressed-center">
  <rect id="rect4211" style="opacity:0.001" width="22" height="22" x="46" y="0"/>
  <circle id="circle4215" style="opacity:0.19;fill:#ffffff" cx="57" cy="11" r="11"/>
  <path id="path4221" style="opacity:1;fill:#dfdfdf" d="m 53.003145,7.0002283 h 0.999607 c 0.01037,-1.2e-4 0.02078,-4.6e-4 0.03124,0 0.25485,0.0112 0.509669,0.1285762 0.687229,0.3124908 l 2.280354,2.2811834 2.311591,-2.2811834 c 0.26552,-0.2304932 0.446496,-0.305491 0.68723,-0.3124908 H 61 V 8.000199 c 0,0.2864617 -0.03433,0.550634 -0.249901,0.7499781 l -2.280354,2.2811829 2.249116,2.249935 C 60.906975,13.469459 60.999992,13.734731 61,14.000024 v 0.99997 h -0.999606 c -0.265197,-10e-6 -0.530378,-0.0931 -0.718468,-0.281241 l -2.280353,-2.281184 -2.280354,2.281184 c -0.18809,0.188184 -0.453281,0.281241 -0.718467,0.281241 h -0.999607 v -0.99997 c -3e-6,-0.265283 0.09302,-0.530565 0.281139,-0.718729 L 55.564638,11.03136 53.284284,8.7501771 C 53.073625,8.5555528 52.981243,8.2809408 53.003145,8.000199 Z"/>
 </g>
 <g id="inactive-center">
  <rect id="rect4225" style="opacity:0.001" width="22" height="22" x="69" y="0"/>
  <path id="path4231" style="opacity:0.5;fill:#dfdfdf" d="m 76.003145,7.0002283 h 0.999607 c 0.01037,-1.2e-4 0.02078,-4.6e-4 0.03124,0 0.254851,0.0112 0.50967,0.1285762 0.68723,0.3124908 l 2.280354,2.2811834 2.311591,-2.2811834 c 0.26552,-0.2304932 0.446496,-0.305491 0.687229,-0.3124908 H 84 V 8.000199 c 0,0.2864617 -0.03433,0.550634 -0.249901,0.7499781 l -2.280354,2.2811829 2.249116,2.249935 C 83.906975,13.469459 83.999992,13.734731 84,14.000024 v 0.99997 h -0.999607 c -0.265196,-10e-6 -0.530377,-0.0931 -0.718467,-0.281241 l -2.280353,-2.281184 -2.280354,2.281184 c -0.18809,0.188184 -0.453282,0.281241 -0.718467,0.281241 h -0.999607 v -0.99997 c -3e-6,-0.265283 0.09302,-0.530565 0.281139,-0.718729 L 78.564638,11.03136 76.284284,8.7501771 C 76.073625,8.5555528 75.981243,8.2809408 76.003145,8.000199 Z"/>
 </g>
 <g id="deactivated-center">
  <rect id="rect4235" style="opacity:0.001" width="22" height="22" x="92" y="0"/>
  <path id="path4241" style="opacity:0.5;fill:#dfdfdf" d="m 99.003145,7.0002283 h 0.999605 c 0.0104,-1.2e-4 0.0208,-4.6e-4 0.0312,0 0.25485,0.0112 0.50967,0.1285762 0.68723,0.3124908 l 2.28035,2.2811834 2.31159,-2.2811834 c 0.26552,-0.2304932 0.4465,-0.305491 0.68723,-0.3124908 H 107 V 8.000199 c 0,0.2864617 -0.0343,0.550634 -0.2499,0.7499781 l -2.28035,2.2811829 2.24911,2.249935 c 0.18811,0.188164 0.28113,0.453436 0.28114,0.718729 v 0.99997 h -0.99961 c -0.26519,-10e-6 -0.53037,-0.0931 -0.71846,-0.281241 l -2.28036,-2.281184 -2.28035,2.281184 c -0.18809,0.188184 -0.45328,0.281241 -0.71847,0.281241 h -0.999605 v -0.99997 c -3e-6,-0.265283 0.09302,-0.530565 0.281139,-0.718729 L 101.56464,11.03136 99.284284,8.7501771 C 99.073625,8.5555528 98.981243,8.2809408 99.003145,8.000199 Z"/>
 </g>
 <g id="hover-center">
  <rect id="rect4224" style="opacity:0.001" width="22" height="22" x="23" y="0"/>
  <circle id="circle4230" style="opacity:0.08;fill:#ffffff" cx="34" cy="11" r="11"/>
  <path id="path4236" style="opacity:1;fill:#dfdfdf" d="m 30.003145,7.0002283 h 0.999607 c 0.01037,-1.2e-4 0.02078,-4.6e-4 0.03124,0 0.254851,0.0112 0.50967,0.1285762 0.68723,0.3124908 l 2.280354,2.2811834 2.311591,-2.2811834 c 0.26552,-0.2304932 0.446496,-0.305491 0.687229,-0.3124908 H 38 V 8.000199 c 0,0.2864617 -0.03433,0.550634 -0.249901,0.7499781 l -2.280354,2.2811829 2.249116,2.249935 C 37.906975,13.469459 37.999992,13.734731 38,14.000024 v 0.99997 h -0.999607 c -0.265196,-10e-6 -0.530377,-0.0931 -0.718467,-0.281241 l -2.280353,-2.281184 -2.280354,2.281184 c -0.18809,0.188184 -0.453282,0.281241 -0.718467,0.281241 h -0.999607 v -0.99997 c -3e-6,-0.265283 0.09302,-0.530565 0.281139,-0.718729 L 32.564638,11.03136 30.284284,8.7501771 C 30.073625,8.5555528 29.981243,8.2809408 30.003145,8.000199 Z"/>
 </g>
</svg>
