<svg xmlns="http://www.w3.org/2000/svg" width="24" height="24" version="1.1">
 <g id="active-center" transform="scale(1.0909091)">
  <rect style="opacity:0.001" width="22" height="22" x="0" y="0"/>
  <path style="fill:#dfdfdf" transform="scale(0.91666666)" d="m 12,8 c -1.270521,9.552e-4 -2.5764932,0.8021407 -3,2 h 3 c 0.552285,0 1,0.447715 1,1 0,0.552285 -0.447715,1 -1,1 h -1 v 2 h 1 c 1.656854,0 3,-1.343146 3,-3 0,-1.6568542 -1.343146,-3 -3,-3 z m -1,7 v 1 h 2 v -1 z"/>
 </g>
 <g id="pressed-center">
  <path style="fill:#dfdfdf" d="m 60,8 c -1.270521,9.55e-4 -2.576493,0.802141 -3,2 h 3 c 0.552285,0 1,0.447715 1,1 0,0.552285 -0.447715,1 -1,1 h -1 v 2 h 1 c 1.656854,0 3,-1.343146 3,-3 0,-1.656854 -1.343146,-3 -3,-3 z m -1,7 v 1 h 2 v -1 z"/>
  <rect style="opacity:0.001" width="24" height="24" x="48" y="0"/>
  <circle style="opacity:0.19;fill:#ffffff" cx="60" cy="12" r="12"/>
 </g>
 <g id="hover-center">
  <rect style="opacity:0.001" width="24" height="24" x="24" y="0"/>
  <circle style="opacity:0.08;fill:#ffffff" cx="36" cy="12" r="12"/>
  <path style="fill:#dfdfdf" d="m 36,7.9999997 c -1.270521,9.551e-4 -2.576493,0.8021411 -3,2.0000001 h 3 c 0.552285,0 1,0.4477152 1,1.0000002 0,0.552285 -0.447715,1 -1,1 h -1 v 2 h 1 c 1.656854,0 3,-1.343146 3,-3 C 39,9.3431458 37.656854,7.9999998 36,7.9999997 Z M 35,15 v 1 h 2 v -1 z"/>
 </g>
 <g id="deactivated-center">
  <rect style="opacity:0.001" width="24" height="24" x="96" y="0"/>
  <path style="opacity:0.5;fill:#dfdfdf" d="m 108,7.9999998 c -1.27053,9.55e-4 -2.5765,0.802141 -3,2 h 3 c 0.55228,0 1,0.4477152 1,1.0000002 0,0.552285 -0.44772,1 -1,1 h -1 v 2 h 1 c 1.65685,0 3,-1.343146 3,-3 0,-1.6568542 -1.34315,-3.0000002 -3,-3.0000002 z M 107,15 v 1 h 2 v -1 z"/>
 </g>
 <g id="inactive-center">
  <rect style="opacity:0.001" width="24" height="24" x="72" y="0"/>
  <path style="opacity:0.5;fill:#dfdfdf" d="m 84,7.9999997 c -1.270521,9.551e-4 -2.576493,0.8021411 -3,2.0000001 h 3 c 0.552285,0 1,0.4477152 1,1.0000002 0,0.552285 -0.447715,1 -1,1 h -1 v 2 h 1 c 1.656854,0 3,-1.343146 3,-3 C 87,9.3431458 85.656854,7.9999998 84,7.9999997 Z M 83,15 v 1 h 2 v -1 z"/>
 </g>
</svg>
