<svg xmlns="http://www.w3.org/2000/svg" width="32" height="32" version="1.1">
<rect width="32" height="32" x="0" y="0" style="opacity:0.001"/>
<circle cx="16" cy="17" r="14" style="opacity:0.1"/>
<circle style="fill:#3d3d3d" cx="16" cy="16" r="14"/>
<path style="fill:#4285f4" d="M 8.0000001,10 V 21 H 24 Z"/>
<path style="fill:#7baaf7" d="M 24,10 V 21 H 8.0000001 Z"/>
<path d="M 16,2 A 14,14 0 0 0 2,16 14,14 0 0 0 2.0214844,16.585938 14,14 0 0 1 16,3 14,14 0 0 1 29.978516,16.414062 14,14 0 0 0 30,16 14,14 0 0 0 16,2 Z" style="opacity:0.1;fill:#ffffff"/>
</svg>
