<svg xmlns="http://www.w3.org/2000/svg" id="svg88" width="32" height="32" version="1.1">
 <g id="g938">
  <rect style="opacity:0.00100002" id="rect7" width="32" height="32" x="0" y="0"/>
  <rect style="opacity:0.2" id="rect9" width="6" height="22" x="24" y="3" rx="3" ry="3"/>
  <rect style="fill:#0f7269" id="rect11" width="6" height="22" x="24" y="2" rx="3" ry="3"/>
  <rect style="opacity:0.2" id="rect13" width="6" height="28" x="2" y="3" rx="3" ry="3"/>
  <rect style="fill:#0f7269" id="rect15" width="6" height="28" x="2" y="2" rx="3" ry="3"/>
  <path style="opacity:0.2" id="path17" d="m 4.9948231,3.0063467 v 0 a 2.9926825,2.9919225 0 0 0 -1.9731478,5.2433 L 13.993159,18.222747 a 2.9926825,2.9919225 0 0 0 4.02444,0 L 28.991036,8.2496467 a 2.9926825,2.9919225 0 0 0 -1.928215,-5.2316 2.9926825,2.9919225 0 0 0 -0.06251,0 v -0.018 z"/>
  <path style="fill:#009688" id="path19" d="m 4.9948231,2.0063 v 0 A 2.9926825,2.9919225 0 0 0 3.0216753,7.2496 l 10.9714837,9.9731 a 2.9926825,2.9919225 0 0 0 4.02444,0 L 28.991036,7.2496 a 2.9926825,2.9919225 0 0 0 -1.928215,-5.2316 2.9926825,2.9919225 0 0 0 -0.06251,0 V 2 Z"/>
  <rect style="opacity:0.2" id="rect21" width="1" height="3" x="29.5" y="-20" rx=".5" ry=".5" transform="rotate(90)"/>
  <path style="opacity:0.2" id="path23" d="m 21.463795,26.4581 c 0.239889,-0.1385 0.331138,-0.4125 0.469618,-0.1727 l 0.650235,1.1263 1.349765,2.3378 c 0.1385,0.2399 0.05688,0.5445 -0.183013,0.683 -0.239889,0.1385 -0.544513,0.057 -0.683013,-0.183 l -1.44233,-2.4982 -0.202052,-0.8236 c -0.06596,-0.2691 -0.199232,-0.3311 0.04077,-0.4697 z"/>
  <path style="opacity:0.2" id="path25" d="m 21.5,26.5 c 0.277,0 0.5,0.223 0.5,0.5 v 3 c 0,0.277 -0.223,0.5 -0.5,0.5 C 21.223,30.5 21,30.277 21,30 v -3 c 0,-0.277 0.223,-0.5 0.5,-0.5 z"/>
  <rect style="opacity:0.2" id="rect27" width="1" height="5" x="14" y="25.5" rx=".5" ry=".5"/>
  <path style="opacity:0.2" id="path29" d="m 27.5,26.5 c 0.277,0 0.5,0.223 0.5,0.5 v 3 c 0,0.277 -0.223,0.5 -0.5,0.5 C 27.223,30.5 27,30.277 27,30 v -3 c 0,-0.277 0.223,-0.5 0.5,-0.5 z"/>
  <path style="opacity:0.2" id="path31" d="m 29.5,26.5 c 0.277,0 0.5,0.223 0.5,0.5 v 3 c 0,0.277 -0.223,0.5 -0.5,0.5 C 29.223,30.5 29,30.277 29,30 v -3 c 0,-0.277 0.223,-0.5 0.5,-0.5 z"/>
  <rect style="opacity:0.2" id="rect33" width="1" height="3" x="25" y="27.5" rx=".5" ry=".5"/>
  <path style="opacity:0.2" id="path35" d="m 9.4999999,26.5 c 0.277,0 0.5,0.223 0.5,0.5 v 3 c 0,0.277 -0.223,0.5 -0.5,0.5 -0.277,0 -0.5,-0.223 -0.5,-0.5 v -3 c 0,-0.277 0.223,-0.5 0.5,-0.5 z"/>
  <path style="opacity:0.2" id="path37" d="m 11.5,26.5 c 0.277,0 0.5,0.223 0.5,0.5 v 3 c 0,0.277 -0.223,0.5 -0.5,0.5 C 11.223,30.5 11,30.277 11,30 v -3 c 0,-0.277 0.223,-0.5 0.5,-0.5 z"/>
  <path style="fill:#e03939" id="path39" d="m 21.463795,25.9581 c 0.239889,-0.1385 0.331138,-0.4125 0.469618,-0.1727 l 0.650235,1.1263 1.349765,2.3378 c 0.1385,0.2399 0.05688,0.5445 -0.183013,0.683 -0.239889,0.1385 -0.544513,0.057 -0.683013,-0.183 l -1.44233,-2.4982 -0.202052,-0.8236 c -0.06596,-0.2691 -0.199232,-0.3311 0.04077,-0.4697 z"/>
  <path style="fill:#e03939" id="path41" d="m 21.5,26 c 0.277,0 0.5,0.223 0.5,0.5 v 3 C 22,29.777 21.777,30 21.5,30 21.223,30 21,29.777 21,29.5 v -3 C 21,26.223 21.223,26 21.5,26 Z"/>
  <rect style="fill:#e03939" id="rect43" width="1" height="5" x="17" y="25" rx=".5" ry=".5"/>
  <rect style="opacity:0.2" id="rect45" width="1" height="3" x="25.5" y="-20" rx=".5" ry=".5" transform="rotate(90)"/>
  <rect style="fill:#e03939" id="rect47" width="1" height="5" x="14" y="25" rx=".5" ry=".5"/>
  <path style="fill:#e03939" id="path49" d="m 27.5,26 c 0.277,0 0.5,0.223 0.5,0.5 v 3 C 28,29.777 27.777,30 27.5,30 27.223,30 27,29.777 27,29.5 v -3 C 27,26.223 27.223,26 27.5,26 Z"/>
  <path style="fill:#e03939" id="path51" d="m 29.5,26 c 0.277,0 0.5,0.223 0.5,0.5 v 3 C 30,29.777 29.777,30 29.5,30 29.223,30 29,29.777 29,29.5 v -3 C 29,26.223 29.223,26 29.5,26 Z"/>
  <rect style="opacity:0.2" id="rect53" width="1" height="3" x="25.5" y="-16" rx=".5" ry=".5" transform="rotate(90)"/>
  <rect style="fill:#ff5252" id="rect55" width="1" height="3" x="25" y="-16" rx=".5" ry=".5" transform="rotate(90)"/>
  <rect style="fill:#ff5252" id="rect57" width="1" height="3" x="25" y="-20" rx=".5" ry=".5" transform="rotate(90)"/>
  <rect style="opacity:0.2" id="rect59" width="1" height="3" x="27.5" y="-20" rx=".5" ry=".5" transform="rotate(90)"/>
  <rect style="fill:#ff5252" id="rect61" width="1" height="3" x="27" y="-20" rx=".5" ry=".5" transform="rotate(90)"/>
  <rect style="fill:#ff5252" id="rect63" width="1" height="3" x="29" y="-20" rx=".5" ry=".5" transform="rotate(90)"/>
  <path style="opacity:0.2" id="path65" d="m 24,26.9999 a 1.5,1.5 0 0 1 -1.5,1.5 1.5,1.5 0 0 1 -1.5,-1.5 1.5,1.5 0 0 1 1.5,-1.5 1.5,1.5 0 0 1 1.5,1.5 z"/>
  <path style="fill:#ff5252" id="path67" d="M 24,26.5 A 1.5,1.5 0 0 1 22.5,28 1.5,1.5 0 0 1 21,26.5 1.5,1.5 0 0 1 22.5,25 1.5,1.5 0 0 1 24,26.5 Z"/>
  <rect style="fill:#e03939" id="rect69" width="1" height="3" x="25" y="27" rx=".5" ry=".5"/>
  <circle style="opacity:0.2" id="circle71" cx="25.5" cy="26" r=".5"/>
  <circle style="fill:#ff5252" id="circle73" cx="25.5" cy="25.5" r=".5"/>
  <path style="opacity:0.2" id="path75" d="m 30,26.9999 a 1.5,1.5 0 0 1 -1.5,1.5 1.5,1.5 0 0 1 -1.5,-1.5 1.5,1.5 0 0 1 1.5,-1.5 1.5,1.5 0 0 1 1.5,1.5 z"/>
  <path style="fill:#ff5252" id="path77" d="M 30,26.5 A 1.5,1.5 0 0 1 28.5,28 1.5,1.5 0 0 1 27,26.5 1.5,1.5 0 0 1 28.5,25 1.5,1.5 0 0 1 30,26.5 Z"/>
  <path style="fill:#e03939" id="path79" d="m 9.4999999,26 c 0.277,0 0.5,0.223 0.5,0.5 v 3 c 0,0.277 -0.223,0.5 -0.5,0.5 -0.277,0 -0.5,-0.223 -0.5,-0.5 v -3 c 0,-0.277 0.223,-0.5 0.5,-0.5 z"/>
  <path style="fill:#e03939" id="path81" d="m 11.5,26 c 0.277,0 0.5,0.223 0.5,0.5 v 3 C 12,29.777 11.777,30 11.5,30 11.223,30 11,29.777 11,29.5 v -3 C 11,26.223 11.223,26 11.5,26 Z"/>
  <path style="opacity:0.2" id="path83" d="m 12,26.9999 a 1.5,1.5 0 0 1 -1.5,1.5 1.5,1.5 0 0 1 -1.5000001,-1.5 1.5,1.5 0 0 1 1.5000001,-1.5 1.5,1.5 0 0 1 1.5,1.5 z"/>
  <path style="fill:#ff5252" id="path85" d="M 12,26.5 A 1.5,1.5 0 0 1 10.5,28 1.5,1.5 0 0 1 8.9999999,26.5 1.5,1.5 0 0 1 10.5,25 1.5,1.5 0 0 1 12,26.5 Z"/>
 </g>
</svg>
