<svg xmlns="http://www.w3.org/2000/svg" width="24" height="24" version="1.1">
 <g id="active-center" transform="scale(1.0909091)">
  <rect style="opacity:0.001" width="22" height="22" x="0" y="0"/>
  <circle style="fill:#676767" cx="11" cy="11" r="3.667"/>
 </g>
 <g id="hover-center" transform="matrix(1.0909091,0,0,1.0909091,-1.0909092,0)">
  <g transform="translate(23)">
   <rect style="opacity:0.001" width="22" height="22" x="0" y="0"/>
  </g>
  <circle style="opacity:0.07;fill:#000000" cx="34" cy="11" r="11"/>
  <circle style="fill:#676767" cx="34" cy="11" r="3.667"/>
 </g>
 <g id="pressed-center" transform="matrix(1.0909091,0,0,1.0909091,-2.1818183,0)">
  <g transform="translate(46)">
   <rect style="opacity:0.001" width="22" height="22" x="0" y="0"/>
  </g>
  <circle style="opacity:0.16;fill:#000000" cx="57" cy="11" r="11"/>
  <circle style="fill:#676767" cx="57" cy="11" r="3.667"/>
 </g>
 <g id="inactive-center" transform="matrix(1.0909091,0,0,1.0909091,-3.2727274,0)">
  <rect style="opacity:0.001" width="22" height="22" x="69" y="0"/>
  <circle style="opacity:0.7;fill:#676767" cx="80" cy="11" r="3.667"/>
 </g>
 <g id="deactivated-center" transform="matrix(1.0909091,0,0,1.0909091,-4.3636365,0)">
  <rect style="opacity:0.001" width="22" height="22" x="92" y="0"/>
  <circle style="opacity:0.7;fill:#676767" cx="103" cy="11" r="3.667"/>
 </g>
</svg>
