<svg xmlns="http://www.w3.org/2000/svg" xmlns:xlink="http://www.w3.org/1999/xlink" width="228" height="84" version="1">
 <defs id="defs83">
  <linearGradient id="linearGradient897">
   <stop style="stop-color:#000000;stop-opacity:0.3" offset="0"/>
   <stop style="stop-color:#000000;stop-opacity:0" offset="1"/>
  </linearGradient>
  <radialGradient id="radialGradient4263" cx="984" cy="905.362" r="8.5" fx="984" fy="905.362" gradientTransform="matrix(-1.6470739,6.32735e-6,-6.3275674e-6,-1.6471305,1781.7266,1558.2425)" gradientUnits="userSpaceOnUse" xlink:href="#linearGradient897"/>
  <radialGradient id="radialGradient4255" cx="982.909" cy="906.453" r="8.5" fx="982.909" fy="906.453" gradientTransform="matrix(1.647078,2.4032858e-6,-2.4030549e-6,1.6469198,-1407.9257,-1475.859)" gradientUnits="userSpaceOnUse" xlink:href="#linearGradient897"/>
  <linearGradient id="linearGradient4259" x1="83.6" x2="83.6" y1="-969.362" y2="-955.363" gradientTransform="matrix(0.71428571,0,0,1,-317.71429,1250.3622)" gradientUnits="userSpaceOnUse" xlink:href="#linearGradient897"/>
  <linearGradient id="linearGradient4452" x1="-260" x2="-260" y1="281" y2="295" gradientUnits="userSpaceOnUse" xlink:href="#linearGradient897"/>
  <radialGradient id="radialGradient3382" cx="984" cy="905.362" r="8.5" fx="984" fy="905.362" gradientTransform="matrix(-7.5420783e-6,1.6471876,-1.6470405,-7.5414048e-6,1702.1755,-1553.8269)" gradientUnits="userSpaceOnUse" xlink:href="#linearGradient897"/>
  <radialGradient id="radialGradient4275" cx="984" cy="905.362" r="8.5" fx="984" fy="905.362" gradientTransform="matrix(0,-1.64694,1.6470408,0,-1330.1683,1637.5879)" gradientUnits="userSpaceOnUse" xlink:href="#linearGradient897"/>
  <linearGradient id="linearGradient4315" x1="83.6" x2="83.6" y1="-969.362" y2="-955.362" gradientTransform="matrix(0.71428571,0,0,1,-317.71429,1250.3622)" gradientUnits="userSpaceOnUse" xlink:href="#linearGradient897"/>
  <linearGradient id="linearGradient4317" x1="83.6" x2="83.6" y1="-969.362" y2="-955.361" gradientTransform="matrix(0.71428571,0,0,1,-317.71429,1250.3622)" gradientUnits="userSpaceOnUse" xlink:href="#linearGradient897"/>
 </defs>
 <rect id="center" style="fill:#1e1e1e" width="50" height="50" x="7" y="27"/>
 <g id="topleft" transform="translate(-183,-231.99995)">
  <path style="fill:#1e1e1e" d="m 190.00001,251.99982 v 7 h -7 v -2 c 0,-2.77 2.23,-5 5,-5 z"/>
 </g>
 <g id="left" transform="translate(-183,-231.99995)">
  <path style="fill:#1e1e1e" d="m 183.00002,258.99981 v 50 l 7,10e-6 v -50 z"/>
 </g>
 <g id="right" transform="translate(-183,-231.99995)">
  <path style="fill:#1e1e1e" d="m 247,258.99982 v 50 l -7,10e-6 v -50 z"/>
 </g>
 <g id="bottomleft" transform="translate(-183,-231.99995)">
  <path style="fill:#1e1e1e" d="m 190.00001,315.99991 v -7 h -7 v 2 c 0,2.77 2.23,5 5,5 z"/>
 </g>
 <g id="bottom" transform="translate(-183,-231.99995)">
  <path style="fill:#1e1e1e" d="M 189.99998,315.99995 H 240 v -7 h -50.00001 z"/>
 </g>
 <g id="bottomright" transform="translate(-183,-231.99995)">
  <path style="fill:#1e1e1e" d="m 240,315.99991 v -7 h 7 v 2 c 0,2.77 -2.23,5 -5,5 z"/>
 </g>
 <g id="topright" transform="translate(-183,-231.99995)">
  <path style="fill:#1e1e1e" d="m 240,251.99982 v 7 h 7 v -2 c 0,-2.77 -2.23,-5 -5,-5 z"/>
 </g>
 <g id="top" transform="translate(-183,-231.99995)">
  <path style="fill:#1e1e1e" d="M 189.99998,251.99982 H 240 v 7 h -50.00001 z"/>
 </g>
 <rect id="hint-top-margin" style="fill:#ff00ff" width="4" height="7" x="29" y="27"/>
 <rect id="hint-bottom-margin" style="fill:#ff00ff" width="4" height="7" x="29" y="70"/>
 <rect id="hint-left-margin" style="fill:#ff00ff" width="7" height="4" x="7" y="49"/>
 <rect id="hint-right-margin" style="fill:#ff00ff" width="7" height="4" x="50" y="49"/>
 <rect id="hint-tile-center" style="fill:#ff00ff" width="5" height="5" x="0" y="2"/>
 <path id="shadow-topleft" style="fill:url(#radialGradient4275);fill-opacity:1" d="m 144.00001,16.998965 h 10 v -2 c 0,-2.77 2.23,-5.0000004 5,-5.0000004 h 2 v -9.99999996 h -17 z"/>
 <g id="shadow-left" transform="matrix(-1,0,0,1,442.00001,-240.00103)">
  <rect style="fill:url(#linearGradient4315);fill-opacity:1" width="50" height="10" x="-307" y="288" transform="rotate(-90)"/>
  <rect style="opacity:0" width="7" height="1" x="278" y="257" transform="translate(3,2)"/>
 </g>
 <path id="shadow-bottomright" style="fill:url(#radialGradient3382);fill-opacity:1" d="m 228.00001,66.998965 h -10 v 2 c 0,2.77 -2.23,5 -5,5 h -2 v 10 h 17 z"/>
 <g id="shadow-bottom" transform="rotate(90,341.00052,126.9995)">
  <rect style="fill:url(#linearGradient4317);fill-opacity:1" width="50" height="10" x="-307" y="288" transform="rotate(-90)"/>
  <rect style="opacity:0" width="7" height="1" x="278" y="257" transform="translate(3,2)"/>
 </g>
 <g id="shadow-right" transform="translate(-69.999994,-240.00103)">
  <rect style="fill:url(#linearGradient4452);fill-opacity:1" width="50" height="10" x="-307" y="288" transform="rotate(-90)"/>
  <rect style="opacity:0" width="7" height="1" x="278" y="257" transform="translate(3,2)"/>
 </g>
 <g id="shadow-top" transform="matrix(0,-1,-1,0,468.00001,297.99896)">
  <rect style="fill:url(#linearGradient4259);fill-opacity:1" width="50" height="10" x="-307" y="288" transform="rotate(-90)"/>
  <rect style="opacity:0" width="7" height="1" x="278" y="257" transform="translate(3,2)"/>
 </g>
 <path id="shadow-topright" style="fill:url(#radialGradient4255);fill-opacity:1" d="M 211.00001,-0.00103536 V 9.9989646 h 2 c 2.77,0 5,2.2300004 5,5.0000004 v 2 h 10 V -0.00103536 Z"/>
 <path id="shadow-bottomleft" style="fill:url(#radialGradient4263)" d="m 161.00001,83.998965 v -10 h -2 c -2.77,0 -5,-2.23 -5,-5 v -2 h -10 v 17 z"/>
 <rect id="shadow-hint-right-margin" style="fill:#ff00ff" width="10" height="4" x="218" y="40"/>
 <rect id="shadow-hint-bottom-margin" style="fill:#ff00ff" width="4" height="10" x="184" y="74"/>
 <rect id="shadow-hint-left-margin" style="fill:#ff00ff" width="10" height="4" x="144" y="40"/>
 <rect id="shadow-hint-top-margin" style="fill:#ff00ff" width="4" height="10" x="185" y="0"/>
 <rect id="mask-center" style="fill:#000000" width="50" height="50" x="79" y="20"/>
 <path id="mask-topleft" style="fill:#000000" d="M 79,6 V 19.99998 H 65 V 15.999986 C 65,10.459994 69.459994,6 74.999986,6 Z"/>
 <path id="mask-left" style="fill:#000000" d="m 65,19.99998 v 50 l 14,1e-5 v -50 z"/>
 <path id="mask-right" style="fill:#000000" d="m 143.00001,20 v 50 l -14,1e-5 v -50 z"/>
 <path id="mask-bottomleft" style="fill:#000000" d="M 79.000008,83.99998 V 70 h -14 v 3.999994 c 0,5.539992 4.459994,9.999986 9.999986,9.999986 z"/>
 <path id="mask-bottom" style="fill:#000000" d="M 78.999998,84 H 129.00001 V 70 H 79.000008 Z"/>
 <path id="mask-bottomright" style="fill:#000000" d="M 129.00001,84 V 70 h 14 v 4 c 0,5.54 -4.46,10 -10,10 z"/>
 <path id="mask-topright" style="fill:#000000" d="m 129.00001,6 v 14 h 14 v -4 c 0,-5.54 -4.46,-10 -10,-10 z"/>
 <path id="mask-top" style="fill:#000000" d="m 79,6 h 50.00001 v 14 h -50 z"/>
 <rect id="shadow-center" style="fill:none" width="50" height="50" x="161" y="17.06"/>
</svg>
