<svg xmlns="http://www.w3.org/2000/svg" id="svg" width="22" height="22" version="1.1" viewBox="0 0 22 22">
 <g id="accessories-dictionary" transform="translate(17,-5)">
  <rect style="opacity:0.00100002" id="rect2" width="22" height="22" x="5" y="5"/>
  <g id="g8" transform="translate(8,-9)">
   <path style="opacity:0.3;fill:#dfdfdf" id="path4" d="m 0.94,30.75 v -2.19 l 4.22,-1.13 2.34,0.6 2.39,-0.67 3.74,1 v 2.45 z"/>
   <path style="fill:#dfdfdf" id="path6" d="m 10.03,17.15 c -0.15,0 -0.3,0.01 -0.46,0.03 C 9,17.26 8.32,17.53 7.55,17.94 6.01,17.09 4.81,17.04 3.81,17.3 2.74,17.57 1.87,18.02 0.52,17.98 L 0,17.96 V 32 H 15 V 17.98 L 14.48,18 c -1.51,0.05 -2.27,-0.39 -3.25,-0.68 -0.36,-0.11 -0.76,-0.18 -1.2,-0.17 z m -5.29,0.99 c 0.62,-0.07 1.3,0.08 2.26,0.6 v 8.64 C 5.9,26.75 4.79,26.7 3.82,26.94 3.16,27.1 2.57,27.28 2,27.43 v -8.64 c 0.8,-0.14 1.47,-0.37 2.05,-0.52 0.24,-0.06 0.46,-0.11 0.69,-0.13 z m 5.6,0 c 0.2,0.02 0.4,0.07 0.61,0.14 0.53,0.15 1.19,0.4 2.05,0.55 v 8.6 C 12.43,27.28 11.84,27.09 11.19,26.93 10.21,26.69 9.1,26.75 8,27.41 V 18.8 c 0.7,-0.38 1.25,-0.59 1.68,-0.66 0.24,-0.03 0.45,-0.03 0.66,0 z M 9.8,27.75 c 0.37,-0.01 0.75,0.05 1.15,0.15 0.64,0.16 1.32,0.43 2.05,0.63 V 30 H 2 v -1.46 c 0.72,-0.2 1.41,-0.47 2.05,-0.63 1.08,-0.27 2,-0.3 3.15,0.74 l 0.34,0.3 0.33,-0.31 C 8.57,28 9.18,27.77 9.8,27.75 Z"/>
  </g>
 </g>
 <g id="accessories-calculator" transform="translate(-32,-10)">
  <rect style="opacity:0.00100002" id="rect53" width="22" height="22" x="32" y="10"/>
  <path style="fill:#dfdfdf" id="path55" d="m 38,13 c 0,0 -2,0 -2,2 v 11 c 0,0 0,2 2,2 h 11 c 0,0 2,0 2,-2 V 15 c 0,-2 -2,-2 -2,-2 z m 0,2 H 38.84 43 v 5 H 38 V 16.41 16 Z m 6,0 h 5 v 5 h -5 z m 1.44,1 c -0.34,0.08 -0.54,0.58 -0.28,0.84 l 0.65,0.66 -0.65,0.66 c -0.26,0.15 -0.31,0.56 -0.1,0.78 0.22,0.21 0.63,0.16 0.78,-0.1 l 0.66,-0.65 0.66,0.65 c 0.15,0.26 0.56,0.31 0.78,0.1 0.21,-0.22 0.16,-0.63 -0.1,-0.78 l -0.65,-0.66 0.65,-0.66 c 0.26,-0.23 0.15,-0.73 -0.18,-0.84 -0.02,0 -0.05,0 -0.07,0 -0.16,-0.02 -0.32,0.04 -0.43,0.16 L 46.5,16.81 45.84,16.16 C 45.78,16.08 45.69,16.03 45.59,16 45.54,15.99 45.49,15.99 45.44,16 Z M 39,17 v 1 h 1 1 1 v -1 h -1 -1 z m -1,4 h 5 v 5 H 38.84 38 v -1 z m 6,0 h 5 v 4 1 h -5 z m -4,1 v 1 h -1 v 1 h 1 v 1 h 1 v -1 h 1 v -1 h -1 v -1 z m 5,0 v 1 h 3 v -1 z m 0,2 v 1 h 3 v -1 z"/>
 </g>
</svg>
