<?xml version="1.0" encoding="UTF-8" standalone="no"?>
<svg
   xmlns:dc="http://purl.org/dc/elements/1.1/"
   xmlns:cc="http://creativecommons.org/ns#"
   xmlns:rdf="http://www.w3.org/1999/02/22-rdf-syntax-ns#"
   xmlns:svg="http://www.w3.org/2000/svg"
   xmlns="http://www.w3.org/2000/svg"
   xmlns:sodipodi="http://sodipodi.sourceforge.net/DTD/sodipodi-0.dtd"
   xmlns:inkscape="http://www.inkscape.org/namespaces/inkscape"
   id="22-22-svg30"
   width="32"
   height="32"
   version="1.1"
   sodipodi:docname="apport.svg"
   inkscape:version="0.92.3 (2405546, 2018-03-11)">
  <metadata
     id="metadata10">
    <rdf:RDF>
      <cc:Work
         rdf:about="">
        <dc:format>image/svg+xml</dc:format>
        <dc:type
           rdf:resource="http://purl.org/dc/dcmitype/StillImage" />
        <dc:title></dc:title>
      </cc:Work>
    </rdf:RDF>
  </metadata>
  <defs
     id="defs8" />
  <sodipodi:namedview
     pagecolor="#ffffff"
     bordercolor="#666666"
     borderopacity="1"
     objecttolerance="10"
     gridtolerance="10"
     guidetolerance="10"
     inkscape:pageopacity="0"
     inkscape:pageshadow="2"
     inkscape:window-width="1920"
     inkscape:window-height="1020"
     id="namedview6"
     showgrid="true"
     inkscape:zoom="15.17"
     inkscape:cx="11"
     inkscape:cy="11"
     inkscape:window-x="0"
     inkscape:window-y="30"
     inkscape:window-maximized="1"
     inkscape:current-layer="22-22-svg30">
    <inkscape:grid
       type="xygrid"
       id="grid825" />
  </sodipodi:namedview>
  <g
     id="22-22-apport"
     transform="translate(32)">
    <rect
       style="opacity:0.00100002"
       id="22-22-rect2"
       width="22"
       height="22"
       x="0"
       y="10" />
    <path
       style="fill:#dfdfdf"
       id="22-22-path4"
       d="M 3.125,13 C 2,13 2,14.142578 2,14.142578 V 25.875 c 0,1.143176 1.125,1.142578 1.125,1.142578 H 7.5507812 C 7.2610936,27.089594 6.9815288,27.300445 7,27.861328 V 29 h 8 v -1.138672 c 0,-0.561433 -0.253862,-0.7719 -0.511719,-0.84375 H 18.875 C 20,27.017578 20,25.875 20,25.875 V 14.142578 C 20,14.142578 20,13 18.875,13 Z M 4,15 h 14 v 9.986328 l -14,0.02734 z m 5,2 v 2 h 1 v -2 z m 3,0 v 2 h 1 v -2 z m -4,4 v 1 h 6 v -1 z m 6,1 v 1 h 1 V 22 Z M 8,22 H 7 v 1 h 1 z"
       inkscape:connector-curvature="0" />
  </g>
  <g
     id="apport">
    <rect
       y="-1e-06"
       x="-5e-07"
       height="32"
       width="32"
       id="rect817"
       style="opacity:0.00100002;stroke-width:1.4545455" />
    <path
       id="path839"
       d="M 4.625 5 C 3 5 3 6.6425781 3 6.6425781 L 3 23.373047 C 3 25.016363 4.625 25 4.625 25 L 11.017578 25 C 10.599141 25.103522 9.973319 25.422246 10 26.228516 L 10 28 L 22 28 L 22 26.228516 C 22 25.421456 21.411523 25.103284 21.039062 25 L 27.375 25 C 29.000001 25 29 23.373048 29 23.373047 L 29 6.6425781 C 29 6.6425781 29.000001 5 27.375 5 L 4.625 5 z M 6 8 L 26 8 L 26 21.960938 L 6 22 L 6 8 z M 13 11 L 13 14 L 14 14 L 14 11 L 13 11 z M 18 11 L 18 14 L 19 14 L 19 11 L 18 11 z M 12 17 L 12 18 L 20 18 L 20 17 L 12 17 z M 20 18 L 20 19 L 21 19 L 21 18 L 20 18 z M 12 18 L 11 18 L 11 19 L 12 19 L 12 18 z "
       style="fill:#dfdfdf;stroke-width:1.44096804" />
  </g>
</svg>
