<?xml version="1.0" encoding="UTF-8" standalone="no"?>
<svg
   xmlns:dc="http://purl.org/dc/elements/1.1/"
   xmlns:cc="http://creativecommons.org/ns#"
   xmlns:rdf="http://www.w3.org/1999/02/22-rdf-syntax-ns#"
   xmlns:svg="http://www.w3.org/2000/svg"
   xmlns="http://www.w3.org/2000/svg"
   xmlns:sodipodi="http://sodipodi.sourceforge.net/DTD/sodipodi-0.dtd"
   xmlns:inkscape="http://www.inkscape.org/namespaces/inkscape"
   id="22-22-svg5"
   width="32"
   height="32"
   version="1.1"
   viewBox="0 0 32 32"
   sodipodi:docname="audacious.svg"
   inkscape:version="0.92.3 (2405546, 2018-03-11)">
  <metadata
     id="metadata11">
    <rdf:RDF>
      <cc:Work
         rdf:about="">
        <dc:format>image/svg+xml</dc:format>
        <dc:type
           rdf:resource="http://purl.org/dc/dcmitype/StillImage" />
        <dc:title></dc:title>
      </cc:Work>
    </rdf:RDF>
  </metadata>
  <defs
     id="defs9" />
  <sodipodi:namedview
     pagecolor="#ffffff"
     bordercolor="#666666"
     borderopacity="1"
     objecttolerance="10"
     gridtolerance="10"
     guidetolerance="10"
     inkscape:pageopacity="0"
     inkscape:pageshadow="2"
     inkscape:window-width="1920"
     inkscape:window-height="1020"
     id="namedview7"
     showgrid="true"
     inkscape:zoom="10.74"
     inkscape:cx="11"
     inkscape:cy="11"
     inkscape:window-x="0"
     inkscape:window-y="30"
     inkscape:window-maximized="1"
     inkscape:current-layer="22-22-svg5">
    <inkscape:grid
       type="xygrid"
       id="grid842" />
  </sodipodi:namedview>
  <g
     id="22-22-audacious"
     transform="translate(27,5.0000005)">
    <rect
       id="22-22-rect843"
       width="22"
       height="22"
       x="5"
       y="5"
       style="opacity:0.00100002;fill:#000000;fill-opacity:1;stroke-width:0.83996361" />
    <g
       id="22-22-layer1"
       transform="translate(0,-288.53332)">
      <path
         id="22-22-path2"
         d="m 16,296.53332 a 8,8 0 0 0 -8,8 8,8 0 0 0 8,8 8,8 0 0 0 8,-8 8,8 0 0 0 -8,-8 z m -0.11523,4.002 h 0.002 c 1.8673,0.0706 2.9719,1.333 3.0938,3.1738 0.1373,2.0751 -0.47461,2.6162 -0.21289,3.0332 0.54652,0.87079 -0.22644,1.098 -0.74023,1.5234 -0.32,0.265 -0.939,0.145 -1.245,-0.232 -0.93,-0.538 -0.57,0.495 -2.49,0.5 -0.9983,-0.041 -1.9153,-0.761 -2.1739,-1.732 -0.3964,-1.49 0.1855,-2.589 1.8047,-3.108 0.4684,-0.15 1.3962,-0.06 1.8052,-0.3592 0.385,-0.2822 0.249,-0.6874 -0.225,-0.7403 -0.6798,-0.0758 -1.7401,0.2319 -2.3673,0.1075 -0.5034,-0.0999 -0.6566,-1.0612 -0.3281,-1.4746 0.5376,-0.6767 1.9163,-0.6476 2.6954,-0.6836 0.1312,-0.006 0.25638,-0.0125 0.38086,-0.008 z m -0.24805,4.4492 c -0.43248,0 -0.79102,0.32278 -0.79102,0.72461 0,0.40185 0.35851,0.73242 0.79102,0.73242 0.4325,0 0.77344,-0.33059 0.77344,-0.73242 0,-0.40181 -0.34093,-0.72461 -0.77344,-0.72461 z"
         style="fill:#dfdfdf"
         inkscape:connector-curvature="0" />
    </g>
  </g>
  <g
     id="audacious">
    <rect
       style="opacity:0.00100002;fill:#000000;fill-opacity:1;stroke-width:1.22176528"
       y="-5e-07"
       x="-5e-07"
       height="32"
       width="32"
       id="rect818" />
    <path
       id="path834"
       d="M 16 4 A 12 12 0 0 0 4 16 A 12 12 0 0 0 16 28 A 12 12 0 0 0 28 16 A 12 12 0 0 0 16 4 z M 16.548828 10.001953 L 16.550781 10.001953 L 16.552734 10.001953 C 19.219409 10.107853 20.796618 12.002472 20.970703 14.763672 C 21.16678 17.876322 20.292256 18.687 20.666016 19.3125 C 21.446497 20.618685 20.343114 20.959556 19.609375 21.597656 C 19.152386 21.995156 18.269027 21.8155 17.832031 21.25 C 16.503905 20.443 17.017327 21.9925 14.275391 22 C 12.849728 21.9385 11.541179 20.858844 11.171875 19.402344 C 10.605779 17.167344 11.435681 15.518734 13.748047 14.740234 C 14.416965 14.515234 15.742083 14.649972 16.326172 14.201172 C 16.875987 13.777872 16.682775 12.969975 16.005859 12.890625 C 15.035043 12.776925 13.620307 13.237381 12.724609 13.050781 C 12.005708 12.900931 11.786731 11.659164 12.255859 11.039062 C 13.023601 10.024013 14.893233 10.067672 16.005859 10.013672 C 16.193225 10.004672 16.37106 9.9952032 16.548828 10.001953 z M 16.011719 17 C 15.458838 17 15 17.442567 15 17.994141 C 15 18.545742 15.4588 19 16.011719 19 C 16.564625 19 17 18.545715 17 17.994141 C 17 17.442594 16.564638 17 16.011719 17 z "
       style="fill:#dfdfdf;stroke-width:1.5" />
  </g>
</svg>
