<svg xmlns="http://www.w3.org/2000/svg" width="32" height="32" version="1.1">
 <g id="22-22-audio-volume-muted" transform="translate(-325.0004,397)">
  <path style="opacity:0.001" d="m 325.0004,-419 h 22 c 0,0 0,0 0,0 v 22 c 0,0 0,0 0,0 h -22 c 0,0 0,0 0,0 v -22 c 0,0 0,0 0,0 z"/>
  <path style="opacity:0.3;fill:#dfdfdf" d="m 335.0004,-416 -5,5 h -3 v 6 h 3 l 5,5 z m 2,0 v 2 c 2.86838,0.84571 5,3.06286 5,6 0,2.93714 -2.13163,5.15429 -5,6 v 2 c 3.89455,-0.89143 7,-4.11429 7,-8 0,-3.88571 -3.10545,-7.10857 -7,-8 z m 0,4 v 8 c 0,0 3.0002,-1 3,-4 -2e-4,-3 -3,-4 -3,-4 z"/>
 </g>
 <g id="22-22-audio-volume-low" transform="translate(-293.0004,397)">
  <path style="opacity:0.001" d="m 325.0004,-419 h 22 c 0,0 0,0 0,0 v 22 c 0,0 0,0 0,0 h -22 c 0,0 0,0 0,0 v -22 c 0,0 0,0 0,0 z"/>
  <path style="fill:#dfdfdf" d="m 335.0004,-416 -5,5 h -3 v 6 h 3 l 5,5 z"/>
  <path style="opacity:0.3;fill:#dfdfdf" d="m 337.0004,-416 v 2 c 2.86838,0.84571 5,3.06286 5,6 0,2.93714 -2.13163,5.15429 -5,6 v 2 c 3.89455,-0.89143 7,-4.11429 7,-8 0,-3.88571 -3.10545,-7.10857 -7,-8 z"/>
  <path style="opacity:0.3;fill:#dfdfdf" d="m 337.0004,-412 v 8 c 0,0 3.0002,-1 3,-4 -2e-4,-3 -3,-4 -3,-4 z"/>
 </g>
 <g id="22-22-audio-volume-medium" transform="translate(-261.0004,397)">
  <path style="opacity:0.001" d="m 325.0004,-419 h 22 c 0,0 0,0 0,0 v 22 c 0,0 0,0 0,0 h -22 c 0,0 0,0 0,0 v -22 c 0,0 0,0 0,0 z"/>
  <path style="fill:#dfdfdf" d="m 335.0004,-416 -5,5 h -3 v 6 h 3 l 5,5 z"/>
  <path style="opacity:0.3;fill:#dfdfdf" d="m 337.0004,-416 v 2 c 2.86838,0.84571 5,3.06286 5,6 0,2.93714 -2.13163,5.15429 -5,6 v 2 c 3.89455,-0.89143 7,-4.11429 7,-8 0,-3.88571 -3.10545,-7.10857 -7,-8 z"/>
  <path style="fill:#dfdfdf" d="m 337.0004,-412 v 8 c 0,0 3.0002,-1 3,-4 -2e-4,-3 -3,-4 -3,-4 z"/>
 </g>
 <g id="22-22-audio-volume-high" transform="translate(-229.0004,397)">
  <path style="opacity:0.001" d="m 325.0004,-419 h 22 c 0,0 0,0 0,0 v 22 c 0,0 0,0 0,0 h -22 c 0,0 0,0 0,0 v -22 c 0,0 0,0 0,0 z"/>
  <path style="fill:#dfdfdf" d="m 335.0004,-416 -5,5 h -3 v 6 h 3 l 5,5 z"/>
  <path style="fill:#dfdfdf" d="m 337.0004,-416 v 2 c 2.86838,0.84571 5,3.06286 5,6 0,2.93714 -2.13163,5.15429 -5,6 v 2 c 3.89455,-0.89143 7,-4.11429 7,-8 0,-3.88571 -3.10545,-7.10857 -7,-8 z"/>
  <path style="fill:#dfdfdf" d="m 337.0004,-412 v 8 c 0,0 3.0002,-1 3,-4 -2e-4,-3 -3,-4 -3,-4 z"/>
 </g>
 <g id="audio-volume-muted">
  <path style="opacity:0.001" d="M -6.8179997e-7,-4.5e-6 H 32 c 0,0 0,0 0,0 V 31.999996 c 0,0 0,0 0,0 H -6.8179997e-7 c 0,0 0,0 0,0 V -4.5e-6 c 0,0 0,0 0,0 z"/>
  <path style="opacity:0.3;fill:#dfdfdf" d="M 15 4 L 7.5 11 L 3 11 L 3 21 L 7.5 21 L 15 28 L 15 4 z M 18 4.046875 L 18 7.0605469 A 9 9 0 0 1 26 16 A 9 9 0 0 1 18 24.933594 L 18 27.949219 A 12 12 0 0 0 29 16 A 12 12 0 0 0 18 4.046875 z M 18 10.089844 L 18 21.914062 A 6 6 0 0 0 23 16 A 6 6 0 0 0 18 10.089844 z"/>
 </g>
 <g id="audio-volume-low" transform="translate(32.000001)">
  <path style="opacity:0.001" d="M -6.8179997e-7,-4.5e-6 H 32 c 0,0 0,0 0,0 V 31.999996 c 0,0 0,0 0,0 H -6.8179997e-7 c 0,0 0,0 0,0 V -4.5e-6 c 0,0 0,0 0,0 z"/>
  <path style="fill:#dfdfdf" d="M 15,4 7.5,11 H 3 v 10 h 4.5 l 7.5,7 z"/>
  <path style="opacity:0.3;fill:#dfdfdf" transform="translate(-32.000001)" d="M 50 4.046875 L 50 7.0605469 A 9 9 0 0 1 58 16 A 9 9 0 0 1 50 24.933594 L 50 27.949219 A 12 12 0 0 0 61 16 A 12 12 0 0 0 50 4.046875 z M 50 10.089844 L 50 21.914062 A 6 6 0 0 0 55 16 A 6 6 0 0 0 50 10.089844 z"/>
 </g>
 <g id="audio-volume-medium" transform="translate(64.000002)">
  <path style="opacity:0.001" d="M -6.8179997e-7,-4.5e-6 H 32 c 0,0 0,0 0,0 V 31.999996 c 0,0 0,0 0,0 H -6.8179997e-7 c 0,0 0,0 0,0 V -4.5e-6 c 0,0 0,0 0,0 z"/>
  <path style="fill:#dfdfdf" transform="translate(-64.000002)" d="M 79 4 L 71.5 11 L 67 11 L 67 21 L 71.5 21 L 79 28 L 79 4 z M 82 10.089844 L 82 21.914062 A 6 6 0 0 0 87 16 A 6 6 0 0 0 82 10.089844 z"/>
  <path style="opacity:0.3;fill:#dfdfdf" d="M 18,4.046875 V 7.0605469 A 9,9 0 0 1 26,16 9,9 0 0 1 18,24.933594 v 3.015625 A 12,12 0 0 0 29,16 12,12 0 0 0 18,4.046875 Z"/>
 </g>
 <g id="audio-volume-high" transform="translate(96.000003)">
  <path style="opacity:0.001" d="M -6.8179997e-7,-4.5e-6 H 32 c 0,0 0,0 0,0 V 31.999996 c 0,0 0,0 0,0 H -6.8179997e-7 c 0,0 0,0 0,0 V -4.5e-6 c 0,0 0,0 0,0 z"/>
  <path style="fill:#dfdfdf" transform="translate(-96.000003)" d="M 111 4 L 103.5 11 L 99 11 L 99 21 L 103.5 21 L 111 28 L 111 4 z M 114 4.046875 L 114 7.0605469 A 9 9 0 0 1 122 16 A 9 9 0 0 1 114 24.933594 L 114 27.949219 A 12 12 0 0 0 125 16 A 12 12 0 0 0 114 4.046875 z M 114 10.089844 L 114 21.914062 A 6 6 0 0 0 119 16 A 6 6 0 0 0 114 10.089844 z"/>
 </g>
</svg>
