<svg xmlns="http://www.w3.org/2000/svg" xmlns:osb="http://www.openswatchbook.org/uri/2009/osb" style="enable-background:new" id="svg116" width="22" height="22" version="1.1">
 <defs id="defs4">
  <linearGradient id="linearGradient5606" osb:paint="solid">
   <stop id="stop5608" offset="0" style="stop-color:#000000"/>
  </linearGradient>
 </defs>
 <g id="audio-volume-muted" transform="translate(-325.0004,419)">
  <path style="opacity:0;fill:#ff0000" id="path6" d="m 325.0004,-419 h 22 c 0,0 0,0 0,0 v 22 c 0,0 0,0 0,0 h -22 c 0,0 0,0 0,0 v -22 c 0,0 0,0 0,0 z"/>
  <path style="opacity:0.3;fill:#dfdfdf" id="path8" d="m 335.0004,-416 -5,5 h -3 v 6 h 3 l 5,5 z m 2,0 v 2 c 2.86838,0.84571 5,3.06286 5,6 0,2.93714 -2.13163,5.15429 -5,6 v 2 c 3.89455,-0.89143 7,-4.11429 7,-8 0,-3.88571 -3.10545,-7.10857 -7,-8 z m 0,4 v 8 c 0,0 3.0002,-1 3,-4 -2e-4,-3 -3,-4 -3,-4 z"/>
 </g>
 <g id="audio-volume-low" transform="translate(-300.0004,419)">
  <path style="opacity:0;fill:#ff0000" id="path11" d="m 325.0004,-419 h 22 c 0,0 0,0 0,0 v 22 c 0,0 0,0 0,0 h -22 c 0,0 0,0 0,0 v -22 c 0,0 0,0 0,0 z"/>
  <path style="fill:#dfdfdf" id="path13" d="m 335.0004,-416 -5,5 h -3 v 6 h 3 l 5,5 z"/>
  <path style="opacity:0.3;fill:#dfdfdf" id="path15" d="m 337.0004,-416 v 2 c 2.86838,0.84571 5,3.06286 5,6 0,2.93714 -2.13163,5.15429 -5,6 v 2 c 3.89455,-0.89143 7,-4.11429 7,-8 0,-3.88571 -3.10545,-7.10857 -7,-8 z"/>
  <path style="opacity:0.3;fill:#dfdfdf" id="path17" d="m 337.0004,-412 v 8 c 0,0 3.0002,-1 3,-4 -2e-4,-3 -3,-4 -3,-4 z"/>
 </g>
 <g id="audio-volume-medium" transform="translate(-275.0004,419)">
  <path style="opacity:0;fill:#ff0000" id="path20" d="m 325.0004,-419 h 22 c 0,0 0,0 0,0 v 22 c 0,0 0,0 0,0 h -22 c 0,0 0,0 0,0 v -22 c 0,0 0,0 0,0 z"/>
  <path style="fill:#dfdfdf" id="path22" d="m 335.0004,-416 -5,5 h -3 v 6 h 3 l 5,5 z"/>
  <path style="opacity:0.3;fill:#dfdfdf" id="path24" d="m 337.0004,-416 v 2 c 2.86838,0.84571 5,3.06286 5,6 0,2.93714 -2.13163,5.15429 -5,6 v 2 c 3.89455,-0.89143 7,-4.11429 7,-8 0,-3.88571 -3.10545,-7.10857 -7,-8 z"/>
  <path style="fill:#dfdfdf" id="path26" d="m 337.0004,-412 v 8 c 0,0 3.0002,-1 3,-4 -2e-4,-3 -3,-4 -3,-4 z"/>
 </g>
 <g id="audio-volume-high" transform="translate(-250.0004,419)">
  <path style="opacity:0;fill:#ff0000" id="path29" d="m 325.0004,-419 h 22 c 0,0 0,0 0,0 v 22 c 0,0 0,0 0,0 h -22 c 0,0 0,0 0,0 v -22 c 0,0 0,0 0,0 z"/>
  <path style="fill:#dfdfdf" id="path31" d="m 335.0004,-416 -5,5 h -3 v 6 h 3 l 5,5 z"/>
  <path style="fill:#dfdfdf" id="path33" d="m 337.0004,-416 v 2 c 2.86838,0.84571 5,3.06286 5,6 0,2.93714 -2.13163,5.15429 -5,6 v 2 c 3.89455,-0.89143 7,-4.11429 7,-8 0,-3.88571 -3.10545,-7.10857 -7,-8 z"/>
  <path style="fill:#dfdfdf" id="path35" d="m 337.0004,-412 v 8 c 0,0 3.0002,-1 3,-4 -2e-4,-3 -3,-4 -3,-4 z"/>
 </g>
</svg>
