<svg xmlns="http://www.w3.org/2000/svg" id="svg334" width="22" height="22" version="1" viewBox="0 0 22 22">
 <g id="battery-ups" transform="translate(255.46001,-404.5)">
  <rect style="opacity:0.00100002" id="rect2" width="22" height="22" x="192.54" y="404.5"/>
  <path style="fill:#dfdfdf" id="path4" d="m 197.53573,408.50504 v 15 h 12 v -15 c 0.0768,-1.06936 -1,-1 -1,-1 h -10 c 0,0 -1,-0.004 -1,1 z m 6,1 v 3 h 2 l -2,5 v -3 h -2 z m -4,10 h 1 v 2 h -1 z m 2,0 h 1 v 2 h -1 z m 2,0 h 1 v 2 h -1 z m 3,0 c 0.55229,0 1,0.44772 1,1 0,0.55228 -0.44771,1 -1,1 -0.55229,0 -1,-0.44772 -1,-1 0,-0.55228 0.44771,-1 1,-1 z"/>
 </g>
 <g id="Battery" transform="translate(-214.53999,-382.5)">
  <rect style="opacity:0.00100002" id="rect7" width="22" height="22" x="-404.5" y="214.54" transform="rotate(-90)"/>
  <path style="fill:#dfdfdf" id="path9" d="m 219.53573,401.50505 h 3 6 3 v -3 -11 -1 h -3 -0.99999 v -0.5 c 0,-0.277 -0.223,-0.5 -0.5,-0.5 h -3 c -0.277,0 -0.5,0.777 -0.5,0.5 v 0.5 h -1.00001 -3 v 1 12 z m 2,-2 v -11 h 2.50001 3 2.49999 v 11 z"/>
 </g>
 <g id="Fill100" transform="translate(-182.53999,-382.5)">
  <rect style="opacity:0.00100002" id="rect12" width="22" height="22" x="-404.5" y="214.54" transform="rotate(-90)"/>
  <path style="fill:#dfdfdf;fill-rule:evenodd" id="path14" d="m 230.53575,400.50504 h -10 v -13 h 10 z"/>
 </g>
 <g id="Fill90" transform="translate(-150.53999,-382.5)">
  <rect style="opacity:0.00100002" id="rect17" width="22" height="22" x="-404.5" y="214.54" transform="rotate(-90)"/>
  <path style="fill:#dfdfdf;fill-rule:evenodd" id="path19" d="m 230.53575,400.50504 h -10 v -11 h 10 z"/>
 </g>
 <g id="Fill80" transform="translate(-118.53999,-382.5)">
  <rect style="opacity:0.00100002" id="rect22" width="22" height="22" x="-404.5" y="214.54" transform="rotate(-90)"/>
  <path style="fill:#dfdfdf;fill-rule:evenodd" id="path24" d="m 230.53575,400.50504 h -10 v -10 h 10 z"/>
 </g>
 <g id="Fill70" transform="translate(-86.539998,-382.5)">
  <rect style="opacity:0.00100002" id="rect27" width="22" height="22" x="-404.5" y="214.54" transform="rotate(-90)"/>
  <path style="fill:#dfdfdf;fill-rule:evenodd" id="path29" d="m 230.53575,400.50504 h -10 v -9 h 10 z"/>
 </g>
 <g id="Fill60" transform="translate(-54.539998,-382.5)">
  <rect style="opacity:0.00100002" id="rect32" width="22" height="22" x="-404.5" y="214.54" transform="rotate(-90)"/>
  <path style="fill:#dfdfdf;fill-rule:evenodd" id="path34" d="m 230.53575,400.50504 h -10 v -8 h 10 z"/>
 </g>
 <g id="Fill50" transform="translate(-22.539998,-382.5)">
  <rect style="opacity:0.00100002" id="rect37" width="22" height="22" x="-404.5" y="214.54" transform="rotate(-90)"/>
  <path style="fill:#dfdfdf;fill-rule:evenodd" id="path39" d="m 230.53575,400.50504 h -10 v -7 h 10 z"/>
 </g>
 <g id="Fill40" transform="translate(9.4600017,-382.5)">
  <rect style="opacity:0.00100002" id="rect42" width="22" height="22" x="-404.5" y="214.54" transform="rotate(-90)"/>
  <path style="fill:#dfdfdf;fill-rule:evenodd" id="path44" d="m 230.53575,400.50504 h -10 v -6 h 10 z"/>
 </g>
 <g id="Fill30" transform="translate(41.460002,-382.5)">
  <rect style="opacity:0.00100002" id="rect47" width="22" height="22" x="-404.5" y="214.54" transform="rotate(-90)"/>
  <path style="fill:#dfdfdf;fill-rule:evenodd" id="path49" d="m 230.53574,400.50504 h -10 v -5 h 10 z"/>
 </g>
 <g id="Fill20" transform="translate(73.460002,-382.5)">
  <rect style="opacity:0.00100002" id="rect52" width="22" height="22" x="-404.5" y="214.54" transform="rotate(-90)"/>
  <path style="fill:#dfdfdf;fill-rule:evenodd" id="path54" d="m 230.53575,400.50504 h -10 v -4 h 10 z"/>
 </g>
 <g id="Fill10" transform="translate(105.46001,-382.5)">
  <rect style="opacity:0.00100002" id="rect57" width="22" height="22" x="-404.5" y="214.54" transform="rotate(-90)"/>
  <path style="fill:#5294e2" id="path59" d="M 229.5,3 C 229.223,3 229,3.777 229,3.5 V 4 h -1 -3 v 1 12 2 h 3 6 3 V 16 5 4 h -3 -1 V 3.5 C 233,3.223 232.777,3 232.5,3 Z M 227,6 h 2.5 3 2.5 v 9 h -8 z" transform="translate(-5.46425,382.50504)"/>
 </g>
 <g id="Fill0" transform="translate(137.46001,-382.5)">
  <rect style="opacity:0.00100002" id="rect62" width="22" height="22" x="-404.5" y="214.54" transform="rotate(-90)"/>
  <path style="fill:#5294e2" id="path64" d="m 219.53573,401.50505 h 3 6 3 v -3 -11 -1 h -3 -0.99999 v -0.5 c 0,-0.277 -0.223,-0.5 -0.5,-0.5 h -3 c -0.277,0 -0.5,0.777 -0.5,0.5 v 0.5 h -1.00001 -3 v 1 12 z m 2,-2 v -11 h 2.50001 3 2.49999 v 11 z"/>
 </g>
 <g id="Unavailable" transform="translate(213.46001,-404.5)">
  <rect style="opacity:0.00100002" id="rect67" width="22" height="22" x="-426.5" y="170.54" transform="rotate(-90)"/>
  <g id="g73">
   <rect style="fill:#5294e2" id="rect69" width="10" height="10" x="181.54" y="415.5" ry="1"/>
   <path style="fill:#ffffff" id="path71" d="m 188.65704,416.96951 -2.12132,2.12132 -2.12132,-2.12132 -1.41421,1.41421 2.12132,2.12132 -2.12132,2.12132 1.41421,1.41421 2.12132,-2.12132 2.12132,2.12132 1.41421,-1.41421 -2.12132,-2.12132 2.12132,-2.12132 z"/>
  </g>
 </g>
 <g id="AcAdapter" transform="translate(482,21.999995)">
  <rect style="opacity:0.00100002" id="rect76" width="22" height="22" x="0" y="-66" transform="rotate(-90)"/>
  <path style="fill:#5294e2;fill-rule:evenodd" id="path78" d="m -55,-15 v 3 h 2 l -2,5 v -3 h -2 z"/>
 </g>
</svg>
