<svg xmlns="http://www.w3.org/2000/svg" id="22-22-svg334" width="32" height="32" version="1" viewBox="0 0 32 32">
 <g id="22-22-battery-ups" transform="translate(255.46001,-426.49999)">
  <rect style="opacity:0.00100002" id="22-22-rect2" width="22" height="22" x="192.54" y="404.5"/>
  <path style="fill:#dfdfdf" id="22-22-path4" d="m 197.53573,408.50504 v 15 h 12 v -15 c 0.0768,-1.06936 -1,-1 -1,-1 h -10 c 0,0 -1,-0.004 -1,1 z m 6,1 v 3 h 2 l -2,5 v -3 h -2 z m -4,10 h 1 v 2 h -1 z m 2,0 h 1 v 2 h -1 z m 2,0 h 1 v 2 h -1 z m 3,0 c 0.55229,0 1,0.44772 1,1 0,0.55228 -0.44771,1 -1,1 -0.55229,0 -1,-0.44772 -1,-1 0,-0.55228 0.44771,-1 1,-1 z"/>
 </g>
 <g id="22-22-Battery" transform="translate(-214.53999,-404.5)">
  <rect style="opacity:0.00100002" id="22-22-rect7" width="22" height="22" x="-404.5" y="214.54" transform="rotate(-90)"/>
  <path style="fill:#dfdfdf" id="22-22-path9" d="m 219.53573,401.50505 h 3 6 3 v -3 -11 -1 h -3 -0.99999 v -0.5 c 0,-0.277 -0.223,-0.5 -0.5,-0.5 h -3 c -0.49575,-0.005 -0.5,0.5 -0.5,0.5 v 0.5 h -1.00001 -3 v 1 12 z m 2,-2 v -11 h 2.50001 3 2.49999 v 11 z"/>
 </g>
 <g id="22-22-Fill100" transform="translate(-182.53999,-404.5)">
  <rect style="opacity:0.00100002" id="22-22-rect12" width="22" height="22" x="-404.5" y="214.54" transform="rotate(-90)"/>
  <path style="fill:#dfdfdf;fill-rule:evenodd" id="22-22-path14" d="m 230.53575,400.50504 h -10 v -13 h 10 z"/>
 </g>
 <g id="22-22-Fill90" transform="translate(-150.53999,-404.5)">
  <rect style="opacity:0.00100002" id="22-22-rect17" width="22" height="22" x="-404.5" y="214.54" transform="rotate(-90)"/>
  <path style="fill:#dfdfdf;fill-rule:evenodd" id="22-22-path19" d="m 230.53575,400.50504 h -10 v -11 h 10 z"/>
 </g>
 <g id="22-22-Fill80" transform="translate(-118.54,-404.5)">
  <rect style="opacity:0.00100002" id="22-22-rect22" width="22" height="22" x="-404.5" y="214.54" transform="rotate(-90)"/>
  <path style="fill:#dfdfdf;fill-rule:evenodd" id="22-22-path24" d="m 230.53575,400.50504 h -10 v -10 h 10 z"/>
 </g>
 <g id="22-22-Fill70" transform="translate(-86.540002,-404.5)">
  <rect style="opacity:0.00100002" id="22-22-rect27" width="22" height="22" x="-404.5" y="214.54" transform="rotate(-90)"/>
  <path style="fill:#dfdfdf;fill-rule:evenodd" id="22-22-path29" d="m 230.53575,400.50504 h -10 v -9 h 10 z"/>
 </g>
 <g id="22-22-Fill60" transform="translate(-54.540001,-404.5)">
  <rect style="opacity:0.00100002" id="22-22-rect32" width="22" height="22" x="-404.5" y="214.54" transform="rotate(-90)"/>
  <path style="fill:#dfdfdf;fill-rule:evenodd" id="22-22-path34" d="m 230.53575,400.50504 h -10 v -8 h 10 z"/>
 </g>
 <g id="22-22-Fill50" transform="translate(-22.540003,-404.5)">
  <rect style="opacity:0.00100002" id="22-22-rect37" width="22" height="22" x="-404.5" y="214.54" transform="rotate(-90)"/>
  <path style="fill:#dfdfdf;fill-rule:evenodd" id="22-22-path39" d="m 230.53575,400.50504 h -10 v -7 h 10 z"/>
 </g>
 <g id="22-22-Fill40" transform="translate(9.4599952,-404.5)">
  <rect style="opacity:0.00100002" id="22-22-rect42" width="22" height="22" x="-404.5" y="214.54" transform="rotate(-90)"/>
  <path style="fill:#dfdfdf;fill-rule:evenodd" id="22-22-path44" d="m 230.53575,400.50504 h -10 v -6 h 10 z"/>
 </g>
 <g id="22-22-Fill30" transform="translate(41.459997,-404.5)">
  <rect style="opacity:0.00100002" id="22-22-rect47" width="22" height="22" x="-404.5" y="214.54" transform="rotate(-90)"/>
  <path style="fill:#dfdfdf;fill-rule:evenodd" id="22-22-path49" d="m 230.53574,400.50504 h -10 v -5 h 10 z"/>
 </g>
 <g id="22-22-Fill20" transform="translate(73.459997,-404.5)">
  <rect style="opacity:0.00100002" id="22-22-rect52" width="22" height="22" x="-404.5" y="214.54" transform="rotate(-90)"/>
  <path style="fill:#dfdfdf;fill-rule:evenodd" id="22-22-path54" d="m 230.53575,400.50504 h -10 v -4 h 10 z"/>
 </g>
 <g id="22-22-Fill10" transform="translate(105.46,-404.5)">
  <rect style="opacity:0.00100002" id="22-22-rect57" width="22" height="22" x="-404.5" y="214.54" transform="rotate(-90)"/>
  <path style="fill:#5294e2" id="22-22-path59" d="M 229.5,3 C 229.00425,3 229,3.5 229,3.5 V 4 h -1 -3 v 1 12 2 h 3 6 3 V 16 5 4 h -3 -1 V 3.5 C 233,3.223 232.777,3 232.5,3 Z M 227,6 h 2.5 3 2.5 v 9 h -8 z" transform="translate(-5.46425,382.50504)"/>
 </g>
 <g id="22-22-Fill0" transform="translate(137.46,-404.5)">
  <rect style="opacity:0.00100002" id="22-22-rect62" width="22" height="22" x="-404.5" y="214.54" transform="rotate(-90)"/>
  <path style="fill:#5294e2" id="22-22-path64" d="m 219.53573,401.50505 h 3 6 3 v -3 -11 -1 h -3 -0.99999 v -0.5 c 0,-0.277 -0.223,-0.5 -0.5,-0.5 h -3 c -0.49574,0 -0.5,0.5 -0.5,0.5 v 0.5 h -1.00001 -3 v 1 12 z m 2,-2 v -11 h 2.50001 3 2.49999 v 11 z"/>
 </g>
 <g id="22-22-Unavailable" transform="translate(213.46,-426.5)">
  <rect style="opacity:0.00100002" id="22-22-rect67" width="22" height="22" x="-426.5" y="170.54" transform="rotate(-90)"/>
  <g id="22-22-g73">
   <rect style="fill:#5294e2" id="22-22-rect69" width="10" height="10" x="181.54" y="415.5" ry="1"/>
   <path style="fill:#ffffff" id="22-22-path71" d="m 188.65704,416.96951 -2.12132,2.12132 -2.12132,-2.12132 -1.41421,1.41421 2.12132,2.12132 -2.12132,2.12132 1.41421,1.41421 2.12132,-2.12132 2.12132,2.12132 1.41421,-1.41421 -2.12132,-2.12132 2.12132,-2.12132 z"/>
  </g>
 </g>
 <g id="22-22-AcAdapter" transform="translate(482,7.6293946e-6)">
  <rect style="opacity:0.00100002" id="22-22-rect76" width="22" height="22" x="0" y="-66" transform="rotate(-90)"/>
  <path style="fill:#5294e2;fill-rule:evenodd" id="22-22-path78" d="m -55,-15 v 3 h 2 l -2,5 v -3 h -2 z"/>
 </g>
 <g id="Fill100" transform="translate(31.999998)">
  <rect id="rect864" width="32" height="32" x="-32" y="0" transform="rotate(-90)" style="opacity:0.00100002;stroke-width:1.4545455"/>
  <path id="path866" d="M 9.9999999,25 V 9 h 3.7500151 4.5 H 22 v 16 z" style="fill:#dfdfdf;stroke-width:1.5"/>
 </g>
 <g id="Battery" transform="translate(-1.8043747e-6)">
  <rect style="opacity:0.00100002;stroke-width:1.4545455" id="rect878" width="32" height="32" x="-32" y="0" transform="rotate(-90)"/>
  <path style="fill:#dfdfdf;stroke-width:1.5" id="path880" d="M 7.0000001,28 H 11.5 20.5 25 V 23.5 7 6 H 20.5 19.000015 V 4.75 c 0,-0.4154999 -0.3345,-0.75 -0.75,-0.75 h -4.5 c -0.750015,0 -0.75,0.75 -0.75,0.75 V 6 H 11.5 7.0000001 V 7 25 Z M 9.9999999,25 V 9 h 3.7500151 4.5 H 22 v 16 z"/>
 </g>
 <g id="Fill90" transform="translate(63.999996)">
  <rect style="opacity:0.00100002;stroke-width:1.4545455" id="rect895" width="32" height="32" x="-32" y="0" transform="rotate(-90)"/>
  <path style="fill:#dfdfdf;stroke-width:1.40312147" id="path899" d="M 9.9999999,25 V 11 h 3.7500151 4.5 H 22 v 14 z"/>
 </g>
 <g id="Fill80" transform="translate(95.999994)">
  <rect style="opacity:0.00100002;stroke-width:1.4545455" id="rect903" width="32" height="32" x="-32" y="0" transform="rotate(-90)"/>
  <path style="fill:#dfdfdf;stroke-width:1.29903805" id="path907" d="M 9.9999999,25 V 13 h 3.7500151 4.5 H 22 v 12 z"/>
 </g>
 <g id="Fill70" transform="translate(127.99999)">
  <rect id="rect911" width="32" height="32" x="-32" y="0" transform="rotate(-90)" style="opacity:0.00100002;stroke-width:1.4545455"/>
  <path id="path915" d="M 9.9999999,25 V 14 h 3.7500151 4.5 H 22 v 11 z" style="fill:#dfdfdf;stroke-width:1.24373424"/>
 </g>
 <g id="Fill60" transform="translate(159.99999)">
  <rect style="opacity:0.00100002;stroke-width:1.4545455" id="rect919" width="32" height="32" x="-32" y="0" transform="rotate(-90)"/>
  <path style="fill:#dfdfdf;stroke-width:1.18585408" id="path923" d="M 9.9999999,25 V 15 h 3.7500151 4.5 H 22 v 10 z"/>
 </g>
 <g id="Fill50" transform="translate(191.99999)">
  <rect id="rect927" width="32" height="32" x="-32" y="0" transform="rotate(-90)" style="opacity:0.00100002;stroke-width:1.4545455"/>
  <path id="path931" d="m 9.9999999,25 v -8 h 3.7500151 4.5 H 22 v 8 z" style="fill:#dfdfdf;stroke-width:1.06066012"/>
 </g>
 <g id="Fill40" transform="translate(223.99999)">
  <rect id="rect935" width="32" height="32" x="-32" y="0" transform="rotate(-90)" style="opacity:0.00100002;stroke-width:1.4545455"/>
  <path id="path939" d="m 9.9999999,25 v -7 h 3.7500151 4.5 H 22 v 7 z" style="fill:#dfdfdf;stroke-width:0.99215674"/>
 </g>
 <g id="Fill30" transform="translate(255.99999)">
  <rect style="opacity:0.00100002;stroke-width:1.4545455" id="rect943" width="32" height="32" x="-32" y="0" transform="rotate(-90)"/>
  <path style="fill:#dfdfdf;stroke-width:0.83852547" id="path947" d="m 9.9999999,25 v -5 h 3.7500151 4.5 H 22 v 5 z"/>
 </g>
 <g id="Fill20" transform="translate(287.99999)">
  <rect id="rect951" width="32" height="32" x="-32" y="0" transform="rotate(-90)" style="opacity:0.00100002;stroke-width:1.4545455"/>
  <path id="path955" d="m 9.9999999,25 v -3 h 3.7500151 4.5 H 22 v 3 z" style="fill:#dfdfdf;stroke-width:0.64951903"/>
 </g>
 <g id="Fill10" transform="translate(31.999998)">
  <rect style="opacity:0.00100002;stroke-width:1.4545455" id="rect959" width="32" height="32" x="-32" y="288" transform="rotate(-90)"/>
  <path id="path961" d="M 301.75,4 C 300.99998,4 301,4.75 301,4.75 V 6 h -1.5 -4.5 v 1 18 3 h 4.5 9 4.5 V 23.5 7 6 H 308.5 307 V 4.75 C 307,4.3345001 306.6655,4 306.25,4 Z M 298,9 h 3.75 4.5 3.75 v 15 h -3.75 -4.5 -3.75 z" style="opacity:1;fill:#5294e2;fill-opacity:1;stroke-width:1.5"/>
 </g>
 <g id="Fill0" transform="translate(351.99999)">
  <rect id="rect967" width="32" height="32" x="-32" y="0" transform="rotate(-90)" style="opacity:0.00100002;stroke-width:1.4545455"/>
  <path id="path969" d="M 7.0000001,28 H 11.5 20.5 25 V 23.5 7 6 H 20.5 19.000015 V 4.75 c 0,-0.4154999 -0.3345,-0.75 -0.75,-0.75 h -4.5 c -0.750015,0 -0.75,0.75 -0.75,0.75 V 6 H 11.5 7.0000001 V 7 25 Z M 9.9999999,25 V 9 h 3.7500151 4.5 H 22 v 16 z" style="fill:#5294e2;fill-opacity:1;stroke-width:1.5"/>
 </g>
 <g id="Unavailable" transform="translate(31.999998)">
  <rect id="rect984" width="32" height="32" x="-32" y="352" transform="rotate(-90)" style="opacity:0.00100002;fill:#000000;fill-opacity:1;stroke-width:1.4545455"/>
  <rect style="fill:#5294e2;stroke-width:1.39999998" id="rect986" width="14" height="14" x="368" y="16" ry="1.4"/>
  <path style="fill:#ffffff;stroke-width:1.41421568" id="path988" d="M 378.00001,17.999996 375,21 371.99999,17.999996 370,19.999994 l 3,3.000004 -3,3.000004 L 371.99999,28 375,24.999996 378.00001,28 380,26.000002 376.99999,22.999998 380,19.999994 Z"/>
 </g>
 <g id="AcAdapter" transform="translate(31.999998)">
  <rect id="rect1005" width="32" height="32" x="-32" y="384" transform="rotate(-90)" style="opacity:0.00100002;stroke-width:1.4545455"/>
  <path id="path1007" d="m 400,10 v 5 h 3 l -3,7 v -5 h -3 z" style="fill:#5294e2;fill-rule:evenodd;stroke-width:1.50000012"/>
 </g>
 <g id="battery-ups" transform="translate(31.999998)">
  <rect id="rect1017" width="32" height="32" x="416" y="0" style="opacity:0.00100002;stroke-width:1.4545455"/>
  <path id="path1035" d="m 424.5,4.0019531 c 0,0 -1.5,-0.00591 -1.5,1.5 V 28 h 17.99414 V 5.5019531 c 0.11516,-1.6039484 -1.5,-1.5 -1.5,-1.5 z M 432,7 v 5 h 3 l -3,7 v -5 h -3 z m -6,15 h 1 v 3 h -1 z m 3,0 h 1 v 3 h -1 z m 3,0 h 1 v 3 h -1 z m 4.5,0 c 0.82844,0 1.5,0.671626 1.5,1.5 0,0.828372 -0.67156,1.5 -1.5,1.5 -0.82843,0 -1.5,-0.671628 -1.5,-1.5 0,-0.828374 0.67157,-1.5 1.5,-1.5 z" style="fill:#dfdfdf;stroke-width:1.49971223"/>
 </g>
</svg>
