<svg xmlns="http://www.w3.org/2000/svg" xmlns:osb="http://www.openswatchbook.org/uri/2009/osb" style="enable-background:new" id="svg15" width="32" height="32" version="1.1">
 <defs id="defs4">
  <linearGradient id="linearGradient5606" osb:paint="solid">
   <stop id="stop5608" offset="0" style="stop-color:#000000"/>
  </linearGradient>
 </defs>
 <g id="bookmarks">
  <rect style="opacity:0.00100002" id="rect8" width="32" height="32" x="0" y="0"/>
  <path style="color:#000000;font-style:normal;font-variant:normal;font-weight:normal;font-stretch:normal;font-size:medium;line-height:normal;font-family:sans-serif;font-variant-ligatures:normal;font-variant-position:normal;font-variant-caps:normal;font-variant-numeric:normal;font-variant-alternates:normal;font-feature-settings:normal;text-indent:0;text-align:start;text-decoration:none;text-decoration-line:none;text-decoration-style:solid;text-decoration-color:#000000;letter-spacing:normal;word-spacing:normal;text-transform:none;writing-mode:lr-tb;direction:ltr;text-orientation:mixed;dominant-baseline:auto;baseline-shift:baseline;text-anchor:start;white-space:normal;shape-padding:0;clip-rule:nonzero;display:inline;overflow:visible;visibility:visible;opacity:1;isolation:auto;mix-blend-mode:normal;color-interpolation:sRGB;color-interpolation-filters:linearRGB;solid-color:#000000;solid-opacity:1;vector-effect:none;fill:#dfdfdf;fill-opacity:1;fill-rule:nonzero;stroke:none;stroke-width:6;stroke-linecap:butt;stroke-linejoin:miter;stroke-miterlimit:4;stroke-dasharray:none;stroke-dashoffset:0;stroke-opacity:1;color-rendering:auto;image-rendering:auto;shape-rendering:auto;text-rendering:auto;enable-background:accumulate" id="path819" d="M 9.9570312 2 C 5.5629267 2 2 6.1162805 2 11.193359 C 2 12.557477 2.2089285 13.869485 2.5742188 15.123047 C 2.5742188 15.123047 2.9057869 16.25431 3.1992188 16.876953 C 6.5528775 24.837929 16 30 16 30 C 16 30 25.447122 24.837929 28.800781 16.876953 C 29.094213 16.25431 29.425781 15.123047 29.425781 15.123047 C 29.791071 13.869485 30 12.557477 30 11.193359 C 30 6.1162805 26.437073 2 22.042969 2 C 19.738504 2 17.453413 3.1910383 16 5 C 14.546587 3.1910383 12.261496 2 9.9570312 2 z M 9.9570312 5 C 11.227817 5 12.767613 5.7655887 13.662109 6.8789062 L 16 9.7890625 L 18.337891 6.8789062 C 19.232387 5.7655888 20.772183 5 22.042969 5 C 24.563526 5 27 7.5198151 27 11.193359 C 27 12.251156 26.838875 13.274446 26.544922 14.283203 C 26.542522 14.290403 26.155269 15.454683 26.087891 15.597656 L 26.060547 15.654297 L 26.035156 15.712891 C 23.704555 21.245306 17.96869 25.08024 16 26.333984 C 14.031309 25.08024 8.2954396 21.245301 5.9648438 15.712891 L 5.9394531 15.654297 L 5.9121094 15.597656 C 5.8447311 15.454678 5.4574978 14.290453 5.4550781 14.283203 C 5.1611248 13.274447 5 12.251157 5 11.193359 C 5 7.5198149 7.4364734 5 9.9570312 5 z"/>
 </g>
</svg>
