<svg xmlns="http://www.w3.org/2000/svg" xmlns:osb="http://www.openswatchbook.org/uri/2009/osb" id="svg" width="22" height="22" version="1.1" viewBox="0 0 22 22">
 <defs id="defs4">
  <linearGradient id="linearGradient5606" osb:paint="solid">
   <stop id="stop5608" offset="0" style="stop-color:#000000"/>
  </linearGradient>
 </defs>
 <g id="configure">
  <rect style="opacity:0.01000001;fill:#ed1515;fill-opacity:0.00392157" id="rect6" width="22" height="22" x="0" y="0"/>
  <path style="fill:#dfdfdf" id="path8" d="M 8.9824219,3 8.8046875,5.1074219 a 6.3423397,6.2857118 0 0 0 -1.8535156,1.0625 L 5.0175781,5.2675781 3,8.7324219 4.7539062,9.9394531 A 6.3423397,6.2857118 0 0 0 4.6582031,11 6.3423397,6.2857118 0 0 0 4.75,12.064453 L 3,13.267578 5.0175781,16.732422 6.9453125,15.832031 a 6.3423397,6.2857118 0 0 0 1.859375,1.056641 L 8.9824219,19 h 4.0351561 l 0.177734,-2.107422 a 6.3423397,6.2857118 0 0 0 1.853516,-1.0625 L 16.982422,16.732422 19,13.267578 17.246094,12.060547 A 6.3423397,6.2857118 0 0 0 17.341797,11 6.3423397,6.2857118 0 0 0 17.25,9.9355469 L 19,8.7324219 16.982422,5.2675781 15.054688,6.1679688 A 6.3423397,6.2857118 0 0 0 13.195312,5.1113281 L 13.017578,3 Z M 11,8 a 3.0000004,2.9999999 0 0 1 3,3 3.0000004,2.9999999 0 0 1 -3,3 3.0000004,2.9999999 0 0 1 -3,-3 3.0000004,2.9999999 0 0 1 3,-3 z"/>
 </g>
</svg>
