<?xml version="1.0" encoding="UTF-8" standalone="no"?>
<svg
   xmlns:osb="http://www.openswatchbook.org/uri/2009/osb"
   xmlns:dc="http://purl.org/dc/elements/1.1/"
   xmlns:cc="http://creativecommons.org/ns#"
   xmlns:rdf="http://www.w3.org/1999/02/22-rdf-syntax-ns#"
   xmlns:svg="http://www.w3.org/2000/svg"
   xmlns="http://www.w3.org/2000/svg"
   xmlns:sodipodi="http://sodipodi.sourceforge.net/DTD/sodipodi-0.dtd"
   xmlns:inkscape="http://www.inkscape.org/namespaces/inkscape"
   id="22-22-svg"
   width="32"
   height="32"
   version="1.1"
   viewBox="0 0 32 32"
   sodipodi:docname="device.svg"
   inkscape:version="0.92.3 (2405546, 2018-03-11)">
  <metadata
     id="metadata13">
    <rdf:RDF>
      <cc:Work
         rdf:about="">
        <dc:format>image/svg+xml</dc:format>
        <dc:type
           rdf:resource="http://purl.org/dc/dcmitype/StillImage" />
        <dc:title />
      </cc:Work>
    </rdf:RDF>
  </metadata>
  <sodipodi:namedview
     pagecolor="#ffffff"
     bordercolor="#666666"
     borderopacity="1"
     objecttolerance="10"
     gridtolerance="10"
     guidetolerance="10"
     inkscape:pageopacity="0"
     inkscape:pageshadow="2"
     inkscape:window-width="1920"
     inkscape:window-height="1020"
     id="namedview11"
     showgrid="true"
     inkscape:zoom="15.17"
     inkscape:cx="24.521146"
     inkscape:cy="11"
     inkscape:window-x="0"
     inkscape:window-y="30"
     inkscape:window-maximized="1"
     inkscape:current-layer="22-22-svg">
    <inkscape:grid
       type="xygrid"
       id="grid828" />
  </sodipodi:namedview>
  <defs
     id="22-22-defs4">
    <linearGradient
       id="22-22-linearGradient5606"
       osb:paint="solid">
      <stop
         id="22-22-stop5608"
         offset="0"
         style="stop-color:#000000" />
    </linearGradient>
  </defs>
  <rect
     style="fill:#dfdfdf;fill-opacity:0"
     id="22-22-rect6"
     width="22"
     height="22"
     x="0"
     y="31" />
  <g
     id="22-22-device-notifier"
     transform="translate(32.000001,10.000001)">
    <rect
       style="opacity:0"
       id="22-22-rect8"
       width="22"
       height="22"
       x="0"
       y="0" />
    <rect
       style="opacity:0.00100002"
       id="22-22-rect10"
       width="22"
       height="22"
       x="0"
       y="0" />
    <path
       style="fill:#dfdfdf"
       id="22-22-path12"
       d="M 6,3 C 4.892,3 4,3.892 4,5 v 12 c 0,1.108 0.892,2 2,2 h 10 c 1.108,0 2,-0.892 2,-2 V 5 C 18,3.892 17.108,3 16,3 Z m 5,3 4,5 H 7 Z m -4,6 h 8 v 2 H 7 Z"
       inkscape:connector-curvature="0" />
  </g>
  <g
     id="device-notifier">
    <rect
       y="0"
       x="0"
       height="32"
       width="32"
       id="rect823"
       style="opacity:0;stroke-width:1.4545455" />
    <rect
       y="0"
       x="0"
       height="32"
       width="32"
       id="rect825"
       style="opacity:0.00100002;stroke-width:1.4545455" />
    <path
       id="path838"
       d="M 8 4 C 6.3379999 4 5 5.3379999 5 7 L 5 25 C 5 26.662 6.3379999 28 8 28 L 23 28 C 24.662 28 26 26.662 26 25 L 26 7 C 26 5.3379999 24.662 4 23 4 L 8 4 z M 15.5 9 L 21 16 L 10 16 L 15.5 9 z M 10 18 L 21 18 L 21 21 L 10 21 L 10 18 z "
       style="fill:#dfdfdf;stroke-width:1.5" />
  </g>
</svg>
