<svg xmlns="http://www.w3.org/2000/svg" width="32" height="32" version="1.1">
 <g id="22-22-device-notifier" transform="translate(32.000001,10.000001)">
  <rect style="opacity:0.001" width="22" height="22" x="0" y="0"/>
  <path style="fill:#dfdfdf" d="M 6,3 C 4.892,3 4,3.892 4,5 v 12 c 0,1.108 0.892,2 2,2 h 10 c 1.108,0 2,-0.892 2,-2 V 5 C 18,3.892 17.108,3 16,3 Z m 5,3 4,5 H 7 Z m -4,6 h 8 v 2 H 7 Z"/>
 </g>
 <g id="device-notifier">
  <rect style="opacity:0.001" width="32" height="32" x="0" y="0"/>
  <path style="fill:#dfdfdf" d="M 8 4 C 6.3379999 4 5 5.3379999 5 7 L 5 25 C 5 26.662 6.3379999 28 8 28 L 23 28 C 24.662 28 26 26.662 26 25 L 26 7 C 26 5.3379999 24.662 4 23 4 L 8 4 z M 15.5 9 L 21 16 L 10 16 L 15.5 9 z M 10 18 L 21 18 L 21 21 L 10 21 L 10 18 z"/>
 </g>
</svg>
