<svg xmlns="http://www.w3.org/2000/svg" xmlns:osb="http://www.openswatchbook.org/uri/2009/osb" id="svg29" width="22" height="22" version="1.1">
 <defs id="defs4">
  <linearGradient id="linearGradient5606" osb:paint="solid">
   <stop id="stop5608" offset="0" style="stop-color:#000000"/>
  </linearGradient>
 </defs>
 <g id="drive-harddisk">
  <rect style="opacity:0;fill:#dfdfdf" id="rect11" width="22" height="22" x="0" y="0" ry="1.375"/>
  <path style="fill:#dfdfdf;filter:url(#filter7554)" id="path13" d="M 5.166016,3 C 3.99935,3 4,4.142578 4,4.142578 V 17.857422 C 4,17.857422 3.99935,19 5.166016,19 H 16.833984 C 16.833984,19 18,19.000279 18,17.857422 V 4.142578 C 18,4.142578 18.00065,3 16.833984,3 Z M 11,5 c 2.761425,0 5,2.238575 5,5 0,2.761425 -2.238575,5 -5,5 H 6 V 10 C 6,7.238575 8.238573,5 11,5 Z m 0,3 c -1.10457,0 -2,0.89543 -2,2 0,1.10457 0.89543,2 2,2 1.10457,0 2,-0.89543 2,-2 0,-1.10457 -0.89543,-2 -2,-2 z"/>
 </g>
</svg>
