<?xml version="1.0" encoding="UTF-8" standalone="no"?>
<svg
   xmlns:osb="http://www.openswatchbook.org/uri/2009/osb"
   xmlns:dc="http://purl.org/dc/elements/1.1/"
   xmlns:cc="http://creativecommons.org/ns#"
   xmlns:rdf="http://www.w3.org/1999/02/22-rdf-syntax-ns#"
   xmlns:svg="http://www.w3.org/2000/svg"
   xmlns="http://www.w3.org/2000/svg"
   xmlns:sodipodi="http://sodipodi.sourceforge.net/DTD/sodipodi-0.dtd"
   xmlns:inkscape="http://www.inkscape.org/namespaces/inkscape"
   style="enable-background:new"
   id="22-22-svg25"
   width="32"
   height="32"
   version="1.1"
   sodipodi:docname="edit.svg"
   inkscape:version="0.92.3 (2405546, 2018-03-11)">
  <metadata
     id="metadata12">
    <rdf:RDF>
      <cc:Work
         rdf:about="">
        <dc:format>image/svg+xml</dc:format>
        <dc:type
           rdf:resource="http://purl.org/dc/dcmitype/StillImage" />
        <dc:title></dc:title>
      </cc:Work>
    </rdf:RDF>
  </metadata>
  <sodipodi:namedview
     pagecolor="#ffffff"
     bordercolor="#666666"
     borderopacity="1"
     objecttolerance="10"
     gridtolerance="10"
     guidetolerance="10"
     inkscape:pageopacity="0"
     inkscape:pageshadow="2"
     inkscape:window-width="1920"
     inkscape:window-height="1020"
     id="namedview10"
     showgrid="true"
     inkscape:zoom="10.727273"
     inkscape:cx="11"
     inkscape:cy="11"
     inkscape:window-x="0"
     inkscape:window-y="30"
     inkscape:window-maximized="1"
     inkscape:current-layer="22-22-svg25">
    <inkscape:grid
       type="xygrid"
       id="grid833" />
  </sodipodi:namedview>
  <defs
     id="22-22-defs4">
    <linearGradient
       id="22-22-linearGradient5606"
       osb:paint="solid">
      <stop
         id="22-22-stop5608"
         offset="0"
         style="stop-color:#000000" />
    </linearGradient>
  </defs>
  <g
     id="22-22-edit-delete"
     transform="translate(32.000001,10.000001)">
    <rect
       style="opacity:0.00100002"
       id="22-22-rect6"
       width="22"
       height="22"
       x="0"
       y="0" />
    <g
       id="22-22-layer12"
       transform="translate(-445.0004,125.00336)">
      <path
         style="fill:#dfdfdf"
         id="22-22-path8"
         d="m 461.65725,-119.66021 a 8,8 0 0 0 -11.3137,0 8,8 0 0 0 0,11.3137 8,8 0 0 0 11.3137,0 8,8 0 0 0 0,-11.3137 z m -1.22362,3.34494 a 5,5 0 0 1 -0.8977,5.84744 5,5 0 0 1 -5.84329,0.89355 z m -2.12547,-2.11717 -6.74099,6.74099 a 5,5 0 0 1 0.8977,-5.84744 5,5 0 0 1 5.84329,-0.89355 z"
         inkscape:connector-curvature="0" />
    </g>
  </g>
  <g
     id="edit-delete">
    <rect
       y="0"
       x="0"
       height="32"
       width="32"
       id="rect822"
       style="opacity:0.00100002;stroke-width:1.4545455" />
    <path
       id="path840"
       d="M 15.824219 4.0019531 A 12.000013 12.000013 0 0 0 7.515625 7.515625 A 12.000013 12.000013 0 0 0 7.515625 24.484375 A 12.000013 12.000013 0 0 0 24.484375 24.484375 A 12.000013 12.000013 0 0 0 24.484375 7.515625 A 12.000013 12.000013 0 0 0 15.824219 4.0019531 z M 16.119141 8.0078125 A 7.9999018 7.9999018 0 0 1 19.691406 8.9121094 L 8.90625 19.699219 A 7.9999018 7.9999018 0 0 1 10.34375 10.34375 A 7.9999018 7.9999018 0 0 1 16.119141 8.0078125 z M 23.09375 12.298828 A 7.9999018 7.9999018 0 0 1 21.65625 21.65625 A 7.9999018 7.9999018 0 0 1 12.308594 23.087891 L 23.09375 12.298828 z "
       style="fill:#dfdfdf;stroke-width:1.50000155" />
  </g>
</svg>
