<svg xmlns="http://www.w3.org/2000/svg" xmlns:osb="http://www.openswatchbook.org/uri/2009/osb" style="enable-background:new" id="22-22-svg25" width="22" height="22" version="1.1">
 <defs id="22-22-defs4">
  <linearGradient id="22-22-linearGradient5606" osb:paint="solid">
   <stop id="22-22-stop5608" offset="0" style="stop-color:#000000"/>
  </linearGradient>
 </defs>
 <g id="22-22-edit-delete">
  <rect style="opacity:0.00100002" id="22-22-rect6" width="22" height="22" x="0" y="0"/>
  <g id="22-22-layer12" transform="translate(-445.0004,125.00336)">
   <path style="fill:#dfdfdf" id="22-22-path8" d="m 461.65725,-119.66021 a 8,8 0 0 0 -11.3137,0 8,8 0 0 0 0,11.3137 8,8 0 0 0 11.3137,0 8,8 0 0 0 0,-11.3137 z m -1.22362,3.34494 a 5,5 0 0 1 -0.8977,5.84744 5,5 0 0 1 -5.84329,0.89355 z m -2.12547,-2.11717 -6.74099,6.74099 a 5,5 0 0 1 0.8977,-5.84744 5,5 0 0 1 5.84329,-0.89355 z"/>
  </g>
 </g>
</svg>
