<svg xmlns="http://www.w3.org/2000/svg" id="svg24" width="22" height="22" version="1.1">
 <g id="face-laughing">
  <rect style="opacity:0.00100002" id="rect2" width="22" height="22" x="0" y="0"/>
  <path style="fill:#dfdfdf" id="path4" d="m 11,3 a 8,8 0 0 0 -8,8 8,8 0 0 0 8,8 8,8 0 0 0 8,-8 8,8 0 0 0 -8,-8 z M 8,7 A 2,2 0 0 1 10,9 2,2 0 0 1 8,11 2,2 0 0 1 6,9 2,2 0 0 1 8,7 Z m 6,0 a 2,2 0 0 1 2,2 2,2 0 0 1 -2,2 2,2 0 0 1 -2,-2 2,2 0 0 1 2,-2 z m -7.0625,4.986328 a 1.0001,1.0001 0 0 1 0.099609,0 1.0001,1.0001 0 0 1 0.953125,0.867188 c 0,0 0.075177,0.506001 0.4785156,1.050781 C 8.8720887,14.449077 9.5021818,15 11,15 c 1.497818,0 2.127911,-0.550923 2.53125,-1.095703 0.403336,-0.544781 0.478516,-1.050781 0.478516,-1.050781 a 1.00101,1.00101 0 1 1 1.980468,0.292968 c 0,0 -0.144347,0.994 -0.851562,1.949219 C 14.431457,16.050923 13.059966,17 11,17 8.9400341,17 7.5685434,16.050923 6.8613281,15.095703 6.1541128,14.140483 6.0097656,13.146484 6.0097656,13.146484 A 1.0001,1.0001 0 0 1 6.9375,11.986328 Z"/>
 </g>
</svg>
