<svg xmlns="http://www.w3.org/2000/svg" xmlns:osb="http://www.openswatchbook.org/uri/2009/osb" style="enable-background:new" id="22-22-svg132" width="22" height="22" version="1.1">
 <defs id="22-22-defs4">
  <linearGradient id="22-22-linearGradient5606" osb:paint="solid">
   <stop id="22-22-stop5608" offset="0" style="stop-color:#000000"/>
  </linearGradient>
 </defs>
 <g id="22-22-go-home" transform="translate(-465.0004,105.00336)">
  <path style="opacity:0;fill-opacity:0.3254902" id="22-22-path6" d="m 465.0004,-105.00336 h 22 v 22.000003 h -22 z"/>
  <path style="fill:#dfdfdf" id="22-22-path8" d="m 468.0004,-94.00336 h 2 v 8 h 5 v -4 h 2 v 4 h 5 v -8 h 2 l -8,-8 z"/>
 </g>
 <g id="22-22-go-up" transform="translate(-465.0004,105.00336)">
  <path style="opacity:0;fill-opacity:0.3254902" id="22-22-path11" d="m 489.0004,-105.00336 v 22 h 22 v -22 z"/>
  <path style="fill:#dfdfdf" id="22-22-path13" d="m 491.5004,-93.976987 2.11644,2.123305 4.36736,-4.379438 v 10.229758 h 2.99342 v -10.264919 l 4.40439,4.414599 2.11839,-2.123305 -8,-8.026373 z"/>
 </g>
 <g id="22-22-go-down" transform="matrix(1,0,0,-1,-441.0004,-83.003363)">
  <path style="opacity:0;fill-opacity:0.3254902" id="22-22-path16" d="m 489.0004,-105.00336 v 22 h 22 v -22 z"/>
  <path style="fill:#dfdfdf" id="22-22-path18" d="m 491.5004,-93.976987 2.11644,2.123305 4.36736,-4.379438 v 10.229758 h 2.99342 v -10.264919 l 4.40439,4.414599 2.11839,-2.123305 -8,-8.026373 z"/>
 </g>
 <g id="22-22-go-previous" transform="translate(-465.0004,105.00336)">
  <path style="opacity:0;fill-opacity:0.3254902" id="22-22-path21" d="m 537.0004,-105.00336 h 22 v 22 h -22 z"/>
  <path style="fill:#dfdfdf" id="22-22-path23" d="m 548.02677,-102.50336 2.12331,2.11644 -4.37944,4.36736 h 10.22976 v 2.99342 h -10.26492 l 4.4146,4.40439 -2.12331,2.11839 -8.02637,-8 z"/>
 </g>
 <g id="22-22-go-next" transform="matrix(-1,0,0,1,655.0004,105.00336)">
  <path style="opacity:0;fill-opacity:0.3254902" id="22-22-path26" d="m 537.0004,-105.00336 h 22 v 22 h -22 z"/>
  <path style="fill:#dfdfdf" id="22-22-path28" d="m 548.02677,-102.50336 2.12331,2.11644 -4.37944,4.36736 h 10.22976 v 2.99342 h -10.26492 l 4.4146,4.40439 -2.12331,2.11839 -8.02637,-8 z"/>
 </g>
</svg>
