<svg xmlns="http://www.w3.org/2000/svg" xmlns:osb="http://www.openswatchbook.org/uri/2009/osb" style="enable-background:new" id="22-22-svg132" width="32" height="32" version="1.1">
 <defs id="22-22-defs4">
  <linearGradient id="22-22-linearGradient5606" osb:paint="solid">
   <stop id="22-22-stop5608" offset="0" style="stop-color:#000000"/>
  </linearGradient>
 </defs>
 <g id="22-22-go-home" transform="translate(-465.0004,83.003354)">
  <path style="opacity:0;fill-opacity:0.3254902" id="22-22-path6" d="m 465.0004,-105.00336 h 22 v 22.000003 h -22 z"/>
  <path style="fill:#dfdfdf" id="22-22-path8" d="m 468.0004,-94.00336 h 2 v 8 h 5 v -4 h 2 v 4 h 5 v -8 h 2 l -8,-8 z"/>
 </g>
 <g id="22-22-go-up" transform="translate(-457.0004,83.003357)">
  <path style="opacity:0;fill-opacity:0.3254902" id="22-22-path11" d="m 489.0004,-105.00336 v 22 h 22 v -22 z"/>
  <path style="fill:#dfdfdf" id="22-22-path13" d="m 491.5004,-93.976987 2.11644,2.123305 4.36736,-4.379438 v 10.229758 h 2.99342 v -10.264919 l 4.40439,4.414599 2.11839,-2.123305 -8,-8.026373 z"/>
 </g>
 <g id="22-22-go-down" transform="matrix(1,0,0,-1,-425.0004,-105.00336)">
  <path style="opacity:0;fill-opacity:0.3254902" id="22-22-path16" d="m 489.0004,-105.00336 v 22 h 22 v -22 z"/>
  <path style="fill:#dfdfdf" id="22-22-path18" d="m 491.5004,-93.976987 2.11644,2.123305 4.36736,-4.379438 v 10.229758 h 2.99342 v -10.264919 l 4.40439,4.414599 2.11839,-2.123305 -8,-8.026373 z"/>
 </g>
 <g id="22-22-go-previous" transform="translate(-441.0004,83.003357)">
  <path style="opacity:0;fill-opacity:0.3254902" id="22-22-path21" d="m 537.0004,-105.00336 h 22 v 22 h -22 z"/>
  <path style="fill:#dfdfdf" id="22-22-path23" d="m 548.02677,-102.50336 2.12331,2.11644 -4.37944,4.36736 h 10.22976 v 2.99342 h -10.26492 l 4.4146,4.40439 -2.12331,2.11839 -8.02637,-8 z"/>
 </g>
 <g id="22-22-go-next" transform="matrix(-1,0,0,1,687.0004,83.003357)">
  <path style="opacity:0;fill-opacity:0.3254902" id="22-22-path26" d="m 537.0004,-105.00336 h 22 v 22 h -22 z"/>
  <path style="fill:#dfdfdf" id="22-22-path28" d="m 548.02677,-102.50336 2.12331,2.11644 -4.37944,4.36736 h 10.22976 v 2.99342 h -10.26492 l 4.4146,4.40439 -2.12331,2.11839 -8.02637,-8 z"/>
 </g>
 <g id="go-home" transform="translate(3.4089999e-7,1.88644e-6)">
  <path id="path830" d="M -6.8179997e-7,-4.77288e-6 H 32 V 32.000001 H -6.8179997e-7 Z" style="opacity:0;fill-opacity:0.3254902;stroke-width:1.4545455"/>
  <path id="path832" d="m 3.9999999,16 h 3 V 28 H 14 v -6 h 4 v 6 h 7 V 16 h 3 L 16,4 Z" style="fill:#dfdfdf;stroke-width:1.5"/>
 </g>
 <g id="go-up" transform="translate(31.999999,1.88644e-6)">
  <path id="path844" d="M 1.3182e-6,-4.77288e-6 V 31.999996 H 32.000002 V -4.77288e-6 Z" style="opacity:0;fill-opacity:0.3254902;stroke-width:1.4545455"/>
  <path id="path856" d="M 14.658203,6.5175781 4.1582031,16.017578 6.8417969,18.982422 14,12.505859 V 28 h 4 V 12.505859 l 7.158203,6.476563 2.683594,-2.964844 -10.5,-9.4999999 L 16,5.3 Z" style="color:#000000;font-style:normal;font-variant:normal;font-weight:normal;font-stretch:normal;font-size:medium;line-height:normal;font-family:sans-serif;font-variant-ligatures:normal;font-variant-position:normal;font-variant-caps:normal;font-variant-numeric:normal;font-variant-alternates:normal;font-feature-settings:normal;text-indent:0;text-align:start;text-decoration:none;text-decoration-line:none;text-decoration-style:solid;text-decoration-color:#000000;letter-spacing:normal;word-spacing:normal;text-transform:none;writing-mode:lr-tb;direction:ltr;text-orientation:mixed;dominant-baseline:auto;baseline-shift:baseline;text-anchor:start;white-space:normal;shape-padding:0;clip-rule:nonzero;display:inline;overflow:visible;visibility:visible;opacity:1;isolation:auto;mix-blend-mode:normal;color-interpolation:sRGB;color-interpolation-filters:linearRGB;solid-color:#000000;solid-opacity:1;vector-effect:none;fill:#dfdfdf;fill-opacity:1;fill-rule:nonzero;stroke:none;stroke-width:4;stroke-linecap:butt;stroke-linejoin:miter;stroke-miterlimit:4;stroke-dasharray:none;stroke-dashoffset:0;stroke-opacity:1;color-rendering:auto;image-rendering:auto;shape-rendering:auto;text-rendering:auto;enable-background:accumulate"/>
 </g>
 <g id="go-down" transform="matrix(1,0,0,-1,64,31.999993)">
  <path style="opacity:0;fill-opacity:0.3254902;stroke-width:1.4545455" id="path865" d="M 1.3182e-6,-4.77288e-6 V 31.999996 H 32.000002 V -4.77288e-6 Z"/>
  <path style="color:#000000;font-style:normal;font-variant:normal;font-weight:normal;font-stretch:normal;font-size:medium;line-height:normal;font-family:sans-serif;font-variant-ligatures:normal;font-variant-position:normal;font-variant-caps:normal;font-variant-numeric:normal;font-variant-alternates:normal;font-feature-settings:normal;text-indent:0;text-align:start;text-decoration:none;text-decoration-line:none;text-decoration-style:solid;text-decoration-color:#000000;letter-spacing:normal;word-spacing:normal;text-transform:none;writing-mode:lr-tb;direction:ltr;text-orientation:mixed;dominant-baseline:auto;baseline-shift:baseline;text-anchor:start;white-space:normal;shape-padding:0;clip-rule:nonzero;display:inline;overflow:visible;visibility:visible;opacity:1;isolation:auto;mix-blend-mode:normal;color-interpolation:sRGB;color-interpolation-filters:linearRGB;solid-color:#000000;solid-opacity:1;vector-effect:none;fill:#dfdfdf;fill-opacity:1;fill-rule:nonzero;stroke:none;stroke-width:4;stroke-linecap:butt;stroke-linejoin:miter;stroke-miterlimit:4;stroke-dasharray:none;stroke-dashoffset:0;stroke-opacity:1;color-rendering:auto;image-rendering:auto;shape-rendering:auto;text-rendering:auto;enable-background:accumulate" id="path867" d="M 14.658203,6.5175781 4.1582031,16.017578 6.8417969,18.982422 14,12.505859 V 28 h 4 V 12.505859 l 7.158203,6.476563 2.683594,-2.964844 -10.5,-9.4999999 L 16,5.3 Z"/>
 </g>
 <g id="go-previous" transform="matrix(0,1,1,0,96.000007,-4.22712e-6)">
  <path id="path871" d="M 1.3182e-6,-4.77288e-6 V 31.999996 H 32.000002 V -4.77288e-6 Z" style="opacity:0;fill-opacity:0.3254902;stroke-width:1.4545455"/>
  <path id="path873" d="M 14.658203,6.5175781 4.1582031,16.017578 6.8417969,18.982422 14,12.505859 V 28 h 4 V 12.505859 l 7.158203,6.476563 2.683594,-2.964844 -10.5,-9.4999999 L 16,5.3 Z" style="color:#000000;font-style:normal;font-variant:normal;font-weight:normal;font-stretch:normal;font-size:medium;line-height:normal;font-family:sans-serif;font-variant-ligatures:normal;font-variant-position:normal;font-variant-caps:normal;font-variant-numeric:normal;font-variant-alternates:normal;font-feature-settings:normal;text-indent:0;text-align:start;text-decoration:none;text-decoration-line:none;text-decoration-style:solid;text-decoration-color:#000000;letter-spacing:normal;word-spacing:normal;text-transform:none;writing-mode:lr-tb;direction:ltr;text-orientation:mixed;dominant-baseline:auto;baseline-shift:baseline;text-anchor:start;white-space:normal;shape-padding:0;clip-rule:nonzero;display:inline;overflow:visible;visibility:visible;opacity:1;isolation:auto;mix-blend-mode:normal;color-interpolation:sRGB;color-interpolation-filters:linearRGB;solid-color:#000000;solid-opacity:1;vector-effect:none;fill:#dfdfdf;fill-opacity:1;fill-rule:nonzero;stroke:none;stroke-width:4;stroke-linecap:butt;stroke-linejoin:miter;stroke-miterlimit:4;stroke-dasharray:none;stroke-dashoffset:0;stroke-opacity:1;color-rendering:auto;image-rendering:auto;shape-rendering:auto;text-rendering:auto;enable-background:accumulate"/>
 </g>
 <g id="go-next" transform="rotate(90,80.000003,79.999999)">
  <path style="opacity:0;fill-opacity:0.3254902;stroke-width:1.4545455" id="path877" d="M 1.3182e-6,-4.77288e-6 V 31.999996 H 32.000002 V -4.77288e-6 Z"/>
  <path style="color:#000000;font-style:normal;font-variant:normal;font-weight:normal;font-stretch:normal;font-size:medium;line-height:normal;font-family:sans-serif;font-variant-ligatures:normal;font-variant-position:normal;font-variant-caps:normal;font-variant-numeric:normal;font-variant-alternates:normal;font-feature-settings:normal;text-indent:0;text-align:start;text-decoration:none;text-decoration-line:none;text-decoration-style:solid;text-decoration-color:#000000;letter-spacing:normal;word-spacing:normal;text-transform:none;writing-mode:lr-tb;direction:ltr;text-orientation:mixed;dominant-baseline:auto;baseline-shift:baseline;text-anchor:start;white-space:normal;shape-padding:0;clip-rule:nonzero;display:inline;overflow:visible;visibility:visible;opacity:1;isolation:auto;mix-blend-mode:normal;color-interpolation:sRGB;color-interpolation-filters:linearRGB;solid-color:#000000;solid-opacity:1;vector-effect:none;fill:#dfdfdf;fill-opacity:1;fill-rule:nonzero;stroke:none;stroke-width:4;stroke-linecap:butt;stroke-linejoin:miter;stroke-miterlimit:4;stroke-dasharray:none;stroke-dashoffset:0;stroke-opacity:1;color-rendering:auto;image-rendering:auto;shape-rendering:auto;text-rendering:auto;enable-background:accumulate" id="path879" d="M 14.658203,6.5175781 4.1582031,16.017578 6.8417969,18.982422 14,12.505859 V 28 h 4 V 12.505859 l 7.158203,6.476563 2.683594,-2.964844 -10.5,-9.4999999 L 16,5.3 Z"/>
 </g>
</svg>
