<?xml version="1.0" encoding="UTF-8" standalone="no"?>
<svg
   xmlns:dc="http://purl.org/dc/elements/1.1/"
   xmlns:cc="http://creativecommons.org/ns#"
   xmlns:rdf="http://www.w3.org/1999/02/22-rdf-syntax-ns#"
   xmlns:svg="http://www.w3.org/2000/svg"
   xmlns="http://www.w3.org/2000/svg"
   xmlns:sodipodi="http://sodipodi.sourceforge.net/DTD/sodipodi-0.dtd"
   xmlns:inkscape="http://www.inkscape.org/namespaces/inkscape"
   id="22-22-svg22"
   width="32"
   height="32"
   version="1.1"
   sodipodi:docname="image.svg"
   inkscape:version="0.92.3 (2405546, 2018-03-11)">
  <metadata
     id="metadata10">
    <rdf:RDF>
      <cc:Work
         rdf:about="">
        <dc:format>image/svg+xml</dc:format>
        <dc:type
           rdf:resource="http://purl.org/dc/dcmitype/StillImage" />
        <dc:title></dc:title>
      </cc:Work>
    </rdf:RDF>
  </metadata>
  <defs
     id="defs8" />
  <sodipodi:namedview
     pagecolor="#ffffff"
     bordercolor="#666666"
     borderopacity="1"
     objecttolerance="10"
     gridtolerance="10"
     guidetolerance="10"
     inkscape:pageopacity="0"
     inkscape:pageshadow="2"
     inkscape:window-width="1920"
     inkscape:window-height="1020"
     id="namedview6"
     showgrid="true"
     inkscape:zoom="9.3396602"
     inkscape:cx="11"
     inkscape:cy="11"
     inkscape:window-x="0"
     inkscape:window-y="30"
     inkscape:window-maximized="1"
     inkscape:current-layer="22-22-svg22">
    <inkscape:grid
       type="xygrid"
       id="grid825" />
  </sodipodi:namedview>
  <g
     id="22-22-image-x-generic"
     transform="translate(27,5)">
    <rect
       style="opacity:0.00100002"
       id="22-22-rect2"
       width="22"
       height="22"
       x="5"
       y="5" />
    <path
       style="fill:#dfdfdf"
       id="22-22-path4"
       d="M 9.142857,9 C 8,9 8,10.166667 8,10.166667 V 21.833333 C 8,23 9.142857,23 9.142857,23 H 22.857143 C 22.857143,23 24,23 24,21.833333 V 10.166667 C 24,9 22.857143,9 22.857143,9 Z M 13.5,14 l 3.7,4 2.8,-2 2,2.695 V 21 H 10 v -3.25 z"
       inkscape:connector-curvature="0" />
  </g>
  <g
     id="image-x-generic">
    <rect
       y="-5e-07"
       x="-5e-07"
       height="32"
       width="32"
       id="rect817"
       style="opacity:0.00100002;stroke-width:1.4545455" />
    <path
       sodipodi:nodetypes="scsccsscscccccccc"
       d="M 5.7142855,5.0000003 C 4,5.0000003 4,6.7500008 4,6.7500008 V 24.25 C 4,26 5.7142855,26 5.7142855,26 H 26.285714 C 26.285714,26 28,26 28,24.25 V 6.7500008 C 28,5.0000003 26.285714,5.0000003 26.285714,5.0000003 Z M 12,12.500001 l 6,6 4,-3 3,4.042499 v 3.457501 H 7 v -4.875 z"
       id="path819"
       style="fill:#dfdfdf;stroke-width:1.5"
       inkscape:connector-curvature="0" />
  </g>
</svg>
