<svg xmlns="http://www.w3.org/2000/svg" xmlns:osb="http://www.openswatchbook.org/uri/2009/osb" id="svg" width="22" height="22" version="1.1" viewBox="0 0 22 22">
 <defs id="defs4">
  <linearGradient id="linearGradient5606" osb:paint="solid">
   <stop id="stop5608" offset="0" style="stop-color:#000000"/>
  </linearGradient>
 </defs>
 <g id="input-mouse-battery" transform="translate(224)">
  <rect style="opacity:0;fill:#0000ff" id="rect6" width="22" height="22" x="0" y="0"/>
  <path style="fill:#dfdfdf" id="path8" d="M 10,3 C 7.1891901,3.2515385 5,5.6018325 5,8.484375 v 0.5 h 5 z m 1,0 v 5.984375 h 5 v -0.5 C 16,5.6018325 13.81081,3.2515385 11,3 Z M 5,9.9863281 V 13.492188 C 5,16.543658 7.4530001,19 10.5,19 13.547,19 16,16.543658 16,13.492188 V 9.9863281 H 11 10 Z M 11,11 v 3 h 2 l -3,4 V 15 H 8 Z"/>
 </g>
 <g id="input-keyboard-battery" transform="translate(192)">
  <rect style="opacity:0;fill:#0000ff" id="rect11" width="22" height="22" x="0" y="0"/>
  <path style="fill:#dfdfdf" id="path13" d="m 5,4.9999998 c -1.108,0 -2,0.892 -2,2.0000001 V 15 c 0,1.108 0.892,2 2,2 h 12 c 1.108,0 2,-0.892 2,-2 V 6.9999999 C 19,5.8919998 18.108,4.9999998 17,4.9999998 Z M 4,6.9999999 h 2 v 2 H 4 Z m 3,0 h 2 v 2 H 7 Z m 3,0 h 2 v 2 h -2 z m 3,0 h 2 v 2 h -2 z m 3,0 h 2 v 2 H 16 V 12 h 2 l -3,4 v -3 h -2 l 3,-4.0000001 z m -12,3 H 6 V 12 H 4 Z m 3,0 H 9 V 12 H 7 Z m 3,0 h 2 V 12 H 10 Z M 5,13 h 7 v 2 H 5 Z"/>
 </g>
 <g id="input-keyboard-brightness" transform="translate(96)">
  <rect style="opacity:0;fill:#0000ff" id="rect16" width="22" height="22" x="0" y="0"/>
  <path style="fill:#dfdfdf" id="path18" d="M 5,5 C 3.892,5 3,5.892 3,7 v 8 c 0,1.108 0.892,2 2,2 h 12 c 1.108,0 2,-0.892 2,-2 V 7 C 19,5.892 18.108,5 17,5 Z M 4,7 H 6 V 9 H 4 Z M 7,7 H 9 V 9 H 7 Z m 3,0 h 2 v 2 h -2 z m 3,0 h 2 v 2 h -2 z m 3,0 h 2 V 9 H 16 Z M 4,10 h 2 v 2 H 4 Z m 3,0 h 2 v 2 H 7 Z m 3,0 h 2 v 2 h -2 z m 5.5,0 C 16.880712,10 18,11.119288 18,12.5 18,13.880712 16.880712,15 15.5,15 14.119288,15 13,13.880712 13,12.5 13,11.119288 14.119288,10 15.5,10 Z M 15,11 v 3 c 0.828427,0 2,0 2,-1.5 C 17,11 15.828427,11 15,11 Z M 5,13 h 7 v 2 H 5 Z"/>
 </g>
 <g id="input-keyboard" transform="translate(-12,24)">
  <rect style="opacity:0;fill:#0000ff" id="rect213" width="22" height="22" x="12" y="-24"/>
  <path style="fill:#dfdfdf" id="path215" d="m 17,-19 c -1.108,0 -2,0.892 -2,2 v 8 c 0,1.108 0.892,2 2,2 h 12 c 1.108,0 2,-0.892 2,-2 v -8 c 0,-1.108 -0.892,-2 -2,-2 z m -1,2 h 2 v 2 h -2 z m 3,0 h 2 v 2 h -2 z m 3,0 h 2 v 2 h -2 z m 3,0 h 2 v 2 h -2 z m 3,0 h 2 v 2 h -2 z m -12,3 h 2 v 2 h -2 z m 3,0 h 2 v 2 h -2 z m 3,0 h 2 v 2 h -2 z m 3,0 h 2 v 2 h -2 z m 3,0 h 2 v 2 h -2 z m -11,3 h 6 1 5 v 2 h -5 -1 -6 z"/>
 </g>
 <g id="input-caps-on" transform="translate(-16,52)">
  <rect style="opacity:0;fill:#0000ff" id="rect218" width="22" height="22" x="48" y="-52"/>
  <path style="fill:#dfdfdf" id="path220" d="m 53,-47 c -1.108,0 -2,0.892 -2,2 v 8 c 0,1.108 0.892,2 2,2 h 12 c 1.108,0 2,-0.892 2,-2 v -8 c 0,-1.108 -0.892,-2 -2,-2 z m -1,2 h 2 v 2 h -2 z m 3,0 h 2 v 2 h -2 z m 3,0 h 2 v 2 h -2 z m 3,0 h 2 v 2 h -2 z m 3,0 h 2 v 2 h -2 z m -12,3 h 2 v 2 h -2 z m 3,0 h 2 v 2 h -2 z m 3,0 h 2 v 2 h -2 z m 4,0 h 3 v 1 h -2 v 3 h 2 v 1 h -3 z m -9,3 h 7 v 2 h -7 z"/>
 </g>
 <g id="input-touchpad-on" transform="translate(-393.0002,229.00336)" style="filter:url(#filter7554);enable-background:new">
  <path style="opacity:0" id="path348" d="m 425.0002,-165.00336 h 22 c 0,0 0,0 0,0 v 22 c 0,0 0,0 0,0 h -22 c 0,0 0,0 0,0 v -22 c 0,0 0,0 0,0 z"/>
  <path style="fill:#dfdfdf" id="path350" d="m 428.19942,-162.00336 c -1.2,0 -1.19922,1.23047 -1.19922,1.23047 v 13.53906 c 0,0 -7.8e-4,1.23047 1.19922,1.23047 h 15.60156 c 0,0 1.19922,3e-4 1.19922,-1.23047 v -13.53906 c 0,-1.23077 -1.19922,-1.23047 -1.19922,-1.23047 z m 12.80078,2 h 2 v 1 h -2 z m 0,2 h 2 v 1 h -2 z m 0,2 h 2 v 1 h -2 z m 0,2 h 2 v 1 h -2 z m -12,3 h 6 v 3 h -6 z m 8,0 h 6 v 3 h -6 z"/>
 </g>
 <g id="input-touchpad-off" transform="translate(-415.0002,197.00336)" style="filter:url(#filter7554);enable-background:new">
  <path style="opacity:0" id="path353" d="m 447.0002,-165.00336 h 22 c 0,0 0,0 0,0 v 22 c 0,0 0,0 0,0 h -22 c 0,0 0,0 0,0 v -22 c 0,0 0,0 0,0 z"/>
  <path id="222" d="m 450.19942,-162.00336 c -1.2,0 -1.19922,1.23047 -1.19922,1.23047 v 13.53906 c 0,0 -7.8e-4,1.23047 1.19922,1.23047 h 15.60156 c 0,0 1.19922,3e-4 1.19922,-1.23047 v -13.53906 c 0,-1.23077 -1.19922,-1.23047 -1.19922,-1.23047 z m 12.80078,2 h 2 v 1 h -2 z m 0,2 h 2 v 1 h -2 z m 0,2 h 2 v 1 h -2 z m 0,2 h 2 v 1 h -2 z m -12,3 h 6 v 3 h -6 z m 8,0 h 6 v 3 h -6 z" style="opacity:0.3;fill:#dfdfdf"/>
 </g>
 <g id="input-num-on" transform="translate(32,-10)">
  <rect style="opacity:0;fill:#0000ff" id="rect414" width="22" height="22" x="32" y="10"/>
  <path style="fill:#dfdfdf" id="path416" d="m 37,15 c -1.108,0 -2,0.892 -2,2 v 8 c 0,1.108 0.892,2 2,2 h 12 c 1.108,0 2,-0.892 2,-2 v -8 c 0,-1.108 -0.892,-2 -2,-2 z m -1,2 h 2 v 2 h -2 z m 3,0 h 2 v 2 h -2 z m 3,0 h 2 v 2 h -2 z m 3,0 h 2 v 2 h -2 z m 3,0 h 2 v 2 h -2 z m -12,3 h 2 v 2 h -2 z m 3,0 h 2 v 2 h -2 z m 3,0 h 2 v 2 h -2 z m 5,0 h 1 v 4 h 1 v 1 h -1 -1 -1 v -1 h 1 v -2 h -1 v -1 h 1 z m -10,3 h 7 v 2 h -7 z"/>
 </g>
 <g id="input-keyboard-virtual-on" transform="translate(0,22)">
  <rect style="opacity:0.00100002" id="rect465" width="22" height="22" x="128" y="-22"/>
  <path style="fill:#dfdfdf" id="path467" d="m 133,-17 c -1.108,0 -2,0.892 -2,2 v 8 c 0,1.108 0.892,2 2,2 h 8.77148 c -0.18402,-0.2205141 -0.36641,-0.4364742 -0.5625,-0.6933594 -0.31598,-0.3746643 -0.57904,-0.6734087 -0.79296,-0.9746094 C 140.34544,-6.7673366 140.27166,-6.8796791 140.20312,-7 H 140 h -1 -6 v -2 h 6 1 1 v 0.037109 c 0.21075,-0.042375 0.38695,-0.041868 0.52539,-0.025391 0.36179,0.043061 0.63174,0.1432842 0.74805,0.1757812 0.36644,0.1023848 0.50078,0.2933156 0.72851,0.46875 -0.001,-0.1244683 -0.001,-0.129352 -0.002,-0.2734375 -0.004,-0.6039956 -5.5e-4,-0.919825 0,-1.3828127 h -2 v -2 h 2 v 0.900391 c 0,-0.2 -0.0323,-0.505166 0.12109,-0.935547 0.0767,-0.215191 0.22556,-0.480258 0.48633,-0.677735 C 143.8682,-12.91037 144.20814,-13 144.5,-13 H 144 v -2 h 2 v 2 h -1.5 c 0.29186,0 0.63182,0.08962 0.89258,0.287109 0.26077,0.19748 0.40963,0.462546 0.48633,0.677735 0.15334,0.430377 0.11914,0.735547 0.11914,0.935547 9.5e-4,0.05051 -3.1e-4,0.187935 0,0.259765 0.13451,0.04671 0.27783,0.04005 0.39257,0.126953 0.2608,0.197477 0.40963,0.462544 0.48633,0.677735 0.0265,0.075487 0.005,0.096152 0.0215,0.1640622 0.0338,0.00924 0.0675,0.016449 0.10156,0.023438 V -15 c 0,-1.108 -0.892,-2 -2,-2 z m -1,2 h 2 v 2 h -2 z m 3,0 h 2 v 2 h -2 z m 3,0 h 2 v 2 h -2 z m 3,0 h 2 v 2 h -2 z m -9,3 h 2 v 2 h -2 z m 3,0 h 2 v 2 h -2 z m 3,0 h 2 v 2 h -2 z m 6.5,0 c -0.49921,0 -0.5,0.500391 -0.5,0.900391 -0.006,0.353102 -0.007,1.3892961 0,2.4765621 0.0106,1.738042 0.0208,1.9858019 0,2.0605469 -0.887,-0.201593 -1.23378,-1.0741184 -1.99609,-1.2871094 -0.32069,-0.0896 -0.9374,-0.3096352 -0.99805,0.027344 -0.0548,0.304659 0.32409,0.7224285 0.99805,1.5234375 1.05975,1.388365 1.97658,2.2235766 2.1582,2.2753906 0.11105,0.03173 2.98851,0.03163 3.10351,0 0.0522,-0.01437 0.12574,-0.061689 0.17969,-0.1152344 0.0756,-0.07504 0.10339,-0.1290718 0.16211,-0.3105469 0.16811,-0.5195749 0.3392,-1.1117052 0.38672,-1.5507812 0.0117,-0.287465 0.003,-0.5282775 0,-0.7890625 0,-0.515182 0.004,-0.1206719 0,-0.3105469 0,-0.4 -8e-4,-0.9003906 -0.5,-0.9003906 -0.49921,0 -0.49805,0.5003906 -0.49805,0.9003906 8.6e-4,-0.404087 0.003,-0.855117 0,-1 0,-0.4 -8e-4,-0.9003906 -0.5,-0.9003906 -0.4992,0 -0.49804,0.5003906 -0.49804,0.9003906 8.6e-4,-0.404085 0.003,-0.855117 0,-1 0,-0.4 -7.9e-4,-0.9003906 -0.5,-0.9003906 -0.4992,0 -0.5,0.5003906 -0.5,0.9003906 0.001,-0.219947 0,-0.2746231 0,-0.6894531 0,-0.5151817 0.004,-1.1206717 0,-1.3105467 0,-0.4 0.001,-0.900391 -0.49805,-0.900391 z"/>
 </g>
 <g id="input-keyboard-virtual-off" transform="translate(0,22)">
  <rect style="opacity:0.00100002" id="rect470" width="22" height="22" x="160" y="-22"/>
  <path style="opacity:0.3;fill:#dfdfdf" id="path472" d="m 165,-17 c -1.108,0 -2,0.892 -2,2 v 8 c 0,1.108 0.892,2 2,2 h 7.00781 a 5,5 0 0 1 -0.90234,-2 H 171 165 v -2 h 6 0.10156 a 5,5 0 0 1 0.31836,-1 H 170 v -2 h 2 v 1.009766 a 5,5 0 0 1 1,-1.001954 V -12 h 0.01 a 5,5 0 0 1 2.99,-1 v -2 h 2 v 2 h -2 a 5,5 0 0 1 3,1.007812 V -15 c 0,-1.108 -0.892,-2 -2,-2 z m -1,2 h 2 v 2 h -2 z m 3,0 h 2 v 2 h -2 z m 3,0 h 2 v 2 h -2 z m 3,0 h 2 v 2 h -2 z m -9,3 h 2 v 2 h -2 z m 3,0 h 2 v 2 h -2 z"/>
  <path style="fill:#dfdfdf" id="path474" d="m 176,-12 c -2.2091,0 -4,1.7909 -4,4 0,2.2091 1.7909,4 4,4 2.2091,0 4,-1.7909 4,-4 0,-2.2091 -1.7909,-4 -4,-4 z m -1.64258,1.632812 -0.004,0.01367 1.64648,1.6464848 1.64648,-1.6464848 0.70704,0.7070316 L 176.70703,-8 l 1.64649,1.6464844 -0.70704,0.7070312 -1.64257,-1.6601562 -1.64649,1.6464844 -0.70703,-0.7070313 1.64649,-1.6464844 -1.64649,-1.6464843 z"/>
 </g>
</svg>
