<?xml version="1.0" encoding="UTF-8" standalone="no"?>
<svg
   xmlns:dc="http://purl.org/dc/elements/1.1/"
   xmlns:cc="http://creativecommons.org/ns#"
   xmlns:rdf="http://www.w3.org/1999/02/22-rdf-syntax-ns#"
   xmlns:svg="http://www.w3.org/2000/svg"
   xmlns="http://www.w3.org/2000/svg"
   xmlns:sodipodi="http://sodipodi.sourceforge.net/DTD/sodipodi-0.dtd"
   xmlns:inkscape="http://www.inkscape.org/namespaces/inkscape"
   id="22-22-svg26"
   width="32"
   height="32"
   version="1"
   sodipodi:docname="internet.svg"
   inkscape:version="0.92.3 (2405546, 2018-03-11)">
  <metadata
     id="metadata10">
    <rdf:RDF>
      <cc:Work
         rdf:about="">
        <dc:format>image/svg+xml</dc:format>
        <dc:type
           rdf:resource="http://purl.org/dc/dcmitype/StillImage" />
        <dc:title></dc:title>
      </cc:Work>
    </rdf:RDF>
  </metadata>
  <defs
     id="defs8" />
  <sodipodi:namedview
     pagecolor="#ffffff"
     bordercolor="#666666"
     borderopacity="1"
     objecttolerance="10"
     gridtolerance="10"
     guidetolerance="10"
     inkscape:pageopacity="0"
     inkscape:pageshadow="2"
     inkscape:window-width="1920"
     inkscape:window-height="1020"
     id="namedview6"
     showgrid="true"
     inkscape:zoom="11.51"
     inkscape:cx="11"
     inkscape:cy="11"
     inkscape:window-x="0"
     inkscape:window-y="30"
     inkscape:window-maximized="1"
     inkscape:current-layer="22-22-svg26">
    <inkscape:grid
       type="xygrid"
       id="grid825" />
  </sodipodi:namedview>
  <g
     id="22-22-internet-web-browser"
     transform="translate(27,5.0000005)">
    <rect
       style="opacity:0.00100002"
       id="22-22-rect21"
       width="22"
       height="22"
       x="5"
       y="5" />
    <path
       style="fill:#dfdfdf"
       id="22-22-path23"
       d="m 16,8 c -4.42,0 -8,3.58 -8,8 0,4.42 3.58,8 8,8 4.42,0 8,-3.58 8,-8 0,-4.42 -3.58,-8 -8,-8 z m 4.86,3.14 -3.25,6.47 -6.47,3.25 3.25,-6.47 z m -4.86,4 c -0.47,0 -0.86,0.39 -0.86,0.86 0,0.47 0.39,0.86 0.86,0.86 0.47,0 0.86,-0.39 0.86,-0.86 0,-0.47 -0.39,-0.86 -0.86,-0.86 z"
       inkscape:connector-curvature="0" />
  </g>
  <g
     id="internet-web-browser">
    <rect
       y="-5e-07"
       x="-5e-07"
       height="32"
       width="32"
       id="rect817"
       style="opacity:0.00100002;stroke-width:1.4545455" />
    <path
       id="path831"
       d="M 16 4 C 9.37 4 4 9.37 4 16 C 4 22.63 9.37 28 16 28 C 22.63 28 28 22.63 28 16 C 28 9.37 22.63 4 16 4 z M 23 9 L 18.318359 18.318359 L 9 23 L 13.681641 13.681641 L 23 9 z M 16 15 C 15.453488 15 15 15.453488 15 16 C 15 16.546512 15.453488 17 16 17 C 16.546512 17 17 16.546512 17 16 C 17 15.453488 16.546512 15 16 15 z "
       style="fill:#dfdfdf;stroke-width:1.5" />
  </g>
</svg>
