<svg xmlns="http://www.w3.org/2000/svg" id="svg26" width="22" height="22" version="1">
 <g id="internet-web-browser" transform="translate(-5,-5)">
  <rect style="opacity:0.00100002" id="rect21" width="22" height="22" x="5" y="5"/>
  <path style="fill:#dfdfdf" id="path23" d="m 16,8 c -4.42,0 -8,3.58 -8,8 0,4.42 3.58,8 8,8 4.42,0 8,-3.58 8,-8 0,-4.42 -3.58,-8 -8,-8 z m 4.86,3.14 -3.25,6.47 -6.47,3.25 3.25,-6.47 z m -4.86,4 c -0.47,0 -0.86,0.39 -0.86,0.86 0,0.47 0.39,0.86 0.86,0.86 0.47,0 0.86,-0.39 0.86,-0.86 0,-0.47 -0.39,-0.86 -0.86,-0.86 z"/>
 </g>
</svg>
