<svg xmlns="http://www.w3.org/2000/svg" id="svg20" width="22" height="22" version="1">
 <g id="juk">
  <rect style="opacity:0.00100002" id="rect2" width="22" height="22" x="0" y="0"/>
  <g id="g6" transform="translate(0,7)">
   <path style="fill:#dfdfdf" id="path4" d="M 8,1 V 7.050781 C 7.8354622,7.017102 7.6679493,7.000089 7.5,7 6.1192881,7 5,8.119288 5,9.5 5,10.880712 6.1192881,12 7.5,12 8.8807119,12 10,10.880712 10,9.5 V 1 L 15,0 V 4.0507812 C 14.835462,4.0171022 14.667949,4.0000892 14.5,4 13.119288,4 12,5.1192881 12,6.5 12,7.880712 13.119288,9 14.5,9 15.880712,9 17,7.880712 17,6.5 V 0 c -8.72e-4,-2.5818515 -0.193689,-2.7609843 -1.980304,-2.5599325 L 9.877365,-1.4171922 C 8.0669187,-0.88841333 8,-0.90250587 8,1 Z"/>
  </g>
 </g>
</svg>
