<svg xmlns="http://www.w3.org/2000/svg" style="enable-background:new" id="22-22-svg34" width="22" height="22" version="1.1" viewBox="0 0 22 22">
 <g id="22-22-kalarm" transform="translate(-32,-10)">
  <rect style="opacity:0.00100002" id="22-22-rect2" width="22" height="22" x="32" y="10"/>
  <path style="fill:#dfdfdf" id="22-22-path4" d="M 37,11.988281 V 12 c -1.656854,0 -3,1.343146 -3,3 6.29e-4,0.799718 0.320535,1.566084 0.888672,2.128906 0.88843,-1.8521 2.388234,-3.351634 4.240234,-4.240234 C 38.568023,12.316231 37.801415,11.992004 37,11.988281 Z M 49,12 c -0.799718,6.29e-4 -1.566084,0.320535 -2.128906,0.888672 1.852,0.8886 3.351834,2.388134 4.240234,4.240234 0.560987,-0.555651 0.880296,-1.310062 0.888672,-2.099609 0,-1.656854 -1.343146,-3 -3,-3 z m -6,2 c -3.854149,0 -7,3.145851 -7,7 0,3.854149 3.145851,7 7,7 3.854149,0 7,-3.145851 7,-7 0,-3.854149 -3.145851,-7 -7,-7 z m 0,2 c 2.773268,0 5,2.226732 5,5 0,2.773268 -2.226732,5 -5,5 -2.773268,0 -5,-2.226732 -5,-5 0,-2.773268 2.226732,-5 5,-5 z m 2.876953,2.667969 c -0.144229,-0.0132 -0.296151,0.0174 -0.441406,0.101562 l -2.804688,1.580078 C 42.182122,20.602224 42.11562,21.219818 42.5,21.5625 l 0.783203,1.357422 c 0.334354,0.597369 1.228486,0.471185 1.384766,-0.195313 0.04491,-0.189618 0.01376,-0.38921 -0.08594,-0.55664 l -0.521484,-0.902344 2.111328,-1.191406 c 0.177688,-0.09703 0.308879,-0.262026 0.363281,-0.457031 0.133967,-0.48548 -0.225515,-0.909622 -0.658203,-0.949219 z m 2.824219,7.935547 c -0.7072,0.717164 -1.543466,1.294333 -2.464844,1.701172 C 46.511169,28.737054 46.987674,28.999242 47.5,29 48.328427,29 49,28.328427 49,27.5 48.999579,27.176781 48.894767,26.862344 48.701172,26.603516 Z m -11.404297,0.0039 C 37.104772,26.865423 37.000695,27.178337 37,27.5 c 0,0.828427 0.671573,1.5 1.5,1.5 0.510493,-1.45e-4 0.985867,-0.259909 1.261719,-0.689453 -0.921536,-0.407422 -1.757813,-0.985261 -2.464844,-1.703125 z"/>
 </g>
</svg>
