<svg xmlns="http://www.w3.org/2000/svg" width="32" height="32" version="1">
 <g id="22-22-kate" transform="translate(32.000001,10.000001)">
  <rect style="opacity:0.001" width="22" height="22" x="0" y="0"/>
  <g transform="translate(3,-3)">
   <path style="fill:#dfdfdf" transform="translate(-3,3)" d="m 11,3 a 8,8 0 0 0 -8,8 8,8 0 0 0 8,8 8,8 0 0 0 8,-8 8,8 0 0 0 -8,-8 z m 2.611328,3 c 0.182045,0 0.364504,0.071536 0.50586,0.2128906 l 1.669921,1.6699219 c 0.28271,0.28271 0.28271,0.7270556 0,1.0097656 L 14.382812,10.289062 11.710938,7.6171875 13.107422,6.2128906 C 13.248777,6.0715356 13.429283,6 13.611328,6 Z M 10.75,8.5761719 13.423828,11.25 8.671875,16 H 6 v -2.671875 z"/>
  </g>
 </g>
 <g id="kate">
  <rect style="opacity:0.001" width="32" height="32" x="0" y="0"/>
  <path style="fill:#dfdfdf" d="M 16 4 A 12 12 0 0 0 4 16 A 12 12 0 0 0 16 28 A 12 12 0 0 0 28 16 A 12 12 0 0 0 16 4 z M 19.65625 9 C 19.911151 9 20.167305 9.0989786 20.365234 9.296875 L 22.703125 11.636719 C 23.098978 12.032514 23.098978 12.653034 22.703125 13.048828 L 20.738281 15.003906 L 16.996094 11.263672 L 18.953125 9.296875 C 19.151051 9.0989776 19.401348 9 19.65625 9 z M 15.650391 12.607422 L 19.394531 16.349609 L 12.740234 23 L 9 23 L 9 19.259766 L 15.650391 12.607422 z"/>
 </g>
</svg>
