<svg xmlns="http://www.w3.org/2000/svg" id="22-22-svg31" width="22" height="22" version="1">
 <g id="22-22-kate">
  <rect style="opacity:0.00100002" id="22-22-rect2" width="22" height="22" x="0" y="0"/>
  <g id="22-22-g6" transform="translate(3,-3)">
   <path style="fill:#dfdfdf" id="22-22-path4" d="m 11,3 a 8,8 0 0 0 -8,8 8,8 0 0 0 8,8 8,8 0 0 0 8,-8 8,8 0 0 0 -8,-8 z m 2.611328,3 c 0.182045,0 0.364504,0.071536 0.50586,0.2128906 l 1.669921,1.6699219 c 0.28271,0.28271 0.28271,0.7270556 0,1.0097656 L 14.382812,10.289062 11.710938,7.6171875 13.107422,6.2128906 C 13.248777,6.0715356 13.429283,6 13.611328,6 Z M 10.75,8.5761719 13.423828,11.25 8.671875,16 H 6 v -2.671875 z" transform="translate(-3,3)"/>
  </g>
 </g>
</svg>
