<?xml version="1.0" encoding="UTF-8" standalone="no"?>
<svg
   xmlns:osb="http://www.openswatchbook.org/uri/2009/osb"
   xmlns:dc="http://purl.org/dc/elements/1.1/"
   xmlns:cc="http://creativecommons.org/ns#"
   xmlns:rdf="http://www.w3.org/1999/02/22-rdf-syntax-ns#"
   xmlns:svg="http://www.w3.org/2000/svg"
   xmlns="http://www.w3.org/2000/svg"
   xmlns:sodipodi="http://sodipodi.sourceforge.net/DTD/sodipodi-0.dtd"
   xmlns:inkscape="http://www.inkscape.org/namespaces/inkscape"
   id="22-22-svg"
   width="32"
   height="32"
   version="1.1"
   viewBox="0 0 32 32"
   sodipodi:docname="kdeconnect.svg"
   inkscape:version="0.92.3 (2405546, 2018-03-11)">
  <metadata
     id="metadata11">
    <rdf:RDF>
      <cc:Work
         rdf:about="">
        <dc:format>image/svg+xml</dc:format>
        <dc:type
           rdf:resource="http://purl.org/dc/dcmitype/StillImage" />
        <dc:title></dc:title>
      </cc:Work>
    </rdf:RDF>
  </metadata>
  <sodipodi:namedview
     pagecolor="#ffffff"
     bordercolor="#666666"
     borderopacity="1"
     objecttolerance="10"
     gridtolerance="10"
     guidetolerance="10"
     inkscape:pageopacity="0"
     inkscape:pageshadow="2"
     inkscape:window-width="1920"
     inkscape:window-height="1020"
     id="namedview9"
     showgrid="true"
     inkscape:zoom="14.15"
     inkscape:cx="11"
     inkscape:cy="11"
     inkscape:window-x="0"
     inkscape:window-y="30"
     inkscape:window-maximized="1"
     inkscape:current-layer="22-22-svg">
    <inkscape:grid
       type="xygrid"
       id="grid826" />
  </sodipodi:namedview>
  <defs
     id="22-22-defs4">
    <linearGradient
       id="22-22-linearGradient5606"
       osb:paint="solid">
      <stop
         id="22-22-stop5608"
         offset="0"
         style="stop-color:#000000" />
    </linearGradient>
  </defs>
  <g
     id="22-22-kdeconnect"
     transform="translate(32.000001,10.000001)">
    <rect
       style="opacity:0;fill:#111213"
       id="22-22-rect6"
       width="22"
       height="22"
       x="0"
       y="0"
       rx="0"
       ry="0" />
    <path
       style="fill:#dfdfdf;filter:url(#filter7554)"
       id="22-22-path8"
       d="m 39,13 c -1,0 -1,1 -1,1 v 14 c 0,0 0,1 1,1 h 8 c 1,0 1,-1 1,-1 V 14 c 0,0 0,-1 -1,-1 z m 7,3 v 9 h -6 v -8.998047 z m -3.5,10 h 0.5 0.5 c 0.277,0 0.5,0.223 0.5,0.5 V 27 27.5 C 44,27.777 43.777,28 43.5,28 H 43 42.5 C 42.223,28 42,27.777 42,27.5 V 27 26.5 C 42,26.223 42.223,26 42.5,26 Z"
       transform="translate(-32,-10)"
       inkscape:connector-curvature="0" />
  </g>
  <g
     id="kdeconnect">
    <rect
       ry="0"
       rx="0"
       y="0"
       x="0"
       height="32"
       width="32"
       id="rect818"
       style="opacity:0;fill:#111213;stroke-width:1.4545455" />
    <path
       id="path832"
       d="M 9.5 4 C 8.000001 4 8 5.5 8 5.5 L 8 26.5 C 8 26.5 8.000001 28 9.5 28 L 21.5 28 C 23 28 23 26.5 23 26.5 L 23 5.5 C 23 5.5 23 4 21.5 4 L 9.5 4 z M 20 8 L 20 22 L 11 22 L 11 8.0039062 L 20 8 z M 14.75 23 L 15.5 23 L 16.25 23 C 16.665499 23 17 23.3345 17 23.75 L 17 24.5 L 17 25.25 C 17 25.6655 16.665499 26 16.25 26 L 15.5 26 L 14.75 26 C 14.3345 26 14 25.6655 14 25.25 L 14 24.5 L 14 23.75 C 14 23.3345 14.3345 23 14.75 23 z "
       style="fill:#dfdfdf;stroke-width:1.5;filter:url(#filter7554)" />
  </g>
</svg>
