<?xml version="1.0" encoding="UTF-8" standalone="no"?>
<svg
   xmlns:osb="http://www.openswatchbook.org/uri/2009/osb"
   xmlns:dc="http://purl.org/dc/elements/1.1/"
   xmlns:cc="http://creativecommons.org/ns#"
   xmlns:rdf="http://www.w3.org/1999/02/22-rdf-syntax-ns#"
   xmlns:svg="http://www.w3.org/2000/svg"
   xmlns="http://www.w3.org/2000/svg"
   xmlns:sodipodi="http://sodipodi.sourceforge.net/DTD/sodipodi-0.dtd"
   xmlns:inkscape="http://www.inkscape.org/namespaces/inkscape"
   id="22-22-svg29"
   width="32"
   height="32"
   version="1.1"
   sodipodi:docname="kdf.svg"
   inkscape:version="0.92.3 (2405546, 2018-03-11)">
  <metadata
     id="metadata11">
    <rdf:RDF>
      <cc:Work
         rdf:about="">
        <dc:format>image/svg+xml</dc:format>
        <dc:type
           rdf:resource="http://purl.org/dc/dcmitype/StillImage" />
        <dc:title></dc:title>
      </cc:Work>
    </rdf:RDF>
  </metadata>
  <sodipodi:namedview
     pagecolor="#ffffff"
     bordercolor="#666666"
     borderopacity="1"
     objecttolerance="10"
     gridtolerance="10"
     guidetolerance="10"
     inkscape:pageopacity="0"
     inkscape:pageshadow="2"
     inkscape:window-width="1920"
     inkscape:window-height="1020"
     id="namedview9"
     showgrid="true"
     inkscape:zoom="13.2"
     inkscape:cx="11"
     inkscape:cy="11"
     inkscape:window-x="0"
     inkscape:window-y="30"
     inkscape:window-maximized="1"
     inkscape:current-layer="22-22-svg29">
    <inkscape:grid
       type="xygrid"
       id="grid826" />
  </sodipodi:namedview>
  <defs
     id="22-22-defs4">
    <linearGradient
       id="22-22-linearGradient5606"
       osb:paint="solid">
      <stop
         id="22-22-stop5608"
         offset="0"
         style="stop-color:#000000" />
    </linearGradient>
  </defs>
  <g
     id="22-22-kdf"
     transform="matrix(-1,0,0,1,54,10)">
    <rect
       style="opacity:0;fill:#dfdfdf"
       id="22-22-rect11"
       width="22"
       height="22"
       x="0"
       y="0"
       ry="1.375" />
    <path
       style="fill:#dfdfdf;filter:url(#filter7554)"
       id="22-22-path13"
       d="M 5.166016,3 C 3.99935,3 4,4.142578 4,4.142578 V 17.857422 C 4,17.857422 3.99935,19 5.166016,19 H 16.833984 C 16.833984,19 18,19.000279 18,17.857422 V 4.142578 C 18,4.142578 18.00065,3 16.833984,3 Z M 11,5 c 2.761425,0 5,2.238575 5,5 0,2.761425 -2.238575,5 -5,5 H 6 V 10 C 6,7.238575 8.238573,5 11,5 Z m 0,3 c -1.10457,0 -2,0.89543 -2,2 0,1.10457 0.89543,2 2,2 1.10457,0 2,-0.89543 2,-2 0,-1.10457 -0.89543,-2 -2,-2 z"
       inkscape:connector-curvature="0" />
  </g>
  <g
     id="kdf">
    <rect
       transform="scale(-1,1)"
       ry="2"
       y="-5e-07"
       x="-32"
       height="32"
       width="32"
       id="rect818"
       style="opacity:0;fill:#dfdfdf;stroke-width:1.4545455" />
    <path
       id="path832"
       d="M 6.75 4 C 5.000001 4 5 5.7128906 5 5.7128906 L 5 26.287109 C 5 28.001395 6.75 28 6.75 28 L 24.25 28 C 25.999999 28 26 26.287109 26 26.287109 L 26 5.7128906 C 26 5.7128906 25.999999 4 24.25 4 L 6.75 4 z M 15.5 7 C 19.64214 7 23 10.357861 23 14.5 L 23 22 L 15.5 22 C 11.357861 22 8 18.642137 8 14.5 C 8 10.357861 11.357861 7 15.5 7 z M 15.5 11 C 13.567002 11 12 12.567001 12 14.5 C 12 16.432996 13.567002 18 15.5 18 C 17.432997 18 19 16.432996 19 14.5 C 19 12.567001 17.432997 11 15.5 11 z "
       style="fill:#dfdfdf;stroke-width:1.5;filter:url(#filter7554)" />
  </g>
</svg>
