<svg xmlns="http://www.w3.org/2000/svg" xmlns:osb="http://www.openswatchbook.org/uri/2009/osb" style="enable-background:new" id="22-22-svg26" width="22" height="22" version="1.1">
 <defs id="22-22-defs4">
  <linearGradient id="22-22-linearGradient5606" osb:paint="solid">
   <stop id="22-22-stop5608" offset="0" style="stop-color:#000000"/>
  </linearGradient>
 </defs>
 <g id="22-22-kget">
  <path style="opacity:0.00100002;fill:#00000f" id="22-22-path21" d="m 0.25,0 h 21.5 C 21.8885,0 22,0.111499 22,0.250001 V 21.75 C 22,21.8885 21.88849,22 21.75,22 H 0.25 C 0.1115,22 0,21.888501 0,21.75 V 0.250001 C 0,0.1115 0.11151,0 0.25,0 Z"/>
  <path style="fill:#dfdfdf" id="22-22-path23" d="m 11,3 a 8,8 0 0 0 -8,8 8,8 0 0 0 8,8 8,8 0 0 0 8,-8 8,8 0 0 0 -8,-8 z m -1,2 h 2 v 5 h 2.5 L 12.75,12.5 11,15 h 4 v 1 H 7 v -1 h 4 L 9.25,12.5 7.5,10 H 10 Z"/>
 </g>
</svg>
