<?xml version="1.0" encoding="UTF-8" standalone="no"?>
<svg
   xmlns:osb="http://www.openswatchbook.org/uri/2009/osb"
   xmlns:dc="http://purl.org/dc/elements/1.1/"
   xmlns:cc="http://creativecommons.org/ns#"
   xmlns:rdf="http://www.w3.org/1999/02/22-rdf-syntax-ns#"
   xmlns:svg="http://www.w3.org/2000/svg"
   xmlns="http://www.w3.org/2000/svg"
   xmlns:sodipodi="http://sodipodi.sourceforge.net/DTD/sodipodi-0.dtd"
   xmlns:inkscape="http://www.inkscape.org/namespaces/inkscape"
   style="enable-background:new"
   id="22-22-svg26"
   width="32"
   height="32"
   version="1.1"
   sodipodi:docname="kget.svg"
   inkscape:version="0.92.3 (2405546, 2018-03-11)">
  <metadata
     id="metadata11">
    <rdf:RDF>
      <cc:Work
         rdf:about="">
        <dc:format>image/svg+xml</dc:format>
        <dc:type
           rdf:resource="http://purl.org/dc/dcmitype/StillImage" />
        <dc:title></dc:title>
      </cc:Work>
    </rdf:RDF>
  </metadata>
  <sodipodi:namedview
     pagecolor="#ffffff"
     bordercolor="#666666"
     borderopacity="1"
     objecttolerance="10"
     gridtolerance="10"
     guidetolerance="10"
     inkscape:pageopacity="0"
     inkscape:pageshadow="2"
     inkscape:window-width="1920"
     inkscape:window-height="1020"
     id="namedview9"
     showgrid="true"
     inkscape:zoom="13.2"
     inkscape:cx="11"
     inkscape:cy="11"
     inkscape:window-x="0"
     inkscape:window-y="30"
     inkscape:window-maximized="1"
     inkscape:current-layer="22-22-svg26">
    <inkscape:grid
       type="xygrid"
       id="grid826" />
  </sodipodi:namedview>
  <defs
     id="22-22-defs4">
    <linearGradient
       id="22-22-linearGradient5606"
       osb:paint="solid">
      <stop
         id="22-22-stop5608"
         offset="0"
         style="stop-color:#000000" />
    </linearGradient>
  </defs>
  <g
     id="22-22-kget"
     transform="translate(32,10)">
    <path
       style="opacity:0.00100002;fill:#00000f"
       id="22-22-path21"
       d="m 0.25,0 h 21.5 C 21.8885,0 22,0.111499 22,0.250001 V 21.75 C 22,21.8885 21.88849,22 21.75,22 H 0.25 C 0.1115,22 0,21.888501 0,21.75 V 0.250001 C 0,0.1115 0.11151,0 0.25,0 Z"
       inkscape:connector-curvature="0" />
    <path
       style="fill:#dfdfdf"
       id="22-22-path23"
       d="m 11,3 a 8,8 0 0 0 -8,8 8,8 0 0 0 8,8 8,8 0 0 0 8,-8 8,8 0 0 0 -8,-8 z m -1,2 h 2 v 5 h 2.5 L 12.75,12.5 11,15 h 4 v 1 H 7 v -1 h 4 L 9.25,12.5 7.5,10 H 10 Z"
       inkscape:connector-curvature="0" />
  </g>
  <g
     id="kget">
    <path
       inkscape:connector-curvature="0"
       d="M 0.36363638,0 H 31.636365 c 0.201454,0 0.363636,0.16218037 0.363636,0.36363783 V 31.636365 c 0,0.201454 -0.162196,0.363636 -0.363636,0.363636 H 0.36363638 C 0.16218182,32.000001 0,31.837821 0,31.636365 V 0.36363783 C 0,0.16218182 0.16219637,0 0.36363638,0 Z"
       id="path818"
       style="opacity:0.00100002;fill:#00000f;stroke-width:1.4545455" />
    <path
       id="path830"
       d="M 16 4 A 12 12 0 0 0 4 16 A 12 12 0 0 0 16 28 A 12 12 0 0 0 28 16 A 12 12 0 0 0 16 4 z M 14 7 L 18 7 L 18 15 L 21.25 15 L 16 22 L 22 22 L 22 24 L 10 24 L 10 22 L 16 22 L 10.75 15 L 14 15 L 14 7 z "
       style="fill:#dfdfdf;stroke-width:1.5" />
  </g>
</svg>
