<svg xmlns="http://www.w3.org/2000/svg" style="enable-background:new" id="22-22-svg34" width="22" height="22" version="1.1">
 <g id="22-22-kgpg" transform="translate(-347,257)" style="enable-background:new">
  <rect style="opacity:0;fill:#2b0000;fill-opacity:0.40392157" id="22-22-rect2" width="22" height="22" x="347" y="-257"/>
  <path style="fill:#dfdfdf" id="22-22-path4" d="M 11,3 C 5.99738,2.997 6,7.6425781 6,7.6425781 V 10 H 5.1660156 C 4.5196856,10 4,10.36686 4,11 v 6.857422 C 4,18.490572 4.5196856,19 5.1660156,19 H 16.833984 C 17.480314,19 18,18.490572 18,17.857422 V 11 c 0,-0.63314 -0.528976,-0.89079 -1.166016,-1 H 16 V 7.6425781 C 16,7.6425781 16.003,3.00336 11,3 Z m 0,3 c 2.00262,-0.003 2,1.5722656 2,1.5722656 V 10 H 9 V 7.5722656 C 9,7.5722656 9.00301,6.00336 11,6 Z m -4,7 h 8 v 3 H 7 Z" transform="translate(346.99759,-257.00336)"/>
 </g>
</svg>
