<?xml version="1.0" encoding="UTF-8" standalone="no"?>
<svg
   xmlns:dc="http://purl.org/dc/elements/1.1/"
   xmlns:cc="http://creativecommons.org/ns#"
   xmlns:rdf="http://www.w3.org/1999/02/22-rdf-syntax-ns#"
   xmlns:svg="http://www.w3.org/2000/svg"
   xmlns="http://www.w3.org/2000/svg"
   xmlns:sodipodi="http://sodipodi.sourceforge.net/DTD/sodipodi-0.dtd"
   xmlns:inkscape="http://www.inkscape.org/namespaces/inkscape"
   style="enable-background:new"
   id="22-22-svg34"
   width="32"
   height="32"
   version="1.1"
   sodipodi:docname="kgpg.svg"
   inkscape:version="0.92.3 (2405546, 2018-03-11)">
  <metadata
     id="metadata10">
    <rdf:RDF>
      <cc:Work
         rdf:about="">
        <dc:format>image/svg+xml</dc:format>
        <dc:type
           rdf:resource="http://purl.org/dc/dcmitype/StillImage" />
        <dc:title></dc:title>
      </cc:Work>
    </rdf:RDF>
  </metadata>
  <defs
     id="defs8" />
  <sodipodi:namedview
     pagecolor="#ffffff"
     bordercolor="#666666"
     borderopacity="1"
     objecttolerance="10"
     gridtolerance="10"
     guidetolerance="10"
     inkscape:pageopacity="0"
     inkscape:pageshadow="2"
     inkscape:window-width="1920"
     inkscape:window-height="1020"
     id="namedview6"
     showgrid="true"
     inkscape:zoom="12.32"
     inkscape:cx="11"
     inkscape:cy="11"
     inkscape:window-x="0"
     inkscape:window-y="30"
     inkscape:window-maximized="1"
     inkscape:current-layer="22-22-svg34">
    <inkscape:grid
       type="xygrid"
       id="grid825" />
  </sodipodi:namedview>
  <g
     id="22-22-kgpg"
     transform="translate(-315,267)"
     style="enable-background:new">
    <rect
       style="opacity:0;fill:#2b0000;fill-opacity:0.40392157"
       id="22-22-rect2"
       width="22"
       height="22"
       x="347"
       y="-257" />
    <path
       style="fill:#dfdfdf"
       id="22-22-path4"
       d="M 11,3 C 5.99738,2.997 6,7.6425781 6,7.6425781 V 10 H 5.1660156 C 4.5196856,10 4,10.36686 4,11 v 6.857422 C 4,18.490572 4.5196856,19 5.1660156,19 H 16.833984 C 17.480314,19 18,18.490572 18,17.857422 V 11 c 0,-0.63314 -0.528976,-0.89079 -1.166016,-1 H 16 V 7.6425781 C 16,7.6425781 16.003,3.00336 11,3 Z m 0,3 c 2.00262,-0.003 2,1.5722656 2,1.5722656 V 10 H 9 V 7.5722656 C 9,7.5722656 9.00301,6.00336 11,6 Z m -4,7 h 8 v 3 H 7 Z"
       transform="translate(346.99759,-257.00336)"
       inkscape:connector-curvature="0" />
  </g>
  <g
     id="kgpg">
    <rect
       y="-3.5e-06"
       x="-1.4999999e-06"
       height="32"
       width="32"
       id="rect817"
       style="opacity:0;fill:#2b0000;fill-opacity:0.40392157;stroke-width:1.4545455" />
    <path
       id="path831"
       d="M 15.5 4 C 7.9960707 3.9955 8 10.964844 8 10.964844 L 8 15 L 6.7480469 15 C 5.778552 15 5 15.55029 5 16.5 L 5 26.287109 C 5 27.236834 5.778552 28 6.7480469 28 L 24.25 28 C 25.219495 28 26 27.236834 26 26.287109 L 26 16.5 C 26 15.55029 25.20556 15.163815 24.25 15 L 23 15 L 23 10.964844 C 23 10.964844 23.0045 4.00504 15.5 4 z M 15.5 8 C 19.004585 7.99475 19 10.751953 19 10.751953 L 19 15 L 12 15 L 12 10.751953 C 12 10.751953 12.0053 8.00588 15.5 8 z M 9 19 L 22 19 L 22 24 L 9 24 L 9 19 z "
       style="fill:#dfdfdf;stroke-width:1.49999988" />
  </g>
</svg>
