<svg xmlns="http://www.w3.org/2000/svg" xmlns:osb="http://www.openswatchbook.org/uri/2009/osb" style="enable-background:new" id="22-22-svg30" width="32" height="32" version="1.1">
 <defs id="22-22-defs4">
  <linearGradient id="22-22-linearGradient5606" osb:paint="solid">
   <stop id="22-22-stop5608" offset="0" style="stop-color:#000000"/>
  </linearGradient>
 </defs>
 <g id="22-22-kmail" transform="translate(-435.0002,-125)">
  <path style="fill:#dfdfdf" id="22-22-path6" d="m 472.00009,140 c -1.108,0 -2,0.892 -2,2 v 8 c 0,1.108 0.892,2 2,2 h 12 c 1.108,0 2,-0.892 2,-2 v -8 c 0,-1.108 -0.892,-2 -2,-2 z m 0,2 6,3 6,-3 v 2 l -6,3 -6,-3 z"/>
  <path style="opacity:0;fill:#2b0000;fill-opacity:0.40392157" id="22-22-path8" d="m 467.0002,135 h 22 v 22 h -22 z"/>
 </g>
 <g id="kmail">
  <path id="path818" d="M 7,7 C 5.338,7 4,8.3380001 4,10 v 12 c 0,1.662 1.338,3 3,3 h 18 c 1.661999,0 3,-1.338 3,-3 V 10 C 28,8.338 26.661999,7 25,7 Z m 0,3 9,4.5 9,-4.5 v 3 L 16,17.500001 7,13 Z" style="fill:#dfdfdf;stroke-width:1.5"/>
  <path id="path820" d="M -5.9089996e-7,2.5e-6 H 32 V 32.000003 H -5.9089996e-7 Z" style="opacity:0;fill:#2b0000;fill-opacity:0.40392157;stroke-width:1.4545455"/>
 </g>
</svg>
