<svg xmlns="http://www.w3.org/2000/svg" xmlns:osb="http://www.openswatchbook.org/uri/2009/osb" style="enable-background:new" id="22-22-svg35" width="22" height="22" version="1.1">
 <defs id="22-22-defs7">
  <linearGradient id="22-22-linearGradient5606" osb:paint="solid">
   <stop id="22-22-stop5608" offset="0" style="stop-color:#000000"/>
  </linearGradient>
  <clipPath id="22-22-clipPath4483" clipPathUnits="userSpaceOnUse">
   <path style="fill:#fecd38" id="22-22-path4" d="m 91.5,254 c -0.831,0 -1.5,0.669 -1.5,1.5 v 25 c 0,0.831 0.669,1.5 1.5,1.5 H 108 l 10,-10 v -16.5 c 0,-0.831 -0.669,-1.5 -1.5,-1.5 z"/>
  </clipPath>
 </defs>
 <g id="22-22-knotes" transform="translate(-32,-10)">
  <path style="opacity:0" id="22-22-path9" d="m 32,10 h 22 c 0,0 0,0 0,0 v 22 c 0,0 0,0 0,0 H 32 c 0,0 0,0 0,0 V 10 c 0,0 0,0 0,0 z"/>
  <path style="fill:#dfdfdf" id="22-22-path11" d="M 36.933594,13 C 36.000254,13 36,14.230469 36,14.230469 V 27.769531 C 36,27.769531 36.000254,29 36.933594,29 H 44 l 6,-6 V 14.230469 C 50,12.999699 49.066406,13 49.066406,13 Z M 38,16 h 10 v 2 H 38 Z m 0,4 h 10 v 2 H 38 Z m 0,4 h 6 v 2 h -6 z"/>
 </g>
</svg>
