<?xml version="1.0" encoding="UTF-8" standalone="no"?>
<svg
   xmlns:osb="http://www.openswatchbook.org/uri/2009/osb"
   xmlns:dc="http://purl.org/dc/elements/1.1/"
   xmlns:cc="http://creativecommons.org/ns#"
   xmlns:rdf="http://www.w3.org/1999/02/22-rdf-syntax-ns#"
   xmlns:svg="http://www.w3.org/2000/svg"
   xmlns="http://www.w3.org/2000/svg"
   xmlns:sodipodi="http://sodipodi.sourceforge.net/DTD/sodipodi-0.dtd"
   xmlns:inkscape="http://www.inkscape.org/namespaces/inkscape"
   style="enable-background:new"
   id="22-22-svg35"
   width="32"
   height="32"
   version="1.1"
   sodipodi:docname="knotes.svg"
   inkscape:version="0.92.3 (2405546, 2018-03-11)">
  <metadata
     id="metadata13">
    <rdf:RDF>
      <cc:Work
         rdf:about="">
        <dc:format>image/svg+xml</dc:format>
        <dc:type
           rdf:resource="http://purl.org/dc/dcmitype/StillImage" />
        <dc:title></dc:title>
      </cc:Work>
    </rdf:RDF>
  </metadata>
  <sodipodi:namedview
     pagecolor="#ffffff"
     bordercolor="#666666"
     borderopacity="1"
     objecttolerance="10"
     gridtolerance="10"
     guidetolerance="10"
     inkscape:pageopacity="0"
     inkscape:pageshadow="2"
     inkscape:window-width="1920"
     inkscape:window-height="1020"
     id="namedview11"
     showgrid="true"
     inkscape:zoom="13.2"
     inkscape:cx="11"
     inkscape:cy="11"
     inkscape:window-x="0"
     inkscape:window-y="30"
     inkscape:window-maximized="1"
     inkscape:current-layer="22-22-svg35">
    <inkscape:grid
       type="xygrid"
       id="grid828" />
  </sodipodi:namedview>
  <defs
     id="22-22-defs7">
    <linearGradient
       id="22-22-linearGradient5606"
       osb:paint="solid">
      <stop
         id="22-22-stop5608"
         offset="0"
         style="stop-color:#000000" />
    </linearGradient>
    <clipPath
       id="22-22-clipPath4483"
       clipPathUnits="userSpaceOnUse">
      <path
         style="fill:#fecd38"
         id="22-22-path4"
         d="m 91.5,254 c -0.831,0 -1.5,0.669 -1.5,1.5 v 25 c 0,0.831 0.669,1.5 1.5,1.5 H 108 l 10,-10 v -16.5 c 0,-0.831 -0.669,-1.5 -1.5,-1.5 z"
         inkscape:connector-curvature="0" />
    </clipPath>
  </defs>
  <g
     id="22-22-knotes">
    <path
       style="opacity:0"
       id="22-22-path9"
       d="m 32,10 h 22 c 0,0 0,0 0,0 v 22 c 0,0 0,0 0,0 H 32 c 0,0 0,0 0,0 V 10 c 0,0 0,0 0,0 z"
       inkscape:connector-curvature="0" />
    <path
       style="fill:#dfdfdf"
       id="22-22-path11"
       d="M 36.933594,13 C 36.000254,13 36,14.230469 36,14.230469 V 27.769531 C 36,27.769531 36.000254,29 36.933594,29 H 44 l 6,-6 V 14.230469 C 50,12.999699 49.066406,13 49.066406,13 Z M 38,16 h 10 v 2 H 38 Z m 0,4 h 10 v 2 H 38 Z m 0,4 h 6 v 2 h -6 z"
       inkscape:connector-curvature="0" />
  </g>
  <g
     id="knotes">
    <path
       inkscape:connector-curvature="0"
       d="m 0,-1e-6 h 32.000001 c 0,0 0,0 0,0 V 32 c 0,0 0,0 0,0 H 0 c 0,0 0,0 0,0 V -1e-6 c 0,0 0,0 0,0 z"
       id="path820"
       style="opacity:0;stroke-width:1.4545455" />
    <path
       id="path836"
       d="M 6.4003906 4 C 5.0003806 4 5 5.8457031 5 5.8457031 L 5 26.154297 C 5 26.154297 5.0003806 28 6.4003906 28 L 17 28 L 26 19 L 26 5.8457031 C 26 3.9995482 24.599609 4 24.599609 4 L 6.4003906 4 z M 8 8 L 23 8 L 23 11 L 8 11 L 8 8 z M 8 14 L 23 14 L 23 17 L 8 17 L 8 14 z M 8 20 L 17 20 L 17 23 L 8 23 L 8 20 z "
       style="fill:#dfdfdf;stroke-width:1.5" />
  </g>
</svg>
