<svg xmlns="http://www.w3.org/2000/svg" id="svg" width="22" height="22" version="1.1" viewBox="0 0 22 22">
 <g id="konv_message" transform="translate(-32,-10)">
  <rect style="opacity:0.00100002" id="rect25" width="22" height="22" x="32" y="10"/>
  <path style="fill:#dfdfdf;fill-rule:evenodd" id="path27" d="m 48.240234,14.000313 a 0.73690325,0.65014443 0 0 0 -0.185547,0.02539 l -12.52539,3.250355 A 0.73690325,0.65014443 0 0 0 35,17.899173 v 5.201741 a 0.73690325,0.65014443 0 0 0 0.529297,0.623115 L 37,24.10493 V 29 h 2 v -4.375478 l 9.054687,2.349866 A 0.73690325,0.65014443 0 0 0 49,26.351273 v -3.351929 h 2 v -5.000547 h -2 v -0.0059 -3.344115 a 0.73690325,0.65014443 0 0 0 -0.759766,-0.648509 z"/>
  <circle style="fill:#5294e2" id="circle29" cx="35" cy="14" r="2"/>
 </g>
</svg>
