<?xml version="1.0" encoding="UTF-8" standalone="no"?>
<svg
   xmlns:osb="http://www.openswatchbook.org/uri/2009/osb"
   xmlns:dc="http://purl.org/dc/elements/1.1/"
   xmlns:cc="http://creativecommons.org/ns#"
   xmlns:rdf="http://www.w3.org/1999/02/22-rdf-syntax-ns#"
   xmlns:svg="http://www.w3.org/2000/svg"
   xmlns="http://www.w3.org/2000/svg"
   xmlns:sodipodi="http://sodipodi.sourceforge.net/DTD/sodipodi-0.dtd"
   xmlns:inkscape="http://www.inkscape.org/namespaces/inkscape"
   style="enable-background:new"
   id="22-22-svg26"
   width="32"
   height="32"
   version="1.1"
   sodipodi:docname="korgac.svg"
   inkscape:version="0.92.3 (2405546, 2018-03-11)">
  <metadata
     id="metadata11">
    <rdf:RDF>
      <cc:Work
         rdf:about="">
        <dc:format>image/svg+xml</dc:format>
        <dc:type
           rdf:resource="http://purl.org/dc/dcmitype/StillImage" />
        <dc:title></dc:title>
      </cc:Work>
    </rdf:RDF>
  </metadata>
  <sodipodi:namedview
     pagecolor="#ffffff"
     bordercolor="#666666"
     borderopacity="1"
     objecttolerance="10"
     gridtolerance="10"
     guidetolerance="10"
     inkscape:pageopacity="0"
     inkscape:pageshadow="2"
     inkscape:window-width="1920"
     inkscape:window-height="1020"
     id="namedview9"
     showgrid="true"
     inkscape:zoom="12.32"
     inkscape:cx="11"
     inkscape:cy="11"
     inkscape:window-x="0"
     inkscape:window-y="30"
     inkscape:window-maximized="1"
     inkscape:current-layer="22-22-svg26">
    <inkscape:grid
       type="xygrid"
       id="grid826" />
  </sodipodi:namedview>
  <defs
     id="22-22-defs4">
    <linearGradient
       id="22-22-linearGradient5606"
       osb:paint="solid">
      <stop
         id="22-22-stop5608"
         offset="0"
         style="stop-color:#000000" />
    </linearGradient>
  </defs>
  <g
     id="22-22-korgac">
    <rect
       style="opacity:0;fill:#2b0000;fill-opacity:0.40392157"
       id="22-22-rect6"
       width="22"
       height="22"
       x="32"
       y="10" />
    <path
       style="fill:#dfdfdf"
       id="22-22-path8"
       d="m 42.998047,11.996094 c -4.970563,0 -9,4.029437 -9,9 0,4.970563 4.029437,9 9,9 4.970563,0 9,-4.029437 9,-9 0,-4.970563 -4.029437,-9 -9,-9 z m 0,3 c 3.313708,0 6,2.686292 6,6 0,3.313708 -2.686292,6 -6,6 -3.313708,0 -6,-2.686292 -6,-6 0,-3.313708 2.686292,-6 6,-6 z M 42,16 v 4 2 h 2 4 v -2 h -4 v -4 z"
       inkscape:connector-curvature="0" />
  </g>
  <g
     id="korgac">
    <rect
       y="-1e-06"
       x="0"
       height="32"
       width="32"
       id="rect818"
       style="opacity:0;fill:#2b0000;fill-opacity:0.40392157;stroke-width:1.4545455" />
    <path
       id="path833"
       d="M 15.5 3 C 8.5964401 3 3 8.5964401 3 15.5 C 3 22.40356 8.5964401 28 15.5 28 C 22.40356 28 28 22.40356 28 15.5 C 28 8.5964401 22.40356 3 15.5 3 z M 15.5 7 C 20.19442 7 24 10.80558 24 15.5 C 24 20.194419 20.19442 24 15.5 24 C 10.805581 24 7 20.194419 7 15.5 C 7 10.80558 10.805581 7 15.5 7 z M 14 9 L 14 14 L 14 17 L 17 17 L 22 17 L 22 14 L 17 14 L 17 9 L 14 9 z "
       style="fill:#dfdfdf;stroke-width:1.38888884" />
  </g>
</svg>
