<svg xmlns="http://www.w3.org/2000/svg" id="22-22-svg14" width="22" height="22" version="1">
 <g id="22-22-krfb">
  <rect id="22-22-rect837" width="22" height="22" x="0" y="0" style="opacity:0.00100002;fill:#000000;fill-opacity:1;stroke:none;stroke-width:4.98052692;stroke-miterlimit:4;stroke-dasharray:none;stroke-opacity:1"/>
  <path id="22-22-path8" d="M 14.470703,5.1523438 5.1132812,11 14.470703,16.847656 15.529297,15.152344 8.8847656,11 15.529297,6.8476562 Z" style="color:#000000;font-style:normal;font-variant:normal;font-weight:normal;font-stretch:normal;font-size:medium;line-height:normal;font-family:sans-serif;font-variant-ligatures:normal;font-variant-position:normal;font-variant-caps:normal;font-variant-numeric:normal;font-variant-alternates:normal;font-feature-settings:normal;text-indent:0;text-align:start;text-decoration:none;text-decoration-line:none;text-decoration-style:solid;text-decoration-color:#000000;letter-spacing:normal;word-spacing:normal;text-transform:none;writing-mode:lr-tb;direction:ltr;text-orientation:mixed;dominant-baseline:auto;baseline-shift:baseline;text-anchor:start;white-space:normal;shape-padding:0;clip-rule:nonzero;display:inline;overflow:visible;visibility:visible;opacity:0.3;isolation:auto;mix-blend-mode:normal;color-interpolation:sRGB;color-interpolation-filters:linearRGB;solid-color:#000000;solid-opacity:1;vector-effect:none;fill:#dfdfdf;fill-opacity:1;fill-rule:nonzero;stroke:none;stroke-width:2;stroke-linecap:butt;stroke-linejoin:miter;stroke-miterlimit:4;stroke-dasharray:none;stroke-dashoffset:0;stroke-opacity:1;color-rendering:auto;image-rendering:auto;shape-rendering:auto;text-rendering:auto;enable-background:accumulate"/>
  <path id="22-22-path12" d="M 15,3 A 3,3 0 0 0 12,6 3,3 0 0 0 15,9 3,3 0 0 0 18,6 3,3 0 0 0 15,3 Z M 7,8 a 3,3 0 0 0 -3,3 3,3 0 0 0 3,3 3,3 0 0 0 3,-3 3,3 0 0 0 -3,-3 z m 8,5 a 3,3 0 0 0 -3,3 3,3 0 0 0 3,3 3,3 0 0 0 3,-3 3,3 0 0 0 -3,-3 z" style="fill:#dfdfdf;fill-opacity:1;fill-rule:evenodd"/>
 </g>
</svg>
