<svg xmlns="http://www.w3.org/2000/svg" id="svg36" width="22" height="22" version="1.1" viewBox="0 0 22 22">
 <g id="kruler" transform="translate(-326,-534.35999)">
  <rect style="fill:none" id="rect2" width="22" height="22" x="326" y="534.36"/>
  <path style="fill:#dfdfdf" id="path4" d="m 328,539.32965 v 2.03255 10 c 0,1 1,1 1,1 h 1 16 v -2 h -16 v -9 h 16 v -3 h -17 c 0,0 -1,-0.0235 -1,0.96745 z m 3,3.03255 v 3 h 1 v -3 z m 2,0 v 3 h 1 v -3 z m 2,0 v 6 h 1 v -6 z m 2,0 v 3 h 1 v -3 z m 2,0 v 3 h 1 v -3 z m 2,0 v 6 h 1 v -6 z m 2,0 v 3 h 1 v -3 z"/>
 </g>
</svg>
