<?xml version="1.0" encoding="UTF-8" standalone="no"?>
<svg
   xmlns:dc="http://purl.org/dc/elements/1.1/"
   xmlns:cc="http://creativecommons.org/ns#"
   xmlns:rdf="http://www.w3.org/1999/02/22-rdf-syntax-ns#"
   xmlns:svg="http://www.w3.org/2000/svg"
   xmlns="http://www.w3.org/2000/svg"
   xmlns:sodipodi="http://sodipodi.sourceforge.net/DTD/sodipodi-0.dtd"
   xmlns:inkscape="http://www.inkscape.org/namespaces/inkscape"
   id="22-22-svg36"
   width="32"
   height="32"
   version="1.1"
   viewBox="0 0 32 32"
   sodipodi:docname="kruler.svg"
   inkscape:version="0.92.3 (2405546, 2018-03-11)">
  <metadata
     id="metadata10">
    <rdf:RDF>
      <cc:Work
         rdf:about="">
        <dc:format>image/svg+xml</dc:format>
        <dc:type
           rdf:resource="http://purl.org/dc/dcmitype/StillImage" />
        <dc:title></dc:title>
      </cc:Work>
    </rdf:RDF>
  </metadata>
  <defs
     id="defs8" />
  <sodipodi:namedview
     pagecolor="#ffffff"
     bordercolor="#666666"
     borderopacity="1"
     objecttolerance="10"
     gridtolerance="10"
     guidetolerance="10"
     inkscape:pageopacity="0"
     inkscape:pageshadow="2"
     inkscape:window-width="1920"
     inkscape:window-height="1020"
     id="namedview6"
     showgrid="true"
     inkscape:zoom="12.32"
     inkscape:cx="11"
     inkscape:cy="11"
     inkscape:window-x="0"
     inkscape:window-y="30"
     inkscape:window-maximized="1"
     inkscape:current-layer="22-22-svg36">
    <inkscape:grid
       type="xygrid"
       id="grid825" />
  </sodipodi:namedview>
  <g
     id="22-22-kruler"
     transform="translate(-294,-524.35998)">
    <rect
       style="fill:none"
       id="22-22-rect2"
       width="22"
       height="22"
       x="326"
       y="534.35999" />
    <path
       style="fill:#dfdfdf"
       id="22-22-path4"
       d="m 328,539.32965 v 2.03255 10 c 0,1 1,1 1,1 h 1 16 v -2 h -16 v -9 h 16 v -3 h -17 c 0,0 -1,-0.0235 -1,0.96745 z m 3,3.03255 v 3 h 1 v -3 z m 2,0 v 3 h 1 v -3 z m 2,0 v 6 h 1 v -6 z m 2,0 v 3 h 1 v -3 z m 2,0 v 3 h 1 v -3 z m 2,0 v 6 h 1 v -6 z m 2,0 v 3 h 1 v -3 z"
       inkscape:connector-curvature="0" />
  </g>
  <g
     id="kruler">
    <rect
       y="2.0731813e-06"
       x="3.0000001e-06"
       height="32"
       width="32"
       id="rect817"
       style="fill:none;stroke-width:1.4545455" />
    <path
       id="path819"
       d="M 4.4453125 6 C 4.4453125 6 3 5.9671738 3 7.3828125 L 3 10.285156 L 3 24.572266 C 3 26.000832 4.4453125 26 4.4453125 26 L 5.8886719 26 L 29 26 L 29 23 L 6 23 L 6 10 L 29 10 L 29 6 L 4.4453125 6 z M 7 12 L 7 16 L 8 16 L 8 12 L 7 12 z M 10 12 L 10 16 L 11 16 L 11 12 L 10 12 z M 13 12 L 13 20 L 14 20 L 14 12 L 13 12 z M 16 12 L 16 16 L 17 16 L 17 12 L 16 12 z M 19 12 L 19 16 L 20 16 L 20 12 L 19 12 z M 22 12 L 22 20 L 23 20 L 23 12 L 22 12 z M 25 12 L 25 16 L 26 16 L 26 12 L 25 12 z "
       style="fill:#dfdfdf;stroke-width:1.4364835" />
  </g>
</svg>
