<svg xmlns="http://www.w3.org/2000/svg" id="22-22-svg18" width="22" height="22" version="1">
 <g id="22-22-krusader_root">
  <rect id="22-22-rect869" width="22" height="22" x="0" y="0" style="opacity:0.00100002;fill:#000000;fill-opacity:1;stroke:none;stroke-width:2.56613231;stroke-linecap:round;stroke-linejoin:round;stroke-miterlimit:4;stroke-dasharray:none;stroke-opacity:1"/>
  <path id="22-22-path2" d="M 2,7 V 18.111328 C 2,18.604128 2.4014531,19 2.9003906,19 H 11 V 14.95093 L 9.5859375,15.980227 C 9.360073,16.160743 9.0178606,16.006986 9.0175781,15.724367 L 9,9.3337424 C 8.9994429,9.1456248 9.1601408,8.9949188 9.3554688,8.999758 9.4377658,9.001648 9.5167124,9.030966 9.578125,9.083742 L 11,10.195071 V 7 Z" style="fill:#5294e2;fill-opacity:1;stroke-width:0.89442718"/>
  <path id="22-22-path4" d="m 11,7 v 3.195071 l 3.882812,3.035156 c 0.220213,0.188959 0.110367,0.5379 -0.18164,0.578125 l -2.056641,0.285156 0.964844,1.640625 c 0.215456,0.366673 0.08802,0.833225 -0.285156,1.044922 l -0.207031,0.117187 c -0.373182,0.211699 -0.847045,0.08737 -1.0625,-0.279296 L 11.052734,14.911867 11,14.95093 V 19 h 8.101562 C 19.600162,19 20,18.604217 20,18.111328 V 7 Z" style="opacity:0.3;fill:#5294e2;fill-opacity:1;stroke-width:0.89442718"/>
  <path id="22-22-path6" d="M 2.9,3 C 2.40104,3 2,3.3962222 2,3.8886666 V 6 H 20 V 3.8886666 C 20,3.3962222 19.59905,3 19.1,3 Z" style="fill:#5294e2;fill-opacity:1;stroke-width:0.89442718"/>
 </g>
</svg>
