<?xml version="1.0" encoding="UTF-8" standalone="no"?>
<svg
   xmlns:dc="http://purl.org/dc/elements/1.1/"
   xmlns:cc="http://creativecommons.org/ns#"
   xmlns:rdf="http://www.w3.org/1999/02/22-rdf-syntax-ns#"
   xmlns:svg="http://www.w3.org/2000/svg"
   xmlns="http://www.w3.org/2000/svg"
   xmlns:sodipodi="http://sodipodi.sourceforge.net/DTD/sodipodi-0.dtd"
   xmlns:inkscape="http://www.inkscape.org/namespaces/inkscape"
   id="22-22-svg18"
   width="32"
   height="32"
   version="1"
   sodipodi:docname="krusader_user.svg"
   inkscape:version="0.92.3 (2405546, 2018-03-11)">
  <metadata
     id="metadata12">
    <rdf:RDF>
      <cc:Work
         rdf:about="">
        <dc:format>image/svg+xml</dc:format>
        <dc:type
           rdf:resource="http://purl.org/dc/dcmitype/StillImage" />
        <dc:title></dc:title>
      </cc:Work>
    </rdf:RDF>
  </metadata>
  <defs
     id="defs10" />
  <sodipodi:namedview
     pagecolor="#ffffff"
     bordercolor="#666666"
     borderopacity="1"
     objecttolerance="10"
     gridtolerance="10"
     guidetolerance="10"
     inkscape:pageopacity="0"
     inkscape:pageshadow="2"
     inkscape:window-width="1920"
     inkscape:window-height="1020"
     id="namedview8"
     showgrid="false"
     inkscape:zoom="10.727273"
     inkscape:cx="11"
     inkscape:cy="11"
     inkscape:window-x="0"
     inkscape:window-y="30"
     inkscape:window-maximized="1"
     inkscape:current-layer="22-22-svg18" />
  <g
     id="22-22-krusader_user"
     transform="translate(32,10)">
    <rect
       id="22-22-rect869"
       width="22"
       height="22"
       x="0"
       y="0"
       style="opacity:0.00100002;fill:#000000;fill-opacity:1;stroke:none;stroke-width:2.56613231;stroke-linecap:round;stroke-linejoin:round;stroke-miterlimit:4;stroke-dasharray:none;stroke-opacity:1" />
    <path
       id="22-22-path2"
       d="M 2,7 V 18.111328 C 2,18.604128 2.4014531,19 2.9003906,19 H 11 V 14.95093 L 9.5859375,15.980227 C 9.360073,16.160743 9.0178606,16.006986 9.0175781,15.724367 L 9,9.3337424 C 8.9994429,9.1456248 9.1601408,8.9949188 9.3554688,8.999758 9.4377658,9.001648 9.5167124,9.030966 9.578125,9.083742 L 11,10.195071 V 7 Z"
       style="fill:#dfdfdf;fill-opacity:1;stroke-width:0.89442718"
       inkscape:connector-curvature="0" />
    <path
       id="22-22-path4"
       d="m 11,7 v 3.195071 l 3.882812,3.035156 c 0.220213,0.188959 0.110367,0.5379 -0.18164,0.578125 l -2.056641,0.285156 0.964844,1.640625 c 0.215456,0.366673 0.08802,0.833225 -0.285156,1.044922 l -0.207031,0.117187 c -0.373182,0.211699 -0.847045,0.08737 -1.0625,-0.279296 L 11.052734,14.911867 11,14.95093 V 19 h 8.101562 C 19.600162,19 20,18.604217 20,18.111328 V 7 Z"
       style="opacity:0.3;fill:#dfdfdf;fill-opacity:1;stroke-width:0.89442718"
       inkscape:connector-curvature="0" />
    <path
       id="22-22-path6"
       d="M 2.9,3 C 2.40104,3 2,3.3962222 2,3.8886666 V 6 H 20 V 3.8886666 C 20,3.3962222 19.59905,3 19.1,3 Z"
       style="fill:#dfdfdf;fill-opacity:1;stroke-width:0.89442718"
       inkscape:connector-curvature="0" />
  </g>
  <g
     id="krusader_user">
    <rect
       style="opacity:0.00100002;fill:#000000;fill-opacity:1;stroke:none;stroke-width:3.7325561;stroke-linecap:round;stroke-linejoin:round;stroke-miterlimit:4;stroke-dasharray:none;stroke-opacity:1"
       y="0"
       x="0"
       height="32"
       width="32"
       id="rect822" />
    <path
       inkscape:connector-curvature="0"
       id="path854"
       d="m 16,10 v 3.792969 l 5.826172,4.552734 c 0.330352,0.283435 0.164615,0.806851 -0.273438,0.867188 l -3.085937,0.427734 1.447265,2.462891 c 0.323217,0.550002 0.132085,1.246911 -0.427734,1.564453 l -0.310547,0.177734 c -0.559829,0.317544 -1.270536,0.132023 -1.59375,-0.417969 L 16.080078,20.869141 16,20.925781 V 27 H 27.703125 C 28.423325,27 29,26.428747 29,25.716797 V 10 Z"
       style="opacity:0.3;fill:#dfdfdf;fill-opacity:1;stroke-width:1.29195035" />
    <path
       inkscape:connector-curvature="0"
       id="path849"
       d="M 4.3007812,4 C 3.5800612,4 3,4.5699979 3,5.2792969 V 8 H 29 V 5.2792969 C 29,4.5699979 28.420069,4 27.699219,4 Z M 3,10 V 25.716797 C 3,26.428619 3.5800938,27 4.3007812,27 H 16 v -6.074219 l -2.121094,1.546875 c -0.338829,0.270771 -0.851138,0.0372 -0.851562,-0.386718 L 13,12.501953 C 12.999162,12.219781 13.240182,11.992741 13.533203,12 c 0.123459,0.0028 0.239903,0.04584 0.332031,0.125 L 16,13.792969 V 10 Z"
       style="fill:#dfdfdf;fill-opacity:1;stroke-width:1.29195035" />
  </g>
</svg>
