<svg xmlns="http://www.w3.org/2000/svg" id="svg20" width="22" height="22" version="1.1" viewBox="0 0 22 22">
 <g id="kteatime" transform="translate(-32,-10)">
  <rect style="opacity:0.00100002" id="rect15" width="22" height="22" x="32" y="10"/>
  <path style="fill:#dfdfdf" id="path17" d="m 36,15 c 0,0.709 0.01873,1.3725 0.05273,2 H 34.5 C 33.669,17 33,17.669 33,18.5 v 6 c 0,0.831 0.669,1.5 1.5,1.5 H 38 c 0.4115,0 0.782234,-0.164641 1.052734,-0.431641 C 40.758734,26.996359 42.906,27 44.75,27 48.5,27 53,27 53,15 Z m 11.09375,2 c 0,0 1.180247,1.592847 0.847656,3.683594 -0.140892,0.885194 -1.220375,3.423886 -4.513672,3.048828 -0.218663,0.330355 -0.348294,0.699737 -0.410156,1.085937 C 42.858942,24.856982 42.490234,25 42.490234,25 c 0.149173,-0.872165 0.503001,-1.745213 1.023438,-2.099609 2.356341,-1.605421 2.949219,-4.185547 2.949219,-4.185547 0,0 -0.537109,2.145147 -3.185547,4.007812 -0.417399,0.293619 -0.726563,0.808594 -0.726563,0.808594 -0.07583,-0.01219 -2.400888,-3.727993 3.109375,-5.634766 C 46.404261,17.639022 47.09375,17 47.09375,17 Z m -11.671875,1.5 h 0.751953 c 0.294,2.764 0.947906,4.633125 1.816406,5.890625 C 37.865734,24.458625 37.726172,24.5 37.576172,24.5 H 35.421875 C 34.910475,24.5 34.5,24.054 34.5,23.5 v -4 c 0,-0.554 0.410475,-1 0.921875,-1 z"/>
 </g>
</svg>
