<?xml version="1.0" encoding="UTF-8" standalone="no"?>
<svg
   xmlns:dc="http://purl.org/dc/elements/1.1/"
   xmlns:cc="http://creativecommons.org/ns#"
   xmlns:rdf="http://www.w3.org/1999/02/22-rdf-syntax-ns#"
   xmlns:svg="http://www.w3.org/2000/svg"
   xmlns="http://www.w3.org/2000/svg"
   xmlns:sodipodi="http://sodipodi.sourceforge.net/DTD/sodipodi-0.dtd"
   xmlns:inkscape="http://www.inkscape.org/namespaces/inkscape"
   id="22-22-svg18"
   width="32"
   height="32"
   version="1"
   sodipodi:docname="ktorrent.svg"
   inkscape:version="0.92.3 (2405546, 2018-03-11)">
  <metadata
     id="metadata10">
    <rdf:RDF>
      <cc:Work
         rdf:about="">
        <dc:format>image/svg+xml</dc:format>
        <dc:type
           rdf:resource="http://purl.org/dc/dcmitype/StillImage" />
        <dc:title></dc:title>
      </cc:Work>
    </rdf:RDF>
  </metadata>
  <defs
     id="defs8" />
  <sodipodi:namedview
     pagecolor="#ffffff"
     bordercolor="#666666"
     borderopacity="1"
     objecttolerance="10"
     gridtolerance="10"
     guidetolerance="10"
     inkscape:pageopacity="0"
     inkscape:pageshadow="2"
     inkscape:window-width="1920"
     inkscape:window-height="1020"
     id="namedview6"
     showgrid="true"
     inkscape:zoom="9.3396602"
     inkscape:cx="25.072555"
     inkscape:cy="11"
     inkscape:window-x="0"
     inkscape:window-y="30"
     inkscape:window-maximized="1"
     inkscape:current-layer="22-22-svg18">
    <inkscape:grid
       type="xygrid"
       id="grid825" />
  </sodipodi:namedview>
  <g
     id="22-22-ktorrent"
     transform="translate(32.000001,10.000001)">
    <rect
       style="opacity:0.00100002"
       id="22-22-rect2"
       width="22"
       height="22"
       x="0"
       y="0" />
    <path
       style="fill:#dfdfdf"
       id="22-22-path4"
       d="M 8.6953125,3 C 8.3523605,3 8.0433531,3.3617296 8,3.8066406 V 10 H 4 l 7,7 7,-7 H 14 V 3.8066406 C 14,3.3597156 13.64764,3 13.304688,3 Z M 11,17 H 3.8007813 C 3.3575813,17 3,17.446 3,18 c 0,0.554 0.3575813,1 0.8007813,1 H 18.199219 C 18.642419,19 19,18.554 19,18 19,17.446 18.642419,17 18.199219,17 Z"
       inkscape:connector-curvature="0" />
  </g>
  <g
     id="ktorrent">
    <rect
       y="0"
       x="0"
       height="32"
       width="32"
       id="rect817"
       style="opacity:0.00100002;stroke-width:1.4545455" />
    <path
       sodipodi:nodetypes="sccccccssscssssssc"
       inkscape:connector-curvature="0"
       d="m 12.042485,4 c -0.514429,0 -0.97794,0.5425945 -1.042969,1.209961 V 15 H 5.5000003 L 16,25.000001 26.500001,15 H 21.000484 V 5.209961 C 21.000484,4.5395734 20.471943,4 19.957516,4 Z M 16,25.000001 H 5.2011722 c -0.6647999,0 -1.2011719,0.669 -1.2011719,1.499999 0,0.831 0.536372,1.5 1.2011719,1.5 H 26.798829 C 27.46363,28 28,27.331 28,26.5 28,25.669001 27.46363,25.000001 26.798829,25.000001 Z"
       id="path819"
       style="fill:#dfdfdf;stroke-width:1.5" />
  </g>
</svg>
