<?xml version="1.0" encoding="UTF-8" standalone="no"?>
<svg
   xmlns:osb="http://www.openswatchbook.org/uri/2009/osb"
   xmlns:dc="http://purl.org/dc/elements/1.1/"
   xmlns:cc="http://creativecommons.org/ns#"
   xmlns:rdf="http://www.w3.org/1999/02/22-rdf-syntax-ns#"
   xmlns:svg="http://www.w3.org/2000/svg"
   xmlns="http://www.w3.org/2000/svg"
   xmlns:sodipodi="http://sodipodi.sourceforge.net/DTD/sodipodi-0.dtd"
   xmlns:inkscape="http://www.inkscape.org/namespaces/inkscape"
   style="enable-background:new"
   id="22-22-svg72"
   width="32"
   height="32"
   version="1.1"
   sodipodi:docname="mail.svg"
   inkscape:version="0.92.3 (2405546, 2018-03-11)">
  <metadata
     id="metadata19">
    <rdf:RDF>
      <cc:Work
         rdf:about="">
        <dc:format>image/svg+xml</dc:format>
        <dc:type
           rdf:resource="http://purl.org/dc/dcmitype/StillImage" />
        <dc:title></dc:title>
      </cc:Work>
    </rdf:RDF>
  </metadata>
  <sodipodi:namedview
     pagecolor="#ffffff"
     bordercolor="#666666"
     borderopacity="1"
     objecttolerance="10"
     gridtolerance="10"
     guidetolerance="10"
     inkscape:pageopacity="0"
     inkscape:pageshadow="2"
     inkscape:window-width="1920"
     inkscape:window-height="1020"
     id="namedview17"
     showgrid="false"
     showguides="false"
     inkscape:zoom="7.1003811"
     inkscape:cx="21.265152"
     inkscape:cy="19.565622"
     inkscape:window-x="0"
     inkscape:window-y="30"
     inkscape:window-maximized="1"
     inkscape:current-layer="22-22-svg72">
    <inkscape:grid
       type="xygrid"
       id="grid857" />
  </sodipodi:namedview>
  <defs
     id="22-22-defs4">
    <linearGradient
       id="22-22-linearGradient5606"
       osb:paint="solid">
      <stop
         id="22-22-stop5608"
         offset="0"
         style="stop-color:#000000" />
    </linearGradient>
  </defs>
  <g
     id="22-22-mail-unread"
     transform="translate(-403.0002,-157)">
    <path
       style="fill:#dfdfdf"
       id="22-22-path6"
       d="m 472.00009,140 c -1.108,0 -2,0.892 -2,2 v 8 c 0,1.108 0.892,2 2,2 h 12 c 1.108,0 2,-0.892 2,-2 v -8 c 0,-1.108 -0.892,-2 -2,-2 z m 0,2 6,3 6,-3 v 2 l -6,3 -6,-3 z"
       inkscape:connector-curvature="0" />
    <path
       style="opacity:0;fill:#2b0000;fill-opacity:0.40392157"
       id="22-22-path8"
       d="m 467.0002,135 h 22 v 22 h -22 z"
       inkscape:connector-curvature="0" />
  </g>
  <g
     id="22-22-mail-unread-new"
     transform="translate(31.99989)">
    <path
       style="opacity:0.00100002"
       id="22-22-path11"
       d="m 1.1e-4,-22 h 22 V 0 h -22 z"
       inkscape:connector-curvature="0" />
    <path
       style="fill:#dfdfdf"
       id="22-22-path13"
       d="m 5,-17 c -1.108,0 -2,0.892 -2,2 v 8 c 0,1.108 0.892,2 2,2 h 11 c -1.645,0 -3,-1.355 -3,-3 0,-1.645 1.355,-3 3,-3 1.645,0 3,1.355 3,3 v -7 c 0,-1.108 -0.892,-2 -2,-2 z m 0,2 6,3 6,-3 v 2 l -6,3 -6,-3 z"
       inkscape:connector-curvature="0" />
    <path
       style="fill:#5294e2"
       id="22-22-path15"
       d="m 16,-10 a 2,2 0 0 0 -2,2 2,2 0 0 0 2,2 2,2 0 0 0 2,-2 2,2 0 0 0 -2,-2 z"
       inkscape:connector-curvature="0" />
  </g>
  <g
     id="22-22-mail-mark-unread-new"
     transform="translate(-1.1029545e-4)">
    <path
       style="opacity:0.00100002"
       id="22-22-path18"
       d="m 1.1e-4,-22 h 22 V 0 h -22 z"
       inkscape:connector-curvature="0" />
    <path
       style="fill:#dfdfdf"
       id="22-22-path20"
       d="m 5,-17 c -1.108,0 -2,0.892 -2,2 v 8 c 0,1.108 0.892,2 2,2 h 11 c -1.645,0 -3,-1.355 -3,-3 0,-1.645 1.355,-3 3,-3 1.645,0 3,1.355 3,3 v -7 c 0,-1.108 -0.892,-2 -2,-2 z m 0,2 6,3 6,-3 v 2 l -6,3 -6,-3 z"
       inkscape:connector-curvature="0" />
    <path
       style="fill:#5294e2"
       id="22-22-path22"
       d="m 16,-10 a 2,2 0 0 0 -2,2 2,2 0 0 0 2,2 2,2 0 0 0 2,-2 2,2 0 0 0 -2,-2 z"
       inkscape:connector-curvature="0" />
  </g>
  <g
     transform="translate(64.000001,-3e-6)"
     style="enable-background:new"
     id="mail-unread">
    <path
       inkscape:connector-curvature="0"
       d="M 7,7 C 5.338,7 4,8.3380001 4,10 v 12 c 0,1.662 1.338,3 3,3 h 18 c 1.661999,0 3,-1.338 3,-3 V 10 C 28,8.338 26.661999,7 25,7 Z m 0,3 9,4.5 9,-4.5 v 3 L 16,17.500001 7,13 Z"
       id="path818"
       style="fill:#dfdfdf;stroke-width:1.5" />
    <path
       inkscape:connector-curvature="0"
       d="M -5.9089996e-7,2.5e-6 H 32 V 32.000003 H -5.9089996e-7 Z"
       id="path820"
       style="opacity:0;fill:#2b0000;fill-opacity:0.40392157;stroke-width:1.4545455" />
  </g>
  <g
     id="mail-mark-unread-new">
    <path
       id="path836"
       d="M 7 7 C 5.338 7 4 8.3380001 4 10 L 4 22 C 4 23.662 5.338 25 7 25 L 23 25 A 5 5 0 0 1 18 20 A 5 5 0 0 1 23 15 A 5 5 0 0 1 28 20 L 28 10 C 28 8.3379999 26.661999 7 25 7 L 7 7 z M 7 10 L 16 14.5 L 25 10 L 25 13 L 16 17.5 L 7 13 L 7 10 z M 28 20.007812 A 5 5 0 0 1 27.894531 21 L 28 21 L 28 20.007812 z "
       style="fill:#dfdfdf;stroke-width:1.5" />
    <path
       style="opacity:0;fill:#2b0000;fill-opacity:0.40392157;stroke-width:1.4545455"
       id="path838"
       d="M -2.9544998e-7,-2.5e-7 H 32 V 32 H -2.9544998e-7 Z"
       inkscape:connector-curvature="0" />
    <path
       inkscape:connector-curvature="0"
       d="m 23,17 a 3,3 0 0 0 -3,3 3,3 0 0 0 3,3 3,3 0 0 0 3,-3 3,3 0 0 0 -3,-3 z"
       id="path846"
       style="fill:#5294e2;stroke-width:1.5" />
  </g>
  <g
     id="mail-unread-new"
     transform="translate(32)">
    <path
       style="fill:#dfdfdf;stroke-width:1.5"
       d="M 7,7 C 5.338,7 4,8.3380001 4,10 v 12 c 0,1.662 1.338,3 3,3 h 16 a 5,5 0 0 1 -5,-5 5,5 0 0 1 5,-5 5,5 0 0 1 5,5 V 10 C 28,8.3379999 26.661999,7 25,7 Z m 0,3 9,4.5 9,-4.5 v 3 L 16,17.5 7,13 Z M 28,20.007812 A 5,5 0 0 1 27.894531,21 H 28 Z"
       id="path868"
       inkscape:connector-curvature="0" />
    <path
       inkscape:connector-curvature="0"
       d="M -2.9544998e-7,-2.5e-7 H 32 V 32 H -2.9544998e-7 Z"
       id="path870"
       style="opacity:0;fill:#2b0000;fill-opacity:0.40392157;stroke-width:1.4545455" />
    <path
       style="fill:#5294e2;stroke-width:1.5"
       id="path872"
       d="m 23,17 a 3,3 0 0 0 -3,3 3,3 0 0 0 3,3 3,3 0 0 0 3,-3 3,3 0 0 0 -3,-3 z"
       inkscape:connector-curvature="0" />
  </g>
</svg>
