<svg xmlns="http://www.w3.org/2000/svg" xmlns:osb="http://www.openswatchbook.org/uri/2009/osb" style="enable-background:new" id="svg72" width="22" height="22" version="1.1">
 <defs id="defs4">
  <linearGradient id="linearGradient5606" osb:paint="solid">
   <stop id="stop5608" offset="0" style="stop-color:#000000"/>
  </linearGradient>
 </defs>
 <g id="mail-unread" transform="translate(-423.0002,-135)">
  <path style="fill:#dfdfdf" id="path6" d="m 472.00009,140 c -1.108,0 -2,0.892 -2,2 v 8 c 0,1.108 0.892,2 2,2 h 12 c 1.108,0 2,-0.892 2,-2 v -8 c 0,-1.108 -0.892,-2 -2,-2 z m 0,2 6,3 6,-3 v 2 l -6,3 -6,-3 z"/>
  <path style="opacity:0;fill:#2b0000;fill-opacity:0.40392157" id="path8" d="m 467.0002,135 h 22 v 22 h -22 z"/>
 </g>
 <g id="mail-unread-new" transform="translate(21.99989,22)">
  <path style="opacity:0.00100002" id="path11" d="m 1.1e-4,-22 h 22 V 0 h -22 z"/>
  <path style="fill:#dfdfdf" id="path13" d="m 5,-17 c -1.108,0 -2,0.892 -2,2 v 8 c 0,1.108 0.892,2 2,2 h 11 c -1.645,0 -3,-1.355 -3,-3 0,-1.645 1.355,-3 3,-3 1.645,0 3,1.355 3,3 v -7 c 0,-1.108 -0.892,-2 -2,-2 z m 0,2 6,3 6,-3 v 2 l -6,3 -6,-3 z"/>
  <path style="fill:#5294e2" id="path15" d="m 16,-10 a 2,2 0 0 0 -2,2 2,2 0 0 0 2,2 2,2 0 0 0 2,-2 2,2 0 0 0 -2,-2 z"/>
 </g>
 <g id="mail-mark-unread-new" transform="translate(-1.1e-4,22)">
  <path style="opacity:0.00100002" id="path18" d="m 1.1e-4,-22 h 22 V 0 h -22 z"/>
  <path style="fill:#dfdfdf" id="path20" d="m 5,-17 c -1.108,0 -2,0.892 -2,2 v 8 c 0,1.108 0.892,2 2,2 h 11 c -1.645,0 -3,-1.355 -3,-3 0,-1.645 1.355,-3 3,-3 1.645,0 3,1.355 3,3 v -7 c 0,-1.108 -0.892,-2 -2,-2 z m 0,2 6,3 6,-3 v 2 l -6,3 -6,-3 z"/>
  <path style="fill:#5294e2" id="path22" d="m 16,-10 a 2,2 0 0 0 -2,2 2,2 0 0 0 2,2 2,2 0 0 0 2,-2 2,2 0 0 0 -2,-2 z"/>
 </g>
</svg>
