<?xml version="1.0" encoding="UTF-8" standalone="no"?>
<svg
   xmlns:dc="http://purl.org/dc/elements/1.1/"
   xmlns:cc="http://creativecommons.org/ns#"
   xmlns:rdf="http://www.w3.org/1999/02/22-rdf-syntax-ns#"
   xmlns:svg="http://www.w3.org/2000/svg"
   xmlns="http://www.w3.org/2000/svg"
   xmlns:sodipodi="http://sodipodi.sourceforge.net/DTD/sodipodi-0.dtd"
   xmlns:inkscape="http://www.inkscape.org/namespaces/inkscape"
   id="22-22-svg8"
   width="32"
   height="32"
   version="1"
   sodipodi:docname="manjaro.svg"
   inkscape:version="0.92.3 (2405546, 2018-03-11)">
  <metadata
     id="metadata10">
    <rdf:RDF>
      <cc:Work
         rdf:about="">
        <dc:format>image/svg+xml</dc:format>
        <dc:type
           rdf:resource="http://purl.org/dc/dcmitype/StillImage" />
        <dc:title></dc:title>
      </cc:Work>
    </rdf:RDF>
  </metadata>
  <defs
     id="defs8" />
  <sodipodi:namedview
     pagecolor="#ffffff"
     bordercolor="#666666"
     borderopacity="1"
     objecttolerance="10"
     gridtolerance="10"
     guidetolerance="10"
     inkscape:pageopacity="0"
     inkscape:pageshadow="2"
     inkscape:window-width="1920"
     inkscape:window-height="1020"
     id="namedview6"
     showgrid="true"
     inkscape:zoom="16.26"
     inkscape:cx="11"
     inkscape:cy="11"
     inkscape:window-x="0"
     inkscape:window-y="30"
     inkscape:window-maximized="1"
     inkscape:current-layer="22-22-svg8">
    <inkscape:grid
       type="xygrid"
       id="grid827" />
  </sodipodi:namedview>
  <g
     id="22-22-manjaro-settings-manager"
     transform="translate(27,5.0000005)">
    <rect
       id="22-22-rect4532"
       width="22"
       height="22"
       x="5"
       y="5"
       style="opacity:0.00100002;fill:#000000;fill-opacity:1;stroke:none;stroke-width:2.10755777;stroke-linecap:round;stroke-linejoin:bevel;stroke-miterlimit:4;stroke-dasharray:none;stroke-opacity:1" />
    <path
       style="fill:#dfdfdf;fill-opacity:1"
       id="22-22-path4534"
       d="M 9.75,9 C 9.3345,9 9,9.3345 9,9.75 v 12.5 C 9,22.6655 9.352874,22.877807 9.75,23 H 13 V 13 h 5 V 9 Z M 19,9 v 14 h 3.25 C 22.6655,23 23,22.6655 23,22.25 V 9.75 C 23,9.3345 22.6655,9 22.25,9 Z m -5,5 v 9 h 4 v -9 z"
       inkscape:connector-curvature="0" />
  </g>
  <g
     id="manjaro-settings-manager">
    <rect
       style="opacity:0.00100002;fill:#000000;fill-opacity:1;stroke:none;stroke-width:3.06553864;stroke-linecap:round;stroke-linejoin:bevel;stroke-miterlimit:4;stroke-dasharray:none;stroke-opacity:1"
       y="-5e-07"
       x="-5e-07"
       height="32"
       width="32"
       id="rect817" />
    <path
       sodipodi:nodetypes="ssscccccsccsssscccccc"
       d="M 6.1785711,5 C 5.5256426,5 4.9999997,5.5256429 4.9999997,6.1785714 V 25.821429 c 0,0.652929 0.5545163,0.986554 1.1785714,1.178571 H 11 V 11 h 8 V 5 Z M 21,5 v 22 h 4.821428 C 26.474357,27 27,26.474358 27,25.821429 V 6.1785714 C 27,5.5256429 26.474357,5 25.821428,5 Z m -8,8 v 14 h 6 V 13 Z"
       id="path819"
       style="fill:#dfdfdf;fill-opacity:1;stroke-width:1.57142866"
       inkscape:connector-curvature="0" />
  </g>
</svg>
