<svg xmlns="http://www.w3.org/2000/svg" id="22-22-svg8" width="32" height="32" version="1">
 <g id="22-22-manjaro-settings-manager" transform="translate(27,5.0000005)">
  <rect id="22-22-rect4532" width="22" height="22" x="5" y="5" style="opacity:0.00100002;fill:#000000;fill-opacity:1;stroke:none;stroke-width:2.10755777;stroke-linecap:round;stroke-linejoin:bevel;stroke-miterlimit:4;stroke-dasharray:none;stroke-opacity:1"/>
  <path style="fill:#dfdfdf;fill-opacity:1" id="22-22-path4534" d="M 9.75,9 C 9.3345,9 9,9.3345 9,9.75 v 12.5 C 9,22.6655 9.352874,22.877807 9.75,23 H 13 V 13 h 5 V 9 Z M 19,9 v 14 h 3.25 C 22.6655,23 23,22.6655 23,22.25 V 9.75 C 23,9.3345 22.6655,9 22.25,9 Z m -5,5 v 9 h 4 v -9 z"/>
 </g>
 <g id="manjaro-settings-manager">
  <rect style="opacity:0.00100002;fill:#000000;fill-opacity:1;stroke:none;stroke-width:3.06553864;stroke-linecap:round;stroke-linejoin:bevel;stroke-miterlimit:4;stroke-dasharray:none;stroke-opacity:1" id="rect817" width="32" height="32" x="0" y="0"/>
  <path id="path819" d="M 6.1785711,5 C 5.5256426,5 4.9999997,5.5256429 4.9999997,6.1785714 V 25.821429 c 0,0.652929 0.5545163,0.986554 1.1785714,1.178571 H 11 V 11 h 8 V 5 Z M 21,5 v 22 h 4.821428 C 26.474357,27 27,26.474358 27,25.821429 V 6.1785714 C 27,5.5256429 26.474357,5 25.821428,5 Z m -8,8 v 14 h 6 V 13 Z" style="fill:#dfdfdf;fill-opacity:1;stroke-width:1.57142866"/>
 </g>
</svg>
