<?xml version="1.0" encoding="UTF-8" standalone="no"?>
<svg
   xmlns:dc="http://purl.org/dc/elements/1.1/"
   xmlns:cc="http://creativecommons.org/ns#"
   xmlns:rdf="http://www.w3.org/1999/02/22-rdf-syntax-ns#"
   xmlns:svg="http://www.w3.org/2000/svg"
   xmlns="http://www.w3.org/2000/svg"
   xmlns:sodipodi="http://sodipodi.sourceforge.net/DTD/sodipodi-0.dtd"
   xmlns:inkscape="http://www.inkscape.org/namespaces/inkscape"
   id="22-22-svg218"
   width="32"
   height="32"
   version="1.1"
   viewBox="0 0 32 32"
   sodipodi:docname="media.svg"
   inkscape:version="0.92.3 (2405546, 2018-03-11)">
  <metadata
     id="metadata43">
    <rdf:RDF>
      <cc:Work
         rdf:about="">
        <dc:format>image/svg+xml</dc:format>
        <dc:type
           rdf:resource="http://purl.org/dc/dcmitype/StillImage" />
        <dc:title></dc:title>
      </cc:Work>
    </rdf:RDF>
  </metadata>
  <defs
     id="defs41" />
  <sodipodi:namedview
     pagecolor="#626262"
     bordercolor="#666666"
     borderopacity="1"
     objecttolerance="10"
     gridtolerance="10"
     guidetolerance="10"
     inkscape:pageopacity="0"
     inkscape:pageshadow="2"
     inkscape:window-width="1920"
     inkscape:window-height="1020"
     id="namedview39"
     showgrid="false"
     inkscape:zoom="1"
     inkscape:cx="83.674737"
     inkscape:cy="15.26128"
     inkscape:window-x="0"
     inkscape:window-y="30"
     inkscape:window-maximized="1"
     inkscape:current-layer="22-22-svg218">
    <inkscape:grid
       type="xygrid"
       id="grid858" />
  </sodipodi:namedview>
  <g
     id="22-22-media-playback-start"
     transform="translate(0,-22)">
    <rect
       style="opacity:0.00100002"
       id="22-22-rect2"
       width="22"
       height="22"
       x="0"
       y="0" />
    <path
       style="fill:#dfdfdf"
       id="22-22-path4"
       d="m 5,35 c -1.108,0 -2,0.892 -2,2 v 6 6 c 0,1.108 0.892,2 2,2 h 6 6 c 1.108,0 2,-0.892 2,-2 v -6 -6 c 0,-1.108 -0.892,-2 -2,-2 h -6 z m 3,4 8,4 -8,4 z"
       transform="translate(0,-32)"
       inkscape:connector-curvature="0" />
  </g>
  <g
     id="22-22-media-skip-forward"
     transform="translate(42,-22)">
    <rect
       style="opacity:0.00100002"
       id="22-22-rect7"
       width="22"
       height="22"
       x="22"
       y="0" />
    <path
       style="fill:#dfdfdf"
       id="22-22-path9"
       d="m 37,35 c -1.108,0 -2,0.892 -2,2 v 6 6 c 0,1.108 0.892,2 2,2 h 6 6 c 1.108,0 2,-0.892 2,-2 v -6 -6 c 0,-1.108 -0.892,-2 -2,-2 h -6 z m 2,4 6,3.5 V 39 h 2 v 4 4 H 45 V 43.5 L 39,47 Z"
       transform="translate(-10,-32)"
       inkscape:connector-curvature="0" />
  </g>
  <g
     id="22-22-media-playback-pause"
     transform="translate(26.999998,-46)">
    <rect
       style="opacity:0.00100002"
       id="22-22-rect12"
       width="22"
       height="22"
       x="165"
       y="24" />
    <path
       style="fill:#dfdfdf"
       id="22-22-path14"
       d="m 165,35 c -1.108,0 -2,0.892 -2,2 v 6 6 c 0,1.108 0.892,2 2,2 h 6 6 c 1.108,0 2,-0.892 2,-2 v -6 -6 c 0,-1.108 -0.892,-2 -2,-2 h -6 z m 2,4 h 3 v 8 h -3 z m 5,0 h 3 v 8 h -3 z"
       transform="translate(5,-8)"
       inkscape:connector-curvature="0" />
  </g>
  <g
     id="22-22-media-playback-stop"
     transform="translate(-27,-46)">
    <rect
       style="opacity:0.00100002"
       id="22-22-rect17"
       width="22"
       height="22"
       x="187"
       y="24" />
    <path
       style="fill:#dfdfdf"
       id="22-22-path19"
       d="m 197,35 c -1.108,0 -2,0.892 -2,2 v 6 6 c 0,1.108 0.892,2 2,2 h 6 6 c 1.108,0 2,-0.892 2,-2 v -6 -6 c 0,-1.108 -0.892,-2 -2,-2 h -6 z m 2,4 h 2 4 2 v 8 h -2 -4 -2 z"
       transform="translate(-5,-8)"
       inkscape:connector-curvature="0" />
  </g>
  <g
     id="22-22-media-record"
     transform="translate(102,-22)">
    <rect
       style="opacity:0.00100002"
       id="22-22-rect22"
       width="22"
       height="22"
       x="154"
       y="0" />
    <path
       style="fill:#5294e2"
       id="22-22-path24"
       d="m 261,35 c -1.108,0 -2,0.892 -2,2 v 6 6 c 0,1.108 0.892,2 2,2 h 6 6 c 1.108,0 2,-0.892 2,-2 v -6 -6 c 0,-1.108 -0.892,-2 -2,-2 h -6 z m 6,4 a 4,4 0 0 1 4,4 4,4 0 0 1 -4,4 4,4 0 0 1 -4,-4 4,4 0 0 1 4,-4 z"
       transform="translate(-102,-32)"
       inkscape:connector-curvature="0" />
  </g>
  <g
     id="22-22-media-eject"
     transform="translate(-6.9999995,-46)">
    <rect
       style="opacity:0.00100002"
       id="22-22-rect27"
       width="22"
       height="22"
       x="231"
       y="24" />
    <path
       style="fill:#dfdfdf"
       id="22-22-path29"
       d="m 229,35 c -1.108,0 -2,0.892 -2,2 v 6 6 c 0,1.108 0.892,2 2,2 h 6 6 c 1.108,0 2,-0.892 2,-2 v -6 -6 c 0,-1.108 -0.892,-2 -2,-2 h -6 z m 6,3 4,4 v 1 h -8 v -1 z m -4,7 h 8 v 2 h -8 z"
       transform="translate(7,-8)"
       inkscape:connector-curvature="0" />
  </g>
  <g
     id="22-22-media-seek-forward"
     transform="translate(106,-22)">
    <rect
       style="opacity:0.00100002"
       id="22-22-rect32"
       width="22"
       height="22"
       x="22"
       y="0" />
    <path
       style="fill:#dfdfdf"
       id="22-22-path34"
       d="m 101,35 c -1.108,0 -2,0.892 -2,2 v 6 6 c 0,1.108 0.892,2 2,2 h 6 6 c 1.108,0 2,-0.892 2,-2 v -6 -6 c 0,-1.108 -0.892,-2 -2,-2 h -6 z m 1,4 5,3 v -3 l 6,4 -6,4 v -3 l -5,3 v -4 z"
       transform="translate(-74,-32)"
       inkscape:connector-curvature="0" />
  </g>
  <g
     id="22-22-media-skip-backward"
     transform="matrix(-1,0,0,1,76,-22)">
    <rect
       style="opacity:0.00100002"
       id="22-22-rect37"
       width="22"
       height="22"
       x="22"
       y="0" />
    <path
       style="fill:#dfdfdf"
       id="22-22-path39"
       d="m 69,35 c -1.108,0 -2,0.892 -2,2 v 6 6 c 0,1.108 0.892,2 2,2 h 6 6 c 1.108,0 2,-0.892 2,-2 v -6 -6 c 0,-1.108 -0.892,-2 -2,-2 h -6 z m 2,4 h 2 v 3.5 L 79,39 v 8 L 73,43.5 V 47 h -2 v -4 z"
       transform="matrix(-1,0,0,1,108,-32)"
       inkscape:connector-curvature="0" />
  </g>
  <g
     id="22-22-media-seek-backward"
     transform="matrix(-1,0,0,1,140,-22)">
    <rect
       style="opacity:0.00100002"
       id="22-22-rect42"
       width="22"
       height="22"
       x="22"
       y="0" />
    <path
       style="fill:#dfdfdf"
       id="22-22-path44"
       d="m 133,35 c -1.108,0 -2,0.892 -2,2 v 6 6 c 0,1.108 0.892,2 2,2 h 6 6 c 1.108,0 2,-0.892 2,-2 v -6 -6 c 0,-1.108 -0.892,-2 -2,-2 h -6 z m 6,4 v 3 l 5,-3 v 4 4 l -5,-3 v 3 l -6,-4 z"
       transform="matrix(-1,0,0,1,172,-32)"
       inkscape:connector-curvature="0" />
  </g>
  <g
     id="22-22-media-playback-playing"
     transform="translate(0,-44)">
    <rect
       style="opacity:0.00100002"
       id="22-22-rect47"
       width="22"
       height="22"
       x="0"
       y="0" />
    <path
       style="fill:#dfdfdf"
       id="22-22-path49"
       d="m 5,57 c -1.108,0 -2,0.892 -2,2 v 6 6 c 0,1.108 0.892,2 2,2 h 6 6 c 1.108,0 2,-0.892 2,-2 v -6 -6 c 0,-1.108 -0.892,-2 -2,-2 h -6 z m 3,4 8,4 -8,4 z"
       transform="translate(0,-54)"
       inkscape:connector-curvature="0" />
  </g>
  <g
     id="22-22-media-playback-paused"
     transform="translate(26.999998,-68)">
    <rect
       style="opacity:0.00100002"
       id="22-22-rect52"
       width="22"
       height="22"
       x="165"
       y="24" />
    <path
       style="fill:#dfdfdf"
       id="22-22-path54"
       d="m 165,57 c -1.108,0 -2,0.892 -2,2 v 6 6 c 0,1.108 0.892,2 2,2 h 6 6 c 1.108,0 2,-0.892 2,-2 v -6 -6 c 0,-1.108 -0.892,-2 -2,-2 h -6 z m 2,4 h 3 v 8 h -3 z m 5,0 h 3 v 8 h -3 z"
       transform="translate(5,-30)"
       inkscape:connector-curvature="0" />
  </g>
  <g
     id="22-22-media-playback-stopped"
     transform="translate(-27,-68)">
    <rect
       style="opacity:0.00100002"
       id="22-22-rect57"
       width="22"
       height="22"
       x="187"
       y="24" />
    <path
       style="fill:#dfdfdf"
       id="22-22-path59"
       d="m 197,57 c -1.108,0 -2,0.892 -2,2 v 6 6 c 0,1.108 0.892,2 2,2 h 6 6 c 1.108,0 2,-0.892 2,-2 v -6 -6 c 0,-1.108 -0.892,-2 -2,-2 h -6 z m 2,4 h 2 4 2 v 8 h -2 -4 -2 z"
       transform="translate(-5,-30)"
       inkscape:connector-curvature="0" />
  </g>
  <g
     id="media-playback-start">
    <rect
       y="0"
       x="0"
       height="32"
       width="32"
       id="rect850"
       style="opacity:0.00100002;stroke-width:1.4545455" />
    <path
       id="path862"
       d="M 7,4 C 5.3379999,4 4,5.3379999 4,7 v 9 9 c 0,1.662001 1.3379999,3 3,3 h 9 9 c 1.662,0 3,-1.337999 3,-3 V 16 7 C 28,5.3379999 26.662,4 25,4 h -9 z m 4,6 12,6 -12,6 z"
       style="fill:#dfdfdf;stroke-width:1.5"
       inkscape:connector-curvature="0" />
  </g>
  <g
     id="media-skip-forward"
     transform="translate(64)">
    <rect
       y="-5e-07"
       x="0"
       height="32"
       width="32"
       id="rect869"
       style="opacity:0.00100002;stroke-width:1.4545455" />
    <path
       inkscape:connector-curvature="0"
       d="M 7.0000004,4 C 5.3380003,4 4.0000003,5.338 4.0000003,7.0000001 V 16 25 c 0,1.662001 1.338,3 3.0000001,3 H 16 25 c 1.662001,0 3,-1.337999 3,-3 V 16 7.0000001 C 28,5.338 26.662001,4 25,4 H 16 Z M 9.9999998,9.9999996 19.000001,15.25 V 9.9999996 h 3 V 16 22.000001 h -3 V 16.75 l -9.0000013,5.250001 z"
       id="path871"
       style="fill:#dfdfdf;stroke-width:1.5" />
  </g>
  <g
     id="media-skip-backward"
     transform="matrix(-1,0,0,1,64,5e-7)">
    <rect
       style="opacity:0.00100002;stroke-width:1.4545455"
       id="rect881"
       width="32"
       height="32"
       x="0"
       y="-5e-07" />
    <path
       style="fill:#dfdfdf;stroke-width:1.5"
       id="path883"
       d="M 7.0000004,4 C 5.3380003,4 4.0000003,5.338 4.0000003,7.0000001 V 16 25 c 0,1.662001 1.338,3 3.0000001,3 H 16 25 c 1.662001,0 3,-1.337999 3,-3 V 16 7.0000001 C 28,5.338 26.662001,4 25,4 H 16 Z M 9.9999998,9.9999996 19.000001,15.25 V 9.9999996 h 3 V 16 22.000001 h -3 V 16.75 l -9.0000013,5.250001 z"
       inkscape:connector-curvature="0" />
  </g>
  <g
     id="media-seek-forward"
     transform="translate(128)">
    <rect
       y="-5e-07"
       x="0"
       height="32"
       width="32"
       id="rect887"
       style="opacity:0.00100002;stroke-width:1.4545455" />
    <path
       id="path889"
       d="M 7,4 C 5.3380001,4 4,5.338 4,7 v 9 9 c 0,1.662001 1.3380001,3 3,3 h 9 9 c 1.662,0 3,-1.337999 3,-3 V 16 7 C 28,5.338 26.662,4 25,4 h -9 z m 2,6 7,4.666016 V 14.5 10 l 9,6 -9,6 V 17.5 17.333984 L 9,22 Z"
       style="fill:#dfdfdf;stroke-width:1.5"
       inkscape:connector-curvature="0" />
  </g>
  <g
     transform="matrix(-1,0,0,1,128,0)"
     id="media-seek-backward">
    <rect
       style="opacity:0.00100002;stroke-width:1.4545455"
       id="rect902"
       width="32"
       height="32"
       x="0"
       y="-5e-07" />
    <path
       inkscape:connector-curvature="0"
       style="fill:#dfdfdf;stroke-width:1.5"
       d="M 7,4 C 5.3380001,4 4,5.338 4,7 v 9 9 c 0,1.662001 1.3380001,3 3,3 h 9 9 c 1.662,0 3,-1.337999 3,-3 V 16 7 C 28,5.338 26.662,4 25,4 h -9 z m 2,6 7,4.666016 V 14.5 10 l 9,6 -9,6 V 17.5 17.333984 L 9,22 Z"
       id="path904" />
  </g>
  <g
     id="media-playback-pause"
     transform="translate(192)">
    <rect
       style="opacity:0.00100002;stroke-width:1.4545455"
       id="rect914"
       width="32"
       height="32"
       x="-2.4999999e-06"
       y="0" />
    <path
       sodipodi:nodetypes="sscsscsscsscscccccccccc"
       style="fill:#dfdfdf;stroke-width:1.5"
       id="path916"
       d="m 6.9999997,4.0000005 c -1.6619999,0 -2.9999999,1.338 -2.9999999,3 V 16 25 c 0,1.662001 1.338,3 2.9999999,3 H 15.999999 25 c 1.661999,0 3,-1.337999 3,-3 V 16 7.0000005 c 0,-1.662 -1.338001,-3 -3,-3 H 15.999999 Z M 9.9999993,9.9999999 H 14 V 22.000001 H 9.9999993 Z m 8.0000007,0 h 4 V 22.000001 h -4 z"
       inkscape:connector-curvature="0" />
  </g>
  <g
     id="media-playback-stop"
     transform="translate(160)">
    <rect
       y="0"
       x="-1.4999999e-06"
       height="32"
       width="32"
       id="rect926"
       style="opacity:0.00100002;stroke-width:1.4545455" />
    <path
       inkscape:connector-curvature="0"
       d="m 6.9999996,4.0000005 c -1.6619999,0 -2.9999999,1.338 -2.9999999,3 V 16 25 c 0,1.662001 1.338,3 2.9999999,3 H 16 25 c 1.661999,0 3,-1.337999 3,-3 V 16 7.0000005 c 0,-1.662 -1.338001,-3 -3,-3 H 16 Z M 10,9.9999999 h 3 5.999999 3 V 22.000001 h -3 H 13 10 Z"
       id="path928"
       style="fill:#dfdfdf;stroke-width:1.5" />
  </g>
  <g
     id="media-eject"
     transform="translate(224)">
    <rect
       y="0"
       x="5.0000006e-07"
       height="32"
       width="32"
       id="rect938"
       style="opacity:0.00100002;stroke-width:1.4545455" />
    <path
       inkscape:connector-curvature="0"
       d="m 7.0000001,4.0000005 c -1.6619999,0 -2.9999999,1.338 -2.9999999,3 V 16 25 c 0,1.662001 1.338,3 2.9999999,3 H 16 25.000001 C 26.662,28 28,26.662001 28,25 V 16 7.0000005 c 0,-1.662 -1.338,-3 -2.999999,-3 H 16 Z M 16,8.5000004 22,14.500001 V 16 H 10.000001 V 14.500001 Z M 10.000001,19.000001 H 22 v 3 H 10.000001 Z"
       id="path940"
       style="fill:#dfdfdf;stroke-width:1.5" />
  </g>
  <g
     id="media-record"
     transform="translate(256)">
    <rect
       y="-5e-07"
       x="-3.0000001e-06"
       height="32"
       width="32"
       id="rect950"
       style="opacity:0.00100002;stroke-width:1.4545455" />
    <path
       inkscape:connector-curvature="0"
       d="m 7.0000001,4.0000005 c -1.6619999,0 -2.9999999,1.338 -2.9999999,3 V 16 25 c 0,1.662001 1.338,3 2.9999999,3 h 9.0000009 9 C 26.662,28 28,26.662001 28,25 V 16 7.0000005 c 0,-1.662 -1.338,-3 -2.999999,-3 h -9 z M 16.000001,9.9999999 A 5.9999999,5.9999999 0 0 1 22,16 a 5.9999999,5.9999999 0 0 1 -5.999999,6.000001 5.9999999,5.9999999 0 0 1 -6,-6.000001 5.9999999,5.9999999 0 0 1 6,-6.0000001 z"
       id="path952"
       style="fill:#5294e2;stroke-width:1.5" />
  </g>
  <g
     transform="translate(160,32)"
     id="media-playback-stopped">
    <rect
       style="opacity:0.00100002;stroke-width:1.4545455"
       id="rect962"
       width="32"
       height="32"
       x="-1.4999999e-06"
       y="0" />
    <path
       style="fill:#dfdfdf;stroke-width:1.5"
       id="path964"
       d="m 6.9999996,4.0000005 c -1.6619999,0 -2.9999999,1.338 -2.9999999,3 V 16 25 c 0,1.662001 1.338,3 2.9999999,3 H 16 25 c 1.661999,0 3,-1.337999 3,-3 V 16 7.0000005 c 0,-1.662 -1.338001,-3 -3,-3 H 16 Z M 10,9.9999999 h 3 5.999999 3 V 22.000001 h -3 H 13 10 Z"
       inkscape:connector-curvature="0" />
  </g>
  <g
     transform="translate(192,32)"
     id="media-playback-paused">
    <rect
       y="0"
       x="-2.4999999e-06"
       height="32"
       width="32"
       id="rect974"
       style="opacity:0.00100002;stroke-width:1.4545455" />
    <path
       inkscape:connector-curvature="0"
       d="m 6.9999997,4.0000005 c -1.6619999,0 -2.9999999,1.338 -2.9999999,3 V 16 25 c 0,1.662001 1.338,3 2.9999999,3 H 15.999999 25 c 1.661999,0 3,-1.337999 3,-3 V 16 7.0000005 c 0,-1.662 -1.338001,-3 -3,-3 H 15.999999 Z M 9.9999993,9.9999999 H 14 V 22.000001 H 9.9999993 Z m 8.0000007,0 h 4 V 22.000001 h -4 z"
       id="path976"
       style="fill:#dfdfdf;stroke-width:1.5"
       sodipodi:nodetypes="sscsscsscsscscccccccccc" />
  </g>
  <g
     id="media-playback-playing"
     transform="translate(0,32)">
    <rect
       style="opacity:0.00100002;stroke-width:1.4545455"
       id="rect986"
       width="32"
       height="32"
       x="0"
       y="0" />
    <path
       inkscape:connector-curvature="0"
       style="fill:#dfdfdf;stroke-width:1.5"
       d="M 7,4 C 5.3379999,4 4,5.3379999 4,7 v 9 9 c 0,1.662001 1.3379999,3 3,3 h 9 9 c 1.662,0 3,-1.337999 3,-3 V 16 7 C 28,5.3379999 26.662,4 25,4 h -9 z m 4,6 12,6 -12,6 z"
       id="path988" />
  </g>
</svg>
