<svg xmlns="http://www.w3.org/2000/svg" id="svg16" width="22" height="22" x="0" y="0" version="1.1" viewBox="-2.01 0 22 22">
 <g id="mellowplayer">
  <rect id="rect4549" width="22" height="22" x="-2.01" y="0" style="opacity:0.00100002;fill:#000000;fill-opacity:1;stroke-width:1.69733691"/>
  <path id="circle2" d="m 6.99,3 a 5,5 0 0 0 -5,4.9999999 5,5 0 0 0 0.3046875,1.6875 3,3 0 0 1 2.6953125,-1.6875 3,3 0 0 1 0.00586,0 v -2.595703 c 2.941e-4,0 -0.022612,-0.2663222 0.1855468,-0.3710938 0.202273,-0.1017342 0.3964844,0.060547 0.3964844,0.060547 l 1.96875,1.1699219 A 3,3 0 0 1 9.99,5 3,3 0 0 1 11.142344,5.2324219 5,5 0 0 0 6.99,3 Z m 5.240234,3.0078125 A 3,3 0 0 1 12.99,7.9999999 a 3,3 0 0 1 -0.308594,1.31836 l 2.025391,1.2050781 c 0,0 0.283203,0.139514 0.283203,0.472656 0,0.334053 -0.287109,0.443359 -0.287109,0.443359 l -2.035157,1.208985 A 3,3 0 0 1 12.99,14 3,3 0 0 1 12.232188,15.988281 5,5 0 0 0 16.99,11 5,5 0 0 0 12.230234,6.0078125 Z M 2.2927344,12.302735 A 5,5 0 0 0 1.99,14 a 5,5 0 0 0 5,5 5,5 0 0 0 4.158203,-2.232422 A 3,3 0 0 1 9.99,17 3,3 0 0 1 7.5251562,15.705078 l -2.0605468,1.22461 c 0,0 -0.1399356,0.122228 -0.3183594,0.04297 -0.2037449,-0.0911 -0.1503906,-0.322265 -0.1503906,-0.322265 V 14 a 3,3 0 0 1 -0.00586,0 3,3 0 0 1 -2.697265,-1.697265 z" style="fill:#dfdfdf;fill-opacity:1"/>
  <path id="circle8" d="M 9.99,5 A 3,3 0 0 0 7.5466406,6.265625 l 2.6718754,1.5878909 2.464843,1.466797 A 3,3 0 0 0 12.99,7.9999999 3,3 0 0 0 9.99,5 Z m -5,2.9999999 A 3,3 0 0 0 1.99,11 a 3,3 0 0 0 3,3 3,3 0 0 0 0.00586,0 V 10.982422 7.9999999 a 3,3 0 0 0 -0.00586,0 z m 7.675781,4.6503911 -2.457031,1.458984 -2.6855469,1.595703 A 3,3 0 0 0 9.99,17 a 3,3 0 0 0 3,-3 3,3 0 0 0 -0.324219,-1.349609 z" style="opacity:0.3;fill:#dfdfdf;fill-opacity:1"/>
 </g>
</svg>
