<svg xmlns="http://www.w3.org/2000/svg" id="svg72" width="32" height="32" version="1.1">
 <g id="22-22-notifications-disabled" transform="translate(0,-22)">
  <rect id="rect861" style="opacity:0.00100002" width="22" height="22" x="0" y="0"/>
  <path id="path863" style="opacity:0.3;fill:#dfdfdf" d="m 11,3 a 8,8 0 0 0 -8,8 8,8 0 0 0 8,8 8,8 0 0 0 3,-0.589844 V 18.171875 L 14.671875,17.5 14,16.828125 V 16.1875 A 6,6 0 0 1 11,17 6,6 0 0 1 5,11 a 6,6 0 0 1 6,-6 6,6 0 0 1 6,6 6,6 0 0 1 -0.810547,3 h 0.638672 L 17.5,14.671875 18.171875,14 h 0.240234 A 8,8 0 0 0 19,11 8,8 0 0 0 11,3 Z m -1,3 v 6 h 2 V 6 Z m 1,7 c -0.453152,0 -1,0.518427 -1,0.980469 C 10,14.442512 10.546848,15 11,15 11.453152,15 12,14.442512 12,13.980469 12,13.518427 11.453152,13 11,13 Z"/>
  <path id="path871" style="color:#000000;font-style:normal;font-variant:normal;font-weight:normal;font-stretch:normal;font-size:medium;line-height:normal;font-family:sans-serif;font-variant-ligatures:normal;font-variant-position:normal;font-variant-caps:normal;font-variant-numeric:normal;font-variant-alternates:normal;font-feature-settings:normal;text-indent:0;text-align:start;text-decoration:none;text-decoration-line:none;text-decoration-style:solid;text-decoration-color:#000000;letter-spacing:normal;word-spacing:normal;text-transform:none;writing-mode:lr-tb;direction:ltr;text-orientation:mixed;dominant-baseline:auto;baseline-shift:baseline;text-anchor:start;white-space:normal;shape-padding:0;clip-rule:nonzero;display:inline;overflow:visible;visibility:visible;opacity:1;isolation:auto;mix-blend-mode:normal;color-interpolation:sRGB;color-interpolation-filters:linearRGB;solid-color:#000000;solid-opacity:1;vector-effect:none;fill:#4285f4;fill-opacity:1;fill-rule:nonzero;stroke:none;stroke-width:2;stroke-linecap:butt;stroke-linejoin:miter;stroke-miterlimit:4;stroke-dasharray:none;stroke-dashoffset:0;stroke-opacity:1;color-rendering:auto;image-rendering:auto;shape-rendering:auto;text-rendering:auto;enable-background:accumulate" d="m 15,15 v 1.414062 L 16.085938,17.5 15,18.585938 V 20 h 1.414062 L 17.5,18.914062 18.585938,20 H 20 V 18.585938 L 18.914062,17.5 20,16.414062 V 15 H 18.585938 L 17.5,16.085938 16.414062,15 Z"/>
 </g>
 <g id="notifications-disabled">
  <rect id="rect905" style="opacity:0.00100002" width="32" height="32" x="0" y="0"/>
  <path id="path907" style="opacity:0.3;fill:#dfdfdf" d="M 15.5 4 A 11.5 11.5 0 0 0 4 15.5 A 11.5 11.5 0 0 0 15.5 27 A 11.5 11.5 0 0 0 20.46875 25.855469 L 21.324219 25 L 20 23.675781 L 20 22.705078 A 8.5 8.5 0 0 1 15.5 24 A 8.5 8.5 0 0 1 7 15.5 A 8.5 8.5 0 0 1 15.5 7 A 8.5 8.5 0 0 1 24 15.5 A 8.5 8.5 0 0 1 22.699219 20 L 23.675781 20 L 25 21.324219 L 25.863281 20.460938 A 11.5 11.5 0 0 0 27 15.5 A 11.5 11.5 0 0 0 15.5 4 z M 14 9 L 14 17 L 17 17 L 17 9 L 14 9 z M 15.5 19 C 14.820271 19 14 19.77764 14 20.470703 C 14 21.163769 14.820271 22 15.5 22 C 16.179729 22 17 21.163769 17 20.470703 C 17 19.77764 16.179729 19 15.5 19 z"/>
  <path id="path901" style="color:#000000;font-style:normal;font-variant:normal;font-weight:normal;font-stretch:normal;font-size:medium;line-height:normal;font-family:sans-serif;font-variant-ligatures:normal;font-variant-position:normal;font-variant-caps:normal;font-variant-numeric:normal;font-variant-alternates:normal;font-feature-settings:normal;text-indent:0;text-align:start;text-decoration:none;text-decoration-line:none;text-decoration-style:solid;text-decoration-color:#000000;letter-spacing:normal;word-spacing:normal;text-transform:none;writing-mode:lr-tb;direction:ltr;text-orientation:mixed;dominant-baseline:auto;baseline-shift:baseline;text-anchor:start;white-space:normal;shape-padding:0;clip-rule:nonzero;display:inline;overflow:visible;visibility:visible;opacity:1;isolation:auto;mix-blend-mode:normal;color-interpolation:sRGB;color-interpolation-filters:linearRGB;solid-color:#000000;solid-opacity:1;vector-effect:none;fill:#4285f4;fill-opacity:1;fill-rule:nonzero;stroke:none;stroke-width:3.19999957;stroke-linecap:butt;stroke-linejoin:miter;stroke-miterlimit:4;stroke-dasharray:none;stroke-dashoffset:0;stroke-opacity:1;color-rendering:auto;image-rendering:auto;shape-rendering:auto;text-rendering:auto;enable-background:accumulate" d="m 21,21 v 2.262499 L 22.737502,25 21,26.737501 V 29 h 2.262499 L 25,27.262499 26.737501,29 H 29 V 26.737501 L 27.262499,25 29,23.262499 V 21 H 26.737501 L 25,22.737502 23.262499,21 Z"/>
 </g>
</svg>
