<svg xmlns="http://www.w3.org/2000/svg" id="svg22" width="22" height="22" version="1.1">
 <g id="nulloy" transform="translate(-5,-5)">
  <rect style="opacity:0.00100002" id="rect2" width="22" height="22" x="5" y="5"/>
  <path id="path866" d="m 7.8007812,8 0.015625,0.109375 c 0.38758,2.568739 0.6101395,4.688491 0.8984376,5.976563 0.2882979,1.288071 0.646903,2.055427 1.3203122,2.480468 0.673409,0.42504 1.632521,0.497668 3.107422,0.451172 1.474902,-0.04647 3.470212,-0.41522 6.22461,-0.5 l 0.08984,-0.002 -0.01172,-0.08594 C 19.18584,14.455564 19.099433,12.986687 18.923828,12.001953 18.748223,11.017214 18.473372,10.402694 17.84375,9.9863281 17.214126,9.5699601 16.249941,9.3509211 14.683594,9.0957031 13.117248,8.8404851 10.946504,8.5523653 7.9082031,8.0195312 Z M 21,8 c -1.101094,0 -2,0.8931412 -2,2 0,1.106982 0.898917,2 2,2 1.101083,0 2,-0.893018 2,-2 0,-1.1068588 -0.898906,-2 -2,-2 z m 3.230469,3.529297 -0.16211,0.0957 c -1.297474,0.775815 -2.256257,0.91491 -2.998047,1.322266 -0.370893,0.203677 -0.685086,0.478048 -0.941406,0.925781 -0.256321,0.447738 -0.457447,1.065933 -0.61914,1.966797 l -0.02344,0.138672 0.128906,-0.04883 c 2.014055,-0.753822 2.909082,-0.820274 3.451172,-1.212891 0.271046,-0.196312 0.438077,-0.473804 0.591797,-0.933594 0.153721,-0.459789 0.297716,-1.10737 0.527344,-2.070312 z m -0.166016,3.371094 -0.214844,0.07031 c -2.152232,0.718146 -3.034326,0.924717 -3.486328,1.253906 -0.226003,0.16459 -0.333616,0.365254 -0.416015,0.648438 -0.0824,0.283189 -0.146477,0.65599 -0.294922,1.199219 l -0.03516,0.126953 0.128906,-0.0293 c 1.303416,-0.287641 1.903723,-0.35643 2.412109,-0.714844 0.508386,-0.358413 0.893709,-0.983894 1.783203,-2.365234 z m -4.546875,2.039062 -0.109375,0.0078 c -3.273446,0.17059 -4.97801,0.192331 -6.113281,0.917968 -0.567635,0.362799 -0.978567,0.949706 -1.353516,1.894532 -0.374949,0.944826 -0.719444,1.920856 -1.158203,3.746093 l -0.03125,0.132813 0.130859,-0.03906 c 1.953683,-0.573969 3.339572,-0.822115 4.351563,-0.984375 1.011989,-0.162254 1.653327,-0.23478 2.128906,-0.476562 0.47558,-0.241783 0.762858,-0.653913 1.048828,-1.44336 0.285969,-0.789448 0.578918,-1.835053 1.076172,-3.648437 z m 3.929688,0.07617 c -0.961323,1.008581 -1.781951,1.19094 -2.417969,1.414063 -0.31801,0.111564 -0.594522,0.235462 -0.802735,0.482421 -0.208213,0.246958 -0.34213,0.608529 -0.394531,1.181641 l -0.0078,0.09961 0.09766,-0.01172 c 1.169105,-0.151304 1.825311,-0.268194 2.322266,-0.685547 0.496955,-0.417353 0.813565,-1.113546 1.333984,-2.396485 z m -11.78711,1.886719 -0.142578,0.03711 c -1.484411,0.371915 -2.1690519,0.827698 -2.5937499,1.582031 -0.424698,0.754333 -0.5954657,1.784385 -1.1054687,3.330078 L 7.7695312,24 7.9199219,23.949219 c 0.67387,-0.222834 1.1517931,-0.383803 1.5175781,-0.566407 0.365785,-0.182576 0.620186,-0.389667 0.826172,-0.697265 0.411972,-0.61519 0.64305,-1.607648 1.347656,-3.646485 z m 11.472656,0.902344 -0.144531,0.05469 c -1.191389,0.453627 -1.8455,0.656192 -2.203125,0.966797 -0.178813,0.155303 -0.2777,0.342515 -0.3125,0.582031 -0.0348,0.239516 -0.012,0.257178 0.03516,0.646485 l 0.0098,0.08984 0.08789,-0.02148 c 0.406632,-0.102815 0.702196,-0.1021 0.939453,-0.0918 0.237255,0.0103 0.423722,0.03653 0.597656,-0.04492 0.173933,-0.08146 0.306779,-0.262931 0.447266,-0.613281 0.140486,-0.350356 0.292452,-0.606726 0.503906,-1.419922 z" style="fill:#dfdfdf;fill-opacity:1;stroke-width:0.54482573"/>
 </g>
</svg>
