<svg xmlns="http://www.w3.org/2000/svg" id="svg26" width="22" height="22" version="1.1" viewBox="0 0 22 22">
 <g id="plasmavault-error">
  <rect style="opacity:0;fill:#2b0000;fill-opacity:0.40392157" id="rect2" width="22" height="22" x="0" y="0"/>
  <path style="fill:#5294e2" id="path4" d="M 4.1425781,3 C 4.1425781,3 3,3.04269 3,4.1855469 V 16.857422 C 3,16.857422 2.9997211,18 4.1425781,18 H 17.857422 C 17.857422,18 19,18.000279 19,16.857422 V 6.171875 C 19,5.0290177 17.857422,5 17.857422,5 H 12.142578 L 9.8574219,3 Z M 10,6 h 2 v 7 h -2 z m 1,8 a 1,1 0 0 1 1,1 1,1 0 0 1 -1,1 1,1 0 0 1 -1,-1 1,1 0 0 1 1,-1 z"/>
 </g>
 <rect style="opacity:0;fill:#2b0000;fill-opacity:0.40392157" id="rect7" width="22" height="22" x="-30.46" y="-3.54"/>
</svg>
