<svg xmlns="http://www.w3.org/2000/svg" width="32" height="32" version="1">
 <g id="plasma-browser-integration">
  <path style="opacity:0.001" d="M 0,0 V 32 H 32 V 0 Z"/>
  <path style="fill:#dfdfdf" d="M 16 4 A 12 12 0 0 0 4 16 A 12 12 0 0 0 16 28 A 12 12 0 0 0 17.539062 27.888672 A 8 8 0 0 1 17 25 A 8 8 0 0 1 21.095703 18.027344 A 1.5 1.5 0 0 1 21 17.5 A 1.5 1.5 0 0 1 22.5 16 A 1.5 1.5 0 0 1 23.939453 17.080078 A 8 8 0 0 1 25 17 A 8 8 0 0 1 27.886719 17.546875 A 12 12 0 0 0 28 16 A 12 12 0 0 0 16 4 z M 13.970703 8 C 14.952217 7.989921 16.025323 8.2757673 16.488281 8.625 C 16.247338 8.53505 16.004683 8.45884 15.757812 8.4003906 C 13.446414 7.8673411 11.556511 9.1290054 11.152344 10.525391 C 10.751663 11.909933 11.685764 14.034868 14.505859 15.46875 C 17.502654 16.992458 18.242696 19.22863 17.9375 20.8125 C 17.784048 21.608671 17.397904 22.162199 16.923828 22.646484 C 15.314914 24.259257 13.379471 24.354756 11.332031 23.333984 C 7.6289217 21.451471 5.9785194 16.536522 7.65625 12.380859 C 8.7509659 9.8220569 10.909017 8.7095819 13.042969 8.1191406 C 13.323896 8.0414186 13.643532 8.0033374 13.970703 8 z M 18.5 9 A 1.5 1.5 0 0 1 20 10.5 A 1.5 1.5 0 0 1 18.5 12 A 1.5 1.5 0 0 1 17 10.5 A 1.5 1.5 0 0 1 18.5 9 z M 21.5 12 A 1.5 1.5 0 0 1 23 13.5 A 1.5 1.5 0 0 1 21.5 15 A 1.5 1.5 0 0 1 20 13.5 A 1.5 1.5 0 0 1 21.5 12 z M 25 19 C 21.686286 19 19 21.686287 19 25 C 19 28.313713 21.686286 31 25 31 C 28.313713 31 31 28.313713 31 25 C 31 21.686287 28.313713 19 25 19 z M 24.439453 20.197266 C 24.504733 20.190366 24.586468 20.201166 24.652344 20.197266 C 24.660144 20.228496 24.605715 20.339344 24.53125 20.501953 C 24.057122 21.537726 24.02872 22.750081 24.46875 23.398438 C 24.54838 23.515994 24.621094 23.62804 24.621094 23.642578 C 24.621094 23.657128 24.536556 23.673828 24.439453 23.673828 C 24.211513 23.673829 23.995413 23.534537 23.554688 23.185547 C 23.358899 23.030513 23.10447 22.90057 23.005859 22.880859 C 22.85101 22.849929 22.809698 22.86411 22.609375 23.064453 C 22.422994 23.250804 22.365234 23.350885 22.365234 23.521484 C 22.365234 24.168418 23.134903 24.681762 24.5625 24.984375 C 26.501235 25.395278 26.977773 25.763745 27.03125 26.783203 C 27.0984 28.061574 26.418452 29.025246 24.927734 29.771484 C 24.749805 29.860584 24.637153 29.896991 24.5625 29.925781 C 24.52941 29.922881 24.50172 29.928681 24.46875 29.925781 C 24.456 29.886271 24.439453 29.794832 24.439453 29.621094 C 24.439453 28.942113 24.170848 28.242391 23.767578 27.851562 C 23.659323 27.746637 23.357214 27.523955 23.097656 27.363281 C 22.838107 27.202614 22.575933 27.017129 22.517578 26.9375 C 22.420888 26.805365 22.414001 26.724579 22.488281 26.480469 C 22.623686 26.034631 22.784327 25.783655 23.097656 25.501953 C 23.261921 25.354263 23.426502 25.233409 23.462891 25.230469 C 23.499281 25.227569 23.254225 25.151747 22.884766 25.076172 C 22.515327 25.000432 21.972774 24.841362 21.693359 24.740234 C 21.18242 24.555359 20.493462 24.167609 20.230469 23.886719 C 20.219369 23.874869 20.208879 23.866009 20.199219 23.855469 C 20.576026 22.354506 21.63334 21.126036 23.035156 20.533203 C 23.328469 20.409138 23.63199 20.323096 23.951172 20.257812 C 24.11016 20.225313 24.275295 20.213956 24.439453 20.197266 z M 29.013672 22.484375 C 29.128286 22.555225 29.562012 23.492519 29.685547 23.949219 C 29.845039 24.538822 29.833493 25.558821 29.685547 26.144531 C 29.629237 26.367455 29.555256 26.575608 29.53125 26.601562 C 29.50725 26.627513 29.418809 26.478351 29.316406 26.296875 C 29.213982 26.115424 28.889053 25.730212 28.617188 25.443359 C 27.832465 24.615315 27.708402 24.182335 28.037109 23.521484 C 28.202879 23.18824 28.924966 22.429631 29.013672 22.484375 z"/>
 </g>
 <g id="22-22-plasma-browser-integration" transform="translate(27,5)">
  <rect style="opacity:0.001" width="22" height="22" x="5" y="5"/>
  <path style="fill:#dfdfdf" transform="translate(-27.254237,-15.440678)" d="m 43.253906,23.441406 c -4.432,0 -8,3.568 -8,8 0,4.432 3.568,8 8,8 0.467807,0 0.923765,-0.04868 1.369141,-0.125 a 5,5 0 0 1 -0.369141,-1.875 5,5 0 0 1 2.351563,-4.238281 0.99999999,1 0 0 1 -0.351563,-0.761719 0.99999999,1 0 0 1 1,-1 0.99999999,1 0 0 1 1,1 0.99999999,1 0 0 1 -0.0078,0.107422 5,5 0 0 1 1.007812,-0.107422 5,5 0 0 1 1.875,0.369141 c 0.07632,-0.445376 0.125,-0.901334 0.125,-1.369141 0,-4.432 -3.568,-8 -8,-8 z m -1.564453,3 c 0.62453,-0.0063 1.306986,0.172348 1.601563,0.390625 -0.15331,-0.05622 -0.307762,-0.104093 -0.464844,-0.140625 -1.470729,-0.333166 -2.418612,0.455359 -2.675781,1.328125 -0.254951,0.865365 0.0845,2.193641 1.878906,3.089844 1.906839,0.952347 2.377788,2.349896 2.183594,3.339844 -0.09764,0.497622 -0.342882,0.843797 -0.644532,1.146484 -1.023742,1.008014 -2.255822,1.06769 -3.558593,0.429688 -2.356263,-1.176606 -3.405419,-4.248336 -2.337891,-6.845703 0.69656,-1.599301 2.069916,-2.295026 3.427734,-2.664063 0.178752,-0.04858 0.381667,-0.07213 0.589844,-0.07422 z m 3.564453,0 a 0.99999999,1 0 0 1 1,1 0.99999999,1 0 0 1 -1,1 0.99999999,1 0 0 1 -1,-1 0.99999999,1 0 0 1 1,-1 z m 2,2 a 0.99999999,1 0 0 1 1,1 0.99999999,1 0 0 1 -1,1 0.99999999,1 0 0 1 -1,-1 0.99999999,1 0 0 1 1,-1 z m 2,5 c -2.209143,0 -4,1.790858 -4,4 0,2.209142 1.790857,4 4,4 2.209142,0 4,-1.790858 4,-4 0,-2.209142 -1.790858,-4 -4,-4 z m -0.373047,0.796875 c 0.04352,-0.0046 0.09671,0.0026 0.140625,0 0.0052,0.02082 -0.03044,0.09472 -0.08008,0.203125 -0.316086,0.690516 -0.334365,1.499403 -0.04102,1.931641 0.05309,0.07837 0.101562,0.152417 0.101562,0.162109 0,0.0097 -0.05636,0.02148 -0.121094,0.02148 -0.15196,10e-7 -0.296025,-0.09351 -0.589843,-0.326172 -0.130525,-0.103356 -0.301447,-0.189985 -0.367188,-0.203125 -0.103232,-0.02062 -0.130123,-0.01052 -0.263672,0.123047 -0.124254,0.124234 -0.162109,0.190954 -0.162109,0.304687 0,0.431289 0.513113,0.772868 1.464844,0.97461 1.29249,0.273935 1.608879,0.51958 1.644531,1.199218 0.04476,0.852247 -0.408532,1.494696 -1.402344,1.992188 -0.118619,0.0594 -0.192418,0.08432 -0.242187,0.103515 -0.02206,-0.0019 -0.04052,0.0019 -0.0625,0 -0.0085,-0.02634 -0.01953,-0.0873 -0.01953,-0.203125 0,-0.452654 -0.178418,-0.919134 -0.447265,-1.179687 -0.07217,-0.06995 -0.274228,-0.219056 -0.447266,-0.326172 -0.173033,-0.107111 -0.347815,-0.230117 -0.386719,-0.283203 -0.06446,-0.08809 -0.06905,-0.141948 -0.01953,-0.304688 0.09027,-0.297225 0.197364,-0.464542 0.40625,-0.652343 0.10951,-0.09846 0.219881,-0.179681 0.244141,-0.181641 0.02426,-0.0019 -0.140413,-0.05118 -0.386719,-0.101562 -0.246293,-0.05049 -0.606692,-0.157191 -0.792969,-0.22461 -0.340626,-0.12325 -0.801233,-0.381099 -0.976562,-0.568359 -0.0074,-0.0079 -0.01309,-0.01445 -0.01953,-0.02148 0.251204,-1.000642 0.95608,-1.819621 1.890624,-2.214843 0.195542,-0.08271 0.396588,-0.140071 0.609376,-0.183594 0.105992,-0.02166 0.216732,-0.02989 0.326171,-0.04102 z m 3.048829,1.525391 c 0.07641,0.04723 0.364908,0.672095 0.447265,0.976562 0.106328,0.393069 0.09863,1.072418 0,1.462891 -0.03754,0.148616 -0.08556,0.287384 -0.101562,0.304687 -0.016,0.0173 -0.07431,-0.08214 -0.142579,-0.203124 -0.06828,-0.120968 -0.285552,-0.377125 -0.466796,-0.56836 -0.523149,-0.552029 -0.605857,-0.840683 -0.386719,-1.28125 0.110513,-0.222163 0.591254,-0.727902 0.650391,-0.691406 z"/>
 </g>
</svg>
