<svg xmlns="http://www.w3.org/2000/svg" id="22-22-svg64" width="22" height="22" version="1">
 <g id="22-22-plasma-browser-integration" transform="translate(-5,-5)">
  <rect style="opacity:0.00100002" id="22-22-rect57" width="22" height="22" x="5" y="5"/>
  <path style="fill:#dfdfdf" id="22-22-path59" d="m 16,8 c -4.432,0 -8,3.568 -8,8 0,4.432 3.568,8 8,8 0.467807,0 0.923765,-0.04868 1.369141,-0.125 A 5,5 0 0 1 17,22 5,5 0 0 1 19.351562,17.761719 0.99999999,1 0 0 1 19,17 0.99999999,1 0 0 1 20,16 0.99999999,1 0 0 1 21,17 0.99999999,1 0 0 1 20.9922,17.107422 5,5 0 0 1 22,17 5,5 0 0 1 23.875,17.369141 C 23.951324,16.923765 24,16.467807 24,16 24,11.568 20.432,8 16,8 Z m -1.564453,3 c 0.62453,-0.0063 1.306985,0.172348 1.601562,0.390625 -0.15331,-0.05622 -0.307761,-0.104093 -0.464843,-0.140625 -1.470729,-0.333166 -2.418613,0.455359 -2.675782,1.328125 -0.254951,0.865365 0.0845,2.193641 1.878907,3.089844 1.906839,0.952347 2.377787,2.349895 2.183593,3.339843 -0.09764,0.497622 -0.342881,0.843798 -0.644531,1.146485 -1.023742,1.008014 -2.255823,1.067689 -3.558594,0.429687 -2.356263,-1.176606 -3.405418,-4.248335 -2.33789,-6.845703 0.69656,-1.599301 2.069916,-2.295025 3.427734,-2.664062 C 14.024455,11.025641 14.22737,11.002086 14.435547,11 Z M 18,11 a 0.99999999,1 0 0 1 1,1 0.99999999,1 0 0 1 -1,1 0.99999999,1 0 0 1 -1,-1 0.99999999,1 0 0 1 1,-1 z m 2,2 a 0.99999999,1 0 0 1 1,1 0.99999999,1 0 0 1 -1,1 0.99999999,1 0 0 1 -1,-1 0.99999999,1 0 0 1 1,-1 z"/>
  <path style="fill:#dfdfdf" id="22-22-path61" d="m 22,18 c -2.209143,0 -4,1.790858 -4,4 0,2.209142 1.790857,4 4,4 2.209142,0 4,-1.790858 4,-4 0,-2.209142 -1.790858,-4 -4,-4 z m -0.374219,0.797657 c 0.04352,-0.0046 0.09827,0.0026 0.142188,0 0.0052,0.02082 -0.03083,0.0955 -0.08047,0.203905 -0.316086,0.690516 -0.33476,1.499012 -0.04141,1.93125 0.05309,0.07837 0.101562,0.152808 0.101562,0.1625 0,0.0097 -0.05714,0.02031 -0.121875,0.02031 -0.15196,1e-6 -0.296025,-0.09234 -0.589843,-0.325 -0.130525,-0.103356 -0.299885,-0.189985 -0.365626,-0.203125 -0.103232,-0.02062 -0.130513,-0.01169 -0.264062,0.121875 -0.124254,0.124234 -0.1625,0.191736 -0.1625,0.305469 0,0.431289 0.512331,0.773258 1.464062,0.975 1.29249,0.273935 1.610443,0.519581 1.646095,1.199219 0.04476,0.852247 -0.408532,1.494696 -1.402344,1.992188 -0.118619,0.0594 -0.193982,0.08315 -0.243751,0.102343 -0.02206,-0.0019 -0.03974,0.0019 -0.06172,0 -0.0085,-0.02634 -0.02031,-0.0873 -0.02031,-0.203125 0,-0.452654 -0.178027,-0.919134 -0.446874,-1.179687 -0.07217,-0.06995 -0.273837,-0.217884 -0.446875,-0.325 -0.173033,-0.107111 -0.347815,-0.231289 -0.386719,-0.284375 -0.06446,-0.08809 -0.06906,-0.141948 -0.01954,-0.304688 0.09027,-0.297225 0.197364,-0.463761 0.40625,-0.651562 0.10951,-0.09846 0.21949,-0.180072 0.24375,-0.182032 0.02426,-0.0019 -0.139632,-0.05196 -0.385938,-0.102343 -0.246293,-0.05049 -0.607473,-0.156019 -0.79375,-0.223438 -0.340626,-0.12325 -0.800452,-0.382271 -0.975781,-0.569531 -0.0074,-0.0079 -0.01387,-0.01328 -0.02031,-0.02031 0.251205,-1.000642 0.956081,-1.820402 1.890625,-2.215624 0.195542,-0.08271 0.397368,-0.13929 0.610156,-0.182813 0.105992,-0.02166 0.215561,-0.03028 0.325,-0.04141 z m 3.050001,1.525 c 0.07641,0.04723 0.365299,0.672094 0.447656,0.976561 0.106328,0.393069 0.09863,1.072809 0,1.463282 -0.03754,0.148616 -0.08634,0.287383 -0.102344,0.304687 -0.016,0.0173 -0.0747,-0.08136 -0.142969,-0.202344 -0.06828,-0.120967 -0.285163,-0.378296 -0.466407,-0.569531 -0.523149,-0.552029 -0.605856,-0.839902 -0.386718,-1.280469 0.110513,-0.222163 0.591645,-0.728682 0.650782,-0.692186 z"/>
 </g>
</svg>
