<svg xmlns="http://www.w3.org/2000/svg" id="svg132" width="22" height="22" version="1.1" viewBox="0 0 22 22">
 <g id="quota" transform="translate(-5,-5)">
  <rect style="opacity:0.00100002" id="rect87" width="22" height="22" x="5" y="5"/>
  <g id="g91" transform="translate(8,8.0002)">
   <path style="fill:#dfdfdf" id="path89" d="M 11,8 C 10,8 10,9.1425781 10,9.1425781 V 22.857422 C 10,22.857422 10,24 11,24 h 7 v -5 c 0,-0.248628 0.07186,-0.464157 0.173828,-0.650391 C 17.547198,18.757079 16.80311,19 16,19 h -4 v -4 c 0,-2.2091 1.7909,-4 4,-4 2.209,0 4,1.7909 4,4 0,0.974222 -0.362523,1.855007 -0.941406,2.548828 0.160758,-0.08044 0.327471,-0.146266 0.503906,-0.205078 C 20.250157,17.114531 21.0815,17 22,17 V 9.1425781 C 22,9.1424781 22,8 21,8 Z m 5,5 c -1.1046,0 -2,0.8954 -2,2 0,1.1046 0.8954,2 2,2 1.1046,0 2,-0.8954 2,-2 0,-1.1046 -0.8954,-2 -2,-2 z" transform="translate(-8,-8.0002)"/>
  </g>
  <path style="fill:#dfdfdf" id="path93" d="m 22,18 a 3,1 0 0 0 -3,1 v 5 a 3,1 0 0 0 3,1 3,1 0 0 0 3,-1 v -5 a 3,1 0 0 0 -3,-1 z m 0,1 a 3,1 0 0 1 2,0.257812 v 0.486329 A 3,1 0 0 1 22,20 3,1 0 0 1 20,19.742188 V 19.255859 A 3,1 0 0 1 22,19 Z m -2,1.744141 A 3,1 0 0 0 22,21 3,1 0 0 0 24,20.744141 v 1 A 3,1 0 0 1 22,22 3,1 0 0 1 20,21.742188 Z m 0,2 A 3,1 0 0 0 22,23 3,1 0 0 0 24,22.744141 v 1 A 3,1 0 0 1 22,24 3,1 0 0 1 20,23.742188 Z"/>
 </g>
 <g id="quota-low" transform="translate(27,-5)">
  <rect style="opacity:0.00100002" id="rect96" width="22" height="22" x="5" y="5"/>
  <g id="g100" transform="translate(8,8.0002)">
   <path style="fill:#dfdfdf" id="path98" d="M 11,8 C 10,8 10,9.1425781 10,9.1425781 V 22.857422 C 10,22.857422 10,24 11,24 h 7 v -5 c 0,-0.248628 0.07186,-0.464157 0.173828,-0.650391 C 17.547198,18.757079 16.80311,19 16,19 h -4 v -4 c 0,-2.2091 1.7909,-4 4,-4 2.209,0 4,1.7909 4,4 0,0.974222 -0.362523,1.855007 -0.941406,2.548828 0.160758,-0.08044 0.327471,-0.146266 0.503906,-0.205078 C 20.250157,17.114531 21.0815,17 22,17 V 9.1425781 C 22,9.1424781 22,8 21,8 Z m 5,5 c -1.1046,0 -2,0.8954 -2,2 0,1.1046 0.8954,2 2,2 1.1046,0 2,-0.8954 2,-2 0,-1.1046 -0.8954,-2 -2,-2 z" transform="translate(-8,-8.0002)"/>
  </g>
  <path style="fill:#dfdfdf" id="path102" d="m 22,18 c -1.656854,0 -3,0.447715 -3,1 v 5 c 0,0.552285 1.343146,1 3,1 1.656854,0 3,-0.447715 3,-1 v -5 c 0,-0.552285 -1.343146,-1 -3,-1 z m 0,1 c 0.739186,8.7e-4 1.451386,0.09268 2,0.257812 v 0.486329 C 23.450517,19.908567 22.738413,19.999666 22,20 21.260814,19.99913 20.548614,19.907323 20,19.742188 V 19.255859 C 20.549483,19.091433 21.261587,19.000334 22,19 Z m -2,1.744141 c 0.549483,0.164426 1.261587,0.255525 2,0.255859 0.738413,-3.34e-4 1.450517,-0.09143 2,-0.255859 v 1 C 23.450517,21.908567 22.738413,21.999666 22,22 21.260814,21.99913 20.548614,21.90732 20,21.742188 Z"/>
 </g>
 <g id="quota-high" transform="translate(59,-5)">
  <rect style="opacity:0.00100002" id="rect105" width="22" height="22" x="5" y="5"/>
  <g id="g109" transform="translate(8,8.0002)">
   <path style="fill:#dfdfdf" id="path107" d="M 11,8 C 10,8 10,9.1425781 10,9.1425781 V 22.857422 C 10,22.857422 10,24 11,24 h 7 v -5 c 0,-0.248628 0.07186,-0.464157 0.173828,-0.650391 C 17.547198,18.757079 16.80311,19 16,19 h -4 v -4 c 0,-2.2091 1.7909,-4 4,-4 2.209,0 4,1.7909 4,4 0,0.974222 -0.362523,1.855007 -0.941406,2.548828 0.160758,-0.08044 0.327471,-0.146266 0.503906,-0.205078 C 20.250157,17.114531 21.0815,17 22,17 V 9.1425781 C 22,9.1424781 22,8 21,8 Z m 5,5 c -1.1046,0 -2,0.8954 -2,2 0,1.1046 0.8954,2 2,2 1.1046,0 2,-0.8954 2,-2 0,-1.1046 -0.8954,-2 -2,-2 z" transform="translate(-8,-8.0002)"/>
  </g>
  <path style="fill:#5294e2" id="path111" d="m 22,18 c -1.656854,0 -3,0.447715 -3,1 v 5 c 0,0.552285 1.343146,1 3,1 1.656854,0 3,-0.447715 3,-1 v -5 c 0,-0.552285 -1.343146,-1 -3,-1 z m 0,1 c 0.739186,8.7e-4 1.451386,0.09268 2,0.257812 v 0.486329 C 23.450517,19.908567 22.738413,19.999666 22,20 21.260814,19.99913 20.548614,19.907323 20,19.742188 V 19.255859 C 20.549483,19.091433 21.261587,19.000334 22,19 Z"/>
 </g>
 <g id="quota-critical" transform="translate(91,-5)">
  <rect style="opacity:0.00100002" id="rect114" width="22" height="22" x="5" y="5"/>
  <g id="g118" transform="translate(8,8.0002)">
   <path style="fill:#5294e2" id="path116" d="M 11,8 C 10,8 10,9.1425781 10,9.1425781 V 22.857422 C 10,22.857422 10,24 11,24 h 7 v -5 c 0,-0.248628 0.07186,-0.464157 0.173828,-0.650391 C 17.547198,18.757079 16.80311,19 16,19 h -4 v -4 c 0,-2.2091 1.7909,-4 4,-4 2.209,0 4,1.7909 4,4 0,0.974222 -0.362523,1.855007 -0.941406,2.548828 0.160758,-0.08044 0.327471,-0.146266 0.503906,-0.205078 C 20.250157,17.114531 21.0815,17 22,17 V 9.1425781 C 22,9.1424781 22,8 21,8 Z m 5,5 c -1.1046,0 -2,0.8954 -2,2 0,1.1046 0.8954,2 2,2 1.1046,0 2,-0.8954 2,-2 0,-1.1046 -0.8954,-2 -2,-2 z" transform="translate(-8,-8.0002)"/>
  </g>
  <path style="fill:#5294e2" id="path120" d="m 22,18 c -1.656854,0 -3,0.447715 -3,1 v 5 c 0,0.552285 1.343146,1 3,1 1.656854,0 3,-0.447715 3,-1 v -5 c 0,-0.552285 -1.343146,-1 -3,-1 z m 0,1 c 0.739186,8.7e-4 1.451386,0.09268 2,0.257812 v 0.486329 C 23.450517,19.908567 22.738413,19.999666 22,20 21.260814,19.99913 20.548614,19.907323 20,19.742188 V 19.255859 C 20.549483,19.091433 21.261587,19.000334 22,19 Z"/>
 </g>
 <g id="quota-missing" transform="translate(123,-5)">
  <rect style="opacity:0.00100002" id="rect123" width="22" height="22" x="5" y="5"/>
  <g id="g127" transform="translate(8,8.0002)">
   <path style="opacity:0.3;fill:#dfdfdf" id="path125" d="M 11,8 C 10,8 10,9.1425781 10,9.1425781 V 22.857422 C 10,22.857422 10,24 11,24 h 7 v -5 c 0,-0.248628 0.07186,-0.464157 0.173828,-0.650391 C 17.547198,18.757079 16.80311,19 16,19 h -4 v -4 c 0,-2.2091 1.7909,-4 4,-4 2.209,0 4,1.7909 4,4 0,0.974222 -0.362523,1.855007 -0.941406,2.548828 0.160758,-0.08044 0.327471,-0.146266 0.503906,-0.205078 C 20.250157,17.114531 21.0815,17 22,17 V 9.1425781 C 22,9.1424781 22,8 21,8 Z m 5,5 c -1.1046,0 -2,0.8954 -2,2 0,1.1046 0.8954,2 2,2 1.1046,0 2,-0.8954 2,-2 0,-1.1046 -0.8954,-2 -2,-2 z" transform="translate(-8,-8.0002)"/>
  </g>
  <path style="opacity:0.3;fill:#dfdfdf" id="path129" d="m 22,18 a 3,1 0 0 0 -3,1 v 5 a 3,1 0 0 0 3,1 3,1 0 0 0 3,-1 v -5 a 3,1 0 0 0 -3,-1 z m 0,1 a 3,1 0 0 1 2,0.257812 v 0.486329 A 3,1 0 0 1 22,20 3,1 0 0 1 20,19.742188 V 19.255859 A 3,1 0 0 1 22,19 Z m -2,1.744141 A 3,1 0 0 0 22,21 3,1 0 0 0 24,20.744141 v 1 A 3,1 0 0 1 22,22 3,1 0 0 1 20,21.742188 Z m 0,2 A 3,1 0 0 0 22,23 3,1 0 0 0 24,22.744141 v 1 A 3,1 0 0 1 22,24 3,1 0 0 1 20,23.742188 Z"/>
 </g>
</svg>
