<svg xmlns="http://www.w3.org/2000/svg" id="22-22-svg34" width="22" height="22" version="1.1" viewBox="0 0 22 22">
 <g id="22-22-ring-kde">
  <rect style="opacity:0.00100002" id="22-22-rect2" width="22" height="22" x="0" y="0"/>
  <path style="opacity:0.3;fill:#dfdfdf" id="22-22-path4" d="M 8.09375,3.5878906 C 7.9151703,3.5977516 7.7399642,3.645971 7.5800781,3.7382812 L 6.4257812,4.40625 C 5.7862371,4.775491 5.6271125,5.6913394 6.0703125,6.4589844 L 8.6933594,11 11.001953,7 9.5351562,4.4589844 C 9.2027562,3.8832507 8.6294892,3.5583077 8.09375,3.5878906 Z M 13.310547,11 l -2.308594,4 1.46875,2.542969 c 0.4432,0.767645 1.315534,1.087991 1.955078,0.71875 l 1.154297,-0.666016 c 0.639544,-0.369241 0.796716,-1.285089 0.353516,-2.052734 z"/>
  <rect style="opacity:0.6;fill:#dfdfdf" id="22-22-rect6" width="4" height="16" x="-17.03" y="-3.97" rx="1.333" ry="1.6" transform="matrix(-0.8660254,-0.5,-0.5,0.8660254,0,0)"/>
  <rect style="fill:#dfdfdf" id="22-22-rect8" width="4" height="16" x="-13" y="-19" rx="1.333" ry="1.6" transform="matrix(0,-1,-1,0,0,0)"/>
 </g>
</svg>
