<svg xmlns="http://www.w3.org/2000/svg" id="svg86" width="32" height="32" version="1.1">
 <g id="system-log-out" style="opacity:1" transform="translate(32.00009,-1020.36)">
  <rect id="rect2" style="opacity:0.001" width="32" height="32" x="96" y="1020.36"/>
  <g id="g6" transform="translate(96,1020.3622)">
   <path id="path4" style="fill:#dfdfdf" transform="translate(-128.00009,-0.0022)" d="M 144 2.0019531 A 14 14 0 0 0 130 16.001953 A 14 14 0 0 0 144 30.001953 A 14 14 0 0 0 158 16.001953 A 14 14 0 0 0 144 2.0019531 z M 144 7.0019531 A 9 9 0 0 1 153 16.001953 A 9 9 0 0 1 144 25.001953 A 9 9 0 0 1 135 16.001953 A 9 9 0 0 1 144 7.0019531 z M 144 9.0019531 A 7 7 0 0 0 137 16.001953 A 7 7 0 0 0 144 23.001953 A 7 7 0 0 0 151 16.001953 A 7 7 0 0 0 144 9.0019531 z M 144 13.001953 L 145.98242 14.541016 L 148 16.001953 L 145.98438 17.462891 L 144 19.001953 L 144.02539 17.001953 L 141 17.001953 C 140.446 17.001953 140 16.555953 140 16.001953 C 140 15.447953 140.446 15.001953 141 15.001953 L 144.02344 15.001953 L 144 13.001953 z"/>
  </g>
 </g>
 <g id="system-shutdown" style="opacity:1" transform="translate(-32,-1020.36)">
  <rect id="rect9" style="opacity:0.001" width="32" height="32" x="32" y="1020.36"/>
  <g id="g13" transform="translate(32,1020.3622)">
   <path id="path11" style="fill:#dfdfdf" transform="translate(0,-0.0022)" d="M 16 2.0019531 A 14 14 0 0 0 2 16.001953 A 14 14 0 0 0 16 30.001953 A 14 14 0 0 0 30 16.001953 A 14 14 0 0 0 16 2.0019531 z M 16 7.0019531 A 9 9 0 0 1 25 16.001953 A 9 9 0 0 1 16 25.001953 A 9 9 0 0 1 7 16.001953 A 9 9 0 0 1 16 7.0019531 z M 16 9.0019531 A 7 7 0 0 0 9 16.001953 A 7 7 0 0 0 16 23.001953 A 7 7 0 0 0 23 16.001953 A 7 7 0 0 0 16 9.0019531 z M 16 12.001953 C 16.554 12.001953 17 12.447953 17 13.001953 L 17 19.001953 C 17 19.555953 16.554 20.001953 16 20.001953 C 15.446 20.001953 15 19.555953 15 19.001953 L 15 13.001953 C 15 12.447953 15.446 12.001953 16 12.001953 z"/>
  </g>
 </g>
 <g id="system-suspend-hibernate" style="opacity:1" transform="translate(96.00009,-1020.36)">
  <rect id="rect16" style="opacity:0.001" width="32" height="32" x="0" y="1020.36"/>
  <g id="g20" transform="translate(0,1020.3622)">
   <path id="path18" style="fill:#dfdfdf" transform="translate(-96.00009,-0.0022)" d="M 112 2.0019531 A 14 14 0 0 0 98 16.001953 A 14 14 0 0 0 112 30.001953 A 14 14 0 0 0 126 16.001953 A 14 14 0 0 0 112 2.0019531 z M 112 7.0019531 C 116.9706 7.0019531 121 11.031353 121 16.001953 C 121 20.972553 116.9706 25.001953 112 25.001953 C 107.0294 25.001953 103 20.972553 103 16.001953 C 103 11.031353 107.0294 7.0019531 112 7.0019531 z M 112 9.0019531 C 108.134 9.0019531 105 12.135953 105 16.001953 C 105 19.867953 108.134 23.001953 112 23.001953 C 115.866 23.001953 119 19.867953 119 16.001953 C 119 12.135953 115.866 9.0019531 112 9.0019531 z M 112 14.001953 A 2 2 0 0 1 114 16.001953 A 2 2 0 0 1 112 18.001953 A 2 2 0 0 1 110 16.001953 A 2 2 0 0 1 112 14.001953 z"/>
  </g>
 </g>
 <g id="system-switch-user" style="opacity:1" transform="translate(192.00009,-1020.36)">
  <rect id="rect23" style="opacity:0.001" width="32" height="32" x="0" y="1020.36"/>
  <g id="g27" transform="translate(0,1020.3622)">
   <path id="path25" style="fill:#dfdfdf" transform="translate(-192.00009,-0.0022)" d="M 208 2.0019531 A 14 14 0 0 0 194 16.001953 A 14 14 0 0 0 208 30.001953 A 14 14 0 0 0 222 16.001953 A 14 14 0 0 0 208 2.0019531 z M 205 8.0019531 C 205.665 8.0019531 206 8.4148344 206 8.9277344 L 206 20.001953 L 209 20.001953 L 205 24.001953 L 201 20.001953 L 204 20.001953 L 204 8.9277344 C 204 8.4148344 204.335 8.0019531 205 8.0019531 z M 211 8.0019531 L 215 12.001953 L 212 12.001953 L 212 23.076172 C 212 23.589042 211.6648 24.001953 211 24.001953 C 210.335 24.001953 210 23.589172 210 23.076172 L 210 12.001953 L 207 12.001953 L 211 8.0019531 z"/>
  </g>
 </g>
 <g id="system-suspend" style="opacity:1" transform="translate(64.00009,-1020.36)">
  <rect id="rect30" style="opacity:0.001" width="32" height="32" x="0" y="1020.36"/>
  <g id="g34" transform="translate(0,1020.3622)">
   <path id="path32" style="fill:#dfdfdf" transform="translate(-64.00009,-0.0022)" d="M 80 2.0019531 A 14 14 0 0 0 66 16.001953 A 14 14 0 0 0 80 30.001953 A 14 14 0 0 0 94 16.001953 A 14 14 0 0 0 80 2.0019531 z M 80 7.0019531 A 9 9 0 0 1 89 16.001953 A 9 9 0 0 1 80 25.001953 A 9 9 0 0 1 71 16.001953 A 9 9 0 0 1 80 7.0019531 z M 80 9.0019531 A 7 7 0 0 0 73 16.001953 A 7 7 0 0 0 80 23.001953 A 7 7 0 0 0 87 16.001953 A 7 7 0 0 0 80 9.0019531 z M 77 15.001953 L 83 15.001953 C 83.554 15.001953 84 15.447953 84 16.001953 C 84 16.555953 83.554 17.001953 83 17.001953 L 77 17.001953 C 76.446 17.001953 76 16.555953 76 16.001953 C 76 15.447953 76.446 15.001953 77 15.001953 z"/>
  </g>
 </g>
 <g id="system-reboot" style="opacity:1" transform="translate(32.00009,-1020.36)">
  <rect id="rect37" style="opacity:0.001" width="32" height="32" x="0" y="1020.36"/>
  <g id="g41" transform="translate(0,1020.3622)">
   <path id="path39" style="fill:#dfdfdf" transform="translate(-32.00009,-0.0022)" d="M 48 2.0019531 A 14 14 0 0 0 34 16.001953 A 14 14 0 0 0 48 30.001953 A 14 14 0 0 0 62 16.001953 A 14 14 0 0 0 48 2.0019531 z M 46 4.0019531 L 50 8.0019531 L 46 12.001953 L 46 9.3007812 C 43.036 10.184781 41.0031 12.908953 41 16.001953 C 41 19.867953 44.134 23.001953 48 23.001953 C 51.477 22.997953 54.422922 20.442953 54.919922 17.001953 C 54.919922 17.001953 55 16.001953 56 16.001953 C 57 16.001953 56.933594 17.001953 56.933594 17.001953 C 56.424794 21.553153 52.5795 24.996553 48 25.001953 C 43.0294 25.001953 39 20.972553 39 16.001953 C 39.0044 11.804953 41.9084 8.1688281 46 7.2363281 L 46 4.0019531 z"/>
  </g>
 </g>
 <g id="system-lock-screen" style="opacity:1" transform="translate(32.00009,-1020.36)">
  <rect id="rect44" style="opacity:0.001" width="32" height="32" x="128" y="1020.36"/>
  <g id="g48" transform="translate(128,1.7382813e-5)">
   <path id="path46" style="fill:#dfdfdf" transform="translate(-160.00009,1020.36)" d="M 176 2.0019531 A 14 14 0 0 0 162 16.001953 A 14 14 0 0 0 176 30.001953 A 14 14 0 0 0 190 16.001953 A 14 14 0 0 0 176 2.0019531 z M 176 6.0019531 C 178.82 6.0019531 181 8.2971844 181 11.146484 L 181 13.001953 L 182.10938 13.001953 C 182.60137 12.969953 183 13.476609 183 13.974609 L 183 23.101562 C 183 23.599563 182.60237 24.001953 182.10938 24.001953 L 169.89062 24.001953 C 169.39742 24.001953 169 23.599563 169 23.101562 L 169 13.972656 C 169 13.474656 169.39742 13.001953 169.89062 13.001953 L 171 13.001953 L 171 11.144531 C 171 8.2953312 173.1796 6.0019531 176 6.0019531 z M 176 8.0019531 C 174.237 8.0019531 173 9.3635313 173 11.144531 L 173 13.001953 L 179 13.001953 L 179 11.144531 C 179 9.3637313 177.7627 8.0019531 176 8.0019531 z"/>
  </g>
 </g>
 <g id="22-22-system-shutdown" transform="translate(-5,-27.000015)">
  <rect id="rect51" style="opacity:0.001" width="22" height="22" x="5" y="5"/>
  <path id="path53" style="fill:#dfdfdf" transform="translate(5,27.000015)" d="M 11 -19 C 6.581722 -19 3 -15.418278 3 -11 C 3 -6.581722 6.581722 -3 11 -3 C 15.418278 -3 19 -6.581722 19 -11 C 19 -15.418278 15.418278 -19 11 -19 z M 11 -17 A 6 6 0 0 1 17 -11 A 6 6 0 0 1 11 -5 A 6 6 0 0 1 5 -11 A 6 6 0 0 1 11 -17 z M 11 -15 A 3.9999999 3.9999999 0 0 0 7 -11 A 3.9999999 3.9999999 0 0 0 11 -7 A 3.9999999 3.9999999 0 0 0 15 -11 A 3.9999999 3.9999999 0 0 0 11 -15 z M 11 -14 C 11.554 -14 12 -13.554 12 -13 L 12 -9 C 12 -8.446 11.554 -8 11 -8 C 10.446 -8 10 -8.446 10 -9 L 10 -13 C 10 -13.554 10.446 -14 11 -14 z"/>
 </g>
 <g id="22-22-system-suspend" transform="rotate(90,49.000008,21.999991)">
  <rect id="rect56" style="opacity:0.001" width="22" height="22" x="5" y="5"/>
  <path id="path58" style="fill:#dfdfdf" transform="rotate(-90,49.000008,21.999991)" d="M 55 -19 C 50.581722 -19 47 -15.418278 47 -11 C 47 -6.581722 50.581722 -3 55 -3 C 59.418278 -3 63 -6.581722 63 -11 C 63 -15.418278 59.418278 -19 55 -19 z M 55 -17 A 6 6 0 0 1 61 -11 A 6 6 0 0 1 55 -5 A 6 6 0 0 1 49 -11 A 6 6 0 0 1 55 -17 z M 55 -15 A 3.9999999 3.9999999 0 0 0 51 -11 A 3.9999999 3.9999999 0 0 0 55 -7 A 3.9999999 3.9999999 0 0 0 59 -11 A 3.9999999 3.9999999 0 0 0 55 -15 z M 53 -12 L 57 -12 C 57.554 -12 58 -11.554 58 -11 C 58 -10.446 57.554 -10 57 -10 L 53 -10 C 52.446 -10 52 -10.446 52 -11 C 52 -11.554 52.446 -12 53 -12 z"/>
 </g>
 <g id="22-22-system-suspend-hibernate" transform="rotate(90,60.000008,32.999991)">
  <rect id="rect61" style="opacity:0.001" width="22" height="22" x="5" y="5"/>
  <path id="path63" style="fill:#dfdfdf" transform="rotate(-90,60.000008,32.999991)" d="M 77 -19 C 72.581722 -19 69 -15.418278 69 -11 C 69 -6.581722 72.581722 -3 77 -3 C 81.418278 -3 85 -6.581722 85 -11 C 85 -15.418278 81.418278 -19 77 -19 z M 77 -17 A 6 6 0 0 1 83 -11 A 6 6 0 0 1 77 -5 A 6 6 0 0 1 71 -11 A 6 6 0 0 1 77 -17 z M 77 -15 A 3.9999999 3.9999999 0 0 0 73 -11 A 3.9999999 3.9999999 0 0 0 77 -7 A 3.9999999 3.9999999 0 0 0 81 -11 A 3.9999999 3.9999999 0 0 0 77 -15 z M 77 -13 A 2 2 0 0 1 79 -11 A 2 2 0 0 1 77 -9 A 2 2 0 0 1 75 -11 A 2 2 0 0 1 77 -13 z"/>
 </g>
 <g id="22-22-system-log-out" transform="rotate(90,71.000008,43.999991)">
  <rect id="rect66" style="opacity:0.001" width="22" height="22" x="5" y="5"/>
  <path id="path68" style="fill:#dfdfdf" transform="rotate(-90,71.000008,43.999991)" d="M 99 -19 C 94.581722 -19 91 -15.418278 91 -11 C 91 -6.581722 94.581722 -3 99 -3 C 103.41828 -3 107 -6.581722 107 -11 C 107 -15.418278 103.41828 -19 99 -19 z M 99 -17 A 6 6 0 0 1 105 -11 A 6 6 0 0 1 99 -5 A 6 6 0 0 1 93 -11 A 6 6 0 0 1 99 -17 z M 99 -15 A 3.9999999 3.9999999 0 0 0 95 -11 A 3.9999999 3.9999999 0 0 0 99 -7 A 3.9999999 3.9999999 0 0 0 103 -11 A 3.9999999 3.9999999 0 0 0 99 -15 z M 99 -14 L 102.5 -11 L 99 -8 L 99 -10 L 97 -10 C 96.446 -10 96 -10.446 96 -11 C 96 -11.554 96.446 -12 97 -12 L 99 -12 L 99 -14 z"/>
 </g>
 <g id="22-22-system-reboot" transform="translate(44)">
  <rect id="rect71" style="opacity:0.001" width="22" height="22" x="-22" y="-22"/>
  <path id="path73" style="fill:#dfdfdf" d="m -11,-19 c -4.418278,0 -8,3.581722 -8,8 0,4.418278 3.581722,8 8,8 4.418278,0 8,-3.581722 8,-8 0,-4.418278 -3.581722,-8 -8,-8 z m 0,1 2.5,2 -2.5,2 v -1 c -2.209139,0 -4,1.790861 -4,4 0,2.209139 1.790861,4 4,4 1.5474642,-0.00224 2.9275891,-0.8924323 3.5873031,-2.2415197 0.1210539,-0.2769147 0.2147262,-0.6439996 0.3005381,-0.9549653 C -7.0146305,-10.654684 -6.5846419,-11 -6.0996094,-11 c 0.4730695,0 0.8694155,0.328493 0.9733804,0.769821 0.062371,0.281703 -0.024194,0.5398334 -0.08458,0.7713493 C -5.9053203,-6.8421858 -8.2752576,-5.0043324 -11,-5 c -3.313708,0 -6,-2.6862915 -6,-6 0,-3.313708 2.686292,-6 6,-6 z"/>
 </g>
 <g id="22-22-system-switch-user" transform="translate(127,-27.000015)">
  <rect id="rect76" style="opacity:0.001" width="22" height="22" x="5" y="5"/>
  <path id="path78" style="fill:#dfdfdf" transform="translate(27,27.000015)" d="m -11,-19 c -4.418278,0 -8,3.581722 -8,8 0,4.418278 3.581722,8 8,8 4.418278,0 8,-3.581722 8,-8 0,-4.418278 -3.581722,-8 -8,-8 z m -2,4 c 0.554,0 1,0.446 1,1 v 4 h 1 l -1,1.5 -1,1.5 -1,-1.5 -1,-1.5 h 1 v -4 c 0,-0.554 0.446,-1 1,-1 z m 4,0 1,1.5 1,1.5 h -1 v 4 c 0,0.554 -0.446,1 -1,1 -0.554,0 -1,-0.446 -1,-1 v -4 h -1 l 1,-1.5 z"/>
 </g>
 <g id="22-22-system-lock-screen" transform="translate(105,-27.000015)">
  <rect id="rect81" style="opacity:0.001" width="22" height="22" x="5" y="5"/>
  <path id="path83" style="fill:#dfdfdf" transform="translate(27,27.000015)" d="m -11,-19 c -4.418278,0 -8,3.581722 -8,8 0,4.418278 3.581722,8 8,8 4.418278,0 8,-3.581722 8,-8 0,-4.418278 -3.581722,-8 -8,-8 z m 0,3 c 1.662,0 3,1.338 3,3 v 1 h 0.3339844 C -7.2966822,-12 -7,-11.736518 -7,-11.367188 v 4.7011724 C -7,-6.2966816 -7.2966822,-6 -7.6660156,-6 H -14.333984 C -14.703318,-6 -15,-6.2966816 -15,-6.6660156 V -11.367188 C -15,-11.736518 -14.703318,-12 -14.333984,-12 H -14 v -1 c 0,-1.662 1.338,-3 3,-3 z m 0,2 c -0.588594,0 -1,0.411406 -1,1 v 1 h 2 v -1 c 0,-0.588594 -0.411406,-1 -1,-1 z"/>
 </g>
 <g id="system-save-session" transform="translate(-32,-1.4648438e-5)">
  <rect id="rect903" style="opacity:0.001" width="32" height="32" x="0" y="0"/>
  <g id="g901">
   <path id="circle2" style="fill:#dfdfdf;fill-opacity:1" transform="translate(32,1.4648438e-5)" d="M -16 2 A 14 14 0 0 0 -30 16 A 14 14 0 0 0 -16 30 A 14 14 0 0 0 -2 16 A 14 14 0 0 0 -16 2 z M -22 9 L -10 9 C -9.45 9 -9 9.4500005 -9 10 L -9 22 C -9 22.55 -9.45 23 -10 23 L -21 23 L -23 21 L -23 10 C -23 9.4500005 -22.55 9 -22 9 z M -21 11 L -21 21 L -20 21 L -20 16 L -12 16 L -12 21 L -11 21 L -11 11 L -21 11 z M -16 17 L -16 21 L -14 21 L -14 17 L -16 17 z"/>
  </g>
 </g>
 <g id="22-22-system-save-session" transform="translate(-22,-308.76668)">
  <rect id="rect1657" style="opacity:0.001" width="22" height="22" x="0" y="286.77"/>
  <path id="circle2-5" style="fill:#dfdfdf;fill-opacity:1;stroke-width:0.5714286" d="m 11,289.76666 a 8,8 0 0 0 -8.0000001,8 8,8 0 0 0 8.0000001,8 8,8 0 0 0 8,-8 8,8 0 0 0 -8,-8 z m -4.2851561,3 h 8.5703121 c 0.392856,0 0.714844,0.32198 0.714844,0.71484 v 8.57032 c 0,0.39285 -0.321988,0.71484 -0.714844,0.71484 H 7.4277348 l -1.4277349,-1.42773 v -7.85743 c 0,-0.39286 0.321987,-0.71484 0.714844,-0.71484 z m 1.285156,2 v 6 h 1 v -3 H 13 v 3 h 1 v -6 z m 3.0000001,4 v 2 h 1 v -2 z"/>
 </g>
</svg>
