<svg xmlns="http://www.w3.org/2000/svg" width="32" height="32" version="1.1">
 <g id="touchpad_enabled" transform="translate(0,32)">
  <rect style="opacity:0.001" width="32" height="32" x="0" y="-32"/>
  <path d="M 4.3008,-29 C 3.5806,-29 3,-28.419 3,-27.699 V -4.301 C 3,-3.581 3.5806,-3 4.3008,-3 H 27.699 C 28.419,-3 29,-3.581 29,-4.301 V -27.699 C 29,-28.419 28.419,-29 27.699,-29 Z M 24,-25 H 28 V -24 H 24 Z M 24,-23 H 28 V -22 H 24 Z M 24,-21 H 28 V -20 H 24 Z M 24,-19 H 28 V -18 H 24 Z M 24,-17 H 28 V -16 H 24 Z M 24,-15 H 28 V -14 H 24 Z M 5.1992,-10 H 13.801 C 14.466,-10 15,-9.466 15,-8.801 V -5.199 C 15,-4.534 14.466,-4 13.801,-4 H 5.1992 C 4.5344,-4 4,-4.534 4,-5.199 V -8.801 C 4,-9.466 4.5344,-10 5.1992,-10 Z M 18.199,-10 H 26.801 C 27.466,-10 28,-9.466 28,-8.801 V -5.199 C 28,-4.534 27.466,-4 26.801,-4 H 18.199 C 17.534,-4 17,-4.534 17,-5.199 V -8.801 C 17,-9.466 17.534,-10 18.199,-10 Z" style="fill:#dfdfdf"/>
 </g>
 <g id="touchpad_disabled">
  <rect style="opacity:0.001" width="32" height="32" x="0" y="-32"/>
  <path d="M 4.3008,-29 C 3.5806,-29 3,-28.419 3,-27.699 V -4.301 C 3,-3.581 3.5806,-3 4.3008,-3 H 27.699 C 28.419,-3 29,-3.581 29,-4.301 V -27.699 C 29,-28.419 28.419,-29 27.699,-29 Z M 24,-25 H 28 V -24 H 24 Z M 24,-23 H 28 V -22 H 24 Z M 24,-21 H 28 V -20 H 24 Z M 24,-19 H 28 V -18 H 24 Z M 24,-17 H 28 V -16 H 24 Z M 24,-15 H 28 V -14 H 24 Z M 5.1992,-10 H 13.801 C 14.466,-10 15,-9.466 15,-8.801 V -5.199 C 15,-4.534 14.466,-4 13.801,-4 H 5.1992 C 4.5344,-4 4,-4.534 4,-5.199 V -8.801 C 4,-9.466 4.5344,-10 5.1992,-10 Z M 18.199,-10 H 26.801 C 27.466,-10 28,-9.466 28,-8.801 V -5.199 C 28,-4.534 27.466,-4 26.801,-4 H 18.199 C 17.534,-4 17,-4.534 17,-5.199 V -8.801 C 17,-9.466 17.534,-10 18.199,-10 Z" style="fill:#dfdfdf;opacity:0.3"/>
 </g>
 <g id="22-22-touchpad_enabled" transform="translate(-393.0002,175.00336)">
  <path style="opacity:0" d="m 425.0002,-165.00336 h 22 c 0,0 0,0 0,0 v 22 c 0,0 0,0 0,0 h -22 c 0,0 0,0 0,0 v -22 c 0,0 0,0 0,0 z"/>
  <path style="fill:#dfdfdf" d="m 428.19942,-162.00336 c -1.2,0 -1.19922,1.23047 -1.19922,1.23047 v 13.53906 c 0,0 -7.8e-4,1.23047 1.19922,1.23047 h 15.60156 c 0,0 1.19922,3e-4 1.19922,-1.23047 v -13.53906 c 0,-1.23077 -1.19922,-1.23047 -1.19922,-1.23047 z m 12.80078,2 h 2 v 1 h -2 z m 0,2 h 2 v 1 h -2 z m 0,2 h 2 v 1 h -2 z m 0,2 h 2 v 1 h -2 z m -12,3 h 6 v 3 h -6 z m 8,0 h 6 v 3 h -6 z"/>
 </g>
 <g id="22-22-touchpad_disabled" transform="translate(-415.0002,143.00336)">
  <path style="opacity:0" d="m 447.0002,-165.00336 h 22 c 0,0 0,0 0,0 v 22 c 0,0 0,0 0,0 h -22 c 0,0 0,0 0,0 v -22 c 0,0 0,0 0,0 z"/>
  <path d="m 450.19942,-162.00336 c -1.2,0 -1.19922,1.23047 -1.19922,1.23047 v 13.53906 c 0,0 -7.8e-4,1.23047 1.19922,1.23047 h 15.60156 c 0,0 1.19922,3e-4 1.19922,-1.23047 v -13.53906 c 0,-1.23077 -1.19922,-1.23047 -1.19922,-1.23047 z m 12.80078,2 h 2 v 1 h -2 z m 0,2 h 2 v 1 h -2 z m 0,2 h 2 v 1 h -2 z m 0,2 h 2 v 1 h -2 z m -12,3 h 6 v 3 h -6 z m 8,0 h 6 v 3 h -6 z" style="opacity:0.3;fill:#dfdfdf"/>
 </g>
</svg>
