<?xml version="1.0" encoding="UTF-8" standalone="no"?>
<svg
   xmlns:osb="http://www.openswatchbook.org/uri/2009/osb"
   xmlns:dc="http://purl.org/dc/elements/1.1/"
   xmlns:cc="http://creativecommons.org/ns#"
   xmlns:rdf="http://www.w3.org/1999/02/22-rdf-syntax-ns#"
   xmlns:svg="http://www.w3.org/2000/svg"
   xmlns="http://www.w3.org/2000/svg"
   xmlns:sodipodi="http://sodipodi.sourceforge.net/DTD/sodipodi-0.dtd"
   xmlns:inkscape="http://www.inkscape.org/namespaces/inkscape"
   style="enable-background:new"
   id="22-22-svg83"
   width="32"
   height="32"
   version="1.1"
   sodipodi:docname="touchpad.svg"
   inkscape:version="0.92.3 (2405546, 2018-03-11)">
  <metadata
     id="metadata14">
    <rdf:RDF>
      <cc:Work
         rdf:about="">
        <dc:format>image/svg+xml</dc:format>
        <dc:type
           rdf:resource="http://purl.org/dc/dcmitype/StillImage" />
        <dc:title></dc:title>
      </cc:Work>
    </rdf:RDF>
  </metadata>
  <sodipodi:namedview
     pagecolor="#ffffff"
     bordercolor="#666666"
     borderopacity="1"
     objecttolerance="10"
     gridtolerance="10"
     guidetolerance="10"
     inkscape:pageopacity="0"
     inkscape:pageshadow="2"
     inkscape:window-width="1920"
     inkscape:window-height="1020"
     id="namedview12"
     showgrid="false"
     inkscape:zoom="7.59"
     inkscape:cx="11"
     inkscape:cy="26.810277"
     inkscape:window-x="0"
     inkscape:window-y="30"
     inkscape:window-maximized="1"
     inkscape:current-layer="22-22-svg83" />
  <defs
     id="22-22-defs4">
    <linearGradient
       id="22-22-linearGradient5606"
       osb:paint="solid">
      <stop
         id="22-22-stop5608"
         offset="0"
         style="stop-color:#000000" />
    </linearGradient>
  </defs>
  <g
     id="22-22-touchpad_enabled"
     transform="translate(-425.0002,143.00336)"
     style="filter:url(#filter7554);enable-background:new">
    <path
       style="opacity:0"
       id="22-22-path74"
       d="m 425.0002,-165.00336 h 22 c 0,0 0,0 0,0 v 22 c 0,0 0,0 0,0 h -22 c 0,0 0,0 0,0 v -22 c 0,0 0,0 0,0 z"
       inkscape:connector-curvature="0" />
    <path
       style="fill:#dfdfdf"
       id="22-22-path76"
       d="m 428.19942,-162.00336 c -1.2,0 -1.19922,1.23047 -1.19922,1.23047 v 13.53906 c 0,0 -7.8e-4,1.23047 1.19922,1.23047 h 15.60156 c 0,0 1.19922,3e-4 1.19922,-1.23047 v -13.53906 c 0,-1.23077 -1.19922,-1.23047 -1.19922,-1.23047 z m 12.80078,2 h 2 v 1 h -2 z m 0,2 h 2 v 1 h -2 z m 0,2 h 2 v 1 h -2 z m 0,2 h 2 v 1 h -2 z m -12,3 h 6 v 3 h -6 z m 8,0 h 6 v 3 h -6 z"
       inkscape:connector-curvature="0" />
  </g>
  <g
     id="22-22-touchpad_disabled"
     transform="translate(-415.0002,143.00336)"
     style="filter:url(#filter7554);enable-background:new">
    <path
       style="opacity:0"
       id="22-22-path79"
       d="m 447.0002,-165.00336 h 22 c 0,0 0,0 0,0 v 22 c 0,0 0,0 0,0 h -22 c 0,0 0,0 0,0 v -22 c 0,0 0,0 0,0 z"
       inkscape:connector-curvature="0" />
    <path
       id="22-22-222"
       d="m 450.19942,-162.00336 c -1.2,0 -1.19922,1.23047 -1.19922,1.23047 v 13.53906 c 0,0 -7.8e-4,1.23047 1.19922,1.23047 h 15.60156 c 0,0 1.19922,3e-4 1.19922,-1.23047 v -13.53906 c 0,-1.23077 -1.19922,-1.23047 -1.19922,-1.23047 z m 12.80078,2 h 2 v 1 h -2 z m 0,2 h 2 v 1 h -2 z m 0,2 h 2 v 1 h -2 z m 0,2 h 2 v 1 h -2 z m -12,3 h 6 v 3 h -6 z m 8,0 h 6 v 3 h -6 z"
       style="opacity:0.3;fill:#dfdfdf"
       inkscape:connector-curvature="0" />
  </g>
  <g
     id="touchpad_enabled"
     transform="translate(1.29545e-6,4.38644e-6)">
    <path
       inkscape:connector-curvature="0"
       d="M -1.5909e-6,-4.77288e-6 H 31.999999 c 0,0 0,0 0,0 V 31.999996 c 0,0 0,0 0,0 H -1.5909e-6 c 0,0 0,0 0,0 V -4.77288e-6 c 0,0 0,0 0,0 z"
       id="path1171"
       style="opacity:0;stroke-width:1.4545455" />
    <path
       id="path1191"
       d="M 4.7324219,4 C 2.9990886,4 3,5.7695312 3,5.7695312 V 25.230469 C 3,25.230469 2.9990952,27 4.7324219,27 H 27.267578 C 27.267578,27 29,26.999701 29,25.230469 V 5.7695312 C 29,4.0002996 27.267578,4 27.267578,4 Z M 23,7 h 3 v 1 h -3 z m 0,3 h 3 v 1 h -3 z m 0,3 h 3 v 1 h -3 z m 0,3 h 3 v 1 H 23 Z M 6,20 h 9 v 4 H 6 Z m 11,0 h 9 v 4 h -9 z"
       style="fill:#dfdfdf;stroke-width:1.44096804"
       inkscape:connector-curvature="0" />
  </g>
  <g
     id="touchpad_disabled"
     transform="translate(32.000002,4.38644e-6)">
    <path
       style="opacity:0;stroke-width:1.4545455"
       id="path1207"
       d="M -1.5909e-6,-4.77288e-6 H 31.999999 c 0,0 0,0 0,0 V 31.999996 c 0,0 0,0 0,0 H -1.5909e-6 c 0,0 0,0 0,0 V -4.77288e-6 c 0,0 0,0 0,0 z"
       inkscape:connector-curvature="0" />
    <path
       style="opacity:0.3;fill:#dfdfdf;stroke-width:1.44096804"
       d="M 4.7324219,4 C 2.9990886,4 3,5.7695312 3,5.7695312 V 25.230469 C 3,25.230469 2.9990952,27 4.7324219,27 H 27.267578 C 27.267578,27 29,26.999701 29,25.230469 V 5.7695312 C 29,4.0002996 27.267578,4 27.267578,4 Z M 23,7 h 3 v 1 h -3 z m 0,3 h 3 v 1 h -3 z m 0,3 h 3 v 1 h -3 z m 0,3 h 3 v 1 H 23 Z M 6,20 h 9 v 4 H 6 Z m 11,0 h 9 v 4 h -9 z"
       id="path1209"
       inkscape:connector-curvature="0" />
  </g>
</svg>
