<svg xmlns="http://www.w3.org/2000/svg" width="32" height="32" version="1.1">
 <g id="22-22-user-identity" transform="translate(0,-22)">
  <rect style="opacity:0.001" width="22" height="22" x="0" y="0"/>
  <path style="fill:#dfdfdf" d="m 11,3 c -4.432,0 -8,3.568 -8,8 0,4.432 3.568,8 8,8 4.432,0 8,-3.568 8,-8 0,-4.432 -3.568,-8 -8,-8 z m 0,3 c 1.104533,0 2,0.8954667 2,2 0,1.1044 -0.8956,2 -2,2 C 9.8956,10 9,9.1044 9,8 9,6.8956 9.8956,6 11,6 Z m 0,5 c 3.9992,-0.0015 4,2.460938 4,2.460938 v 1 C 15,14.460937 14.261543,16 11,16 7.7384568,16 7,14.460938 7,14.460938 v -1 C 7,13.460937 7.0003998,11.0023 11,11 Z"/>
 </g>
 <g id="22-22-user-online" transform="translate(155,-27)">
  <rect style="opacity:0.001" width="22" height="22" x="5" y="5"/>
  <path style="fill:#dfdfdf" d="m 16,8 c -4.432,0 -8,3.568 -8,8 0,4.432 3.568,8 8,8 0.402589,0 0.795337,-0.03885 1.181641,-0.0957 A 5.5,5.5 0 0 1 16.027344,20.99805 C 16.017318,20.998076 16.010073,21 16,21 12.738457,21 12,19.460938 12,19.460938 v -1 c 0,-10e-7 4e-4,-2.458638 4,-2.460938 0.823311,-3.09e-4 1.469011,0.107876 1.988281,0.273438 A 5.5,5.5 0 0 1 21.5,15 5.5,5.5 0 0 1 23.980469,15.597656 C 23.7709,11.355315 20.296148,8 16,8 Z m 0,3 c 1.104533,0 2,0.895467 2,2 0,1.1044 -0.8956,2 -2,2 -1.1044,0 -2,-0.8956 -2,-2 0,-1.1044 0.8956,-2 2,-2 z"/>
  <path style="fill:#dfdfdf" d="m 21.1875,16.009766 c -1.44098,0.101835 -2.807333,0.895036 -3.583984,2.240234 -1.24264,2.152317 -0.505833,4.903842 1.646484,6.146484 2.152317,1.24264 4.903842,0.505833 6.146484,-1.646484 1.24264,-2.152317 0.505833,-4.903842 -1.646484,-6.146484 -0.807119,-0.46599 -1.697912,-0.654852 -2.5625,-0.59375 z m 2.458984,2.636718 0.707032,0.707032 L 21,22.707031 18.646484,20.353516 19.353516,19.646484 21,21.292969 Z"/>
 </g>
 <g id="22-22-user-busy" transform="translate(27,-27)">
  <rect style="opacity:0.001" width="22" height="22" x="5" y="5"/>
  <path style="fill:#dfdfdf" d="m 16,8 c -4.432,0 -8,3.568 -8,8 0,4.432 3.568,8 8,8 0.402589,0 0.795337,-0.03885 1.181641,-0.0957 A 5.5,5.5 0 0 1 16.027344,20.99805 C 16.017318,20.998076 16.010073,21 16,21 12.738457,21 12,19.460938 12,19.460938 v -1 c 0,-10e-7 4e-4,-2.458638 4,-2.460938 0.823311,-3.09e-4 1.469011,0.107876 1.988281,0.273438 A 5.5,5.5 0 0 1 21.5,15 5.5,5.5 0 0 1 23.980469,15.597656 C 23.7709,11.355315 20.296148,8 16,8 Z m 0,3 c 1.104533,0 2,0.895467 2,2 0,1.1044 -0.8956,2 -2,2 -1.1044,0 -2,-0.8956 -2,-2 0,-1.1044 0.8956,-2 2,-2 z"/>
  <path style="fill:#dfdfdf" d="M 21.5,16 A 4.5,4.5 0 0 0 17,20.5 4.5,4.5 0 0 0 21.5,25 4.5,4.5 0 0 0 26,20.5 4.5,4.5 0 0 0 21.5,16 Z M 21,17 h 1 v 3 h 3 v 1 h -3 -1 v -1 z"/>
 </g>
 <g id="22-22-user-offline" transform="translate(91,-27)">
  <rect style="opacity:0.001" width="22" height="22" x="5" y="5"/>
  <path style="opacity:0.3;fill:#dfdfdf" d="m 16,8 c -4.432,0 -8,3.568 -8,8 0,4.432 3.568,8 8,8 0.402589,0 0.795337,-0.03885 1.181641,-0.0957 A 5.5,5.5 0 0 1 16.027344,20.99805 C 16.017318,20.998076 16.010073,21 16,21 12.738457,21 12,19.460938 12,19.460938 v -1 c 0,-10e-7 4e-4,-2.458638 4,-2.460938 0.823311,-3.09e-4 1.469011,0.107876 1.988281,0.273438 A 5.5,5.5 0 0 1 21.5,15 5.5,5.5 0 0 1 23.980469,15.597656 C 23.7709,11.355315 20.296148,8 16,8 Z m 0,3 c 1.104533,0 2,0.895467 2,2 0,1.1044 -0.8956,2 -2,2 -1.1044,0 -2,-0.8956 -2,-2 0,-1.1044 0.8956,-2 2,-2 z"/>
  <path style="fill:#dfdfdf" d="M 21.5,16 C 19.014719,16 17,18.014719 17,20.5 17,22.985281 19.014719,25 21.5,25 23.985281,25 26,22.985281 26,20.5 26,18.014719 23.985281,16 21.5,16 Z m 2.5,4 v 1 h -5 v -1 z"/>
 </g>
 <g id="22-22-user-invisible" transform="translate(123,-27)">
  <rect style="opacity:0.001" width="22" height="22" x="5" y="5"/>
  <path style="fill:#dfdfdf" d="m 16,8 c -4.432,0 -8,3.568 -8,8 0,4.432 3.568,8 8,8 0.402589,0 0.795337,-0.03885 1.181641,-0.0957 A 5.5,5.5 0 0 1 16.027344,20.99805 C 16.017318,20.998076 16.010073,21 16,21 12.738457,21 12,19.460938 12,19.460938 v -1 c 0,-10e-7 4e-4,-2.458638 4,-2.460938 0.823311,-3.09e-4 1.469011,0.107876 1.988281,0.273438 A 5.5,5.5 0 0 1 21.5,15 5.5,5.5 0 0 1 23.980469,15.597656 C 23.7709,11.355315 20.296148,8 16,8 Z m 0,3 c 1.104533,0 2,0.895467 2,2 0,1.1044 -0.8956,2 -2,2 -1.1044,0 -2,-0.8956 -2,-2 0,-1.1044 0.8956,-2 2,-2 z"/>
  <path style="fill:#dfdfdf" d="m 17.602885,18.25 c -1.24264,2.152317 -0.505202,4.904473 1.647115,6.147115 2.152317,1.24264 4.904473,0.505202 6.147115,-1.647115 C 26.639755,20.597683 25.902317,17.845527 23.75,16.602885 21.597683,15.360245 18.845527,16.097683 17.602885,18.25 Z m 4.714103,-0.165063 0.866024,0.499999 -2.5,4.330127 -0.866024,-0.499999 z"/>
 </g>
 <g id="22-22-user-away-extended" transform="translate(187,-27)">
  <rect style="opacity:0.001" width="22" height="22" x="5" y="5"/>
  <path style="fill:#dfdfdf" d="m 16,8 c -4.432,0 -8,3.568 -8,8 0,4.432 3.568,8 8,8 0.402589,0 0.795337,-0.03885 1.181641,-0.0957 A 5.5,5.5 0 0 1 16.027344,20.99805 C 16.017318,20.998076 16.010073,21 16,21 12.738457,21 12,19.460938 12,19.460938 v -1 c 0,-10e-7 4e-4,-2.458638 4,-2.460938 0.823311,-3.09e-4 1.469011,0.107876 1.988281,0.273438 A 5.5,5.5 0 0 1 21.5,15 5.5,5.5 0 0 1 23.980469,15.597656 C 23.7709,11.355315 20.296148,8 16,8 Z m 0,3 c 1.104533,0 2,0.895467 2,2 0,1.1044 -0.8956,2 -2,2 -1.1044,0 -2,-0.8956 -2,-2 0,-1.1044 0.8956,-2 2,-2 z"/>
  <path style="fill:#dfdfdf" d="M 21.5,16 C 19.014719,16 17,18.014719 17,20.5 17,22.985281 19.014719,25 21.5,25 23.985281,25 26,22.985281 26,20.5 26,18.014719 23.985281,16 21.5,16 Z M 19,20 h 1 v 1 h -1 z m 2,0 h 1 v 1 h -1 z m 2,0 h 1 v 1 h -1 z"/>
 </g>
 <g id="22-22-user-away" transform="translate(59,-27)">
  <rect style="opacity:0.001" width="22" height="22" x="5" y="5"/>
  <path style="fill:#dfdfdf" d="m 16,8 c -4.432,0 -8,3.568 -8,8 0,4.432 3.568,8 8,8 0.402589,0 0.795337,-0.03885 1.181641,-0.0957 A 5.5,5.5 0 0 1 16.027344,20.99805 C 16.017318,20.998076 16.010073,21 16,21 12.738457,21 12,19.460938 12,19.460938 v -1 c 0,-10e-7 4e-4,-2.458638 4,-2.460938 0.823311,-3.09e-4 1.469011,0.107876 1.988281,0.273438 A 5.5,5.5 0 0 1 21.5,15 5.5,5.5 0 0 1 23.980469,15.597656 C 23.7709,11.355315 20.296148,8 16,8 Z m 0,3 c 1.104533,0 2,0.895467 2,2 0,1.1044 -0.8956,2 -2,2 -1.1044,0 -2,-0.8956 -2,-2 0,-1.1044 0.8956,-2 2,-2 z"/>
  <path style="fill:#dfdfdf" d="M 21.5,16 C 19.014719,16 17,18.014719 17,20.5 17,22.985281 19.014719,25 21.5,25 23.985281,25 26,22.985281 26,20.5 26,18.014719 23.985281,16 21.5,16 Z M 24,18 22.75,22.375 21.5,21.75 20.875,23 20.25,21.125 19,20.5 Z"/>
 </g>
 <g id="22-22-user-trash" transform="translate(251,-27)">
  <rect style="opacity:0.001" width="22" height="22" x="5" y="5"/>
  <path style="fill:#dfdfdf" d="m 14,9 c -1,0 -1,1 -1,1 h -3 c 0,0 -1,0 -1,1 v 1 h 13 v -1 c 0,-1 -1,-1 -1,-1 h -3 c 0,0 0,-1 -1,-1 z m -4,4 v 9 c 0,0.52 0.48,1 1,1 h 8 1 c 0.52,0 1,-0.48 1,-1 v -9 z"/>
 </g>
 <g id="22-22-user-trash-full" transform="translate(283,-27)">
  <rect style="opacity:0.001" width="22" height="22" x="5" y="5"/>
  <path style="fill:#dfdfdf" d="m 14,9.000001 c -1,0 -1,1 -1,1 h -3 c 0,0 -1,0 -1,1 V 12 h 13 v -0.999999 c 0,-1 -1,-1 -1,-1 h -3 c 0,0 0,-1 -1,-1 z M 9,13 v 3 c 0,1 0.05922,2.15 0.199219,3 C 9.339219,19.85 10,22 10,22 c 0,0 0.48,1 1,1 h 9 c 0.52,0 1,-1 1,-1 0,0 0.660781,-2.15 0.800781,-3 C 21.940781,18.15 22,17 22,16 v -3 z"/>
 </g>
 <g id="22-22-user-desktop" transform="translate(219,-27)">
  <rect style="opacity:0.001" width="22" height="22" x="5" y="5"/>
  <path style="fill:#dfdfdf" d="M 8,11 V 22.205078 C 8,22.64576 8.3575814,23 8.8007812,23 H 12 v -1 c 0,-0.554001 0.412443,-1 0.923828,-1 h 6.152344 C 19.587557,21 20,21.445999 20,22 v 1 h 3.199219 C 23.642419,23 24,22.64576 24,22.205078 V 11 Z"/>
  <path style="opacity:0.3;fill:#dfdfdf" d="m 8.7999995,8.9999999 c -0.4432,0 -0.8,0.3547728 -0.8,0.7954546 V 11 H 24 V 9.7954545 C 24,9.3547727 23.64288,8.9999999 23.2,8.9999999 Z"/>
 </g>
 <g id="user-identity">
  <rect style="opacity:0.001" width="32" height="32" x="0" y="0"/>
  <path style="fill:#dfdfdf" d="M 16,4 C 9.3520004,4 4,9.3520001 4,16 4,22.648 9.3520004,28 16,28 22.648001,28 28,22.648 28,16 28,9.3520001 22.648001,4 16,4 Z m 0,5 c 1.6568,0 3,1.3432 3,3 0,1.6566 -1.343399,3 -3,3 -1.6566,0 -3,-1.3434 -3,-3 0,-1.6566 1.3434,-3 3,-3 z m 0,8 c 5.998801,-0.0021 6,3.445313 6,3.445312 v 1.400391 C 22,21.845702 20.892315,24 16,24 11.107686,24 10,21.845703 10,21.845703 v -1.400391 c 0,-2e-6 6e-4,-3.442092 6,-3.445312 z"/>
 </g>
 <g id="user-busy" transform="translate(32)">
  <rect style="opacity:0.001" width="32" height="32" x="0" y="0"/>
  <path style="fill:#dfdfdf" d="M 16,4 C 9.3520004,4 4,9.3520001 4,16 c 0,6.648 5.3520004,12 12,12 0.245346,0 0.484951,-0.02273 0.726562,-0.03711 a 8,8 0 0 1 -1.65625,-3.992188 C 10.967655,23.719437 10,21.845703 10,21.845703 v -1.400391 c 0,-1e-6 6e-4,-3.442092 6,-3.445312 0.59769,-2.09e-4 1.120925,0.04206 1.605469,0.103516 A 8,8 0 0 1 23,15 8,8 0 0 1 27.962891,16.734375 C 27.977573,16.490214 28,16.247978 28,16 28,9.3520001 22.648001,4 16,4 Z m 0,5 c 1.6568,0 3,1.3432 3,3 0,1.6566 -1.343399,3 -3,3 -1.6566,0 -3,-1.3434 -3,-3 0,-1.6566 1.3434,-3 3,-3 z m 7,8 c -3.313708,0 -6,2.686292 -6,6 0,3.313708 2.686292,6 6,6 3.313708,0 6,-2.686292 6,-6 0,-3.313708 -2.686292,-6 -6,-6 z m -1,2 h 2 v 3 h 3 v 2 h -3 -2 v -2 z"/>
 </g>
 <g id="user-away" transform="translate(64)">
  <rect style="opacity:0.001" width="32" height="32" x="0" y="0"/>
  <path style="fill:#dfdfdf" d="M 16,4 C 9.3520004,4 4,9.3520001 4,16 c 0,6.648 5.3520004,12 12,12 0.245346,0 0.484951,-0.02273 0.726562,-0.03711 -0.907909,-1.153564 -1.480904,-2.534703 -1.65625,-3.992188 C 10.967655,23.719438 10,21.845703 10,21.845703 v -1.400391 c 0,-1e-6 6e-4,-3.442092 6,-3.445312 0.59769,-2.09e-4 1.120925,0.04206 1.605469,0.103516 C 19.077928,15.753382 21.002254,15.00302 23,15 c 1.802442,0.0025 3.551213,0.613674 4.962891,1.734375 C 27.977573,16.490214 28,16.247978 28,16 28,9.3520001 22.648001,4 16,4 Z m 0,5 c 1.6568,0 3,1.3432 3,3 0,1.6566 -1.343399,3 -3,3 -1.6566,0 -3,-1.3434 -3,-3 0,-1.6566 1.3434,-3 3,-3 z m 7,8 c -3.313708,0 -6,2.686292 -6,6 0,3.313708 2.686292,6 6,6 3.313708,0 6,-2.686292 6,-6 0,-3.313708 -2.686292,-6 -6,-6 z m 3,3 -1.5,5.25 L 23,24.5 22.25,26 21.5,23.75 20,23 Z"/>
 </g>
 <g id="user-offline" transform="translate(96)">
  <rect style="opacity:0.001" width="32" height="32" x="0" y="0"/>
  <path style="opacity:0.3;fill:#dfdfdf" d="M 16,4 C 9.3520004,4 4,9.3520001 4,16 c 0,6.648 5.3520004,12 12,12 0.245346,0 0.484951,-0.02273 0.726562,-0.03711 -0.907909,-1.153564 -1.480904,-2.534703 -1.65625,-3.992188 C 10.967655,23.719438 10,21.845703 10,21.845703 v -1.400391 c 0,-1e-6 6e-4,-3.442092 6,-3.445312 0.59769,-2.09e-4 1.120925,0.04206 1.605469,0.103516 C 19.077928,15.753382 21.002254,15.00302 23,15 c 1.802442,0.0025 3.551213,0.613674 4.962891,1.734375 C 27.977573,16.490214 28,16.247978 28,16 28,9.3520001 22.648001,4 16,4 Z m 0,5 c 1.6568,0 3,1.3432 3,3 0,1.6566 -1.343399,3 -3,3 -1.6566,0 -3,-1.3434 -3,-3 0,-1.6566 1.3434,-3 3,-3 z"/>
  <path style="fill:#dfdfdf" d="m 23,17 c -3.313708,0 -6,2.686292 -6,6 0,3.313708 2.686292,6 6,6 3.313708,0 6,-2.686292 6,-6 0,-3.313708 -2.686292,-6 -6,-6 z m -4,5 h 5 3 v 2 h -3 -5 z"/>
 </g>
 <g id="user-invisible" transform="translate(128)">
  <rect style="opacity:0.001" width="32" height="32" x="0" y="0"/>
  <path style="fill:#dfdfdf" d="M 16,4 C 9.3520004,4 4,9.3520001 4,16 c 0,6.648 5.3520004,12 12,12 0.245346,0 0.484951,-0.02273 0.726562,-0.03711 -0.907909,-1.153564 -1.480904,-2.534703 -1.65625,-3.992188 C 10.967655,23.719439 10,21.845703 10,21.845703 v -1.400391 c 0,-1e-6 6e-4,-3.442092 6,-3.445312 0.59769,-2.09e-4 1.120925,0.04206 1.605469,0.103516 C 19.077928,15.753382 21.002254,15.00302 23,15 c 1.802442,0.0025 3.551213,0.613674 4.962891,1.734375 C 27.977573,16.490214 28,16.247978 28,16 28,9.3520001 22.648001,4 16,4 Z m 0,5 c 1.6568,0 3,1.3432 3,3 0,1.6566 -1.343399,3 -3,3 -1.6566,0 -3,-1.3434 -3,-3 0,-1.6566 1.3434,-3 3,-3 z m 7.160156,8.001953 C 21.032722,16.9467 18.943584,18.027373 17.804688,20 16.14811,22.869276 17.130724,26.538736 20,28.195312 22.869276,29.85189 26.538735,28.869276 28.195312,26 29.851889,23.130724 28.869276,19.461265 26,17.804688 25.103351,17.287007 24.127172,17.027068 23.160156,17.001953 Z m 0.972656,2.035156 1.732422,1 -1.5,2.597657 -2.498046,4.328125 -1.732422,-1 2.5,-4.328125 z"/>
 </g>
 <g id="user-online" transform="translate(160)">
  <rect style="opacity:0.001" width="32" height="32" x="0" y="0"/>
  <path style="fill:#dfdfdf" d="M 16,4 C 9.3520004,4 4,9.3520001 4,16 c 0,6.648 5.3520004,12 12,12 0.245346,0 0.484951,-0.02273 0.726562,-0.03711 -0.907909,-1.153564 -1.480904,-2.534703 -1.65625,-3.992188 C 10.967655,23.719438 10,21.845703 10,21.845703 v -1.400391 c 0,-1e-6 6e-4,-3.442092 6,-3.445312 0.59769,-2.09e-4 1.120925,0.04206 1.605469,0.103516 C 19.077928,15.753382 21.002254,15.00302 23,15 c 1.802442,0.0025 3.551213,0.613674 4.962891,1.734375 C 27.977573,16.490214 28,16.247978 28,16 28,9.3520001 22.648001,4 16,4 Z m 0,5 c 1.6568,0 3,1.3432 3,3 0,1.6566 -1.343399,3 -3,3 -1.6566,0 -3,-1.3434 -3,-3 0,-1.6566 1.3434,-3 3,-3 z m 7,8 c -3.313708,0 -6,2.686292 -6,6 0,3.313708 2.686292,6 6,6 3.313708,0 6,-2.686292 6,-6 0,-3.313708 -2.686292,-6 -6,-6 z m 2.642578,2.953125 1.408203,1.421875 -4.720703,4.671875 -3.380859,-3.380859 1.414062,-1.414063 1.972657,1.972656 z"/>
 </g>
 <g id="user-away-extended" transform="translate(192)">
  <rect style="opacity:0.001" width="32" height="32" x="0" y="0"/>
  <path style="fill:#dfdfdf" d="M 16,4 C 9.3520004,4 4,9.3520001 4,16 c 0,6.648 5.3520004,12 12,12 0.245346,0 0.484951,-0.02273 0.726562,-0.03711 -0.907909,-1.153564 -1.480904,-2.534703 -1.65625,-3.992188 C 10.967655,23.719439 10,21.845703 10,21.845703 v -1.400391 c 0,-1e-6 6e-4,-3.442092 6,-3.445312 0.59769,-2.09e-4 1.120925,0.04206 1.605469,0.103516 C 19.077928,15.753382 21.002254,15.00302 23,15 c 1.802442,0.0025 3.551213,0.613674 4.962891,1.734375 C 27.977573,16.490214 28,16.247978 28,16 28,9.3520001 22.648001,4 16,4 Z m 0,5 c 1.6568,0 3,1.3432 3,3 0,1.6566 -1.343399,3 -3,3 -1.6566,0 -3,-1.3434 -3,-3 0,-1.6566 1.3434,-3 3,-3 z m 7,8 c -3.313708,0 -6,2.686292 -6,6 0,3.313708 2.686292,6 6,6 3.313708,0 6,-2.686292 6,-6 0,-3.313708 -2.686292,-6 -6,-6 z m -4,5 h 2 v 2 h -2 z m 3,0 h 2 v 2 h -2 z m 3,0 h 2 v 2 h -2 z"/>
 </g>
 <g id="user-trash" transform="translate(256)">
  <rect style="opacity:0.001" width="32" height="32" x="0" y="0"/>
  <path style="fill:#dfdfdf" d="M 14.324219,6 C 12.939605,6 12.939453,7 12.939453,7 H 8.3847656 C 8.3847656,7 7,6.9907697 7,8.4453125 V 10 H 25 V 8.4453125 C 25,6.990767 23.615234,7 23.615234,7 h -4.554687 c 0,0 -1.51e-4,-1 -1.384766,-1 z M 8,12 V 24.544922 C 8,25.301286 8.6987144,26 9.4550781,26 H 21.091797 22.544922 C 23.301287,26 24,25.301286 24,24.544922 V 12 Z"/>
 </g>
 <g id="user-trash-full" transform="translate(288)">
  <rect style="opacity:0.001" width="32" height="32" x="0" y="0"/>
  <path style="fill:#dfdfdf" d="M 14.324219,6 C 12.939605,6 12.939453,7 12.939453,7 H 8.3847656 C 8.3847656,7 7,6.9907697 7,8.4453125 V 10 H 25 V 8.4453125 C 25,6.990767 23.615234,7 23.615234,7 h -4.554687 c 0,0 -1.51e-4,-1 -1.384766,-1 z M 7,12 v 4.199219 c 0,1.4 0.081549,3.011172 0.2753906,4.201172 0.193846,1.19 1.109375,4.199218 1.109375,4.199218 0,0 0.6647656,1.400391 1.3847656,1.400391 H 22.230469 c 0.72,0 1.384765,-1.400391 1.384765,-1.400391 0,0 0.915529,-3.009218 1.109375,-4.199218 C 24.918455,19.210391 25,17.599219 25,16.199219 V 12 Z"/>
 </g>
 <g id="user-desktop" transform="translate(224)">
  <rect style="opacity:0.001" width="32" height="32" x="0" y="0"/>
  <path style="fill:#dfdfdf" d="M 4.0000011,8.0000017 V 24.807617 C 4.0000011,25.46864 4.5363732,26 5.2011729,26 h 4.7988281 v -1.499999 c 0,-0.831002 0.618664,-1.5 1.385742,-1.5 h 9.228515 c 0.767078,0 1.385742,0.668998 1.385742,1.5 V 26 h 4.798829 C 27.463628,26 28,25.46864 28,24.807617 V 8.0000017 Z"/>
  <path style="opacity:0.3;fill:#dfdfdf" d="m 5.2000003,5.0000018 c -0.6647999,0 -1.1999999,0.5321591 -1.1999999,1.1931818 V 8.0000017 H 28 V 6.1931836 C 28,5.5321609 27.46432,5.0000018 26.8,5.0000018 Z"/>
 </g>
</svg>
