<svg xmlns="http://www.w3.org/2000/svg" id="svg" width="22" height="22" version="1.1" viewBox="0 0 22 22">
 <g id="user-identity">
  <rect style="opacity:0.00100002" id="rect2" width="22" height="22" x="0" y="0"/>
  <path style="fill:#dfdfdf" id="path4" d="m 11,3 c -4.432,0 -8,3.568 -8,8 0,4.432 3.568,8 8,8 4.432,0 8,-3.568 8,-8 0,-4.432 -3.568,-8 -8,-8 z m 0,3 c 1.104533,0 2,0.8954667 2,2 0,1.1044 -0.8956,2 -2,2 C 9.8956,10 9,9.1044 9,8 9,6.8956 9.8956,6 11,6 Z m 0,5 c 3.9992,-0.0015 4,2.460938 4,2.460938 v 1 C 15,14.460937 14.261543,16 11,16 7.7384568,16 7,14.460938 7,14.460938 v -1 C 7,13.460937 7.0003998,11.0023 11,11 Z"/>
 </g>
 <g id="user-online" transform="translate(123,-5)">
  <rect style="opacity:0.00100002" id="rect210" width="22" height="22" x="5" y="5"/>
  <path style="fill:#dfdfdf" id="path212" d="m 16,8 c -4.432,0 -8,3.568 -8,8 0,4.432 3.568,8 8,8 0.402589,0 0.795337,-0.03885 1.181641,-0.0957 A 5.5,5.5 0 0 1 16.027344,20.99805 C 16.017318,20.998076 16.010073,21 16,21 12.738457,21 12,19.460938 12,19.460938 v -1 c 0,-10e-7 4e-4,-2.458638 4,-2.460938 0.823311,-3.09e-4 1.469011,0.107876 1.988281,0.273438 A 5.5,5.5 0 0 1 21.5,15 5.5,5.5 0 0 1 23.980469,15.597656 C 23.7709,11.355315 20.296148,8 16,8 Z m 0,3 c 1.104533,0 2,0.895467 2,2 0,1.1044 -0.8956,2 -2,2 -1.1044,0 -2,-0.8956 -2,-2 0,-1.1044 0.8956,-2 2,-2 z"/>
  <path style="fill:#dfdfdf" id="path214" d="m 21.1875,16.009766 c -1.44098,0.101835 -2.807333,0.895036 -3.583984,2.240234 -1.24264,2.152317 -0.505833,4.903842 1.646484,6.146484 2.152317,1.24264 4.903842,0.505833 6.146484,-1.646484 1.24264,-2.152317 0.505833,-4.903842 -1.646484,-6.146484 -0.807119,-0.46599 -1.697912,-0.654852 -2.5625,-0.59375 z m 2.458984,2.636718 0.707032,0.707032 L 21,22.707031 18.646484,20.353516 19.353516,19.646484 21,21.292969 Z"/>
 </g>
 <g id="user-busy" transform="translate(27,-5)">
  <rect style="opacity:0.00100002" id="rect217" width="22" height="22" x="5" y="5"/>
  <path style="fill:#dfdfdf" id="path219" d="m 16,8 c -4.432,0 -8,3.568 -8,8 0,4.432 3.568,8 8,8 0.402589,0 0.795337,-0.03885 1.181641,-0.0957 A 5.5,5.5 0 0 1 16.027344,20.99805 C 16.017318,20.998076 16.010073,21 16,21 12.738457,21 12,19.460938 12,19.460938 v -1 c 0,-10e-7 4e-4,-2.458638 4,-2.460938 0.823311,-3.09e-4 1.469011,0.107876 1.988281,0.273438 A 5.5,5.5 0 0 1 21.5,15 5.5,5.5 0 0 1 23.980469,15.597656 C 23.7709,11.355315 20.296148,8 16,8 Z m 0,3 c 1.104533,0 2,0.895467 2,2 0,1.1044 -0.8956,2 -2,2 -1.1044,0 -2,-0.8956 -2,-2 0,-1.1044 0.8956,-2 2,-2 z"/>
  <path style="fill:#dfdfdf" id="path221" d="M 21.5,16 A 4.5,4.5 0 0 0 17,20.5 4.5,4.5 0 0 0 21.5,25 4.5,4.5 0 0 0 26,20.5 4.5,4.5 0 0 0 21.5,16 Z M 21,17 h 1 v 3 h 3 v 1 h -3 -1 v -1 z"/>
 </g>
 <g id="user-offline" transform="translate(91,-5)">
  <rect style="opacity:0.00100002" id="rect224" width="22" height="22" x="5" y="5"/>
  <path style="opacity:0.3;fill:#dfdfdf" id="path226" d="m 16,8 c -4.432,0 -8,3.568 -8,8 0,4.432 3.568,8 8,8 0.402589,0 0.795337,-0.03885 1.181641,-0.0957 A 5.5,5.5 0 0 1 16.027344,20.99805 C 16.017318,20.998076 16.010073,21 16,21 12.738457,21 12,19.460938 12,19.460938 v -1 c 0,-10e-7 4e-4,-2.458638 4,-2.460938 0.823311,-3.09e-4 1.469011,0.107876 1.988281,0.273438 A 5.5,5.5 0 0 1 21.5,15 5.5,5.5 0 0 1 23.980469,15.597656 C 23.7709,11.355315 20.296148,8 16,8 Z m 0,3 c 1.104533,0 2,0.895467 2,2 0,1.1044 -0.8956,2 -2,2 -1.1044,0 -2,-0.8956 -2,-2 0,-1.1044 0.8956,-2 2,-2 z"/>
  <path style="fill:#dfdfdf" id="path228" d="M 21.5,16 C 19.014719,16 17,18.014719 17,20.5 17,22.985281 19.014719,25 21.5,25 23.985281,25 26,22.985281 26,20.5 26,18.014719 23.985281,16 21.5,16 Z m 2.5,4 v 1 h -5 v -1 z"/>
 </g>
 <g id="user-invisible" transform="translate(155,-5)">
  <rect style="opacity:0.00100002" id="rect231" width="22" height="22" x="5" y="5"/>
  <path style="fill:#dfdfdf" id="path233" d="m 16,8 c -4.432,0 -8,3.568 -8,8 0,4.432 3.568,8 8,8 0.402589,0 0.795337,-0.03885 1.181641,-0.0957 A 5.5,5.5 0 0 1 16.027344,20.99805 C 16.017318,20.998076 16.010073,21 16,21 12.738457,21 12,19.460938 12,19.460938 v -1 c 0,-10e-7 4e-4,-2.458638 4,-2.460938 0.823311,-3.09e-4 1.469011,0.107876 1.988281,0.273438 A 5.5,5.5 0 0 1 21.5,15 5.5,5.5 0 0 1 23.980469,15.597656 C 23.7709,11.355315 20.296148,8 16,8 Z m 0,3 c 1.104533,0 2,0.895467 2,2 0,1.1044 -0.8956,2 -2,2 -1.1044,0 -2,-0.8956 -2,-2 0,-1.1044 0.8956,-2 2,-2 z"/>
  <path style="fill:#dfdfdf" id="path235" d="m 17.602885,18.25 c -1.24264,2.152317 -0.505202,4.904473 1.647115,6.147115 2.152317,1.24264 4.904473,0.505202 6.147115,-1.647115 C 26.639755,20.597683 25.902317,17.845527 23.75,16.602885 21.597683,15.360245 18.845527,16.097683 17.602885,18.25 Z m 4.714103,-0.165063 0.866024,0.499999 -2.5,4.330127 -0.866024,-0.499999 z"/>
 </g>
 <g id="user-away-extended" transform="translate(187,-5)">
  <rect style="opacity:0.00100002" id="rect238" width="22" height="22" x="5" y="5"/>
  <path style="fill:#dfdfdf" id="path240" d="m 16,8 c -4.432,0 -8,3.568 -8,8 0,4.432 3.568,8 8,8 0.402589,0 0.795337,-0.03885 1.181641,-0.0957 A 5.5,5.5 0 0 1 16.027344,20.99805 C 16.017318,20.998076 16.010073,21 16,21 12.738457,21 12,19.460938 12,19.460938 v -1 c 0,-10e-7 4e-4,-2.458638 4,-2.460938 0.823311,-3.09e-4 1.469011,0.107876 1.988281,0.273438 A 5.5,5.5 0 0 1 21.5,15 5.5,5.5 0 0 1 23.980469,15.597656 C 23.7709,11.355315 20.296148,8 16,8 Z m 0,3 c 1.104533,0 2,0.895467 2,2 0,1.1044 -0.8956,2 -2,2 -1.1044,0 -2,-0.8956 -2,-2 0,-1.1044 0.8956,-2 2,-2 z"/>
  <path style="fill:#dfdfdf" id="path242" d="M 21.5,16 C 19.014719,16 17,18.014719 17,20.5 17,22.985281 19.014719,25 21.5,25 23.985281,25 26,22.985281 26,20.5 26,18.014719 23.985281,16 21.5,16 Z M 19,20 h 1 v 1 h -1 z m 2,0 h 1 v 1 h -1 z m 2,0 h 1 v 1 h -1 z"/>
 </g>
 <g id="user-away" transform="translate(59,-5)">
  <rect style="opacity:0.00100002" id="rect245" width="22" height="22" x="5" y="5"/>
  <path style="fill:#dfdfdf" id="path247" d="m 16,8 c -4.432,0 -8,3.568 -8,8 0,4.432 3.568,8 8,8 0.402589,0 0.795337,-0.03885 1.181641,-0.0957 A 5.5,5.5 0 0 1 16.027344,20.99805 C 16.017318,20.998076 16.010073,21 16,21 12.738457,21 12,19.460938 12,19.460938 v -1 c 0,-10e-7 4e-4,-2.458638 4,-2.460938 0.823311,-3.09e-4 1.469011,0.107876 1.988281,0.273438 A 5.5,5.5 0 0 1 21.5,15 5.5,5.5 0 0 1 23.980469,15.597656 C 23.7709,11.355315 20.296148,8 16,8 Z m 0,3 c 1.104533,0 2,0.895467 2,2 0,1.1044 -0.8956,2 -2,2 -1.1044,0 -2,-0.8956 -2,-2 0,-1.1044 0.8956,-2 2,-2 z"/>
  <path style="fill:#dfdfdf" id="path249" d="M 21.5,16 C 19.014719,16 17,18.014719 17,20.5 17,22.985281 19.014719,25 21.5,25 23.985281,25 26,22.985281 26,20.5 26,18.014719 23.985281,16 21.5,16 Z M 24,18 22.75,22.375 21.5,21.75 20.875,23 20.25,21.125 19,20.5 Z"/>
 </g>
 <g id="user-trash" transform="translate(27,59)">
  <rect style="opacity:0.00100002" id="rect302" width="22" height="22" x="5" y="5"/>
  <path style="fill:#dfdfdf" id="path304" d="m 14,9 c -1,0 -1,1 -1,1 h -3 c 0,0 -1,0 -1,1 v 1 h 13 v -1 c 0,-1 -1,-1 -1,-1 h -3 c 0,0 0,-1 -1,-1 z m -4,4 v 9 c 0,0.52 0.48,1 1,1 h 8 1 c 0.52,0 1,-0.48 1,-1 v -9 z"/>
 </g>
 <g id="user-trash-full" transform="translate(27,27)">
  <rect style="opacity:0.00100002" id="rect307" width="22" height="22" x="5" y="5"/>
  <path style="fill:#dfdfdf" id="path309" d="m 14,9.000001 c -1,0 -1,1 -1,1 h -3 c 0,0 -1,0 -1,1 V 12 h 13 v -0.999999 c 0,-1 -1,-1 -1,-1 h -3 c 0,0 0,-1 -1,-1 z M 9,13 v 3 c 0,1 0.05922,2.15 0.199219,3 C 9.339219,19.85 10,22 10,22 c 0,0 0.48,1 1,1 h 9 c 0.52,0 1,-1 1,-1 0,0 0.660781,-2.15 0.800781,-3 C 21.940781,18.15 22,17 22,16 v -3 z"/>
 </g>
 <g id="user-desktop" transform="translate(27,91)">
  <rect style="opacity:0.00100002" id="rect327" width="22" height="22" x="5" y="5"/>
  <path style="fill:#dfdfdf" id="path329" d="M 8,11 V 22.205078 C 8,22.64576 8.3575814,23 8.8007812,23 H 12 v -1 c 0,-0.554001 0.412443,-1 0.923828,-1 h 6.152344 C 19.587557,21 20,21.445999 20,22 v 1 h 3.199219 C 23.642419,23 24,22.64576 24,22.205078 V 11 Z"/>
  <path style="opacity:0.3;fill:#dfdfdf" id="path331" d="m 8.7999995,8.9999999 c -0.4432,0 -0.8,0.3547728 -0.8,0.7954546 V 11 H 24 V 9.7954545 C 24,9.3547727 23.64288,8.9999999 23.2,8.9999999 Z"/>
 </g>
</svg>
