<svg xmlns="http://www.w3.org/2000/svg" id="22-22-svg22" width="22" height="22" version="1">
 <g id="22-22-utilities-terminal" transform="translate(-5,-5)">
  <rect style="opacity:0.00100002" id="22-22-rect2" width="22" height="22" x="5" y="5"/>
  <path style="fill:#dfdfdf" id="22-22-path4" d="M 8.800781,9 C 8.357581,9 8,9.357581 8,9.800781 V 22.199219 C 8,22.642419 8.357581,23 8.800781,23 H 23.199219 C 23.642419,23 24,22.642419 24,22.199219 V 9.800781 C 24,9.357581 23.642419,9 23.199219,9 Z M 12,12 h 1 v 1 h 0.5 c 0.654,0 1.202203,0.418 1.408203,1 H 13 v 1 h 0.5 c 0.831,0 1.5,0.669 1.5,1.5 0,0.831 -0.669,1.5 -1.5,1.5 H 13 v 1 h -1 v -1 h -0.5 c -0.6542,0 -1.202203,-0.418 -1.408203,-1 H 12 V 16 H 11.5 C 10.669,16 10,15.331 10,14.5 10,13.669 10.669,13 11.5,13 H 12 Z m -0.5,2 c -0.277,0 -0.5,0.223 -0.5,0.5 0,0.277 0.223,0.5 0.5,0.5 H 12 v -1 z m 1.5,2 v 1 h 0.5 C 13.7767,17.0129 14,16.777 14,16.5 14,16.223 13.777,16 13.5,16 Z m 4,2 h 6 v 1 h -6 z"/>
 </g>
</svg>
