<?xml version="1.0" encoding="UTF-8" standalone="no"?>
<svg
   xmlns:dc="http://purl.org/dc/elements/1.1/"
   xmlns:cc="http://creativecommons.org/ns#"
   xmlns:rdf="http://www.w3.org/1999/02/22-rdf-syntax-ns#"
   xmlns:svg="http://www.w3.org/2000/svg"
   xmlns="http://www.w3.org/2000/svg"
   xmlns:sodipodi="http://sodipodi.sourceforge.net/DTD/sodipodi-0.dtd"
   xmlns:inkscape="http://www.inkscape.org/namespaces/inkscape"
   id="22-22-svg8"
   width="32"
   height="32"
   version="1.1"
   sodipodi:docname="veracrypt.svg"
   inkscape:version="0.92.3 (2405546, 2018-03-11)">
  <metadata
     id="metadata12">
    <rdf:RDF>
      <cc:Work
         rdf:about="">
        <dc:format>image/svg+xml</dc:format>
        <dc:type
           rdf:resource="http://purl.org/dc/dcmitype/StillImage" />
        <dc:title></dc:title>
      </cc:Work>
    </rdf:RDF>
  </metadata>
  <defs
     id="defs10" />
  <sodipodi:namedview
     pagecolor="#ffffff"
     bordercolor="#666666"
     borderopacity="1"
     objecttolerance="10"
     gridtolerance="10"
     guidetolerance="10"
     inkscape:pageopacity="0"
     inkscape:pageshadow="2"
     inkscape:window-width="1920"
     inkscape:window-height="1020"
     id="namedview8"
     showgrid="false"
     inkscape:zoom="6.61"
     inkscape:cx="11"
     inkscape:cy="11"
     inkscape:window-x="0"
     inkscape:window-y="30"
     inkscape:window-maximized="1"
     inkscape:current-layer="22-22-svg8">
    <inkscape:grid
       type="xygrid"
       id="grid844" />
  </sodipodi:namedview>
  <g
     id="22-22-veracrypt"
     transform="translate(0,-22)">
    <rect
       id="22-22-rect821"
       width="22"
       height="22"
       x="0"
       y="0"
       style="opacity:0.00100002;fill:#000000;fill-opacity:1;stroke-width:1.19167602" />
    <path
       id="22-22-path2"
       d="m 2,3 4.4492188,16 0.2910156,-0.955078 1.6152344,-7.029297 h 0.085937 L 6.3007812,3 Z"
       style="opacity:0.3;fill:#dfdfdf"
       inkscape:connector-curvature="0" />
    <path
       id="22-22-path4"
       d="m 12.035877,11.019838 -3.6795694,-0.0049 -1.6153846,7.029384 -0.2923077,0.955077 4.1588307,-7e-6 c 1.687754,-7.318154 1.4288,-7.980154 1.4288,-7.980154 z"
       style="opacity:0.15;fill:#dfdfdf"
       inkscape:connector-curvature="0" />
    <path
       id="22-22-path6"
       d="M 11.038461,3.0000005 8.4394615,11.015539 10.6,19 h 8.631384 L 17.38523,15 h -3.7 L 12.562539,11.015539 13.992923,7 h 3.392307 l 1.846154,-3.9999995 z"
       style="fill:#dfdfdf"
       inkscape:connector-curvature="0" />
  </g>
  <g
     id="veracrypt">
    <rect
       style="opacity:0.00100002;fill:#000000;fill-opacity:1;stroke-width:1.73334694"
       y="0"
       x="0"
       height="32"
       width="32"
       id="rect822" />
    <path
       inkscape:connector-curvature="0"
       style="opacity:0.3;fill:#dfdfdf;stroke-width:1.50443089"
       d="M 2.9999994,3.9999999 9.7133136,28 10.15242,26.567383 12.589607,16.023438 h 0.129668 L 9.4893398,3.9999999 Z"
       id="path824" />
    <path
       inkscape:connector-curvature="0"
       style="opacity:0.15;fill:#dfdfdf;stroke-width:1.50443089"
       d="m 18.142882,16.029757 -5.55201,-0.0073 -2.437413,10.544075 -0.441056,1.432616 6.275155,-1.1e-5 c 2.54661,-10.977231 2.15588,-11.970231 2.15588,-11.970231 z"
       id="path826" />
    <path
       inkscape:connector-curvature="0"
       style="fill:#dfdfdf;stroke-width:1.50443089"
       d="M 16.637906,4.0000006 12.716341,16.023309 15.976322,28 h 13.023679 l -2.785616,-6 h -5.582836 l -1.694,-5.976691 2.15827,-6.023308 h 5.118566 l 2.785616,-6.0000004 z"
       id="path828" />
  </g>
</svg>
