<svg xmlns="http://www.w3.org/2000/svg" xmlns:osb="http://www.openswatchbook.org/uri/2009/osb" style="enable-background:new" id="svg64" width="22" height="22" version="1.1">
 <defs id="defs4">
  <linearGradient id="linearGradient5606" osb:paint="solid">
   <stop id="stop5608" offset="0" style="stop-color:#000000"/>
  </linearGradient>
 </defs>
 <g id="wallet-closed" transform="translate(29.66,30.09)">
  <rect style="opacity:0.00100002" id="rect52" width="22" height="22" x="-29.66" y="-30.09"/>
  <path style="fill:#dfdfdf" id="path54" d="m -25.159091,-27.085227 c -0.831,0 -1.5,0.669 -1.5,1.5 v 13 c 0,0.831 0.669,1.5 1.5,1.5 h 11 c 0.831,0 1.5,-0.669 1.5,-1.5 v -1.5 H -14.2587 c -1.287169,0 -2.400391,-1.030346 -2.400391,-2.332031 v -5.333985 c 0,-1.301922 1.113222,-2.333984 2.400391,-2.333984 h 1 0.599609 v -1.5 c 0,-0.831 -0.669,-1.5 -1.5,-1.5 z m 10.900391,4 c -0.776,0 -1.400391,0.594984 -1.400391,1.333984 v 5.333985 c 0,0.738 0.624391,1.332031 1.400391,1.332031 h 3.599609 v -8 z m 0.599609,3 a 1,1 0 0 1 1,1 1,1 0 0 1 -1,1 1,1 0 0 1 -1,-1 1,1 0 0 1 1,-1 z"/>
 </g>
 <g id="wallet-open" transform="translate(-5,-37)">
  <rect style="opacity:0.00100002" id="rect57" width="22" height="22" x="5" y="5"/>
  <path style="fill:#dfdfdf" id="path59" d="M 9.5,8 C 8.669,8 8,8.669 8,9.5 v 13 C 8,23.331 8.669,24 9.5,24 h 11 C 21.331,24 22,23.331 22,22.5 V 9.5 C 22,8.669 21.331,8 20.5,8 Z M 26,13 v 6 h 0.142578 C 26.617435,19 27,18.749125 27,18.4375 v -4.875 C 27,13.250875 26.617435,13 26.142578,13 Z"/>
  <path style="fill:#5294e2" id="path61" d="M 22.908203,9 C 22.963861,9.1572213 23,9.3232402 23,9.5 v 13 c 0,0.17676 -0.03614,0.342779 -0.0918,0.5 h 0.806641 C 24.427129,23 25,22.414625 25,21.6875 V 10.3125 C 25,9.585375 24.427129,9 23.714844,9 Z"/>
 </g>
</svg>
