<?xml version="1.0" encoding="UTF-8" standalone="no"?>
<svg
   xmlns:osb="http://www.openswatchbook.org/uri/2009/osb"
   xmlns:dc="http://purl.org/dc/elements/1.1/"
   xmlns:cc="http://creativecommons.org/ns#"
   xmlns:rdf="http://www.w3.org/1999/02/22-rdf-syntax-ns#"
   xmlns:svg="http://www.w3.org/2000/svg"
   xmlns="http://www.w3.org/2000/svg"
   xmlns:sodipodi="http://sodipodi.sourceforge.net/DTD/sodipodi-0.dtd"
   xmlns:inkscape="http://www.inkscape.org/namespaces/inkscape"
   style="enable-background:new"
   id="22-22-svg64"
   width="32"
   height="32"
   version="1.1"
   sodipodi:docname="wallet.svg"
   inkscape:version="0.92.3 (2405546, 2018-03-11)">
  <metadata
     id="metadata15">
    <rdf:RDF>
      <cc:Work
         rdf:about="">
        <dc:format>image/svg+xml</dc:format>
        <dc:type
           rdf:resource="http://purl.org/dc/dcmitype/StillImage" />
        <dc:title></dc:title>
      </cc:Work>
    </rdf:RDF>
  </metadata>
  <sodipodi:namedview
     pagecolor="#ffffff"
     bordercolor="#666666"
     borderopacity="1"
     objecttolerance="10"
     gridtolerance="10"
     guidetolerance="10"
     inkscape:pageopacity="0"
     inkscape:pageshadow="2"
     inkscape:window-width="1920"
     inkscape:window-height="1020"
     id="namedview13"
     showgrid="false"
     inkscape:zoom="7.6095916"
     inkscape:cx="11"
     inkscape:cy="25.198073"
     inkscape:window-x="0"
     inkscape:window-y="30"
     inkscape:window-maximized="1"
     inkscape:current-layer="22-22-svg64">
    <inkscape:grid
       type="xygrid"
       id="grid833" />
  </sodipodi:namedview>
  <defs
     id="22-22-defs4">
    <linearGradient
       id="22-22-linearGradient5606"
       osb:paint="solid">
      <stop
         id="22-22-stop5608"
         offset="0"
         style="stop-color:#000000" />
    </linearGradient>
  </defs>
  <g
     id="22-22-wallet-closed"
     transform="translate(29.66,8.0899998)">
    <rect
       style="opacity:0.00100002"
       id="22-22-rect52"
       width="22"
       height="22"
       x="-29.66"
       y="-30.09" />
    <path
       style="fill:#dfdfdf"
       id="22-22-path54"
       d="m -25.159091,-27.085227 c -0.831,0 -1.5,0.669 -1.5,1.5 v 13 c 0,0.831 0.669,1.5 1.5,1.5 h 11 c 0.831,0 1.5,-0.669 1.5,-1.5 v -1.5 H -14.2587 c -1.287169,0 -2.400391,-1.030346 -2.400391,-2.332031 v -5.333985 c 0,-1.301922 1.113222,-2.333984 2.400391,-2.333984 h 1 0.599609 v -1.5 c 0,-0.831 -0.669,-1.5 -1.5,-1.5 z m 10.900391,4 c -0.776,0 -1.400391,0.594984 -1.400391,1.333984 v 5.333985 c 0,0.738 0.624391,1.332031 1.400391,1.332031 h 3.599609 v -8 z m 0.599609,3 a 1,1 0 0 1 1,1 1,1 0 0 1 -1,1 1,1 0 0 1 -1,-1 1,1 0 0 1 1,-1 z"
       inkscape:connector-curvature="0" />
  </g>
  <g
     id="22-22-wallet-open"
     transform="translate(27,-27)">
    <rect
       style="opacity:0.00100002"
       id="22-22-rect57"
       width="22"
       height="22"
       x="5"
       y="5" />
    <path
       style="fill:#dfdfdf"
       id="22-22-path59"
       d="M 9.5,8 C 8.669,8 8,8.669 8,9.5 v 13 C 8,23.331 8.669,24 9.5,24 h 11 C 21.331,24 22,23.331 22,22.5 V 9.5 C 22,8.669 21.331,8 20.5,8 Z M 26,13 v 6 h 0.142578 C 26.617435,19 27,18.749125 27,18.4375 v -4.875 C 27,13.250875 26.617435,13 26.142578,13 Z"
       inkscape:connector-curvature="0" />
    <path
       style="fill:#5294e2"
       id="22-22-path61"
       d="M 22.908203,9 C 22.963861,9.1572213 23,9.3232402 23,9.5 v 13 c 0,0.17676 -0.03614,0.342779 -0.0918,0.5 h 0.806641 C 24.427129,23 25,22.414625 25,21.6875 V 10.3125 C 25,9.585375 24.427129,9 23.714844,9 Z"
       inkscape:connector-curvature="0" />
  </g>
  <g
     id="wallet-closed">
    <rect
       y="-3.1694603e-07"
       x="-3.0805398e-07"
       height="32"
       width="32"
       id="rect825"
       style="opacity:0.00100002;stroke-width:1.4545455" />
    <path
       id="path839"
       d="M 6.25,4 C 5.0035001,4 4,5.0035001 4,6.25 v 19.5 C 4,26.9965 5.0035001,28 6.25,28 h 16.5 C 23.9965,28 25,26.9965 25,25.75 V 23 H 22.601562 C 20.670808,23 19,21.454481 19,19.501953 V 12.5 C 19,10.547117 20.675084,9.1284318 22.601562,9 h 1.5 H 25 V 6.25 C 25,5.0035001 23.9965,4 22.75,4 Z m 16.429688,7 C 21.748487,11 21,11.744219 21,12.667969 v 6.667969 C 21,20.258439 21.748487,21 22.679688,21 H 27 V 11 Z M 23,15 a 1,1 0 0 1 1,1 1,1 0 0 1 -1,1 1,1 0 0 1 -1,-1 1,1 0 0 1 1,-1 z"
       style="fill:#dfdfdf;stroke-width:1.5"
       inkscape:connector-curvature="0" />
  </g>
  <g
     id="wallet-open"
     transform="translate(32)">
    <rect
       y="-5e-07"
       x="-5e-07"
       height="32"
       width="32"
       id="rect847"
       style="opacity:0.00100002;stroke-width:1.4545455" />
    <path
       inkscape:connector-curvature="0"
       id="path869"
       d="M 5.25,4 C 4.0035,4 3,5.0034999 3,6.25 v 19.5 C 3,26.9965 4.0035,28 5.25,28 h 16.5 C 22.9965,28 24,26.9965 24,25.75 V 6.25 C 24,5.0034999 22.9965,4 21.75,4 Z M 29,11 v 10 h 0.285156 C 30.23487,21 31,20.581875 31,20.0625 v -8.125 C 31,11.418125 30.23487,11 29.285156,11 Z"
       style="fill:#dfdfdf;stroke-width:1.5" />
    <path
       inkscape:connector-curvature="0"
       d="m 24.000006,6 c 0.07982,0.2246018 0.131651,0.4617717 0.131651,0.7142857 V 25.285715 C 24.131657,25.53823 24.079827,25.775399 24,26 h 1.156862 C 26.178405,26 27,25.163751 27,24.125001 V 7.8750001 C 27,6.8362501 26.178405,6 25.156867,6 Z"
       id="path851"
       style="fill:#5294e2;stroke-width:1.43136847" />
  </g>
</svg>
