<svg xmlns="http://www.w3.org/2000/svg" width="32" height="32" version="1.1">
 <g id="22-22-list-remove" transform="translate(-253,-17)">
  <rect style="opacity:0.001" width="22" height="22" x="285" y="-5"/>
  <g transform="translate(285.00081,-5.00334)">
   <g transform="translate(-445.0004,125.00336)">
    <path style="fill:#dfdfdf" d="m 461.65725,-119.66021 a 8,8 0 0 0 -11.3137,0 8,8 0 0 0 0,11.3137 8,8 0 0 0 11.3137,0 8,8 0 0 0 0,-11.3137 z m -1.22362,3.34494 a 5,5 0 0 1 -0.8977,5.84744 5,5 0 0 1 -5.84329,0.89355 z m -2.12547,-2.11717 -6.74099,6.74099 a 5,5 0 0 1 0.8977,-5.84744 5,5 0 0 1 5.84329,-0.89355 z"/>
   </g>
  </g>
 </g>
 <g id="22-22-list-add" transform="translate(-285.00081,-16.99666)">
  <path style="opacity:0.001" d="m 285.00081,-5.00334 h 22 v 22 h -22 z"/>
  <path style="fill:#dfdfdf" transform="translate(285.00081,-5.00334)" d="M 9,3 V 9 H 3 v 4 h 6 v 6 h 4 v -6 h 6 V 9 H 13 V 3 Z"/>
 </g>
 <g id="list-add" transform="translate(3.6590725e-6)">
  <path style="opacity:0.001" d="M -4.318145e-6,-4.8197e-7 H 31.999997 V 32.000001 H -4.318145e-6 Z"/>
  <path style="fill:#dfdfdf" d="m 13,4 v 9 H 4.0000001 v 6 H 13 v 9 h 6 v -9 h 9 V 13 H 19 V 4 Z"/>
 </g>
 <g id="list-remove" transform="translate(32.000003)">
  <rect style="opacity:0.001" width="32" height="32" x="0" y="0"/>
  <path style="fill:#dfdfdf" d="m 15.824219,4.0019531 a 12.000013,12.000013 0 0 0 -8.308594,3.5136719 12.000013,12.000013 0 0 0 0,16.96875 12.000013,12.000013 0 0 0 16.96875,0 12.000013,12.000013 0 0 0 0,-16.96875 12.000013,12.000013 0 0 0 -8.660156,-3.5136719 z m 0.294922,4.0058594 a 7.9999018,7.9999018 0 0 1 3.572265,0.9042969 L 8.90625,19.699219 a 7.9999018,7.9999018 0 0 1 1.4375,-9.355469 7.9999018,7.9999018 0 0 1 5.775391,-2.3359375 z m 6.974609,4.2910155 a 7.9999018,7.9999018 0 0 1 -1.4375,9.357422 7.9999018,7.9999018 0 0 1 -9.347656,1.431641 z"/>
 </g>
</svg>
