<svg xmlns="http://www.w3.org/2000/svg" width="32" height="32" version="1.1">
 <g id="22-22-update-none" transform="translate(142.53,-1050.67)">
  <rect style="opacity:0.001" width="22" height="22" x="-46.53" y="1028.67"/>
  <path style="fill:#dfdfdf" d="m -35.529081,1031.6736 c -4.4183,0 -8,3.5817 -8,8 0,4.418 3.5817,8 8,8 4.418,0 8,-3.582 8,-8 0,-4.4183 -3.582,-8 -8,-8 z m 3.385,4.582 c 0.083,0 0.165,0.032 0.228,0.096 l 0.955,0.9551 c 0.128,0.1274 0.128,0.3317 0,0.459 l -4.185,4.1852 -1.012,1.012 -0.057,0.057 c -0.095,0.095 -0.25,0.095 -0.3452,0 l -0.0567,-0.057 -0.9551,-0.955 -2.8847,-2.885 c -0.0955,-0.095 -0.0955,-0.25 0,-0.345 l 1.0683,-1.0688 c 0.0955,-0.096 0.2502,-0.096 0.3457,0 l 2.6567,2.6558 4.011,-4.0133 c 0.064,-0.064 0.148,-0.096 0.231,-0.096 z"/>
 </g>
 <g id="22-22-update-low" transform="translate(0,-22)">
  <rect style="opacity:0.001" width="22" height="22" x="0" y="0"/>
  <path style="fill:#dfdfdf" d="M 10.750976,3.0032982 C 8.704592,3.0671102 6.681597,3.9128045 5.168945,5.5228295 2.143642,8.7428791 2.302411,13.80612 5.522461,16.831423 8.742511,19.856726 13.80575,19.697958 16.831055,16.477907 19.856358,13.257859 19.697589,8.1946171 16.477539,5.1693139 14.867514,3.6566623 12.79736,2.9394865 10.750976,3.0032982 Z m 0.25,2.9960938 c 0.857702,0.00202 1.700462,0.2246535 2.447266,0.6464843 l -1.359375,1.5605468 c -0.346641,-0.135921 -0.715555,-0.206129 -1.087891,-0.207031 -1.656854,0 -3,1.343146 -3,2.9999999 h 1.5 l -1.25,1.5 -1.25,1.5 -1.25,-1.5 -1.25,-1.5 h 1.5 c 0,-2.7614229 2.238576,-5 5,-5 z m 4,2.0000001 1.25,1.5 1.25,1.4999999 h -1.5 c 0,2.761424 -2.238576,5 -5,5 -0.867045,-0.0027 -1.718474,-0.230918 -2.470703,-0.662109 l 1.355469,-1.554688 c 0.354543,0.142637 0.733074,0.216224 1.115234,0.216797 1.656854,0 3,-1.343146 3,-3 h -1.5 l 1.25,-1.4999999 z"/>
  <circle style="fill:#4285f4" cx="19" cy="19" r="2"/>
 </g>
 <g id="22-22-update-medium" transform="translate(32,-22)">
  <rect style="opacity:0.001" width="22" height="22" x="0" y="0"/>
  <path style="fill:#dfdfdf" d="M 10.750976,3.0032982 C 8.704592,3.0671102 6.681597,3.9128045 5.168945,5.5228295 2.143642,8.7428791 2.302411,13.80612 5.522461,16.831423 8.742511,19.856726 13.80575,19.697958 16.831055,16.477907 19.856358,13.257859 19.697589,8.1946171 16.477539,5.1693139 14.867514,3.6566623 12.79736,2.9394865 10.750976,3.0032982 Z m 0.25,2.9960938 c 0.857702,0.00202 1.700462,0.2246535 2.447266,0.6464843 l -1.359375,1.5605468 c -0.346641,-0.135921 -0.715555,-0.206129 -1.087891,-0.207031 -1.656854,0 -3,1.343146 -3,2.9999999 h 1.5 l -1.25,1.5 -1.25,1.5 -1.25,-1.5 -1.25,-1.5 h 1.5 c 0,-2.7614229 2.238576,-5 5,-5 z m 4,2.0000001 1.25,1.5 1.25,1.4999999 h -1.5 c 0,2.761424 -2.238576,5 -5,5 -0.867045,-0.0027 -1.718474,-0.230918 -2.470703,-0.662109 l 1.355469,-1.554688 c 0.354543,0.142637 0.733074,0.216224 1.115234,0.216797 1.656854,0 3,-1.343146 3,-3 h -1.5 l 1.25,-1.4999999 z"/>
  <circle style="fill:#4285f4" cx="19" cy="19" r="2"/>
 </g>
 <g id="22-22-update-high" transform="translate(64,-22)">
  <rect style="opacity:0.001" width="22" height="22" x="0" y="0"/>
  <path style="fill:#dfdfdf" d="M 10.750976,3.0032982 C 8.704592,3.0671102 6.681597,3.9128045 5.168945,5.5228295 2.143642,8.7428791 2.302411,13.80612 5.522461,16.831423 8.742511,19.856726 13.80575,19.697958 16.831055,16.477907 19.856358,13.257859 19.697589,8.1946171 16.477539,5.1693139 14.867514,3.6566623 12.79736,2.9394865 10.750976,3.0032982 Z m 0.25,2.9960938 c 0.857702,0.00202 1.700462,0.2246535 2.447266,0.6464843 l -1.359375,1.5605468 c -0.346641,-0.135921 -0.715555,-0.206129 -1.087891,-0.207031 -1.656854,0 -3,1.343146 -3,2.9999999 h 1.5 l -1.25,1.5 -1.25,1.5 -1.25,-1.5 -1.25,-1.5 h 1.5 c 0,-2.7614229 2.238576,-5 5,-5 z m 4,2.0000001 1.25,1.5 1.25,1.4999999 h -1.5 c 0,2.761424 -2.238576,5 -5,5 -0.867045,-0.0027 -1.718474,-0.230918 -2.470703,-0.662109 l 1.355469,-1.554688 c 0.354543,0.142637 0.733074,0.216224 1.115234,0.216797 1.656854,0 3,-1.343146 3,-3 h -1.5 l 1.25,-1.4999999 z"/>
  <circle style="fill:#4285f4" cx="19" cy="19" r="2"/>
 </g>
 <g id="update-low">
  <rect style="opacity:0.001" width="32" height="32" x="0" y="0"/>
  <path style="fill:#dfdfdf" d="M 15.626953,4.0058594 C 12.55747,4.1015701 9.5228154,5.3703032 7.2539062,7.7851562 2.7160895,12.614861 2.9532746,20.208486 7.7832031,24.746094 12.613132,29.283701 20.208275,29.046505 24.746094,24.216797 29.283911,19.387094 29.046725,11.791514 24.216797,7.2539062 21.801833,4.9851022 18.696435,3.9101492 15.626953,4.0058594 Z M 16,8 c 1.492971,0.00172 2.955672,0.4211801 4.222656,1.2109375 L 18.126953,11.480469 C 17.461951,11.165783 16.735698,11.0017 16,11 c -2.761424,0 -5,2.238576 -5,5 h 2 L 9.5,20 6,16 h 2 c 0,-4.418278 3.581722,-8 8,-8 z m 6.5,4 3.5,4 h -2 c 0,4.418278 -3.581722,8 -8,8 -1.492971,-0.0017 -2.955672,-0.42118 -4.222656,-1.210938 l 2.095703,-2.269531 C 14.538049,20.834217 15.264302,20.9983 16,21 c 2.761424,0 5,-2.238576 5,-5 h -2 z"/>
  <circle style="fill:#4285f4" cx="28" cy="28" r="3"/>
 </g>
 <g id="update-none" transform="translate(96,1.7166138e-5)">
  <rect style="opacity:0.001" width="32" height="32" x="0" y="0"/>
  <path style="fill:#dfdfdf" d="M 16,4.0000001 C 9.37255,4.0000001 4,9.3725502 4,16 4,22.627 9.37255,28 16,28 22.627,28 28,22.627 28,16 28,9.3725502 22.627,4.0000001 16,4.0000001 Z M 21.077501,10.873 c 0.124499,0 0.2475,0.04801 0.341999,0.144 l 1.4325,1.432651 c 0.192,0.1911 0.192,0.497549 0,0.688499 l -6.2775,6.277801 -1.518,1.517999 -0.0855,0.0855 c -0.1425,0.142501 -0.374999,0.142501 -0.5178,0 l -0.08505,-0.0855 -1.432649,-1.4325 -4.3270508,-4.3275 c -0.14325,-0.1425 -0.14325,-0.374999 0,-0.5175 L 10.2109,13.053251 c 0.14325,-0.144001 0.3753,-0.144001 0.518551,0 l 3.98505,3.9837 6.0165,-6.019951 c 0.096,-0.096 0.221999,-0.144 0.3465,-0.144 z"/>
 </g>
 <g id="update-medium" transform="translate(32)">
  <rect style="opacity:0.001" width="32" height="32" x="0" y="0"/>
  <path style="fill:#dfdfdf" d="M 15.626953,4.0058594 C 12.55747,4.1015701 9.5228154,5.3703032 7.2539062,7.7851562 2.7160895,12.614861 2.9532746,20.208486 7.7832031,24.746094 12.613132,29.283701 20.208275,29.046505 24.746094,24.216797 29.283911,19.387094 29.046725,11.791514 24.216797,7.2539062 21.801833,4.9851022 18.696435,3.9101492 15.626953,4.0058594 Z M 16,8 c 1.492971,0.00172 2.955672,0.4211801 4.222656,1.2109375 L 18.126953,11.480469 C 17.461951,11.165783 16.735698,11.0017 16,11 c -2.761424,0 -5,2.238576 -5,5 h 2 L 9.5,20 6,16 h 2 c 0,-4.418278 3.581722,-8 8,-8 z m 6.5,4 3.5,4 h -2 c 0,4.418278 -3.581722,8 -8,8 -1.492971,-0.0017 -2.955672,-0.42118 -4.222656,-1.210938 l 2.095703,-2.269531 C 14.538049,20.834217 15.264302,20.9983 16,21 c 2.761424,0 5,-2.238576 5,-5 h -2 z"/>
  <circle style="fill:#4285f4" cx="28" cy="28" r="3"/>
 </g>
 <g id="update-high" transform="translate(64)">
  <rect style="opacity:0.001" width="32" height="32" x="0" y="0"/>
  <path style="fill:#dfdfdf" d="M 15.626953,4.0058594 C 12.55747,4.1015701 9.5228154,5.3703032 7.2539062,7.7851562 2.7160895,12.614861 2.9532746,20.208486 7.7832031,24.746094 12.613132,29.283701 20.208275,29.046505 24.746094,24.216797 29.283911,19.387094 29.046725,11.791514 24.216797,7.2539062 21.801833,4.9851022 18.696435,3.9101492 15.626953,4.0058594 Z M 16,8 c 1.492971,0.00172 2.955672,0.4211801 4.222656,1.2109375 L 18.126953,11.480469 C 17.461951,11.165783 16.735698,11.0017 16,11 c -2.761424,0 -5,2.238576 -5,5 h 2 L 9.5,20 6,16 h 2 c 0,-4.418278 3.581722,-8 8,-8 z m 6.5,4 3.5,4 h -2 c 0,4.418278 -3.581722,8 -8,8 -1.492971,-0.0017 -2.955672,-0.42118 -4.222656,-1.210938 l 2.095703,-2.269531 C 14.538049,20.834217 15.264302,20.9983 16,21 c 2.761424,0 5,-2.238576 5,-5 h -2 z"/>
  <circle style="fill:#4285f4" cx="28" cy="28" r="3"/>
 </g>
</svg>
