<svg xmlns="http://www.w3.org/2000/svg" width="32" height="32" version="1.1">
 <g id="view-refresh" transform="translate(-250.00021,54.000004)">
  <path style="opacity:0.001" d="m 282.00021,-38.000004 16,0 0,16 -16,0 z"/>
  <g transform="translate(281.97246,-37.000109)">
   <g transform="translate(-485.03396,-41.017475)">
    <path style="fill:#dfdfdf" d="m 499.06185,49.01758 c 0,3.31371 -2.68629,6 -6,6 -3.28006,0 -5.94034,-2.63316 -5.99414,-5.90039 a 1,1 0 0 1 -0.006,-0.09961 1,1 0 0 1 1,-1 1,1 0 0 1 1,1 c 0,2.20914 1.79086,4 4,4 2.20914,0 4,-1.79086 4,-4 0,-2.20914 -1.79086,-4 -4,-4 l 0,2 -4,-3 4,-3 0,2 c 3.31371,0 6,2.68629 6,6 z"/>
   </g>
  </g>
 </g>
 <g id="view-history">
  <rect style="opacity:0.001" width="32" height="32" x="0" y="0"/>
  <path style="fill:#dfdfdf" d="M 16 2 C 8.2752851 2 2 8.2752829 2 16 C 2 23.724717 8.2752851 30.000002 16 30 C 23.724715 30 30.000007 23.724717 30 16 C 30 13.039642 29.073595 10.296196 27.501953 8.0332031 L 25.332031 10.203125 C 26.38208 11.888417 27 13.87061 27 16 C 27.000004 22.069421 22.06942 27 16 27 C 9.9305785 27.000001 5 22.069421 5 16 C 5 9.93058 9.9305785 5 16 5 C 18.12939 5 20.111583 5.61792 21.796875 6.6679688 L 23.966797 4.4980469 C 21.703804 2.9264053 18.960357 2 16 2 z M 27.470703 2.9863281 A 1.50015 1.50015 0 0 0 26.439453 3.4394531 L 17.558594 12.320312 C 18.509362 12.726844 19.273157 13.490638 19.679688 14.441406 L 28.560547 5.5605469 A 1.50015 1.50015 0 0 0 27.470703 2.9863281 z M 9.5117188 9.9882812 A 1.50015 1.50015 0 0 0 8.6464844 12.732422 L 12.103516 15.126953 C 12.335069 14.10328 12.960021 13.224764 13.8125 12.662109 L 10.353516 10.267578 A 1.50015 1.50015 0 0 0 9.5117188 9.9882812 z M 16 13 C 14.344704 13 13 14.344703 13 16 C 13 17.655296 14.344704 19 16 19 C 17.655296 19 19 17.655296 19 16 C 19 14.344703 17.655296 13 16 13 z"/>
 </g>
</svg>
