<svg xmlns="http://www.w3.org/2000/svg" width="32" height="32" version="1.1">
 <g id="22-22-audio-volume-muted" transform="translate(-325.0004,451)">
  <path style="opacity:0.001" d="m 325.0004,-419 h 22 c 0,0 0,0 0,0 v 22 c 0,0 0,0 0,0 h -22 c 0,0 0,0 0,0 v -22 c 0,0 0,0 0,0 z"/>
  <path style="opacity:0.3;fill:#dfdfdf" d="m 335.0004,-416 -5,5 h -3 v 6 h 3 l 5,5 z m 2,0 v 2 c 2.86838,0.84571 5,3.06286 5,6 0,2.93714 -2.13163,5.15429 -5,6 v 2 c 3.89455,-0.89143 7,-4.11429 7,-8 0,-3.88571 -3.10545,-7.10857 -7,-8 z m 0,4 v 8 c 0,0 3.0002,-1 3,-4 -2e-4,-3 -3,-4 -3,-4 z"/>
 </g>
 <g id="22-22-audio-volume-low" transform="translate(-300.0004,451)">
  <path style="opacity:0.001" d="m 325.0004,-419 h 22 c 0,0 0,0 0,0 v 22 c 0,0 0,0 0,0 h -22 c 0,0 0,0 0,0 v -22 c 0,0 0,0 0,0 z"/>
  <path style="fill:#dfdfdf" d="m 335.0004,-416 -5,5 h -3 v 6 h 3 l 5,5 z"/>
  <path style="opacity:0.3;fill:#dfdfdf" d="m 337.0004,-416 v 2 c 2.86838,0.84571 5,3.06286 5,6 0,2.93714 -2.13163,5.15429 -5,6 v 2 c 3.89455,-0.89143 7,-4.11429 7,-8 0,-3.88571 -3.10545,-7.10857 -7,-8 z"/>
  <path style="opacity:0.3;fill:#dfdfdf" d="m 337.0004,-412 v 8 c 0,0 3.0002,-1 3,-4 -2e-4,-3 -3,-4 -3,-4 z"/>
 </g>
 <g id="22-22-audio-volume-medium" transform="translate(-275.0004,451)">
  <path style="opacity:0.001" d="m 325.0004,-419 h 22 c 0,0 0,0 0,0 v 22 c 0,0 0,0 0,0 h -22 c 0,0 0,0 0,0 v -22 c 0,0 0,0 0,0 z"/>
  <path style="fill:#dfdfdf" d="m 335.0004,-416 -5,5 h -3 v 6 h 3 l 5,5 z"/>
  <path style="opacity:0.3;fill:#dfdfdf" d="m 337.0004,-416 v 2 c 2.86838,0.84571 5,3.06286 5,6 0,2.93714 -2.13163,5.15429 -5,6 v 2 c 3.89455,-0.89143 7,-4.11429 7,-8 0,-3.88571 -3.10545,-7.10857 -7,-8 z"/>
  <path style="fill:#dfdfdf" d="m 337.0004,-412 v 8 c 0,0 3.0002,-1 3,-4 -2e-4,-3 -3,-4 -3,-4 z"/>
 </g>
 <g id="22-22-audio-volume-high" transform="translate(-250.0004,451)">
  <path style="opacity:0.001" d="m 325.0004,-419 h 22 c 0,0 0,0 0,0 v 22 c 0,0 0,0 0,0 h -22 c 0,0 0,0 0,0 v -22 c 0,0 0,0 0,0 z"/>
  <path style="fill:#dfdfdf" d="m 335.0004,-416 -5,5 h -3 v 6 h 3 l 5,5 z"/>
  <path style="fill:#dfdfdf" d="m 337.0004,-416 v 2 c 2.86838,0.84571 5,3.06286 5,6 0,2.93714 -2.13163,5.15429 -5,6 v 2 c 3.89455,-0.89143 7,-4.11429 7,-8 0,-3.88571 -3.10545,-7.10857 -7,-8 z"/>
  <path style="fill:#dfdfdf" d="m 337.0004,-412 v 8 c 0,0 3.0002,-1 3,-4 -2e-4,-3 -3,-4 -3,-4 z"/>
 </g>
 <g id="audio-volume-low" transform="translate(32,32)">
  <rect style="opacity:0.001" width="32" height="32" x="0" y="-32"/>
  <g transform="translate(1,-32)">
   <path style="fill:#9c85f5" d="M 14.999,2 7,10.002 H 1 v 12 H 7 L 14.999,30 Z"/>
   <path style="opacity:0.2;fill:#9c85f5" d="m 18.999,2 v 3 c 4.64,1.48 8,5.86 8,11 0,5.14 -3.36,9.52 -8,11 v 3 c 6.3,-1.56 11,-7.2 11,-14 0,-6.8 -4.7,-12.44 -11,-14 z"/>
   <path style="opacity:0.2;fill:#9c85f5" d="m 18.999,10 v 12 c 2.12,-1.16 3.582,-3.4 3.582,-6 0,-2.6 -1.442,-4.84 -3.582,-6 z"/>
   <path style="opacity:0.2;fill:#dfdfdf" d="M 14.998,2 7,10.002 H 1 v 1 H 7 L 14.998,3 Z"/>
   <path style="opacity:0.2" d="m 1,22.002 v 1 H 7 L 14.998,31 V 30 L 7,22.002 Z"/>
  </g>
 </g>
 <g id="audio-volume-muted" transform="translate(0,32)">
  <rect style="opacity:0.001" width="32" height="32" x="0" y="-32"/>
  <g transform="translate(1,-32)">
   <path style="fill:#9c85f5" d="M 14.999,2 7,10.002 H 1 v 12 H 7 L 14.999,30 Z"/>
   <path style="opacity:0.2;fill:#dfdfdf" d="M 14.998,2 7,10.002 H 1 v 1 H 7 L 14.998,3 Z"/>
   <path style="opacity:0.2" d="m 1,22.002 v 1 H 7 L 14.998,31 V 30 L 7,22.002 Z"/>
   <circle style="fill:#db3c30" cx="18" cy="24" r="7"/>
   <path style="opacity:0.2" d="M 24.977,24.459 A 7,7 0 0 1 18,31 7,7 0 0 1 11.023,24.541 7,7 0 0 0 11,25 a 7,7 0 0 0 7,7 7,7 0 0 0 7,-7 7,7 0 0 0 -0.02344,-0.54102 z"/>
   <g style="fill:#dfdfdf" transform="matrix(0.70711,-0.70711,0.70711,0.70711,-15.941,24)">
    <rect style="fill:#ffffff" width="8" height="2" x="20" y="23"/>
    <rect style="fill:#ffffff" width="8" height="2" x="20" y="-25" transform="rotate(90)"/>
   </g>
  </g>
 </g>
 <g id="audio-volume-medium" transform="translate(64,32)">
  <rect style="opacity:0.001" width="32" height="32" x="0" y="-32"/>
  <g transform="translate(1,-32)">
   <path style="fill:#9c85f5" d="M 14.999,2 7,10.002 H 1 v 12 H 7 L 14.999,30 Z"/>
   <path style="opacity:0.2;fill:#9c85f5" d="m 18.999,2 v 3 c 4.64,1.48 8,5.86 8,11 0,5.14 -3.36,9.52 -8,11 v 3 c 6.3,-1.56 11,-7.2 11,-14 0,-6.8 -4.7,-12.44 -11,-14 z"/>
   <path style="fill:#9c85f5" d="m 18.999,10 v 12 c 2.12,-1.16 3.582,-3.4 3.582,-6 0,-2.6 -1.442,-4.84 -3.582,-6 z"/>
   <path style="opacity:0.2;fill:#dfdfdf" d="M 14.998,2 7,10.002 H 1 v 1 H 7 L 14.998,3 Z"/>
   <path style="opacity:0.2;fill:#dfdfdf" d="m 18.998,10 v 1 c 2,1.084 3.374,3.117 3.547,5.5 0.012,-0.167 0.035,-0.33 0.035,-0.5 0,-2.6 -1.442,-4.84 -3.582,-6 z"/>
   <path style="opacity:0.2" d="m 1,22.002 v 1 H 7 L 14.998,31 V 30 L 7,22.002 Z"/>
   <path style="opacity:0.2" d="m 22.545,16.5 c -0.17529,2.3834 -1.5653,4.4158 -3.5469,5.5 v 1 c 2.12,-1.16 3.582,-3.4 3.582,-6 0,-0.16981 -0.02306,-0.33346 -0.03516,-0.5 z"/>
  </g>
 </g>
 <g id="audio-volume-high" transform="translate(96,32)">
  <rect style="opacity:0.001" width="32" height="32" x="0" y="-32"/>
  <g transform="translate(1,-32)">
   <path style="fill:#9c85f5" d="M 14.999,2 7,10.002 H 1 v 12 H 7 L 14.999,30 Z"/>
   <path style="fill:#9c85f5" d="m 18.999,2 v 3 c 4.64,1.48 8,5.86 8,11 0,5.14 -3.36,9.52 -8,11 v 3 c 6.3,-1.56 11,-7.2 11,-14 0,-6.8 -4.7,-12.44 -11,-14 z"/>
   <path style="fill:#9c85f5" d="m 18.999,10 v 12 c 2.12,-1.16 3.582,-3.4 3.582,-6 0,-2.6 -1.442,-4.84 -3.582,-6 z"/>
   <path style="opacity:0.2;fill:#dfdfdf" d="M 14.998,2 7,10.002 H 1 v 1 H 7 L 14.998,3 Z"/>
   <path style="opacity:0.2;fill:#dfdfdf" d="m 18.998,2 v 1 c 6.144,1.5213 10.753,6.9266 10.979,13.5 0.005,-0.167 0.021,-0.331 0.021,-0.5 0,-6.8 -4.7,-12.44 -11,-14 z m 7.981,14.5 c -0.211,4.922 -3.493,9.068 -7.981,10.5 v 1 c 4.64,-1.48 8,-5.86 8,-11 0,-0.168 -0.012,-0.334 -0.019,-0.5 z"/>
   <path style="opacity:0.2;fill:#dfdfdf" d="m 18.998,10 v 1 c 2,1.084 3.374,3.117 3.547,5.5 0.012,-0.167 0.035,-0.33 0.035,-0.5 0,-2.6 -1.442,-4.84 -3.582,-6 z"/>
   <path style="opacity:0.2" d="m 1,22.002 v 1 H 7 L 14.998,31 V 30 L 7,22.002 Z"/>
   <path style="opacity:0.2" d="m 18.998,5 v 1 c 4.4882,1.4316 7.77,5.5785 7.9805,10.5 0.0071,-0.16646 0.01953,-0.33183 0.01953,-0.5 0,-5.14 -3.36,-9.52 -8,-11 z M 29.977,16.5 C 29.751,23.073 25.142,28.479 18.998,30 v 1 c 6.3,-1.56 11,-7.2 11,-14 0,-0.16868 -0.01575,-0.33279 -0.02148,-0.5 z"/>
   <path style="opacity:0.2" d="m 22.545,16.5 c -0.17529,2.3834 -1.5653,4.4158 -3.5469,5.5 v 1 c 2.12,-1.16 3.582,-3.4 3.582,-6 0,-0.16981 -0.02306,-0.33346 -0.03516,-0.5 z"/>
  </g>
 </g>
</svg>
