<svg xmlns="http://www.w3.org/2000/svg" width="32" height="32" version="1" viewBox="0 0 32 32">
 <g id="22-22-battery-ups" transform="translate(255.46001,-426.5)">
  <rect style="opacity:0.00100002" width="22" height="22" x="192.54" y="404.5"/>
  <path style="fill:#dfdfdf" d="m 197.53573,408.50504 v 15 h 12 v -15 c 0.0768,-1.06936 -1,-1 -1,-1 h -10 c 0,0 -1,-0.004 -1,1 z m 6,1 v 3 h 2 l -2,5 v -3 h -2 z m -4,10 h 1 v 2 h -1 z m 2,0 h 1 v 2 h -1 z m 2,0 h 1 v 2 h -1 z m 3,0 c 0.55229,0 1,0.44772 1,1 0,0.55228 -0.44771,1 -1,1 -0.55229,0 -1,-0.44772 -1,-1 0,-0.55228 0.44771,-1 1,-1 z"/>
 </g>
 <g id="22-22-Battery" transform="translate(-214.53999,-404.5)">
  <rect style="opacity:0.00100002" width="22" height="22" x="-404.5" y="214.54" transform="rotate(-90)"/>
  <path style="fill:#dfdfdf" d="m 219.53573,401.50505 h 3 6 3 v -3 -11 -1 h -3 -0.99999 v -0.5 c 0,-0.277 -0.223,-0.5 -0.5,-0.5 h -3 c -0.277,0 -0.5,0.777 -0.5,0.5 v 0.5 h -1.00001 -3 v 1 12 z m 2,-2 v -11 h 2.50001 3 2.49999 v 11 z"/>
 </g>
 <g id="22-22-Fill100" transform="translate(-182.53999,-404.5)">
  <rect style="opacity:0.00100002" width="22" height="22" x="-404.5" y="214.54" transform="rotate(-90)"/>
  <path style="fill:#dfdfdf;fill-rule:evenodd" d="m 230.53575,400.50504 h -10 v -13 h 10 z"/>
 </g>
 <g id="22-22-Fill90" transform="translate(-150.53999,-404.5)">
  <rect style="opacity:0.00100002" width="22" height="22" x="-404.5" y="214.54" transform="rotate(-90)"/>
  <path style="fill:#dfdfdf;fill-rule:evenodd" d="m 230.53575,400.50504 h -10 v -11 h 10 z"/>
 </g>
 <g id="22-22-Fill80" transform="translate(-118.53999,-404.5)">
  <rect style="opacity:0.00100002" width="22" height="22" x="-404.5" y="214.54" transform="rotate(-90)"/>
  <path style="fill:#dfdfdf;fill-rule:evenodd" d="m 230.53575,400.50504 h -10 v -10 h 10 z"/>
 </g>
 <g id="22-22-Fill70" transform="translate(-86.539993,-404.5)">
  <rect style="opacity:0.00100002" width="22" height="22" x="-404.5" y="214.54" transform="rotate(-90)"/>
  <path style="fill:#dfdfdf;fill-rule:evenodd" d="m 230.53575,400.50504 h -10 v -9 h 10 z"/>
 </g>
 <g id="22-22-Fill60" transform="translate(-54.539993,-404.5)">
  <rect style="opacity:0.00100002" width="22" height="22" x="-404.5" y="214.54" transform="rotate(-90)"/>
  <path style="fill:#dfdfdf;fill-rule:evenodd" d="m 230.53575,400.50504 h -10 v -8 h 10 z"/>
 </g>
 <g id="22-22-Fill50" transform="translate(-22.539993,-404.5)">
  <rect style="opacity:0.00100002" width="22" height="22" x="-404.5" y="214.54" transform="rotate(-90)"/>
  <path style="fill:#dfdfdf;fill-rule:evenodd" d="m 230.53575,400.50504 h -10 v -7 h 10 z"/>
 </g>
 <g id="22-22-Fill40" transform="translate(9.4600067,-404.5)">
  <rect style="opacity:0.00100002" width="22" height="22" x="-404.5" y="214.54" transform="rotate(-90)"/>
  <path style="fill:#dfdfdf;fill-rule:evenodd" d="m 230.53575,400.50504 h -10 v -6 h 10 z"/>
 </g>
 <g id="22-22-Fill30" transform="translate(41.460007,-404.5)">
  <rect style="opacity:0.00100002" width="22" height="22" x="-404.5" y="214.54" transform="rotate(-90)"/>
  <path style="fill:#dfdfdf;fill-rule:evenodd" d="m 230.53574,400.50504 h -10 v -5 h 10 z"/>
 </g>
 <g id="22-22-Fill20" transform="translate(73.460007,-404.5)">
  <rect style="opacity:0.00100002" width="22" height="22" x="-404.5" y="214.54" transform="rotate(-90)"/>
  <path style="fill:#dfdfdf;fill-rule:evenodd" d="m 230.53575,400.50504 h -10 v -4 h 10 z"/>
 </g>
 <g id="22-22-Fill10" transform="translate(105.46001,-404.5)">
  <rect style="opacity:0.00100002" width="22" height="22" x="-404.5" y="214.54" transform="rotate(-90)"/>
  <path style="fill:#5294e2" d="M 229.5,3 C 229.223,3 229,3.777 229,3.5 V 4 h -1 -3 v 1 12 2 h 3 6 3 V 16 5 4 h -3 -1 V 3.5 C 233,3.223 232.777,3 232.5,3 Z M 227,6 h 2.5 3 2.5 v 9 h -8 z" transform="translate(-5.46425,382.50504)"/>
 </g>
 <g id="22-22-Fill0" transform="translate(137.46001,-404.5)">
  <rect style="opacity:0.00100002" width="22" height="22" x="-404.5" y="214.54" transform="rotate(-90)"/>
  <path style="fill:#5294e2" d="m 219.53573,401.50505 h 3 6 3 v -3 -11 -1 h -3 -0.99999 v -0.5 c 0,-0.277 -0.223,-0.5 -0.5,-0.5 h -3 c -0.277,0 -0.5,0.777 -0.5,0.5 v 0.5 h -1.00001 -3 v 1 12 z m 2,-2 v -11 h 2.50001 3 2.49999 v 11 z"/>
 </g>
 <g id="22-22-Unavailable" transform="translate(213.46001,-426.5)">
  <rect style="opacity:0.00100002" width="22" height="22" x="-426.5" y="170.54" transform="rotate(-90)"/>
  <g>
   <rect style="fill:#5294e2" width="10" height="10" x="181.54" y="415.5" ry="1"/>
   <path style="fill:#ffffff" d="m 188.65704,416.96951 -2.12132,2.12132 -2.12132,-2.12132 -1.41421,1.41421 2.12132,2.12132 -2.12132,2.12132 1.41421,1.41421 2.12132,-2.12132 2.12132,2.12132 1.41421,-1.41421 -2.12132,-2.12132 2.12132,-2.12132 z"/>
  </g>
 </g>
 <g id="22-22-AcAdapter" transform="translate(482)">
  <rect style="opacity:0.00100002" width="22" height="22" x="0" y="-66" transform="rotate(-90)"/>
  <path style="fill:#5294e2;fill-rule:evenodd" d="m -55,-15 v 3 h 2 l -2,5 v -3 h -2 z"/>
 </g>
 <g id="Fill100">
  <rect style="opacity:0.00100002" width="32" height="32" x="32" y="0" rx="2.092" ry="1.491"/>
  <path style="opacity:0.2" d="m 40,9 v 5 H 56 V 9 Z m 0,7 v 5 h 16 v -5 z m 0,7 v 5 h 16 v -5 z"/>
  <path style="fill:#c0f957" d="m 40,8 v 5 H 56 V 8 Z m 0,7 v 5 h 16 v -5 z m 0,7 v 5 h 16 v -5 z"/>
  <path style="opacity:0.2;fill:#ffffff" d="M 40,8 V 9 H 56 V 8 Z m 0,7 v 1 h 16 v -1 z m 0,7 v 1 h 16 v -1 z"/>
  <rect width="16" height="9" x="47" y="23" rx="2" ry="2" style="opacity:0.2"/>
  <rect style="fill:#4671e6" width="16" height="9" x="47" y="22" rx="2" ry="2"/>
  <path d="m 50,24 v 1 h -1 v 1 h 1 v 3 h 1 v -5 z" style="fill:#ffffff"/>
  <path d="m 53,24 v 1 1 1 2 h 1 2 v -1 -2 -2 h -2 z m 1,1 h 1 v 2 1 h -1 v -1 -1 z" style="fill:#ffffff"/>
  <path style="fill:#ffffff" d="m 58,24 v 1 1 1 2 h 1 2 v -1 -2 -2 h -2 z m 1,1 h 1 v 2 1 h -1 v -1 -1 z"/>
 </g>
 <g id="Fill90">
  <rect width="32" height="32" x="64" y="0" rx="2.092" ry="1.491" style="opacity:0.00100002"/>
  <path d="m 72,9 v 5 H 88 V 9 Z m 0,7 v 5 h 16 v -5 z m 0,7 v 5 h 16 v -5 z" style="opacity:0.2"/>
  <path d="m 72,8 v 5 H 88 V 8 Z m 0,7 v 5 h 16 v -5 z m 0,7 v 5 h 16 v -5 z" style="fill:#c0f957"/>
  <path d="M 72,8 V 9 H 88 V 8 Z m 0,7 v 1 h 16 v -1 z m 0,7 v 1 h 16 v -1 z" style="opacity:0.2;fill:#ffffff"/>
  <rect style="opacity:0.2" width="12" height="9" x="83" y="23" rx="2" ry="2"/>
  <rect width="12" height="9" x="83" y="22" rx="2" ry="2" style="fill:#4671e6"/>
  <path d="m 90,24 v 1 1 1 2 h 1 2 v -1 -2 -2 h -2 z m 1,1 h 1 v 2 1 h -1 v -1 -1 z" style="fill:#ffffff"/>
  <path style="fill:#ffffff" d="m 85,24 v 1 1 1 h 1 1 v 1 h -2 v 1 h 3 v -1 -1 -1 -2 h -2 z m 1,1 h 1 v 1 h -1 z"/>
 </g>
 <g id="Fill80">
  <rect style="opacity:0.00100002" width="32" height="32" x="96" y="0" rx="2.092" ry="1.491"/>
  <path style="opacity:0.2" d="m 104,9 v 5 h 16 V 9 Z m 0,7 v 5 h 16 v -5 z m 0,7 v 5 h 16 v -5 z"/>
  <path style="fill:#c0f957" d="m 104,8 v 5 h 16 V 8 Z m 0,7 v 5 h 16 v -5 z m 0,7 v 5 h 16 v -5 z"/>
  <path style="opacity:0.2;fill:#ffffff" d="m 104,8 v 1 h 16 V 8 Z m 0,7 v 1 h 16 v -1 z m 0,7 v 1 h 16 v -1 z"/>
  <rect width="12" height="9" x="115" y="23" rx="2" ry="2" style="opacity:0.2"/>
  <rect style="fill:#4671e6" width="12" height="9" x="115" y="22" rx="2" ry="2"/>
  <path style="fill:#ffffff" d="m 122,24 v 1 1 1 2 h 1 2 v -1 -2 -2 h -2 z m 1,1 h 1 v 2 1 h -1 v -1 -1 z"/>
  <path d="m 117,24 v 1 2 2 h 1 1 1 v -1 -1 -1 -2 h -2 z m 1,1 h 1 v 1 h -1 z m 0,2 h 1 v 1 h -1 z" style="fill:#ffffff"/>
 </g>
 <g id="Fill70">
  <rect style="opacity:0.00100002" width="32" height="32" x="128" y="0" rx="2.092" ry="1.491"/>
  <path style="opacity:0.2" d="m 136,9 v 5 h 16 V 9 Z m 0,7 v 5 h 16 v -5 z m 0,7 v 5 h 16 v -5 z"/>
  <path style="fill:#c0f957" d="m 136,8 v 5 h 16 V 8 Z m 0,7 v 5 h 16 v -5 z m 0,7 v 5 h 16 v -5 z"/>
  <path style="opacity:0.2;fill:#ffffff" d="m 136,8 v 1 h 16 V 8 Z m 0,7 v 1 h 16 v -1 z m 0,7 v 1 h 16 v -1 z"/>
  <rect width="12" height="9" x="147" y="23" rx="2" ry="2" style="opacity:0.2"/>
  <rect style="fill:#4671e6" width="12" height="9" x="147" y="22" rx="2" ry="2"/>
  <path style="fill:#ffffff" d="m 154,24 v 1 1 1 2 h 1 2 v -1 -2 -2 h -2 z m 1,1 h 1 v 2 1 h -1 v -1 -1 z"/>
  <path d="m 149.00003,23.999995 v 0.996109 h 1.94336 l -0.92968,3.766537 0.97265,0.237354 0.98242,-3.984436 -0.0801,-0.01945 H 152 V 24 Z" style="fill:#ffffff"/>
 </g>
 <g id="Fill20">
  <rect width="32" height="32" x="288" y="0" rx="2.092" ry="1.491" style="opacity:0.00100002"/>
  <path d="m 296,23 v 5 h 16 v -5 z" style="opacity:0.2"/>
  <path d="m 296,22 v 5 h 16 v -5 z" style="fill:#c0f957"/>
  <path d="m 296,22 v 1 h 16 v -1 z" style="opacity:0.2;fill:#ffffff"/>
  <rect style="opacity:0.2" width="12" height="9" x="307" y="23" rx="2" ry="2"/>
  <rect width="12" height="9" x="307" y="22" rx="2" ry="2" style="fill:#4671e6"/>
  <path d="m 314,24 v 1 1 1 2 h 1 2 v -1 -2 -2 h -2 z m 1,1 h 1 v 2 1 h -1 v -1 -1 z" style="fill:#ffffff"/>
  <path d="m 309,24 v 1 h 2 v 1 h -1 -1 v 1 2 h 1 2 v -1 h -2 v -1 h 1 1 v -1 -1 -1 h -1 z" style="fill:#ffffff"/>
 </g>
 <g id="Fill30">
  <rect style="opacity:0.00100002" width="32" height="32" x="256" y="0" rx="2.092" ry="1.491"/>
  <path style="opacity:0.2" d="m 264,23 v 5 h 16 v -5 z"/>
  <path style="fill:#c0f957" d="m 264,22 v 5 h 16 v -5 z"/>
  <path style="opacity:0.2;fill:#ffffff" d="m 264,22 v 1 h 16 v -1 z"/>
  <rect width="12" height="9" x="275" y="23" rx="2" ry="2" style="opacity:0.2"/>
  <rect style="fill:#4671e6" width="12" height="9" x="275" y="22" rx="2" ry="2"/>
  <path style="fill:#ffffff" d="m 282,24 v 1 1 1 2 h 1 2 v -1 -2 -2 h -2 z m 1,1 h 1 v 2 1 h -1 v -1 -1 z"/>
  <path d="m 277,24 v 1 h 2 v 1 h -2 v 1 h 2 v 1 h -2 v 1 h 3 v -1 -1 -1 -1 -1 h -1 z" style="fill:#ffffff"/>
 </g>
 <g id="Fill40">
  <rect style="opacity:0.00100002" width="32" height="32" x="224" y="0" rx="2.092" ry="1.491"/>
  <path style="opacity:0.2" d="m 232,16 v 5 h 16 v -5 z m 0,7 v 5 h 16 v -5 z"/>
  <path style="fill:#c0f957" d="m 232,15 v 5 h 16 v -5 z m 0,7 v 5 h 16 v -5 z"/>
  <path style="opacity:0.2;fill:#ffffff" d="m 232,15 v 1 h 16 v -1 z m 0,7 v 1 h 16 v -1 z"/>
  <rect width="12" height="9" x="243" y="23" rx="2" ry="2" style="opacity:0.2"/>
  <rect style="fill:#4671e6" width="12" height="9" x="243" y="22" rx="2" ry="2"/>
  <path style="fill:#ffffff" d="m 250,24 v 1 1 1 2 h 1 2 v -1 -2 -2 h -2 z m 1,1 h 1 v 2 1 h -1 v -1 -1 z"/>
  <path d="m 245,24 v 2 1 h 1 1 v 2 h 1 v -5 h -1 v 2 h -1 v -2 z" style="fill:#ffffff"/>
 </g>
 <g id="Fill50">
  <rect width="32" height="32" x="192" y="0" rx="2.092" ry="1.491" style="opacity:0.00100002"/>
  <path d="m 200,16 v 5 h 16 v -5 z m 0,7 v 5 h 16 v -5 z" style="opacity:0.2"/>
  <path d="m 200,15 v 5 h 16 v -5 z m 0,7 v 5 h 16 v -5 z" style="fill:#c0f957"/>
  <path d="m 200,15 v 1 h 16 v -1 z m 0,7 v 1 h 16 v -1 z" style="opacity:0.2;fill:#ffffff"/>
  <rect style="opacity:0.2" width="12" height="9" x="211" y="23" rx="2" ry="2"/>
  <rect width="12" height="9" x="211" y="22" rx="2" ry="2" style="fill:#4671e6"/>
  <path d="m 218,24 v 1 1 1 2 h 1 2 v -1 -2 -2 h -2 z m 1,1 h 1 v 2 1 h -1 v -1 -1 z" style="fill:#ffffff"/>
  <path d="m 213,24 v 1 2 h 1 1 v 1 h -2 v 1 h 2 1 v -1 -1 -1 h -1 -1 v -1 h 2 v -1 h -2 z" style="fill:#ffffff"/>
 </g>
 <g id="Fill60">
  <rect width="32" height="32" x="160" y="0" rx="2.092" ry="1.491" style="opacity:0.00100002"/>
  <path d="m 168,16 v 5 h 16 v -5 z m 0,7 v 5 h 16 v -5 z" style="opacity:0.2"/>
  <path d="m 168,15 v 5 h 16 v -5 z m 0,7 v 5 h 16 v -5 z" style="fill:#c0f957"/>
  <path d="m 168,15 v 1 h 16 v -1 z m 0,7 v 1 h 16 v -1 z" style="opacity:0.2;fill:#ffffff"/>
  <rect style="opacity:0.2" width="12" height="9" x="179" y="23" rx="2" ry="2"/>
  <rect width="12" height="9" x="179" y="22" rx="2" ry="2" style="fill:#4671e6"/>
  <path d="m 186,24 v 1 1 1 2 h 1 2 v -1 -2 -2 h -2 z m 1,1 h 1 v 2 1 h -1 v -1 -1 z" style="fill:#ffffff"/>
  <path d="m 181,24 v 1 2 2 h 1 1 1 v -1 -1 -1 h -1 -1 v -1 h 2 v -1 h -2 z m 1,3 h 1 v 1 h -1 z" style="fill:#ffffff"/>
 </g>
 <g id="Fill10">
  <rect style="opacity:0.00100002" width="32" height="32" x="320" y="0" rx="2.092" ry="1.491"/>
  <path style="opacity:0.2" d="m 328,23 v 5 h 16 v -5 z"/>
  <path style="fill:#db3c30" d="m 328,22 v 5 h 16 v -5 z"/>
  <path style="opacity:0.1;fill:#ffffff" d="m 328,22 v 1 h 16 v -1 z"/>
  <rect width="11" height="9" x="340" y="23" rx="2" ry="2" style="opacity:0.2"/>
  <rect style="fill:#4671e6" width="11" height="9" x="340" y="22" rx="2" ry="2"/>
  <path style="fill:#ffffff" d="m 346,24 v 1 1 1 2 h 1 2 v -1 -2 -2 h -2 z m 1,1 h 1 v 2 1 h -1 v -1 -1 z"/>
  <path d="m 343,24 v 1 h -1 v 1 h 1 v 3 h 1 v -5 z" style="fill:#ffffff"/>
 </g>
 <g id="Fill0" transform="translate(352)">
  <rect width="32" height="32" x="0" y="0" style="opacity:0.001"/>
  <g>
   <rect width="16" height="16" x="-32" y="-31" rx="8" ry="8" transform="matrix(0,-1,-1,0,0,0)" style="opacity:0.2"/>
   <rect style="fill:#db3c30" width="16" height="16" x="-31" y="-31" rx="8" ry="8" transform="matrix(0,-1,-1,0,0,0)"/>
   <g transform="matrix(1,0,0,0.76922485,-523,291.07482)">
    <path style="fill:#ffffff" d="m 545,-355 h 2 v 7.80006 h -2 z m 0,10.40008 h 2 v 2.60002 h -2 z"/>
   </g>
  </g>
 </g>
 <g id="Unavailable">
  <rect style="opacity:0.00100002" width="32" height="32" x="384" y="0"/>
  <rect style="opacity:0.2" width="16" height="16" x="399" y="16" rx="2" ry="2"/>
  <rect width="16" height="16" x="399" y="15" rx="2" ry="2" style="fill:#ea4aee"/>
  <g style="fill:#ffffff" transform="matrix(1.2495087,0,0,1.2499635,322.03537,-634.48065)">
   <g style="fill:#ffffff" transform="translate(19,-242)">
    <path style="fill:#ffffff" d="m 45.799685,764.79997 h 0.8 c 0.0083,-10e-5 0.01663,-3.7e-4 0.025,0 0.203961,0.009 0.407896,0.10286 0.55,0.25 l 1.825,1.825 1.85,-1.825 c 0.2125,-0.1844 0.357337,-0.2444 0.55,-0.25 h 0.8 v 0.8 c 0,0.22918 -0.02747,0.44052 -0.2,0.6 l -1.825,1.825 1.8,1.8 c 0.15055,0.15054 0.224993,0.36276 0.225,0.575 v 0.8 h -0.8 c -0.212241,-10e-6 -0.424469,-0.0745 -0.575,-0.225 l -1.825,-1.825 -1.825,1.825 c -0.150531,0.15055 -0.362768,0.225 -0.575,0.225 h -0.8 v -0.8 c -3e-6,-0.21223 0.07445,-0.42446 0.225,-0.575 l 1.825,-1.8 -1.825,-1.825 c -0.168594,-0.1557 -0.242528,-0.3754 -0.225,-0.6 z"/>
   </g>
  </g>
 </g>
 <g id="AcAdapter" transform="translate(416)">
  <rect width="32" height="32" x="0" y="0" style="opacity:0.001"/>
  <g>
   <path d="m 15.941406,9.0020811 a 2.0002,2.0002 0 0 0 -1.730468,1.1035159 l -4,8 A 2.0002,2.0002 0 0 0 12,21.000128 h 2 v 2 a 2.0002,2.0002 0 0 0 3.789062,0.894531 l 4,-8 A 2.0002,2.0002 0 0 0 20,13.000128 h -2 v -2 A 2.0002,2.0002 0 0 0 15.941406,9.0020811 Z" style="opacity:0.2"/>
   <path style="fill:#ff9d0e" d="m 15.941406,8.0019531 a 2.0002,2.0002 0 0 0 -1.730468,1.1035157 l -4,8.0000002 A 2.0002,2.0002 0 0 0 12,20 h 2 v 2 a 2.0002,2.0002 0 0 0 3.789062,0.894531 l 4,-8 A 2.0002,2.0002 0 0 0 20,12 H 18 V 10 A 2.0002,2.0002 0 0 0 15.941406,8.0019531 Z"/>
   <path d="m 16,11.000128 v 4 h 4 l -4,8 v -4 h -4 z" style="opacity:0.2"/>
   <path style="fill:#ffffff" d="m 16,10 v 4 h 4 l -4,8 v -4 h -4 z"/>
  </g>
 </g>
 <g id="Battery">
  <rect style="opacity:0.00100002" width="32" height="32" x="0" y="0" rx="2.092" ry="1.491"/>
  <g>
   <path d="m 6.375,6 h 19.25 C 26.38675,6 27,6.5575 27,7.25 v 22.5 C 27,30.4425 26.38675,31 25.625,31 H 6.375 C 5.61325,31 5,30.4425 5,29.75 V 7.25 C 5,6.5575 5.61325,6 6.375,6 Z" style="opacity:0.2"/>
   <path d="m 6.375,5 h 19.25 C 26.38675,5 27,5.5575 27,6.25 v 22.5 C 27,29.4425 26.38675,30 25.625,30 H 6.375 C 5.61325,30 5,29.4425 5,28.75 V 6.25 C 5,5.5575 5.61325,5 6.375,5 Z" style="fill:#4f4f4f"/>
   <rect width="14" height="3" x="9" y="2" style="fill:#8e8e8e"/>
   <path d="m 8,8 v 5 H 24 V 8 Z m 0,7 v 5 h 16 v -5 z m 0,7 v 5 h 16 v -5 z" style="opacity:0.35"/>
   <path d="M 9,2 V 3 H 23 V 2 Z" style="opacity:0.2;fill:#ffffff"/>
  </g>
 </g>
 <g id="battery-ups" transform="translate(448)">
  <rect width="32" height="32" x="0" y="0" rx="2.092" ry="1.491" style="opacity:0.00100002"/>
  <path style="opacity:0.2" d="m 5.5,3 h 21 C 27.331,3 28,3.6244 28,4.4 V 29.6 C 28,30.3756 27.331,31 26.5,31 H 5.5 C 4.669,31 4,30.3756 4,29.6 V 4.4 C 4,3.6244 4.669,3 5.5,3 Z"/>
  <path d="m 5.5,2 h 21 C 27.331,2 28,2.6244 28,3.4 V 28.6 C 28,29.3756 27.331,30 26.5,30 H 5.5 C 4.669,30 4,29.3756 4,28.6 V 3.4 C 4,2.6244 4.669,2 5.5,2 Z" style="fill:#4f4f4f"/>
  <path d="m 16,11.000128 v 4 h 4 l -4,8 v -4 h -4 z" style="opacity:0.2"/>
  <path style="fill:#ffffff" d="m 16,10 v 4 h 4 l -4,8 v -4 h -4 z"/>
  <path d="M 5.5,2 C 4.669,2 4,2.6247906 4,3.4003906 v 1 C 4,3.6247906 4.669,3 5.5,3 h 21 C 27.331,3 28,3.6247906 28,4.4003906 v -1 C 28,2.6247906 27.331,2 26.5,2 Z" style="opacity:0.1;fill:#ffffff"/>
  <circle style="opacity:0.2" cx="24.5" cy="27.5" r="1.5"/>
  <circle cx="24.5" cy="26.5" r="1.5" style="fill:#c0f957"/>
  <circle cx="20.5" cy="27.5" r="1.5" style="opacity:0.2"/>
  <circle style="fill:#df4e43" cx="20.5" cy="26.5" r="1.5"/>
  <rect width="20" height="1" x="6" y="3" style="opacity:0.3"/>
  <rect style="opacity:0.3" width="20" height="1" x="6" y="5"/>
  <rect width="20" height="1" x="6" y="7" style="opacity:0.3"/>
 </g>
</svg>
