<svg xmlns="http://www.w3.org/2000/svg" width="32" height="32" version="1.1">
 <g id="22-22-jami" transform="translate(32,10)">
  <rect style="opacity:0.001" width="22" height="22" x="0" y="0"/>
  <path style="opacity:0.3;fill:#dfdfdf" d="M 8.09375,3.5878906 C 7.9151703,3.5977516 7.7399642,3.645971 7.5800781,3.7382812 L 6.4257812,4.40625 C 5.7862371,4.775491 5.6271125,5.6913394 6.0703125,6.4589844 L 8.6933594,11 11.001953,7 9.5351562,4.4589844 C 9.2027562,3.8832507 8.6294892,3.5583077 8.09375,3.5878906 Z M 13.310547,11 l -2.308594,4 1.46875,2.542969 c 0.4432,0.767645 1.315534,1.087991 1.955078,0.71875 l 1.154297,-0.666016 c 0.639544,-0.369241 0.796716,-1.285089 0.353516,-2.052734 z"/>
  <rect style="opacity:0.6;fill:#dfdfdf" width="4" height="16" x="-17.03" y="-3.97" rx="1.333" ry="1.6" transform="matrix(-0.8660254,-0.5,-0.5,0.8660254,0,0)"/>
  <rect style="fill:#dfdfdf" width="4" height="16" x="-13" y="-19" rx="1.333" ry="1.6" transform="matrix(0,-1,-1,0,0,0)"/>
 </g>
 <g id="jami">
  <rect style="opacity:0.001" width="32" height="32" x="0" y="0"/>
  <g transform="translate(0,0.01873684)">
   <rect style="opacity:0.2" width="8" height="30" x="1.36" y="7.72" rx="2.667" ry="3" transform="rotate(-30)"/>
   <rect style="fill:#115090" width="8" height="30" x="1.86" y="6.86" rx="2.667" ry="3" transform="rotate(-30)"/>
   <rect style="opacity:0.2" width="8" height="30" x="-26.36" y="-8.28" rx="2.667" ry="3" transform="matrix(-0.8660254,-0.5,-0.5,0.8660254,0,0)"/>
   <path style="opacity:0.1;fill:#ffffff" d="M 10.671875,2.0273438 C 10.319693,2.0558471 9.9741489,2.1590833 9.6542969,2.34375 L 7.3457031,3.6757812 C 6.3834288,4.2313506 5.9415616,5.3617411 6.1347656,6.5 6.2582147,5.7403346 6.6705652,5.0655723 7.3457031,4.6757812 L 9.6542969,3.34375 C 10.933705,2.6050833 12.633844,3.1680877 13.464844,4.6074219 l 12,20.7851561 c 0.205979,0.356766 0.336715,0.7323 0.40039,1.107422 0.110491,-0.679925 -0.0079,-1.427618 -0.40039,-2.107422 l -12,-20.7851561 C 12.841594,2.5279212 11.72842,1.9418337 10.671875,2.0273438 Z"/>
   <rect style="fill:#0c7ace" width="8" height="30" x="-25.86" y="-9.14" rx="2.667" ry="3" transform="matrix(-0.8660254,-0.5,-0.5,0.8660254,0,0)"/>
   <path style="opacity:0.1;fill:#ffffff" d="M 21.328125,2.0273438 C 20.27158,1.9418337 19.158406,2.5279212 18.535156,3.6074219 L 6.5351562,24.392578 C 6.1426712,25.072382 6.0242747,25.820075 6.1347656,26.5 6.1984413,26.124878 6.3291774,25.749344 6.5351562,25.392578 L 18.535156,4.6074219 c 0.831,-1.4393342 2.531139,-2.0023386 3.810547,-1.2636719 l 2.308594,1.3320312 C 25.329435,5.0655723 25.741785,5.7403346 25.865234,6.5 26.058438,5.3617411 25.616571,4.2313506 24.654297,3.6757812 L 22.345703,2.34375 C 22.025851,2.1590833 21.680307,2.0558471 21.328125,2.0273438 Z"/>
   <rect style="opacity:0.2" width="8" height="30" x="-21" y="-31" rx="2.667" ry="3" transform="matrix(0,-1,-1,0,0,0)"/>
   <rect style="fill:#00a8ec" width="8" height="30" x="-20" y="-31" rx="2.667" ry="3" transform="matrix(0,-1,-1,0,0,0)"/>
   <path style="opacity:0.2;fill:#ffffff" d="m 4,12 c -1.662,0 -3,1.188682 -3,2.666016 v 1 C 1,14.188682 2.338,13 4,13 h 24 c 1.662,0 3,1.188682 3,2.666016 v -1 C 31,13.188682 29.662,12 28,12 Z"/>
  </g>
 </g>
</svg>
