<svg xmlns="http://www.w3.org/2000/svg" width="32" height="32" version="1.1">
 <g id="22-22-knotes">
  <path style="opacity:0.001" d="m 32,10 h 22 c 0,0 0,0 0,0 v 22 c 0,0 0,0 0,0 H 32 c 0,0 0,0 0,0 V 10 c 0,0 0,0 0,0 z"/>
  <path style="fill:#dfdfdf" d="M 36.933594 13 C 36.000254 13 36 14.230469 36 14.230469 L 36 27.769531 C 36 27.769531 36.000254 29 36.933594 29 L 44 29 L 50 23 L 50 14.230469 C 50 12.999699 49.066406 13 49.066406 13 L 36.933594 13 z M 38 16 L 48 16 L 48 18 L 38 18 L 38 16 z M 38 20 L 48 20 L 48 22 L 38 22 L 38 20 z M 38 24 L 44 24 L 44 26 L 38 26 L 38 24 z"/>
 </g>
 <g id="knotes">
  <rect style="opacity:0.001" width="32" height="32" x="0" y="0"/>
  <g>
   <path style="opacity:0.2" d="M 4,3 C 4,3 2,3 2,5 V 29 C 2,31 4,31 4,31 H 20 L 30,21 V 5 C 30,3 28,3 28,3 Z"/>
   <path style="fill:#fecd38" d="M 4,2 C 4,2 2,2 2,4 v 24 c 0,2 2,2 2,2 H 20 L 30,20 V 4 C 30,2 28,2 28,2 Z"/>
   <path style="fill:#ffe69b" d="M 30,20 H 21.5 C 20.672,20 20,20.672 20,21.5 V 30 Z"/>
   <path style="opacity:0.1;fill:#ffffff" d="M 21.5,20 C 20.672,20 20,20.672 20,21.5 v 1 C 20,21.672 20.672,21 21.5,21 H 29 l 1,-1 z"/>
   <path style="opacity:0.1;fill:#ffffff" d="M 4,2 C 3.169,2 2,3.169 2,4 V 5 C 2,4.169 3.169,3 4,3 h 24 c 0.831,0 2,1.169 2,2 V 4 C 30,3.169 28.831,2 28,2 Z"/>
   <path style="opacity:0.1" d="M 6.375,11 C 5.61325,11 5,11.669 5,12.5 5,13.331 5.61325,14 6.375,14 h 19.25 C 26.38675,14 27,13.331 27,12.5 27,11.669 26.38675,11 25.625,11 Z M 6.363281,16 C 5.6078266,16 5,16.669 5,17.5 5,18.331 5.6078266,19 6.3632812,19 H 18.636719 C 19.392173,19 20,18.331 20,17.5 20,16.669 19.392173,16 18.636719,16 Z m 0.064453,5 C 5.6363059,21 5,21.669 5,22.5 5,23.331 5.6363059,24 6.4277344,24 H 13.572266 C 14.363694,24 15,23.331 15,22.5 15,21.669 14.363694,21 13.572266,21 Z"/>
   <path style="fill:#4f4f4f" d="M 6.375,10 C 5.61325,10 5,10.669 5,11.5 5,12.331 5.61325,13 6.375,13 h 19.25 C 26.38675,13 27,12.331 27,11.5 27,10.669 26.38675,10 25.625,10 Z M 6.363281,15 C 5.6078266,15 5,15.669 5,16.5 5,17.331 5.6078266,18 6.3632812,18 H 18.636719 C 19.392173,18 20,17.331 20,16.5 20,15.669 19.392173,15 18.636719,15 Z m 0.064453,5 C 5.6363059,20 5,20.669 5,21.5 5,22.331 5.6363059,23 6.4277344,23 H 13.572266 C 14.363694,23 15,22.331 15,21.5 15,20.669 14.363694,20 13.572266,20 Z"/>
  </g>
 </g>
</svg>
