<svg xmlns="http://www.w3.org/2000/svg" width="32" height="32" version="1">
 <g id="22-22-krusader_root" transform="translate(32,10)">
  <rect width="22" height="22" x="0" y="0" style="opacity:0.001"/>
  <path d="M 2,7 V 18.111328 C 2,18.604128 2.4014531,19 2.9003906,19 H 11 V 14.95093 L 9.5859375,15.980227 C 9.360073,16.160743 9.0178606,16.006986 9.0175781,15.724367 L 9,9.3337424 C 8.9994429,9.1456248 9.1601408,8.9949188 9.3554688,8.999758 9.4377658,9.001648 9.5167124,9.030966 9.578125,9.083742 L 11,10.195071 V 7 Z" style="fill:#4285f4"/>
  <path d="m 11,7 v 3.195071 l 3.882812,3.035156 c 0.220213,0.188959 0.110367,0.5379 -0.18164,0.578125 l -2.056641,0.285156 0.964844,1.640625 c 0.215456,0.366673 0.08802,0.833225 -0.285156,1.044922 l -0.207031,0.117187 c -0.373182,0.211699 -0.847045,0.08737 -1.0625,-0.279296 L 11.052734,14.911867 11,14.95093 V 19 h 8.101562 C 19.600162,19 20,18.604217 20,18.111328 V 7 Z" style="opacity:0.3;fill:#4285f4"/>
  <path d="M 2.9,3 C 2.40104,3 2,3.3962222 2,3.8886666 V 6 H 20 V 3.8886666 C 20,3.3962222 19.59905,3 19.1,3 Z" style="fill:#4285f4"/>
 </g>
 <g id="krusader_root">
  <rect width="32" height="32" x="0" y="0" style="opacity:0.001"/>
  <path d="M 2,7.9 V 27.611111 C 2,28.381111 2.623875,29 3.4,29 H 28.6007 C 29.3763,29 30,28.38125 30,27.611111 V 7.9 Z" style="opacity:0.2"/>
  <path d="M 2,6.9 V 26.611111 C 2,27.381111 2.623875,28 3.4,28 H 28.6007 C 29.3763,28 30,27.38125 30,26.611111 V 6.9 Z" style="fill:#db4c4c"/>
  <path d="M 16,6.9 V 28 H 28.601367 C 29.376967,28 30,27.38125 30,26.611111 V 6.9 Z" style="opacity:0.2;fill:#ffffff"/>
  <path d="m 3.4,3.0000001 c -0.77616,0 -1.4,0.6190972 -1.4,1.3885416 V 7 H 30 V 4.3885417 C 30,3.6190973 29.3763,3.0000001 28.6,3.0000001 Z" style="fill:#d2bebe"/>
  <path d="m 12.572411,12.000184 c 0.132437,0.0031 0.259428,0.05187 0.358258,0.137637 l 8.537564,6.735175 c 0.354379,0.307059 0.177654,0.876712 -0.292262,0.942077 l -3.310512,0.46369 1.55155,2.665883 c 0.346727,0.595843 0.141279,1.353067 -0.45927,1.697076 l -0.332667,0.191089 c -0.600547,0.344011 -1.363749,0.140172 -1.710476,-0.455672 L 15.303785,21.608364 12.94279,23.50722 c -0.363475,0.293338 -0.914044,0.04235 -0.914498,-0.416921 L 12.000002,12.54405 c -8.97e-4,-0.30569 0.258072,-0.55173 0.572406,-0.543866 z" style="opacity:0.1"/>
  <path d="m 12.572411,11.000184 c 0.132437,0.0031 0.259428,0.05187 0.358258,0.137637 l 8.537564,6.735175 c 0.354379,0.307059 0.177654,0.876712 -0.292262,0.942077 l -3.310512,0.46369 1.55155,2.665883 c 0.346727,0.595843 0.141279,1.353067 -0.45927,1.697076 l -0.332667,0.191089 c -0.600547,0.344011 -1.363749,0.140172 -1.710476,-0.455672 L 15.303785,20.608364 12.94279,22.50722 c -0.363475,0.293338 -0.914044,0.04235 -0.914498,-0.416921 L 12.000002,11.54405 c -8.97e-4,-0.30569 0.258072,-0.55173 0.572406,-0.543866 z" style="fill:#583030"/>
  <rect width="28" height="1" x="2" y="7" style="opacity:0.2"/>
  <path d="M 3.4003906,3 C 2.6242306,3 2,3.6192275 2,4.3886719 v 1 C 2,4.6192275 2.6242306,4 3.4003906,4 H 28.599609 C 29.375909,4 30,4.6192275 30,5.3886719 v -1 C 30,3.6192275 29.375909,3 28.599609,3 Z" style="opacity:0.2;fill:#ffffff"/>
 </g>
</svg>
