<svg xmlns="http://www.w3.org/2000/svg" id="svg16" width="32" height="32" x="0" y="0" version="1.1" viewBox="-2.01 0 32 32">
 <g id="22-22-mellowplayer" transform="translate(32,10)">
  <rect id="rect4549" width="22" height="22" x="-2.01" y="0" style="opacity:0.00100002;fill:#000000;fill-opacity:1;stroke-width:1.69733691"/>
  <path id="circle2" d="m 6.99,3 a 5,5 0 0 0 -5,4.9999999 5,5 0 0 0 0.3046875,1.6875 3,3 0 0 1 2.6953125,-1.6875 3,3 0 0 1 0.00586,0 v -2.595703 c 2.941e-4,0 -0.022612,-0.2663222 0.1855468,-0.3710938 0.202273,-0.1017342 0.3964844,0.060547 0.3964844,0.060547 l 1.96875,1.1699219 A 3,3 0 0 1 9.99,5 3,3 0 0 1 11.142344,5.2324219 5,5 0 0 0 6.99,3 Z m 5.240234,3.0078125 A 3,3 0 0 1 12.99,7.9999999 a 3,3 0 0 1 -0.308594,1.31836 l 2.025391,1.2050781 c 0,0 0.283203,0.139514 0.283203,0.472656 0,0.334053 -0.287109,0.443359 -0.287109,0.443359 l -2.035157,1.208985 A 3,3 0 0 1 12.99,14 3,3 0 0 1 12.232188,15.988281 5,5 0 0 0 16.99,11 5,5 0 0 0 12.230234,6.0078125 Z M 2.2927344,12.302735 A 5,5 0 0 0 1.99,14 a 5,5 0 0 0 5,5 5,5 0 0 0 4.158203,-2.232422 A 3,3 0 0 1 9.99,17 3,3 0 0 1 7.5251562,15.705078 l -2.0605468,1.22461 c 0,0 -0.1399356,0.122228 -0.3183594,0.04297 -0.2037449,-0.0911 -0.1503906,-0.322265 -0.1503906,-0.322265 V 14 a 3,3 0 0 1 -0.00586,0 3,3 0 0 1 -2.697265,-1.697265 z" style="fill:#dfdfdf;fill-opacity:1"/>
  <path id="circle8" d="M 9.99,5 A 3,3 0 0 0 7.5466406,6.265625 l 2.6718754,1.5878909 2.464843,1.466797 A 3,3 0 0 0 12.99,7.9999999 3,3 0 0 0 9.99,5 Z m -5,2.9999999 A 3,3 0 0 0 1.99,11 a 3,3 0 0 0 3,3 3,3 0 0 0 0.00586,0 V 10.982422 7.9999999 a 3,3 0 0 0 -0.00586,0 z m 7.675781,4.6503911 -2.457031,1.458984 -2.6855469,1.595703 A 3,3 0 0 0 9.99,17 a 3,3 0 0 0 3,-3 3,3 0 0 0 -0.324219,-1.349609 z" style="opacity:0.3;fill:#dfdfdf;fill-opacity:1"/>
 </g>
 <g id="mellowplayer">
  <rect id="rect862" width="32" height="32" x="-2.01" y="0" style="opacity:0.00100002;fill:#000000;fill-opacity:1;stroke-width:3.03195095"/>
  <g id="g860" transform="translate(1.1444092e-7,-0.002)">
   <path style="opacity:0.2" id="path819" d="m 9.49,3.002 a 8.5,8.5 0 0 0 -8.5,8.5 8.5,8.5 0 0 0 2.0253906,5.494141 A 8.5,8.5 0 0 0 0.99,22.502 a 8.5,8.5 0 0 0 8.5,8.5 8.5,8.5 0 0 0 8.154297,-6.123047 A 8,8 0 0 0 18.99,25.002 a 8,8 0 0 0 8,-8 8,8 0 0 0 -8,-8 A 8,8 0 0 0 17.642344,9.1172344 8.5,8.5 0 0 0 9.49,3.002 Z"/>
   <circle style="fill:#5f81d4" id="circle821" cx="18.99" cy="16.002" r="8"/>
   <circle style="fill:#5f81d4" id="circle823" cx="9.49" cy="10.502" r="8.5"/>
   <path style="opacity:0.2;fill:#ffffff" id="path825" d="M 11.5,2 A 8.5,8.5 0 0 0 3,10.5 8.5,8.5 0 0 0 3.0214844,10.914062 8.5,8.5 0 0 1 11.5,3 8.5,8.5 0 0 1 19.652344,9.1152344 8,8 0 0 1 21,9 8,8 0 0 1 28.978516,16.576172 8,8 0 0 0 29,16 8,8 0 0 0 21,8 8,8 0 0 0 19.652344,8.1152344 8.5,8.5 0 0 0 11.5,2 Z" transform="translate(-2.01,0.002)"/>
   <circle style="fill:#5f81d4" id="circle827" cx="9.49" cy="21.502" r="8.5"/>
   <path style="opacity:0.2" id="path829" d="m 14.99,7.002 a 5,5 0 0 0 -5,5 5,5 0 0 0 5,5 5,5 0 0 0 5,-5 5,5 0 0 0 -5,-5 z m 0,10 a 5,5 0 0 0 -5,5 5,5 0 0 0 5,5 5,5 0 0 0 5,-5 5,5 0 0 0 -5,-5 z m -9,-5 a 5,5 0 0 0 -5,5 5,5 0 0 0 5,5 5,5 0 0 0 5,-5 5,5 0 0 0 -5,-5 z"/>
   <circle style="fill:#f2f2f2" id="circle831" cx="5.99" cy="16.002" r="5"/>
   <circle style="fill:#f2f2f2" id="circle833" cx="14.99" cy="21.002" r="5"/>
   <circle style="fill:#f2f2f2" id="circle835" cx="14.99" cy="11.002" r="5"/>
   <path style="opacity:0.2" id="path837" d="m 6.3163838,7.0578214 c 0.343864,-0.1695568 0.6742129,0.1012285 0.6742129,0.1012285 l 7.8888333,4.5987991 7.627559,4.451009 c 0,0 0.483011,0.232318 0.483011,0.787555 0,0.556756 -0.487014,0.737954 -0.487014,0.737954 l -7.641074,4.451007 -8.066522,4.698511 c 0,0 -0.2352481,0.206 -0.5385685,0.0739 C 5.910455,26.805941 6.0005507,26.419755 6.0005507,26.419755 V 16.971614 7.6758219 c 5.001e-4,0 -0.038037,-0.4433792 0.3158331,-0.6179985 z"/>
   <path style="fill:#ffbf00" id="path839" d="m 6.3163838,6.0578212 c 0.343864,-0.1695568 0.6742129,0.1012285 0.6742129,0.1012285 l 7.8888333,4.5987993 7.627559,4.451009 c 0,0 0.483011,0.232318 0.483011,0.787555 0,0.556756 -0.487014,0.737954 -0.487014,0.737954 l -7.641074,4.451007 -8.066522,4.698511 c 0,0 -0.2352481,0.206 -0.5385685,0.0739 C 5.910455,25.805941 6.0005507,25.419755 6.0005507,25.419755 V 15.971614 6.6758217 c 5.001e-4,0 -0.038037,-0.4433792 0.3158331,-0.6179985 z"/>
  </g>
 </g>
</svg>
