<svg xmlns="http://www.w3.org/2000/svg" width="32" height="32" version="1.1">
 <g id="22-22-plasmavault_error" transform="translate(32,10)">
  <rect style="opacity:0.001" width="22" height="22" x="0" y="0"/>
  <path style="fill:#4285f4" d="M 4.1425781,3 C 4.1425781,3 3,3.04269 3,4.1855469 V 16.857422 C 3,16.857422 2.9997211,18 4.1425781,18 H 17.857422 C 17.857422,18 19,18.000279 19,16.857422 V 6.171875 C 19,5.0290177 17.857422,5 17.857422,5 H 12.142578 L 9.8574219,3 Z M 10,6 h 2 v 7 h -2 z m 1,8 a 1,1 0 0 1 1,1 1,1 0 0 1 -1,1 1,1 0 0 1 -1,-1 1,1 0 0 1 1,-1 z"/>
 </g>
 <g id="plasmavault_error">
  <rect width="32" height="32" x="0" y="0" style="opacity:0.001"/>
  <rect width="25" height="16" x="3" y="12" rx="1.25" ry="1.25" style="opacity:0.2"/>
  <path d="M 3,21.75 C 3,22.442 3.5575,23 4.25,23 h 22.5 C 27.442,23 28,22.442 28,21.75 V 8.25 C 28,7.5575 27.442,7 26.75,7 H 14 V 6.25 C 14,5.5575 13.443,5 12.75,5 H 4.25 C 3.5575,5 3,5.5575 3,6.25" style="fill:#bf4b4b"/>
  <rect width="25" height="16" x="3" y="10" rx="1.25" ry="1.25" style="opacity:0.2"/>
  <rect width="21" height="10" x="5" y="9" rx="1.25" ry="1.25" style="fill:#e4e4e4"/>
  <rect width="25" height="16" x="3" y="11" rx="1.25" ry="1.25" style="fill:#e25252"/>
  <path d="M 4.25,5 C 3.5575,5 3,5.5575 3,6.25 v 1 C 3,6.5575 3.5575,6 4.25,6 h 8.5 C 13.443,6 14,6.5575 14,7.25 V 8 H 26.75 C 27.442,8 28,8.5575 28,9.25 v -1 C 28,7.5575 27.442,7 26.75,7 H 14 V 6.25 C 14,5.5575 13.443,5 12.75,5 Z" style="opacity:0.1;fill:#ffffff"/>
  <path d="m 15,14 v 7 h 2 v -7 z m 1,8 a 1,1 0 0 0 -1,1 1,1 0 0 0 1,1 1,1 0 0 0 1,-1 1,1 0 0 0 -1,-1 z" style="fill:#4f1d1d"/>
 </g>
</svg>
