<svg xmlns="http://www.w3.org/2000/svg" width="32" height="32" version="1.1">
 <g id="window-pin" transform="translate(124,-20)">
  <rect style="opacity:0.001" width="8" height="8" x="-46" y="44"/>
  <path style="fill:#dfdfdf" d="m -41,44 c -0.389252,0.389252 -0.468353,1.084344 -0.01563,1.84375 l -2.125,1.421875 c -0.264203,-0.106604 -0.547797,-0.186091 -0.828125,-0.1875 C -44.33313,47.076275 -44.6875,47.1875 -45,47.5 l 1.5,1.5 -2,2 -0.5,1 1,-0.5 2,-2 1.5,1.5 c 0.553482,-0.553482 0.482374,-1.253884 0.234375,-1.859375 l 1.421875,-2.125 C -39.084344,47.468353 -38.389252,47.389252 -38,47 Z"/>
 </g>
 <g id="window-unpin" transform="translate(136,-20)">
  <rect style="opacity:0.001" width="8" height="8" x="-66" y="44"/>
  <path style="fill:#4285f4" d="m -61,44 c -0.389252,0.389252 -0.468353,1.084344 -0.01563,1.84375 l -2.125,1.421875 c -0.264203,-0.106604 -0.547797,-0.186091 -0.828125,-0.1875 C -64.33313,47.076275 -64.6875,47.1875 -65,47.5 l 1.5,1.5 -2,2 -0.5,1 1,-0.5 2,-2 1.5,1.5 c 0.553482,-0.553482 0.482374,-1.253884 0.234375,-1.859375 l 1.421875,-2.125 C -59.084344,47.468353 -58.389252,47.389252 -58,47 Z"/>
 </g>
 <g id="22-22-window-close" transform="translate(32,10)">
  <rect style="opacity:0.001" width="22" height="22" x="0" y="0"/>
  <g style="fill:#ffffff" transform="matrix(1.7493122,0,0,1.7499488,-107.95048,-909.47286)">
   <g style="fill:#ffffff" transform="translate(19,-242)">
    <path style="fill:#dfdfdf" d="m 45.571203,764.57141 h 0.857142 c 0.0089,-1.1e-4 0.01782,-4e-4 0.02679,0 0.21853,0.01 0.437032,0.11021 0.589286,0.26785 l 1.955357,1.95536 1.982143,-1.95536 c 0.227678,-0.19757 0.382861,-0.26185 0.589285,-0.26785 h 0.857143 v 0.85714 c 0,0.24555 -0.02943,0.47199 -0.214285,0.64286 l -1.955357,1.95535 1.928571,1.92858 c 0.161304,0.16128 0.241064,0.38867 0.241071,0.61607 v 0.85714 h -0.857143 c -0.2274,-10e-6 -0.454788,-0.0798 -0.616071,-0.24107 l -1.955357,-1.95536 -1.955357,1.95536 c -0.161288,0.1613 -0.388684,0.24107 -0.616076,0.24107 h -0.857142 v -0.85714 c -3e-6,-0.22739 0.07977,-0.45479 0.241071,-0.61607 l 1.955357,-1.92858 -1.955357,-1.95535 c -0.180636,-0.16683 -0.259851,-0.40222 -0.241071,-0.64286 z"/>
   </g>
  </g>
 </g>
 <g id="16-16-window-close" transform="translate(54,32)">
  <rect style="opacity:0.001" width="16" height="16" x="0" y="-16"/>
  <g style="fill:#ffffff" transform="matrix(1.2495087,0,0,1.2499635,-76.964626,-665.48065)">
   <g style="fill:#ffffff" transform="translate(19,-242)">
    <path style="fill:#dfdfdf" d="m 45.799685,764.79997 h 0.8 c 0.0083,-10e-5 0.01663,-3.7e-4 0.025,0 0.203961,0.009 0.407896,0.10286 0.55,0.25 l 1.825,1.825 1.85,-1.825 c 0.2125,-0.1844 0.357337,-0.2444 0.55,-0.25 h 0.8 v 0.8 c 0,0.22918 -0.02747,0.44052 -0.2,0.6 l -1.825,1.825 1.8,1.8 c 0.15055,0.15054 0.224993,0.36276 0.225,0.575 v 0.8 h -0.8 c -0.212241,-10e-6 -0.424469,-0.0745 -0.575,-0.225 l -1.825,-1.825 -1.825,1.825 c -0.150531,0.15055 -0.362768,0.225 -0.575,0.225 h -0.8 v -0.8 c -3e-6,-0.21223 0.07445,-0.42446 0.225,-0.575 l 1.825,-1.8 -1.825,-1.825 c -0.168594,-0.1557 -0.242528,-0.3754 -0.225,-0.6 z"/>
   </g>
  </g>
 </g>
 <g id="window-close">
  <rect width="32" height="32" x="0" y="0" style="opacity:0.001"/>
  <rect style="opacity:0.2" width="28" height="28" x="-31" y="-30" rx="14" ry="14" transform="matrix(0,-1,-1,0,0,0)"/>
  <rect width="28" height="28" x="-30" y="-30" rx="14" ry="14" transform="matrix(0,-1,-1,0,0,0)" style="fill:#f34235"/>
  <g style="opacity:0.2" transform="matrix(1.7493122,0,0,1.7499488,-102.95048,-903.47286)">
   <g transform="translate(19,-242)">
    <path d="m 45.571203,764.57141 h 0.857142 c 0.0089,-1.1e-4 0.01782,-4e-4 0.02679,0 0.21853,0.01 0.437032,0.11021 0.589286,0.26785 l 1.955357,1.95536 1.982143,-1.95536 c 0.227678,-0.19757 0.382861,-0.26185 0.589285,-0.26785 h 0.857143 v 0.85714 c 0,0.24555 -0.02943,0.47199 -0.214285,0.64286 l -1.955357,1.95535 1.928571,1.92858 c 0.161304,0.16128 0.241064,0.38867 0.241071,0.61607 v 0.85714 h -0.857143 c -0.2274,-10e-6 -0.454788,-0.0798 -0.616071,-0.24107 l -1.955357,-1.95536 -1.955357,1.95536 c -0.161288,0.1613 -0.388684,0.24107 -0.616076,0.24107 h -0.857142 v -0.85714 c -3e-6,-0.22739 0.07977,-0.45479 0.241071,-0.61607 l 1.955357,-1.92858 -1.955357,-1.95535 c -0.180636,-0.16683 -0.259851,-0.40222 -0.241071,-0.64286 z"/>
   </g>
  </g>
  <g transform="matrix(1.7493122,0,0,1.7499488,-102.95048,-904.47286)" style="fill:#ffffff">
   <g transform="translate(19,-242)" style="fill:#ffffff">
    <path d="m 45.571203,764.57141 h 0.857142 c 0.0089,-1.1e-4 0.01782,-4e-4 0.02679,0 0.21853,0.01 0.437032,0.11021 0.589286,0.26785 l 1.955357,1.95536 1.982143,-1.95536 c 0.227678,-0.19757 0.382861,-0.26185 0.589285,-0.26785 h 0.857143 v 0.85714 c 0,0.24555 -0.02943,0.47199 -0.214285,0.64286 l -1.955357,1.95535 1.928571,1.92858 c 0.161304,0.16128 0.241064,0.38867 0.241071,0.61607 v 0.85714 h -0.857143 c -0.2274,-10e-6 -0.454788,-0.0798 -0.616071,-0.24107 l -1.955357,-1.95536 -1.955357,1.95536 c -0.161288,0.1613 -0.388684,0.24107 -0.616076,0.24107 h -0.857142 v -0.85714 c -3e-6,-0.22739 0.07977,-0.45479 0.241071,-0.61607 l 1.955357,-1.92858 -1.955357,-1.95535 c -0.180636,-0.16683 -0.259851,-0.40222 -0.241071,-0.64286 z" style="fill:#ffffff"/>
   </g>
  </g>
  <path d="M 16 2 C 8.244 2 2 8.244 2 16 C 2 16.168842 2.0195214 16.33264 2.0253906 16.5 C 2.2891326 8.9794325 8.4128418 3 16 3 C 23.587158 3 29.710867 8.9794325 29.974609 16.5 C 29.980479 16.33264 30 16.168842 30 16 C 30 8.244 23.756 2 16 2 z" style="fill:#ffffff;opacity:0.2"/>
 </g>
</svg>
