<svg xmlns="http://www.w3.org/2000/svg" xmlns:osb="http://www.openswatchbook.org/uri/2009/osb" xmlns:xlink="http://www.w3.org/1999/xlink" id="svg2" width="128" height="128" version="1">
 <defs id="defs4">
  <linearGradient id="linearGradient4209">
   <stop id="stop4211" offset="0" style="stop-color:#000000;stop-opacity:1"/>
   <stop id="stop4213" offset="1" style="stop-color:#000000;stop-opacity:0"/>
  </linearGradient>
  <linearGradient id="linearGradient6476" osb:paint="solid">
   <stop id="stop6478" offset="0" style="stop-color:#ffffff;stop-opacity:1"/>
  </linearGradient>
  <radialGradient id="radialGradient4201" cx="63.894" cy="61.058" r="9" fx="63.894" fy="61.058" gradientTransform="matrix(-6.1375001e-7,1.2222228,-1.2222222,-6.2559558e-7,142.62634,-21.09247)" gradientUnits="userSpaceOnUse" xlink:href="#linearGradient4209"/>
  <radialGradient id="radialGradient4203" cx="-31.636" cy="8.519" r="8.182" fx="-31.636" fy="8.519" gradientTransform="matrix(0,1.44437,-0.99999988,0,-23.570787,54.693527)" gradientUnits="userSpaceOnUse" xlink:href="#linearGradient4209"/>
  <radialGradient id="radialGradient4205" cx="27" cy="43.961" r="13" fx="27" fy="43.961" gradientTransform="matrix(6.1944048e-8,1.3846155,-1.1538462,5.1620032e-8,77.724382,12.61538)" gradientUnits="userSpaceOnUse" xlink:href="#linearGradient4209"/>
  <radialGradient id="radialGradient4207" cx="-32.298" cy="8.715" r="8.125" fx="-32.298" fy="8.715" gradientTransform="matrix(0,1.3845518,-1,0,-23.375148,53.43377)" gradientUnits="userSpaceOnUse" xlink:href="#linearGradient4209"/>
  <radialGradient id="radialGradient4231" cx="25.188" cy="82.744" r="13" fx="25.188" fy="82.744" gradientTransform="matrix(-9.7841381e-8,1.3846154,-1.2307694,-8.6970111e-8,127.83926,52.125005)" gradientUnits="userSpaceOnUse" xlink:href="#linearGradient4209"/>
  <radialGradient id="radialGradient4233" cx="68" cy="90.554" r="9" fx="68" fy="90.554" gradientTransform="matrix(-1.0677655e-6,1.2222223,-1.2222218,-1.067765e-6,178.67723,10.888977)" gradientUnits="userSpaceOnUse" xlink:href="#linearGradient4209"/>
  <radialGradient id="radialGradient4189" cx="25.188" cy="82.744" r="13" fx="25.188" fy="82.744" gradientTransform="matrix(-9.7841381e-8,1.3846154,-1.2307694,-8.6970111e-8,127.83926,51.125005)" gradientUnits="userSpaceOnUse" xlink:href="#linearGradient4209"/>
  <radialGradient id="radialGradient4193" cx="27" cy="43.961" r="13" fx="27" fy="43.961" gradientTransform="matrix(6.1944048e-8,1.3846155,-1.1538462,5.1620032e-8,77.724382,11.61538)" gradientUnits="userSpaceOnUse" xlink:href="#linearGradient4209"/>
  <radialGradient id="radialGradient4197" cx="63.894" cy="61.058" r="9" fx="63.894" fy="61.058" gradientTransform="matrix(-6.1375001e-7,1.2222228,-1.2222222,-6.2559558e-7,142.62634,-21.59247)" gradientUnits="userSpaceOnUse" xlink:href="#linearGradient4209"/>
  <radialGradient id="radialGradient4202" cx="68" cy="90.554" r="9" fx="68" fy="90.554" gradientTransform="matrix(-1.0677655e-6,1.2222223,-1.2222218,-1.067765e-6,178.67723,10.388977)" gradientUnits="userSpaceOnUse" xlink:href="#linearGradient4209"/>
 </defs>
 <g id="normal" transform="matrix(1.6,0,0,1.6,78.344238,3.0559999)">
  <rect id="rect3803" width="20" height="20" x="-42.09" y="-1.91" style="opacity:0.00100002;fill:#000000;fill-opacity:1;stroke:none"/>
  <circle id="circle4227" cx="-32.09" cy="8.715" r="8.125" style="color:#eff0f1;opacity:1;fill:url(#radialGradient4207);fill-opacity:1;stroke:none"/>
  <circle id="path3031" cx="-32" cy="8" r="8" transform="matrix(1.015625,0,0,1.015625,0.4098513,-0.0349999)" style="color:#eff0f1;fill:#424242;fill-opacity:1;stroke:none"/>
  <path id="circle4221" d="M 27 3 A 13 13 0 0 0 14 16 A 13 13 0 0 0 14.021484 16.580078 A 13 13 0 0 1 27 4 A 13 13 0 0 1 39.978516 16.419922 A 13 13 0 0 0 40 16 A 13 13 0 0 0 27 3 z" transform="matrix(0.625,0,0,0.625,-48.965149,-1.9099999)" style="color:#eff0f1;fill:#ffffff;fill-opacity:1;stroke:none;opacity:0.05"/>
 </g>
 <g id="22-22-normal" transform="matrix(1.1,0,0,1.1,103.29917,13.101)">
  <rect id="rect3042" width="20" height="20" x="-42.09" y="-1.91" style="opacity:0.00100002;fill:#000000;fill-opacity:1;stroke:none"/>
  <path id="path4234" d="m -23.908337,8.5445458 a 8.1818184,8.1818184 0 0 1 -8.181818,8.1818182 8.1818184,8.1818184 0 0 1 -8.181819,-8.1818182 8.1818184,8.1818184 0 0 1 8.181819,-8.18181842 8.1818184,8.1818184 0 0 1 8.181818,8.18181842 z" style="opacity:1;fill:url(#radialGradient4203);fill-opacity:1;stroke:none"/>
  <path id="path3044" d="m -24,8 a 8,8 0 0 1 -8,8 8,8 0 0 1 -8,-8 8,8 0 0 1 8,-8 8,8 0 0 1 8,8 z" transform="matrix(1.0227273,0,0,1.0227273,0.63711821,-0.0918182)" style="fill:#424242;fill-opacity:1;stroke:none"/>
  <path id="path4229" d="M 68 13 A 9.0000002 9.0000002 0 0 0 59 22 A 9.0000002 9.0000002 0 0 0 59.009766 22.287109 A 9.0000002 9.0000002 0 0 1 68 13.5 A 9.0000002 9.0000002 0 0 1 76.990234 22.212891 A 9.0000002 9.0000002 0 0 0 77 22 A 9.0000002 9.0000002 0 0 0 68 13 z" transform="matrix(0.90909091,0,0,0.90909091,-93.908336,-11.91)" style="fill:#ffffff;fill-opacity:1;stroke:none;opacity:0.05"/>
 </g>
 <g id="pressed" transform="matrix(1.6,0,0,1.6,156.344,16.056)">
  <rect id="rect4294" width="20" height="20" x="-42.09" y="-1.91" style="opacity:0.00100002;fill:#000000;fill-opacity:1;stroke:none"/>
  <circle id="circle4296" cx="-32" cy="8" r="8" transform="matrix(1.015625,0,0,1.015625,0.4098513,-0.0349999)" style="color:#eff0f1;fill:#338dd6;fill-opacity:1;stroke:none"/>
 </g>
 <g id="22-22-pressed" transform="matrix(1.1,0,0,1.1,141.299,56.101)">
  <rect id="rect4304" width="20" height="20" x="-42.09" y="-1.91" style="opacity:0.00100002;fill:#000000;fill-opacity:1;stroke:none"/>
  <path id="path4306" d="m -24,8 a 8,8 0 0 1 -8,8 8,8 0 0 1 -8,-8 8,8 0 0 1 8,-8 8,8 0 0 1 8,8 z" transform="matrix(1.0227273,0,0,1.0227273,0.63711821,-0.0918182)" style="fill:#338dd6;fill-opacity:1;stroke:none"/>
 </g>
 <g id="hover">
  <rect id="rect4240" width="32" height="32" x="11" y="34" style="opacity:0.001;fill:#000000;fill-opacity:1;stroke:none"/>
  <path id="circle4256" d="m 39.978516,50.419922 a 13,13 0 0 1 -0.08398,1.013672 13,13 0 0 1 -0.05859,0.478515 13,13 0 0 1 -0.146485,0.789063 13,13 0 0 1 -0.113281,0.498047 13,13 0 0 1 -0.222656,0.765625 13,13 0 0 1 -0.15625,0.464844 13,13 0 0 1 -0.292969,0.732421 13,13 0 0 1 -0.222656,0.490235 13,13 0 0 1 -0.341797,0.654297 13,13 0 0 1 -0.277344,0.480468 13,13 0 0 1 -0.414062,0.628907 13,13 0 0 1 -0.320313,0.445312 13,13 0 0 1 -0.472656,0.582031 13,13 0 0 1 -0.367188,0.41211 13,13 0 0 1 -0.515625,0.519531 13,13 0 0 1 -0.419922,0.390625 13,13 0 0 1 -0.55664,0.457031 13,13 0 0 1 -0.466797,0.353516 13,13 0 0 1 -0.587891,0.390625 13,13 0 0 1 -0.501953,0.306641 13,13 0 0 1 -0.646484,0.34375 13,13 0 0 1 -0.496094,0.238281 13,13 0 0 1 -0.689453,0.28125 13,13 0 0 1 -0.539063,0.195312 13,13 0 0 1 -0.666015,0.197266 13,13 0 0 1 -0.591797,0.150391 13,13 0 0 1 -0.695313,0.130859 13,13 0 0 1 -0.578125,0.08594 13,13 0 0 1 -0.708984,0.0625 A 13,13 0 0 1 27,63 13,13 0 0 1 25.703125,62.933594 13,13 0 0 1 14.021484,50.580078 13,13 0 0 0 14,51 13,13 0 0 0 14.025391,51.496094 13,13 0 0 0 14,52 13,13 0 0 0 27,65 13,13 0 0 0 40,52 13,13 0 0 0 39.980469,51.554688 13,13 0 0 0 40,51 13,13 0 0 0 39.978516,50.419922 Z" style="color:#eff0f1;opacity:1;fill:url(#radialGradient4205);fill-opacity:1;stroke:none"/>
  <path id="path4244" d="M 27,37 A 13,13 0 0 0 14,50 13,13 0 0 0 14.021484,50.580078 13,13 0 0 1 27,38 13,13 0 0 1 39.978516,50.419922 13,13 0 0 0 40,50 13,13 0 0 0 27,37 Z" style="color:#eff0f1;opacity:0.00100002;fill:#ffffff;fill-opacity:1;stroke:none"/>
  <path id="path4191" d="m 39.978516,49.419922 a 13,13 0 0 1 -0.08398,1.013672 13,13 0 0 1 -0.05859,0.478515 13,13 0 0 1 -0.146485,0.789063 13,13 0 0 1 -0.113281,0.498047 13,13 0 0 1 -0.222656,0.765625 13,13 0 0 1 -0.15625,0.464844 13,13 0 0 1 -0.292969,0.732421 13,13 0 0 1 -0.222656,0.490235 13,13 0 0 1 -0.341797,0.654297 13,13 0 0 1 -0.277344,0.480468 13,13 0 0 1 -0.414062,0.628907 13,13 0 0 1 -0.320313,0.445312 13,13 0 0 1 -0.472656,0.582031 13,13 0 0 1 -0.367188,0.41211 13,13 0 0 1 -0.515625,0.519531 13,13 0 0 1 -0.419922,0.390625 13,13 0 0 1 -0.55664,0.457031 13,13 0 0 1 -0.466797,0.353516 13,13 0 0 1 -0.587891,0.390625 13,13 0 0 1 -0.501953,0.306641 13,13 0 0 1 -0.646484,0.34375 13,13 0 0 1 -0.496094,0.238281 13,13 0 0 1 -0.689453,0.28125 13,13 0 0 1 -0.539063,0.195312 13,13 0 0 1 -0.666015,0.197266 13,13 0 0 1 -0.591797,0.150391 13,13 0 0 1 -0.695313,0.130859 13,13 0 0 1 -0.578125,0.08594 13,13 0 0 1 -0.708984,0.0625 A 13,13 0 0 1 27,62 13,13 0 0 1 25.703125,61.933594 13,13 0 0 1 14.021484,49.580078 13,13 0 0 0 14,50 13,13 0 0 0 14.025391,50.496094 13,13 0 0 0 14,51 13,13 0 0 0 27,64 13,13 0 0 0 40,51 13,13 0 0 0 39.980469,50.554688 13,13 0 0 0 40,50 13,13 0 0 0 39.978516,49.419922 Z" style="color:#eff0f1;opacity:1;fill:url(#radialGradient4193);fill-opacity:1;stroke:none"/>
  <circle id="path4189" cx="27" cy="50" r="13" style="opacity:1;fill:#424242;fill-opacity:1;fill-rule:nonzero;stroke:none;stroke-width:2;stroke-linecap:round;stroke-linejoin:round;stroke-miterlimit:4;stroke-dasharray:none;stroke-opacity:1"/>
  <path id="circle4197" d="M 27 37 A 13 13 0 0 0 14 50 A 13 13 0 0 0 14.021484 50.580078 A 13 13 0 0 1 27 38 A 13 13 0 0 1 39.978516 50.419922 A 13 13 0 0 0 40 50 A 13 13 0 0 0 27 37 z" style="opacity:0.05;fill:#ffffff;fill-opacity:1;fill-rule:nonzero;stroke:none;stroke-width:2;stroke-linecap:round;stroke-linejoin:round;stroke-miterlimit:4;stroke-dasharray:none;stroke-opacity:1"/>
 </g>
 <g id="focus">
  <path id="path4274" d="m 39.978516,87.419922 a 13,13 0 0 1 -0.08398,1.013672 13,13 0 0 1 -0.05859,0.478515 13,13 0 0 1 -0.146485,0.789063 13,13 0 0 1 -0.113281,0.498047 13,13 0 0 1 -0.222656,0.765625 13,13 0 0 1 -0.15625,0.464844 13,13 0 0 1 -0.292969,0.732421 13,13 0 0 1 -0.222656,0.490235 13,13 0 0 1 -0.341797,0.654297 13,13 0 0 1 -0.277344,0.480468 13,13 0 0 1 -0.414062,0.628907 13,13 0 0 1 -0.320313,0.445312 13,13 0 0 1 -0.472656,0.582031 13,13 0 0 1 -0.367188,0.41211 13,13 0 0 1 -0.515625,0.519531 13,13 0 0 1 -0.419922,0.390625 13,13 0 0 1 -0.55664,0.457031 13,13 0 0 1 -0.466797,0.353516 13,13 0 0 1 -0.587891,0.390625 13,13 0 0 1 -0.501953,0.306641 13,13 0 0 1 -0.646484,0.34375 13,13 0 0 1 -0.496094,0.238281 13,13 0 0 1 -0.689453,0.28125 13,13 0 0 1 -0.539063,0.195312 13,13 0 0 1 -0.666015,0.197266 13,13 0 0 1 -0.591797,0.150391 13,13 0 0 1 -0.695313,0.130859 13,13 0 0 1 -0.578125,0.08594 13,13 0 0 1 -0.708984,0.0625 A 13,13 0 0 1 27,100 13,13 0 0 1 25.703125,99.933594 13,13 0 0 1 14.021484,87.580078 13,13 0 0 0 14,88 13,13 0 0 0 14.025391,88.496094 13,13 0 0 0 14,89 13,13 0 0 0 27,102 13,13 0 0 0 40,89 13,13 0 0 0 39.980469,88.554688 13,13 0 0 0 40,88 13,13 0 0 0 39.978516,87.419922 Z" style="color:#eff0f1;opacity:1;fill:url(#radialGradient4231);fill-opacity:1;stroke:none"/>
  <rect id="rect4272" width="32" height="32" x="11" y="71" style="opacity:0.001;fill:#000000;fill-opacity:1;stroke:none"/>
  <path id="path4278" d="M 27,74 A 13,13 0 0 0 14,87 13,13 0 0 0 14.021484,87.580078 13,13 0 0 1 27,75 13,13 0 0 1 39.978516,87.419922 13,13 0 0 0 40,87 13,13 0 0 0 27,74 Z" style="color:#eff0f1;opacity:0.00100002;fill:#ffffff;fill-opacity:1;stroke:none"/>
  <path id="path4187" d="m 39.978516,86.419922 a 13,13 0 0 1 -0.08398,1.013672 13,13 0 0 1 -0.05859,0.478515 13,13 0 0 1 -0.146485,0.789063 13,13 0 0 1 -0.113281,0.498047 13,13 0 0 1 -0.222656,0.765625 13,13 0 0 1 -0.15625,0.464844 13,13 0 0 1 -0.292969,0.732421 13,13 0 0 1 -0.222656,0.490235 13,13 0 0 1 -0.341797,0.654297 13,13 0 0 1 -0.277344,0.480468 13,13 0 0 1 -0.414062,0.628907 13,13 0 0 1 -0.320313,0.445312 13,13 0 0 1 -0.472656,0.582031 13,13 0 0 1 -0.367188,0.41211 13,13 0 0 1 -0.515625,0.519531 13,13 0 0 1 -0.419922,0.390625 13,13 0 0 1 -0.55664,0.457031 13,13 0 0 1 -0.466797,0.353516 13,13 0 0 1 -0.587891,0.390625 13,13 0 0 1 -0.501953,0.306641 13,13 0 0 1 -0.646484,0.34375 13,13 0 0 1 -0.496094,0.238281 13,13 0 0 1 -0.689453,0.28125 13,13 0 0 1 -0.539063,0.195312 13,13 0 0 1 -0.666015,0.197266 13,13 0 0 1 -0.591797,0.150391 13,13 0 0 1 -0.695313,0.130859 13,13 0 0 1 -0.578125,0.08594 13,13 0 0 1 -0.708984,0.0625 A 13,13 0 0 1 27,99 13,13 0 0 1 25.703125,98.933594 13,13 0 0 1 14.021484,86.580078 13,13 0 0 0 14,87 13,13 0 0 0 14.025391,87.496094 13,13 0 0 0 14,88 13,13 0 0 0 27,101 13,13 0 0 0 40,88 13,13 0 0 0 39.980469,87.554688 13,13 0 0 0 40,87 13,13 0 0 0 39.978516,86.419922 Z" style="color:#eff0f1;opacity:1;fill:url(#radialGradient4189);fill-opacity:1;stroke:none"/>
  <circle id="circle4191" cx="27" cy="87" r="13" style="opacity:1;fill:#5e5e5e;fill-opacity:1;fill-rule:nonzero;stroke:none;stroke-width:2;stroke-linecap:round;stroke-linejoin:round;stroke-miterlimit:4;stroke-dasharray:none;stroke-opacity:1"/>
  <path id="circle4199" d="M 27 74 A 13 13 0 0 0 14 87 A 13 13 0 0 0 14.021484 87.580078 A 13 13 0 0 1 27 75 A 13 13 0 0 1 39.978516 87.419922 A 13 13 0 0 0 40 87 A 13 13 0 0 0 27 74 z" style="opacity:0.05;fill:#ffffff;fill-opacity:1;fill-rule:nonzero;stroke:none;stroke-width:2;stroke-linecap:round;stroke-linejoin:round;stroke-miterlimit:4;stroke-dasharray:none;stroke-opacity:1"/>
 </g>
 <g id="22-22-hover">
  <rect id="rect4250" width="22" height="22" x="57" y="45" style="opacity:0.001;fill:#000000;fill-opacity:1;stroke:none"/>
  <path id="path4258" d="m 76.990234,56.212891 a 9.0000002,9.0000002 0 0 1 -0.02734,0.373047 9.0000002,9.0000002 0 0 1 -0.06836,0.691406 9.0000002,9.0000002 0 0 1 -0.0293,0.166015 9.0000002,9.0000002 0 0 1 -0.142578,0.720703 9.0000002,9.0000002 0 0 1 -0.04492,0.160157 9.0000002,9.0000002 0 0 1 -0.21289,0.691406 9.0000002,9.0000002 0 0 1 -0.07422,0.193359 9.0000002,9.0000002 0 0 1 -0.267578,0.634766 9.0000002,9.0000002 0 0 1 -0.09375,0.185547 9.0000002,9.0000002 0 0 1 -0.333985,0.613281 9.0000002,9.0000002 0 0 1 -0.109374,0.169922 9.0000002,9.0000002 0 0 1 -0.376954,0.556641 9.0000002,9.0000002 0 0 1 -0.191406,0.238281 9.0000002,9.0000002 0 0 1 -0.378906,0.453125 9.0000002,9.0000002 0 0 1 -0.19336,0.197265 9.0000002,9.0000002 0 0 1 -0.458984,0.449219 9.0000002,9.0000002 0 0 1 -0.191406,0.160157 9.0000002,9.0000002 0 0 1 -0.494141,0.392578 9.0000002,9.0000002 0 0 1 -0.240234,0.164062 9.0000002,9.0000002 0 0 1 -0.517578,0.333984 9.0000002,9.0000002 0 0 1 -0.257813,0.140626 9.0000002,9.0000002 0 0 1 -0.513672,0.263671 9.0000002,9.0000002 0 0 1 -0.376953,0.158203 9.0000002,9.0000002 0 0 1 -0.449219,0.175782 9.0000002,9.0000002 0 0 1 -0.384765,0.117187 9.0000002,9.0000002 0 0 1 -0.490235,0.138672 9.0000002,9.0000002 0 0 1 -0.388671,0.07617 9.0000002,9.0000002 0 0 1 -0.47461,0.08398 A 9.0000002,9.0000002 0 0 1 68.75,64.957031 9.0000002,9.0000002 0 0 1 68.255859,64.994141 9.0000002,9.0000002 0 0 1 68,65 a 9.0000002,9.0000002 0 0 1 -1.787109,-0.179688 9.0000002,9.0000002 0 0 1 -2.527344,-0.923828 9.0000002,9.0000002 0 0 1 -0.767578,-0.470703 9.0000002,9.0000002 0 0 1 -0.714844,-0.544922 9.0000002,9.0000002 0 0 1 -1.251953,-1.289062 9.0000002,9.0000002 0 0 1 0,-0.002 A 9.0000002,9.0000002 0 0 1 59.009766,56.287109 9.0000002,9.0000002 0 0 0 59,56.5 9.0000002,9.0000002 0 0 0 59.011719,56.751953 9.0000002,9.0000002 0 0 0 59,57 9.0000002,9.0000002 0 0 0 68,66 9.0000002,9.0000002 0 0 0 77,57 9.0000002,9.0000002 0 0 0 76.9902,56.751953 9.0000002,9.0000002 0 0 0 77,56.5 9.0000002,9.0000002 0 0 0 76.9902,56.212891 Z" style="opacity:1;fill:url(#radialGradient4201);fill-opacity:1;stroke:none"/>
  <path id="path4254" d="m 68,47 a 9.0000002,9.0000002 0 0 0 -9,9 9.0000002,9.0000002 0 0 0 0.0098,0.287109 A 9.0000002,9.0000002 0 0 1 68,47.5 9.0000002,9.0000002 0 0 1 76.990234,56.212891 9.0000002,9.0000002 0 0 0 77,56 9.0000002,9.0000002 0 0 0 68,47 Z" style="opacity:0.00100002;fill:#ffffff;fill-opacity:1;stroke:none"/>
  <path id="path4195" d="m 76.990234,55.712891 a 9.0000002,9.0000002 0 0 1 -0.02734,0.373047 9.0000002,9.0000002 0 0 1 -0.06836,0.691406 9.0000002,9.0000002 0 0 1 -0.0293,0.166015 9.0000002,9.0000002 0 0 1 -0.142578,0.720703 9.0000002,9.0000002 0 0 1 -0.04492,0.160157 9.0000002,9.0000002 0 0 1 -0.21289,0.691406 9.0000002,9.0000002 0 0 1 -0.07422,0.193359 9.0000002,9.0000002 0 0 1 -0.267578,0.634766 9.0000002,9.0000002 0 0 1 -0.09375,0.185547 9.0000002,9.0000002 0 0 1 -0.333985,0.613281 9.0000002,9.0000002 0 0 1 -0.109374,0.169922 9.0000002,9.0000002 0 0 1 -0.376954,0.556641 9.0000002,9.0000002 0 0 1 -0.191406,0.238281 9.0000002,9.0000002 0 0 1 -0.378906,0.453125 9.0000002,9.0000002 0 0 1 -0.19336,0.197265 9.0000002,9.0000002 0 0 1 -0.458984,0.449219 9.0000002,9.0000002 0 0 1 -0.191406,0.160157 9.0000002,9.0000002 0 0 1 -0.494141,0.392578 9.0000002,9.0000002 0 0 1 -0.240234,0.164062 9.0000002,9.0000002 0 0 1 -0.517578,0.333984 9.0000002,9.0000002 0 0 1 -0.257813,0.140626 9.0000002,9.0000002 0 0 1 -0.513672,0.263671 9.0000002,9.0000002 0 0 1 -0.376953,0.158203 9.0000002,9.0000002 0 0 1 -0.449219,0.175782 9.0000002,9.0000002 0 0 1 -0.384765,0.117187 9.0000002,9.0000002 0 0 1 -0.490235,0.138672 9.0000002,9.0000002 0 0 1 -0.388671,0.07617 9.0000002,9.0000002 0 0 1 -0.47461,0.08398 A 9.0000002,9.0000002 0 0 1 68.75,64.457031 9.0000002,9.0000002 0 0 1 68.255859,64.494141 9.0000002,9.0000002 0 0 1 68,64.5 a 9.0000002,9.0000002 0 0 1 -1.787109,-0.179688 9.0000002,9.0000002 0 0 1 -2.527344,-0.923828 9.0000002,9.0000002 0 0 1 -0.767578,-0.470703 9.0000002,9.0000002 0 0 1 -0.714844,-0.544922 9.0000002,9.0000002 0 0 1 -1.251953,-1.289062 9.0000002,9.0000002 0 0 1 0,-0.002 A 9.0000002,9.0000002 0 0 1 59.009766,55.787109 9.0000002,9.0000002 0 0 0 59,56 9.0000002,9.0000002 0 0 0 59.011719,56.251953 9.0000002,9.0000002 0 0 0 59,56.5 a 9.0000002,9.0000002 0 0 0 9,9 9.0000002,9.0000002 0 0 0 9,-9 A 9.0000002,9.0000002 0 0 0 76.9902,56.251953 9.0000002,9.0000002 0 0 0 77,56 9.0000002,9.0000002 0 0 0 76.9902,55.712891 Z" style="opacity:1;fill:url(#radialGradient4197);fill-opacity:1;stroke:none"/>
  <circle id="path4193" cx="68" cy="56" r="9" style="opacity:1;fill:#424242;fill-opacity:1;fill-rule:nonzero;stroke:none;stroke-width:2;stroke-linecap:round;stroke-linejoin:round;stroke-miterlimit:4;stroke-dasharray:none;stroke-opacity:1"/>
  <path id="circle4201" d="M 68 47 A 9 9 0 0 0 59 56 A 9 9 0 0 0 59.009766 56.287109 A 9 9 0 0 1 68 47.5 A 9 9 0 0 1 76.990234 56.212891 A 9 9 0 0 0 77 56 A 9 9 0 0 0 68 47 z" style="opacity:0.05;fill:#ffffff;fill-opacity:1;fill-rule:nonzero;stroke:none;stroke-width:2;stroke-linecap:round;stroke-linejoin:round;stroke-miterlimit:4;stroke-dasharray:none;stroke-opacity:1"/>
 </g>
 <g id="22-22-focus">
  <rect id="rect4282" width="22" height="22" x="57" y="82" style="opacity:0.001;fill:#000000;fill-opacity:1;stroke:none"/>
  <path id="path4284" d="m 76.990234,93.212891 a 9.0000002,9.0000002 0 0 1 -0.02734,0.373047 9.0000002,9.0000002 0 0 1 -0.06836,0.691406 9.0000002,9.0000002 0 0 1 -0.0293,0.166015 9.0000002,9.0000002 0 0 1 -0.142578,0.720703 9.0000002,9.0000002 0 0 1 -0.04492,0.160157 9.0000002,9.0000002 0 0 1 -0.21289,0.691406 9.0000002,9.0000002 0 0 1 -0.07422,0.193359 9.0000002,9.0000002 0 0 1 -0.267578,0.634766 9.0000002,9.0000002 0 0 1 -0.09375,0.185547 9.0000002,9.0000002 0 0 1 -0.333985,0.613281 9.0000002,9.0000002 0 0 1 -0.109374,0.169922 9.0000002,9.0000002 0 0 1 -0.376954,0.556641 9.0000002,9.0000002 0 0 1 -0.191406,0.238281 9.0000002,9.0000002 0 0 1 -0.378906,0.453125 9.0000002,9.0000002 0 0 1 -0.19336,0.197265 9.0000002,9.0000002 0 0 1 -0.458984,0.449219 9.0000002,9.0000002 0 0 1 -0.191406,0.160157 9.0000002,9.0000002 0 0 1 -0.494141,0.392582 9.0000002,9.0000002 0 0 1 -0.240234,0.16406 9.0000002,9.0000002 0 0 1 -0.517578,0.33398 9.0000002,9.0000002 0 0 1 -0.257813,0.14063 9.0000002,9.0000002 0 0 1 -0.513672,0.26367 9.0000002,9.0000002 0 0 1 -0.376953,0.1582 9.0000002,9.0000002 0 0 1 -0.449219,0.17578 9.0000002,9.0000002 0 0 1 -0.384765,0.11719 9.0000002,9.0000002 0 0 1 -0.490235,0.13867 9.0000002,9.0000002 0 0 1 -0.388671,0.0762 9.0000002,9.0000002 0 0 1 -0.47461,0.084 9.0000002,9.0000002 0 0 1 -0.457031,0.0449 9.0000002,9.0000002 0 0 1 -0.494141,0.0371 A 9.0000002,9.0000002 0 0 1 68,102 a 9.0000002,9.0000002 0 0 1 -1.787109,-0.17969 9.0000002,9.0000002 0 0 1 -2.527344,-0.92383 9.0000002,9.0000002 0 0 1 -0.765625,-0.4707 9.0000002,9.0000002 0 0 1 -0.002,0 9.0000002,9.0000002 0 0 1 -1.96675,-1.835936 A 9.0000002,9.0000002 0 0 1 59.009766,93.287109 9.0000002,9.0000002 0 0 0 59,93.5 9.0000002,9.0000002 0 0 0 59.011719,93.751953 9.0000002,9.0000002 0 0 0 59,94 9.0000002,9.0000002 0 0 0 68,103 9.0000002,9.0000002 0 0 0 77,94 9.0000002,9.0000002 0 0 0 76.9902,93.751953 9.0000002,9.0000002 0 0 0 77,93.5 9.0000002,9.0000002 0 0 0 76.9902,93.212891 Z" style="opacity:1;fill:url(#radialGradient4233);fill-opacity:1;stroke:none"/>
  <path id="path4288" d="m 68,84 a 9.0000002,9.0000002 0 0 0 -9,9 9.0000002,9.0000002 0 0 0 0.0098,0.287109 A 9.0000002,9.0000002 0 0 1 68,84.5 9.0000002,9.0000002 0 0 1 76.990234,93.212891 9.0000002,9.0000002 0 0 0 77,93 9.0000002,9.0000002 0 0 0 68,84 Z" style="opacity:0.00100002;fill:#ffffff;fill-opacity:1;stroke:none"/>
  <path id="path4199" d="m 76.990234,92.712891 a 9.0000002,9.0000002 0 0 1 -0.02734,0.373047 9.0000002,9.0000002 0 0 1 -0.06836,0.691406 9.0000002,9.0000002 0 0 1 -0.0293,0.166015 9.0000002,9.0000002 0 0 1 -0.142578,0.720703 9.0000002,9.0000002 0 0 1 -0.04492,0.160157 9.0000002,9.0000002 0 0 1 -0.21289,0.691406 9.0000002,9.0000002 0 0 1 -0.07422,0.193359 9.0000002,9.0000002 0 0 1 -0.267578,0.634766 9.0000002,9.0000002 0 0 1 -0.09375,0.185547 9.0000002,9.0000002 0 0 1 -0.333985,0.613281 9.0000002,9.0000002 0 0 1 -0.109374,0.169922 9.0000002,9.0000002 0 0 1 -0.376954,0.556641 9.0000002,9.0000002 0 0 1 -0.191406,0.238281 9.0000002,9.0000002 0 0 1 -0.378906,0.453125 9.0000002,9.0000002 0 0 1 -0.19336,0.197265 9.0000002,9.0000002 0 0 1 -0.458984,0.449219 9.0000002,9.0000002 0 0 1 -0.191406,0.160157 9.0000002,9.0000002 0 0 1 -0.494141,0.392582 9.0000002,9.0000002 0 0 1 -0.240234,0.16406 9.0000002,9.0000002 0 0 1 -0.517578,0.33398 9.0000002,9.0000002 0 0 1 -0.257813,0.14063 9.0000002,9.0000002 0 0 1 -0.513672,0.26367 9.0000002,9.0000002 0 0 1 -0.376953,0.1582 9.0000002,9.0000002 0 0 1 -0.449219,0.17578 9.0000002,9.0000002 0 0 1 -0.384765,0.11719 9.0000002,9.0000002 0 0 1 -0.490235,0.13867 9.0000002,9.0000002 0 0 1 -0.388671,0.0762 9.0000002,9.0000002 0 0 1 -0.47461,0.084 9.0000002,9.0000002 0 0 1 -0.457031,0.0449 9.0000002,9.0000002 0 0 1 -0.494141,0.0371 A 9.0000002,9.0000002 0 0 1 68,101.5 a 9.0000002,9.0000002 0 0 1 -1.787109,-0.17969 9.0000002,9.0000002 0 0 1 -2.527344,-0.92383 9.0000002,9.0000002 0 0 1 -0.765625,-0.4707 9.0000002,9.0000002 0 0 1 -0.002,0 9.0000002,9.0000002 0 0 1 -1.96675,-1.835936 A 9.0000002,9.0000002 0 0 1 59.009766,92.787109 9.0000002,9.0000002 0 0 0 59,93 9.0000002,9.0000002 0 0 0 59.011719,93.251953 9.0000002,9.0000002 0 0 0 59,93.5 a 9.0000002,9.0000002 0 0 0 9,9 9.0000002,9.0000002 0 0 0 9,-9 A 9.0000002,9.0000002 0 0 0 76.9902,93.251953 9.0000002,9.0000002 0 0 0 77,93 9.0000002,9.0000002 0 0 0 76.9902,92.712891 Z" style="opacity:1;fill:url(#radialGradient4202);fill-opacity:1;stroke:none"/>
  <circle id="circle4195" cx="68" cy="93" r="9" style="opacity:1;fill:#5e5e5e;fill-opacity:1;fill-rule:nonzero;stroke:none;stroke-width:2;stroke-linecap:round;stroke-linejoin:round;stroke-miterlimit:4;stroke-dasharray:none;stroke-opacity:1"/>
  <path id="circle4203" d="M 68 84 A 9 9 0 0 0 59 93 A 9 9 0 0 0 59.009766 93.287109 A 9 9 0 0 1 68 84.5 A 9 9 0 0 1 76.990234 93.212891 A 9 9 0 0 0 77 93 A 9 9 0 0 0 68 84 z" style="opacity:0.05;fill:#ffffff;fill-opacity:1;fill-rule:nonzero;stroke:none;stroke-width:2;stroke-linecap:round;stroke-linejoin:round;stroke-miterlimit:4;stroke-dasharray:none;stroke-opacity:1"/>
 </g>
</svg>
