<svg xmlns="http://www.w3.org/2000/svg" xmlns:xlink="http://www.w3.org/1999/xlink" width="128" height="70" version="1">
 <defs>
  <linearGradient id="linearGradient4209">
   <stop style="stop-color:#000000" offset="0"/>
   <stop style="stop-color:#000000;stop-opacity:0" offset="1"/>
  </linearGradient>
  <radialGradient id="radialGradient4201" cx="63.894" cy="61.058" r="9" fx="63.894" fy="61.058" gradientTransform="matrix(-6.1375001e-7,1.2222228,-1.2222222,-6.2559558e-7,142.62634,-21.09247)" gradientUnits="userSpaceOnUse" xlink:href="#linearGradient4209"/>
  <radialGradient id="radialGradient4203" cx="-31.636" cy="8.519" r="8.182" fx="-31.636" fy="8.519" gradientTransform="matrix(0,1.588807,-1.0999999,0,20.371134,94.26388)" gradientUnits="userSpaceOnUse" xlink:href="#linearGradient4209"/>
  <radialGradient id="radialGradient4205" cx="27" cy="43.961" r="13" fx="27" fy="43.961" gradientTransform="matrix(6.1944048e-8,1.3846155,-1.1538462,5.1620032e-8,77.724382,12.61538)" gradientUnits="userSpaceOnUse" xlink:href="#linearGradient4209"/>
  <radialGradient id="radialGradient4207" cx="-32.298" cy="8.715" r="8.125" fx="-32.298" fy="8.715" gradientTransform="matrix(0,2.2152829,-1.6,0,29.943763,88.550032)" gradientUnits="userSpaceOnUse" xlink:href="#linearGradient4209"/>
  <radialGradient id="radialGradient4231" cx="25.188" cy="82.744" r="13" fx="25.188" fy="82.744" gradientTransform="matrix(-9.7841381e-8,1.3846154,-1.2307694,-8.6970111e-8,127.83926,52.125005)" gradientUnits="userSpaceOnUse" xlink:href="#linearGradient4209"/>
  <radialGradient id="radialGradient4233" cx="68" cy="90.554" r="9" fx="68" fy="90.554" gradientTransform="matrix(-1.0677655e-6,1.2222223,-1.2222218,-1.067765e-6,178.67723,10.888977)" gradientUnits="userSpaceOnUse" xlink:href="#linearGradient4209"/>
  <radialGradient id="radialGradient4189" cx="25.188" cy="82.744" r="13" fx="25.188" fy="82.744" gradientTransform="matrix(-9.7841381e-8,1.3846154,-1.2307694,-8.6970111e-8,180.83926,-19.874995)" gradientUnits="userSpaceOnUse" xlink:href="#linearGradient4209"/>
  <radialGradient id="radialGradient4193" cx="27" cy="43.961" r="13" fx="27" fy="43.961" gradientTransform="matrix(6.1944048e-8,1.3846155,-1.1538462,5.1620032e-8,98.724382,-22.38462)" gradientUnits="userSpaceOnUse" xlink:href="#linearGradient4209"/>
  <radialGradient id="radialGradient4197" cx="63.894" cy="61.058" r="9" fx="63.894" fy="61.058" gradientTransform="matrix(-6.1375001e-7,1.2222228,-1.2222222,-6.2559558e-7,117.62634,-34.59247)" gradientUnits="userSpaceOnUse" xlink:href="#linearGradient4209"/>
  <radialGradient id="radialGradient4202" cx="68" cy="90.554" r="9" fx="68" fy="90.554" gradientTransform="matrix(-1.0677655e-6,1.2222223,-1.2222218,-1.067765e-6,185.67723,-39.611028)" gradientUnits="userSpaceOnUse" xlink:href="#linearGradient4209"/>
  <radialGradient id="radialGradient941" cx="27" cy="43.961" r="13" fx="27" fy="43.961" gradientTransform="matrix(6.1944048e-8,1.3846155,-1.1538462,5.1620032e-8,77.724382,12.61538)" gradientUnits="userSpaceOnUse" xlink:href="#linearGradient4209"/>
  <radialGradient id="radialGradient943" cx="27" cy="43.961" r="13" fx="27" fy="43.961" gradientTransform="matrix(6.1944048e-8,1.3846155,-1.1538462,5.1620032e-8,162.72438,-22.38462)" gradientUnits="userSpaceOnUse" xlink:href="#linearGradient4209"/>
  <radialGradient id="radialGradient959" cx="63.894" cy="61.058" r="9" fx="63.894" fy="61.058" gradientTransform="matrix(-6.1375001e-7,1.2222228,-1.2222222,-6.2559558e-7,142.62634,-21.09247)" gradientUnits="userSpaceOnUse" xlink:href="#linearGradient4209"/>
  <radialGradient id="radialGradient961" cx="63.894" cy="61.058" r="9" fx="63.894" fy="61.058" gradientTransform="matrix(-6.1375001e-7,1.2222228,-1.2222222,-6.2559558e-7,181.62634,-34.592475)" gradientUnits="userSpaceOnUse" xlink:href="#linearGradient4209"/>
 </defs>
 <g id="normal" transform="matrix(1.6,0,0,1.6,67.344,3.056)">
  <rect style="opacity:0.001" width="20" height="20" x="-42.09" y="-1.91"/>
  <path style="fill:url(#radialGradient4207)" transform="matrix(0.625,0,0,0.625,-42.09,-1.91)" d="M 28.990234 16.496094 A 13 13 0 0 1 16 29 A 13 13 0 0 1 3.0097656 16.503906 A 13 13 0 0 0 3 17 A 13 13 0 0 0 16 30 A 13 13 0 0 0 29 17 A 13 13 0 0 0 28.990234 16.496094 z"/>
  <circle style="opacity:0.08;fill:#ffffff" cx="-32" cy="8" r="8" transform="matrix(1.015625,0,0,1.015625,0.4098513,-0.0349999)"/>
  <path style="opacity:0.05;fill:#ffffff" transform="matrix(0.625,0,0,0.625,-48.965149,-1.9099999)" d="M 27,3 A 13,13 0 0 0 14,16 13,13 0 0 0 14.021484,16.580078 13,13 0 0 1 27,4 13,13 0 0 1 39.978516,16.419922 13,13 0 0 0 40,16 13,13 0 0 0 27,3 Z"/>
 </g>
 <g id="22-22-normal" transform="matrix(1.1,0,0,1.1,46.299,34.101)">
  <rect style="opacity:0.001" width="20" height="20" x="-42.09" y="-1.91"/>
  <path style="fill:url(#radialGradient4203)" transform="matrix(0.90909091,0,0,0.90909091,-42.09,-31.000909)" d="M 19.996094 43.251953 A 9.0000002 9.0000002 0 0 1 11 52 A 9.0000002 9.0000002 0 0 1 2.0039062 43.261719 A 9.0000002 9.0000002 0 0 0 2 43.5 A 9.0000002 9.0000002 0 0 0 11 52.5 A 9.0000002 9.0000002 0 0 0 20 43.5 A 9.0000002 9.0000002 0 0 0 19.996094 43.251953 z"/>
  <path style="opacity:0.08;fill:#ffffff" transform="matrix(1.0227273,0,0,1.0227273,0.63711821,-0.0918182)" d="m -24,8 a 8,8 0 0 1 -8,8 8,8 0 0 1 -8,-8 8,8 0 0 1 8,-8 8,8 0 0 1 8,8 z"/>
  <path style="opacity:0.05;fill:#ffffff" transform="matrix(0.90909091,0,0,0.90909091,-93.908336,-11.91)" d="m 68,13 a 9.0000002,9.0000002 0 0 0 -9,9 9.0000002,9.0000002 0 0 0 0.0098,0.287109 A 9.0000002,9.0000002 0 0 1 68,13.5 9.0000002,9.0000002 0 0 1 76.990234,22.212891 9.0000002,9.0000002 0 0 0 77,22 9.0000002,9.0000002 0 0 0 68,13 Z"/>
 </g>
 <g id="hover" transform="translate(21,-34)">
  <rect style="opacity:0.001" width="32" height="32" x="11" y="34"/>
  <path style="fill:url(#radialGradient4205)" d="m 39.978516,50.419922 a 13,13 0 0 1 -0.08398,1.013672 13,13 0 0 1 -0.05859,0.478515 13,13 0 0 1 -0.146485,0.789063 13,13 0 0 1 -0.113281,0.498047 13,13 0 0 1 -0.222656,0.765625 13,13 0 0 1 -0.15625,0.464844 13,13 0 0 1 -0.292969,0.732421 13,13 0 0 1 -0.222656,0.490235 13,13 0 0 1 -0.341797,0.654297 13,13 0 0 1 -0.277344,0.480468 13,13 0 0 1 -0.414062,0.628907 13,13 0 0 1 -0.320313,0.445312 13,13 0 0 1 -0.472656,0.582031 13,13 0 0 1 -0.367188,0.41211 13,13 0 0 1 -0.515625,0.519531 13,13 0 0 1 -0.419922,0.390625 13,13 0 0 1 -0.55664,0.457031 13,13 0 0 1 -0.466797,0.353516 13,13 0 0 1 -0.587891,0.390625 13,13 0 0 1 -0.501953,0.306641 13,13 0 0 1 -0.646484,0.34375 13,13 0 0 1 -0.496094,0.238281 13,13 0 0 1 -0.689453,0.28125 13,13 0 0 1 -0.539063,0.195312 13,13 0 0 1 -0.666015,0.197266 13,13 0 0 1 -0.591797,0.150391 13,13 0 0 1 -0.695313,0.130859 13,13 0 0 1 -0.578125,0.08594 13,13 0 0 1 -0.708984,0.0625 A 13,13 0 0 1 27,63 13,13 0 0 1 25.703125,62.933594 13,13 0 0 1 14.021484,50.580078 13,13 0 0 0 14,51 13,13 0 0 0 14.025391,51.496094 13,13 0 0 0 14,52 13,13 0 0 0 27,65 13,13 0 0 0 40,52 13,13 0 0 0 39.980469,51.554688 13,13 0 0 0 40,51 13,13 0 0 0 39.978516,50.419922 Z"/>
  <path style="opacity:0.001;fill:#ffffff" d="M 27,37 A 13,13 0 0 0 14,50 13,13 0 0 0 14.021484,50.580078 13,13 0 0 1 27,38 13,13 0 0 1 39.978516,50.419922 13,13 0 0 0 40,50 13,13 0 0 0 27,37 Z"/>
  <path style="fill:url(#radialGradient4193)" transform="translate(-21,34)" d="M 60.984375 16.632812 A 13 13 0 0 1 48 29 A 13 13 0 0 1 35.015625 16.648438 A 13 13 0 0 0 35 17 A 13 13 0 0 0 48 30 A 13 13 0 0 0 61 17 A 13 13 0 0 0 60.984375 16.632812 z"/>
  <circle style="opacity:0.08;fill:#ffffff" cx="27" cy="50" r="13"/>
  <path style="opacity:0.05;fill:#ffffff" d="M 27,37 A 13,13 0 0 0 14,50 13,13 0 0 0 14.021484,50.580078 13,13 0 0 1 27,38 13,13 0 0 1 39.978516,50.419922 13,13 0 0 0 40,50 13,13 0 0 0 27,37 Z"/>
 </g>
 <g id="focus" transform="translate(53,-71)">
  <path style="fill:url(#radialGradient4231)" d="m 39.978516,87.419922 a 13,13 0 0 1 -0.08398,1.013672 13,13 0 0 1 -0.05859,0.478515 13,13 0 0 1 -0.146485,0.789063 13,13 0 0 1 -0.113281,0.498047 13,13 0 0 1 -0.222656,0.765625 13,13 0 0 1 -0.15625,0.464844 13,13 0 0 1 -0.292969,0.732421 13,13 0 0 1 -0.222656,0.490235 13,13 0 0 1 -0.341797,0.654297 13,13 0 0 1 -0.277344,0.480468 13,13 0 0 1 -0.414062,0.628907 13,13 0 0 1 -0.320313,0.445312 13,13 0 0 1 -0.472656,0.582031 13,13 0 0 1 -0.367188,0.41211 13,13 0 0 1 -0.515625,0.519531 13,13 0 0 1 -0.419922,0.390625 13,13 0 0 1 -0.55664,0.457031 13,13 0 0 1 -0.466797,0.353516 13,13 0 0 1 -0.587891,0.390625 13,13 0 0 1 -0.501953,0.306641 13,13 0 0 1 -0.646484,0.34375 13,13 0 0 1 -0.496094,0.238281 13,13 0 0 1 -0.689453,0.28125 13,13 0 0 1 -0.539063,0.195312 13,13 0 0 1 -0.666015,0.197266 13,13 0 0 1 -0.591797,0.150391 13,13 0 0 1 -0.695313,0.130859 13,13 0 0 1 -0.578125,0.08594 13,13 0 0 1 -0.708984,0.0625 A 13,13 0 0 1 27,100 13,13 0 0 1 25.703125,99.933594 13,13 0 0 1 14.021484,87.580078 13,13 0 0 0 14,88 13,13 0 0 0 14.025391,88.496094 13,13 0 0 0 14,89 13,13 0 0 0 27,102 13,13 0 0 0 40,89 13,13 0 0 0 39.980469,88.554688 13,13 0 0 0 40,88 13,13 0 0 0 39.978516,87.419922 Z"/>
  <rect style="opacity:0.001" width="32" height="32" x="11" y="71"/>
  <path style="opacity:0.001;fill:#ffffff" d="M 27,74 A 13,13 0 0 0 14,87 13,13 0 0 0 14.021484,87.580078 13,13 0 0 1 27,75 13,13 0 0 1 39.978516,87.419922 13,13 0 0 0 40,87 13,13 0 0 0 27,74 Z"/>
  <path style="fill:url(#radialGradient4189)" transform="translate(-53,71)" d="M 92.984375 16.632812 A 13 13 0 0 1 80 29 A 13 13 0 0 1 67.015625 16.648438 A 13 13 0 0 0 67 17 A 13 13 0 0 0 80 30 A 13 13 0 0 0 93 17 A 13 13 0 0 0 92.984375 16.632812 z"/>
  <circle style="opacity:0.08;fill:#ffffff" cx="27" cy="87" r="13"/>
  <path style="opacity:0.05;fill:#ffffff" d="M 27,74 A 13,13 0 0 0 14,87 13,13 0 0 0 14.021484,87.580078 13,13 0 0 1 27,75 13,13 0 0 1 39.978516,87.419922 13,13 0 0 0 40,87 13,13 0 0 0 27,74 Z"/>
 </g>
 <g id="22-22-hover" transform="translate(-25,-13)">
  <rect style="opacity:0.001" width="22" height="22" x="57" y="45"/>
  <path style="fill:url(#radialGradient4201)" d="m 76.990234,56.212891 a 9.0000002,9.0000002 0 0 1 -0.02734,0.373047 9.0000002,9.0000002 0 0 1 -0.06836,0.691406 9.0000002,9.0000002 0 0 1 -0.0293,0.166015 9.0000002,9.0000002 0 0 1 -0.142578,0.720703 9.0000002,9.0000002 0 0 1 -0.04492,0.160157 9.0000002,9.0000002 0 0 1 -0.21289,0.691406 9.0000002,9.0000002 0 0 1 -0.07422,0.193359 9.0000002,9.0000002 0 0 1 -0.267578,0.634766 9.0000002,9.0000002 0 0 1 -0.09375,0.185547 9.0000002,9.0000002 0 0 1 -0.333985,0.613281 9.0000002,9.0000002 0 0 1 -0.109374,0.169922 9.0000002,9.0000002 0 0 1 -0.376954,0.556641 9.0000002,9.0000002 0 0 1 -0.191406,0.238281 9.0000002,9.0000002 0 0 1 -0.378906,0.453125 9.0000002,9.0000002 0 0 1 -0.19336,0.197265 9.0000002,9.0000002 0 0 1 -0.458984,0.449219 9.0000002,9.0000002 0 0 1 -0.191406,0.160157 9.0000002,9.0000002 0 0 1 -0.494141,0.392578 9.0000002,9.0000002 0 0 1 -0.240234,0.164062 9.0000002,9.0000002 0 0 1 -0.517578,0.333984 9.0000002,9.0000002 0 0 1 -0.257813,0.140626 9.0000002,9.0000002 0 0 1 -0.513672,0.263671 9.0000002,9.0000002 0 0 1 -0.376953,0.158203 9.0000002,9.0000002 0 0 1 -0.449219,0.175782 9.0000002,9.0000002 0 0 1 -0.384765,0.117187 9.0000002,9.0000002 0 0 1 -0.490235,0.138672 9.0000002,9.0000002 0 0 1 -0.388671,0.07617 9.0000002,9.0000002 0 0 1 -0.47461,0.08398 A 9.0000002,9.0000002 0 0 1 68.75,64.957031 9.0000002,9.0000002 0 0 1 68.255859,64.994141 9.0000002,9.0000002 0 0 1 68,65 a 9.0000002,9.0000002 0 0 1 -1.787109,-0.179688 9.0000002,9.0000002 0 0 1 -2.527344,-0.923828 9.0000002,9.0000002 0 0 1 -0.767578,-0.470703 9.0000002,9.0000002 0 0 1 -0.714844,-0.544922 9.0000002,9.0000002 0 0 1 -1.251953,-1.289062 9.0000002,9.0000002 0 0 1 0,-0.002 A 9.0000002,9.0000002 0 0 1 59.009766,56.287109 9.0000002,9.0000002 0 0 0 59,56.5 9.0000002,9.0000002 0 0 0 59.011719,56.751953 9.0000002,9.0000002 0 0 0 59,57 9.0000002,9.0000002 0 0 0 68,66 9.0000002,9.0000002 0 0 0 77,57 9.0000002,9.0000002 0 0 0 76.9902,56.751953 9.0000002,9.0000002 0 0 0 77,56.5 9.0000002,9.0000002 0 0 0 76.9902,56.212891 Z"/>
  <path style="opacity:0.001;fill:#ffffff" d="m 68,47 a 9.0000002,9.0000002 0 0 0 -9,9 9.0000002,9.0000002 0 0 0 0.0098,0.287109 A 9.0000002,9.0000002 0 0 1 68,47.5 9.0000002,9.0000002 0 0 1 76.990234,56.212891 9.0000002,9.0000002 0 0 0 77,56 9.0000002,9.0000002 0 0 0 68,47 Z"/>
  <path style="fill:url(#radialGradient4197)" transform="translate(25,13)" d="M 51.994141 43.326172 A 9 9 0 0 1 43 52 A 9 9 0 0 1 34.007812 43.339844 A 9.0000002 9.0000002 0 0 0 34 43.5 A 9.0000002 9.0000002 0 0 0 43 52.5 A 9.0000002 9.0000002 0 0 0 52 43.5 A 9.0000002 9.0000002 0 0 0 51.994141 43.326172 z"/>
  <circle style="opacity:0.08;fill:#ffffff" cx="68" cy="56" r="9"/>
  <path style="opacity:0.05;fill:#ffffff" d="m 68,47 a 9,9 0 0 0 -9,9 9,9 0 0 0 0.0098,0.287109 A 9,9 0 0 1 68,47.5 9,9 0 0 1 76.990234,56.212891 9,9 0 0 0 77,56 9,9 0 0 0 68,47 Z"/>
 </g>
 <g id="22-22-focus" transform="translate(7.0000002,-50.000005)">
  <rect style="opacity:0.001" width="22" height="22" x="57" y="82"/>
  <path style="fill:url(#radialGradient4233)" d="m 76.990234,93.212891 a 9.0000002,9.0000002 0 0 1 -0.02734,0.373047 9.0000002,9.0000002 0 0 1 -0.06836,0.691406 9.0000002,9.0000002 0 0 1 -0.0293,0.166015 9.0000002,9.0000002 0 0 1 -0.142578,0.720703 9.0000002,9.0000002 0 0 1 -0.04492,0.160157 9.0000002,9.0000002 0 0 1 -0.21289,0.691406 9.0000002,9.0000002 0 0 1 -0.07422,0.193359 9.0000002,9.0000002 0 0 1 -0.267578,0.634766 9.0000002,9.0000002 0 0 1 -0.09375,0.185547 9.0000002,9.0000002 0 0 1 -0.333985,0.613281 9.0000002,9.0000002 0 0 1 -0.109374,0.169922 9.0000002,9.0000002 0 0 1 -0.376954,0.556641 9.0000002,9.0000002 0 0 1 -0.191406,0.238281 9.0000002,9.0000002 0 0 1 -0.378906,0.453125 9.0000002,9.0000002 0 0 1 -0.19336,0.197265 9.0000002,9.0000002 0 0 1 -0.458984,0.449219 9.0000002,9.0000002 0 0 1 -0.191406,0.160157 9.0000002,9.0000002 0 0 1 -0.494141,0.392582 9.0000002,9.0000002 0 0 1 -0.240234,0.16406 9.0000002,9.0000002 0 0 1 -0.517578,0.33398 9.0000002,9.0000002 0 0 1 -0.257813,0.14063 9.0000002,9.0000002 0 0 1 -0.513672,0.26367 9.0000002,9.0000002 0 0 1 -0.376953,0.1582 9.0000002,9.0000002 0 0 1 -0.449219,0.17578 9.0000002,9.0000002 0 0 1 -0.384765,0.11719 9.0000002,9.0000002 0 0 1 -0.490235,0.13867 9.0000002,9.0000002 0 0 1 -0.388671,0.0762 9.0000002,9.0000002 0 0 1 -0.47461,0.084 9.0000002,9.0000002 0 0 1 -0.457031,0.0449 9.0000002,9.0000002 0 0 1 -0.494141,0.0371 A 9.0000002,9.0000002 0 0 1 68,102 a 9.0000002,9.0000002 0 0 1 -1.787109,-0.17969 9.0000002,9.0000002 0 0 1 -2.527344,-0.92383 9.0000002,9.0000002 0 0 1 -0.765625,-0.4707 9.0000002,9.0000002 0 0 1 -0.002,0 9.0000002,9.0000002 0 0 1 -1.96675,-1.835936 A 9.0000002,9.0000002 0 0 1 59.009766,93.287109 9.0000002,9.0000002 0 0 0 59,93.5 9.0000002,9.0000002 0 0 0 59.011719,93.751953 9.0000002,9.0000002 0 0 0 59,94 9.0000002,9.0000002 0 0 0 68,103 9.0000002,9.0000002 0 0 0 77,94 9.0000002,9.0000002 0 0 0 76.9902,93.751953 9.0000002,9.0000002 0 0 0 77,93.5 9.0000002,9.0000002 0 0 0 76.9902,93.212891 Z"/>
  <path style="opacity:0.001;fill:#ffffff" d="m 68,84 a 9.0000002,9.0000002 0 0 0 -9,9 9.0000002,9.0000002 0 0 0 0.0098,0.287109 A 9.0000002,9.0000002 0 0 1 68,84.5 9.0000002,9.0000002 0 0 1 76.990234,93.212891 9.0000002,9.0000002 0 0 0 77,93 9.0000002,9.0000002 0 0 0 68,84 Z"/>
  <path style="fill:url(#radialGradient4202)" transform="translate(-7.0000002,50.000005)" d="M 83.994141 43.326172 A 9 9 0 0 1 75 52 A 9 9 0 0 1 66.007812 43.339844 A 9.0000002 9.0000002 0 0 0 66 43.5 A 9.0000002 9.0000002 0 0 0 75 52.5 A 9.0000002 9.0000002 0 0 0 84 43.5 A 9.0000002 9.0000002 0 0 0 83.994141 43.326172 z"/>
  <circle style="opacity:0.08;fill:#ffffff" cx="68" cy="93" r="9"/>
  <path style="opacity:0.05;fill:#ffffff" d="m 68,84 a 9,9 0 0 0 -9,9 9,9 0 0 0 0.0098,0.287109 A 9,9 0 0 1 68,84.5 9,9 0 0 1 76.990234,93.212891 9,9 0 0 0 77,93 9,9 0 0 0 68,84 Z"/>
 </g>
 <g id="pressed" transform="translate(85,-34)">
  <rect style="opacity:0.001" width="32" height="32" x="11" y="34"/>
  <path style="fill:url(#radialGradient941)" d="m 39.978516,50.419922 a 13,13 0 0 1 -0.08398,1.013672 13,13 0 0 1 -0.05859,0.478515 13,13 0 0 1 -0.146485,0.789063 13,13 0 0 1 -0.113281,0.498047 13,13 0 0 1 -0.222656,0.765625 13,13 0 0 1 -0.15625,0.464844 13,13 0 0 1 -0.292969,0.732421 13,13 0 0 1 -0.222656,0.490235 13,13 0 0 1 -0.341797,0.654297 13,13 0 0 1 -0.277344,0.480468 13,13 0 0 1 -0.414062,0.628907 13,13 0 0 1 -0.320313,0.445312 13,13 0 0 1 -0.472656,0.582031 13,13 0 0 1 -0.367188,0.41211 13,13 0 0 1 -0.515625,0.519531 13,13 0 0 1 -0.419922,0.390625 13,13 0 0 1 -0.55664,0.457031 13,13 0 0 1 -0.466797,0.353516 13,13 0 0 1 -0.587891,0.390625 13,13 0 0 1 -0.501953,0.306641 13,13 0 0 1 -0.646484,0.34375 13,13 0 0 1 -0.496094,0.238281 13,13 0 0 1 -0.689453,0.28125 13,13 0 0 1 -0.539063,0.195312 13,13 0 0 1 -0.666015,0.197266 13,13 0 0 1 -0.591797,0.150391 13,13 0 0 1 -0.695313,0.130859 13,13 0 0 1 -0.578125,0.08594 13,13 0 0 1 -0.708984,0.0625 A 13,13 0 0 1 27,63 13,13 0 0 1 25.703125,62.933594 13,13 0 0 1 14.021484,50.580078 13,13 0 0 0 14,51 13,13 0 0 0 14.025391,51.496094 13,13 0 0 0 14,52 13,13 0 0 0 27,65 13,13 0 0 0 40,52 13,13 0 0 0 39.980469,51.554688 13,13 0 0 0 40,51 13,13 0 0 0 39.978516,50.419922 Z"/>
  <path style="opacity:0.001;fill:#ffffff" d="M 27,37 A 13,13 0 0 0 14,50 13,13 0 0 0 14.021484,50.580078 13,13 0 0 1 27,38 13,13 0 0 1 39.978516,50.419922 13,13 0 0 0 40,50 13,13 0 0 0 27,37 Z"/>
  <path style="fill:url(#radialGradient943)" transform="translate(-85,34)" d="M 124.98438 16.632812 A 13 13 0 0 1 112 29 A 13 13 0 0 1 99.015625 16.648438 A 13 13 0 0 0 99 17 A 13 13 0 0 0 112 30 A 13 13 0 0 0 125 17 A 13 13 0 0 0 124.98438 16.632812 z"/>
  <circle style="opacity:0.24;fill:#ffffff" cx="27" cy="50" r="13"/>
  <path style="opacity:0.05;fill:#ffffff" d="M 27,37 A 13,13 0 0 0 14,50 13,13 0 0 0 14.021484,50.580078 13,13 0 0 1 27,38 13,13 0 0 1 39.978516,50.419922 13,13 0 0 0 40,50 13,13 0 0 0 27,37 Z"/>
 </g>
 <g id="22-22-pressed" transform="translate(39,-13.000005)">
  <rect style="opacity:0.001" width="22" height="22" x="57" y="45"/>
  <path style="fill:url(#radialGradient959)" d="m 76.990234,56.212891 a 9.0000002,9.0000002 0 0 1 -0.02734,0.373047 9.0000002,9.0000002 0 0 1 -0.06836,0.691406 9.0000002,9.0000002 0 0 1 -0.0293,0.166015 9.0000002,9.0000002 0 0 1 -0.142578,0.720703 9.0000002,9.0000002 0 0 1 -0.04492,0.160157 9.0000002,9.0000002 0 0 1 -0.21289,0.691406 9.0000002,9.0000002 0 0 1 -0.07422,0.193359 9.0000002,9.0000002 0 0 1 -0.267578,0.634766 9.0000002,9.0000002 0 0 1 -0.09375,0.185547 9.0000002,9.0000002 0 0 1 -0.333985,0.613281 9.0000002,9.0000002 0 0 1 -0.109374,0.169922 9.0000002,9.0000002 0 0 1 -0.376954,0.556641 9.0000002,9.0000002 0 0 1 -0.191406,0.238281 9.0000002,9.0000002 0 0 1 -0.378906,0.453125 9.0000002,9.0000002 0 0 1 -0.19336,0.197265 9.0000002,9.0000002 0 0 1 -0.458984,0.449219 9.0000002,9.0000002 0 0 1 -0.191406,0.160157 9.0000002,9.0000002 0 0 1 -0.494141,0.392578 9.0000002,9.0000002 0 0 1 -0.240234,0.164062 9.0000002,9.0000002 0 0 1 -0.517578,0.333984 9.0000002,9.0000002 0 0 1 -0.257813,0.140626 9.0000002,9.0000002 0 0 1 -0.513672,0.263671 9.0000002,9.0000002 0 0 1 -0.376953,0.158203 9.0000002,9.0000002 0 0 1 -0.449219,0.175782 9.0000002,9.0000002 0 0 1 -0.384765,0.117187 9.0000002,9.0000002 0 0 1 -0.490235,0.138672 9.0000002,9.0000002 0 0 1 -0.388671,0.07617 9.0000002,9.0000002 0 0 1 -0.47461,0.08398 A 9.0000002,9.0000002 0 0 1 68.75,64.957031 9.0000002,9.0000002 0 0 1 68.255859,64.994141 9.0000002,9.0000002 0 0 1 68,65 a 9.0000002,9.0000002 0 0 1 -1.787109,-0.179688 9.0000002,9.0000002 0 0 1 -2.527344,-0.923828 9.0000002,9.0000002 0 0 1 -0.767578,-0.470703 9.0000002,9.0000002 0 0 1 -0.714844,-0.544922 9.0000002,9.0000002 0 0 1 -1.251953,-1.289062 9.0000002,9.0000002 0 0 1 0,-0.002 A 9.0000002,9.0000002 0 0 1 59.009766,56.287109 9.0000002,9.0000002 0 0 0 59,56.5 9.0000002,9.0000002 0 0 0 59.011719,56.751953 9.0000002,9.0000002 0 0 0 59,57 9.0000002,9.0000002 0 0 0 68,66 9.0000002,9.0000002 0 0 0 77,57 9.0000002,9.0000002 0 0 0 76.9902,56.751953 9.0000002,9.0000002 0 0 0 77,56.5 9.0000002,9.0000002 0 0 0 76.9902,56.212891 Z"/>
  <path style="opacity:0.001;fill:#ffffff" d="m 68,47 a 9.0000002,9.0000002 0 0 0 -9,9 9.0000002,9.0000002 0 0 0 0.0098,0.287109 A 9.0000002,9.0000002 0 0 1 68,47.5 9.0000002,9.0000002 0 0 1 76.990234,56.212891 9.0000002,9.0000002 0 0 0 77,56 9.0000002,9.0000002 0 0 0 68,47 Z"/>
  <path style="fill:url(#radialGradient961)" transform="translate(-39,13.000005)" d="M 115.99414 43.326172 A 9 9 0 0 1 107 52 A 9 9 0 0 1 98.007812 43.339844 A 9.0000002 9.0000002 0 0 0 98 43.5 A 9.0000002 9.0000002 0 0 0 107 52.5 A 9.0000002 9.0000002 0 0 0 116 43.5 A 9.0000002 9.0000002 0 0 0 115.99414 43.326172 z"/>
  <circle style="opacity:0.24;fill:#ffffff" cx="68" cy="56" r="9"/>
  <path style="opacity:0.05;fill:#ffffff" d="m 68,47 a 9,9 0 0 0 -9,9 9,9 0 0 0 0.0098,0.287109 A 9,9 0 0 1 68,47.5 9,9 0 0 1 76.990234,56.212891 9,9 0 0 0 77,56 9,9 0 0 0 68,47 Z"/>
 </g>
 <g id="16-16-normal" transform="translate(-47,10)">
  <rect style="opacity:0.001" width="16" height="16" x="47" y="44"/>
  <path style="opacity:0.2" transform="translate(47,-10)" d="M 1.0058594 62.246094 A 7 7 0 0 0 1 62.5 A 7 7 0 0 0 8 69.5 A 7 7 0 0 0 15 62.5 A 7 7 0 0 0 14.994141 62.253906 A 7 7 0 0 1 8 69 A 7 7 0 0 1 1.0058594 62.246094 z"/>
  <circle style="opacity:0.08;fill:#ffffff" cx="55" cy="52" r="7"/>
  <path style="opacity:0.1;fill:#ffffff" d="M 54.90625,45 A 7,7 0 0 0 48,52 7,7 0 0 0 48.005859,52.246094 7,7 0 0 1 55,45.5 7,7 0 0 1 61.994141,52.253906 7,7 0 0 0 62,52 7,7 0 0 0 55,45 7,7 0 0 0 54.90625,45 Z"/>
 </g>
 <g id="16-16-hover" transform="translate(-118.13598,33.099895)">
  <rect style="opacity:0.001" width="16" height="16" x="150.14" y="20.9"/>
  <path style="opacity:0.2" transform="translate(118.13598,-33.099895)" d="M 33.019531 62.492188 A 7 7 0 0 0 33 63 A 7 7 0 0 0 40 70 A 7 7 0 0 0 47 63 A 7 7 0 0 0 46.980469 62.507812 A 7 7 0 0 1 40 69 A 7 7 0 0 1 33.019531 62.492188 z"/>
  <path style="opacity:0.2" transform="translate(118.13598,-33.099895)" d="M 33.005859 62.246094 A 7 7 0 0 0 33 62.5 A 7 7 0 0 0 40 69.5 A 7 7 0 0 0 47 62.5 A 7 7 0 0 0 46.994141 62.253906 A 7 7 0 0 1 40 69 A 7 7 0 0 1 33.005859 62.246094 z"/>
  <circle style="opacity:0.08;fill:#ffffff" cx="158.136" cy="28.9" r="7"/>
  <path style="opacity:0.1;fill:#ffffff" d="m 158.04223,21.900105 a 7,7 0 0 0 -6.90625,7 7,7 0 0 0 0.006,0.246094 7,7 0 0 1 6.99414,-6.746094 7,7 0 0 1 6.99414,6.753906 7,7 0 0 0 0.006,-0.253906 7,7 0 0 0 -7,-7 7,7 0 0 0 -0.0937,0 z"/>
 </g>
 <g id="16-16-focus" transform="translate(-86.135986,33.09989)">
  <rect style="opacity:0.001" width="16" height="16" x="150.14" y="20.9"/>
  <path style="opacity:0.2" transform="translate(86.135986,-33.09989)" d="M 65.019531 62.492188 A 7 7 0 0 0 65 63 A 7 7 0 0 0 72 70 A 7 7 0 0 0 79 63 A 7 7 0 0 0 78.980469 62.507812 A 7 7 0 0 1 72 69 A 7 7 0 0 1 65.019531 62.492188 z"/>
  <path style="opacity:0.2" transform="translate(86.135986,-33.09989)" d="M 65.005859 62.246094 A 7 7 0 0 0 65 62.5 A 7 7 0 0 0 72 69.5 A 7 7 0 0 0 79 62.5 A 7 7 0 0 0 78.994141 62.253906 A 7 7 0 0 1 72 69 A 7 7 0 0 1 65.005859 62.246094 z"/>
  <circle style="opacity:0.08;fill:#ffffff" cx="158.136" cy="28.9" r="7"/>
  <path style="opacity:0.1;fill:#ffffff" d="m 158.04223,21.900105 a 7,7 0 0 0 -6.90625,7 7,7 0 0 0 0.006,0.246094 7,7 0 0 1 6.99414,-6.746094 7,7 0 0 1 6.99414,6.753906 7,7 0 0 0 0.006,-0.253906 7,7 0 0 0 -7,-7 7,7 0 0 0 -0.0937,0 z"/>
 </g>
 <g id="16-16-pressed" transform="translate(-54.135986,33.09989)">
  <rect style="opacity:0.001" width="16" height="16" x="150.14" y="20.9"/>
  <path style="opacity:0.2" transform="translate(54.135986,-33.09989)" d="M 97.019531 62.492188 A 7 7 0 0 0 97 63 A 7 7 0 0 0 104 70 A 7 7 0 0 0 111 63 A 7 7 0 0 0 110.98047 62.507812 A 7 7 0 0 1 104 69 A 7 7 0 0 1 97.019531 62.492188 z"/>
  <path style="opacity:0.2" transform="translate(54.135986,-33.09989)" d="M 97.005859 62.246094 A 7 7 0 0 0 97 62.5 A 7 7 0 0 0 104 69.5 A 7 7 0 0 0 111 62.5 A 7 7 0 0 0 110.99414 62.253906 A 7 7 0 0 1 104 69 A 7 7 0 0 1 97.005859 62.246094 z"/>
  <circle style="opacity:0.24;fill:#ffffff" cx="158.136" cy="28.9" r="7"/>
  <path style="opacity:0.1;fill:#ffffff" d="m 158.04223,21.900105 a 7,7 0 0 0 -6.90625,7 7,7 0 0 0 0.006,0.246094 7,7 0 0 1 6.99414,-6.746094 7,7 0 0 1 6.99414,6.753906 7,7 0 0 0 0.006,-0.253906 7,7 0 0 0 -7,-7 7,7 0 0 0 -0.0937,0 z"/>
 </g>
</svg>
