<svg xmlns="http://www.w3.org/2000/svg" id="svg24" width="44" height="44" version="1.1">
 <g id="up-arrow" transform="matrix(3.7796976,0,0,3.7796976,-44.001078,-963.56316)">
  <rect id="rect2" style="fill:none" width="3.704" height="3.704" x="254.93" y="15.61" transform="matrix(0,1,1,0,0,0)"/>
  <path id="path4" style="fill:#dfdfdf" d="m 17.462495,256.25414 -1.058333,1.05833 h 2.116667 z"/>
 </g>
 <g id="down-arrow" transform="matrix(3.7796976,0,0,-3.7796976,-44.001078,1007.5632)">
  <rect id="rect7" style="fill:none" width="3.704" height="3.704" x="254.93" y="15.61" transform="matrix(0,1,1,0,0,0)"/>
  <path id="path9" style="fill:#dfdfdf" d="m 17.462495,256.25414 -1.058333,1.05833 h 2.116667 z"/>
 </g>
 <g id="right-arrow" transform="matrix(0,3.7796976,-3.7796976,0,1007.5632,-44.001078)">
  <rect id="rect12" style="fill:none" width="3.704" height="3.704" x="254.93" y="15.61" transform="matrix(0,1,1,0,0,0)"/>
  <path id="path14" style="fill:#dfdfdf" d="m 17.462495,256.25414 -1.058333,1.05833 h 2.116667 z"/>
 </g>
 <g id="left-arrow" transform="matrix(0,3.7796976,3.7796976,0,-963.56333,-44.001078)">
  <rect id="rect17" style="fill:none" width="3.704" height="3.704" x="254.93" y="15.61" transform="matrix(0,1,1,0,0,0)"/>
  <path id="path19" style="fill:#dfdfdf" d="m 17.462495,256.25414 -1.058333,1.05833 h 2.116667 z"/>
 </g>
</svg>
