<svg xmlns="http://www.w3.org/2000/svg" xmlns:xlink="http://www.w3.org/1999/xlink" id="svg70" width="84" height="94" version="1">
 <defs id="defs15">
  <linearGradient id="linearGradient4465">
   <stop id="stop2" style="stop-color:#000000;stop-opacity:0.50980395" offset="0"/>
   <stop id="stop4" style="stop-color:#000000;stop-opacity:0" offset="1"/>
  </linearGradient>
  <radialGradient id="radialGradient3382" cx="984" cy="905.362" r="8.5" fx="984" fy="905.362" gradientTransform="matrix(1.7317915e-5,1.9999983,-1.9999805,1.731776e-5,1998.6894,-1868.075)" gradientUnits="userSpaceOnUse" xlink:href="#linearGradient4465"/>
  <radialGradient id="radialGradient4255" cx="982.909" cy="906.453" r="8.5" fx="982.909" fy="906.453" gradientTransform="matrix(2.0000264,2.3796519e-5,-2.3796124e-5,1.9999933,-1777.8226,-1762.9844)" gradientUnits="userSpaceOnUse" xlink:href="#linearGradient4465"/>
  <linearGradient id="linearGradient4259" x1="83.6" x2="83.6" y1="-969.362" y2="-952.362" gradientTransform="matrix(0.71428571,0,0,1,127.28571,1069.3013)" gradientUnits="userSpaceOnUse" xlink:href="#linearGradient4465"/>
  <radialGradient id="radialGradient4263" cx="984" cy="905.362" r="8.5" fx="984" fy="905.362" gradientTransform="matrix(-2.000005,2.727468e-6,-2.7274042e-6,-1.999959,2106.0074,1910.6235)" gradientUnits="userSpaceOnUse" xlink:href="#linearGradient4465"/>
  <linearGradient id="linearGradient4271" x1="83.6" x2="83.6" y1="-969.362" y2="-952.362" gradientTransform="matrix(0.71428571,0,0,1,-110.65338,831.3622)" gradientUnits="userSpaceOnUse" xlink:href="#linearGradient4465"/>
  <radialGradient id="radialGradient4275" cx="984" cy="905.362" r="8.5" fx="984" fy="905.362" gradientTransform="matrix(8.0916064e-7,-2.000009,1.9999882,8.0915096e-7,-1672.7142,2017.9472)" gradientUnits="userSpaceOnUse" xlink:href="#linearGradient4465"/>
  <linearGradient id="linearGradient4283" x1="83.6" x2="83.6" y1="-969.362" y2="-952.362" gradientTransform="matrix(0.71428571,0,0,1,127.28571,919.42311)" gradientUnits="userSpaceOnUse" xlink:href="#linearGradient4465"/>
  <linearGradient id="linearGradient4452" x1="-260" x2="-260" y1="281" y2="298" gradientTransform="translate(207.06091,-93)" gradientUnits="userSpaceOnUse" xlink:href="#linearGradient4465"/>
 </defs>
 <rect id="center" style="fill:#2d2d2d" width="50" height="50" x="17" y="27"/>
 <g id="topleft" transform="translate(-121,-22.940002)">
  <path id="path18" style="fill:#2d2d2d" d="m 138,42.93887 v 7 h -7 v -2 c 0,-2.77 2.23,-5 5,-5 z"/>
  <path id="shadow-topleft" style="fill:url(#radialGradient4275)" d="m 121,49.93909 h 10 v -2 c 0,-2.77 2.23,-5 5,-5 h 2 v -10 h -17 z"/>
 </g>
 <g id="left" transform="translate(-121,-22.940002)">
  <path id="path22" style="fill:#2d2d2d" d="m 131.00001,49.93886 v 50 l 7,10e-6 v -50 z"/>
  <rect id="rect24" style="fill:url(#linearGradient4271)" width="50" height="10" x="-99.94" y="-131" transform="matrix(0,-1,-1,0,0,0)"/>
 </g>
 <rect id="rect27" style="opacity:0;fill:#000000" width="7" height="1" x="-17" y="29" transform="scale(-1,1)"/>
 <g id="bottomright" transform="translate(-121,-22.940002)">
  <path id="path29" style="fill:#2d2d2d" d="m 187.99999,106.93896 v -7 h 7 v 2 c 0,2.77 -2.23,5 -5,5 z"/>
  <path id="shadow-bottomright" style="fill:url(#radialGradient3382)" d="m 205,99.93909 h -10 v 2 c 0,2.77 -2.23,5 -5,5 h -2 v 10 h 17 z"/>
 </g>
 <g id="bottom" transform="translate(-121,-22.940002)">
  <path id="path33" style="fill:#2d2d2d" d="m 137.99997,106.939 h 50.00002 v -7 h -50.00001 z"/>
  <rect id="rect35" style="fill:url(#linearGradient4259)" width="50" height="10" x="138" y="106.94"/>
 </g>
 <rect id="rect38" style="opacity:0;fill:#000000" width="7" height="1" x="77" y="-65" transform="rotate(90)"/>
 <g id="right" transform="translate(-121,-22.940002)">
  <path id="path40" style="fill:#2d2d2d" d="m 194.99999,49.93887 v 50 l -7,1e-5 v -50 z"/>
  <rect id="rect42" style="fill:url(#linearGradient4452)" width="50" height="10" x="-99.94" y="195" transform="rotate(-90)"/>
 </g>
 <rect id="rect45" style="opacity:0;fill:#000000" width="7" height="1" x="67" y="29"/>
 <g id="top" transform="translate(-121,-22.940002)">
  <path id="path47" style="fill:#2d2d2d" d="m 137.99997,42.93887 h 50.00002 v 7 h -50.00001 z"/>
  <rect id="rect49" style="fill:url(#linearGradient4283)" width="50" height="10" x="138" y="-42.94" transform="scale(1,-1)"/>
 </g>
 <rect id="rect52" style="opacity:0;fill:#000000" width="7" height="1" x="-27" y="-65" transform="matrix(0,-1,-1,0,0,0)"/>
 <g id="topright" transform="translate(-121,-22.940002)">
  <path id="path54" style="fill:#2d2d2d" d="m 187.99999,42.93887 v 7 h 7 v -2 c 0,-2.77 -2.23,-5 -5,-5 z"/>
  <path id="shadow-topright" style="fill:url(#radialGradient4255)" d="m 188,32.93909 v 10 h 2 c 2.77,0 5,2.23 5,5 v 2 h 10 v -17 z"/>
 </g>
 <g id="shadow-center" style="opacity:0" transform="matrix(0.31570315,0,0,0.31570315,-251.27186,-111.66309)">
  <path id="path58" style="opacity:0" d="m -6.0000004,-7.998957 v 62 H 56 v -62 z"/>
 </g>
 <g id="bottomleft" transform="translate(-121,-22.940002)">
  <path id="path61" style="fill:#2d2d2d" d="m 138,106.93896 v -7 h -7 v 2 c 0,2.77 2.23,5 5,5 z"/>
  <path id="shadow-bottomleft" style="fill:url(#radialGradient4263)" d="m 138,116.93909 v -10 h -2 c -2.77,0 -5,-2.23 -5,-5 v -2 h -10 v 17 z"/>
 </g>
 <rect id="hint-tile-center" style="fill:#ff00ff" width="5" height="5" x="0" y="0"/>
 <rect id="hint-top-margin" style="fill:#ff00ff" width="4" height="17" x="39" y="10"/>
 <rect id="hint-bottom-margin" style="fill:#ff00ff" width="4" height="17" x="39" y="77"/>
 <rect id="hint-right-margin" style="fill:#ff00ff" width="4" height="17" x="49" y="-84" transform="rotate(90)"/>
 <rect id="hint-left-margin" style="fill:#ff00ff" width="4" height="17" x="49" y="-17" transform="rotate(90)"/>
</svg>
