<svg xmlns="http://www.w3.org/2000/svg" width="174" height="94" version="1">
 <defs id="defs15">
  <linearGradient id="linearGradient4465">
   <stop id="stop2" style="stop-color:#000000;stop-opacity:0.50980395" offset="0"/>
   <stop id="stop4" style="stop-color:#000000;stop-opacity:0" offset="1"/>
  </linearGradient>
  <radialGradient id="radialGradient3382" cx="984" cy="905.362" r="8.5" fx="984" fy="905.362" gradientTransform="matrix(1.7317915e-5,1.9999983,-1.9999805,1.731776e-5,1998.6894,-1868.075)" gradientUnits="userSpaceOnUse" xlink:href="#linearGradient4465"/>
  <radialGradient id="radialGradient4255" cx="982.909" cy="906.453" r="8.5" fx="982.909" fy="906.453" gradientTransform="matrix(2.0000264,2.3796519e-5,-2.3796124e-5,1.9999933,-1777.8226,-1762.9844)" gradientUnits="userSpaceOnUse" xlink:href="#linearGradient4465"/>
  <linearGradient id="linearGradient4259" x1="83.6" x2="83.6" y1="-969.362" y2="-952.362" gradientTransform="matrix(0.71428571,0,0,1,127.28571,1069.3013)" gradientUnits="userSpaceOnUse" xlink:href="#linearGradient4465"/>
  <radialGradient id="radialGradient4263" cx="984" cy="905.362" r="8.5" fx="984" fy="905.362" gradientTransform="matrix(-2.000005,2.727468e-6,-2.7274042e-6,-1.999959,2106.0074,1910.6235)" gradientUnits="userSpaceOnUse" xlink:href="#linearGradient4465"/>
  <linearGradient id="linearGradient4271" x1="83.6" x2="83.6" y1="-969.362" y2="-952.362" gradientTransform="matrix(0.71428571,0,0,1,-110.65338,831.3622)" gradientUnits="userSpaceOnUse" xlink:href="#linearGradient4465"/>
  <radialGradient id="radialGradient4275" cx="984" cy="905.362" r="8.5" fx="984" fy="905.362" gradientTransform="matrix(8.0916064e-7,-2.000009,1.9999882,8.0915096e-7,-1672.7142,2017.9472)" gradientUnits="userSpaceOnUse" xlink:href="#linearGradient4465"/>
  <linearGradient id="linearGradient4283" x1="83.6" x2="83.6" y1="-969.362" y2="-952.362" gradientTransform="matrix(0.71428571,0,0,1,127.28571,919.42311)" gradientUnits="userSpaceOnUse" xlink:href="#linearGradient4465"/>
  <linearGradient id="linearGradient4452" x1="-260" x2="-260" y1="281" y2="298" gradientTransform="translate(207.06091,-93)" gradientUnits="userSpaceOnUse" xlink:href="#linearGradient4465"/>
  <radialGradient id="radialGradient918" cx="984" cy="905.362" r="8.5" fx="984" fy="905.362" gradientTransform="matrix(8.0916064e-7,-2.000009,1.9999882,8.0915096e-7,-1672.7142,2017.9472)" gradientUnits="userSpaceOnUse" xlink:href="#linearGradient4465"/>
  <linearGradient id="linearGradient920" x1="83.6" x2="83.6" y1="-969.362" y2="-952.362" gradientTransform="matrix(0.71428571,0,0,1,-110.65338,831.3622)" gradientUnits="userSpaceOnUse" xlink:href="#linearGradient4465"/>
  <radialGradient id="radialGradient922" cx="984" cy="905.362" r="8.5" fx="984" fy="905.362" gradientTransform="matrix(1.7317915e-5,1.9999983,-1.9999805,1.731776e-5,1998.6894,-1868.075)" gradientUnits="userSpaceOnUse" xlink:href="#linearGradient4465"/>
  <linearGradient id="linearGradient924" x1="83.6" x2="83.6" y1="-969.362" y2="-952.362" gradientTransform="matrix(0.71428571,0,0,1,127.28571,1069.3013)" gradientUnits="userSpaceOnUse" xlink:href="#linearGradient4465"/>
  <linearGradient id="linearGradient926" x1="-260" x2="-260" y1="281" y2="298" gradientTransform="translate(207.06091,-93)" gradientUnits="userSpaceOnUse" xlink:href="#linearGradient4465"/>
  <linearGradient id="linearGradient928" x1="83.6" x2="83.6" y1="-969.362" y2="-952.362" gradientTransform="matrix(0.71428571,0,0,1,127.28571,919.42311)" gradientUnits="userSpaceOnUse" xlink:href="#linearGradient4465"/>
  <radialGradient id="radialGradient930" cx="982.909" cy="906.453" r="8.5" fx="982.909" fy="906.453" gradientTransform="matrix(2.0000264,2.3796519e-5,-2.3796124e-5,1.9999933,-1777.8226,-1762.9844)" gradientUnits="userSpaceOnUse" xlink:href="#linearGradient4465"/>
  <radialGradient id="radialGradient932" cx="984" cy="905.362" r="8.5" fx="984" fy="905.362" gradientTransform="matrix(-2.000005,2.727468e-6,-2.7274042e-6,-1.999959,2106.0074,1910.6235)" gradientUnits="userSpaceOnUse" xlink:href="#linearGradient4465"/>
 </defs>
 <rect id="center" style="fill:#2d2d2d" width="50" height="50" x="17" y="27"/>
 <g id="topleft" transform="translate(-121,-22.940002)">
  <path  style="fill:#2d2d2d" d="m 138,42.93887 v 7 h -7 v -2 c 0,-2.77 2.23,-5 5,-5 z"/>
  <path id="path-topleft" style="opacity:0.001" d="m 121,49.93909 h 10 v -2 c 0,-2.77 2.23,-5 5,-5 h 2 v -10 h -17 z"/>
 </g>
 <g id="left" transform="translate(-121,-22.940002)">
  <path  style="fill:#2d2d2d" d="m 131.00001,49.93886 v 50 l 7,10e-6 v -50 z"/>
  <rect  style="opacity:0.001" width="50" height="10" x="-99.94" y="-131" transform="matrix(0,-1,-1,0,0,0)"/>
 </g>
 <g id="bottomright" transform="translate(-121,-22.940002)">
  <path  style="fill:#2d2d2d" d="m 187.99999,106.93896 v -7 h 7 v 2 c 0,2.77 -2.23,5 -5,5 z"/>
  <path id="path-bottomright" style="opacity:0.001" d="m 205,99.93909 h -10 v 2 c 0,2.77 -2.23,5 -5,5 h -2 v 10 h 17 z"/>
 </g>
 <g id="bottom" transform="translate(-121,-22.940002)">
  <path  style="fill:#2d2d2d" d="m 137.99997,106.939 h 50.00002 v -7 h -50.00001 z"/>
  <rect  style="opacity:0.001" width="50" height="10" x="138" y="106.94"/>
 </g>
 <g id="right" transform="translate(-121,-22.940002)">
  <path  style="fill:#2d2d2d" d="m 194.99999,49.93887 v 50 l -7,1e-5 v -50 z"/>
  <rect  style="opacity:0.001" width="50" height="10" x="-99.94" y="195" transform="rotate(-90)"/>
 </g>
 <g id="top" transform="translate(-121,-22.940002)">
  <path  style="fill:#2d2d2d" d="m 137.99997,42.93887 h 50.00002 v 7 h -50.00001 z"/>
  <rect  style="opacity:0.001" width="50" height="10" x="138" y="-42.94" transform="scale(1,-1)"/>
 </g>
 <g id="topright" transform="translate(-121,-22.940002)">
  <path  style="fill:#2d2d2d" d="m 187.99999,42.93887 v 7 h 7 v -2 c 0,-2.77 -2.23,-5 -5,-5 z"/>
  <path id="path-topright" style="opacity:0.001" d="m 188,32.93909 v 10 h 2 c 2.77,0 5,2.23 5,5 v 2 h 10 v -17 z"/>
 </g>
 <g id="bottomleft" transform="translate(-121,-22.940002)">
  <path  style="fill:#2d2d2d" d="m 138,106.93896 v -7 h -7 v 2 c 0,2.77 2.23,5 5,5 z"/>
  <path id="path-bottomleft" style="opacity:0.001" d="m 138,116.93909 v -10 h -2 c -2.77,0 -5,-2.23 -5,-5 v -2 h -10 v 17 z"/>
 </g>
 <rect id="hint-tile-center" style="fill:#ff00ff" width="5" height="5" x="0" y="0"/>
 <rect id="hint-top-margin" style="fill:#ff00ff" width="4" height="17" x="39" y="10"/>
 <rect id="hint-bottom-margin" style="fill:#ff00ff" width="4" height="17" x="39" y="77"/>
 <rect id="hint-right-margin" style="fill:#ff00ff" width="4" height="17" x="49" y="-84" transform="rotate(90)"/>
 <rect id="hint-left-margin" style="fill:#ff00ff" width="4" height="17" x="49" y="-17" transform="rotate(90)"/>
 <rect id="shadow-center" style="opacity:0.001" width="50" height="50" x="107" y="27"/>
 <g id="shadow-topleft" transform="translate(-31,-22.940002)">
  <path  style="opacity:0.001" d="m 138,42.93887 v 7 h -7 v -2 c 0,-2.77 2.23,-5 5,-5 z"/>
  <path  style="fill:url(#radialGradient918)" d="m 121,49.93909 h 10 v -2 c 0,-2.77 2.23,-5 5,-5 h 2 v -10 h -17 z"/>
 </g>
 <g id="shadow-left" transform="translate(-31,-22.940002)">
  <path  style="opacity:0.001" d="m 131.00001,49.93886 v 50 l 7,10e-6 v -50 z"/>
  <rect  style="fill:url(#linearGradient920)" width="50" height="10" x="-99.94" y="-131" transform="matrix(0,-1,-1,0,0,0)"/>
 </g>
 <g id="shadow-bottomright" transform="translate(-31,-22.940002)">
  <path  style="opacity:0.001" d="m 187.99999,106.93896 v -7 h 7 v 2 c 0,2.77 -2.23,5 -5,5 z"/>
  <path  style="fill:url(#radialGradient922)" d="m 205,99.93909 h -10 v 2 c 0,2.77 -2.23,5 -5,5 h -2 v 10 h 17 z"/>
 </g>
 <g id="shadow-bottom" transform="translate(-31,-22.940002)">
  <path  style="opacity:0.001" d="m 137.99997,106.939 h 50.00002 v -7 h -50.00001 z"/>
  <rect  style="fill:url(#linearGradient924)" width="50" height="10" x="138" y="106.94"/>
 </g>
 <g id="shadow-right" transform="translate(-31,-22.940002)">
  <path  style="opacity:0.001" d="m 194.99999,49.93887 v 50 l -7,1e-5 v -50 z"/>
  <rect  style="fill:url(#linearGradient926)" width="50" height="10" x="-99.94" y="195" transform="rotate(-90)"/>
 </g>
 <g id="shadow-top" transform="translate(-31,-22.940002)">
  <path  style="opacity:0.001" d="m 137.99997,42.93887 h 50.00002 v 7 h -50.00001 z"/>
  <rect  style="fill:url(#linearGradient928)" width="50" height="10" x="138" y="-42.94" transform="scale(1,-1)"/>
 </g>
 <g id="shadow-topright" transform="translate(-31,-22.940002)">
  <path  style="opacity:0.001" d="m 187.99999,42.93887 v 7 h 7 v -2 c 0,-2.77 -2.23,-5 -5,-5 z"/>
  <path  style="fill:url(#radialGradient930)" d="m 188,32.93909 v 10 h 2 c 2.77,0 5,2.23 5,5 v 2 h 10 v -17 z"/>
 </g>
 <g id="shadow-bottomleft" transform="translate(-31,-22.940002)">
  <path  style="opacity:0.001" d="m 138,106.93896 v -7 h -7 v 2 c 0,2.77 2.23,5 5,5 z"/>
  <path  style="fill:url(#radialGradient932)" d="m 138,116.93909 v -10 h -2 c -2.77,0 -5,-2.23 -5,-5 v -2 h -10 v 17 z"/>
 </g>
 <rect id="shadow-hint-top-margin" style="fill:#ff00ff" width="4" height="17" x="129" y="10"/>
 <rect id="shadow-hint-bottom-margin" style="fill:#ff00ff" width="4" height="17" x="129" y="77"/>
 <rect id="shadow-hint-right-margin" style="fill:#ff00ff" width="4" height="17" x="49" y="-174" transform="rotate(90)"/>
 <rect id="shadow-hint-left-margin" style="fill:#ff00ff" width="4" height="17" x="49" y="-107" transform="rotate(90)"/>
</svg>
