<svg xmlns="http://www.w3.org/2000/svg" width="32" height="16" version="1">
 <g id="radiobutton" transform="translate(-97.5,-200)">
  <path style="fill:#8ab4f8" transform="translate(97.5,200)" d="M 8 0 C 3.59356 0 5e-06 3.59356 0 8 C 5e-06 12.40644 3.59356 16 8 16 C 12.40643 16 16 12.40643 16 8 C 16 3.59357 12.40643 0 8 0 z M 8 2 C 11.32567 2 14 4.67433 14 8 C 14 11.32567 11.32567 14 8 14 C 4.67432 14 2 11.32568 2 8 C 2.000003 4.67432 4.67432 2 8 2 z M 8 5 A 3 3 0 0 0 5 8 A 3 3 0 0 0 8 11 A 3 3 0 0 0 11 8 A 3 3 0 0 0 8 5 z"/>
 </g>
 <g id="checkbox" transform="translate(-256.5,-200)">
  <path style="fill:#8ab4f8" transform="translate(256.5,200)" d="M 18 0 C 16.892 0 16 0.892 16 2 L 16 14 C 16 15.108 16.892 16 18 16 L 30 16 C 31.108 16 32 15.108 32 14 L 32 2 C 32 0.892 31.108 0 30 0 L 18 0 z M 27.707031 3.7246094 C 28.674944 3.6689734 29.650471 4.6768675 28.777344 5.7109375 L 23.222656 12.289062 L 19.644531 9.28125 C 18.526911 8.34205 19.840418 6.1193975 21.205078 7.0859375 L 23.132812 8.4492188 L 26.810547 4.1738281 C 27.062824 3.8804381 27.384394 3.7431547 27.707031 3.7246094 z"/>
 </g>
</svg>
