<svg xmlns="http://www.w3.org/2000/svg" id="svg2" width="208" height="208" version="1">
 <g id="MinuteHand">
  <rect id="rect913" width="10" height="96" x="278" y="29" style="opacity:0.001;fill:#000000;fill-opacity:1;stroke:none;stroke-width:2.24587631;stroke-linecap:round;stroke-linejoin:round;stroke-miterlimit:4;stroke-dasharray:none;stroke-opacity:1"/>
  <rect id="rect901" width="8" height="94" x="279" y="30" rx="1" ry="1" style="opacity:0.05;fill:none;fill-opacity:1;stroke:#000000;stroke-width:1;stroke-linecap:round;stroke-linejoin:round;stroke-miterlimit:4;stroke-dasharray:none;stroke-opacity:1"/>
  <rect style="opacity:0.05;fill:none;fill-opacity:1;stroke:#000000;stroke-width:2;stroke-linecap:round;stroke-linejoin:round;stroke-miterlimit:4;stroke-dasharray:none;stroke-opacity:1" id="rect911" width="8" height="94" x="279" y="30" rx="1" ry="1"/>
  <rect style="opacity:1;fill:#338dd6;fill-opacity:1;stroke:none;stroke-width:3.40760469;stroke-linecap:round;stroke-linejoin:round;stroke-miterlimit:4;stroke-dasharray:none;stroke-opacity:1" id="rect861" width="8" height="94" x="279" y="30" rx="1" ry="1"/>
 </g>
 <g id="HourHand">
  <rect id="rect841" width="10" height="52" x="250" y="73" style="opacity:0.001;fill:#000000;fill-opacity:1;stroke:none;stroke-width:1.51423514;stroke-linecap:round;stroke-linejoin:round;stroke-miterlimit:4;stroke-dasharray:none;stroke-opacity:1"/>
  <rect style="opacity:0.05;fill:none;fill-opacity:1;stroke:#000000;stroke-width:1;stroke-linecap:round;stroke-linejoin:round;stroke-miterlimit:4;stroke-dasharray:none;stroke-opacity:1" id="rect845" width="8" height="50" x="251" y="74" rx="1" ry="1"/>
  <rect id="rect847" width="8" height="50" x="251" y="74" rx="1" ry="1" style="opacity:0.05;fill:none;fill-opacity:1;stroke:#000000;stroke-width:2;stroke-linecap:round;stroke-linejoin:round;stroke-miterlimit:4;stroke-dasharray:none;stroke-opacity:1"/>
  <rect id="rect839" width="8" height="50" x="251" y="74" rx="1" ry="1" style="opacity:1;fill:#338dd6;fill-opacity:1;stroke:none;stroke-width:2.48525119;stroke-linecap:round;stroke-linejoin:round;stroke-miterlimit:4;stroke-dasharray:none;stroke-opacity:1"/>
 </g>
 <g id="SecondHand">
  <rect id="rect991" width="20" height="100" x="214" y="122" style="opacity:0.00100002;fill:#000000;fill-opacity:1;stroke:none;stroke-width:2.23606825;stroke-linecap:round;stroke-linejoin:round;stroke-miterlimit:4;stroke-dasharray:none;stroke-opacity:1"/>
  <path style="fill:#414141;fill-opacity:1;stroke:none;stroke-width:1.18447495" id="rect6212" d="m 225,129 v 92.99916 c 0,0 0,4.2e-4 -1,4.2e-4 -1,0 -1,4.2e-4 -1,4.2e-4 v -92.99973 z"/>
  <circle style="opacity:0.05;fill:none;fill-opacity:1;stroke:#000000;stroke-width:1;stroke-linecap:round;stroke-linejoin:round;stroke-miterlimit:4;stroke-dasharray:none;stroke-opacity:1" id="circle987" cx="224" cy="132" r="9"/>
  <circle id="circle989" cx="224" cy="132" r="9" style="opacity:0.05;fill:none;fill-opacity:1;stroke:#000000;stroke-width:2;stroke-linecap:round;stroke-linejoin:round;stroke-miterlimit:4;stroke-dasharray:none;stroke-opacity:1"/>
  <circle id="path967" cx="224" cy="132" r="9" style="opacity:1;fill:#d3dae3;fill-opacity:1;stroke:none;stroke-width:1.95237434;stroke-linecap:round;stroke-linejoin:round;stroke-miterlimit:4;stroke-dasharray:none;stroke-opacity:1"/>
 </g>
 <g id="ClockFace">
  <rect id="rect4224" width="180" height="180" x="-202" y="-194" rx="90" ry="90" transform="matrix(0,-1,-1,0,0,0)" style="opacity:0.02000002;fill:#000000;fill-opacity:1"/>
  <rect id="rect4226" width="180" height="180" x="-201" y="-194" rx="90" ry="90" transform="matrix(0,-1,-1,0,0,0)" style="opacity:0.02000002;fill:#000000;fill-opacity:1"/>
  <rect id="rect4228" width="180" height="180" x="-200" y="-194" rx="90" ry="90" transform="matrix(0,-1,-1,0,0,0)" style="opacity:0.02000002;fill:#000000;fill-opacity:1"/>
  <rect id="rect4230" width="180" height="180" x="-199" y="-194" rx="90" ry="90" transform="matrix(0,-1,-1,0,0,0)" style="opacity:0.02000002;fill:#000000;fill-opacity:1"/>
  <rect id="rect4217" width="208" height="208" x="0" y="0" style="opacity:0.00100002;fill:#000000;fill-opacity:1;fill-rule:nonzero;stroke:none;stroke-width:2;stroke-linecap:round;stroke-linejoin:round;stroke-miterlimit:4;stroke-dasharray:none;stroke-opacity:1"/>
  <rect id="rect4197" width="180" height="180" x="-198" y="-194" rx="90" ry="90" transform="matrix(0,-1,-1,0,0,0)" style="opacity:0.02000002;fill:#000000;fill-opacity:1"/>
  <rect id="rect4199" width="180" height="180" x="-197" y="-194" rx="90" ry="90" transform="matrix(0,-1,-1,0,0,0)" style="opacity:0.02000002;fill:#000000;fill-opacity:1"/>
  <rect id="rect4201" width="180" height="180" x="-196" y="-194" rx="90" ry="90" transform="matrix(0,-1,-1,0,0,0)" style="opacity:0.02000002;fill:#000000;fill-opacity:1"/>
  <rect id="rect4203" width="180" height="180" x="-195" y="-194" rx="90" ry="90" transform="matrix(0,-1,-1,0,0,0)" style="opacity:0.02000002;fill:#000000;fill-opacity:1"/>
  <rect id="rect4" width="180" height="180" x="-194" y="-194" rx="90" ry="90" transform="matrix(0,-1,-1,0,0,0)" style="fill:#212121;fill-opacity:1"/>
  <rect style="fill:#303030;fill-opacity:1;stroke-width:0.83333331" id="rect932" width="150" height="150" x="-179" y="-179" rx="75" ry="75" transform="matrix(0,-1,-1,0,0,0)"/>
  <path id="path859" d="M 97.396484,36 C 96.452552,36.605042 95.564942,37.259618 94,37.511719 V 39 h 3 v 13 h -4 v 2 h 10 V 52 H 99 V 36 Z m 12.064456,0 c -2.02488,0 -3.11617,1.039143 -4.38477,2.574219 l 1.3418,1.263672 C 107.19864,38.748482 107.97356,38 109.19336,38 110.97428,38 112,39.267994 112,41.199219 c 0,3.09491 -2.5843,6.31359 -7,11.488281 V 54 h 10 v -2 h -6.5 c 3.53744,-4.431912 5.49805,-7.557255 5.49805,-10.875 0,-3.09491 -1.73155,-5.125 -4.53711,-5.125 z M 40.644531,95 C 38.131841,95 36,97.195641 36,100.53711 c 0,3.56097 1.750961,5.39062 4.212891,5.39062 1.34518,0 2.588274,-0.78044 3.552734,-1.95117 -0.1269,5.36585 -1.852289,7.14453 -3.730469,7.14453 -0.96447,0 -1.902578,-0.48618 -2.511718,-1.33984 l -1.294922,1.38867 C 37.091466,112.2187 38.385427,113 40.060547,113 43.258517,113 46,110.3408 46,103.31641 46,97.852994 43.614081,95 40.644531,95 Z m 126.367189,0 c -1.75308,0 -3.25817,0.90163 -4.44336,2.169922 l 1.25976,1.390625 c 0.8642,-1.04878 1.9006,-1.730469 3.01172,-1.730469 1.53087,0 2.51758,0.999713 2.51758,2.707031 0,1.780481 -1.13469,3.292971 -4.09765,3.292971 v 1.70703 c 3.28396,0 4.54296,1.33999 4.54296,3.48633 0,1.97561 -1.33395,3.09765 -2.98828,3.09765 -1.55555,0 -2.7647,-0.87805 -3.6289,-2 L 162,110.56055 c 0.98765,1.26833 2.64275,2.43945 5.0625,2.43945 2.74074,0 4.9375,-1.82913 4.9375,-4.85352 0,-2.46341 -1.48115,-4.02391 -3.16016,-4.51171 v -0.0977 c 1.58024,-0.68293 2.69141,-2.04997 2.69141,-4.220704 C 171.53125,96.584699 169.70309,95 167.01172,95 Z M 40.695312,96.78125 c 1.72588,0 2.841882,1.853089 3.044922,5.41406 -1.01523,1.5122 -2.156612,2.02344 -3.044922,2.02344 -1.59899,0 -2.486328,-1.26701 -2.486328,-3.68164 0,-2.292688 1.014238,-3.75586 2.486328,-3.75586 z M 104.93945,154 C 101.74148,154 99,156.63481 99,163.68359 99,169.147 101.38593,172 104.35547,172 106.86816,172 109,169.80436 109,166.46289 c 0,-3.56097 -1.75096,-5.39062 -4.21289,-5.39062 -1.34518,0 -2.58826,0.78044 -3.55273,1.95117 0.1269,-5.36585 1.85229,-7.14453 3.73046,-7.14453 0.96447,0 1.90258,0.48618 2.51172,1.33984 l 1.29492,-1.41406 C 107.90853,154.7803 106.61458,154 104.93945,154 Z m -0.63476,8.78125 c 1.59899,0 2.48633,1.26701 2.48633,3.68164 0,2.2683 -1.01425,3.75586 -2.48633,3.75586 -1.72588,0 -2.84188,-1.85309 -3.04492,-5.41406 1.01524,-1.5122 2.1566,-2.02344 3.04492,-2.02344 z" style="font-style:normal;font-variant:normal;font-weight:normal;font-stretch:normal;font-size:24px;line-height:1.25;font-family:'Noto Sans Mono CJK KR';-inkscape-font-specification:'Noto Sans Mono CJK KR';letter-spacing:0px;word-spacing:0px;opacity:1;fill:#d3dae3;fill-opacity:1;stroke:none;stroke-width:1.04268873"/>
  <path style="opacity:1;fill:#d3dae3;fill-opacity:1;stroke:none;stroke-width:1.0666666;stroke-linecap:round;stroke-linejoin:round;stroke-miterlimit:4;stroke-dasharray:none;stroke-opacity:1" id="path919" d="M 159.42563,73 A 4,4 0 0 0 153.96152,71.535898 4,4 0 0 0 152.49742,77 4,4 0 0 0 157.96152,78.464102 4,4 0 0 0 159.42563,73 Z M 55.502577,133 A 4,4 0 0 0 50.038476,131.5359 4,4 0 0 0 48.574374,137 4,4 0 0 0 54.038476,138.4641 4,4 0 0 0 55.502577,133 Z"/>
  <path id="path921" d="M 48.574373,73 A 4,4 0 0 1 54.038483,71.535898 4,4 0 0 1 55.502583,77 4,4 0 0 1 50.038483,78.464102 4,4 0 0 1 48.574373,73 Z m 103.923057,60 a 4,4 0 0 1 5.4641,-1.4641 4,4 0 0 1 1.4641,5.4641 4,4 0 0 1 -5.4641,1.4641 4,4 0 0 1 -1.4641,-5.4641 z" style="opacity:1;fill:#d3dae3;fill-opacity:1;stroke:none;stroke-width:1.0666666;stroke-linecap:round;stroke-linejoin:round;stroke-miterlimit:4;stroke-dasharray:none;stroke-opacity:1"/>
  <path id="path923" d="m 136.00001,49.574372 a 4,4 0 0 0 -5.46411,1.464106 4,4 0 0 0 1.4641,5.464101 4,4 0 0 0 5.4641,-1.4641 4,4 0 0 0 -1.46409,-5.464107 z M 76.000001,153.49742 a 4,4 0 0 0 -5.4641,1.46411 4,4 0 0 0 1.4641,5.4641 4,4 0 0 0 5.464101,-1.46411 4,4 0 0 0 -1.464101,-5.4641 z" style="opacity:1;fill:#d3dae3;fill-opacity:1;stroke:none;stroke-width:1.0666666;stroke-linecap:round;stroke-linejoin:round;stroke-miterlimit:4;stroke-dasharray:none;stroke-opacity:1"/>
  <path style="opacity:1;fill:#d3dae3;fill-opacity:1;stroke:none;stroke-width:1.0666666;stroke-linecap:round;stroke-linejoin:round;stroke-miterlimit:4;stroke-dasharray:none;stroke-opacity:1" id="path925" d="m 71.999997,49.574372 a 4,4 0 0 1 5.46411,1.464106 4,4 0 0 1 -1.4641,5.464101 4,4 0 0 1 -5.4641,-1.4641 4,4 0 0 1 1.46409,-5.464107 z M 132.00001,153.49742 a 4,4 0 0 1 5.4641,1.46411 4,4 0 0 1 -1.4641,5.4641 4,4 0 0 1 -5.46411,-1.46411 4,4 0 0 1 1.46411,-5.4641 z"/>
 </g>
</svg>
