<svg xmlns="http://www.w3.org/2000/svg" width="160" height="160" version="1">
 <g id="ClockFace" transform="translate(-6,-6)">
  <rect style="opacity:0.001" width="160" height="160" x="6" y="6"/>
  <path style="opacity:0.03" d="m 86,11 c 41.55,0 75,33.45 75,75 0,41.55 -33.45,75 -75,75 C 44.45,161 11,127.55 11,86 11,44.45 44.45,11 86,11 Z m 0,0 C 43.342,11 9,45.342 9,88 c 0,42.658 34.342,77 77,77 42.658,0 77,-34.342 77,-77 0,-42.658 -34.342,-77 -77,-77 z"/>
  <path style="opacity:0.03" d="M 35.357422,30.595703 C 19.490995,44.592954 9.5,65.081272 9.5,88 c 0,42.381 34.119,76.5 76.5,76.5 42.381,0 76.5,-34.119 76.5,-76.5 0,-22.918728 -9.991,-43.407046 -25.85742,-57.404297 C 151.62511,44.290392 161,64.008401 161,86 161,127.55 127.55,161 86,161 44.45,161 11,127.55 11,86 11,64.008401 20.374889,44.290392 35.357422,30.595703 Z"/>
  <path style="opacity:0.03" d="M 21.027344,48.447266 C 14.027531,59.956171 10,73.490124 10,88 c 0,42.104 33.896,76 76,76 42.104,0 76,-33.896 76,-76 C 162,73.490124 157.97247,59.956171 150.97266,48.447266 157.3425,59.480709 161,72.293788 161,86 161,127.55 127.55,161 86,161 44.45,161 11,127.55 11,86 11,72.293788 14.657502,59.480709 21.027344,48.447266 Z"/>
  <path style="opacity:0.03" d="M 13.154297,68.076172 C 11.43422,74.421081 10.5,81.09602 10.5,88 c 0,41.827 33.673,75.5 75.5,75.5 41.827,0 75.5,-33.673 75.5,-75.5 0,-6.90398 -0.93422,-13.578919 -2.6543,-19.923828 C 160.24393,73.817535 161,79.816253 161,86 c 0,41.55 -33.45,75 -75,75 -41.55,0 -75,-33.45 -75,-75 0,-6.183747 0.756068,-12.182465 2.154297,-17.923828 z"/>
  <path style="opacity:0.03" d="M 15.230469,61.070312 C 12.176051,69.290099 10.5,78.191152 10.5,87.5 c 0,41.827 33.673,75.5 75.5,75.5 41.827,0 75.5,-33.673 75.5,-75.5 0,-9.308848 -1.67605,-18.209901 -4.73047,-26.429688 C 159.49994,68.865475 161,77.249537 161,86 c 0,41.55 -33.45,75 -75,75 -41.55,0 -75,-33.45 -75,-75 0,-8.750463 1.500061,-17.134525 4.230469,-24.929688 z"/>
  <path style="opacity:0.03" d="M 21.427734,47.75 C 14.490093,59.173893 10.5,72.603657 10.5,87 c 0,41.827 33.673,75.5 75.5,75.5 41.827,0 75.5,-33.673 75.5,-75.5 0,-14.396343 -3.99009,-27.826107 -10.92773,-39.25 C 157.19294,58.938167 161,72.005488 161,86 161,127.55 127.55,161 86,161 44.45,161 11,127.55 11,86 11,72.005488 14.807058,58.938167 21.427734,47.75 Z"/>
  <path style="opacity:0.03" d="M 82.103516,11.097656 C 42.101451,13.112309 10.5,45.980094 10.5,86.5 10.5,128.327 44.173,162 86,162 127.827,162 161.5,128.327 161.5,86.5 161.5,45.971582 129.88509,13.099766 89.871094,11.097656 129.60824,13.098967 161,45.748438 161,86 c 0,41.55 -33.45,75 -75,75 -41.55,0 -75,-33.45 -75,-75 0,-40.251562 31.391756,-72.901033 71.128906,-74.902344 -0.0084,4.21e-4 -0.01699,-4.23e-4 -0.02539,0 z"/>
  <path style="opacity:0.03" d="m 86,10.5 c -41.827,0 -75.5,33.673 -75.5,75.5 0,41.827 33.673,75.5 75.5,75.5 41.827,0 75.5,-33.673 75.5,-75.5 0,-41.827 -33.673,-75.5 -75.5,-75.5 z m 0,0.5 c 41.55,0 75,33.45 75,75 0,41.55 -33.45,75 -75,75 C 44.45,161 11,127.55 11,86 11,44.45 44.45,11 86,11 Z"/>
  <rect style="fill:#121212" width="150" height="150" x="-161" y="-161" rx="75" ry="75" transform="matrix(0,-1,-1,0,0,0)"/>
  <path style="opacity:0.2" transform="translate(6,6)" d="M 85.205078 15.435547 C 84.676533 15.435547 84.160966 15.559752 83.658203 15.804688 C 83.155441 16.049622 82.626593 16.396459 82.072266 16.847656 L 80.988281 15.566406 C 80.816492 15.69907 80.647179 15.833252 80.486328 15.972656 L 82.072266 17.847656 C 82.626593 17.396459 83.155441 17.049622 83.658203 16.804688 C 84.160966 16.559752 84.676533 16.435547 85.205078 16.435547 C 85.720732 16.435547 86.125374 16.571079 86.421875 16.841797 C 86.630491 17.024336 86.761903 17.27815 86.830078 17.589844 C 86.859432 17.422521 86.886719 17.255339 86.886719 17.080078 C 86.886719 16.52575 86.731267 16.112515 86.421875 15.841797 C 86.125374 15.571079 85.720732 15.435547 85.205078 15.435547 z M 73.828125 16.267578 C 73.763668 16.344926 73.62345 16.487098 73.404297 16.693359 C 73.198035 16.88673 73.004698 17.060148 72.824219 17.214844 L 71.238281 18.492188 L 70.316406 17.341797 L 69.826172 17.732422 L 71.238281 19.492188 L 72.824219 18.214844 C 73.004698 18.060148 73.198035 17.88673 73.404297 17.693359 C 73.60229 17.507013 73.715632 17.389777 73.787109 17.308594 C 73.798573 16.939425 73.809631 16.563511 73.828125 16.267578 z M 89.757812 17.291016 C 89.699589 17.837144 89.55431 18.346556 89.322266 18.820312 C 89.025765 19.451988 88.587924 20.076528 88.007812 20.695312 C 87.440593 21.314097 86.751608 21.998396 85.939453 22.746094 L 84.160156 24.408203 L 84.160156 24.544922 L 85.083984 24.544922 L 85.939453 23.746094 C 86.751608 22.998396 87.440593 22.314097 88.007812 21.695312 C 88.587924 21.076528 89.025765 20.451989 89.322266 19.820312 C 89.631658 19.188637 89.787109 18.493011 89.787109 17.732422 C 89.787109 17.581231 89.774195 17.435137 89.757812 17.291016 z M 44.990234 24.15625 C 44.924875 24.234681 44.780816 24.37874 44.558594 24.587891 C 44.349443 24.783969 44.15371 24.960324 43.970703 25.117188 L 42.363281 26.410156 L 41.421875 25.236328 L 40.931641 25.626953 L 42.363281 27.410156 L 43.970703 26.117188 C 44.15371 25.960324 44.349443 25.783969 44.558594 25.587891 C 44.7597 25.398614 44.876539 25.279527 44.949219 25.197266 C 44.961107 24.829108 44.971732 24.452333 44.990234 24.15625 z M 56.210938 24.15625 C 56.145578 24.234681 56.001519 24.37874 55.779297 24.587891 C 55.570147 24.783969 55.374413 24.960324 55.191406 25.117188 L 53.583984 26.410156 L 52.642578 25.236328 L 52.152344 25.626953 L 53.583984 27.410156 L 55.191406 26.117188 C 55.374413 25.960324 55.570147 25.783969 55.779297 25.587891 C 55.980403 25.398614 56.097242 25.279527 56.169922 25.197266 C 56.18181 24.829108 56.192435 24.452333 56.210938 24.15625 z M 110.58008 24.208984 C 110.51561 24.286332 110.37344 24.428504 110.1543 24.634766 C 109.94804 24.828136 109.7547 25.001553 109.57422 25.15625 L 107.99023 26.433594 L 107.06836 25.283203 L 106.57812 25.673828 L 107.99023 27.433594 L 109.57422 26.15625 C 109.7547 26.001553 109.94804 25.828136 110.1543 25.634766 C 110.35233 25.448373 110.46728 25.331177 110.53906 25.25 C 110.5505 24.880831 110.56157 24.504917 110.58008 24.208984 z M 73.751953 27 L 73.751953 28 L 76.671875 28 L 76.671875 27 L 73.751953 27 z M 80.525391 27 L 80.525391 28 L 90.173828 28 L 90.173828 27 L 80.525391 27 z M 110.50391 34.941406 L 110.50391 35.941406 L 113.42383 35.941406 L 113.42383 34.941406 L 110.50391 34.941406 z M 44.912109 35.037109 L 44.912109 36.037109 L 47.873047 36.037109 L 47.873047 35.037109 L 44.912109 35.037109 z M 56.132812 35.037109 L 56.132812 36.037109 L 59.09375 36.037109 L 59.09375 35.037109 L 56.132812 35.037109 z M 33.203125 45.324219 C 32.479315 45.324219 31.983464 45.716605 31.716797 46.503906 C 31.45013 47.291208 31.316406 48.460559 31.316406 50.009766 C 31.316406 50.187453 31.324608 50.342121 31.328125 50.509766 C 31.355273 49.215413 31.480715 48.200908 31.716797 47.503906 C 31.983464 46.716605 32.479315 46.324219 33.203125 46.324219 C 33.914236 46.324219 34.410088 46.716605 34.689453 47.503906 C 34.936901 48.201261 35.067626 49.21641 35.095703 50.511719 C 35.099329 50.343465 35.107422 50.188329 35.107422 50.009766 C 35.107422 48.460559 34.968818 47.291208 34.689453 46.503906 C 34.410088 45.716605 33.914236 45.324219 33.203125 45.324219 z M 131.83594 45.435547 C 131.30739 45.435547 130.79182 45.557799 130.28906 45.802734 C 129.7863 46.04767 129.25745 46.39646 128.70312 46.847656 L 127.61914 45.566406 C 127.44731 45.698824 127.27772 45.833525 127.11719 45.972656 L 128.70312 47.847656 C 129.25745 47.39646 129.7863 47.04767 130.28906 46.802734 C 130.79182 46.557799 131.30739 46.435547 131.83594 46.435547 C 132.35159 46.435547 132.75819 46.571079 133.05469 46.841797 C 133.26285 47.02394 133.39318 47.277155 133.46094 47.587891 C 133.48971 47.421171 133.51758 47.254675 133.51758 47.080078 C 133.51758 46.525751 133.36408 46.112516 133.05469 45.841797 C 132.75819 45.571079 132.35159 45.435547 131.83594 45.435547 z M 21.941406 46.238281 C 21.877914 46.314472 21.737357 46.453075 21.521484 46.65625 C 21.31831 46.846726 21.12895 47.019494 20.951172 47.171875 L 19.388672 48.427734 L 18.488281 47.304688 L 17.998047 47.695312 L 19.388672 49.427734 L 20.951172 48.171875 C 21.12895 48.019494 21.31831 47.846726 21.521484 47.65625 C 21.715217 47.473913 21.827287 47.361136 21.898438 47.28125 C 21.910628 46.910107 21.922851 46.535124 21.941406 46.238281 z M 136.38867 47.291016 C 136.331 47.837144 136.18712 48.346556 135.95508 48.820312 C 135.65858 49.45199 135.22073 50.076529 134.64062 50.695312 C 134.07341 51.314096 133.38247 51.998396 132.57031 52.746094 L 130.79102 54.408203 L 130.79102 54.544922 L 131.71484 54.544922 L 132.57031 53.746094 C 133.38247 52.998396 134.07341 52.314096 134.64062 51.695312 C 135.22073 51.076529 135.65858 50.45199 135.95508 49.820312 C 136.26447 49.188637 136.41797 48.493011 136.41797 47.732422 C 136.41797 47.581231 136.40505 47.435276 136.38867 47.291016 z M 28.478516 50.382812 C 28.471814 50.590196 28.460938 50.793145 28.460938 51.009766 C 28.460938 53.206591 28.841611 54.920598 29.603516 56.152344 C 30.36542 57.38409 31.56503 58 33.203125 58 C 34.358681 58 35.285962 57.72084 35.984375 57.162109 C 36.682788 56.603379 37.183519 55.802989 37.488281 54.761719 C 37.805742 53.720449 37.964844 52.470083 37.964844 51.009766 C 37.964844 50.87752 37.950042 50.76351 37.947266 50.634766 C 37.907183 51.826242 37.758797 52.874428 37.488281 53.761719 C 37.183519 54.802989 36.682788 55.603379 35.984375 56.162109 C 35.285962 56.72084 34.358681 57 33.203125 57 C 31.56503 57 30.36542 56.38409 29.603516 55.152344 C 28.887259 53.994397 28.5214 52.39363 28.478516 50.382812 z M 21.865234 56.808594 L 21.865234 57.808594 L 24.740234 57.808594 L 24.740234 56.808594 L 21.865234 56.808594 z M 127.15625 57 L 127.15625 58 L 136.80469 58 L 136.80469 57 L 127.15625 57 z M 135.78711 75.044922 C 135.62618 75.140448 135.45597 75.228714 135.30859 75.333984 L 136.64258 77.318359 C 136.96047 77.114908 137.36251 76.898805 137.8457 76.669922 C 138.3289 76.441039 138.89447 76.326172 139.54297 76.326172 C 140.24234 76.326172 140.73684 76.466348 141.0293 76.746094 C 141.22325 76.915805 141.34888 77.1337 141.41992 77.390625 C 141.46385 77.227056 141.48828 77.054561 141.48828 76.871094 C 141.48828 76.387896 141.33447 76.013124 141.0293 75.746094 C 140.73684 75.466348 140.24234 75.326172 139.54297 75.326172 C 138.89447 75.326172 138.3289 75.441039 137.8457 75.669922 C 137.36251 75.898805 136.96047 76.114908 136.64258 76.318359 L 135.78711 75.044922 z M 19.685547 75.314453 C 19.124527 75.314453 18.665607 75.512939 18.308594 75.908203 C 17.95158 76.290716 17.771484 76.889049 17.771484 77.705078 C 17.771484 77.873216 17.783058 78.031537 17.802734 78.181641 C 17.866293 77.629775 18.033504 77.20294 18.308594 76.908203 C 18.665607 76.512939 19.124527 76.314453 19.685547 76.314453 C 20.14456 76.314453 20.526018 76.449038 20.832031 76.716797 C 21.138045 76.971806 21.368484 77.302923 21.521484 77.710938 C 21.598936 77.917474 21.655365 78.126382 21.693359 78.335938 C 21.724919 78.209144 21.75 78.081871 21.75 77.953125 C 21.75 77.53236 21.674491 77.118951 21.521484 76.710938 C 21.368484 76.302923 21.138045 75.971806 20.832031 75.716797 C 20.526018 75.449038 20.14456 75.314453 19.685547 75.314453 z M 144.26562 76.818359 C 144.16928 77.492449 143.90231 78.052987 143.45312 78.492188 C 142.89364 79.051678 142.19957 79.433267 141.37305 79.636719 L 141.37305 79.695312 C 141.89539 79.762909 142.356 79.879676 142.75977 80.039062 C 143.00775 79.879133 143.243 79.702318 143.45312 79.492188 C 144.02534 78.932695 144.31055 78.18315 144.31055 77.242188 C 144.31055 77.092406 144.28312 76.958212 144.26562 76.818359 z M 15.015625 78.265625 C 15.004867 78.42601 14.980469 78.575453 14.980469 78.744141 C 14.980469 80.12119 15.329977 81.185223 16.03125 81.9375 C 16.73253 82.689777 17.663932 83.066406 18.824219 83.066406 C 19.691252 83.066406 20.341877 82.913433 20.775391 82.607422 C 21.220869 82.301951 21.576151 81.925701 21.84375 81.480469 C 21.898076 81.160292 21.944853 80.832395 21.960938 80.478516 L 21.845703 80.478516 C 21.577943 80.924782 21.221657 81.301411 20.775391 81.607422 C 20.341877 81.913433 19.691252 82.066406 18.824219 82.066406 C 17.663932 82.066406 16.73253 81.689777 16.03125 80.9375 C 15.42378 80.285848 15.096654 79.38596 15.015625 78.265625 z M 24.599609 79.519531 C 24.579464 80.119951 24.535825 80.72007 24.447266 81.320312 C 24.332512 82.085341 24.129198 82.811475 23.835938 83.5 C 23.555431 84.175774 23.153633 84.780887 22.630859 85.316406 C 22.120846 85.839175 21.463436 86.254536 20.660156 86.560547 C 19.86963 86.853808 18.906278 87 17.771484 87 C 17.503724 87 17.19295 86.988391 16.835938 86.962891 C 16.478924 86.950141 16.177807 86.918188 15.935547 86.867188 L 15.935547 87.867188 C 16.177807 87.918188 16.478924 87.950141 16.835938 87.962891 C 17.19295 87.988391 17.503724 88 17.771484 88 C 18.906278 88 19.86963 87.853808 20.660156 87.560547 C 21.463436 87.254536 22.120846 86.839175 22.630859 86.316406 C 23.153633 85.780887 23.555431 85.175774 23.835938 84.5 C 24.129198 83.811475 24.332512 83.085341 24.447266 82.320312 C 24.562019 81.542535 24.619141 80.764105 24.619141 79.986328 C 24.619141 79.82362 24.60597 79.675325 24.599609 79.519531 z M 137.38672 80.916016 L 137.38672 81.916016 L 138.41797 81.916016 C 139.26992 81.916016 139.92991 81.985126 140.40039 82.125 C 140.88359 82.252157 141.22138 82.449767 141.41211 82.716797 C 141.51795 82.864981 141.58792 83.031578 141.63477 83.210938 C 141.67264 83.042266 141.69727 82.864906 141.69727 82.669922 C 141.69727 82.301166 141.60284 81.983827 141.41211 81.716797 C 141.22138 81.449767 140.88359 81.252157 140.40039 81.125 C 139.92991 80.985126 139.26992 80.916016 138.41797 80.916016 L 137.38672 80.916016 z M 144.67383 83.404297 C 144.6015 83.972214 144.41907 84.49792 144.12109 84.978516 C 143.73962 85.601586 143.14193 86.096088 142.32812 86.464844 C 141.52704 86.820884 140.49032 87 139.21875 87 C 137.74372 87 136.43348 86.751772 135.28906 86.255859 L 135.28906 87.255859 C 136.43348 87.751772 137.74372 88 139.21875 88 C 140.49032 88 141.52704 87.820884 142.32812 87.464844 C 143.14193 87.096088 143.73962 86.601586 144.12109 85.978516 C 144.51528 85.34273 144.71094 84.630171 144.71094 83.841797 C 144.71094 83.688404 144.69078 83.54714 144.67383 83.404297 z M 28.029297 105.10156 C 27.55817 105.10156 27.162077 105.22776 26.84375 105.48242 C 26.538157 105.72435 26.386719 106.06317 26.386719 106.49609 C 26.386719 106.68311 26.420584 106.85111 26.472656 107.00977 C 26.546499 106.80282 26.665205 106.62377 26.84375 106.48242 C 27.162077 106.22776 27.55817 106.10156 28.029297 106.10156 C 28.500417 106.10156 28.894564 106.22776 29.212891 106.48242 C 29.404024 106.62768 29.529365 106.81282 29.605469 107.02734 C 29.656115 106.86427 29.689453 106.6905 29.689453 106.49609 C 29.689453 106.06317 29.531217 105.72435 29.212891 105.48242 C 28.894564 105.22776 28.500417 105.10156 28.029297 105.10156 z M 132.70703 106.39258 C 132.58938 106.65402 132.45824 106.90789 132.31445 107.15625 C 132.18373 107.40462 132.03321 107.66043 131.86328 107.92188 L 129.29492 111.80469 L 129.95703 111.80469 L 131.86328 108.92188 C 132.03321 108.66043 132.18373 108.40462 132.31445 108.15625 C 132.45824 107.90789 132.58938 107.65402 132.70703 107.39258 L 132.71875 107.39258 C 132.72153 107.3113 132.72376 107.21493 132.72656 107.13672 C 132.75266 106.75763 132.77206 106.51022 132.78516 106.39258 L 132.70703 106.39258 z M 32.365234 106.78125 C 32.287106 107.38506 32.067708 107.89789 31.695312 108.31055 C 31.236919 108.8326 30.657345 109.26557 29.957031 109.60938 C 30.244157 109.76049 30.51992 109.93112 30.789062 110.11328 C 31.128742 109.87373 31.434195 109.60793 31.695312 109.31055 C 32.166433 108.78849 32.402344 108.1128 32.402344 107.28516 C 32.402344 107.10984 32.389021 106.94245 32.365234 106.78125 z M 23.708984 106.79883 C 23.687945 106.94895 23.673828 107.10364 23.673828 107.26562 C 23.673828 108.08055 23.884494 108.76303 24.304688 109.31055 C 24.546557 109.60932 24.823513 109.87786 25.121094 110.12891 C 25.358398 109.96745 25.604796 109.81636 25.871094 109.68555 C 25.259907 109.30355 24.737607 108.84533 24.304688 108.31055 C 23.980083 107.88758 23.782983 107.38172 23.708984 106.79883 z M 27.914062 110.86914 C 27.315609 111.14927 26.832151 111.47449 26.462891 111.84375 C 26.106364 112.21301 25.927734 112.65763 25.927734 113.17969 C 25.927734 113.35577 25.956786 113.51621 26 113.66992 C 26.080736 113.36313 26.229564 113.08541 26.462891 112.84375 C 26.832151 112.47449 27.315609 112.14927 27.914062 111.86914 L 28.162109 112.00195 C 28.467703 112.18021 28.772525 112.37924 29.078125 112.5957 C 29.383718 112.79943 29.640023 113.03339 29.84375 113.30078 C 29.944108 113.42623 30.017661 113.56367 30.068359 113.71094 C 30.1158 113.55229 30.148437 113.38489 30.148438 113.19922 C 30.148438 112.85543 30.047477 112.55544 29.84375 112.30078 C 29.640023 112.03339 29.383718 111.79943 29.078125 111.5957 C 28.772525 111.37924 28.467703 111.18021 28.162109 111.00195 L 27.914062 110.86914 z M 23.294922 113.77344 C 23.270817 113.95887 23.253906 114.14925 23.253906 114.35156 C 23.253906 115.4848 23.666494 116.376 24.494141 117.02539 C 25.334527 117.67478 26.518908 118 28.046875 118 C 28.989122 118 29.818203 117.84661 30.53125 117.54102 C 31.257043 117.23542 31.816216 116.80244 32.210938 116.24219 C 32.61839 115.68193 32.822266 115.02664 32.822266 114.27539 C 32.822266 114.10507 32.807815 113.94226 32.785156 113.7832 C 32.7123 114.32515 32.523455 114.81247 32.210938 115.24219 C 31.816216 115.80244 31.257043 116.23542 30.53125 116.54102 C 29.818203 116.84661 28.989122 117 28.046875 117 C 26.518908 117 25.334527 116.67478 24.494141 116.02539 C 23.774973 115.46112 23.388938 114.70302 23.294922 113.77344 z M 126.6875 114.09766 L 126.6875 115.09766 L 132.66797 115.09766 L 132.66797 114.09766 L 126.6875 114.09766 z M 135.55078 114.09766 L 135.55078 115.09766 L 137.23633 115.09766 L 137.23633 114.09766 L 135.55078 114.09766 z M 132.66797 117 L 132.66797 118 L 135.55078 118 L 135.55078 117 L 132.66797 117 z M 55.019531 126.82422 L 49.724609 138.96094 L 47.083984 138.96094 L 46.626953 139.96094 L 49.724609 139.96094 L 55.019531 127.82422 L 55.019531 126.82422 z M 108.73438 127.4375 L 108.48242 130.14453 C 108.51196 130.13932 108.54619 130.13416 108.57617 130.12891 L 108.73438 128.4375 L 113.66406 128.4375 L 113.66406 127.4375 L 108.73438 127.4375 z M 44.980469 127.45117 L 44.980469 128.45117 L 51.425781 128.45117 L 51.882812 127.45117 L 44.980469 127.45117 z M 105.73047 132.03711 L 105.66016 133 L 106.82031 133.61914 C 107.07814 133.55474 107.40037 133.49025 107.78711 133.42578 C 108.17385 133.34848 108.54724 133.31055 108.9082 133.31055 C 110.52396 133.31055 111.4312 133.84459 111.63086 134.91406 C 111.65912 134.75345 111.67383 134.58259 111.67383 134.39844 C 111.67383 133.00617 110.75166 132.31055 108.9082 132.31055 C 108.54724 132.31055 108.17385 132.34848 107.78711 132.42578 C 107.40037 132.49025 107.07814 132.55474 106.82031 132.61914 L 105.73047 132.03711 z M 114.57812 134.55664 C 114.49745 135.85271 114.05931 136.90518 113.2207 137.68555 C 112.29253 138.53637 110.91924 138.96094 109.10156 138.96094 C 108.37964 138.96094 107.69535 138.89649 107.05078 138.76758 C 106.41911 138.63866 105.86565 138.45197 105.38867 138.20703 L 105.38867 139.20703 C 105.86565 139.45197 106.41911 139.63866 107.05078 139.76758 C 107.69535 139.89649 108.37964 139.96094 109.10156 139.96094 C 110.91924 139.96094 112.29253 139.53637 113.2207 138.68555 C 114.14888 137.82183 114.61133 136.64188 114.61133 135.14648 C 114.61133 134.94143 114.59753 134.74679 114.57812 134.55664 z M 82.21875 135.25781 C 81.083957 135.25781 80.204851 135.43596 79.580078 135.79297 C 78.968058 136.14998 78.534304 136.65246 78.279297 137.30273 C 78.024284 137.94026 77.878094 138.67996 77.839844 139.52148 L 77.953125 139.52148 C 77.954287 139.51945 77.955864 139.51766 77.957031 139.51562 C 78.031877 139.08085 78.132459 138.66983 78.279297 138.30273 C 78.534304 137.65246 78.968058 137.14998 79.580078 136.79297 C 80.204851 136.43596 81.083957 136.25781 82.21875 136.25781 C 82.499257 136.25781 82.780034 136.27625 83.060547 136.31445 C 83.353807 136.35275 83.621021 136.39825 83.863281 136.44922 L 83.863281 135.44922 C 83.621021 135.39825 83.353807 135.35275 83.060547 135.31445 C 82.780034 135.27625 82.499257 135.25781 82.21875 135.25781 z M 80.171875 140.1543 C 79.738362 140.1543 79.363689 140.24819 79.044922 140.43945 C 78.738915 140.63071 78.494913 140.87471 78.316406 141.16797 C 78.137898 141.44848 78.048828 141.74087 78.048828 142.04688 C 78.048828 142.25265 78.06864 142.45719 78.105469 142.66016 C 78.149178 142.49233 78.214719 142.32776 78.316406 142.16797 C 78.494913 141.87471 78.738915 141.63071 79.044922 141.43945 C 79.363689 141.24819 79.738362 141.1543 80.171875 141.1543 C 80.796648 141.1543 81.262353 141.34405 81.568359 141.72656 C 81.79677 142.01208 81.93818 142.37656 81.996094 142.81836 C 82.014736 142.65363 82.027344 142.48154 82.027344 142.29492 C 82.027344 141.6319 81.874373 141.10908 81.568359 140.72656 C 81.262353 140.34405 80.796648 140.1543 80.171875 140.1543 z M 75.199219 141.48242 C 75.193087 141.65955 75.179688 141.83589 75.179688 142.01367 C 75.179688 143.37797 75.403349 144.5059 75.849609 145.39844 C 76.295883 146.27822 76.896164 146.93562 77.648438 147.36914 C 78.400711 147.7899 79.241088 148 80.171875 148 C 81.599928 148 82.727861 147.57981 83.556641 146.73828 C 84.398167 145.89675 84.820312 144.73687 84.820312 143.25781 C 84.820312 143.07087 84.798107 142.90399 84.785156 142.72852 C 84.701097 143.97808 84.303762 144.99116 83.556641 145.73828 C 82.727861 146.57981 81.599928 147 80.171875 147 C 79.241088 147 78.400711 146.7899 77.648438 146.36914 C 76.896164 145.93562 76.295883 145.27822 75.849609 144.39844 C 75.456793 143.61279 75.246361 142.63351 75.199219 141.48242 z"/>
  <path style="fill:#dfdfdf" transform="translate(6,6)" d="M 85.416016 13 C 84.59097 13 83.882064 13.09764 83.289062 13.291016 C 82.708952 13.471494 82.193385 13.715998 81.742188 14.025391 C 81.290989 14.321892 80.873068 14.637481 80.486328 14.972656 L 82.072266 16.847656 C 82.626593 16.396459 83.155441 16.049622 83.658203 15.804688 C 84.160966 15.559752 84.676533 15.435547 85.205078 15.435547 C 85.720732 15.435547 86.125374 15.571079 86.421875 15.841797 C 86.731267 16.112515 86.886719 16.52575 86.886719 17.080078 C 86.886719 17.531275 86.789069 17.955837 86.595703 18.355469 C 86.402333 18.742209 86.093383 19.182004 85.667969 19.671875 C 85.242554 20.148855 84.682461 20.746835 83.986328 21.46875 L 80.525391 24.96875 L 80.525391 27 L 90.173828 27 L 90.173828 24.544922 L 84.160156 24.544922 L 84.160156 24.408203 L 85.939453 22.746094 C 86.751608 21.998396 87.440593 21.314097 88.007812 20.695312 C 88.587924 20.076528 89.025765 19.451988 89.322266 18.820312 C 89.631658 18.188637 89.787109 17.493011 89.787109 16.732422 C 89.787109 16.023398 89.607051 15.392218 89.246094 14.837891 C 88.898027 14.270671 88.39574 13.824237 87.738281 13.501953 C 87.093714 13.166778 86.31841 13 85.416016 13 z M 74.273438 13.193359 L 69.826172 16.732422 L 71.238281 18.492188 L 72.824219 17.214844 C 73.004698 17.060148 73.198035 16.88673 73.404297 16.693359 C 73.62345 16.487098 73.763668 16.344926 73.828125 16.267578 C 73.802345 16.680101 73.784374 17.164422 73.771484 17.71875 C 73.758594 18.260186 73.751953 18.691388 73.751953 19.013672 L 73.751953 27 L 76.671875 27 L 76.671875 13.193359 L 74.273438 13.193359 z M 19.626953 73 C 18.1989 73 17.064183 73.422142 16.222656 74.263672 C 15.393876 75.105202 14.980469 76.265088 14.980469 77.744141 C 14.980469 79.12119 15.329977 80.185223 16.03125 80.9375 C 16.73253 81.689777 17.663932 82.066406 18.824219 82.066406 C 19.691252 82.066406 20.341877 81.913433 20.775391 81.607422 C 21.221657 81.301411 21.577943 80.924782 21.845703 80.478516 L 21.960938 80.478516 C 21.922687 81.320046 21.776498 82.066524 21.521484 82.716797 C 21.266478 83.35432 20.825945 83.851972 20.201172 84.208984 C 19.589152 84.565997 18.716825 84.744141 17.582031 84.744141 C 17.301525 84.744141 17.020748 84.723797 16.740234 84.685547 C 16.459728 84.647297 16.19056 84.603737 15.935547 84.552734 L 15.935547 86.867188 C 16.177807 86.918188 16.478922 86.950141 16.835938 86.962891 C 17.19295 86.98839 17.503724 87 17.771484 87 C 18.906278 87 19.86963 86.853808 20.660156 86.560547 C 21.463436 86.254536 22.120846 85.839175 22.630859 85.316406 C 23.153633 84.780887 23.55543 84.175774 23.835938 83.5 C 24.129198 82.811475 24.332512 82.085341 24.447266 81.320312 C 24.562019 80.542535 24.619141 79.764105 24.619141 78.986328 C 24.619141 77.622029 24.395479 76.500875 23.949219 75.621094 C 23.502952 74.72856 22.904624 74.071156 22.152344 73.650391 C 21.40007 73.216875 20.55774 73 19.626953 73 z M 139.75195 73 C 138.76013 73 137.90253 73.126546 137.17773 73.380859 C 136.46565 73.635174 135.84265 73.952513 135.30859 74.333984 L 136.64258 76.318359 C 136.96047 76.114908 137.36251 75.898805 137.8457 75.669922 C 138.3289 75.441039 138.89447 75.326172 139.54297 75.326172 C 140.24234 75.326172 140.73684 75.466348 141.0293 75.746094 C 141.33447 76.013124 141.48828 76.387896 141.48828 76.871094 C 141.48828 77.227134 141.40548 77.546427 141.24023 77.826172 C 141.08764 78.093202 140.7888 78.309305 140.34375 78.474609 C 139.91142 78.627198 139.27479 78.703125 138.43555 78.703125 L 137.38672 78.703125 L 137.38672 80.916016 L 138.41797 80.916016 C 139.26992 80.916016 139.92991 80.985126 140.40039 81.125 C 140.88359 81.252157 141.22138 81.449767 141.41211 81.716797 C 141.60284 81.983827 141.69727 82.301166 141.69727 82.669922 C 141.69727 83.318423 141.48797 83.821694 141.06836 84.177734 C 140.66145 84.533774 139.94404 84.710937 138.91406 84.710938 C 138.35457 84.710938 137.75687 84.635008 137.12109 84.482422 C 136.48531 84.329833 135.87399 84.106914 135.28906 83.814453 L 135.28906 86.255859 C 136.43348 86.751772 137.74372 87 139.21875 87 C 140.49032 87 141.52704 86.820884 142.32812 86.464844 C 143.14193 86.096088 143.73962 85.601586 144.12109 84.978516 C 144.51528 84.34273 144.71094 83.630171 144.71094 82.841797 C 144.71094 81.951697 144.42572 81.239138 143.85352 80.705078 C 143.28131 80.171018 142.45389 79.835185 141.37305 79.695312 L 141.37305 79.636719 C 142.19957 79.433267 142.89364 79.051678 143.45312 78.492188 C 144.02534 77.932695 144.31055 77.18315 144.31055 76.242188 C 144.31055 75.212215 143.89683 74.416913 143.07031 73.857422 C 142.25651 73.285212 141.15068 73 139.75195 73 z M 19.685547 75.314453 C 20.14456 75.314453 20.526018 75.449038 20.832031 75.716797 C 21.138045 75.971806 21.368484 76.302923 21.521484 76.710938 C 21.674491 77.11895 21.75 77.53236 21.75 77.953125 C 21.75 78.259136 21.66093 78.560255 21.482422 78.853516 C 21.303915 79.134026 21.055088 79.36929 20.736328 79.560547 C 20.417568 79.751804 20.04772 79.847656 19.626953 79.847656 C 19.00218 79.847656 18.536475 79.65595 18.230469 79.273438 C 17.924455 78.890923 17.771484 78.368102 17.771484 77.705078 C 17.771484 76.889049 17.95158 76.290716 18.308594 75.908203 C 18.665607 75.512939 19.124527 75.314453 19.685547 75.314453 z M 82.027344 133 C 80.89255 133 79.924367 133.15298 79.121094 133.45898 C 78.33056 133.75224 77.673157 134.16763 77.150391 134.70312 C 76.640377 135.22591 76.238573 135.83101 75.945312 136.51953 C 75.6648 137.1953 75.468269 137.92144 75.353516 138.69922 C 75.238762 139.46425 75.179686 140.23589 75.179688 141.01367 C 75.179688 142.37797 75.403349 143.5059 75.849609 144.39844 C 76.295883 145.27822 76.896164 145.93562 77.648438 146.36914 C 78.400711 146.7899 79.241088 147 80.171875 147 C 81.599928 147 82.727861 146.57981 83.556641 145.73828 C 84.398167 144.89675 84.820312 143.73687 84.820312 142.25781 C 84.820312 140.88077 84.468851 139.81477 83.767578 139.0625 C 83.066298 138.31022 82.116509 137.93555 80.917969 137.93555 C 80.152942 137.93555 79.529442 138.08852 79.044922 138.39453 C 78.573162 138.70054 78.208138 139.07522 77.953125 139.52148 L 77.839844 139.52148 C 77.878094 138.67996 78.024284 137.94026 78.279297 137.30273 C 78.534304 136.65246 78.968058 136.14998 79.580078 135.79297 C 80.204851 135.43596 81.083957 135.25781 82.21875 135.25781 C 82.499257 135.25781 82.780034 135.27625 83.060547 135.31445 C 83.353807 135.35275 83.621021 135.39825 83.863281 135.44922 L 83.863281 133.13477 C 83.621021 133.08377 83.321857 133.05176 82.964844 133.03906 C 82.60783 133.01356 82.295104 133 82.027344 133 z M 80.171875 140.1543 C 80.796648 140.1543 81.262353 140.34405 81.568359 140.72656 C 81.874373 141.10908 82.027344 141.6319 82.027344 142.29492 C 82.027344 143.11095 81.8492 143.71801 81.492188 144.11328 C 81.135172 144.49579 80.676254 144.68555 80.115234 144.68555 C 79.668968 144.68555 79.285557 144.55969 78.966797 144.30469 C 78.66079 144.03693 78.432304 143.69904 78.279297 143.29102 C 78.12629 142.883 78.048828 142.46764 78.048828 142.04688 C 78.048828 141.74087 78.137898 141.44848 78.316406 141.16797 C 78.494913 140.87471 78.738915 140.63071 79.044922 140.43945 C 79.363689 140.24819 79.738362 140.1543 80.171875 140.1543 z"/>
  <path style="opacity:0.28;fill:#dfdfdf" transform="translate(6,6)" d="M 45.441406 21.037109 L 40.931641 24.626953 L 42.363281 26.410156 L 43.970703 25.117188 C 44.15371 24.960324 44.349443 24.783969 44.558594 24.587891 C 44.780816 24.37874 44.924875 24.234681 44.990234 24.15625 C 44.964094 24.574551 44.944711 25.064862 44.931641 25.626953 C 44.918571 26.175973 44.912109 26.612656 44.912109 26.939453 L 44.912109 35.037109 L 47.873047 35.037109 L 47.873047 21.037109 L 45.441406 21.037109 z M 56.662109 21.037109 L 52.152344 24.626953 L 53.583984 26.410156 L 55.191406 25.117188 C 55.374413 24.960324 55.570147 24.783969 55.779297 24.587891 C 56.001519 24.37874 56.145578 24.234681 56.210938 24.15625 C 56.184798 24.574551 56.165414 25.064862 56.152344 25.626953 C 56.139274 26.175973 56.132812 26.612656 56.132812 26.939453 L 56.132812 35.037109 L 59.09375 35.037109 L 59.09375 21.037109 L 56.662109 21.037109 z M 111.02539 21.134766 L 106.57812 24.673828 L 107.99023 26.433594 L 109.57422 25.15625 C 109.7547 25.001553 109.94804 24.828136 110.1543 24.634766 C 110.37344 24.428504 110.51561 24.286332 110.58008 24.208984 C 110.55428 24.621507 110.53624 25.105828 110.52344 25.660156 C 110.51054 26.201593 110.50391 26.632795 110.50391 26.955078 L 110.50391 34.941406 L 113.42383 34.941406 L 113.42383 21.134766 L 111.02539 21.134766 z M 33.203125 43 C 32.047569 43 31.120288 43.27916 30.421875 43.837891 C 29.723462 44.396621 29.222731 45.203844 28.917969 46.257812 C 28.613207 47.299082 28.460938 48.549448 28.460938 50.009766 C 28.460938 52.206591 28.841611 53.920598 29.603516 55.152344 C 30.36542 56.38409 31.56503 57 33.203125 57 C 34.358681 57 35.285962 56.72084 35.984375 56.162109 C 36.682788 55.603379 37.183519 54.802989 37.488281 53.761719 C 37.805742 52.720449 37.964844 51.470083 37.964844 50.009766 C 37.964844 47.800242 37.577338 46.079402 36.802734 44.847656 C 36.028131 43.61591 34.828522 43 33.203125 43 z M 132.04883 43 C 131.22378 43 130.51487 43.09569 129.92188 43.289062 C 129.34177 43.469541 128.8262 43.715998 128.375 44.025391 C 127.92381 44.321891 127.50393 44.637481 127.11719 44.972656 L 128.70312 46.847656 C 129.25745 46.39646 129.7863 46.04767 130.28906 45.802734 C 130.79182 45.557799 131.30739 45.435547 131.83594 45.435547 C 132.35159 45.435547 132.75819 45.571079 133.05469 45.841797 C 133.36408 46.112516 133.51758 46.525751 133.51758 47.080078 C 133.51758 47.531275 133.42188 47.955837 133.22852 48.355469 C 133.03515 48.742209 132.72619 49.182004 132.30078 49.671875 C 131.87537 50.148854 131.31332 50.746835 130.61719 51.46875 L 127.15625 54.96875 L 127.15625 57 L 136.80469 57 L 136.80469 54.544922 L 130.79102 54.544922 L 130.79102 54.408203 L 132.57031 52.746094 C 133.38247 51.998396 134.07341 51.314096 134.64062 50.695312 C 135.22073 50.076529 135.65858 49.45199 135.95508 48.820312 C 136.26447 48.188637 136.41797 47.493011 136.41797 46.732422 C 136.41797 46.023398 136.23791 45.390265 135.87695 44.835938 C 135.52889 44.268718 135.0266 43.824237 134.36914 43.501953 C 133.72457 43.166778 132.95122 43 132.04883 43 z M 22.378906 43.208984 L 17.998047 46.695312 L 19.388672 48.427734 L 20.951172 47.171875 C 21.12895 47.019494 21.31831 46.846726 21.521484 46.65625 C 21.737357 46.453075 21.877914 46.314472 21.941406 46.238281 C 21.916006 46.64463 21.895503 47.119984 21.882812 47.666016 C 21.870113 48.199349 21.865234 48.625899 21.865234 48.943359 L 21.865234 56.808594 L 24.740234 56.808594 L 24.740234 43.208984 L 22.378906 43.208984 z M 33.203125 45.324219 C 33.914236 45.324219 34.410088 45.716605 34.689453 46.503906 C 34.968818 47.291208 35.107422 48.460559 35.107422 50.009766 C 35.107422 51.57167 34.968818 52.739069 34.689453 53.513672 C 34.410088 54.288275 33.914236 54.675781 33.203125 54.675781 C 32.479315 54.675781 31.983464 54.288275 31.716797 53.513672 C 31.45013 52.72637 31.316406 51.558972 31.316406 50.009766 C 31.316406 48.460559 31.45013 47.291208 31.716797 46.503906 C 31.983464 45.716605 32.479315 45.324219 33.203125 45.324219 z M 28.046875 103 C 27.282888 103 26.563525 103.12135 25.888672 103.36328 C 25.226552 103.60521 24.69261 103.97412 24.285156 104.4707 C 23.877696 104.95456 23.673828 105.55257 23.673828 106.26562 C 23.673828 107.08056 23.884494 107.76303 24.304688 108.31055 C 24.737606 108.84533 25.259907 109.30355 25.871094 109.68555 C 25.145314 110.04207 24.526905 110.51194 24.017578 111.09766 C 23.508258 111.67064 23.253906 112.42205 23.253906 113.35156 C 23.253906 114.4848 23.666494 115.376 24.494141 116.02539 C 25.334527 116.67478 26.518908 117 28.046875 117 C 28.989122 117 29.818203 116.84661 30.53125 116.54102 C 31.257043 116.23542 31.816216 115.80244 32.210938 115.24219 C 32.618389 114.68193 32.822266 114.02664 32.822266 113.27539 C 32.822266 112.67694 32.68247 112.14784 32.402344 111.68945 C 32.13495 111.23106 31.777685 110.83692 31.332031 110.50586 C 30.899105 110.16207 30.440885 109.86402 29.957031 109.60938 C 30.657345 109.26556 31.236919 108.8326 31.695312 108.31055 C 32.166433 107.78849 32.402344 107.1128 32.402344 106.28516 C 32.402344 105.55937 32.198469 104.95456 31.791016 104.4707 C 31.396289 103.97412 30.867198 103.60521 30.205078 103.36328 C 29.555698 103.12135 28.836328 103 28.046875 103 z M 132.82422 103 L 126.6875 112.03906 L 126.6875 114.09766 L 132.66797 114.09766 L 132.66797 117 L 135.55078 117 L 135.55078 114.09766 L 137.23633 114.09766 L 137.23633 111.80469 L 135.55078 111.80469 L 135.55078 103 L 132.82422 103 z M 28.029297 105.10156 C 28.500417 105.10156 28.894564 105.22776 29.212891 105.48242 C 29.531217 105.72435 29.689453 106.06317 29.689453 106.49609 C 29.689453 106.99268 29.524419 107.38683 29.193359 107.67969 C 28.862299 107.95981 28.479795 108.20252 28.046875 108.40625 C 27.601215 108.18978 27.213874 107.93351 26.882812 107.64062 C 26.551753 107.34779 26.386719 106.96721 26.386719 106.49609 C 26.386719 106.06317 26.538157 105.72435 26.84375 105.48242 C 27.162077 105.22776 27.55817 105.10156 28.029297 105.10156 z M 132.70703 106.39258 L 132.78516 106.39258 C 132.77206 106.51022 132.75266 106.75763 132.72656 107.13672 C 132.71346 107.50273 132.7006 107.90262 132.6875 108.33398 C 132.6744 108.76536 132.66797 109.13099 132.66797 109.43164 L 132.66797 111.80469 L 129.29492 111.80469 L 131.86328 107.92188 C 132.03321 107.66043 132.18373 107.40462 132.31445 107.15625 C 132.45824 106.90789 132.58938 106.65402 132.70703 106.39258 z M 27.914062 110.86914 L 28.162109 111.00195 C 28.467703 111.18021 28.772525 111.37924 29.078125 111.5957 C 29.383718 111.79943 29.640023 112.03339 29.84375 112.30078 C 30.047477 112.55544 30.148438 112.85543 30.148438 113.19922 C 30.148437 113.70855 29.969808 114.11628 29.613281 114.42188 C 29.256761 114.72746 28.722819 114.88086 28.009766 114.88086 C 27.322179 114.88086 26.799886 114.72067 26.443359 114.40234 C 26.099566 114.08402 25.927734 113.67628 25.927734 113.17969 C 25.927734 112.65763 26.106364 112.21301 26.462891 111.84375 C 26.832151 111.47449 27.315611 111.14927 27.914062 110.86914 z M 44.980469 124.96094 L 44.980469 127.45117 L 51.882812 127.45117 L 46.626953 138.96094 L 49.724609 138.96094 L 55.019531 126.82422 L 55.019531 124.96094 L 44.980469 124.96094 z M 106.18164 124.96094 L 105.66016 132 L 106.82031 132.61914 C 107.07814 132.55474 107.40037 132.49025 107.78711 132.42578 C 108.17385 132.34848 108.54724 132.31055 108.9082 132.31055 C 110.75166 132.31055 111.67383 133.00617 111.67383 134.39844 C 111.67383 135.14614 111.44065 135.69959 110.97656 136.06055 C 110.52536 136.40861 109.86763 136.58398 109.00391 136.58398 C 108.41091 136.58398 107.77972 136.49958 107.10938 136.33203 C 106.43903 136.15156 105.86565 135.9383 105.38867 135.69336 L 105.38867 138.20703 C 105.86565 138.45197 106.41911 138.63866 107.05078 138.76758 C 107.69535 138.89649 108.37964 138.96094 109.10156 138.96094 C 110.91924 138.96094 112.29253 138.53637 113.2207 137.68555 C 114.14888 136.82183 114.61133 135.64188 114.61133 134.14648 C 114.61133 133.2312 114.41799 132.46448 114.03125 131.8457 C 113.6574 131.22692 113.14182 130.75588 112.48438 130.43359 C 111.82691 130.11131 111.08013 129.95117 110.24219 129.95117 C 109.79099 129.95117 109.43556 129.97574 109.17773 130.02734 C 108.93279 130.06604 108.70158 130.10584 108.48242 130.14453 L 108.73438 127.4375 L 113.66406 127.4375 L 113.66406 124.96094 L 106.18164 124.96094 z"/>
 </g>
 <g id="HourHand">
  <rect style="opacity:0.001" width="22" height="91" x="69" y="69"/>
  <path style="fill:#dfdfdf" d="m 80,80 c 2.216,0 4,1.784 4,4 v 34 c 0,2.216 -1.784,4 -4,4 -2.216,0 -4,-1.784 -4,-4 V 84 c 0,-2.216 1.784,-4 4,-4 z"/>
 </g>
 <g id="SecondHand">
  <rect style="opacity:0.001" width="22" height="91" x="69" y="69"/>
  <path style="fill:#8ab4f8" d="m 81,75.99958 v 78.99958 c 0,0 0,4.2e-4 -1,4.2e-4 -1,0 -1,4.2e-4 -1,4.2e-4 V 75.99985 Z"/>
  <circle style="opacity:0.05" cx="80" cy="80" r="10"/>
  <circle style="opacity:0.05" cx="80" cy="80" r="10"/>
  <circle style="fill:#4f4f4f" cx="80" cy="80" r="10"/>
 </g>
 <g id="MinuteHand">
  <rect style="opacity:0.001" width="22" height="91" x="69" y="69"/>
  <path style="fill:#909090" d="m 80,80 c 1.662,0 3,1.338 3,3 v 44 c 0,1.662 -1.338,3 -3,3 -1.662,0 -3,-1.338 -3,-3 V 83 c 0,-1.662 1.338,-3 3,-3 z"/>
  <circle style="opacity:0.05" cx="80" cy="80" r="10"/>
  <circle style="opacity:0.05" cx="80" cy="80" r="10"/>
  <circle style="fill:#4f4f4f" cx="80" cy="80" r="10"/>
 </g>
 <circle id="hint-hourhand-rotation-center-offset" style="fill:#ff00ff" cx="80" cy="80" r="2"/>
 <circle id="hint-minutehand-rotation-center-offset" style="fill:#ff00ff" cx="80" cy="80" r="2"/>
 <circle id="hint-secondhand-rotation-center-offset" style="fill:#ff00ff" cx="80" cy="80" r="2"/>
</svg>
