<svg xmlns="http://www.w3.org/2000/svg" id="svg2" width="208" height="208" version="1">
 <g id="MinuteHand">
  <rect id="rect913" width="10" height="96" x="278" y="29" style="opacity:0.001;fill:#000000;fill-opacity:1;stroke:none;stroke-width:2.24587631;stroke-linecap:round;stroke-linejoin:round;stroke-miterlimit:4;stroke-dasharray:none;stroke-opacity:1"/>
  <rect id="rect901" width="8" height="94" x="279" y="30" rx="1" ry="1" style="opacity:0.05;fill:none;fill-opacity:1;stroke:#000000;stroke-width:1;stroke-linecap:round;stroke-linejoin:round;stroke-miterlimit:4;stroke-dasharray:none;stroke-opacity:1"/>
  <rect style="opacity:0.05;fill:none;fill-opacity:1;stroke:#000000;stroke-width:2;stroke-linecap:round;stroke-linejoin:round;stroke-miterlimit:4;stroke-dasharray:none;stroke-opacity:1" id="rect911" width="8" height="94" x="279" y="30" rx="1" ry="1"/>
  <rect style="opacity:1;fill:#ffffff;fill-opacity:1;stroke:none;stroke-width:3.40760469;stroke-linecap:round;stroke-linejoin:round;stroke-miterlimit:4;stroke-dasharray:none;stroke-opacity:1" id="rect861" width="8" height="94" x="279" y="30" rx="1" ry="1"/>
 </g>
 <g id="HourHand">
  <rect id="rect841" width="10" height="52" x="250" y="73" style="opacity:0.001;fill:#000000;fill-opacity:1;stroke:none;stroke-width:1.51423514;stroke-linecap:round;stroke-linejoin:round;stroke-miterlimit:4;stroke-dasharray:none;stroke-opacity:1"/>
  <rect style="opacity:0.05;fill:none;fill-opacity:1;stroke:#000000;stroke-width:1;stroke-linecap:round;stroke-linejoin:round;stroke-miterlimit:4;stroke-dasharray:none;stroke-opacity:1" id="rect845" width="8" height="50" x="251" y="74" rx="1" ry="1"/>
  <rect id="rect847" width="8" height="50" x="251" y="74" rx="1" ry="1" style="opacity:0.05;fill:none;fill-opacity:1;stroke:#000000;stroke-width:2;stroke-linecap:round;stroke-linejoin:round;stroke-miterlimit:4;stroke-dasharray:none;stroke-opacity:1"/>
  <rect id="rect839" width="8" height="50" x="251" y="74" rx="1" ry="1" style="opacity:1;fill:#ffffff;fill-opacity:1;stroke:none;stroke-width:2.48525119;stroke-linecap:round;stroke-linejoin:round;stroke-miterlimit:4;stroke-dasharray:none;stroke-opacity:1"/>
 </g>
 <g id="SecondHand">
  <rect id="rect991" width="20" height="100" x="214" y="122" style="opacity:0.00100002;fill:#000000;fill-opacity:1;stroke:none;stroke-width:2.23606825;stroke-linecap:round;stroke-linejoin:round;stroke-miterlimit:4;stroke-dasharray:none;stroke-opacity:1"/>
  <path style="fill:#ff7f2a;fill-opacity:1;stroke:none;stroke-width:1.18447495" id="rect6212" d="m 225,129 v 92.99916 c 0,0 0,4.2e-4 -1,4.2e-4 -1,0 -1,4.2e-4 -1,4.2e-4 v -92.99973 z"/>
  <circle style="opacity:0.05;fill:none;fill-opacity:1;stroke:#000000;stroke-width:1;stroke-linecap:round;stroke-linejoin:round;stroke-miterlimit:4;stroke-dasharray:none;stroke-opacity:1" id="circle987" cx="224" cy="132" r="9"/>
  <circle id="circle989" cx="224" cy="132" r="9" style="opacity:0.05;fill:none;fill-opacity:1;stroke:#000000;stroke-width:2;stroke-linecap:round;stroke-linejoin:round;stroke-miterlimit:4;stroke-dasharray:none;stroke-opacity:1"/>
  <circle id="path967" cx="224" cy="132" r="9" style="opacity:1;fill:#ffffff;fill-opacity:1;stroke:none;stroke-width:1.95237434;stroke-linecap:round;stroke-linejoin:round;stroke-miterlimit:4;stroke-dasharray:none;stroke-opacity:1"/>
 </g>
 <g id="ClockFace">
  <rect id="rect4224" width="180" height="180" x="-202" y="-194" rx="90" ry="90" transform="matrix(0,-1,-1,0,0,0)" style="opacity:0.02000002;fill:#000000;fill-opacity:1"/>
  <rect id="rect4226" width="180" height="180" x="-201" y="-194" rx="90" ry="90" transform="matrix(0,-1,-1,0,0,0)" style="opacity:0.02000002;fill:#000000;fill-opacity:1"/>
  <rect id="rect4228" width="180" height="180" x="-200" y="-194" rx="90" ry="90" transform="matrix(0,-1,-1,0,0,0)" style="opacity:0.02000002;fill:#000000;fill-opacity:1"/>
  <rect id="rect4230" width="180" height="180" x="-199" y="-194" rx="90" ry="90" transform="matrix(0,-1,-1,0,0,0)" style="opacity:0.02000002;fill:#000000;fill-opacity:1"/>
  <rect id="rect4217" width="208" height="208" x="0" y="0" style="opacity:0.00100002;fill:#000000;fill-opacity:1;fill-rule:nonzero;stroke:none;stroke-width:2;stroke-linecap:round;stroke-linejoin:round;stroke-miterlimit:4;stroke-dasharray:none;stroke-opacity:1"/>
  <rect id="rect4197" width="180" height="180" x="-198" y="-194" rx="90" ry="90" transform="matrix(0,-1,-1,0,0,0)" style="opacity:0.02000002;fill:#000000;fill-opacity:1"/>
  <rect id="rect4199" width="180" height="180" x="-197" y="-194" rx="90" ry="90" transform="matrix(0,-1,-1,0,0,0)" style="opacity:0.02000002;fill:#000000;fill-opacity:1"/>
  <rect id="rect4201" width="180" height="180" x="-196" y="-194" rx="90" ry="90" transform="matrix(0,-1,-1,0,0,0)" style="opacity:0.02000002;fill:#000000;fill-opacity:1"/>
  <rect id="rect4203" width="180" height="180" x="-195" y="-194" rx="90" ry="90" transform="matrix(0,-1,-1,0,0,0)" style="opacity:0.02000002;fill:#000000;fill-opacity:1"/>
  <rect id="rect4" width="180" height="180" x="-194" y="-194" rx="90" ry="90" transform="matrix(0,-1,-1,0,0,0)" style="fill:#303030;fill-opacity:1"/>
  <rect style="fill:#009688;fill-opacity:1;stroke-width:0.83333331" id="rect932" width="150" height="150" x="-179" y="-179" rx="75" ry="75" transform="matrix(0,-1,-1,0,0,0)"/>
  <path style="font-style:normal;font-variant:normal;font-weight:normal;font-stretch:normal;font-size:24px;line-height:1.25;font-family:'Noto Sans Mono CJK KR';-inkscape-font-specification:'Noto Sans Mono CJK KR';letter-spacing:0px;word-spacing:0px;opacity:0.4;fill:#ffffff;fill-opacity:1;stroke:none;stroke-width:1.04268873" id="path859" d="M 97.396484 36 C 96.452552 36.605042 95.564942 37.259618 94 37.511719 L 94 39 L 97 39 L 97 52 L 93 52 L 93 54 L 103 54 L 103 52 L 99 52 L 99 36 L 97.396484 36 z M 109.46094 36 C 107.43606 36 106.34477 37.039143 105.07617 38.574219 L 106.41797 39.837891 C 107.19864 38.748482 107.97356 38 109.19336 38 C 110.97428 38 112 39.267994 112 41.199219 C 112 44.294129 109.4157 47.512809 105 52.6875 L 105 54 L 115 54 L 115 52 L 108.5 52 C 112.03744 47.568088 113.99805 44.442745 113.99805 41.125 C 113.99805 38.03009 112.2665 36 109.46094 36 z M 73.90625 49.039062 A 4 4 0 0 0 72 49.574219 A 4 4 0 0 0 70.535156 55.039062 A 4 4 0 0 0 76 56.501953 A 4 4 0 0 0 77.464844 51.039062 A 4 4 0 0 0 73.90625 49.039062 z M 134.09375 49.039062 A 4 4 0 0 0 130.53516 51.039062 A 4 4 0 0 0 132 56.501953 A 4 4 0 0 0 137.46484 55.039062 A 4 4 0 0 0 136 49.574219 A 4 4 0 0 0 134.09375 49.039062 z M 51.849609 71.003906 A 4 4 0 0 0 48.574219 73 A 4 4 0 0 0 50.039062 78.464844 A 4 4 0 0 0 55.501953 77 A 4 4 0 0 0 54.039062 71.535156 A 4 4 0 0 0 51.849609 71.003906 z M 156.15039 71.003906 A 4 4 0 0 0 153.96094 71.535156 A 4 4 0 0 0 152.49805 77 A 4 4 0 0 0 157.96094 78.464844 A 4 4 0 0 0 159.42578 73 A 4 4 0 0 0 156.15039 71.003906 z M 40.644531 95 C 38.131841 95 36 97.19564 36 100.53711 C 36 104.09808 37.750961 105.92773 40.212891 105.92773 C 41.558071 105.92773 42.801165 105.14729 43.765625 103.97656 C 43.638725 109.34241 41.913336 111.12109 40.035156 111.12109 C 39.070686 111.12109 38.132578 110.63491 37.523438 109.78125 L 36.228516 111.16992 C 37.091466 112.2187 38.385427 113 40.060547 113 C 43.258517 113 46 110.3408 46 103.31641 C 46 97.85299 43.614081 95 40.644531 95 z M 167.01172 95 C 165.25864 95 163.75355 95.90163 162.56836 97.169922 L 163.82812 98.560547 C 164.69233 97.511767 165.72872 96.830078 166.83984 96.830078 C 168.37071 96.830078 169.35742 97.829791 169.35742 99.537109 C 169.35742 101.31759 168.22273 102.83008 165.25977 102.83008 L 165.25977 104.53711 C 168.54373 104.53711 169.80273 105.8771 169.80273 108.02344 C 169.80273 109.99905 168.46878 111.12109 166.81445 111.12109 C 165.2589 111.12109 164.04975 110.24304 163.18555 109.12109 L 162 110.56055 C 162.98765 111.82888 164.64275 113 167.0625 113 C 169.80324 113 172 111.17087 172 108.14648 C 172 105.68307 170.51885 104.12257 168.83984 103.63477 L 168.83984 103.53711 C 170.42008 102.85418 171.53125 101.48714 171.53125 99.316406 C 171.53125 96.584739 169.70309 95 167.01172 95 z M 40.695312 96.78125 C 42.421193 96.78125 43.537194 98.634341 43.740234 102.19531 C 42.725004 103.70751 41.583623 104.21875 40.695312 104.21875 C 39.096322 104.21875 38.208984 102.95174 38.208984 100.53711 C 38.208984 98.244421 39.223222 96.78125 40.695312 96.78125 z M 52.226562 131.00391 A 4 4 0 0 0 50.039062 131.53516 A 4 4 0 0 0 48.574219 137 A 4 4 0 0 0 54.039062 138.46484 A 4 4 0 0 0 55.501953 133 A 4 4 0 0 0 52.226562 131.00391 z M 155.77344 131.00391 A 4 4 0 0 0 152.49805 133 A 4 4 0 0 0 153.96094 138.46484 A 4 4 0 0 0 159.42578 137 A 4 4 0 0 0 157.96094 131.53516 A 4 4 0 0 0 155.77344 131.00391 z M 74.09375 152.96289 A 4 4 0 0 0 70.535156 154.96094 A 4 4 0 0 0 72 160.42578 A 4 4 0 0 0 77.464844 158.96094 A 4 4 0 0 0 76 153.49805 A 4 4 0 0 0 74.09375 152.96289 z M 133.90625 152.96289 A 4 4 0 0 0 132 153.49805 A 4 4 0 0 0 130.53516 158.96094 A 4 4 0 0 0 136 160.42578 A 4 4 0 0 0 137.46484 154.96094 A 4 4 0 0 0 133.90625 152.96289 z M 104.93945 154 C 101.74148 154 99 156.63481 99 163.68359 C 99 169.147 101.38593 172 104.35547 172 C 106.86816 172 109 169.80436 109 166.46289 C 109 162.90192 107.24904 161.07227 104.78711 161.07227 C 103.44193 161.07227 102.19885 161.85271 101.23438 163.02344 C 101.36128 157.65759 103.08667 155.87891 104.96484 155.87891 C 105.92931 155.87891 106.86742 156.36509 107.47656 157.21875 L 108.77148 155.80469 C 107.90853 154.7803 106.61458 154 104.93945 154 z M 104.30469 162.78125 C 105.90368 162.78125 106.79102 164.04826 106.79102 166.46289 C 106.79102 168.73119 105.77677 170.21875 104.30469 170.21875 C 102.57881 170.21875 101.46281 168.36566 101.25977 164.80469 C 102.27501 163.29249 103.41637 162.78125 104.30469 162.78125 z"/>
 </g>
</svg>
