<svg xmlns="http://www.w3.org/2000/svg" id="svg59" width="172" height="172" version="1">
 <g id="ClockFace">
  <rect id="rect19" style="opacity:0.00100002;stroke-width:0.82692307" width="172" height="172" x="0" y="0"/>
  <path id="rect21" style="opacity:0.02999998" d="M 86 11 C 127.55 11 161 44.45 161 86 C 161 127.55 127.55 161 86 161 C 44.45 161 11 127.55 11 86 C 11 44.45 44.45 11 86 11 z M 86 11 C 43.342 11 9 45.342 9 88 C 9 130.658 43.342 165 86 165 C 128.658 165 163 130.658 163 88 C 163 45.342 128.658 11 86 11 z"/>
  <path id="rect23" style="opacity:0.02999998" d="M 35.357422 30.595703 C 19.490995 44.592954 9.5 65.081272 9.5 88 C 9.5 130.381 43.619 164.5 86 164.5 C 128.381 164.5 162.5 130.381 162.5 88 C 162.5 65.081272 152.509 44.592954 136.64258 30.595703 C 151.62511 44.290392 161 64.008401 161 86 C 161 127.55 127.55 161 86 161 C 44.45 161 11 127.55 11 86 C 11 64.008401 20.374889 44.290392 35.357422 30.595703 z"/>
  <path id="rect25" style="opacity:0.02999998" d="M 21.027344 48.447266 C 14.027531 59.956171 10 73.490124 10 88 C 10 130.104 43.896 164 86 164 C 128.104 164 162 130.104 162 88 C 162 73.490124 157.97247 59.956171 150.97266 48.447266 C 157.3425 59.480709 161 72.293788 161 86 C 161 127.55 127.55 161 86 161 C 44.45 161 11 127.55 11 86 C 11 72.293788 14.657502 59.480709 21.027344 48.447266 z"/>
  <path id="rect27" style="opacity:0.02999998" d="M 13.154297 68.076172 C 11.43422 74.421081 10.5 81.09602 10.5 88 C 10.5 129.827 44.173 163.5 86 163.5 C 127.827 163.5 161.5 129.827 161.5 88 C 161.5 81.09602 160.56578 74.421081 158.8457 68.076172 C 160.24393 73.817535 161 79.816253 161 86 C 161 127.55 127.55 161 86 161 C 44.45 161 11 127.55 11 86 C 11 79.816253 11.756068 73.817535 13.154297 68.076172 z"/>
  <path id="rect29" style="opacity:0.02999998" d="M 15.230469 61.070312 C 12.176051 69.290099 10.5 78.191152 10.5 87.5 C 10.5 129.327 44.173 163 86 163 C 127.827 163 161.5 129.327 161.5 87.5 C 161.5 78.191152 159.82395 69.290099 156.76953 61.070312 C 159.49994 68.865475 161 77.249537 161 86 C 161 127.55 127.55 161 86 161 C 44.45 161 11 127.55 11 86 C 11 77.249537 12.500061 68.865475 15.230469 61.070312 z"/>
  <path id="rect31" style="opacity:0.02999998" d="M 21.427734 47.75 C 14.490093 59.173893 10.5 72.603657 10.5 87 C 10.5 128.827 44.173 162.5 86 162.5 C 127.827 162.5 161.5 128.827 161.5 87 C 161.5 72.603657 157.50991 59.173893 150.57227 47.75 C 157.19294 58.938167 161 72.005488 161 86 C 161 127.55 127.55 161 86 161 C 44.45 161 11 127.55 11 86 C 11 72.005488 14.807058 58.938167 21.427734 47.75 z"/>
  <path id="rect33" style="opacity:0.02999998" d="M 82.103516 11.097656 C 42.101451 13.112309 10.5 45.980094 10.5 86.5 C 10.5 128.327 44.173 162 86 162 C 127.827 162 161.5 128.327 161.5 86.5 C 161.5 45.971582 129.88509 13.099766 89.871094 11.097656 C 129.60824 13.098967 161 45.748438 161 86 C 161 127.55 127.55 161 86 161 C 44.45 161 11 127.55 11 86 C 11 45.748438 42.391756 13.098967 82.128906 11.097656 C 82.120502 11.098077 82.111919 11.097233 82.103516 11.097656 z"/>
  <path id="rect35" style="opacity:0.02999998" d="M 86 10.5 C 44.173 10.5 10.5 44.173 10.5 86 C 10.5 127.827 44.173 161.5 86 161.5 C 127.827 161.5 161.5 127.827 161.5 86 C 161.5 44.173 127.827 10.5 86 10.5 z M 86 11 C 127.55 11 161 44.45 161 86 C 161 127.55 127.55 161 86 161 C 44.45 161 11 127.55 11 86 C 11 44.45 44.45 11 86 11 z"/>
  <rect id="rect37" style="fill:#383838" width="150" height="150" x="-161" y="-161" rx="75" ry="75" transform="matrix(0,-1,-1,0,0,0)"/>
  <path id="path39" style="fill:#dfdfdf" d="M 79.396484,18 C 78.452552,18.605042 77.564942,19.259618 76,19.511719 V 21 h 3 v 13 h -4 v 2 H 85 V 34 H 81 V 18 Z m 12.064456,0 c -2.02488,0 -3.11617,1.039143 -4.38477,2.574219 l 1.3418,1.263672 C 89.19864,20.748482 89.97356,20 91.19336,20 92.97428,20 94,21.267994 94,23.199219 c 0,3.09491 -2.5843,6.31359 -7,11.488281 V 36 H 97 V 34 H 90.5 C 94.03744,29.568088 95.99805,26.442745 95.99805,23.125 95.99805,20.03009 94.2665,18 91.46094,18 Z M 22.644531,77 C 20.131841,77 18,79.195638 18,82.53711 c 0,3.56097 1.750961,5.39062 4.212891,5.39062 1.34518,0 2.588274,-0.78044 3.552734,-1.95117 -0.1269,5.36585 -1.852289,7.14453 -3.730469,7.14453 -0.96447,0 -1.902578,-0.48618 -2.511718,-1.33984 l -1.294922,1.38867 C 19.091466,94.2187 20.385427,95 22.060547,95 25.258517,95 28,92.3408 28,85.31641 28,79.852982 25.614081,77 22.644531,77 Z m 126.367189,0 c -1.75308,0 -3.25817,0.90163 -4.44336,2.169922 l 1.25976,1.390625 c 0.86422,-1.04878 1.9006,-1.730469 3.01172,-1.730469 1.53087,0 2.51758,0.999713 2.51758,2.707031 0,1.780481 -1.13469,3.292971 -4.09765,3.292971 v 1.70703 c 3.28396,0 4.54296,1.33999 4.54296,3.48633 0,1.97561 -1.33395,3.09765 -2.98828,3.09765 -1.55555,0 -2.7647,-0.87805 -3.6289,-2 L 144,92.56055 C 144.98765,93.82888 146.64275,95 149.0625,95 151.80324,95 154,93.17087 154,90.14648 c 0,-2.46341 -1.48115,-4.02391 -3.16016,-4.51171 v -0.0977 c 1.58024,-0.68293 2.69141,-2.04997 2.69141,-4.220704 C 153.53125,78.584779 151.70309,77 149.01172,77 Z M 22.695312,78.78125 c 1.725882,0 2.841882,1.853095 3.044922,5.41406 -1.01523,1.5122 -2.15661,2.02344 -3.044922,2.02344 -1.59899,0 -2.486328,-1.26701 -2.486328,-3.68164 0,-2.292691 1.014238,-3.75586 2.486328,-3.75586 z M 86.93945,136 C 83.74148,136 81,138.63481 81,145.68359 81,151.147 83.38593,154 86.35547,154 88.86816,154 91,151.80436 91,148.46289 c 0,-3.56097 -1.75096,-5.39062 -4.21289,-5.39062 -1.34518,0 -2.58826,0.78044 -3.55273,1.95117 0.12689,-5.36585 1.85229,-7.14453 3.73046,-7.14453 0.96447,0 1.90258,0.48618 2.51172,1.33984 l 1.29492,-1.41406 C 89.90853,136.7803 88.61458,136 86.93945,136 Z m -0.63476,8.78125 c 1.59899,0 2.48633,1.26701 2.48633,3.68164 0,2.2683 -1.01425,3.75586 -2.48633,3.75586 -1.72588,0 -2.84188,-1.85309 -3.04492,-5.41406 1.01524,-1.5122 2.1566,-2.02344 3.04492,-2.02344 z"/>
  <path id="path41" style="fill:#696969" d="M 55.90625,31.039062 A 4,4 0 0 0 54,31.574219 4,4 0 0 0 52.535156,37.039062 4,4 0 0 0 58,38.501953 a 4,4 0 0 0 1.464844,-5.462891 4,4 0 0 0 -3.558594,-2 z m 60.1875,0 a 4,4 0 0 0 -3.55859,2 A 4,4 0 0 0 114,38.501953 4,4 0 0 0 119.46484,37.039062 4,4 0 0 0 118,31.574219 4,4 0 0 0 116.09375,31.039062 Z M 34.132812,53 A 4,4 0 0 0 33.849609,53.0039 4,4 0 0 0 30.574219,55 4,4 0 0 0 32.039062,60.464844 4,4 0 0 0 37.501953,59 4,4 0 0 0 36.039062,53.535156 4,4 0 0 0 34.132812,53 Z M 138.15039,53.0039 A 4,4 0 0 0 135.96094,53.53515 4,4 0 0 0 134.49805,59 4,4 0 0 0 139.96094,60.464844 4,4 0 0 0 141.42578,55 4,4 0 0 0 138.15039,53.003906 Z M 138.05469,113 a 4,4 0 0 0 -0.28125,0.004 4,4 0 0 0 -3.27539,1.99609 4,4 0 0 0 1.46289,5.46484 A 4,4 0 0 0 141.42578,119 4,4 0 0 0 139.96094,113.53516 4,4 0 0 0 138.05469,113 Z m -103.828128,0.004 a 4,4 0 0 0 -2.1875,0.53125 A 4,4 0 0 0 30.574219,119 4,4 0 0 0 36.039062,120.46484 4,4 0 0 0 37.501953,115 4,4 0 0 0 34.226562,113.00391 Z M 56.09375,134.96289 A 4,4 0 0 0 52.535156,136.96094 4,4 0 0 0 54,142.42578 4,4 0 0 0 59.464844,140.96094 4,4 0 0 0 58,135.49805 4,4 0 0 0 56.09375,134.96289 Z m 59.8125,0 A 4,4 0 0 0 114,135.49805 a 4,4 0 0 0 -1.46484,5.46289 4,4 0 0 0 5.46484,1.46484 4,4 0 0 0 1.46484,-5.46484 4,4 0 0 0 -3.55859,-1.99805 z"/>
 </g>
 <g id="SecondHand">
  <rect id="rect8" style="opacity:0.00100002;stroke-width:1.02761829" width="22" height="96" x="233" y="76"/>
  <path id="path10" style="fill:#ff9800" d="m 245,83 v 78.99958 c 0,0 0,4.2e-4 -1,4.2e-4 -1,0 -1,4.2e-4 -1,4.2e-4 V 83.00027 Z"/>
  <circle id="circle848" style="fill:none;stroke-width:2;stroke:#000000;stroke-opacity:1;stroke-miterlimit:4;stroke-dasharray:none;opacity:0.05" cx="244" cy="87" r="10"/>
  <circle id="circle846" style="fill:none;stroke-width:1;stroke:#000000;stroke-opacity:1;stroke-miterlimit:4;stroke-dasharray:none;opacity:0.05" cx="244" cy="87" r="10"/>
  <circle id="circle16" style="fill:#4f4f4f;stroke-width:1.11111116" cx="244" cy="87" r="10"/>
 </g>
 <g id="MinuteHand" transform="translate(-35,-36)">
  <rect id="rect52" style="opacity:0.05;fill:none;stroke:#000000;stroke-width:2;stroke-linecap:round;stroke-linejoin:bevel" width="6" height="94" x="241" y="113" rx="3" ry="3"/>
  <rect id="rect54" style="opacity:0.05;fill:none;stroke:#000000;stroke-linecap:round;stroke-linejoin:bevel" width="6" height="94" x="241" y="113" rx="3" ry="3"/>
  <rect id="rect56" style="fill:#dfdfdf" width="6" height="94" x="241" y="113" rx="3" ry="3"/>
 </g>
 <g id="HourHand">
  <rect id="rect872" style="opacity:0.00100002;fill:#000000;fill-opacity:1;stroke:none;stroke-width:0.72735339;stroke-linecap:round;stroke-linejoin:round;stroke-miterlimit:4;stroke-dasharray:none;stroke-opacity:1" width="10" height="96" x="176" y="76"/>
  <path id="path917" style="fill:none;stroke:#000000;stroke-opacity:1;opacity:0.05" d="m 181.00002,76.999998 c -2.20914,0 -4,1.79086 -4,4 V 127 v 1 c 0,2.216 1.784,4 4,4 2.216,0 4,-1.784 4,-4 v -1 -46.000002 c 0,-2.20914 -1.79086,-4 -4,-4 z"/>
  <path id="path919" style="fill:none;stroke:#000000;stroke-opacity:1;opacity:0.05;stroke-width:2;stroke-miterlimit:4;stroke-dasharray:none" d="m 181.00002,76.999998 c -2.20914,0 -4,1.79086 -4,4 V 127 v 1 c 0,2.216 1.784,4 4,4 2.216,0 4,-1.784 4,-4 v -1 -46.000002 c 0,-2.20914 -1.79086,-4 -4,-4 z"/>
  <path id="HourHand2" style="fill:#dfdfdf" d="m 181.00002,76.999998 c -2.20914,0 -4,1.79086 -4,4 V 127 v 1 c 0,2.216 1.784,4 4,4 2.216,0 4,-1.784 4,-4 v -1 -46.000002 c 0,-2.20914 -1.79086,-4 -4,-4 z"/>
 </g>
</svg>
