<svg xmlns="http://www.w3.org/2000/svg" width="200" height="100" version="1">
 <rect style="opacity:0" width="16" height="16" x="200" y="21"/>
 <rect style="opacity:0;fill:#ffffff" width="16" height="16" x="212.5" y="20"/>
 <g id="return-to-source" transform="matrix(3.7795277,0,0,3.7795277,42,-922.51949)">
  <rect style="fill:#ca5c5c;opacity:0" width="4.233" height="4.233" x="18.52" y="254.14"/>
  <path style="fill:#dfdfdf" transform="matrix(0.26458333,0,0,0.26458333,-0.52916771,249.37493)" d="M 74.890625,19 C 73.843696,19 73,19.843696 73,20.890625 l 0,10.21875 C 73,32.156304 73.843696,33 74.890625,33 l 10.21875,0 C 86.156304,33 87,32.156304 87,31.109375 l 0,-10.21875 C 87,19.843696 86.156304,19 85.109375,19 l -10.21875,0 z M 77,20 l 6,0 c 0,-0.04158 -3,4 -3,4 l -3,-4 z m -3,5 12,0 0,2 -12,0 0,-2 z m 6,3 c 0,0 3,4.041575 3,4 l -6,0 3,-4 z"/>
 </g>
 <g id="add" transform="matrix(3.7795277,0,0,3.7795277,42,-922.51949)">
  <rect style="fill:none" width="4.233" height="4.233" x="9" y="258.9"/>
  <rect style="fill:none" width="3.175" height="3.175" x="9.53" y="259.43"/>
  <path style="fill:#dfdfdf" transform="matrix(0.26458333,0,0,0.26458333,-0.52916771,249.37493)" d="m 43,38 0,5 -5,0 0,2 5,0 0,5 2,0 0,-5 5,0 0,-2 -5,0 0,-5 -2,0 z"/>
 </g>
 <g id="remove" transform="matrix(3.7795277,0,0,3.7795277,42.00002,-922.51949)">
  <rect style="fill:none" width="4.233" height="4.233" x="13.76" y="258.9"/>
  <rect style="fill:none" width="3.175" height="3.175" x="14.29" y="259.43"/>
  <rect style="fill:#dfdfdf" width=".529" height="3.175" x="260.75" y="-17.46" transform="matrix(0,1,-1,0,0,0)"/>
 </g>
 <g id="filter" transform="matrix(3.7795277,0,0,3.7795277,42.00002,-922.51949)">
  <rect style="fill:none" width="4.233" height="4.233" x="18.52" y="258.9"/>
  <rect style="fill:none" width="3.175" height="3.175" x="19.05" y="259.43"/>
  <path style="fill:#dfdfdf" transform="matrix(0.26458333,0,0,0.26458333,-0.60971093,244.13962)" d="m 76.304688,57.787109 -1,1 0,1 3,5.259766 0,2.740234 0,0.002 3,1.996094 0,0.002 1,0 0,-0.539062 0,-4.201172 3,-5.259766 0,-1 -1,-1 -8,0 z m 1,2 3,0 -1,1 0,1 -2,-2 z"/>
 </g>
 <g id="configure" transform="matrix(3.7795277,0,0,3.7795277,42,-922.51949)">
  <rect style="fill:#ca5c5c;opacity:0" width="4.233" height="4.233" x="4.23" y="249.38"/>
  <g transform="matrix(0.26458333,0,0,0.26458333,-107.96654,136.13326)">
   <path style="fill:#dfdfdf" d="m 430.25,429 -0.1543,1.84375 a 5.5,5.5 0 0 0 -1.60742,0.92969 l -1.67578,-0.78906 -1.75,3.03124 1.52148,1.05665 a 5.5,5.5 0 0 0 -0.084,0.92773 5.5,5.5 0 0 0 0.0801,0.93164 l -1.51758,1.05274 1.75,3.03124 1.67188,-0.7871 a 5.5,5.5 0 0 0 1.61132,0.92382 L 430.25,443 l 3.5,0 0.1543,-1.84375 a 5.5,5.5 0 0 0 1.60742,-0.92969 l 1.67578,0.78906 1.75,-3.03124 -1.52148,-1.05665 a 5.5,5.5 0 0 0 0.084,-0.92773 5.5,5.5 0 0 0 -0.0801,-0.93164 l 1.51758,-1.05274 -1.75,-3.03124 -1.67188,0.7871 a 5.5,5.5 0 0 0 -1.61132,-0.92382 L 433.75,429 l -3.5,0 z m 1.75,5 a 2,2 0 0 1 2,2 2,2 0 0 1 -2,2 2,2 0 0 1 -2,-2 2,2 0 0 1 2,-2 z"/>
  </g>
 </g>
 <g id="rotate" transform="matrix(3.7795277,0,0,3.7795277,42,-922.51949)">
  <rect style="fill:#ca5c5c;opacity:0" width="4.233" height="4.233" x="9" y="249.38"/>
  <g style="enable-background:new" transform="matrix(0.26458333,0,0,0.26458333,8.9964326,249.37058)">
   <g transform="translate(-425.00247,99.016457)">
    <path style="fill:#dfdfdf" d="m 433.0002,-98 c -3.86599,0 -7,3.13401 -7,7 0,3.86599 3.13401,7 7,7 3.17482,0 5.86154,-2.10317 6.71875,-5 l -2.15625,0 c -0.77427,1.75952 -2.51681,3 -4.5625,3 -2.76142,0 -5,-2.23858 -5,-5 0,-2.76142 2.23858,-5 5,-5 1.38155,0 2.61548,0.575049 3.51562,1.484375 L 434.0002,-92 l 6,0 0,-6 -2.05273,2.052734 C 436.67897,-97.212023 434.93408,-98 433.0002,-98 Z"/>
   </g>
  </g>
 </g>
 <g id="size-vertical" transform="matrix(3.7795277,0,0,3.7795277,42,-922.51949)">
  <rect style="fill:#ca5c5c;opacity:0" width="4.233" height="4.233" x="18.52" y="249.38"/>
  <path style="fill:#dfdfdf" transform="matrix(0.26458333,0,0,0.26458333,-0.52916771,249.37493)" d="m 80,1 -3,4 6,0 C 83,5.041575 80,1 80,1 Z m 0,5 a 2,2 0 0 0 -2,2 2,2 0 0 0 2,2 2,2 0 0 0 2,-2 2,2 0 0 0 -2,-2 z m -3,5 3,4 c 0,0 3,-4.041575 3,-4 l -6,0 z"/>
 </g>
 <g id="size-horizontal" transform="matrix(3.7795277,0,0,3.7795277,42,-922.51949)">
  <rect style="fill:#ca5c5c;opacity:0" width="4.233" height="4.233" x="23.28" y="249.38"/>
  <path style="fill:#dfdfdf" d="m 27.252082,251.4916 -1.058333,-0.79375 0,1.5875 c -0.011,0 1.058333,-0.79375 1.058333,-0.79375 z m -1.322917,0 a 0.52916666,0.52916666 0 0 0 -0.529166,-0.52917 0.52916666,0.52916666 0 0 0 -0.529167,0.52917 0.52916666,0.52916666 0 0 0 0.529167,0.52916 0.52916666,0.52916666 0 0 0 0.529166,-0.52916 z m -1.322916,-0.79375 -1.058334,0.79375 c 0,0 1.069334,0.79375 1.058334,0.79375 l 0,-1.5875 z"/>
 </g>
 <g id="move" transform="matrix(3.7795277,0,0,3.7795277,42,-922.51949)">
  <rect style="fill:#ca5c5c;opacity:0" width="4.233" height="4.233" x="13.76" y="249.38"/>
  <path style="fill:#dfdfdf" transform="matrix(0.26458333,0,0,0.26458333,-0.52916771,249.37493)" d="m 62,1 -3,4 6,0 C 65,5.041575 62,1 62,1 Z m 3,4 0,6 c -0.04157,0 4,-3 4,-3 L 65,5 Z m 0,6 -6,0 3,4 c 0,0 3,-4.041575 3,-4 z m -6,0 0,-6 -4,3 c 0,0 4.041575,3 4,3 z m 3,-5 a 2,2 0 0 0 -2,2 2,2 0 0 0 2,2 2,2 0 0 0 2,-2 2,2 0 0 0 -2,-2 z"/>
 </g>
 <g id="size-diagonal-tl2br" transform="matrix(3.7795277,0,0,3.7795277,42,-922.51949)">
  <rect style="fill:#ca5c5c;opacity:0" width="4.233" height="4.233" x="-.53" y="254.14"/>
  <g style="enable-background:new" transform="matrix(0.26458333,0,0,0.26458333,-0.52906453,254.13655)">
   <g transform="translate(-265.00059,79.003339)">
    <path style="fill:#dfdfdf" transform="translate(265.0002,-97.000013)" d="m 2,20 c -1.00000002,0 -1,1 -1,1 l 0,4 2,0 0,-1.542969 3.2421875,3.242188 L 7.65625,25.285156 4.3710938,22 6,22 6,20 2,20 Z m 8,0 0,2 3,0 0,3 2,0 0,-4 c 0,-1 -1,-1 -1,-1 l -4,0 z m -9,7 0,4 c 0,1 1,1 1,1 l 4,0 0,-2 -3,0 0,-3 -2,0 z m 12,0 0,3 -3,0 0,2 4,0 c 0,0 1,0 1,-1 l 0,-4 -2,0 z"/>
   </g>
  </g>
 </g>
 <g id="maximize" transform="matrix(3.7795277,0,0,3.7795277,42,-922.51949)">
  <rect style="fill:#ca5c5c;opacity:0" width="4.233" height="4.233" x="4.23" y="254.14"/>
  <g style="enable-background:new" transform="matrix(-0.26458333,0,0,0.26458333,8.4665622,254.13655)">
   <g transform="translate(-265.00059,79.003339)">
    <path style="fill:#dfdfdf" transform="translate(247.0002,-97.000013)" d="m 20,20 c -1,0 -1,1 -1,1 l 0,4 2,0 0,-1.542969 3.242188,3.242188 L 25.65625,25.285156 22.371094,22 24,22 l 0,-2 -4,0 z m 8,0 0,2 3,0 0,3 2,0 0,-4 c 0,-1 -1,-1 -1,-1 l -4,0 z m -9,7 0,4 c 0,1 1,1 1,1 l 4,0 0,-2 -3,0 0,-3 -2,0 z m 12,0 0,3 -3,0 0,2 4,0 c 0,0 1,0 1,-1 l 0,-4 -2,0 z"/>
   </g>
  </g>
 </g>
 <g id="unmaximize" transform="matrix(3.7795277,0,0,3.7795277,42,-922.51949)">
  <rect style="fill:#ca5c5c;opacity:0" width="4.233" height="4.233" x="9" y="254.14"/>
  <path style="fill:#dfdfdf" d="m 9.5249988,254.6666 c 0,0 -0.2645833,0 -0.2645833,0.26458 l 0,1.05833 0.5291667,0 0,-0.79375 0.7937498,0 0,-0.52916 -1.0583332,0 z"/>
  <path style="fill:#dfdfdf" d="m 12.234911,254.74618 -0.857829,0.85783 0,-0.40825 -0.529167,0 0,1.05833 c 0,0 10e-7,0.26459 0.264584,0.26459 l 1.058333,0 0,-0.52917 -0.430981,0 0.869197,-0.8692 -0.374137,-0.37413 z"/>
  <path style="fill:#dfdfdf" d="m 9.2604155,256.51868 0,1.05833 c 0,0.26458 0.2645833,0.26459 0.2645833,0.26459 l 1.0583332,0 0,-0.52917 -0.7937498,0 0,-0.79375 -0.5291667,0 z"/>
  <path style="fill:#dfdfdf" d="m 12.435415,256.51868 0,0.79375 -0.79375,0 0,0.52917 1.058334,0 c 0,0 0.264583,-1e-5 0.264583,-0.26459 l 0,-1.05833 -0.529167,0 z"/>
 </g>
 <g id="size-diagonal-tr2bl" transform="matrix(3.7795277,0,0,3.7795277,42,-922.51949)">
  <rect style="fill:#ca5c5c;opacity:0" width="4.233" height="4.233" x="28.05" y="249.38"/>
  <g style="enable-background:new" transform="matrix(-0.26458333,0,0,0.26458333,32.279062,249.37405)">
   <g transform="translate(-265.00059,79.003339)">
    <path style="fill:#dfdfdf" transform="matrix(-0.99999998,0,0,0.99999998,389.0002,-79.000013)" d="m 110,2 c 0,0 -1,0 -1,1 l 0,4 2,0 0,-3 3,0 0,-2 -4,0 z m 8,0 0,2 1.62891,0 -3.28516,3.2851562 1.41406,1.4140626 L 121,5.4570312 121,7 l 2,0 0,-4 c 0,0 0,-1 -1,-1 l -4,0 z M 114.24219,7.3007812 111,10.542969 111,9 l -2,0 0,4 c 0,0 0,1 1,1 l 4,0 0,-2 -1.62891,0 3.28516,-3.2851562 -1.41406,-1.4140626 z M 121,9 l 0,3 -3,0 0,2 4,0 c 0,0 1,0 1,-1 l 0,-4 -2,0 z"/>
   </g>
  </g>
 </g>
 <g id="status" transform="matrix(3.7795277,0,0,3.7795277,42,-922.51949)">
  <rect style="fill:#ca5c5c;opacity:0" width="4.233" height="4.233" x="13.76" y="254.14"/>
  <g style="enable-background:new" transform="matrix(0.26458333,0,0,0.26458333,13.750344,254.00514)">
   <g transform="translate(-345.00021,-61)">
    <path style="fill:#dfdfdf" d="m 357.84395,64.03125 c -0.21888,0.0473 -0.42059,0.17053 -0.5625,0.34375 l -6.28125,7.1875 -2.25,-2.25 c -0.37633,-0.37638 -1.06119,-0.3764 -1.43755,-5e-5 -0.37635,0.37636 -0.37633,1.06122 5e-5,1.43755 l 3,3 0.78125,0.75 0.6875,-0.8125 7,-8 c 0.56742,-0.61773 -0.11583,-1.8248 -0.9375,-1.65625 z"/>
   </g>
  </g>
 </g>
 <g id="collapse" transform="matrix(3.7795277,0,0,3.7795277,42,-922.51949)">
  <rect style="fill:#ca5c5c;opacity:0" width="4.233" height="4.233" x="23.28" y="254.14"/>
  <path style="fill:#dfdfdf" transform="matrix(0.26458333,0,0,0.26458333,-0.52916771,249.37493)" d="m 95,19 3,4 c 0,0 3,-4.041575 3,-4 l -6,0 z m -4,6 0,2 14,0 0,-2 -14,0 z m 7,4 -3,4 6,0 c 0,0.04158 -3,-4 -3,-4 z"/>
 </g>
 <g id="restore" transform="matrix(3.7795277,0,0,3.7795277,42,-922.51949)">
  <rect style="fill:#ca5c5c;opacity:0" width="4.233" height="4.233" x="28.05" y="254.14"/>
  <path style="fill:#dfdfdf" transform="matrix(0.26458333,0,0,0.26458333,-0.52916771,249.37493)" d="m 116,19 -3,4 6,0 c 0,0.04158 -3,-4 -3,-4 z m -7,6 0,2 14,0 0,-2 -14,0 z m 4,4 3,4 c 0,0 3,-4.041575 3,-4 l -6,0 z"/>
 </g>
 <g id="help" transform="matrix(3.7795277,0,0,3.7795277,42,-922.51949)">
  <rect style="fill:#ca5c5c;opacity:0" width="4.233" height="4.233" x="-.53" y="258.9"/>
  <g transform="matrix(0.26458333,0,0,0.26458333,-118.00412,149.89071)">
   <path style="fill:#dfdfdf" d="m 452.99983,427.00336 -2,0 0,-2 2,0 z m 2.07,-7.75 -0.9,0.92 c -0.72,0.73 -1.17,1.33 -1.17,2.83 l -2,0 0,-0.5 c 0,-1.1 0.45,-2.1 1.17,-2.83 l 1.24,-1.26 c 0.37,-0.36 0.59,-0.86 0.59,-1.41 0,-1.1 -0.9,-2 -2,-2 -1.1,0 -2,0.9 -2,2 l -2,0 c 0,-2.21 1.79,-4 4,-4 2.21,0 4,1.79 4,4 0,0.88 -0.36,1.68 -0.93,2.25 z"/>
  </g>
 </g>
 <g id="delete" transform="matrix(3.7795277,0,0,3.7795277,42,-922.51949)">
  <rect style="fill:#ca5c5c;opacity:0" width="4.233" height="4.233" x="4.23" y="258.9"/>
  <g style="enable-background:new" transform="matrix(0.26458333,0,0,0.26458333,4.233393,258.90089)">
   <g transform="translate(-385.00043,78.996356)">
    <path style="fill:#dfdfdf" d="m 387.0002,-74 0,9 c 5e-5,0.52358 0.47642,0.99995 1,1 l 8,0 1,0 c 0.52358,-5e-5 0.99995,-0.47642 1,-1 l 0,-9 z"/>
    <path style="fill:#dfdfdf" d="m 386.0002,-76 0,1 13.0002,-0.0034 -2e-4,-0.99664 c 0,-1 -0.9998,-1.00336 -0.9998,-1.00336 l -3,0 c 0,0 0,-1 -1,-1 l -3,0 c -1,0 -1,1 -1,1 l -3,0 c 0,0 -1.0002,0.003 -1.0002,1.00336 z"/>
   </g>
  </g>
 </g>
 <g id="menu">
  <rect style="opacity:0.001" width="15.999" height="15.999" x="40" y="20.02"/>
  <path style="fill:#dfdfdf" d="M 48 21 A 2 2 0 0 0 46 23 A 2 2 0 0 0 48 25 A 2 2 0 0 0 50 23 A 2 2 0 0 0 48 21 z M 48 26 A 2 2 0 0 0 46 28 A 2 2 0 0 0 48 30 A 2 2 0 0 0 50 28 A 2 2 0 0 0 48 26 z M 48 31 A 2 2 0 0 0 46 33 A 2 2 0 0 0 48 35 A 2 2 0 0 0 50 33 A 2 2 0 0 0 48 31 z"/>
 </g>
 <g id="close">
  <rect style="opacity:0.001" width="16" height="16" x="130" y="55.99"/>
  <g style="enable-background:new" transform="matrix(1.4994104,0,0,1.4999561,36.042451,-724.97673)">
   <g transform="translate(19,-242)">
    <path style="fill:#dfdfdf" d="m 45,764 1,0 c 0.01037,-1.2e-4 0.02079,-4.6e-4 0.03125,0 0.254951,0.0112 0.50987,0.12858 0.6875,0.3125 L 49,766.59375 51.3125,764.3125 C 51.578125,764.082 51.759172,764.007 52,764 l 1,0 0,1 c 0,0.28647 -0.03434,0.55065 -0.25,0.75 l -2.28125,2.28125 2.25,2.25 C 52.906938,770.46942 52.999992,770.7347 53,771 l 0,1 -1,0 c -0.265301,-10e-6 -0.530586,-0.0931 -0.71875,-0.28125 L 49,769.4375 46.71875,771.71875 C 46.530586,771.90694 46.26529,772 46,772 l -1,0 0,-1 c -3e-6,-0.26529 0.09306,-0.53058 0.28125,-0.71875 l 2.28125,-2.25 L 45.28125,765.75 C 45.070508,765.55537 44.97809,765.28075 45,765 l 0,-1 z"/>
   </g>
  </g>
 </g>
</svg>
