<svg xmlns="http://www.w3.org/2000/svg" xmlns:xlink="http://www.w3.org/1999/xlink" id="svg2" width="60" height="90" version="1">
 <defs id="defs16">
  <linearGradient id="linearGradient4206">
   <stop id="stop4208" offset="0" style="stop-color:#009688;stop-opacity:1"/>
   <stop id="stop4210" offset="1" style="stop-color:#009688;stop-opacity:0"/>
  </linearGradient>
  <linearGradient id="linearGradient4152" x1="33" x2="33" y1="22" y2="10" gradientUnits="userSpaceOnUse" xlink:href="#linearGradient4206"/>
  <linearGradient id="linearGradient4178" x1="28" x2="28" y1="28" y2="16" gradientUnits="userSpaceOnUse" xlink:href="#linearGradient4206"/>
  <linearGradient id="linearGradient4186" x1="28" x2="28" y1="-40" y2="-52" gradientUnits="userSpaceOnUse" xlink:href="#linearGradient4206"/>
  <linearGradient id="linearGradient4194" x1="-34" x2="-34" y1="-34" y2="-46" gradientUnits="userSpaceOnUse" xlink:href="#linearGradient4206"/>
  <radialGradient id="radialGradient4204" cx="40" cy="-34" r="6" fx="40" fy="-34" gradientTransform="matrix(2,0,0,2,-40,34)" gradientUnits="userSpaceOnUse" xlink:href="#linearGradient4206"/>
  <radialGradient id="radialGradient4212" cx="34" cy="28" r="6" fx="34" fy="28" gradientTransform="matrix(2,0,0,2,-34,-28)" gradientUnits="userSpaceOnUse" xlink:href="#linearGradient4206"/>
  <radialGradient id="radialGradient4214" cx="40" cy="22" r="6" fx="40" fy="22" gradientTransform="matrix(2,0,0,2,-40,-22)" gradientUnits="userSpaceOnUse" xlink:href="#linearGradient4206"/>
  <radialGradient id="radialGradient4216" cx="-22" cy="28" r="6" fx="-22" fy="28" gradientTransform="matrix(2,0,0,2,22,-28)" gradientUnits="userSpaceOnUse" xlink:href="#linearGradient4206"/>
 </defs>
 <rect id="hint-glow-radius" width="5" height="5" x="5" y="46" style="opacity:1;fill:#4f8100;fill-opacity:1;fill-rule:nonzero;stroke:none;stroke-width:6.69999981;stroke-linecap:round;stroke-linejoin:round;stroke-miterlimit:4;stroke-dasharray:none;stroke-dashoffset:0;stroke-opacity:1"/>
 <rect id="hint-stretch-borders" width="5" height="5" x="5" y="54" style="opacity:1;fill:#4f8100;fill-opacity:1;fill-rule:nonzero;stroke:none;stroke-width:6.69999981;stroke-linecap:round;stroke-linejoin:round;stroke-miterlimit:4;stroke-dasharray:none;stroke-dashoffset:0;stroke-opacity:1"/>
 <rect id="center" width="12.01" height="12.01" x="14.02" y="20.11" style="opacity:0;fill:#ffffff;fill-opacity:1;fill-rule:nonzero;stroke:none;stroke-width:6.69999980999999956;stroke-linecap:round;stroke-linejoin:round;stroke-miterlimit:4;stroke-dasharray:none;stroke-dashoffset:0;stroke-opacity:1"/>
 <path id="topright" d="m 40,10 c 0,0 12,0 12,12 l -12,0 z" style="fill:url(#radialGradient4214);fill-opacity:1;opacity:1"/>
 <path id="topleft" d="m -22,16 c 12,0 12,12 12,12 l -12,0 z" transform="matrix(0,-1,1,0,0,0)" style="fill:url(#radialGradient4216);fill-opacity:1;opacity:1"/>
 <rect id="top" width="12" height="12" x="28" y="10" style="fill:url(#linearGradient4152);fill-opacity:1.0;opacity:1"/>
 <rect id="right" width="12" height="12" x="22" y="-52" transform="matrix(0,1,-1,0,0,0)" style="fill:url(#linearGradient4186);fill-opacity:1.0;opacity:1"/>
 <path id="bottomright" d="m 40,-46 c 0,0 12,0 12,12 l -12,0 z" transform="scale(1,-1)" style="fill:url(#radialGradient4204);fill-opacity:1.0;opacity:1"/>
 <rect id="bottom" width="12" height="12" x="-40" y="-46" transform="scale(-1,-1)" style="fill:url(#linearGradient4194);fill-opacity:1.0;opacity:1"/>
 <rect id="left" width="12" height="12" x="22" y="16" transform="matrix(0,1,1,0,0,0)" style="fill:url(#linearGradient4178);fill-opacity:1.0;opacity:1"/>
 <path id="bottomleft" d="m 34,16 c 12,0 12,12 12,12 l -12,0 z" transform="matrix(0,1,1,0,0,0)" style="fill:url(#radialGradient4212);fill-opacity:1;opacity:1"/>
</svg>
