<svg xmlns="http://www.w3.org/2000/svg" xmlns:xlink="http://www.w3.org/1999/xlink" id="svg28" width="36" height="52" version="1">
 <defs id="defs15">
  <linearGradient id="linearGradient4206">
   <stop id="stop2" style="stop-color:#8ab4f8" offset="0"/>
   <stop id="stop4" style="stop-color:#8ab4f8;stop-opacity:0" offset="1"/>
  </linearGradient>
  <linearGradient id="linearGradient4152" x1="33" x2="33" y1="22" y2="10" gradientTransform="translate(-16,6)" gradientUnits="userSpaceOnUse" xlink:href="#linearGradient4206"/>
  <linearGradient id="linearGradient4178" x1="28" x2="28" y1="28" y2="16" gradientTransform="translate(6,-16)" gradientUnits="userSpaceOnUse" xlink:href="#linearGradient4206"/>
  <linearGradient id="linearGradient4186" x1="28" x2="28" y1="-40" y2="-52" gradientTransform="translate(6,16)" gradientUnits="userSpaceOnUse" xlink:href="#linearGradient4206"/>
  <linearGradient id="linearGradient4194" x1="-34" x2="-34" y1="-34" y2="-46" gradientTransform="translate(16,-6)" gradientUnits="userSpaceOnUse" xlink:href="#linearGradient4206"/>
  <radialGradient id="radialGradient4204" cx="40" cy="-34" r="6" fx="40" fy="-34" gradientTransform="matrix(2,0,0,-2,-56,-28)" gradientUnits="userSpaceOnUse" xlink:href="#linearGradient4206"/>
  <radialGradient id="radialGradient4212" cx="34" cy="28" r="6" fx="34" fy="28" gradientTransform="matrix(0,2,2,0,-44,-28)" gradientUnits="userSpaceOnUse" xlink:href="#linearGradient4206"/>
  <radialGradient id="radialGradient4214" cx="40" cy="22" r="6" fx="40" fy="22" gradientTransform="matrix(2,0,0,2,-56,-16)" gradientUnits="userSpaceOnUse" xlink:href="#linearGradient4206"/>
  <radialGradient id="radialGradient4216" cx="-22" cy="28" r="6" fx="-22" fy="28" gradientTransform="matrix(0,-2,2,0,-44,-16)" gradientUnits="userSpaceOnUse" xlink:href="#linearGradient4206"/>
 </defs>
 <rect id="hint-glow-radius" style="fill:#ff00ff" width="5" height="5" x="0" y="0"/>
 <rect id="hint-stretch-borders" style="fill:#ff00ff" width="5" height="5" x="0" y="8"/>
 <path id="topright" style="fill:url(#radialGradient4214)" d="m 24,16 c 0,0 12,0 12,12 H 24 Z"/>
 <path id="topleft" style="fill:url(#radialGradient4216)" d="M 0,28 C 0,16 12,16 12,16 v 12 z"/>
 <rect id="top" style="fill:url(#linearGradient4152)" width="12" height="12" x="12" y="16"/>
 <rect id="right" style="fill:url(#linearGradient4186)" width="12" height="12" x="28" y="-36" transform="rotate(90)"/>
 <path id="bottomright" style="fill:url(#radialGradient4204)" d="m 24,52 c 0,0 12,0 12,-12 H 24 Z"/>
 <rect id="bottom" style="fill:url(#linearGradient4194)" width="12" height="12" x="-24" y="-52" transform="scale(-1)"/>
 <rect id="left" style="fill:url(#linearGradient4178)" width="12" height="12" x="28" y="0" transform="matrix(0,1,1,0,0,0)"/>
 <path id="bottomleft" style="fill:url(#radialGradient4212)" d="M 0,40 C 0,52 12,52 12,52 V 40 Z"/>
 <rect id="center" style="opacity:0.00100002;fill:#000000" width="12.01" height="12.01" x="12" y="28"/>
</svg>
