<svg xmlns="http://www.w3.org/2000/svg" width="76" height="66" version="1.1">
 <rect id="hint-tile-center" style="fill:#ff00ff" width="2" height="2" x="0" y="36"/>
 <path id="groove-bottomright" style="opacity:0.3;fill:#ffffff" d="m 7,53 v 1 h 1 v -1 z"/>
 <path id="groove-right" style="opacity:0.3;fill:#ffffff" d="m 7,51 v 1 h 1 v -1 z"/>
 <path id="groove-topright" style="opacity:0.3;fill:#ffffff" d="m 7,49 v 1 h 1 v -1 z"/>
 <path id="groove-bottomleft" style="opacity:0.3;fill:#ffffff" d="m 3,53 v 1 h 1 v -1 z"/>
 <path id="groove-left" style="opacity:0.3;fill:#ffffff" d="m 3,51 v 1 h 1 v -1 z"/>
 <path id="groove-topleft" style="opacity:0.3;fill:#ffffff" d="M 4,49 H 3 v 1 h 1 z"/>
 <path id="groove-bottom" style="opacity:0.3;fill:#ffffff" d="m 5,53 v 1 h 1 v -1 z"/>
 <path id="groove-center" style="opacity:0.3;fill:#ffffff" d="M 6,51 H 5 v 1 h 1 z"/>
 <path id="groove-top" style="opacity:0.3;fill:#ffffff" d="m 5,49 v 1 h 1 v -1 z"/>
 <path id="groove-highlight-bottomright" style="fill:#8ab4f8" d="m 7,62 v 1 h 1 v -1 z"/>
 <path id="groove-highlight-right" style="fill:#8ab4f8" d="m 7,60 v 1 h 1 v -1 z"/>
 <path id="groove-highlight-topright" style="fill:#8ab4f8" d="m 7,58 v 1 h 1 v -1 z"/>
 <path id="groove-highlight-bottomleft" style="fill:#8ab4f8" d="m 3,62 v 1 h 1 v -1 z"/>
 <path id="groove-highlight-left" style="fill:#8ab4f8" d="m 3,60 v 1 h 1 v -1 z"/>
 <path id="groove-highlight-topleft" style="fill:#8ab4f8" d="M 4,58 H 3 v 1 h 1 z"/>
 <path id="groove-highlight-bottom" style="fill:#8ab4f8" d="m 5,62 v 1 h 1 v -1 z"/>
 <path id="groove-highlight-center" style="fill:#8ab4f8" d="M 6,60 H 5 v 1 h 1 z"/>
 <path id="groove-highlight-top" style="fill:#8ab4f8" d="m 5,58 v 1 h 1 v -1 z"/>
 <g id="horizontal-slider-handle" transform="matrix(0.6875,0,0,0.6875,-7.187504,41.250002)">
  <rect style="opacity:0" width="32" height="32" x="25" y="4"/>
  <circle style="fill:#8ab4f8" cx="41" cy="20" r="7.273"/>
 </g>
 <g id="horizontal-slider-hover" transform="matrix(0.6875,0,0,0.6875,14.8125,41.25)">
  <rect style="opacity:0" width="32" height="32" x="25" y="4"/>
  <circle style="opacity:0.2;fill:#8ab4f8" cx="41" cy="20" r="16"/>
  <circle style="fill:#8ab4f8" cx="41" cy="20" r="7.273"/>
 </g>
 <g id="horizontal-slider-focus" transform="matrix(0.6875,0,0,0.6875,36.8125,41.25)">
  <rect style="opacity:0" width="32" height="32" x="25" y="4"/>
  <circle style="opacity:0.3;fill:#8ab4f8" cx="41" cy="20" r="16"/>
  <circle style="fill:#8ab4f8" cx="41" cy="20" r="7.273"/>
 </g>
 <g id="vertical-slider-handle" transform="matrix(0.6875,0,0,0.6875,-7.1875,19.25)">
  <rect style="opacity:0" width="32" height="32" x="25" y="4"/>
  <circle style="fill:#8ab4f8" cx="41" cy="20" r="7.273"/>
 </g>
 <g id="vertical-slider-hover" transform="matrix(0.6875,0,0,0.6875,14.8125,19.25)">
  <rect style="opacity:0" width="32" height="32" x="25" y="4"/>
  <circle style="opacity:0.2;fill:#8ab4f8" cx="41" cy="20" r="16"/>
  <circle style="fill:#8ab4f8" cx="41" cy="20" r="7.273"/>
 </g>
 <g id="vertical-slider-focus" transform="matrix(0.6875,0,0,0.6875,36.8125,19.25)">
  <rect style="opacity:0" width="32" height="32" x="25" y="4"/>
  <circle style="opacity:0.3;fill:#8ab4f8" cx="41" cy="20" r="16"/>
  <circle style="fill:#8ab4f8" cx="41" cy="20" r="7.273"/>
 </g>
 <circle id="hint-handle-size" style="fill:#ff00ff" cx="65" cy="11" r="11"/>
</svg>
