<svg xmlns="http://www.w3.org/2000/svg" width="280" height="240" version="1.1">
 <g id="south-active-tab-top" transform="rotate(-90,148.00109,141.0011)">
  <rect style="opacity:0.001" width="4" height="80" x="65" y="69"/>
  <path style="fill:#8ab4f8" d="m 67.0022,69 v 80 H 65.00219 V 69 Z"/>
 </g>
 <g id="east-active-tab-left" transform="matrix(-1,0,0,1,274.00021,-2.99781)">
  <rect style="opacity:0.001" width="4" height="80" x="65" y="69"/>
  <path style="fill:#8ab4f8" d="M 68,68.997811 V 148.99781 H 66.00021 V 68.997811 Z"/>
 </g>
 <g id="north-active-tab-bottom" transform="rotate(90,140.49887,91.501118)">
  <rect style="opacity:0.001" width="4" height="80" x="65" y="69"/>
  <path style="fill:#8ab4f8" d="m 67.997775,69 v 80 H 65.997763 V 69 Z"/>
 </g>
 <g id="west-active-tab-right" transform="translate(-48.99778,-2.9978)">
  <rect style="opacity:0.001" width="4" height="80" x="65" y="69"/>
  <path style="fill:#8ab4f8" d="m 67.99779,68.9978 v 80 h -2.000005 v -80 z"/>
 </g>
 <rect id="hint-tile-center" style="fill:#ff00ff" width="40" height="40" x="240" y="200"/>
 <g id="south-active-tab-topleft" transform="translate(36.00001,-138.36)">
  <path style="opacity:0.001" d="m 30,358.36 h 10 v 3.99999 H 30 Z"/>
  <path style="fill:#8ab4f8" d="M 39.999989,360.35999 V 362.36 c -6.999999,0 -6.999999,0 -6.999999,0 v -2.00001 z"/>
 </g>
 <g id="south-active-tab-topright" transform="translate(36.00001,-138.36)">
  <path style="opacity:0.001" d="m 120,358.36 h 10 v 3.99999 h -10 z"/>
  <path style="fill:#8ab4f8" d="m 119.99999,360.36001 7,-2e-5 V 362.36 h -7 z"/>
 </g>
 <rect id="south-active-tab-left" style="opacity:0.001" width="10" height="12" x="66" y="224"/>
 <rect id="south-active-tab-center" style="opacity:0.001" width="80" height="12" x="76" y="224"/>
 <rect id="south-active-tab-right" style="opacity:0.001" width="10" height="12" x="156" y="224"/>
 <rect id="south-active-tab-bottomright" style="opacity:0.001" width="10" height="4" x="156" y="236"/>
 <rect id="south-active-tab-bottom" style="opacity:0.001" width="80" height="4" x="76" y="236"/>
 <rect id="south-active-tab-bottomleft" style="opacity:0.001" width="10" height="4" x="66" y="236"/>
 <rect id="south-active-tab-hint-left-margin" style="fill:#ff00ff" width="6" height="5" x="66" y="227"/>
 <rect id="south-active-tab-hint-right-margin" style="fill:#ff00ff" width="6" height="5" x="160" y="227"/>
 <rect id="south-active-tab-hint-top-margin" style="fill:#ff00ff" width="5" height="4" x="114" y="221"/>
 <rect id="south-active-tab-hint-bottom-margin" style="fill:#ff00ff" width="5" height="4" x="114" y="236"/>
 <rect id="east-active-tab-bottom" style="opacity:0.001" width="10" height="12" x="-156" y="209" transform="rotate(-90)"/>
 <rect id="east-active-tab-center" style="opacity:0.001" width="80" height="12" x="-146" y="209" transform="rotate(-90)"/>
 <rect id="east-active-tab-top" style="opacity:0.001" width="10" height="12" x="-66" y="209" transform="rotate(-90)"/>
 <rect id="east-active-tab-topright" style="opacity:0.001" width="10" height="4" x="-65.7" y="221" transform="rotate(-90)"/>
 <rect id="east-active-tab-right" style="opacity:0.001" width="80" height="4" x="-145.7" y="221" transform="rotate(-90)"/>
 <rect id="east-active-tab-bottomright" style="opacity:0.001" width="10" height="4" x="-155.7" y="221" transform="rotate(-90)"/>
 <rect id="east-active-tab-hint-bottom-margin" style="fill:#ff00ff" width="6" height="5" x="-156" y="212" transform="rotate(-90)"/>
 <rect id="east-active-tab-hint-top-margin" style="fill:#ff00ff" width="6" height="5" x="-62" y="212" transform="rotate(-90)"/>
 <rect id="east-active-tab-hint-left-margin" style="fill:#ff00ff" width="5" height="4" x="-102" y="205" transform="rotate(-90)"/>
 <rect id="east-active-tab-hint-right-margin" style="fill:#ff00ff" width="5" height="4" x="-102" y="221" transform="rotate(-90)"/>
 <rect id="west-active-tab-top" style="opacity:0.001" width="10" height="12" x="56" y="-16" transform="rotate(90)"/>
 <rect id="west-active-tab-center" style="opacity:0.001" width="80" height="12" x="66" y="-16" transform="rotate(90)"/>
 <rect id="west-active-tab-bottom" style="opacity:0.001" width="10" height="12" x="146" y="-16" transform="rotate(90)"/>
 <rect id="west-active-tab-bottomleft" style="opacity:0.001" width="10" height="4" x="146" y="-4" transform="rotate(90)"/>
 <rect id="west-active-tab-left" style="opacity:0.001" width="80" height="4" x="66" y="-4" transform="rotate(90)"/>
 <rect id="west-active-tab-topleft" style="opacity:0.001" width="10" height="4" x="56" y="-4" transform="rotate(90)"/>
 <rect id="west-active-tab-hint-top-margin" style="fill:#ff00ff" width="6" height="5" x="56" y="-13" transform="rotate(90)"/>
 <rect id="west-active-tab-hint-bottom-margin" style="fill:#ff00ff" width="6" height="5" x="150" y="-13" transform="rotate(90)"/>
 <g id="west-active-tab-topright" transform="rotate(90,176.18,202.1822)">
  <path style="opacity:0.001" d="m 29.9978,358.3622 h 10 v 4 h -10 z"/>
  <path style="fill:#8ab4f8" d="m 39.9978,359.36221 v 1.99999 l -7,1e-5 v -2.00001 z"/>
 </g>
 <g id="west-active-tab-bottomright" transform="rotate(90,176.18,202.1822)">
  <path style="opacity:0.001" d="m 119.9978,358.3622 h 10 v 4 h -10 z"/>
  <path style="fill:#8ab4f8" d="m 119.9978,359.36221 7,-1e-5 v 2.00001 l -7,-1e-5 z"/>
 </g>
 <rect id="west-active-tab-hint-right-margin" style="fill:#ff00ff" width="5" height="4" x="97" y="-20" transform="rotate(90)"/>
 <rect id="west-active-tab-hint-left-margin" style="fill:#ff00ff" width="5" height="4" x="97" y="-4" transform="rotate(90)"/>
 <rect id="north-active-tab-right" style="opacity:0.001" width="10" height="12" x="-173" y="-16" transform="scale(-1)"/>
 <rect id="north-active-tab-center" style="opacity:0.001" width="80" height="12" x="-163" y="-16" transform="scale(-1)"/>
 <rect id="north-active-tab-left" style="opacity:0.001" width="10" height="12" x="-83" y="-16" transform="scale(-1)"/>
 <rect id="north-active-tab-topleft" style="opacity:0.001" width="10" height="4" x="-83" y="-4" transform="scale(-1)"/>
 <rect id="north-active-tab-top" style="opacity:0.001" width="80" height="4" x="-163" y="-4" transform="scale(-1)"/>
 <rect id="north-active-tab-topright" style="opacity:0.001" width="10" height="4" x="-173" y="-4" transform="scale(-1)"/>
 <rect id="north-focus-hint-right-margin" style="fill:#ff00ff" width="6" height="5" x="-173" y="-13" transform="scale(-1)"/>
 <rect id="north-focus-hint-left-margin" style="fill:#ff00ff" width="6" height="5" x="-79" y="-13" transform="scale(-1)"/>
 <rect id="north-focus-hint-bottom-margin" style="fill:#ff00ff" width="5" height="4" x="-119" y="-20" transform="scale(-1)"/>
 <rect id="north-focus-hint-top-margin" style="fill:#ff00ff" width="5" height="4" x="-119" y="-4" transform="scale(-1)"/>
 <g id="north-active-tab-bottomleft" transform="translate(43,-343.35999)">
  <path style="opacity:0.001" d="m 30,359.35999 h 10 v 3.99999 H 30 Z"/>
  <path style="fill:#8ab4f8" d="m 39.999989,360.36 v 1.99999 H 33 v -2.00001 c 0,0 0,0 6.999989,2e-5 z"/>
 </g>
 <g id="north-active-tab-bottomright" transform="translate(-200.00001,-211.35998)">
  <rect style="opacity:0.001" width="10" height="3" x="363" y="227.36"/>
  <path style="opacity:0.001" d="m 363,227.36 h 10 v 3.99999 h -10 z"/>
  <path style="fill:#8ab4f8" d="m 363,228.35999 7,-2e-5 v 2.00001 h -7 z"/>
 </g>
 <g id="east-active-tab-topleft" transform="rotate(90,271.1816,297.1838)">
  <path style="opacity:0.001" d="m 29.9978,359.3654 h 10 v 4 h -10 z"/>
  <path style="fill:#8ab4f8" d="m 39.9978,360.36556 v 1.99955 l -7,2.3e-4 v -2 l 7,-9e-5 z"/>
 </g>
 <g id="east-active-tab-bottomleft" transform="rotate(90,271.18011,297.18231)">
  <path style="opacity:0.001" d="m 119.9978,359.36242 h 10 v 4 h -10 z"/>
  <path style="fill:#8ab4f8" d="m 119.9978,360.36231 c 0,2.1e-4 7,2.1e-4 7,2.1e-4 v 1.9999 l -7,-2.3e-4 z"/>
 </g>
</svg>
