<svg xmlns="http://www.w3.org/2000/svg" width="109" height="125" version="1">
 <g id="minimized-bottom">
  <rect style="opacity:0.001" width="14" height="3" x="3" y="122"/>
  <path style="opacity:0.1;fill:#dfdfdf" d="m 3,122 v 1 1 h 14 v -1 -1 z"/>
 </g>
 <g id="minimized-left" transform="translate(-1,42)">
  <rect style="opacity:0.001" width="3" height="14" x="1" y="66"/>
  <path style="opacity:0.1;fill:#dfdfdf" d="M 2,66 V 80 H 3 4 V 66 H 3 Z"/>
 </g>
 <g id="minimized-right" transform="translate(-1,42)">
  <rect style="opacity:0.001" width="3" height="14" x="18" y="66"/>
  <path style="opacity:0.1;fill:#dfdfdf" d="m 18,66 v 14 h 1 1 V 66 h -1 z"/>
 </g>
 <g id="minimized-center" transform="matrix(0.51851851,0,0,1.0769231,0.407407,103.58462)">
  <rect style="opacity:0.1;fill:#dfdfdf" width="27" height="13" x="5" y="4.1"/>
 </g>
 <g id="minimized-topleft" transform="translate(-1,42)">
  <rect style="opacity:0.001" width="3" height="3" x="1" y="63"/>
  <path style="opacity:0.1;fill:#dfdfdf" d="m 3,64 c -1,0 -1,0 -1,0 v 2 h 1 1 v -1 -1 z"/>
 </g>
 <g id="minimized-topright" transform="translate(-1,42)">
  <rect style="opacity:0.001" width="3" height="3" x="18" y="63"/>
  <path style="opacity:0.1;fill:#dfdfdf" d="m 18,64 v 1 1 h 1 1 v -1 c 0,-1 0,-1 0,-1 z"/>
 </g>
 <g id="minimized-bottomleft" transform="translate(-1,42)">
  <rect style="opacity:0.001" width="3" height="3" x="1" y="80"/>
  <path style="opacity:0.1;fill:#dfdfdf" d="m 2,80 v 1 c 0,0 0,1 1,1 H 4 V 81 80 H 3 Z"/>
 </g>
 <g id="minimized-bottomright" transform="translate(-1,42)">
  <rect style="opacity:0.001" width="3" height="3" x="18" y="80"/>
  <path style="opacity:0.1;fill:#dfdfdf" d="m 18,80 v 1 1 h 1 c 0,0 1,0 1,-1 v -1 h -1 z"/>
 </g>
 <g id="attention-bottom">
  <rect style="opacity:0.001" width="14" height="3" x="3" y="101"/>
  <path style="opacity:0.12;fill:#f44336" d="m 3,101 v 1 1 h 14 v -1 -1 z"/>
 </g>
 <g id="attention-left" transform="translate(-1,21)">
  <rect style="opacity:0.001" width="3" height="14" x="1" y="66"/>
  <path style="opacity:0.12;fill:#f44336" d="M 2,66 V 80 H 3 4 V 66 H 3 Z"/>
 </g>
 <g id="attention-right" transform="translate(-1,21)">
  <rect style="opacity:0.001" width="3" height="14" x="18" y="66"/>
  <path style="opacity:0.12;fill:#f44336" d="m 18,66 v 14 h 1 1 V 66 h -1 z"/>
 </g>
 <g id="attention-center" transform="matrix(0.51851851,0,0,1.0769231,0.407407,82.58462)">
  <rect style="opacity:0.12;fill:#f44336" width="27" height="13" x="5" y="4.1"/>
 </g>
 <g id="attention-top" transform="translate(-1,21)">
  <rect style="opacity:0.001" width="14" height="3" x="4" y="63"/>
  <g transform="matrix(0.53846154,0,0,-1,1.3076923,93)">
   <path style="fill:#f44336" transform="matrix(1,0,0,-1,0,93)" d="m 5,64 v 1 1 h 26 v -1 -1 z"/>
  </g>
 </g>
 <g id="attention-topleft" transform="translate(-1,21)">
  <rect style="opacity:0.001" width="3" height="3" x="1" y="63"/>
  <path style="fill:#f44336" d="m 3,64 c -1,0 -1,0 -1,0 v 2 h 1 1 v -1 -1 z"/>
 </g>
 <g id="attention-topright" transform="translate(-1,21)">
  <rect style="opacity:0.001" width="3" height="3" x="18" y="63"/>
  <path style="fill:#f44336" d="m 18,64 v 1 1 h 1 1 v -1 c 0,-1 0,-1 0,-1 z"/>
 </g>
 <g id="attention-bottomleft" transform="translate(-1,21)">
  <rect style="opacity:0.001" width="3" height="3" x="1" y="80"/>
  <path style="opacity:0.12;fill:#f44336" d="m 2,80 v 1 c 0,0 0,1 1,1 H 4 V 81 80 H 3 Z"/>
 </g>
 <g id="attention-bottomright" transform="translate(-1,21)">
  <rect style="opacity:0.001" width="3" height="3" x="18" y="80"/>
  <path style="opacity:0.12;fill:#f44336" d="m 18,80 v 1 1 h 1 c 0,0 1,0 1,-1 v -1 h -1 z"/>
 </g>
 <g id="hover-bottom">
  <rect style="opacity:0.001" width="14" height="3" x="3" y="80"/>
  <path style="opacity:0.1;fill:#dfdfdf" d="m 3,80 v 1 1 h 14 v -1 -1 z"/>
 </g>
 <g id="hover-left" transform="translate(-1)">
  <rect style="opacity:0.001" width="3" height="14" x="1" y="66"/>
  <path style="opacity:0.1;fill:#dfdfdf" d="M 2,66 V 80 H 3 4 V 66 H 3 Z"/>
 </g>
 <g id="hover-right" transform="translate(-1)">
  <rect style="opacity:0.001" width="3" height="14" x="18" y="66"/>
  <path style="opacity:0.1;fill:#dfdfdf" d="m 18,66 v 14 h 1 1 V 66 h -1 z"/>
 </g>
 <g id="hover-center" transform="matrix(0.51851851,0,0,1.0769231,0.40740745,61.584615)">
  <rect style="opacity:0.1;fill:#dfdfdf" width="27" height="13" x="5" y="4.1"/>
 </g>
 <g id="hover-top" transform="translate(-1)">
  <rect style="opacity:0.001" width="14" height="3" x="4" y="63"/>
  <g transform="matrix(0.53846154,0,0,-1,1.3076923,93)">
   <path style="fill:#8ab4f8" transform="matrix(1,0,0,-1,0,93)" d="m 5,64 v 1 1 h 26 v -1 -1 z"/>
  </g>
 </g>
 <g id="hover-topleft" transform="translate(-1)">
  <rect style="opacity:0.001" width="3" height="3" x="1" y="63"/>
  <path style="fill:#8ab4f8" d="m 3,64 c -1,0 -1,0 -1,0 v 2 h 1 1 v -1 -1 z"/>
 </g>
 <g id="hover-topright" transform="translate(-1)">
  <rect style="opacity:0.001" width="3" height="3" x="18" y="63"/>
  <path style="fill:#8ab4f8" d="m 18,64 v 1 1 h 1 1 v -1 c 0,-1 0,-1 0,-1 z"/>
 </g>
 <g id="hover-bottomleft" transform="translate(-1)">
  <rect style="opacity:0.001" width="3" height="3" x="1" y="80"/>
  <path style="opacity:0.1;fill:#dfdfdf" d="m 2,80 v 1 c 0,0 0,1 1,1 H 4 V 81 80 H 3 Z"/>
 </g>
 <g id="hover-bottomright" transform="translate(-1)">
  <rect style="opacity:0.001" width="3" height="3" x="18" y="80"/>
  <path style="opacity:0.1;fill:#dfdfdf" d="m 18,80 v 1 1 h 1 c 0,0 1,0 1,-1 v -1 h -1 z"/>
 </g>
 <g id="normal-bottom">
  <rect style="opacity:0.001" width="14" height="3" x="3" y="59"/>
  <path style="opacity:0.1;fill:#dfdfdf" d="m 3,59 v 1 1 h 14 v -1 -1 z"/>
 </g>
 <g id="normal-left" transform="translate(-1,-21)">
  <rect style="opacity:0.001" width="3" height="14" x="1" y="66"/>
  <path style="opacity:0.1;fill:#dfdfdf" d="M 2,66 V 80 H 3 4 V 66 H 3 Z"/>
 </g>
 <g id="normal-right" transform="translate(-1,-21)">
  <rect style="opacity:0.001" width="3" height="14" x="18" y="66"/>
  <path style="opacity:0.1;fill:#dfdfdf" d="m 18,66 v 14 h 1 1 V 66 h -1 z"/>
 </g>
 <g id="normal-center" transform="matrix(0.51851851,0,0,1.0769231,0.407407,40.58462)">
  <rect style="opacity:0.1;fill:#dfdfdf" width="27" height="13" x="5" y="4.1"/>
 </g>
 <g id="normal-top" transform="translate(-1,-21)">
  <rect style="opacity:0.001" width="14" height="3" x="4" y="63"/>
  <g transform="matrix(0.53846154,0,0,-1,1.3076923,93)">
   <path style="opacity:0.1;fill:#dfdfdf" transform="matrix(1,0,0,-1,0,93)" d="m 5,64 v 1 1 h 26 v -1 -1 z"/>
   <path style="opacity:0.2;fill:#dfdfdf" d="M 5.0000001,29 V 28 H 31.000001 v 1 z"/>
  </g>
 </g>
 <g id="normal-topleft" transform="translate(-1,-21)">
  <rect style="opacity:0.001" width="3" height="3" x="1" y="63"/>
  <path style="opacity:0.1;fill:#dfdfdf" d="m 3,64 c -1,0 -1,0 -1,0 v 2 h 1 1 v -1 -1 z"/>
  <path style="opacity:0.2;fill:#dfdfdf" d="m 2,64 v 1 h 1 1 v -1 z"/>
 </g>
 <g id="normal-topright" transform="translate(-1,-21)">
  <rect style="opacity:0.001" width="3" height="3" x="18" y="63"/>
  <path style="opacity:0.1;fill:#dfdfdf" d="m 18,64 v 1 1 h 1 1 v -1 c 0,-1 0,-1 0,-1 z"/>
  <path style="opacity:0.2;fill:#dfdfdf" d="m 18,64 v 1 h 1 1 v -1 z"/>
 </g>
 <g id="normal-bottomleft" transform="translate(-1,-21)">
  <rect style="opacity:0.001" width="3" height="3" x="1" y="80"/>
  <path style="opacity:0.1;fill:#dfdfdf" d="m 2,80 v 1 c 0,0 0,1 1,1 H 4 V 81 80 H 3 Z"/>
 </g>
 <g id="normal-bottomright" transform="translate(-1,-21)">
  <rect style="opacity:0.001" width="3" height="3" x="18" y="80"/>
  <path style="opacity:0.1;fill:#dfdfdf" d="m 18,80 v 1 1 h 1 c 0,0 1,0 1,-1 v -1 h -1 z"/>
 </g>
 <g id="focus-bottom">
  <rect style="opacity:0.001" width="14" height="3" x="3" y="38"/>
  <path style="opacity:0.1;fill:#dfdfdf" d="m 3,38 v 1 1 h 14 v -1 -1 z"/>
 </g>
 <g id="focus-left" transform="translate(-1,-42)">
  <rect style="opacity:0.001" width="3" height="14" x="1" y="66"/>
  <path style="opacity:0.1;fill:#dfdfdf" d="M 2,66 V 80 H 3 4 V 66 H 3 Z"/>
 </g>
 <g id="focus-right" transform="translate(-1,-42)">
  <rect style="opacity:0.001" width="3" height="14" x="18" y="66"/>
  <path style="opacity:0.1;fill:#dfdfdf" d="m 18,66 v 14 h 1 1 V 66 h -1 z"/>
 </g>
 <g id="focus-center" transform="matrix(0.51851851,0,0,1.0769231,0.407407,19.58462)">
  <rect style="opacity:0.1;fill:#dfdfdf" width="27" height="13" x="5" y="4.1"/>
 </g>
 <g id="focus-top" transform="translate(-1,-42)">
  <rect style="opacity:0.001" width="14" height="3" x="4" y="63"/>
  <g transform="matrix(0.53846154,0,0,-1,1.3076923,93)">
   <path style="fill:#8ab4f8" transform="matrix(1,0,0,-1,0,93)" d="m 5,64 v 1 1 h 26 v -1 -1 z"/>
  </g>
 </g>
 <g id="focus-topleft" transform="translate(-1,-42)">
  <rect style="opacity:0.001" width="3" height="3" x="1" y="63"/>
  <path style="fill:#8ab4f8" d="m 2,64 v 2 h 1 1 v -1 -1 c -0.6666667,0 -2,0 -2,0 z"/>
 </g>
 <g id="focus-topright" transform="translate(-1,-42)">
  <rect style="opacity:0.001" width="3" height="3" x="18" y="63"/>
  <path style="fill:#8ab4f8" d="m 18,64 v 1 1 h 1 1 v -1 c 0,-1 0,-1 0,-1 z"/>
 </g>
 <g id="focus-bottomleft" transform="translate(-1,-42)">
  <rect style="opacity:0.001" width="3" height="3" x="1" y="80"/>
  <path style="opacity:0.1;fill:#dfdfdf" d="m 2,80 v 1 c 0,0 0,1 1,1 H 4 V 81 80 H 3 Z"/>
 </g>
 <g id="focus-bottomright" transform="translate(-1,-42)">
  <rect style="opacity:0.001" width="3" height="3" x="18" y="80"/>
  <path style="opacity:0.1;fill:#dfdfdf" d="m 18,80 v 1 1 h 1 c 0,0 1,0 1,-1 v -1 h -1 z"/>
 </g>
 <g id="north-progress-bottom" transform="translate(21)">
  <rect style="opacity:0.001" width="14" height="3" x="3" y="17"/>
  <path style="fill:#4caf50" d="m 3,17 v 1 1 h 14 v -1 -1 z"/>
 </g>
 <g id="north-progress-left" transform="translate(20,-63)">
  <rect style="opacity:0.001" width="3" height="14" x="1" y="66"/>
 </g>
 <g id="north-progress-right" transform="translate(20,-63)">
  <rect style="opacity:0.001" width="3" height="14" x="18" y="66"/>
 </g>
 <g id="north-progress-center" transform="matrix(0.51851851,0,0,1.0769231,21.407407,-1.41538)">
  <rect style="opacity:0.001" width="27" height="13" x="5" y="4.1"/>
 </g>
 <g id="north-progress-top" transform="translate(20,-63)">
  <rect style="opacity:0.001" width="14" height="3" x="4" y="63"/>
 </g>
 <g id="north-progress-topleft" transform="translate(20,-63)">
  <rect style="opacity:0.001" width="3" height="3" x="1" y="63"/>
 </g>
 <g id="north-progress-topright" transform="translate(20,-63)">
  <rect style="opacity:0.001" width="3" height="3" x="18" y="63"/>
 </g>
 <g id="north-progress-bottomleft" transform="translate(20,-63)">
  <rect style="opacity:0.001" width="3" height="3" x="1" y="80"/>
  <path style="fill:#4caf50" d="m 2,80 v 2 c 0,0 0,0 1,0 H 4 V 81 80 H 3 Z"/>
 </g>
 <g id="north-progress-bottomright" transform="translate(20,-63)">
  <rect style="opacity:0.001" width="3" height="3" x="18" y="80"/>
  <path style="fill:#4caf50" d="m 18,80 v 1 1 h 2 c 0,0 0,0 0,-1 v -1 h -1 z"/>
 </g>
 <g id="north-minimized-bottom" transform="translate(21)">
  <rect style="opacity:0.001" width="14" height="3" x="3" y="122"/>
  <path style="opacity:0.1;fill:#dfdfdf" d="m 3,122 v 1 1 h 14 v -1 -1 z"/>
 </g>
 <g id="north-minimized-left" transform="translate(20,42)">
  <rect style="opacity:0.001" width="3" height="14" x="1" y="66"/>
  <path style="opacity:0.1;fill:#dfdfdf" d="M 2,66 V 80 H 3 4 V 66 H 3 Z"/>
 </g>
 <g id="north-minimized-right" transform="translate(20,42)">
  <rect style="opacity:0.001" width="3" height="14" x="18" y="66"/>
  <path style="opacity:0.1;fill:#dfdfdf" d="m 18,66 v 14 h 1 1 V 66 h -1 z"/>
 </g>
 <g id="north-minimized-center" transform="matrix(0.51851851,0,0,1.0769231,21.407407,103.58462)">
  <rect style="opacity:0.1;fill:#dfdfdf" width="27" height="13" x="5" y="4.1"/>
 </g>
 <g id="north-minimized-top" transform="translate(20,42)">
  <rect style="opacity:0.001" width="14" height="3" x="4" y="63"/>
  <g id="hover-top-9" transform="matrix(0.53846154,0,0,-1,1.3076923,93)">
   <path style="opacity:0.1;fill:#dfdfdf" transform="matrix(1,0,0,-1,0,93)" d="m 5,64 v 1 1 h 26 v -1 -1 z"/>
  </g>
 </g>
 <g id="north-minimized-topleft" transform="translate(20,42)">
  <rect style="opacity:0.001" width="3" height="3" x="1" y="63"/>
  <path style="opacity:0.1;fill:#dfdfdf" d="m 3,64 c -1,0 -1,1 -1,1 v 1 h 1 1 v -1 -1 z"/>
 </g>
 <g id="north-minimized-topright" transform="translate(20,42)">
  <rect style="opacity:0.001" width="3" height="3" x="18" y="63"/>
  <path style="opacity:0.1;fill:#dfdfdf" d="m 18,64 v 1 1 h 1 1 v -1 c 0,-1 -1,-1 -1,-1 z"/>
 </g>
 <g id="north-minimized-bottomleft" transform="translate(20,42)">
  <rect style="opacity:0.001" width="3" height="3" x="1" y="80"/>
  <path style="opacity:0.1;fill:#dfdfdf" d="m 2,80 v 2 c 0,0 0,0 1,0 H 4 V 81 80 H 3 Z"/>
 </g>
 <g id="north-minimized-bottomright" transform="translate(20,42)">
  <rect style="opacity:0.001" width="3" height="3" x="18" y="80"/>
  <path style="opacity:0.1;fill:#dfdfdf" d="m 18,80 v 1 1 h 2 c 0,0 0,0 0,-1 v -1 h -1 z"/>
 </g>
 <g id="north-attention-bottom" transform="translate(21)">
  <rect style="opacity:0.001" width="14" height="3" x="3" y="101"/>
  <path style="fill:#f44336" d="m 3,101 v 1 1 h 14 v -1 -1 z"/>
 </g>
 <g id="north-attention-left" transform="translate(20,21)">
  <rect style="opacity:0.001" width="3" height="14" x="1" y="66"/>
  <path style="opacity:0.12;fill:#f44336" d="M 2,66 V 80 H 3 4 V 66 H 3 Z"/>
 </g>
 <g id="north-attention-right" transform="translate(20,21)">
  <rect style="opacity:0.001" width="3" height="14" x="18" y="66"/>
  <path style="opacity:0.12;fill:#f44336" d="m 18,66 v 14 h 1 1 V 66 h -1 z"/>
 </g>
 <g id="north-attention-center" transform="matrix(0.51851851,0,0,1.0769231,21.407407,82.58462)">
  <rect style="opacity:0.12;fill:#f44336" width="27" height="13" x="5" y="4.1"/>
 </g>
 <g id="north-attention-top" transform="translate(20,21)">
  <rect style="opacity:0.001" width="14" height="3" x="4" y="63"/>
  <g transform="matrix(0.53846154,0,0,-1,1.3076923,93)">
   <path style="fill:#f44336;opacity:0.12" transform="matrix(1,0,0,-1,0,93)" d="m 5,64 v 1 1 h 26 v -1 -1 z"/>
  </g>
 </g>
 <g id="north-attention-topleft" transform="translate(20,21)">
  <rect style="opacity:0.001" width="3" height="3" x="1" y="63"/>
  <path style="fill:#f44336;opacity:0.12" d="m 3,64 c -1,0 -1,1 -1,1 v 1 h 1 1 v -1 -1 z"/>
 </g>
 <g id="north-attention-topright" transform="translate(20,21)">
  <rect style="opacity:0.001" width="3" height="3" x="18" y="63"/>
  <path style="fill:#f44336;opacity:0.12" d="m 18,64 v 1 1 h 1 1 v -1 c 0,-1 -1,-1 -1,-1 z"/>
 </g>
 <g id="north-attention-bottomleft" transform="translate(20,21)">
  <rect style="opacity:0.001" width="3" height="3" x="1" y="80"/>
  <path style="fill:#f44336" d="m 2,80 v 2 c 0,0 0,0 1,0 H 4 V 81 80 H 3 Z"/>
 </g>
 <g id="north-attention-bottomright" transform="translate(20,21)">
  <rect style="opacity:0.001" width="3" height="3" x="18" y="80"/>
  <path style="fill:#f44336" d="m 18,80 v 1 1 h 2 c 0,0 0,0 0,-1 v -1 h -1 z"/>
 </g>
 <g id="north-hover-bottom" transform="translate(21)">
  <rect style="opacity:0.001" width="14" height="3" x="3" y="80"/>
  <path style="fill:#8ab4f8" d="m 3,80 v 1 1 h 14 v -1 -1 z"/>
 </g>
 <g id="north-hover-left" transform="translate(20)">
  <rect style="opacity:0.001" width="3" height="14" x="1" y="66"/>
  <path style="opacity:0.1;fill:#dfdfdf" d="M 2,66 V 80 H 3 4 V 66 H 3 Z"/>
 </g>
 <g id="north-hover-right" transform="translate(20)">
  <rect style="opacity:0.001" width="3" height="14" x="18" y="66"/>
  <path style="opacity:0.1;fill:#dfdfdf" d="m 18,66 v 14 h 1 1 V 66 h -1 z"/>
 </g>
 <g id="north-hover-center" transform="matrix(0.51851851,0,0,1.0769231,21.407407,61.584615)">
  <rect style="opacity:0.1;fill:#dfdfdf" width="27" height="13" x="5" y="4.1"/>
 </g>
 <g id="north-hover-top" transform="translate(20)">
  <rect style="opacity:0.001" width="14" height="3" x="4" y="63"/>
  <g transform="matrix(0.53846154,0,0,-1,1.3076923,93)">
   <path style="opacity:0.1;fill:#dfdfdf" transform="matrix(1,0,0,-1,0,93)" d="m 5,64 v 1 1 h 26 v -1 -1 z"/>
  </g>
 </g>
 <g id="north-hover-topleft" transform="translate(20)">
  <rect style="opacity:0.001" width="3" height="3" x="1" y="63"/>
  <path style="opacity:0.1;fill:#dfdfdf" d="m 3,64 c -1,0 -1,1 -1,1 v 1 h 1 1 v -1 -1 z"/>
 </g>
 <g id="north-hover-topright" transform="translate(20)">
  <rect style="opacity:0.001" width="3" height="3" x="18" y="63"/>
  <path style="opacity:0.1;fill:#dfdfdf" d="m 18,64 v 1 1 h 1 1 v -1 c 0,-1 -1,-1 -1,-1 z"/>
 </g>
 <g id="north-hover-bottomleft" transform="translate(20)">
  <rect style="opacity:0.001" width="3" height="3" x="1" y="80"/>
  <path style="fill:#8ab4f8" d="m 2,80 v 2 c 0,0 0,0 1,0 H 4 V 81 80 H 3 Z"/>
 </g>
 <g id="north-hover-bottomright" transform="translate(20)">
  <rect style="opacity:0.001" width="3" height="3" x="18" y="80"/>
  <path style="fill:#8ab4f8" d="m 18,80 v 1 1 h 2 c 0,0 0,0 0,-1 v -1 h -1 z"/>
 </g>
 <g id="north-normal-bottom" transform="translate(21)">
  <rect style="opacity:0.001" width="14" height="3" x="3" y="59"/>
  <path style="opacity:0.1;fill:#dfdfdf" d="m 3,59 v 1 1 h 14 v -1 -1 z"/>
  <path style="opacity:0.2;fill:#dfdfdf" d="m 3,60 v 1 h 14 v -1 z"/>
 </g>
 <g id="north-normal-left" transform="translate(20,-21)">
  <rect style="opacity:0.001" width="3" height="14" x="1" y="66"/>
  <path style="opacity:0.1;fill:#dfdfdf" d="M 2,66 V 80 H 3 4 V 66 H 3 Z"/>
 </g>
 <g id="north-normal-right" transform="translate(20,-21)">
  <rect style="opacity:0.001" width="3" height="14" x="18" y="66"/>
  <path style="opacity:0.1;fill:#dfdfdf" d="m 18,66 v 14 h 1 1 V 66 h -1 z"/>
 </g>
 <g id="north-normal-center" transform="matrix(0.51851851,0,0,1.0769231,21.407407,40.58462)">
  <rect style="opacity:0.1;fill:#dfdfdf" width="27" height="13" x="5" y="4.1"/>
 </g>
 <g id="north-normal-top" transform="translate(20,-21)">
  <rect style="opacity:0.001" width="14" height="3" x="4" y="63"/>
  <g transform="matrix(0.53846154,0,0,-1,1.3076923,93)">
   <path style="opacity:0.1;fill:#dfdfdf" transform="matrix(1,0,0,-1,0,93)" d="m 5,64 v 1 1 h 26 v -1 -1 z"/>
  </g>
 </g>
 <g id="north-normal-topleft" transform="translate(20,-21)">
  <rect style="opacity:0.001" width="3" height="3" x="1" y="63"/>
  <path style="opacity:0.1;fill:#dfdfdf" d="m 3,64 c -1,0 -1,1 -1,1 v 1 h 1 1 v -1 -1 z"/>
 </g>
 <g id="north-normal-topright" transform="translate(20,-21)">
  <rect style="opacity:0.001" width="3" height="3" x="18" y="63"/>
  <path style="opacity:0.1;fill:#dfdfdf" d="m 18,64 v 1 1 h 1 1 v -1 c 0,-1 -1,-1 -1,-1 z"/>
 </g>
 <g id="north-normal-bottomleft" transform="translate(20,-21)">
  <rect style="opacity:0.001" width="3" height="3" x="1" y="80"/>
  <path style="opacity:0.1;fill:#dfdfdf" d="m 2,80 v 2 c 0,0 0,0 1,0 H 4 V 81 80 H 3 Z"/>
  <path style="opacity:0.2;fill:#dfdfdf" d="m 2,81 v 1 H 4 V 81 H 3 Z"/>
 </g>
 <g id="north-normal-bottomright" transform="translate(20,-21)">
  <rect style="opacity:0.001" width="3" height="3" x="18" y="80"/>
  <path style="opacity:0.1;fill:#dfdfdf" d="m 18,80 v 1 1 h 2 c 0,0 0,0 0,-1 v -1 h -1 z"/>
  <path style="opacity:0.2;fill:#dfdfdf" d="m 18,81 v 1 h 2 v -1 h -1 z"/>
 </g>
 <g id="north-focus-bottom" transform="translate(21)">
  <rect style="opacity:0.001" width="14" height="3" x="3" y="38"/>
  <path style="fill:#8ab4f8" d="m 3,38 v 1 1 h 14 v -1 -1 z"/>
 </g>
 <g id="north-focus-left" transform="translate(20,-42)">
  <rect style="opacity:0.001" width="3" height="14" x="1" y="66"/>
  <path style="opacity:0.1;fill:#dfdfdf" d="M 2,66 V 80 H 3 4 V 66 H 3 Z"/>
 </g>
 <g id="north-focus-right" transform="translate(20,-42)">
  <rect style="opacity:0.001" width="3" height="14" x="18" y="66"/>
  <path style="opacity:0.1;fill:#dfdfdf" d="m 18,66 v 14 h 1 1 V 66 h -1 z"/>
 </g>
 <g id="north-focus-center" transform="matrix(0.51851851,0,0,1.0769231,21.407407,19.58462)">
  <rect style="opacity:0.1;fill:#dfdfdf" width="27" height="13" x="5" y="4.1"/>
 </g>
 <g id="north-focus-top" transform="translate(20,-42)">
  <rect style="opacity:0.001" width="14" height="3" x="4" y="63"/>
  <g transform="matrix(0.53846154,0,0,-1,1.3076923,93)">
   <path style="opacity:0.1;fill:#dfdfdf" transform="matrix(1,0,0,-1,0,93)" d="m 5,64 v 1 1 h 26 v -1 -1 z"/>
  </g>
 </g>
 <g id="north-focus-topleft" transform="translate(20,-42)">
  <rect style="opacity:0.001" width="3" height="3" x="1" y="63"/>
  <path style="opacity:0.1;fill:#dfdfdf" d="m 3,64 c -1,0 -1,1 -1,1 v 1 h 1 1 v -1 -1 z"/>
 </g>
 <g id="north-focus-topright" transform="translate(20,-42)">
  <rect style="opacity:0.001" width="3" height="3" x="18" y="63"/>
  <path style="opacity:0.1;fill:#dfdfdf" d="m 18,64 v 1 1 h 1 1 v -1 c 0,-1 -1,-1 -1,-1 z"/>
 </g>
 <g id="north-focus-bottomleft" transform="translate(20,-42)">
  <rect style="opacity:0.001" width="3" height="3" x="1" y="80"/>
  <path style="fill:#8ab4f8" d="m 2,80 v 2 c 0,0 0,0 1,0 H 4 V 81 80 H 3 Z"/>
 </g>
 <g id="north-focus-bottomright" transform="translate(20,-42)">
  <rect style="opacity:0.001" width="3" height="3" x="18" y="80"/>
  <path style="fill:#8ab4f8" d="m 18,80 v 1 1 h 2 c 0,0 0,0 0,-1 v -1 h -1 z"/>
 </g>
 <g id="progress-top">
  <rect style="opacity:0.001" width="14" height="3" x="3" y="-3" transform="scale(1,-1)"/>
  <path style="fill:#4caf50" d="M 3,3 V 2 1 h 14 v 1 1 z"/>
 </g>
 <rect id="progress-left" style="opacity:0.001" width="3" height="14" x="0" y="-17" transform="scale(1,-1)"/>
 <rect id="progress-right" style="opacity:0.001" width="3" height="14" x="17" y="-17" transform="scale(1,-1)"/>
 <rect id="progress-center" style="opacity:0.001" width="14" height="14" x="3" y="-17" transform="scale(1,-1)"/>
 <rect id="progress-bottom" style="opacity:0.001" width="14" height="3" x="3" y="-20" transform="scale(1,-1)"/>
 <rect id="progress-bottomleft" style="opacity:0.001" width="3" height="3" x="0" y="-20" transform="scale(1,-1)"/>
 <rect id="progress-bottomright" style="opacity:0.001" width="3" height="3" x="17" y="-20" transform="scale(1,-1)"/>
 <g id="progress-topleft">
  <rect style="opacity:0.001" width="3" height="3" x="0" y="-3" transform="scale(1,-1)"/>
  <path style="fill:#4caf50" d="M 1,3 V 1 C 1,1 1,1 2,1 H 3 V 2 3 H 2 Z"/>
 </g>
 <g id="progress-topright">
  <rect style="opacity:0.001" width="3" height="3" x="17" y="-3" transform="scale(1,-1)"/>
  <path style="fill:#4caf50" d="M 17,3 V 2 1 h 2 c 0,0 0,0 0,1 v 1 h -1 z"/>
 </g>
 <g id="east-minimized-bottom" transform="translate(42)">
  <rect style="opacity:0.001" width="14" height="3" x="3" y="122"/>
  <path style="opacity:0.1;fill:#dfdfdf" d="m 3,122 v 1 1 h 14 v -1 -1 z"/>
 </g>
 <g id="east-minimized-left" transform="translate(41,42)">
  <rect style="opacity:0.001" width="3" height="14" x="1" y="66"/>
  <path style="opacity:0.1;fill:#dfdfdf" d="M 2,66 V 80 H 3 4 V 66 H 3 Z"/>
 </g>
 <g id="east-minimized-right" transform="translate(41,42)">
  <rect style="opacity:0.001" width="3" height="14" x="18" y="66"/>
  <path style="opacity:0.1;fill:#dfdfdf" d="m 18,66 v 14 h 1 1 V 66 h -1 z"/>
 </g>
 <g id="east-minimized-center" transform="matrix(0.51851851,0,0,1.0769231,42.407407,103.58462)">
  <rect style="opacity:0.1;fill:#dfdfdf" width="27" height="13" x="5" y="4.1"/>
 </g>
 <g id="east-minimized-top" transform="translate(41,42)">
  <rect style="opacity:0.001" width="14" height="3" x="4" y="63"/>
  <g id="hover-top-1" transform="matrix(0.53846154,0,0,-1,1.3076923,93)">
   <path style="opacity:0.1;fill:#dfdfdf" transform="matrix(1,0,0,-1,0,93)" d="m 5,64 v 1 1 h 26 v -1 -1 z"/>
  </g>
 </g>
 <g id="east-minimized-topleft" transform="translate(41,42)">
  <rect style="opacity:0.001" width="3" height="3" x="1" y="63"/>
  <path style="opacity:0.1;fill:#dfdfdf" d="m 3,64 c -1,0 -1,0 -1,0 v 2 h 1 1 v -1 -1 z"/>
 </g>
 <g id="east-minimized-topright" transform="translate(41,42)">
  <rect style="opacity:0.001" width="3" height="3" x="18" y="63"/>
  <path style="opacity:0.1;fill:#dfdfdf" d="m 18,64 v 1 1 h 1 1 v -1 c 0,-1 -1,-1 -1,-1 z"/>
 </g>
 <g id="east-minimized-bottomleft" transform="translate(41,42)">
  <rect style="opacity:0.001" width="3" height="3" x="1" y="80"/>
  <path style="opacity:0.1;fill:#dfdfdf" d="m 2,80 v 2 c 0,0 0,0 1,0 H 4 V 81 80 H 3 Z"/>
 </g>
 <g id="east-minimized-bottomright" transform="translate(41,42)">
  <rect style="opacity:0.001" width="3" height="3" x="18" y="80"/>
  <path style="opacity:0.1;fill:#dfdfdf" d="m 18,80 v 1 1 h 1 c 0,0 1,0 1,-1 v -1 h -1 z"/>
 </g>
 <g id="east-attention-bottom" transform="translate(42)">
  <rect style="opacity:0.001" width="14" height="3" x="3" y="101"/>
  <path style="opacity:0.12;fill:#f44336" d="m 3,101 v 1 1 h 14 v -1 -1 z"/>
 </g>
 <g id="east-attention-left" transform="translate(41,21)">
  <rect style="opacity:0.001" width="3" height="14" x="1" y="66"/>
  <path style="fill:#f44336" d="M 2,66 V 80 H 3 4 V 66 H 3 Z"/>
 </g>
 <g id="east-attention-right" transform="translate(41,21)">
  <rect style="opacity:0.001" width="3" height="14" x="18" y="66"/>
  <path style="opacity:0.12;fill:#f44336" d="m 18,66 v 14 h 1 1 V 66 h -1 z"/>
 </g>
 <g id="east-attention-center" transform="matrix(0.51851851,0,0,1.0769231,42.407407,82.58462)">
  <rect style="opacity:0.12;fill:#f44336" width="27" height="13" x="5" y="4.1"/>
 </g>
 <g id="east-attention-top" transform="translate(41,21)">
  <rect style="opacity:0.001" width="14" height="3" x="4" y="63"/>
  <g transform="matrix(0.53846154,0,0,-1,1.3076923,93)">
   <path style="opacity:0.12;fill:#f44336" transform="matrix(1,0,0,-1,0,93)" d="m 5,64 v 1 1 h 26 v -1 -1 z"/>
  </g>
 </g>
 <g id="east-attention-topleft" transform="translate(41,21)">
  <rect style="opacity:0.001" width="3" height="3" x="1" y="63"/>
  <path style="fill:#f44336" d="m 3,64 c -1,0 -1,0 -1,0 v 2 h 1 1 v -1 -1 z"/>
 </g>
 <g id="east-attention-topright" transform="translate(41,21)">
  <rect style="opacity:0.001" width="3" height="3" x="18" y="63"/>
  <path style="opacity:0.12;fill:#f44336" d="m 18,64 v 1 1 h 1 1 v -1 c 0,-1 -1,-1 -1,-1 z"/>
 </g>
 <g id="east-attention-bottomleft" transform="translate(41,21)">
  <rect style="opacity:0.001" width="3" height="3" x="1" y="80"/>
  <path style="fill:#f44336" d="m 2,80 v 2 c 0,0 0,0 1,0 H 4 V 81 80 H 3 Z"/>
 </g>
 <g id="east-attention-bottomright" transform="translate(41,21)">
  <rect style="opacity:0.001" width="3" height="3" x="18" y="80"/>
  <path style="opacity:0.12;fill:#f44336" d="m 18,80 v 1 1 h 1 c 0,0 1,0 1,-1 v -1 h -1 z"/>
 </g>
 <g id="east-hover-bottom" transform="translate(42)">
  <rect style="opacity:0.001" width="14" height="3" x="3" y="80"/>
  <path style="opacity:0.1;fill:#dfdfdf" d="m 3,80 v 1 1 h 14 v -1 -1 z"/>
 </g>
 <g id="east-hover-left" transform="translate(41)">
  <rect style="opacity:0.001" width="3" height="14" x="1" y="66"/>
  <path style="fill:#8ab4f8" d="M 2,66 V 80 H 3 4 V 66 H 3 Z"/>
 </g>
 <g id="east-hover-right" transform="translate(41)">
  <rect style="opacity:0.001" width="3" height="14" x="18" y="66"/>
  <path style="opacity:0.1;fill:#dfdfdf" d="m 18,66 v 14 h 1 1 V 66 h -1 z"/>
 </g>
 <g id="east-hover-center" transform="matrix(0.51851851,0,0,1.0769231,42.407407,61.584615)">
  <rect style="opacity:0.1;fill:#dfdfdf" width="27" height="13" x="5" y="4.1"/>
 </g>
 <g id="east-hover-top" transform="translate(41)">
  <rect style="opacity:0.001" width="14" height="3" x="4" y="63"/>
  <g transform="matrix(0.53846154,0,0,-1,1.3076923,93)">
   <path style="opacity:0.1;fill:#dfdfdf" transform="matrix(1,0,0,-1,0,93)" d="m 5,64 v 1 1 h 26 v -1 -1 z"/>
  </g>
 </g>
 <g id="east-hover-topleft" transform="translate(41)">
  <rect style="opacity:0.001" width="3" height="3" x="1" y="63"/>
  <path style="fill:#8ab4f8" d="m 3,64 c -1,0 -1,0 -1,0 v 2 h 1 1 v -1 -1 z"/>
 </g>
 <g id="east-hover-topright" transform="translate(41)">
  <rect style="opacity:0.001" width="3" height="3" x="18" y="63"/>
  <path style="opacity:0.1;fill:#dfdfdf" d="m 18,64 v 1 1 h 1 1 v -1 c 0,-1 -1,-1 -1,-1 z"/>
 </g>
 <g id="east-hover-bottomleft" transform="translate(41)">
  <rect style="opacity:0.001" width="3" height="3" x="1" y="80"/>
  <path style="fill:#8ab4f8" d="m 2,80 v 2 c 0,0 0,0 1,0 H 4 V 81 80 H 3 Z"/>
 </g>
 <g id="east-hover-bottomright" transform="translate(41)">
  <rect style="opacity:0.001" width="3" height="3" x="18" y="80"/>
  <path style="opacity:0.1;fill:#dfdfdf" d="m 18,80 v 1 1 h 1 c 0,0 1,0 1,-1 v -1 h -1 z"/>
 </g>
 <g id="east-normal-bottom" transform="translate(42)">
  <rect style="opacity:0.001" width="14" height="3" x="3" y="59"/>
  <path style="opacity:0.1;fill:#dfdfdf" d="m 3,59 v 1 1 h 14 v -1 -1 z"/>
 </g>
 <g id="east-normal-left" transform="translate(41,-21)">
  <rect style="opacity:0.001" width="3" height="14" x="1" y="66"/>
  <path style="opacity:0.1;fill:#dfdfdf" d="M 2,66 V 80 H 3 4 V 66 H 3 Z"/>
  <path style="opacity:0.2;fill:#dfdfdf" d="M 2,66 V 80 H 3 V 66 Z"/>
 </g>
 <g id="east-normal-right" transform="translate(41,-21)">
  <rect style="opacity:0.001" width="3" height="14" x="18" y="66"/>
  <path style="opacity:0.1;fill:#dfdfdf" d="m 18,66 v 14 h 1 1 V 66 h -1 z"/>
 </g>
 <g id="east-normal-center" transform="matrix(0.51851851,0,0,1.0769231,42.407407,40.58462)">
  <rect style="opacity:0.1;fill:#dfdfdf" width="27" height="13" x="5" y="4.1"/>
 </g>
 <g id="east-normal-top" transform="translate(41,-21)">
  <rect style="opacity:0.001" width="14" height="3" x="4" y="63"/>
  <g transform="matrix(0.53846154,0,0,-1,1.3076923,93)">
   <path style="opacity:0.1;fill:#dfdfdf" transform="matrix(1,0,0,-1,0,93)" d="m 5,64 v 1 1 h 26 v -1 -1 z"/>
  </g>
 </g>
 <g id="east-normal-topleft" transform="translate(41,-21)">
  <rect style="opacity:0.001" width="3" height="3" x="1" y="63"/>
  <path style="opacity:0.1;fill:#dfdfdf" d="m 3,64 c -1,0 -1,0 -1,0 v 2 h 1 1 v -1 -1 z"/>
  <path style="opacity:0.2;fill:#dfdfdf" d="m 2,64 v 2 h 1 v -1 -1 z"/>
 </g>
 <g id="east-normal-topright" transform="translate(41,-21)">
  <rect style="opacity:0.001" width="3" height="3" x="18" y="63"/>
  <path style="opacity:0.1;fill:#dfdfdf" d="m 18,64 v 1 1 h 1 1 v -1 c 0,-1 -1,-1 -1,-1 z"/>
 </g>
 <g id="east-normal-bottomleft" transform="translate(41,-21)">
  <rect style="opacity:0.001" width="3" height="3" x="1" y="80"/>
  <path style="opacity:0.1;fill:#dfdfdf" d="m 2,80 v 2 c 0,0 0,0 1,0 H 4 V 81 80 H 3 Z"/>
  <path style="opacity:0.2;fill:#dfdfdf" d="m 2,80 v 2 h 1 v -1 -1 z"/>
 </g>
 <g id="east-normal-bottomright" transform="translate(41,-21)">
  <rect style="opacity:0.001" width="3" height="3" x="18" y="80"/>
  <path style="opacity:0.1;fill:#dfdfdf" d="m 18,80 v 1 1 h 1 c 0,0 1,0 1,-1 v -1 h -1 z"/>
 </g>
 <g id="east-focus-bottom" transform="translate(42)">
  <rect style="opacity:0.001" width="14" height="3" x="3" y="38"/>
  <path style="opacity:0.1;fill:#dfdfdf" d="m 3,38 v 1 1 h 14 v -1 -1 z"/>
 </g>
 <g id="east-focus-left" transform="translate(41,-42)">
  <rect style="opacity:0.001" width="3" height="14" x="1" y="66"/>
  <path style="fill:#8ab4f8" d="M 2,66 V 80 H 3 4 V 66 H 3 Z"/>
 </g>
 <g id="east-focus-right" transform="translate(41,-42)">
  <rect style="opacity:0.001" width="3" height="14" x="18" y="66"/>
  <path style="opacity:0.1;fill:#dfdfdf" d="m 18,66 v 14 h 1 1 V 66 h -1 z"/>
 </g>
 <g id="east-focus-center" transform="matrix(0.51851851,0,0,1.0769231,42.407407,19.58462)">
  <rect style="opacity:0.1;fill:#dfdfdf" width="27" height="13" x="5" y="4.1"/>
 </g>
 <g id="east-focus-top" transform="translate(41,-42)">
  <rect style="opacity:0.001" width="14" height="3" x="4" y="63"/>
  <g transform="matrix(0.53846154,0,0,-1,1.3076923,93)">
   <path style="opacity:0.1;fill:#dfdfdf" transform="matrix(1,0,0,-1,0,93)" d="m 5,64 v 1 1 h 26 v -1 -1 z"/>
  </g>
 </g>
 <g id="east-focus-topleft" transform="translate(41,-42)">
  <rect style="opacity:0.001" width="3" height="3" x="1" y="63"/>
  <path style="fill:#8ab4f8" d="m 3,64 c -1,0 -1,0 -1,0 v 2 h 1 1 v -1 -1 z"/>
 </g>
 <g id="east-focus-topright" transform="translate(41,-42)">
  <rect style="opacity:0.001" width="3" height="3" x="18" y="63"/>
  <path style="opacity:0.1;fill:#dfdfdf" d="m 18,64 v 1 1 h 1 1 v -1 c 0,-1 -1,-1 -1,-1 z"/>
 </g>
 <g id="east-focus-bottomleft" transform="translate(41,-42)">
  <rect style="opacity:0.001" width="3" height="3" x="1" y="80"/>
  <path style="fill:#8ab4f8" d="m 2,80 v 2 c 0,0 0,0 1,0 H 4 V 81 80 H 3 Z"/>
 </g>
 <g id="east-focus-bottomright" transform="translate(41,-42)">
  <rect style="opacity:0.001" width="3" height="3" x="18" y="80"/>
  <path style="opacity:0.1;fill:#dfdfdf" d="m 18,80 v 1 1 h 1 c 0,0 1,0 1,-1 v -1 h -1 z"/>
 </g>
 <g id="east-progress-left">
  <rect style="opacity:0.001" width="14" height="3" x="3" y="-45" transform="rotate(90)"/>
  <path style="fill:#4caf50" d="m 45,3 h -1 -1 v 14 h 1 1 z"/>
 </g>
 <rect id="east-progress-top" style="opacity:0.001" width="3" height="14" x="0" y="-59" transform="rotate(90)"/>
 <rect id="east-progress-bottom" style="opacity:0.001" width="3" height="14" x="17" y="-59" transform="rotate(90)"/>
 <rect id="east-progress-center" style="opacity:0.001" width="14" height="14" x="3" y="-59" transform="rotate(90)"/>
 <rect id="east-progress-right" style="opacity:0.001" width="14" height="3" x="3" y="-62" transform="rotate(90)"/>
 <rect id="east-progress-topright" style="opacity:0.001" width="3" height="3" x="0" y="-62" transform="rotate(90)"/>
 <rect id="east-progress-bottomright" style="opacity:0.001" width="3" height="3" x="17" y="-62" transform="rotate(90)"/>
 <g id="east-progress-topleft">
  <rect style="opacity:0.001" width="3" height="3" x="0" y="-45" transform="rotate(90)"/>
  <path style="fill:#4caf50" d="m 45,1 h -2 c 0,0 0,0 0,1 v 1 h 1 1 V 2 Z"/>
 </g>
 <g id="east-progress-bottomleft">
  <rect style="opacity:0.001" width="3" height="3" x="17" y="-45" transform="rotate(90)"/>
  <path style="fill:#4caf50" d="m 45,17 h -1 -1 v 2 c 0,0 0,0 1,0 h 1 v -1 z"/>
 </g>
 <g id="west-minimized-bottom" transform="translate(63)">
  <rect style="opacity:0.001" width="14" height="3" x="3" y="122"/>
  <path style="opacity:0.1;fill:#dfdfdf" d="m 3,122 v 1 1 h 14 v -1 -1 z"/>
 </g>
 <g id="west-minimized-left" transform="translate(62,42)">
  <rect style="opacity:0.001" width="3" height="14" x="1" y="66"/>
  <path style="opacity:0.1;fill:#dfdfdf" d="M 2,66 V 80 H 3 4 V 66 H 3 Z"/>
 </g>
 <g id="west-minimized-right" transform="translate(62,42)">
  <rect style="opacity:0.001" width="3" height="14" x="18" y="66"/>
  <path style="opacity:0.1;fill:#dfdfdf" d="m 18,66 v 14 h 1 1 V 66 h -1 z"/>
 </g>
 <g id="west-minimized-center" transform="matrix(0.51851851,0,0,1.0769231,63.407407,103.58462)">
  <rect style="opacity:0.1;fill:#dfdfdf" width="27" height="13" x="5" y="4.1"/>
 </g>
 <g id="west-minimized-top" transform="translate(62,42)">
  <rect style="opacity:0.001" width="14" height="3" x="4" y="63"/>
  <g id="hover-top-94" transform="matrix(0.53846154,0,0,-1,1.3076923,93)">
   <path style="opacity:0.1;fill:#dfdfdf" transform="matrix(1,0,0,-1,0,93)" d="m 5,64 v 1 1 h 26 v -1 -1 z"/>
  </g>
 </g>
 <g id="west-minimized-topleft" transform="translate(62,42)">
  <rect style="opacity:0.001" width="3" height="3" x="1" y="63"/>
  <path style="opacity:0.1;fill:#dfdfdf" d="m 3,64 c -1,0 -1,1 -1,1 v 1 h 1 1 v -1 -1 z"/>
 </g>
 <g id="west-minimized-topright" transform="translate(62,42)">
  <rect style="opacity:0.001" width="3" height="3" x="18" y="63"/>
  <path style="opacity:0.1;fill:#dfdfdf" d="m 18,64 v 1 1 h 1 1 v -1 c 0,-1 0,-1 0,-1 z"/>
 </g>
 <g id="west-minimized-bottomleft" transform="translate(62,42)">
  <rect style="opacity:0.001" width="3" height="3" x="1" y="80"/>
  <path style="opacity:0.1;fill:#dfdfdf" d="m 2,80 v 1 c 0,0 0,1 1,1 H 4 V 81 80 H 3 Z"/>
 </g>
 <g id="west-minimized-bottomright" transform="translate(62,42)">
  <rect style="opacity:0.001" width="3" height="3" x="18" y="80"/>
  <path style="opacity:0.1;fill:#dfdfdf" d="m 18,80 v 1 1 h 2 c 0,0 0,0 0,-1 v -1 h -1 z"/>
 </g>
 <g id="west-attention-bottom" transform="translate(63)">
  <rect style="opacity:0.001" width="14" height="3" x="3" y="101"/>
  <path style="opacity:0.12;fill:#f44336" d="m 3,101 v 1 1 h 14 v -1 -1 z"/>
 </g>
 <g id="west-attention-left" transform="translate(62,21)">
  <rect style="opacity:0.001" width="3" height="14" x="1" y="66"/>
  <path style="opacity:0.12;fill:#f44336" d="M 2,66 V 80 H 3 4 V 66 H 3 Z"/>
 </g>
 <g id="west-attention-right" transform="translate(62,21)">
  <rect style="opacity:0.001" width="3" height="14" x="18" y="66"/>
  <path style="fill:#f44336" d="m 18,66 v 14 h 1 1 V 66 h -1 z"/>
 </g>
 <g id="west-attention-center" transform="matrix(0.51851851,0,0,1.0769231,63.407407,82.58462)">
  <rect style="opacity:0.12;fill:#f44336" width="27" height="13" x="5" y="4.1"/>
 </g>
 <g id="west-attention-top" transform="translate(62,21)">
  <rect style="opacity:0.001" width="14" height="3" x="4" y="63"/>
  <g transform="matrix(0.53846154,0,0,-1,1.3076923,93)">
   <path style="opacity:0.12;fill:#f44336" transform="matrix(1,0,0,-1,0,93)" d="m 5,64 v 1 1 h 26 v -1 -1 z"/>
  </g>
 </g>
 <g id="west-attention-topleft" transform="translate(62,21)">
  <rect style="opacity:0.001" width="3" height="3" x="1" y="63"/>
  <path style="opacity:0.12;fill:#f44336" d="m 3,64 c -1,0 -1,1 -1,1 v 1 h 1 1 v -1 -1 z"/>
 </g>
 <g id="west-attention-topright" transform="translate(62,21)">
  <rect style="opacity:0.001" width="3" height="3" x="18" y="63"/>
  <path style="fill:#f44336" d="m 18,64 v 1 1 h 1 1 v -1 c 0,-1 0,-1 0,-1 z"/>
 </g>
 <g id="west-attention-bottomleft" transform="translate(62,21)">
  <rect style="opacity:0.001" width="3" height="3" x="1" y="80"/>
  <path style="opacity:0.12;fill:#f44336" d="m 2,80 v 1 c 0,0 0,1 1,1 H 4 V 81 80 H 3 Z"/>
 </g>
 <g id="west-attention-bottomright" transform="translate(62,21)">
  <rect style="opacity:0.001" width="3" height="3" x="18" y="80"/>
  <path style="fill:#f44336" d="m 18,80 v 1 1 h 2 c 0,0 0,0 0,-1 v -1 h -1 z"/>
 </g>
 <g id="west-hover-bottom" transform="translate(63)">
  <rect style="opacity:0.001" width="14" height="3" x="3" y="80"/>
  <path style="opacity:0.1;fill:#dfdfdf" d="m 3,80 v 1 1 h 14 v -1 -1 z"/>
 </g>
 <g id="west-hover-left" transform="translate(62)">
  <rect style="opacity:0.001" width="3" height="14" x="1" y="66"/>
  <path style="opacity:0.1;fill:#dfdfdf" d="M 2,66 V 80 H 3 4 V 66 H 3 Z"/>
 </g>
 <g id="west-hover-right" transform="translate(62)">
  <rect style="opacity:0.001" width="3" height="14" x="18" y="66"/>
  <path style="fill:#8ab4f8" d="m 18,66 v 14 h 1 1 V 66 h -1 z"/>
 </g>
 <g id="west-hover-center" transform="matrix(0.51851851,0,0,1.0769231,63.407407,61.58462)">
  <rect style="opacity:0.1;fill:#dfdfdf" width="27" height="13" x="5" y="4.1"/>
 </g>
 <g id="west-hover-top" transform="translate(62)">
  <rect style="opacity:0.001" width="14" height="3" x="4" y="63"/>
  <g transform="matrix(0.53846154,0,0,-1,1.3076923,93)">
   <path style="opacity:0.1;fill:#dfdfdf" transform="matrix(1,0,0,-1,0,93)" d="m 5,64 v 1 1 h 26 v -1 -1 z"/>
  </g>
 </g>
 <g id="west-hover-topleft" transform="translate(62)">
  <rect style="opacity:0.001" width="3" height="3" x="1" y="63"/>
  <path style="opacity:0.1;fill:#dfdfdf" d="m 3,64 c -1,0 -1,1 -1,1 v 1 h 1 1 v -1 -1 z"/>
 </g>
 <g id="west-hover-topright" transform="translate(62)">
  <rect style="opacity:0.001" width="3" height="3" x="18" y="63"/>
  <path style="fill:#8ab4f8" d="m 18,64 v 1 1 h 1 1 v -1 c 0,-1 0,-1 0,-1 z"/>
 </g>
 <g id="west-hover-bottomleft" transform="translate(62)">
  <rect style="opacity:0.001" width="3" height="3" x="1" y="80"/>
  <path style="opacity:0.1;fill:#dfdfdf" d="m 2,80 v 1 c 0,0 0,1 1,1 H 4 V 81 80 H 3 Z"/>
 </g>
 <g id="west-hover-bottomright" transform="translate(62)">
  <rect style="opacity:0.001" width="3" height="3" x="18" y="80"/>
  <path style="fill:#8ab4f8" d="m 18,80 v 1 1 h 2 c 0,0 0,0 0,-1 v -1 h -1 z"/>
 </g>
 <g id="west-normal-bottom" transform="translate(63)">
  <rect style="opacity:0.001" width="14" height="3" x="3" y="59"/>
  <path style="opacity:0.1;fill:#dfdfdf" d="m 3,59 v 1 1 h 14 v -1 -1 z"/>
 </g>
 <g id="west-normal-left" transform="translate(62,-21)">
  <rect style="opacity:0.001" width="3" height="14" x="1" y="66"/>
  <path style="opacity:0.1;fill:#dfdfdf" d="M 2,66 V 80 H 3 4 V 66 H 3 Z"/>
 </g>
 <g id="west-normal-right" transform="translate(62,-21)">
  <rect style="opacity:0.001" width="3" height="14" x="18" y="66"/>
  <path style="opacity:0.1;fill:#dfdfdf" d="m 18,66 v 14 h 1 1 V 66 h -1 z"/>
  <path style="opacity:0.2;fill:#dfdfdf" d="m 19,66 v 14 h 1 V 66 Z"/>
 </g>
 <g id="west-normal-center" transform="matrix(0.51851851,0,0,1.0769231,63.407407,40.58462)">
  <rect style="opacity:0.1;fill:#dfdfdf" width="27" height="13" x="5" y="4.1"/>
 </g>
 <g id="west-normal-top" transform="translate(62,-21)">
  <rect style="opacity:0.001" width="14" height="3" x="4" y="63"/>
  <g transform="matrix(0.53846154,0,0,-1,1.3076923,93)">
   <path style="opacity:0.1;fill:#dfdfdf" transform="matrix(1,0,0,-1,0,93)" d="m 5,64 v 1 1 h 26 v -1 -1 z"/>
  </g>
 </g>
 <g id="west-normal-topleft" transform="translate(62,-21)">
  <rect style="opacity:0.001" width="3" height="3" x="1" y="63"/>
  <path style="opacity:0.1;fill:#dfdfdf" d="m 3,64 c -1,0 -1,1 -1,1 v 1 h 1 1 v -1 -1 z"/>
 </g>
 <g id="west-normal-topright" transform="translate(62,-21)">
  <rect style="opacity:0.001" width="3" height="3" x="18" y="63"/>
  <path style="opacity:0.1;fill:#dfdfdf" d="m 18,64 v 1 1 h 1 1 v -1 c 0,-1 0,-1 0,-1 z"/>
  <path style="opacity:0.2;fill:#dfdfdf" d="m 19,64 v 1 1 h 1 v -2 z"/>
 </g>
 <g id="west-normal-bottomleft" transform="translate(62,-21)">
  <rect style="opacity:0.001" width="3" height="3" x="1" y="80"/>
  <path style="opacity:0.1;fill:#dfdfdf" d="m 2,80 v 1 c 0,0 0,1 1,1 H 4 V 81 80 H 3 Z"/>
 </g>
 <g id="west-normal-bottomright" transform="translate(62,-21)">
  <rect style="opacity:0.001" width="3" height="3" x="18" y="80"/>
  <path style="opacity:0.1;fill:#dfdfdf" d="m 18,80 v 1 1 h 2 c 0,0 0,0 0,-1 v -1 h -1 z"/>
  <path style="opacity:0.2;fill:#dfdfdf" d="m 19,80 v 1 1 h 1 v -2 z"/>
 </g>
 <g id="west-focus-bottom" transform="translate(63)">
  <rect style="opacity:0.001" width="14" height="3" x="3" y="38"/>
  <path style="opacity:0.1;fill:#dfdfdf" d="m 3,38 v 1 1 h 14 v -1 -1 z"/>
 </g>
 <g id="west-focus-left" transform="translate(62,-42)">
  <rect style="opacity:0.001" width="3" height="14" x="1" y="66"/>
  <path style="opacity:0.1;fill:#dfdfdf" d="M 2,66 V 80 H 3 4 V 66 H 3 Z"/>
 </g>
 <g id="west-focus-right" transform="translate(62,-42)">
  <rect style="opacity:0.001" width="3" height="14" x="18" y="66"/>
  <path style="fill:#8ab4f8" d="m 18,66 v 14 h 1 1 V 66 h -1 z"/>
 </g>
 <g id="west-focus-center" transform="matrix(0.51851851,0,0,1.0769231,63.407407,19.58462)">
  <rect style="opacity:0.1;fill:#dfdfdf" width="27" height="13" x="5" y="4.1"/>
 </g>
 <g id="west-focus-top" transform="translate(62,-42)">
  <rect style="opacity:0.001" width="14" height="3" x="4" y="63"/>
  <g transform="matrix(0.53846154,0,0,-1,1.3076923,93)">
   <path style="opacity:0.1;fill:#dfdfdf" transform="matrix(1,0,0,-1,0,93)" d="m 5,64 v 1 1 h 26 v -1 -1 z"/>
  </g>
 </g>
 <g id="west-focus-topleft" transform="translate(62,-42)">
  <rect style="opacity:0.001" width="3" height="3" x="1" y="63"/>
  <path style="opacity:0.1;fill:#dfdfdf" d="m 3,64 c -1,0 -1,1 -1,1 v 1 h 1 1 v -1 -1 z"/>
 </g>
 <g id="west-focus-topright" transform="translate(62,-42)">
  <rect style="opacity:0.001" width="3" height="3" x="18" y="63"/>
  <path style="fill:#8ab4f8" d="m 18,64 v 1 1 h 1 1 v -1 c 0,-1 0,-1 0,-1 z"/>
 </g>
 <g id="west-focus-bottomleft" transform="translate(62,-42)">
  <rect style="opacity:0.001" width="3" height="3" x="1" y="80"/>
  <path style="opacity:0.1;fill:#dfdfdf" d="m 2,80 v 1 c 0,0 0,1 1,1 H 4 V 81 80 H 3 Z"/>
 </g>
 <g id="west-focus-bottomright" transform="translate(62,-42)">
  <rect style="opacity:0.001" width="3" height="3" x="18" y="80"/>
  <path style="fill:#8ab4f8" d="m 18,80 v 1 1 h 2 c 0,0 0,0 0,-1 v -1 h -1 z"/>
 </g>
 <g id="west-progress-right">
  <rect style="opacity:0.001" width="14" height="3" x="-17" y="80" transform="rotate(-90)"/>
  <path style="fill:#4caf50" d="m 80,17 h 1 1 V 3 h -1 -1 z"/>
 </g>
 <rect id="west-progress-bottom" style="opacity:0.001" width="3" height="14" x="-20" y="66" transform="rotate(-90)"/>
 <rect id="west-progress-top" style="opacity:0.001" width="3" height="14" x="-3" y="66" transform="rotate(-90)"/>
 <rect id="west-progress-center" style="opacity:0.001" width="14" height="14" x="-17" y="66" transform="rotate(-90)"/>
 <rect id="west-progress-left" style="opacity:0.001" width="14" height="3" x="-17" y="63" transform="rotate(-90)"/>
 <rect id="west-progress-bottomleft" style="opacity:0.001" width="3" height="3" x="-20" y="63" transform="rotate(-90)"/>
 <rect id="west-progress-topleft" style="opacity:0.001" width="3" height="3" x="-3" y="63" transform="rotate(-90)"/>
 <g id="west-progress-bottomright">
  <rect style="opacity:0.001" width="3" height="3" x="-20" y="80" transform="rotate(-90)"/>
  <path style="fill:#4caf50" d="m 80,19 h 2 c 0,0 0,0 0,-1 v -1 h -1 -1 v 1 z"/>
 </g>
 <g id="west-progress-topright">
  <rect style="opacity:0.001" width="3" height="3" x="-3" y="80" transform="rotate(-90)"/>
  <path style="fill:#4caf50" d="m 80,3 h 1 1 V 1 c 0,0 0,0 -1,0 h -1 v 1 z"/>
 </g>
 <g id="minimized-top" transform="translate(-1,42)">
  <rect style="opacity:0.001" width="14" height="3" x="4" y="63"/>
  <g transform="matrix(0.53846154,0,0,-1,1.3076923,93)">
   <path style="opacity:0.1;fill:#dfdfdf" transform="matrix(1,0,0,-1,0,93)" d="m 5,64 v 1 1 h 26 v -1 -1 z"/>
  </g>
 </g>
 <g id="group-expander-bottom" transform="matrix(1,0,0,-1,-23,240)">
  <path style="opacity:0.001" d="m 119,115 h -10 v 10 h 10 z"/>
  <circle style="fill:#8ab4f8" cx="111.5" cy="117.5" r="1.5"/>
  <circle style="fill:#8ab4f8" cx="116.5" cy="117.5" r="1.5"/>
 </g>
 <g id="group-expander-top" transform="translate(-13)">
  <path style="opacity:0.001" d="m 119,115 h -10 v 10 h 10 z"/>
  <circle style="fill:#8ab4f8" cx="111.5" cy="117.5" r="1.5"/>
  <circle style="fill:#8ab4f8" cx="116.5" cy="117.5" r="1.5"/>
 </g>
 <g id="group-expander-right" transform="matrix(0,-1,-1,0,211,224)">
  <path style="opacity:0.001" d="m 119,115 h -10 v 10 h 10 z"/>
  <circle style="fill:#8ab4f8" cx="111.5" cy="117.5" r="1.5"/>
  <circle style="fill:#8ab4f8" cx="116.5" cy="117.5" r="1.5"/>
 </g>
 <g id="group-expander-left" transform="rotate(-90,102.5,121.5)">
  <path style="opacity:0.001" d="m 119,115 h -10 v 10 h 10 z"/>
  <circle style="fill:#8ab4f8" cx="111.5" cy="117.5" r="1.5"/>
  <circle style="fill:#8ab4f8" cx="116.5" cy="117.5" r="1.5"/>
 </g>
</svg>
