<svg xmlns="http://www.w3.org/2000/svg" id="svg2" width="144" height="126" version="1" viewBox="0 0 144 126">
 <defs id="null">
  <filter id="filter7986-7-9-7-4-0" width="1" height="1" x="0" y="0" style="color-interpolation-filters:sRGB">
   <feTurbulence id="feTurbulence7988-54-9-1-4-1" baseFrequency=".03" numOctaves="5" result="result1" seed="0" type="fractalNoise"/>
   <feDisplacementMap id="feDisplacementMap7990-3-05-6-7-0" in="SourceGraphic" in2="result1" result="result3" scale="7" xChannelSelector="R" yChannelSelector="G"/>
   <feComposite id="feComposite7992-2-08-7-23-6" in="result3" in2="result1" operator="in" result="result4"/>
   <feGaussianBlur id="feGaussianBlur7994-4-0-9-1-96" in="result4" result="result8" stdDeviation=".7"/>
   <feConvolveMatrix id="feConvolveMatrix7996-8-8-2-4-6" bias="0" divisor="1" in="result8" kernelMatrix="1 1 1 1 -8 1 1 1 1" order="3 3" preserveAlpha="true" result="result0" targetX="1" targetY="1"/>
   <feColorMatrix id="feColorMatrix7998-9-71-3-3-3" in="result0" result="result1" type="luminanceToAlpha" values="1"/>
   <feComposite id="feComposite8000-2-2-2-4-88" in2="result1" k1="0" k2="5" k3="0" k4="0" operator="arithmetic" result="result11"/>
   <feGaussianBlur id="feGaussianBlur8002-70-11-4-0-82" in="result11" result="result7" stdDeviation=".5"/>
   <feColorMatrix id="feColorMatrix8004-7-4-2-5-1" result="result9" values="1 0 0 0 0 0 1 0 0 0 0 0 1 0 0 0 0 0 3 0"/>
   <feFlood id="feFlood8006-4-9-1-7-8" flood-color="#9D5728" flood-opacity="1" in="result9" result="result10"/>
   <feComposite id="feComposite8008-1-2-8-6-95" in="result10" in2="result9" operator="in" result="result12"/>
   <feComposite id="feComposite8010-6-2-1-8-17" in2="SourceGraphic" operator="in"/>
  </filter>
  <filter id="filter7986-7-9-7-4-1-5" width="1" height="1" x="0" y="0" style="color-interpolation-filters:sRGB">
   <feTurbulence id="feTurbulence7988-54-9-1-4-6-0" baseFrequency=".03" numOctaves="5" result="result1" seed="0" type="fractalNoise"/>
   <feDisplacementMap id="feDisplacementMap7990-3-05-6-7-3-0" in="SourceGraphic" in2="result1" result="result3" scale="7" xChannelSelector="R" yChannelSelector="G"/>
   <feComposite id="feComposite7992-2-08-7-23-0-6" in="result3" in2="result1" operator="in" result="result4"/>
   <feGaussianBlur id="feGaussianBlur7994-4-0-9-1-87-8" in="result4" result="result8" stdDeviation=".7"/>
   <feConvolveMatrix id="feConvolveMatrix7996-8-8-2-4-4-7" bias="0" divisor="1" in="result8" kernelMatrix="1 1 1 1 -8 1 1 1 1" order="3 3" preserveAlpha="true" result="result0" targetX="1" targetY="1"/>
   <feColorMatrix id="feColorMatrix7998-9-71-3-3-40-3" in="result0" result="result1" type="luminanceToAlpha" values="1"/>
   <feComposite id="feComposite8000-2-2-2-4-52-1" in2="result1" k1="0" k2="5" k3="0" k4="0" operator="arithmetic" result="result11"/>
   <feGaussianBlur id="feGaussianBlur8002-70-11-4-0-07-2" in="result11" result="result7" stdDeviation=".5"/>
   <feColorMatrix id="feColorMatrix8004-7-4-2-5-7-2" result="result9" values="1 0 0 0 0 0 1 0 0 0 0 0 1 0 0 0 0 0 3 0"/>
   <feFlood id="feFlood8006-4-9-1-7-9-1" flood-color="#9D5728" flood-opacity="1" in="result9" result="result10"/>
   <feComposite id="feComposite8008-1-2-8-6-7-3" in="result10" in2="result9" operator="in" result="result12"/>
   <feComposite id="feComposite8010-6-2-1-8-4-6" in2="SourceGraphic" operator="in"/>
  </filter>
  <filter id="filter7986-7-9-7-4-2-6" width="1" height="1" x="0" y="0" style="color-interpolation-filters:sRGB">
   <feTurbulence id="feTurbulence7988-54-9-1-4-9-4" baseFrequency=".03" numOctaves="5" result="result1" seed="0" type="fractalNoise"/>
   <feDisplacementMap id="feDisplacementMap7990-3-05-6-7-78-0" in="SourceGraphic" in2="result1" result="result3" scale="7" xChannelSelector="R" yChannelSelector="G"/>
   <feComposite id="feComposite7992-2-08-7-23-23-1" in="result3" in2="result1" operator="in" result="result4"/>
   <feGaussianBlur id="feGaussianBlur7994-4-0-9-1-9-2" in="result4" result="result8" stdDeviation=".7"/>
   <feConvolveMatrix id="feConvolveMatrix7996-8-8-2-4-0-0" bias="0" divisor="1" in="result8" kernelMatrix="1 1 1 1 -8 1 1 1 1" order="3 3" preserveAlpha="true" result="result0" targetX="1" targetY="1"/>
   <feColorMatrix id="feColorMatrix7998-9-71-3-3-53-5" in="result0" result="result1" type="luminanceToAlpha" values="1"/>
   <feComposite id="feComposite8000-2-2-2-4-75-4" in2="result1" k1="0" k2="5" k3="0" k4="0" operator="arithmetic" result="result11"/>
   <feGaussianBlur id="feGaussianBlur8002-70-11-4-0-0-2" in="result11" result="result7" stdDeviation=".5"/>
   <feColorMatrix id="feColorMatrix8004-7-4-2-5-55-8" result="result9" values="1 0 0 0 0 0 1 0 0 0 0 0 1 0 0 0 0 0 3 0"/>
   <feFlood id="feFlood8006-4-9-1-7-4-7" flood-color="#9D5728" flood-opacity="1" in="result9" result="result10"/>
   <feComposite id="feComposite8008-1-2-8-6-1-2" in="result10" in2="result9" operator="in" result="result12"/>
   <feComposite id="feComposite8010-6-2-1-8-5-2" in2="SourceGraphic" operator="in"/>
  </filter>
  <filter id="filter7986-7-9-7-4-5-5" width="1" height="1" x="0" y="0" style="color-interpolation-filters:sRGB">
   <feTurbulence id="feTurbulence7988-54-9-1-4-03-1" baseFrequency=".03" numOctaves="5" result="result1" seed="0" type="fractalNoise"/>
   <feDisplacementMap id="feDisplacementMap7990-3-05-6-7-79-5" in="SourceGraphic" in2="result1" result="result3" scale="7" xChannelSelector="R" yChannelSelector="G"/>
   <feComposite id="feComposite7992-2-08-7-23-7-9" in="result3" in2="result1" operator="in" result="result4"/>
   <feGaussianBlur id="feGaussianBlur7994-4-0-9-1-8-1" in="result4" result="result8" stdDeviation=".7"/>
   <feConvolveMatrix id="feConvolveMatrix7996-8-8-2-4-82-2" bias="0" divisor="1" in="result8" kernelMatrix="1 1 1 1 -8 1 1 1 1" order="3 3" preserveAlpha="true" result="result0" targetX="1" targetY="1"/>
   <feColorMatrix id="feColorMatrix7998-9-71-3-3-4-9" in="result0" result="result1" type="luminanceToAlpha" values="1"/>
   <feComposite id="feComposite8000-2-2-2-4-8-1" in2="result1" k1="0" k2="5" k3="0" k4="0" operator="arithmetic" result="result11"/>
   <feGaussianBlur id="feGaussianBlur8002-70-11-4-0-97-0" in="result11" result="result7" stdDeviation=".5"/>
   <feColorMatrix id="feColorMatrix8004-7-4-2-5-5-9" result="result9" values="1 0 0 0 0 0 1 0 0 0 0 0 1 0 0 0 0 0 3 0"/>
   <feFlood id="feFlood8006-4-9-1-7-38-0" flood-color="#9D5728" flood-opacity="1" in="result9" result="result10"/>
   <feComposite id="feComposite8008-1-2-8-6-85-5" in="result10" in2="result9" operator="in" result="result12"/>
   <feComposite id="feComposite8010-6-2-1-8-29-05" in2="SourceGraphic" operator="in"/>
  </filter>
 </defs>
 <g id="focus-left" transform="matrix(-1,0,0,-1,36,50)">
  <path id="rect4945-9-2-4" d="M 2 25 L 2 38 L 3 38 L 5 38 L 5 25 L 3 25 L 2 25 z" transform="matrix(-1,0,0,-1,36,50)" style="opacity:0.1;fill:#d3dae3;fill-opacity:1;stroke:none"/>
  <rect id="rect4951-3-2-7" width="1" height="13" x="34" y="12" style="opacity:1;fill:none;fill-opacity:1;stroke:none"/>
 </g>
 <g id="focus-right" transform="translate(0,13)">
  <path id="rect4945-8-1" d="M 31 25 L 31 38 L 33 38 L 34 38 L 34 25 L 33 25 L 31 25 z" transform="translate(0,-13)" style="opacity:0.1;fill:#d3dae3;fill-opacity:1;stroke:none"/>
  <rect id="rect4951-5-3" width="1" height="13" x="34" y="12" style="opacity:1;fill:none;fill-opacity:1;stroke:none"/>
 </g>
 <g id="focus-center" transform="matrix(0.96296296,0,0,1,0.1851852,20.9)">
  <rect id="rect4957-0-5" width="27" height="13" x="5" y="4.1" style="color:#3daee9;opacity:0.1;fill:#d3dae3;fill-opacity:1;stroke:none"/>
 </g>
 <g id="focus-top" transform="matrix(1,0,0,-1,0,51)">
  <path id="rect4997-3-9" d="M 5 22 L 5 23 L 5 25 L 31 25 L 31 23 L 31 22 L 5 22 z" transform="matrix(1,0,0,-1,0,51)" style="opacity:0.1;fill:#d3dae3;fill-opacity:1;stroke:none"/>
 </g>
 <g id="focus-topleft" transform="matrix(0,-1,-1,0,23,56)">
  <rect id="rect4369-7-5-09-7-4" width="3" height="1" x="31" y="21" style="opacity:1;fill:none;fill-opacity:1;stroke:none"/>
  <path id="rect5003-5-7-5" d="M 3 22 C 2 22 2 23 2 23 L 2 25 L 3 25 L 5 25 L 5 23 L 5 22 L 3 22 z" transform="matrix(0,-1,-1,0,56,23)" style="opacity:0.1;fill:#d3dae3;fill-opacity:1;stroke:none"/>
 </g>
 <g id="focus-topright" transform="matrix(1,0,0,-1,0,43)">
  <rect id="rect4369-7-5-0-18-3" width="1" height="3" x="34" y="-21" transform="scale(1,-1)" style="opacity:1;fill:none;fill-opacity:1;stroke:none"/>
  <path id="rect5003-7-6" d="M 31 22 L 31 23 L 31 25 L 33 25 L 34 25 L 34 23 C 34 22 33 22 33 22 L 31 22 z" transform="matrix(1,0,0,-1,0,43)" style="opacity:0.1;fill:#d3dae3;fill-opacity:1;stroke:none"/>
 </g>
 <g id="hover-left" transform="matrix(-1,0,0,-1,36,92)">
  <path id="rect4945-9-2-49" d="M 2 67 L 2 80 L 3 80 L 5 80 L 5 67 L 3 67 L 2 67 z" transform="matrix(-1,0,0,-1,36,92)" style="opacity:0.1;fill:#d3dae3;fill-opacity:1;stroke:none"/>
  <rect id="rect4951-3-2-72" width="1" height="13" x="34" y="12" style="opacity:1;fill:none;fill-opacity:1;stroke:none"/>
 </g>
 <g id="hover-right" transform="translate(0,55)">
  <path id="rect4945-8-19" d="M 31 67 L 31 80 L 33 80 L 34 80 L 34 67 L 33 67 L 31 67 z" transform="translate(0,-55)" style="opacity:0.1;fill:#d3dae3;fill-opacity:1;stroke:none"/>
  <rect id="rect4951-5-6" width="1" height="13" x="34" y="12" style="opacity:1;fill:none;fill-opacity:1;stroke:none"/>
 </g>
 <g id="hover-center" transform="matrix(0.96296296,0,0,1,0.1851852,62.9)">
  <rect id="rect4957-0-0" width="27" height="13" x="5" y="4.1" style="color:#3daee9;opacity:0.1;fill:#d3dae3;fill-opacity:1;stroke:none"/>
 </g>
 <g id="hover-top" transform="matrix(1,0,0,-1,0,93)">
  <path id="rect4997-3-95" d="M 5 64 L 5 65 L 5 67 L 31 67 L 31 65 L 31 64 L 5 64 z" transform="matrix(1,0,0,-1,0,93)" style="opacity:0.1;fill:#d3dae3;fill-opacity:1;stroke:none"/>
 </g>
 <g id="hover-topleft" transform="matrix(0,-1,-1,0,23,98)">
  <rect id="rect4369-7-5-09-7-47" width="3" height="1" x="31" y="21" style="opacity:1;fill:none;fill-opacity:1;stroke:none"/>
  <path id="rect5003-5-7-4" d="M 3 64 C 2 64 2 65 2 65 L 2 67 L 3 67 L 5 67 L 5 65 L 5 64 L 3 64 z" transform="matrix(0,-1,-1,0,98,23)" style="opacity:0.1;fill:#d3dae3;fill-opacity:1;stroke:none"/>
 </g>
 <g id="hover-topright" transform="matrix(1,0,0,-1,0,85)">
  <rect id="rect4369-7-5-0-18-1" width="1" height="3" x="34" y="-21" transform="scale(1,-1)" style="opacity:1;fill:none;fill-opacity:1;stroke:none"/>
  <path id="rect5003-7-7" d="M 31 64 L 31 65 L 31 67 L 33 67 L 34 67 L 34 65 C 34 64 33 64 33 64 L 31 64 z" transform="matrix(1,0,0,-1,0,85)" style="opacity:0.1;fill:#d3dae3;fill-opacity:1;stroke:none"/>
 </g>
 <g id="attention-left" transform="matrix(-1,0,0,-1,36,113)">
  <path id="rect4945-9-2-6" d="M 2 88 L 2 101 L 3 101 L 5 101 L 5 88 L 3 88 L 2 88 z" transform="matrix(-1,0,0,-1,36,113)" style="opacity:1;fill:#00c853;fill-opacity:1;stroke:none"/>
  <rect id="rect4951-3-2-4" width="1" height="13" x="34" y="12" style="opacity:1;fill:none;fill-opacity:1;stroke:none"/>
 </g>
 <g id="attention-right" transform="translate(0,76)">
  <path id="rect4945-8-0" d="M 31 88 L 31 101 L 33 101 L 34 101 L 34 88 L 33 88 L 31 88 z" transform="translate(0,-76)" style="opacity:1;fill:#00c853;fill-opacity:1;stroke:none"/>
  <rect id="rect4951-5-0" width="1" height="13" x="34" y="12" style="opacity:1;fill:none;fill-opacity:1;stroke:none"/>
 </g>
 <g id="attention-center" transform="matrix(0.96296296,0,0,1,0.1851852,83.9)">
  <rect id="rect4957-0-9" width="27" height="13" x="5" y="4.1" style="opacity:1;fill:#00c853;fill-opacity:1;stroke:none"/>
 </g>
 <g id="attention-top" transform="matrix(1,0,0,-1,0,114)">
  <path id="rect4997-3-90" d="M 5 85 L 5 86 L 5 88 L 31 88 L 31 86 L 31 85 L 5 85 z" transform="matrix(1,0,0,-1,0,114)" style="opacity:1;fill:#00c853;fill-opacity:1;stroke:none"/>
 </g>
 <g id="attention-topleft" transform="matrix(0,-1,-1,0,23,119)">
  <rect id="rect4369-7-5-09-7-1" width="3" height="1" x="31" y="21" style="opacity:1;fill:none;fill-opacity:1;stroke:none"/>
  <path id="rect5003-5-7-25" d="M 3 85 C 2 85 2 86 2 86 L 2 88 L 3 88 L 5 88 L 5 86 L 5 85 L 3 85 z" transform="matrix(0,-1,-1,0,119,23)" style="opacity:1;fill:#00c853;fill-opacity:1;stroke:none"/>
 </g>
 <g id="attention-topright" transform="matrix(1,0,0,-1,0,106)">
  <rect id="rect4369-7-5-0-18-9" width="1" height="3" x="34" y="-21" transform="scale(1,-1)" style="opacity:1;fill:none;fill-opacity:1;stroke:none"/>
  <path id="rect5003-7-0" d="M 31 85 L 31 86 L 31 88 L 33 88 L 34 88 L 34 86 C 34 85 33 85 33 85 L 31 85 z" transform="matrix(1,0,0,-1,0,106)" style="opacity:1;fill:#00c853;fill-opacity:1;stroke:none"/>
 </g>
 <g id="progress-left" transform="matrix(-1,0,0,-1,36,28.999999)">
  <rect id="rect4945-9-2-4-9" width="2" height="13" x="31" y="12" style="color:#3daee9;opacity:0;fill:#4877b1;fill-opacity:1;stroke:none"/>
  <rect id="rect4949-9-2-9-4" width="1" height="13" x="33" y="12" style="color:#3daee9;opacity:0;fill:#4877b1;fill-opacity:1;stroke:none"/>
  <rect id="rect4951-3-2-7-3" width="1" height="13" x="34" y="12" style="opacity:1;fill:none;fill-opacity:1;stroke:none"/>
 </g>
 <g id="progress-right" transform="translate(1e-7,-8.000001)">
  <rect id="rect4945-8-1-34" width="2" height="13" x="31" y="12" style="color:#3daee9;opacity:0;fill:#4877b1;fill-opacity:1;stroke:none"/>
  <rect id="rect4949-5-5-3" width="1" height="13" x="33" y="12" style="color:#3daee9;opacity:0;fill:#4877b1;fill-opacity:1;stroke:none"/>
  <rect id="rect4951-5-3-8" width="1" height="13" x="34" y="12" style="opacity:1;fill:none;fill-opacity:1;stroke:none"/>
 </g>
 <g id="progress-center" transform="matrix(0.96296296,0,0,1,0.1851852,-0.1)">
  <rect id="rect4957-0-5-1" width="27" height="13" x="5" y="4.1" style="color:#3daee9;opacity:0;fill:#4877b1;fill-opacity:1;stroke:none"/>
 </g>
 <g id="progress-top" transform="matrix(1,0,0,-1,1e-7,29.999999)">
  <rect id="rect4997-3-9-3" width="26" height="2" x="5" y="-28" transform="scale(1,-1)" style="color:#3daee9;opacity:0;fill:#4877b1;fill-opacity:1;stroke:none"/>
  <rect id="rect4999-2-9-8" width="26" height="1" x="5" y="-29" transform="scale(1,-1)" style="color:#3daee9;opacity:0;fill:#4877b1;fill-opacity:1;stroke:none"/>
 </g>
 <g id="progress-topleft" transform="matrix(0,-1,-1,0,23,35)">
  <rect id="rect4369-7-5-09-7-4-82" width="3" height="1" x="31" y="21" style="opacity:1;fill:none;fill-opacity:1;stroke:none"/>
  <rect id="rect5003-5-7-5-7" width="2" height="2" x="31" y="18" style="color:#3daee9;opacity:0;fill:#4877b1;fill-opacity:1;stroke:none"/>
  <path id="rect5015-0-5-7-0" d="m 31,21 0,-1 2,0 0,-2 1,0 0,2 c 0,1 -1,1 -1,1 l -2,0 z" style="color:#3daee9;opacity:0;fill:#4877b1;fill-opacity:1;stroke:none"/>
 </g>
 <g id="progress-topright" transform="matrix(1,0,0,-1,1e-7,21.999999)">
  <rect id="rect4369-7-5-0-18-3-4" width="1" height="3" x="34" y="-21" transform="scale(1,-1)" style="opacity:1;fill:none;fill-opacity:1;stroke:none"/>
  <rect id="rect5003-7-6-1" width="2" height="2" x="31" y="18" style="color:#3daee9;opacity:0;fill:#4877b1;fill-opacity:1;stroke:none"/>
  <path id="rect5015-1-3-6" d="m 31,21 0,-1 2,0 0,-2 1,0 0,2 c 0,1 -1,1 -1,1 l -2,0 z" style="color:#3daee9;opacity:0;fill:#4877b1;fill-opacity:1;stroke:none"/>
 </g>
 <g id="normal-left" transform="matrix(-1,0,0,-1,36,71)">
  <path id="rect4921" d="M 2 46 L 2 59 L 3 59 L 5 59 L 5 46 L 3 46 L 2 46 z" transform="matrix(-1,0,0,-1,36,71)" style="color:#3daee9;opacity:0.1;fill:#d3dae3;fill-opacity:1;stroke:none"/>
  <rect id="rect4925" width="1" height="13" x="34" y="12" style="opacity:1;fill:none;fill-opacity:1;stroke:none"/>
 </g>
 <g id="normal-right" transform="translate(0,34)">
  <path id="rect4929" d="M 31 46 L 31 59 L 33 59 L 34 59 L 34 46 L 33 46 L 31 46 z" transform="translate(0,-34)" style="color:#3daee9;opacity:0.1;fill:#d3dae3;fill-opacity:1;stroke:none"/>
  <rect id="rect4933" width="1" height="13" x="34" y="12" style="opacity:1;fill:none;fill-opacity:1;stroke:none"/>
 </g>
 <g id="normal-center" transform="matrix(0.96296296,0,0,1,0.1851852,41.9)">
  <rect id="rect4937" width="27" height="13" x="5" y="4.1" style="color:#3daee9;opacity:0.1;fill:#d3dae3;fill-opacity:1;stroke:none"/>
 </g>
 <g id="normal-top" transform="matrix(1,0,0,-1,0,72)">
  <path id="rect4941" d="M 5 43 L 5 44 L 5 46 L 31 46 L 31 44 L 31 43 L 5 43 z" transform="matrix(1,0,0,-1,0,72)" style="color:#3daee9;opacity:0.1;fill:#d3dae3;fill-opacity:1;stroke:none"/>
 </g>
 <g id="normal-topleft" transform="matrix(0,-1,-1,0,23,77)">
  <rect id="rect4947" width="3" height="1" x="31" y="21" style="opacity:1;fill:none;fill-opacity:1;stroke:none"/>
  <path id="rect4949" d="M 3 43 C 2 43 2 44 2 44 L 2 46 L 3 46 L 5 46 L 5 44 L 5 43 L 3 43 z" transform="matrix(0,-1,-1,0,77,23)" style="color:#3daee9;opacity:0.1;fill:#d3dae3;fill-opacity:1;stroke:none"/>
 </g>
 <g id="normal-topright" transform="matrix(1,0,0,-1,0,64)">
  <rect id="rect4955" width="1" height="3" x="34" y="-21" transform="scale(1,-1)" style="opacity:1;fill:none;fill-opacity:1;stroke:none"/>
  <path id="rect4957" d="M 31 43 L 31 44 L 31 46 L 33 46 L 34 46 L 34 44 C 34 43 33 43 33 43 L 31 43 z" transform="matrix(1,0,0,-1,0,64)" style="color:#3daee9;opacity:0.1;fill:#d3dae3;fill-opacity:1;stroke:none"/>
 </g>
 <g id="minimized-left" transform="matrix(-1,0,0,-1.0000002,36,134)">
  <path id="rect5177" d="M 2 109 L 2 122 L 3 122 L 5 122 L 5 109 L 3 109 L 2 109 z" transform="matrix(-1,0,0,-0.9999998,36,133.99997)" style="color:#3daee9;opacity:0.05;fill:#d3dae3;fill-opacity:1;stroke:none"/>
  <rect id="rect5181" width="1" height="13" x="34" y="12" style="opacity:1;fill:none;fill-opacity:1;stroke:none"/>
 </g>
 <g id="minimized-right" transform="translate(0,96.999988)">
  <path id="rect5185" d="M 31 109 L 31 122 L 33 122 L 34 122 L 34 109 L 33 109 L 31 109 z" transform="translate(0,-96.999988)" style="color:#3daee9;opacity:0.05;fill:#d3dae3;fill-opacity:1;stroke:none"/>
  <rect id="rect5189" width="1" height="13" x="34" y="12" style="opacity:1;fill:none;fill-opacity:1;stroke:none"/>
 </g>
 <g id="minimized-center" transform="matrix(0.96296296,0,0,1.0000002,0.1851852,104.89999)">
  <rect id="rect5193" width="27" height="13" x="5" y="4.1" style="color:#3daee9;opacity:0.05;fill:#d3dae3;fill-opacity:1;stroke:none"/>
 </g>
 <g id="minimized-top" transform="matrix(1,0,0,-1.0000002,0,135.00001)">
  <path id="rect5197" d="M 5 106 L 5 107 L 5 109 L 31 109 L 31 107 L 31 106 L 5 106 z" transform="matrix(1,0,0,-0.9999998,0,134.99998)" style="color:#3daee9;opacity:0.05;fill:#d3dae3;fill-opacity:1;stroke:none"/>
 </g>
 <g id="minimized-topleft" transform="matrix(0,-1.0000002,-1,0,23,140.00002)">
  <rect id="rect5203" width="3" height="1" x="31" y="21" style="opacity:1;fill:none;fill-opacity:1;stroke:none"/>
  <path id="rect5205" d="M 3 106 C 2 106 2 107 2 107 L 2 109 L 3 109 L 5 109 L 5 107 L 5 106 L 3 106 z" transform="matrix(0,-1,-0.9999998,0,139.99999,23)" style="color:#3daee9;opacity:0.05;fill:#d3dae3;fill-opacity:1;stroke:none"/>
 </g>
 <g id="minimized-topright" transform="matrix(1,0,0,-1.0000002,0,127)">
  <rect id="rect5211" width="1" height="3" x="34" y="-21" transform="scale(1,-1)" style="opacity:1;fill:none;fill-opacity:1;stroke:none"/>
  <path id="rect5213" d="M 31 106 L 31 107 L 31 109 L 33 109 L 34 109 L 34 107 C 34 106 33 106 33 106 L 31 106 z" transform="matrix(1,0,0,-0.9999998,0,126.99997)" style="color:#3daee9;opacity:0.05;fill:#d3dae3;fill-opacity:1;stroke:none"/>
 </g>
 <g id="progress-bottom" transform="translate(1e-7,-9)">
  <path id="rect4922" d="M 5 17 L 5 19 L 5 20 L 31 20 L 31 19 L 31 17 L 5 17 z" transform="translate(-1e-7,9)" style="color:#3daee9;opacity:0.001;fill:#000000;fill-opacity:1;stroke:none"/>
  <path id="path4438" d="m 5,18 0,1 0,1 26,0 0,-1 0,-1 z" transform="translate(-1e-7,9)" style="color:#3daee9;opacity:1;fill:#00c853;fill-opacity:1;stroke:none"/>
 </g>
 <g id="progress-bottomleft" transform="matrix(0,1,-1,0,23,-14.000001)">
  <rect id="rect4928" width="3" height="1" x="31" y="21" style="opacity:1;fill:none;fill-opacity:1;stroke:none"/>
  <path id="rect4930" d="M 2 17 L 2 19 C 2 19 2 20 3 20 L 5 20 L 5 19 L 5 17 L 3 17 L 2 17 z" transform="matrix(0,-1,1,0,14.000001,23)" style="color:#3daee9;opacity:0.001;fill:#000000;fill-opacity:1;stroke:none"/>
  <path id="path4440" d="m 2,18 0,1 c 0,0 0,1 1,1 l 2,0 0,-1 0,-1 -2,0 z" transform="matrix(0,-1,1,0,14.000001,23)" style="color:#3daee9;opacity:1;fill:#00c853;fill-opacity:1;stroke:none"/>
 </g>
 <g id="progress-bottomright" transform="translate(1e-7,-1)">
  <rect id="rect4936" width="1" height="3" x="34" y="-21" transform="scale(1,-1)" style="opacity:1;fill:none;fill-opacity:1;stroke:none"/>
  <path id="rect4938" d="M 31 17 L 31 19 L 31 20 L 33 20 C 33 20 34 20 34 19 L 34 17 L 33 17 L 31 17 z" transform="translate(-1e-7,1)" style="color:#3daee9;opacity:0.001;fill:#000000;fill-opacity:1;stroke:none"/>
  <path id="path4442" d="m 31,18 0,1 0,1 2,0 c 0,0 1,0 1,-1 l 0,-1 -1,0 z" transform="translate(-1e-7,1)" style="color:#3daee9;opacity:1;fill:#00c853;fill-opacity:1;stroke:none"/>
 </g>
 <g id="focus-bottom" transform="translate(0,12)">
  <path id="rect4944" d="M 5 38 L 5 40 L 5 41 L 31 41 L 31 40 L 31 38 L 5 38 z" transform="translate(0,-12)" style="color:#3daee9;opacity:0.1;fill:#d3dae3;fill-opacity:1;stroke:none"/>
  <path id="path4444" d="m 5,39 0,1 0,1 26,0 0,-1 0,-1 z" transform="translate(0,-12)" style="color:#3daee9;opacity:1;fill:#338dd6;fill-opacity:1;stroke:none"/>
 </g>
 <g id="focus-bottomleft" transform="matrix(0,1,-1,0,23,7)">
  <rect id="rect4950" width="3" height="1" x="31" y="21" style="opacity:1;fill:none;fill-opacity:1;stroke:none"/>
  <path id="rect4952" d="M 2 38 L 2 40 C 2 40 2 41 3 41 L 5 41 L 5 40 L 5 38 L 3 38 L 2 38 z" transform="matrix(0,-1,1,0,-7,23)" style="color:#3daee9;opacity:0.1;fill:#d3dae3;fill-opacity:1;stroke:none"/>
  <path id="path4446" d="m 2,39 0,1 c 0,0 0,1 1,1 l 2,0 0,-1 0,-1 -2,0 z" transform="matrix(0,-1,1,0,-7,23)" style="color:#3daee9;opacity:1;fill:#338dd6;fill-opacity:1;stroke:none"/>
 </g>
 <g id="focus-bottomright" transform="translate(0,20)">
  <rect id="rect4959" width="1" height="3" x="34" y="-21" transform="scale(1,-1)" style="opacity:1;fill:none;fill-opacity:1;stroke:none"/>
  <path id="rect4961" d="M 31 38 L 31 40 L 31 41 L 33 41 C 33 41 34 41 34 40 L 34 38 L 33 38 L 31 38 z" transform="translate(0,-20)" style="color:#3daee9;opacity:0.1;fill:#d3dae3;fill-opacity:1;stroke:none"/>
  <path id="path4448" d="m 31,39 0,1 0,1 2,0 c 0,0 1,0 1,-1 l 0,-1 -1,0 z" transform="translate(0,-20)" style="color:#3daee9;opacity:1;fill:#338dd6;fill-opacity:1;stroke:none"/>
 </g>
 <g id="normal-bottom" transform="translate(0,33)">
  <path id="rect4967" d="M 5 59 L 5 61 L 5 62 L 31 62 L 31 61 L 31 59 L 5 59 z" transform="translate(0,-33)" style="color:#3daee9;opacity:0.1;fill:#d3dae3;fill-opacity:1;stroke:none"/>
 </g>
 <g id="normal-bottomleft" transform="matrix(0,1,-1,0,23,28)">
  <rect id="rect4973" width="3" height="1" x="31" y="21" style="opacity:1;fill:none;fill-opacity:1;stroke:none"/>
  <path id="rect4975" d="M 2 59 L 2 61 C 2 61 2 62 3 62 L 5 62 L 5 61 L 5 59 L 3 59 L 2 59 z" transform="matrix(0,-1,1,0,-28,23)" style="color:#3daee9;opacity:0.1;fill:#d3dae3;fill-opacity:1;stroke:none"/>
 </g>
 <g id="normal-bottomright" transform="translate(0,41)">
  <rect id="rect4981" width="1" height="3" x="34" y="-21" transform="scale(1,-1)" style="opacity:1;fill:none;fill-opacity:1;stroke:none"/>
  <path id="rect4983" d="M 31 59 L 31 61 L 31 62 L 33 62 C 33 62 34 62 34 61 L 34 59 L 33 59 L 31 59 z" transform="translate(0,-41)" style="color:#3daee9;opacity:0.1;fill:#d3dae3;fill-opacity:1;stroke:none"/>
 </g>
 <g id="hover-bottom" transform="translate(0,54)">
  <path id="rect4989" d="M 5 80 L 5 82 L 5 83 L 31 83 L 31 82 L 31 80 L 5 80 z" transform="translate(0,-54)" style="color:#3daee9;opacity:0.1;fill:#d3dae3;fill-opacity:1;stroke:none"/>
  <path id="path4450" d="m 5,81 0,1 0,1 26,0 0,-1 0,-1 z" transform="translate(0,-54)" style="color:#3daee9;opacity:1;fill:#338dd6;fill-opacity:1;stroke:none"/>
 </g>
 <g id="hover-bottomleft" transform="matrix(0,1,-1,0,23,49)">
  <rect id="rect4995" width="3" height="1" x="31" y="21" style="opacity:1;fill:none;fill-opacity:1;stroke:none"/>
  <path id="rect4997" d="M 2 80 L 2 82 C 2 82 2 83 3 83 L 5 83 L 5 82 L 5 80 L 3 80 L 2 80 z" transform="matrix(0,-1,1,0,-49,23)" style="color:#3daee9;opacity:0.1;fill:#d3dae3;fill-opacity:1;stroke:none"/>
  <path id="path4452" d="m 2,81 0,1 c 0,0 0,1 1,1 l 2,0 0,-1 0,-1 -2,0 z" transform="matrix(0,-1,1,0,-49,23)" style="color:#3daee9;opacity:1;fill:#338dd6;fill-opacity:1;stroke:none"/>
 </g>
 <g id="hover-bottomright" transform="translate(0,62)">
  <rect id="rect5003" width="1" height="3" x="34" y="-21" transform="scale(1,-1)" style="opacity:1;fill:none;fill-opacity:1;stroke:none"/>
  <path id="rect5005" d="M 31 80 L 31 82 L 31 83 L 33 83 C 33 83 34 83 34 82 L 34 80 L 33 80 L 31 80 z" transform="translate(0,-62)" style="color:#3daee9;opacity:0.1;fill:#d3dae3;fill-opacity:1;stroke:none"/>
  <path id="path4454" d="m 31,81 0,1 0,1 2,0 c 0,0 1,0 1,-1 l 0,-1 -1,0 z" transform="translate(0,-62)" style="color:#3daee9;opacity:1;fill:#338dd6;fill-opacity:1;stroke:none"/>
 </g>
 <g id="attention-bottom" transform="translate(0,75)">
  <path id="rect5011" d="M 5 101 L 5 103 L 5 104 L 31 104 L 31 103 L 31 101 L 5 101 z" transform="translate(0,-75)" style="opacity:1;fill:#00c853;fill-opacity:1;stroke:none"/>
 </g>
 <g id="attention-bottomleft" transform="matrix(0,1,-1,0,23,70)">
  <rect id="rect5017" width="3" height="1" x="31" y="21" style="opacity:1;fill:none;fill-opacity:1;stroke:none"/>
  <path id="rect5019" d="M 2 101 L 2 103 C 2 103 2 104 3 104 L 5 104 L 5 103 L 5 101 L 3 101 L 2 101 z" transform="matrix(0,-1,1,0,-70,23)" style="opacity:1;fill:#00c853;fill-opacity:1;stroke:none"/>
 </g>
 <g id="attention-bottomright" transform="translate(0,83)">
  <rect id="rect5025" width="1" height="3" x="34" y="-21" transform="scale(1,-1)" style="opacity:1;fill:none;fill-opacity:1;stroke:none"/>
  <path id="rect5027" d="M 31 101 L 31 103 L 31 104 L 33 104 C 33 104 34 104 34 103 L 34 101 L 33 101 L 31 101 z" transform="translate(0,-83)" style="opacity:1;fill:#00c853;fill-opacity:1;stroke:none"/>
 </g>
 <g id="minimized-bottom" transform="translate(0,95.99999)">
  <path id="rect5033" d="M 5 122 L 5 124 L 5 125 L 31 125 L 31 124 L 31 122 L 5 122 z" transform="translate(0,-95.99999)" style="color:#3daee9;opacity:0.05;fill:#d3dae3;fill-opacity:1;stroke:none"/>
 </g>
 <g id="minimized-bottomleft" transform="matrix(0,1.0000002,-1,0,23,90.99998)">
  <rect id="rect5039" width="3" height="1" x="31" y="21" style="opacity:1;fill:none;fill-opacity:1;stroke:none"/>
  <path id="rect5041" d="M 2 122 L 2 124 C 2 124 2 125 3 125 L 5 125 L 5 124 L 5 122 L 3 122 L 2 122 z" transform="matrix(0,-1,0.9999998,0,-90.999962,23)" style="color:#3daee9;opacity:0.05;fill:#d3dae3;fill-opacity:1;stroke:none"/>
 </g>
 <g id="minimized-bottomright" transform="translate(0,104)">
  <rect id="rect5047" width="1" height="3" x="34" y="-21" transform="scale(1,-1)" style="opacity:1;fill:none;fill-opacity:1;stroke:none"/>
  <path id="rect5049" d="M 31 122 L 31 124 L 31 125 L 33 125 C 33 125 34 125 34 124 L 34 122 L 33 122 L 31 122 z" transform="translate(0,-104)" style="color:#3daee9;opacity:0.05;fill:#d3dae3;fill-opacity:1;stroke:none"/>
 </g>
 <g id="group-expander-left" transform="translate(60,-12)">
  <path id="rect2993-2-5-3-7-0-0-1-3" d="M 12,46 19,41.996831 12,38 Z" style="color:#000000;display:inline;overflow:visible;visibility:visible;fill:#338dd6;fill-opacity:1;fill-rule:nonzero;stroke:none;stroke-width:1.5;marker:none;enable-background:accumulate"/>
  <path id="center-3-2-8-5-6-8" d="m -24.984217,27.981458 0,10 10,0 0,-10 -10,0 z" mask="none" transform="matrix(1,0,0,-1.2,36.984217,81.57775)" style="opacity:0.27000002;fill:none;stroke:none;filter:url(#filter7986-7-9-7-4-5-5)"/>
 </g>
 <g id="group-expander-bottom" transform="translate(37,9)">
  <path id="rect2993-2-5-3-7-0-0-11-1" d="M 25,47 29.003169,40 33,47 Z" style="color:#000000;display:inline;overflow:visible;visibility:visible;fill:#338dd6;fill-opacity:1;fill-rule:nonzero;stroke:none;stroke-width:1.5;marker:none;enable-background:accumulate"/>
  <path id="center-3-2-8-5-9-9" d="m -24.984217,27.981458 0,10 10,0 0,-10 -10,0 z" mask="none" transform="matrix(0,-1,1.2,0,-10.57775,22.015783)" style="opacity:0.27000002;fill:none;stroke:none;filter:url(#filter7986-7-9-7-4-2-6)"/>
 </g>
 <g id="group-expander-top" transform="translate(38,9)">
  <path id="rect2993-2-5-3-7-0-0-16-39" d="M 47,37 42.996831,44 39,37 Z" style="color:#000000;display:inline;overflow:visible;visibility:visible;fill:#338dd6;fill-opacity:1;fill-rule:nonzero;stroke:none;stroke-width:1.5;marker:none;enable-background:accumulate"/>
  <path id="center-3-2-8-5-3-3" d="m -24.984217,27.981458 0,10 10,0 0,-10 -10,0 z" mask="none" transform="matrix(0,1,-1.2,0,82.57775,61.984217)" style="opacity:0.27000002;fill:none;stroke:none;filter:url(#filter7986-7-9-7-4-1-5)"/>
 </g>
 <g id="group-expander-right" transform="translate(60,-12)">
  <path id="center-3-2-8-5-1" d="m -24.984217,27.981458 0,10 10,0 0,-10 -10,0 z" mask="none" transform="matrix(-1,0,0,-1.2,-14.984217,81.57775)" style="opacity:0.27000002;fill:none;stroke:none;filter:url(#filter7986-7-9-7-4-0)"/>
  <path id="rect2993-2-5-3-7-0-0-0" d="M 10,46 3,41.996831 10,38 Z" style="color:#000000;display:inline;overflow:visible;visibility:visible;fill:#338dd6;fill-opacity:1;fill-rule:nonzero;stroke:none;stroke-width:1.5;marker:none;enable-background:accumulate"/>
 </g>
</svg>
