<svg xmlns="http://www.w3.org/2000/svg" id="svg197" width="64" height="77" version="1">
 <rect id="center" style="opacity:0.9;fill:#616161" width="50" height="50" x="7" y="20"/>
 <g id="topleft" transform="translate(-183,-238.99995)">
  <path id="path86" style="opacity:0.9;fill:#616161" d="m 190.00001,251.99982 v 7 h -7 v -2 c 0,-2.77 2.23,-5 5,-5 z"/>
 </g>
 <g id="left" transform="translate(-183,-238.99995)">
  <path id="path89" style="opacity:0.9;fill:#616161" d="m 183.00002,258.99981 v 50 l 7,10e-6 v -50 z"/>
 </g>
 <g id="right" transform="translate(-183,-238.99995)">
  <path id="path92" style="opacity:0.9;fill:#616161" d="m 247,258.99982 v 50 l -7,10e-6 v -50 z"/>
 </g>
 <g id="bottomleft" transform="translate(-183,-238.99995)">
  <path id="path95" style="opacity:0.9;fill:#616161" d="m 190.00001,315.99991 v -7 h -7 v 2 c 0,2.77 2.23,5 5,5 z"/>
 </g>
 <g id="bottom" transform="translate(-183,-238.99995)">
  <path id="path98" style="opacity:0.9;fill:#616161" d="M 189.99998,315.99995 H 240 v -7 h -50.00001 z"/>
 </g>
 <g id="bottomright" transform="translate(-183,-238.99995)">
  <path id="path101" style="opacity:0.9;fill:#616161" d="m 240,315.99991 v -7 h 7 v 2 c 0,2.77 -2.23,5 -5,5 z"/>
 </g>
 <g id="topright" transform="translate(-183,-238.99995)">
  <path id="path104" style="opacity:0.9;fill:#616161" d="m 240,251.99982 v 7 h 7 v -2 c 0,-2.77 -2.23,-5 -5,-5 z"/>
 </g>
 <g id="top" transform="translate(-183,-238.99995)">
  <path id="path107" style="opacity:0.9;fill:#616161" d="M 189.99998,251.99982 H 240 v 7 h -50.00001 z"/>
 </g>
 <rect id="hint-top-margin" style="fill:#ff00ff" width="4" height="10" x="29" y="20"/>
 <rect id="hint-bottom-margin" style="fill:#ff00ff" width="4" height="10" x="29" y="60"/>
 <rect id="hint-left-margin" style="fill:#ff00ff" width="10" height="4" x="7" y="42"/>
 <rect id="hint-right-margin" style="fill:#ff00ff" width="10" height="4" x="47" y="42"/>
 <rect id="hint-tile-center" style="fill:#ff00ff" width="5" height="5" x="0" y="0"/>
</svg>
