<svg xmlns="http://www.w3.org/2000/svg" width="220" height="85" version="1">
 <path id="shadow-topleft" style="opacity:0.001" d="m 136.00002,17.998995 h 10 v -2 c 0,-2.77 2.23,-5 5,-5 h 2 V 0.99899464 h -17 z"/>
 <g id="shadow-left" transform="matrix(-1,0,0,1,434.00002,-239.00101)">
  <rect style="opacity:0.001" width="50" height="10" x="-307" y="288" transform="rotate(-90)"/>
 </g>
 <path id="shadow-bottomright" style="opacity:0.001" d="m 220.00002,67.998995 h -10 v 2 c 0,2.77 -2.23,5 -5,5 h -2 v 10 h 17 z"/>
 <g id="shadow-bottom" transform="rotate(90,336.50052,123.49951)">
  <rect style="opacity:0.001" width="50" height="10" x="-307" y="288" transform="rotate(-90)"/>
 </g>
 <g id="shadow-right" transform="translate(-77.999982,-239.00101)">
  <rect style="opacity:0.001" width="50" height="10" x="-307" y="288" transform="rotate(-90)"/>
 </g>
 <g id="shadow-top" transform="matrix(0,-1,-1,0,460.00002,298.99899)">
  <rect style="opacity:0.001" width="50" height="10" x="-307" y="288" transform="rotate(-90)"/>
 </g>
 <path id="shadow-topright" style="opacity:0.001" d="M 203.00002,0.99899464 V 10.998995 h 2 c 2.77,0 5,2.23 5,5 v 2 h 10 V 0.99899464 Z"/>
 <path id="shadow-bottomleft" style="opacity:0.001" d="m 153.00002,84.998995 v -10 h -2 c -2.77,0 -5,-2.23 -5,-5 v -2 h -10 v 17 z"/>
 <rect id="center" style="fill:#616161;opacity:0.9" width="50" height="50" x="7" y="28"/>
 <g id="topleft" transform="translate(-183,-231.00083)">
  <path style="fill:#616161;opacity:0.9" d="m 190.00001,251.99982 v 7 h -7 v -2 c 0,-2.77 2.23,-5 5,-5 z"/>
 </g>
 <g id="left" transform="translate(-183,-231.00083)">
  <path style="fill:#616161;opacity:0.9" d="m 183.00002,258.99981 v 50 l 7,10e-6 v -50 z"/>
 </g>
 <g id="right" transform="translate(-183,-231.00084)">
  <path style="fill:#616161;opacity:0.9" d="m 247,258.99982 v 50 l -7,10e-6 v -50 z"/>
 </g>
 <g id="bottomleft" transform="translate(-183,-231.00092)">
  <path style="fill:#616161;opacity:0.9" d="m 190.00001,315.99991 v -7 h -7 v 2 c 0,2.77 2.23,5 5,5 z"/>
 </g>
 <g id="bottom" transform="translate(-183,-231.00096)">
  <path style="fill:#616161;opacity:0.9" d="M 189.99998,315.99995 H 240 v -7 h -50.00001 z"/>
 </g>
 <g id="bottomright" transform="translate(-183,-231.00092)">
  <path style="fill:#616161;opacity:0.9" d="m 240,315.99991 v -7 h 7 v 2 c 0,2.77 -2.23,5 -5,5 z"/>
 </g>
 <g id="topright" transform="translate(-183,-231.00083)">
  <path style="fill:#616161;opacity:0.9" d="m 240,251.99982 v 7 h 7 v -2 c 0,-2.77 -2.23,-5 -5,-5 z"/>
 </g>
 <g id="top" transform="translate(-183,-231.00083)">
  <path style="fill:#616161;opacity:0.9" d="M 189.99998,251.99982 H 240 v 7 h -50.00001 z"/>
 </g>
 <rect id="shadow-hint-right-margin" style="fill:#ff00ff" width="10" height="4" x="210" y="41"/>
 <rect id="shadow-hint-bottom-margin" style="fill:#ff00ff" width="4" height="10" x="176" y="75"/>
 <rect id="shadow-hint-left-margin" style="fill:#ff00ff" width="10" height="4" x="136" y="41"/>
 <rect id="shadow-hint-top-margin" style="fill:#ff00ff" width="4" height="10" x="177" y="1"/>
 <rect id="hint-top-margin" style="fill:#ff00ff" width="4" height="10" x="29" y="28"/>
 <rect id="hint-bottom-margin" style="fill:#ff00ff" width="4" height="10" x="29" y="68"/>
 <rect id="hint-left-margin" style="fill:#ff00ff" width="10" height="4" x="7" y="49"/>
 <rect id="hint-right-margin" style="fill:#ff00ff" width="10" height="4" x="47" y="49"/>
 <rect id="mask-center" width="50" height="50" x="75" y="28"/>
 <path id="mask-topleft" d="m 75,20.999865 v 7 h -7 v -2 c 0,-2.77 2.23,-5 5,-5 z"/>
 <path id="mask-left" d="m 68.00001,27.999855 v 50.00001 l 7,1e-5 v -50.00001 z"/>
 <path id="mask-right" d="m 131.99999,27.999865 v 50.00001 l -7,1e-5 v -50.00001 z"/>
 <path id="mask-bottomleft" d="m 75,84.999965 v -7 h -7 v 2 c 0,2.77 2.23,5 5,5 z"/>
 <path id="mask-bottom" d="m 74.99997,85.000005 h 50.00002 v -7 H 74.99998 Z"/>
 <path id="mask-bottomright" d="m 124.99999,84.999965 v -7 h 7 v 2 c 0,2.77 -2.23,5 -5,5 z"/>
 <path id="mask-topright" d="m 124.99999,20.999865 v 7 h 7 v -2 c 0,-2.77 -2.23,-5 -5,-5 z"/>
 <path id="mask-top" d="m 74.99997,20.999865 h 50.00002 v 7 H 74.99998 Z"/>
 <rect id="hint-tile-center" style="fill:#ff00ff" width="5" height="5" x="0" y="0"/>
 <rect id="shadow-center" style="fill:none" width="50" height="50" x="153" y="18.06"/>
</svg>
