<svg xmlns="http://www.w3.org/2000/svg" id="svg169" width="257" height="161" version="1">
 <rect id="hint-tile-center" style="opacity:0.875;fill:#008000" width="40" height="40" x="216" y="1"/>
 <path id="selected-center" style="opacity:0.45;fill:#4285f4;fill-opacity:1" d="m 30,15.01572 v 48 h 48 v -48 z"/>
 <g id="selected-left" transform="matrix(1,0,0,3.0009825,-160.14285,-2475.3868)">
  <path id="path4" style="opacity:0.45;fill:#4285f4;fill-opacity:1" d="m 186.14285,829.85712 v 16 h 4 v -16 z"/>
 </g>
 <g id="selected-topleft" transform="translate(-160.14285,-814.85718)">
  <path id="path7" style="opacity:0.45;fill:#4285f4;fill-opacity:1" d="m 186.14285,829.8571 h 4 v -4 h -1.46875 c -1.40502,0 -2.53125,1.11588 -2.53125,2.53125 z"/>
 </g>
 <g id="selected-top" transform="matrix(0.36657704,0,0,1,-39.71201,-814.8414)">
  <path id="path10" style="opacity:0.45;fill:#4285f4;fill-opacity:1" d="m 190.14286,825.85714 v 4 h 131 v -4 z"/>
 </g>
 <g id="selected-topright" transform="translate(-243.14285,-814.8414)">
  <path id="path13" style="opacity:0.45;fill:#4285f4;fill-opacity:1" d="m 321.14285,825.85714 v 4 h 4 v -1.46875 c 0,-1.40502 -1.11588,-2.53125 -2.53125,-2.53125 z"/>
 </g>
 <g id="selected-right" transform="matrix(1,0,0,3.0000017,-243.14285,-2474.557)">
  <path id="path16" style="opacity:0.45;fill:#4285f4;fill-opacity:1" d="m 325.14286,829.85712 v 16 h -4 v -16 z"/>
 </g>
 <path id="normal-center" style="opacity:0.00499998;fill:#ffffff;fill-opacity:0.07843137" d="m 129.99999,17.01572 v 48 h 48 v -48 z"/>
 <g id="normal-bottom" style="opacity:0.00499998" transform="matrix(0.36657704,0,0,0.49999749,60.28798,-353.92645)">
  <g id="g26">
   <path id="path20" style="opacity:0.82272728;fill:#ffffff;fill-opacity:0.07843137" d="m 190.12705,845.85714 v 4 l 130.9842,-0.0625 v -3.9375 z"/>
   <path id="path22" style="opacity:0.85;fill-opacity:0.15686275" d="m 190.14285,849.85714 v 1 h 131 v -1 z"/>
   <path id="path24" style="fill:#ffffff;fill-opacity:0.15686275" d="m 190.14285,848.85714 v 1 h 131 v -1 z"/>
  </g>
  <rect id="rect28" style="opacity:0.52100004;fill:#ffffff;fill-opacity:0" width="1" height="2" x="547" y="869" transform="translate(-342.85715,-17.142857)"/>
 </g>
 <g id="normal-bottomleft" style="opacity:0.00499998" transform="matrix(0.5714288,0,0,0.49999749,18.34689,-353.92645)">
  <g id="g37">
   <path id="path31" style="opacity:0.85;fill-opacity:0.15686275" d="m 188.6741,850.85716 c -1.94821,0 -3.53125,-1.58839 -3.53125,-3.53125 v -1.46875 h 1 v 1.46875 c 0,1.40502 1.11588,2.53125 2.53125,2.53125 h 1.46875 v 1 z"/>
   <path id="path33" style="opacity:0.82272728;fill:#ffffff;fill-opacity:0.07843137" d="m 190.14285,849.8572 v -4 h -4 v 1.46875 c 0,1.40502 1.11588,2.53125 2.53125,2.53125 z"/>
   <path id="path35" style="fill:#ffffff;fill-opacity:0.15686275" d="m 188.74285,849.85718 c -1.66084,0 -2.6,-1.19855 -2.6,-2.7 v -1.3 h 1 l -0.021,1.29373 c -0.0208,1.28062 0.23073,1.70627 1.62099,1.70627 h 1.4 v 1 z"/>
  </g>
  <rect id="rect39" style="opacity:0.52100004;fill:#ffffff;fill-opacity:0" width="2" height="2" x="183.14" y="851.86"/>
 </g>
 <g id="normal-left" style="opacity:0.00499998" transform="matrix(0.5714288,0,0,3.0009825,18.34689,-2473.3868)">
  <g id="g48">
   <path id="path42" style="opacity:0.82272728;fill:#ffffff;fill-opacity:0.07843137" d="m 186.14285,829.85712 v 16 h 4 v -16 z"/>
   <path id="path44" style="opacity:0.85;fill-opacity:0.15686275" d="m 185.14285,829.85715 v 15.99999 h 1 v -15.99999 z"/>
   <path id="path46" style="fill:#ffffff;fill-opacity:0.15686275" d="m 186.14285,829.85715 v 15.99999 h 1 v -15.99999 z"/>
  </g>
  <rect id="rect50" style="opacity:0.52100004;fill:#ffffff;fill-opacity:0" width="2" height="3" x="183.14" y="834.86"/>
 </g>
 <g id="normal-topleft" style="opacity:0.00499998" transform="matrix(0.5714288,0,0,0.57143084,18.34689,-457.206)">
  <g id="g59">
   <path id="path53" style="opacity:0.82272728;fill:#ffffff;fill-opacity:0.07843137" d="m 186.14285,829.8571 h 4 v -4 h -1.46875 c -1.40502,0 -2.53125,1.11588 -2.53125,2.53125 z"/>
   <path id="path55" style="opacity:0.85;fill-opacity:0.15686275" d="m 185.14285,828.3884 c 0,-1.94821 1.58839,-3.53125 3.53125,-3.53125 h 1.46875 v 1 h -1.46875 c -1.40502,0 -2.53125,1.11588 -2.53125,2.53125 v 1.46875 h -1 z"/>
   <path id="path57" style="fill:#ffffff;fill-opacity:0.15686275" d="m 186.14285,829.8571 h 1 v -1 c 0,-1.41537 0.59498,-2 2,-2 h 1 v -1 h -1.46875 c -1.40502,0 -2.53125,1.11588 -2.53125,2.53125 z"/>
  </g>
  <rect id="rect61" style="opacity:0.52100004;fill:#ffffff;fill-opacity:0" width="2" height="2" x="183.14" y="822.86"/>
 </g>
 <g id="normal-top" style="opacity:0.00499998" transform="matrix(0.36657704,0,0,0.57143165,60.28798,-457.1909)">
  <g id="g70">
   <path id="path64" style="opacity:0.82272728;fill:#ffffff;fill-opacity:0.07843137" d="m 190.14286,825.85714 v 4 h 131 v -4 z"/>
   <path id="path66" style="opacity:0.85;fill-opacity:0.15686275" d="m 190.14285,824.85714 v 1 h 131 v -1 z"/>
   <path id="path68" style="fill:#ffffff;fill-opacity:0.15686275" d="m 190.14285,825.85714 v 1 h 131 v -1 z"/>
  </g>
  <rect id="rect72" style="opacity:0.52100004;fill:#ffffff;fill-opacity:0" width="3" height="2" x="200.14" y="822.86"/>
 </g>
 <g id="normal-topright" style="opacity:0.00499998" transform="matrix(0.57142857,0,0,0.57143165,-5.51021,-457.1909)">
  <g id="g81">
   <path id="path75" style="opacity:0.82272728;fill:#ffffff;fill-opacity:0.07843137" d="m 321.14285,825.85714 v 4 h 4 v -1.46875 c 0,-1.40502 -1.11588,-2.53125 -2.53125,-2.53125 z"/>
   <path id="path77" style="opacity:0.85;fill-opacity:0.15686275" d="m 322.6116,824.85714 c 1.94821,0 3.53125,1.58839 3.53125,3.53125 v 1.46875 h -1 v -1.46875 c 0,-1.40502 -1.11588,-2.53125 -2.53125,-2.53125 h -1.46875 v -1 z"/>
   <path id="path79" style="fill:#ffffff;fill-opacity:0.15686275" d="m 325.14285,829.8571 h -1 v -1 c 0,-1.41537 -0.59498,-2 -2,-2 h -1 v -1 h 1.46875 c 1.40502,0 2.53125,1.11588 2.53125,2.53125 z"/>
  </g>
  <rect id="rect83" style="opacity:0.52100004;fill:#ffffff;fill-opacity:0" width="2" height="2" x="326.14" y="822.86"/>
 </g>
 <g id="normal-right" style="opacity:0.00499998" transform="matrix(0.57142857,0,0,3.0000017,-5.51021,-2472.557)">
  <g id="g92">
   <path id="path86" style="opacity:0.82272728;fill:#ffffff;fill-opacity:0.07843137" d="m 325.14286,829.85712 v 16 h -4 v -16 z"/>
   <path id="path88" style="opacity:0.85;fill-opacity:0.15686275" d="m 326.14286,829.85715 v 15.99999 h -1 v -15.99999 z"/>
   <path id="path90" style="fill:#ffffff;fill-opacity:0.15686275" d="m 325.14285,829.85714 v 15.99999 h -1 v -15.99999 z"/>
  </g>
  <rect id="rect94" style="opacity:0.52100004;fill:#ffffff;fill-opacity:0" width="2" height="3" x="326.14" y="832.86"/>
 </g>
 <g id="normal-bottomright" style="opacity:0.00499998" transform="matrix(0.57142857,0,0,0.49999749,-5.51021,-353.92645)">
  <g id="g105">
   <g id="g103">
    <path id="path97" style="opacity:0.82272728;fill:#ffffff;fill-opacity:0.07843137" d="m 325.1429,845.85714 h -4 v 4 h 1.46875 c 1.40502,0 2.53125,-1.11588 2.53125,-2.53125 z"/>
    <path id="path99" style="fill:#ffffff;fill-opacity:0.15686275" d="m 322.14285,849.85714 c 1.59707,0 3,-0.57542 3,-2.99996 0,-0.94263 0,-1 0,-1 h -1 c 0,0.88676 0,0.28587 0,1 0,0.89359 -0.31679,1.99996 -2,1.99996 h -1 v 1 z"/>
    <path id="path101" style="opacity:0.85199998;fill-opacity:0.15686275" d="m 326.14286,847.32589 c 0,1.94821 -1.58839,3.53125 -3.53125,3.53125 h -1.46875 v -1 h 1.46875 c 1.40502,0 2.53125,-1.11588 2.53125,-2.53125 v -1.46875 h 1 z"/>
   </g>
  </g>
  <rect id="rect107" style="opacity:0.52100004;fill:#ffffff;fill-opacity:0" width="2" height="2" x="326.14" y="851.86"/>
 </g>
 <path id="hover-center" style="opacity:0.32;fill:#4285f4" d="m 45,93.46828 v 48 h 48 v -48 z"/>
 <g id="hover-left" transform="matrix(1,0,0,3.0009825,-145.14285,-2396.9342)">
  <path id="path111" style="opacity:0.32;fill:#4285f4" d="m 186.14285,829.85712 v 16 h 4 v -16 z"/>
 </g>
 <g id="hover-topleft" transform="translate(-145.14285,-736.3891)">
  <path id="path114" style="opacity:0.32;fill:#4285f4" d="m 186.14285,829.8571 h 4 v -4 h -1.46875 c -1.40502,0 -2.53125,1.11588 -2.53125,2.53125 z"/>
 </g>
 <g id="hover-top" transform="matrix(0.36657704,0,0,1,-24.71201,-736.38884)">
  <path id="path117" style="opacity:0.32;fill:#4285f4" d="m 190.14286,825.85714 v 4 h 131 v -4 z"/>
 </g>
 <g id="hover-topright" transform="translate(-228.14285,-736.38884)">
  <path id="path120" style="opacity:0.32;fill:#4285f4" d="m 321.14285,825.85714 v 4 h 4 v -1.46875 c 0,-1.40502 -1.11588,-2.53125 -2.53125,-2.53125 z"/>
 </g>
 <g id="hover-right" transform="matrix(1,0,0,3.0000017,-228.14285,-2396.1044)">
  <path id="path123" style="opacity:0.32;fill:#4285f4" d="m 325.14286,829.85712 v 16 h -4 v -16 z"/>
 </g>
 <path id="selected+hover-center" style="fill:#4285f4;opacity:0.45" d="m 150,93.26324 v 48 h 48 v -48 z"/>
 <g id="selected+hover-left" transform="matrix(1,0,0,3.0009825,-40.14285,-2397.1393)">
  <path id="path127" style="fill:#4285f4;opacity:0.45" d="m 186.14285,829.85712 v 16 h 4 v -16 z"/>
 </g>
 <g id="selected+hover-topleft" transform="translate(-40.14285,-736.60966)">
  <path id="path130" style="fill:#4285f4;opacity:0.45" d="m 186.14285,829.8571 h 4 v -4 h -1.46875 c -1.40502,0 -2.53125,1.11588 -2.53125,2.53125 z"/>
 </g>
 <g id="selected+hover-top" transform="matrix(0.36657704,0,0,1,80.28799,-736.59388)">
  <path id="path133" style="fill:#4285f4;opacity:0.45" d="m 190.14286,825.85714 v 4 h 131 v -4 z"/>
 </g>
 <g id="selected+hover-topright" transform="translate(-123.14285,-736.59388)">
  <path id="path136" style="fill:#4285f4;opacity:0.45" d="m 321.14285,825.85714 v 4 h 4 v -1.46875 c 0,-1.40502 -1.11588,-2.53125 -2.53125,-2.53125 z"/>
 </g>
 <g id="selected+hover-right" transform="matrix(1,0,0,3.0000017,-123.14285,-2396.3095)">
  <path id="path139" style="fill:#4285f4;opacity:0.45" d="m 325.14286,829.85712 v 16 h -4 v -16 z"/>
 </g>
 <g id="selected-bottomright" transform="rotate(180,134.07142,446.4364)">
  <path id="path142" style="opacity:0.45;fill:#4285f4;fill-opacity:1" d="m 186.14285,829.8571 h 4 v -4 h -1.46875 c -1.40502,0 -2.53125,1.11588 -2.53125,2.53125 z"/>
 </g>
 <g id="selected-bottom" transform="matrix(-0.36657704,0,0,-1,147.7236,892.8729)">
  <path id="path145" style="opacity:0.45;fill:#4285f4;fill-opacity:1" d="m 190.14286,825.85714 v 4 h 131 v -4 z"/>
 </g>
 <g id="selected-bottomleft" transform="rotate(180,175.57142,446.43645)">
  <path id="path148" style="opacity:0.45;fill:#4285f4;fill-opacity:1" d="m 321.14285,825.85714 v 4 h 4 v -1.46875 c 0,-1.40502 -1.11588,-2.53125 -2.53125,-2.53125 z"/>
 </g>
 <g id="hover-bottomright" transform="rotate(180,141.57143,485.66275)">
  <path id="path151" style="opacity:0.32;fill:#4285f4" d="m 186.14285,829.8571 h 4 v -4 h -1.46875 c -1.40502,0 -2.53125,1.11588 -2.53125,2.53125 z"/>
 </g>
 <g id="hover-bottom" transform="matrix(-0.36657704,0,0,-1,162.7236,971.3257)">
  <path id="path154" style="opacity:0.32;fill:#4285f4" d="m 190.14286,825.85714 v 4 h 131 v -4 z"/>
 </g>
 <g id="hover-bottomleft" transform="rotate(180,183.07142,485.6627)">
  <path id="path157" style="opacity:0.32;fill:#4285f4" d="m 321.14285,825.85714 v 4 h 4 v -1.46875 c 0,-1.40502 -1.11588,-2.53125 -2.53125,-2.53125 z"/>
 </g>
 <g id="selected_hover-bottomright" transform="rotate(180,194.07143,485.5602)">
  <path id="path160" style="fill:#4285f4;opacity:0.45" d="m 186.14285,829.8571 h 4 v -4 h -1.46875 c -1.40502,0 -2.53125,1.11588 -2.53125,2.53125 z"/>
 </g>
 <g id="selected_hover-bottom" transform="matrix(-0.36657704,0,0,-1,267.7236,971.1203)">
  <path id="path163" style="fill:#4285f4;opacity:0.45" d="m 190.14286,825.85714 v 4 h 131 v -4 z"/>
 </g>
 <g id="selected_hover-bottomleft" transform="rotate(180,235.57142,485.5602)">
  <path id="path166" style="fill:#4285f4;opacity:0.45" d="m 321.14285,825.85714 v 4 h 4 v -1.46875 c 0,-1.40502 -1.11588,-2.53125 -2.53125,-2.53125 z"/>
 </g>
</svg>
