<svg xmlns="http://www.w3.org/2000/svg" width="22" height="22" version="1.1">
 <circle style="opacity:0.19;fill:#000000" cx="11" cy="11" r="11"/>
 <path style="fill:#444444" d="m 11.015625,4 a 1.0001,1.0001 0 1 0 -0.0039,2 C 12.409503,6.0024 13.742269,6.589407 14.6875,7.619141 15.538036,8.545713 15.998387,9.75264 15.998047,11 h -1.994141 l 1.5,2 1.5,2 1.5,-2 1.5,-2 H 17.998047 C 17.997824,9.254653 17.349711,7.561524 16.160156,6.265625 14.837636,4.824874 12.971338,4.003413 11.015625,4 Z M 5,7 3.5,9 2,11 H 4.0058594 C 4.0060826,12.745347 4.6541957,14.438476 5.84375,15.734375 7.16627,17.175127 9.032568,17.996587 10.988281,18 a 1.0001,1.0001 0 1 0 0.0039,-2 C 9.594406,15.99756 8.261637,15.410593 7.316406,14.380859 6.46587,13.454287 6.005519,12.24736 6.005859,11 H 8 L 6.5,9 Z"/>
</svg>
