<svg xmlns="http://www.w3.org/2000/svg" width="22" height="22" version="1.1">
 <circle style="opacity:0.08;fill:#000000" cx="11" cy="11" r="11"/>
 <path style="fill:#444444" d="M 10.985352,2.9999031 A 1.0001,0.9966092 0 0 0 10,4.0096686 V 9.98916 a 1.0001,0.9966092 0 1 0 2,0 V 4.0096686 A 1.0001,0.9966092 0 0 0 10.985352,2.9999031 Z M 7.628906,5.000879 A 1.0001608,1.0010221 0 0 0 7.095703,5.177637 c -2.5474257,1.713274 -3.6839537,4.900139 -2.7968747,7.840821 0.8870797,2.940681 3.5949607,4.965361 6.6640627,4.981445 3.069102,0.01609 5.798998,-1.979911 6.716797,-4.911133 0.917799,-2.931224 -0.185483,-6.129262 -2.714843,-7.869141 a 1.0001608,1.0010221 0 1 0 -1.132814,1.648437 c 1.812622,1.246854 2.597178,3.521463 1.939454,5.622071 -0.657724,2.100608 -2.598436,3.519339 -4.797852,3.507813 C 8.774217,15.98643 6.849577,14.547719 6.213867,12.440332 5.578158,10.332945 6.38537,8.066556 8.210938,6.838769 A 1.0001608,1.0010221 0 0 0 7.628906,5.000879 Z"/>
</svg>
