<svg xmlns="http://www.w3.org/2000/svg" id="svg2" width="384" height="384" version="1.1">
 <path id="path4136" style="fill:#ffffff;fill-opacity:1" d="M 179.70312 72 C 178.65512 72 177.79409 72.704236 177.57812 73.6875 L 170.6875 105.57812 C 162.22589 107.61911 154.26235 110.8435 146.96875 115.0625 L 117.42188 97.828125 C 116.55787 97.323005 115.43875 97.40279 114.71875 98.09375 L 97.671875 114.48438 C 96.932115 115.19862 96.817095 116.32991 97.390625 117.17188 L 116.3125 144.85938 C 111.729 152.34991 108.27685 160.54191 106.23438 169.28125 L 73.765625 176.85938 C 72.779255 177.08581 72 177.92494 72 178.90625 L 72 192 L 72 205.09375 C 72 206.07506 72.779255 206.91418 73.765625 207.14062 L 106.23438 214.71875 C 108.27685 223.4581 111.72899 231.65011 116.3125 239.14062 L 97.390625 266.82812 C 96.817025 267.67008 96.932115 268.80142 97.671875 269.51562 L 114.71875 285.90625 C 115.43875 286.59721 116.55788 286.67708 117.42188 286.17188 L 146.96875 268.9375 C 154.26235 273.1565 162.22589 276.38088 170.6875 278.42188 L 177.57812 310.3125 C 177.79403 311.29577 178.65513 312 179.70312 312 L 192 312 L 204.29688 312 C 205.34488 312 206.20587 311.29576 206.42188 310.3125 L 213.3125 278.42188 C 221.77411 276.3809 229.73765 273.1565 237.03125 268.9375 L 266.57812 286.17188 C 267.44212 286.67699 268.56125 286.59721 269.28125 285.90625 L 286.32812 269.51562 C 287.06788 268.80147 287.18287 267.67008 286.60938 266.82812 L 267.6875 239.14062 C 272.271 231.65009 275.72314 223.45809 277.76562 214.71875 L 310.23438 207.14062 C 311.22068 206.91415 312 206.07506 312 205.09375 L 312 192 L 312 178.90625 C 312 177.92494 311.22072 177.0858 310.23438 176.85938 L 277.76562 169.28125 C 275.72314 160.5419 272.27101 152.3499 267.6875 144.85938 L 286.60938 117.17188 C 287.18297 116.32991 287.06788 115.19857 286.32812 114.48438 L 269.28125 98.09375 C 268.56125 97.40279 267.44212 97.322925 266.57812 97.828125 L 237.03125 115.0625 C 229.73765 110.84349 221.77411 107.61912 213.3125 105.57812 L 206.42188 73.6875 C 206.20587 72.70426 205.34487 72 204.29688 72 L 192 72 L 179.70312 72 z M 192 128 A 64 64 0 0 1 256 192 A 64 64 0 0 1 192 256 A 64 64 0 0 1 128 192 A 64 64 0 0 1 192 128 z"/>
</svg>
