<svg xmlns="http://www.w3.org/2000/svg" width="32" height="32" version="1">
 <defs id="materia">
  <style id="current-color-scheme" type="text/css">
   .ColorScheme-Background {color:#181818; } .ColorScheme-ButtonBackground { color:#343434; } .ColorScheme-Highlight { color:#4285f4; } .ColorScheme-Text { color:#dfdfdf; } .ColorScheme-ViewBackground { color:#242424; } .ColorScheme-NegativeText { color:#f44336; } .ColorScheme-PositiveText { color:#4caf50; } .ColorScheme-NeutralText { color:#ff9800; }
  </style>
 </defs>
 <g id="22-22-battery-ups" transform="translate(255.46001,-426.49999)">
  <rect style="opacity:0.001" width="22" height="22" x="192.54" y="404.5"/>
  <path style="fill:currentColor" class="ColorScheme-PositiveText" d="m 197.53573,408.50504 v 15 h 12 v -15 c 0.0768,-1.06936 -1,-1 -1,-1 h -10 c 0,0 -1,-0.004 -1,1 z m 6,1 v 3 h 2 l -2,5 v -3 h -2 z m -4,10 h 1 v 2 h -1 z m 2,0 h 1 v 2 h -1 z m 2,0 h 1 v 2 h -1 z m 3,0 c 0.55229,0 1,0.44772 1,1 0,0.55228 -0.44771,1 -1,1 -0.55229,0 -1,-0.44772 -1,-1 0,-0.55228 0.44771,-1 1,-1 z"/>
 </g>
 <g id="22-22-Battery" transform="translate(-214.53999,-404.5)">
  <rect style="opacity:0.001" width="22" height="22" x="-404.5" y="214.54" transform="rotate(-90)"/>
  <path style="fill:currentColor" class="ColorScheme-Text" d="m 219.53573,401.50505 h 3 6 3 v -3 -11 -1 h -3 -0.99999 v -0.5 c 0,-0.277 -0.223,-0.5 -0.5,-0.5 h -3 c -0.49575,-0.005 -0.5,0.5 -0.5,0.5 v 0.5 h -1.00001 -3 v 1 12 z m 2,-2 v -11 h 2.50001 3 2.49999 v 11 z"/>
 </g>
 <g id="22-22-Fill100" transform="translate(-182.53999,-404.5)">
  <rect style="opacity:0.001" width="22" height="22" x="-404.5" y="214.54" transform="rotate(-90)"/>
  <path style="fill:currentColor" class="ColorScheme-Text" d="m 230.53575,400.50504 h -10 v -13 h 10 z"/>
 </g>
 <g id="22-22-Fill90" transform="translate(-150.53999,-404.5)">
  <rect style="opacity:0.001" width="22" height="22" x="-404.5" y="214.54" transform="rotate(-90)"/>
  <path style="fill:currentColor" class="ColorScheme-Text" d="m 230.53575,400.50504 h -10 v -11 h 10 z"/>
 </g>
 <g id="22-22-Fill80" transform="translate(-118.54,-404.5)">
  <rect style="opacity:0.001" width="22" height="22" x="-404.5" y="214.54" transform="rotate(-90)"/>
  <path style="fill:currentColor" class="ColorScheme-Text" d="m 230.53575,400.50504 h -10 v -10 h 10 z"/>
 </g>
 <g id="22-22-Fill70" transform="translate(-86.540002,-404.5)">
  <rect style="opacity:0.001" width="22" height="22" x="-404.5" y="214.54" transform="rotate(-90)"/>
  <path style="fill:currentColor" class="ColorScheme-Text" d="m 230.53575,400.50504 h -10 v -9 h 10 z"/>
 </g>
 <g id="22-22-Fill60" transform="translate(-54.540001,-404.5)">
  <rect style="opacity:0.001" width="22" height="22" x="-404.5" y="214.54" transform="rotate(-90)"/>
  <path style="fill:currentColor" class="ColorScheme-Text" d="m 230.53575,400.50504 h -10 v -8 h 10 z"/>
 </g>
 <g id="22-22-Fill50" transform="translate(-22.540003,-404.5)">
  <rect style="opacity:0.001" width="22" height="22" x="-404.5" y="214.54" transform="rotate(-90)"/>
  <path style="fill:currentColor" class="ColorScheme-Text" d="m 230.53575,400.50504 h -10 v -7 h 10 z"/>
 </g>
 <g id="22-22-Fill40" transform="translate(9.4599952,-404.5)">
  <rect style="opacity:0.001" width="22" height="22" x="-404.5" y="214.54" transform="rotate(-90)"/>
  <path style="fill:currentColor" class="ColorScheme-Text" d="m 230.53575,400.50504 h -10 v -6 h 10 z"/>
 </g>
 <g id="22-22-Fill30" transform="translate(41.459997,-404.5)">
  <rect style="opacity:0.001" width="22" height="22" x="-404.5" y="214.54" transform="rotate(-90)"/>
  <path style="fill:currentColor" class="ColorScheme-Text" d="m 230.53574,400.50504 h -10 v -5 h 10 z"/>
 </g>
 <g id="22-22-Fill20" transform="translate(73.459997,-404.5)">
  <rect style="opacity:0.001" width="22" height="22" x="-404.5" y="214.54" transform="rotate(-90)"/>
  <path style="fill:currentColor" class="ColorScheme-Text" d="m 230.53575,400.50504 h -10 v -4 h 10 z"/>
 </g>
 <g id="22-22-Fill10" transform="translate(105.46,-404.5)">
  <rect style="opacity:0.001" width="22" height="22" x="-404.5" y="214.54" transform="rotate(-90)"/>
  <path style="fill:currentColor" class="ColorScheme-NegativeText" transform="translate(-5.46425,382.50504)" d="M 229.5,3 C 229.00425,3 229,3.5 229,3.5 V 4 h -1 -3 v 1 12 2 h 3 6 3 V 16 5 4 h -3 -1 V 3.5 C 233,3.223 232.777,3 232.5,3 Z M 227,6 h 2.5 3 2.5 v 9 h -8 z"/>
 </g>
 <g id="22-22-Fill0" transform="translate(137.46,-404.5)">
  <rect style="opacity:0.001" width="22" height="22" x="-404.5" y="214.54" transform="rotate(-90)"/>
  <path style="fill:currentColor" class="ColorScheme-NegativeText" d="m 219.53573,401.50505 h 3 6 3 v -3 -11 -1 h -3 -0.99999 v -0.5 c 0,-0.277 -0.223,-0.5 -0.5,-0.5 h -3 c -0.49574,0 -0.5,0.5 -0.5,0.5 v 0.5 h -1.00001 -3 v 1 12 z m 2,-2 v -11 h 2.50001 3 2.49999 v 11 z"/>
 </g>
 <g id="22-22-Unavailable" transform="translate(213.46,-426.5)">
  <rect style="opacity:0.001" width="22" height="22" x="-426.5" y="170.54" transform="rotate(-90)"/>
  <g>
   <rect style="fill:currentColor" class="ColorScheme-NeutralText" width="10" height="10" x="181.54" y="415.5" ry="1"/>
   <path style="fill:#ffffff" d="m 188.65704,416.96951 -2.12132,2.12132 -2.12132,-2.12132 -1.41421,1.41421 2.12132,2.12132 -2.12132,2.12132 1.41421,1.41421 2.12132,-2.12132 2.12132,2.12132 1.41421,-1.41421 -2.12132,-2.12132 2.12132,-2.12132 z"/>
  </g>
 </g>
 <g id="22-22-AcAdapter" transform="translate(482,7.6293946e-6)">
  <rect style="opacity:0.001" width="22" height="22" x="0" y="-66" transform="rotate(-90)"/>
  <path style="fill:currentColor" class="ColorScheme-PositiveText" d="m -55,-15 v 3 h 2 l -2,5 v -3 h -2 z"/>
 </g>
 <g id="Fill100" transform="translate(31.999998)">
  <rect style="opacity:0.001" width="32" height="32" x="-32" y="0" transform="rotate(-90)"/>
  <path style="fill:currentColor" class="ColorScheme-Text" d="M 9.9999999,25 V 9 h 3.7500151 4.5 H 22 v 16 z"/>
 </g>
 <g id="Battery" transform="translate(-1.8043747e-6)">
  <rect style="opacity:0.001" width="32" height="32" x="-32" y="0" transform="rotate(-90)"/>
  <path style="fill:currentColor" class="ColorScheme-Text" d="M 7.0000001,28 H 11.5 20.5 25 V 23.5 7 6 H 20.5 19.000015 V 4.75 c 0,-0.4154999 -0.3345,-0.75 -0.75,-0.75 h -4.5 c -0.750015,0 -0.75,0.75 -0.75,0.75 V 6 H 11.5 7.0000001 V 7 25 Z M 9.9999999,25 V 9 h 3.7500151 4.5 H 22 v 16 z"/>
 </g>
 <g id="Fill90" transform="translate(63.999996)">
  <rect style="opacity:0.001" width="32" height="32" x="-32" y="0" transform="rotate(-90)"/>
  <path style="fill:currentColor" class="ColorScheme-Text" d="M 9.9999999,25 V 11 h 3.7500151 4.5 H 22 v 14 z"/>
 </g>
 <g id="Fill80" transform="translate(95.999994)">
  <rect style="opacity:0.001" width="32" height="32" x="-32" y="0" transform="rotate(-90)"/>
  <path style="fill:currentColor" class="ColorScheme-Text" d="M 9.9999999,25 V 13 h 3.7500151 4.5 H 22 v 12 z"/>
 </g>
 <g id="Fill70" transform="translate(127.99999)">
  <rect style="opacity:0.001" width="32" height="32" x="-32" y="0" transform="rotate(-90)"/>
  <path style="fill:currentColor" class="ColorScheme-Text" d="M 9.9999999,25 V 14 h 3.7500151 4.5 H 22 v 11 z"/>
 </g>
 <g id="Fill60" transform="translate(159.99999)">
  <rect style="opacity:0.001" width="32" height="32" x="-32" y="0" transform="rotate(-90)"/>
  <path style="fill:currentColor" class="ColorScheme-Text" d="M 9.9999999,25 V 15 h 3.7500151 4.5 H 22 v 10 z"/>
 </g>
 <g id="Fill50" transform="translate(191.99999)">
  <rect style="opacity:0.001" width="32" height="32" x="-32" y="0" transform="rotate(-90)"/>
  <path style="fill:currentColor" class="ColorScheme-Text" d="m 9.9999999,25 v -8 h 3.7500151 4.5 H 22 v 8 z"/>
 </g>
 <g id="Fill40" transform="translate(223.99999)">
  <rect style="opacity:0.001" width="32" height="32" x="-32" y="0" transform="rotate(-90)"/>
  <path style="fill:currentColor" class="ColorScheme-Text" d="m 9.9999999,25 v -7 h 3.7500151 4.5 H 22 v 7 z"/>
 </g>
 <g id="Fill30" transform="translate(255.99999)">
  <rect style="opacity:0.001" width="32" height="32" x="-32" y="0" transform="rotate(-90)"/>
  <path style="fill:currentColor" class="ColorScheme-Text" d="m 9.9999999,25 v -5 h 3.7500151 4.5 H 22 v 5 z"/>
 </g>
 <g id="Fill20" transform="translate(287.99999)">
  <rect style="opacity:0.001" width="32" height="32" x="-32" y="0" transform="rotate(-90)"/>
  <path style="fill:currentColor" class="ColorScheme-Text" d="m 9.9999999,25 v -3 h 3.7500151 4.5 H 22 v 3 z"/>
 </g>
 <g id="Fill10" transform="translate(31.999998)">
  <rect style="opacity:0.001" width="32" height="32" x="-32" y="288" transform="rotate(-90)"/>
  <path style="fill:currentColor" class="ColorScheme-NegativeText" d="M 301.75,4 C 300.99998,4 301,4.75 301,4.75 V 6 h -1.5 -4.5 v 1 18 3 h 4.5 9 4.5 V 23.5 7 6 H 308.5 307 V 4.75 C 307,4.3345001 306.6655,4 306.25,4 Z M 298,9 h 3.75 4.5 3.75 v 15 h -3.75 -4.5 -3.75 z"/>
 </g>
 <g id="Fill0" transform="translate(351.99999)">
  <rect style="opacity:0.001" width="32" height="32" x="-32" y="0" transform="rotate(-90)"/>
  <path style="fill:currentColor" class="ColorScheme-NegativeText" d="M 7.0000001,28 H 11.5 20.5 25 V 23.5 7 6 H 20.5 19.000015 V 4.75 c 0,-0.4154999 -0.3345,-0.75 -0.75,-0.75 h -4.5 c -0.750015,0 -0.75,0.75 -0.75,0.75 V 6 H 11.5 7.0000001 V 7 25 Z M 9.9999999,25 V 9 h 3.7500151 4.5 H 22 v 16 z"/>
 </g>
 <g id="Unavailable" transform="translate(31.999998)">
  <rect style="opacity:0.001" width="32" height="32" x="-32" y="352" transform="rotate(-90)"/>
  <rect style="fill:currentColor" class="ColorScheme-NeutralText" width="14" height="14" x="368" y="16" ry="1.4"/>
  <path style="fill:#ffffff" d="M 378.00001,17.999996 375,21 371.99999,17.999996 370,19.999994 l 3,3.000004 -3,3.000004 L 371.99999,28 375,24.999996 378.00001,28 380,26.000002 376.99999,22.999998 380,19.999994 Z"/>
 </g>
 <g id="AcAdapter" transform="translate(31.999998)">
  <rect style="opacity:0.001" width="32" height="32" x="-32" y="384" transform="rotate(-90)"/>
  <path style="fill:currentColor" class="ColorScheme-PositiveText" d="m 400,10 v 5 h 3 l -3,7 v -5 h -3 z"/>
 </g>
 <g id="battery-ups" transform="translate(31.999998)">
  <rect style="opacity:0.001" width="32" height="32" x="416" y="0"/>
  <path style="fill:currentColor" class="ColorScheme-PositiveText" d="m 424.5,4.0019531 c 0,0 -1.5,-0.00591 -1.5,1.5 V 28 h 17.99414 V 5.5019531 c 0.11516,-1.6039484 -1.5,-1.5 -1.5,-1.5 z M 432,7 v 5 h 3 l -3,7 v -5 h -3 z m -6,15 h 1 v 3 h -1 z m 3,0 h 1 v 3 h -1 z m 3,0 h 1 v 3 h -1 z m 4.5,0 c 0.82844,0 1.5,0.671626 1.5,1.5 0,0.828372 -0.67156,1.5 -1.5,1.5 -0.82843,0 -1.5,-0.671628 -1.5,-1.5 0,-0.828374 0.67157,-1.5 1.5,-1.5 z"/>
 </g>
 <g id="profile-powersave" transform="translate(465,-27)">
  <rect style="opacity:0.001"  width="22" height="22" x="-27" y="5" transform="rotate(-90)"/>
  <path  style="fill:currentColor" class="ColorScheme-Text" d="m 16.007958,8 c 3.565776,0.00311 6.707174,2.375759 7.685548,5.804688 0.978373,3.428927 -0.439553,7.102034 -3.466798,8.986328 a 1,1 0 0 1 -1.376953,-0.320313 1,1 0 0 1 0.320313,-1.376953 c 2.277163,-1.417409 3.335565,-4.160915 2.599609,-6.740234 C 21.033722,11.774196 18.688265,10.002341 16.006005,10 c -2.682259,-0.00234 -5.032981,1.765719 -5.773437,4.34375 -0.7404557,2.578031 0.313205,5.322759 2.58789,6.744141 a 1,1 0 0 1 0.31836,1.378906 1,1 0 0 1 -1.378906,0.318359 C 8.7359613,20.895582 7.3263363,17.218231 8.3106933,13.791016 9.2950503,10.3638 12.442183,7.9968883 16.007958,8 Z m -0.0078,6 a 2,2 0 0 1 2,2 2,2 0 0 1 -2,2 2,2 0 0 1 -0.515625,-0.07031 l -1.777344,1.777343 a 1,1 0 0 1 -1.414062,0 1,1 0 0 1 0,-1.414062 L 14.07047,16.515625 A 2,2 0 0 1 14.000146,16 a 2,2 0 0 1 2,-2 z"/>
 </g>
 <g id="profile-performance" transform="translate(487,-27)">
  <rect style="opacity:0.001"  width="22" height="22" x="-27" y="5" transform="rotate(-90)"/>
  <path  style="fill:currentColor" class="ColorScheme-Text" d="m 15.992188,8 c -3.565776,0.00311 -6.7071736,2.375759 -7.6855474,5.804688 -0.9783738,3.428927 0.4395525,7.102034 3.4667974,8.986328 A 1,1 0 0 0 13.150391,22.470703 1,1 0 0 0 12.830078,21.09375 C 10.552915,19.676341 9.4945131,16.932835 10.230469,14.353516 10.966424,11.774196 13.311881,10.002341 15.994141,10 c 2.682259,-0.00234 5.032981,1.765719 5.773437,4.34375 0.740456,2.578031 -0.313205,5.322759 -2.58789,6.744141 a 1,1 0 0 0 -0.31836,1.378906 1,1 0 0 0 1.378906,0.318359 c 3.023951,-1.889574 4.433576,-5.566925 3.449219,-8.99414 C 22.705096,10.3638 19.557963,7.9968883 15.992188,8 Z M 16,14 a 2,2 0 0 0 -2,2 2,2 0 0 0 2,2 2,2 0 0 0 0.515625,-0.07031 l 1.777344,1.777343 a 1,1 0 0 0 1.414062,0 1,1 0 0 0 0,-1.414062 L 17.929688,16.515625 A 2,2 0 0 0 18,16 2,2 0 0 0 16,14 Z"/>
 </g>
</svg>
