<svg xmlns="http://www.w3.org/2000/svg" width="32" height="32" version="1.1">
 <defs id="materia">
  <style id="current-color-scheme" type="text/css">
   .ColorScheme-Background {color:#181818; } .ColorScheme-ButtonBackground { color:#343434; } .ColorScheme-Highlight { color:#4285f4; } .ColorScheme-Text { color:#dfdfdf; } .ColorScheme-ViewBackground { color:#242424; } .ColorScheme-NegativeText { color:#f44336; } .ColorScheme-PositiveText { color:#4caf50; } .ColorScheme-NeutralText { color:#ff9800; }
  </style>
 </defs>
 <g id="22-22-preferences-desktop-notification" transform="translate(32,-62)">
  <rect style="opacity:0.001" width="22" height="22" x="0" y="40"/>
  <path style="fill:currentColor" class="ColorScheme-Highlight" d="m 11,43 c -4.418278,0 -8,3.581722 -8,8 0,4.418278 3.581722,8 8,8 4.418278,0 8,-3.581722 8,-8 0,-4.418278 -3.581722,-8 -8,-8 z"/>
  <path style="fill:#ffffff" d="m 10,47 v 6 h 2 v -6 z m 1,7 c -0.453152,0 -1,0.518427 -1,0.980469 C 10,55.442512 10.546848,56 11,56 11.453152,56 12,55.442512 12,54.980469 12,54.518427 11.453152,54 11,54 Z"/>
 </g>
 <g id="22-22-preferences-system-bluetooth-activated" transform="translate(96,-126)">
  <rect style="opacity:0.001" width="22" height="22" x="0" y="104"/>
  <path style="fill:currentColor" class="ColorScheme-Text" d="M 11.5,107 C 8.453,107 6,109.676 6,113 v 4 c 0,3.324 2.453,6 5.5,6 3.047,0 5.5,-2.676 5.5,-6 v -4 c 0,-3.324 -2.453,-6 -5.5,-6 z m 7.5,0 a 2,2 0 0 0 -2,2 2,2 0 0 0 2,2 2,2 0 0 0 2,-2 2,2 0 0 0 -2,-2 z m -8,2 h 0.5 c 0.20775,0 0.39305,0.13292 0.46875,0.3125 l 2.875,2.84375 0.40625,0.375 -0.4375,0.34375 -2.5625,2.125 2.5625,2.125 0.4375,0.34375 -0.40625,0.375 -2.875,2.84375 c -0.0252,0.0599 -0.0798,0.11106 -0.125,0.15625 C 11.75335,120.93415 11.6385,121 11.5,121 H 11 v -0.5 -4.4375 l -2.15625,1.78125 C 8.75325,117.93425 8.63807,118 8.5,118 H 8 v -0.5 c 0,-0.15322 0.079,-0.28328 0.1875,-0.375 L 10.75,115 8.3125,112.96875 C 8.2658,112.94905 8.2257,112.9072 8.1875,112.875 8.07896,112.7833 8,112.65322 8,112.5 V 112 h 0.5 c 0.12292,0 0.22543,0.0514 0.3125,0.125 0.0107,0.009 0.02135,0.0213 0.03125,0.0312 L 11,113.9375 V 109.5 Z m 1,1.6875 v 3.25 l 1.78125,-1.46875 z m 0,5.375 v 3.25 l 1.78125,-1.78125 z"/>
 </g>
 <g id="22-22-preferences-system-bluetooth" transform="translate(72.000001,-21.999998)">
  <rect style="opacity:0.001" width="22" height="22" x="56" y="0"/>
  <path style="fill:currentColor" class="ColorScheme-Text" d="M 67.5,3 C 64.453,3 62,5.676 62,9 v 4 c 0,3.324 2.453,6 5.5,6 3.047,0 5.5,-2.676 5.5,-6 V 9 C 73,5.676 70.547,3 67.5,3 Z M 67,5 h 0.5 c 0.20775,0 0.39305,0.13292 0.46875,0.3125 l 2.875,2.84375 L 71.25,8.53125 70.8125,8.875 68.25,11 l 2.5625,2.125 0.4375,0.34375 -0.40625,0.375 -2.875,2.84375 c -0.0252,0.0599 -0.0798,0.11106 -0.125,0.15625 C 67.75335,16.93415 67.6385,17 67.5,17 H 67 v -0.5 -4.4375 l -2.15625,1.78125 C 64.75325,13.93425 64.63807,14 64.5,14 H 64 v -0.5 c 0,-0.15322 0.079,-0.28328 0.1875,-0.375 L 66.75,11 64.3125,8.96875 C 64.2658,8.94905 64.2257,8.90725 64.1875,8.87505 64.07896,8.78335 64,8.65327 64,8.50005 v -0.5 h 0.5 c 0.12292,0 0.22543,0.0514 0.3125,0.125 0.0107,0.009 0.0213,0.0213 0.0312,0.0312 L 66.99995,9.9375 V 5.5 5 Z m 1,1.6875 v 3.25 l 1.78125,-1.46875 z m 0,5.375 v 3.25 l 1.78125,-1.78125 z"/>
 </g>
 <g id="22-22-preferences-system-bluetooth-inactive" transform="translate(104,-22)">
  <rect style="opacity:0.001" width="22" height="22" x="56" y="0"/>
  <path style="opacity:0.3;fill:currentColor" class="ColorScheme-Text" d="M 67.5,3 C 64.453,3 62,5.676 62,9 v 4 c 0,3.324 2.453,6 5.5,6 3.047,0 5.5,-2.676 5.5,-6 V 9 C 73,5.676 70.547,3 67.5,3 Z M 67,5 h 0.5 c 0.20775,0 0.39305,0.13292 0.46875,0.3125 l 2.875,2.84375 L 71.25,8.53125 70.8125,8.875 68.25,11 l 2.5625,2.125 0.4375,0.34375 -0.40625,0.375 -2.875,2.84375 c -0.0252,0.0599 -0.0798,0.11106 -0.125,0.15625 C 67.75335,16.93415 67.6385,17 67.5,17 H 67 v -0.5 -4.4375 l -2.15625,1.78125 C 64.75325,13.93425 64.63807,14 64.5,14 H 64 v -0.5 c 0,-0.15322 0.079,-0.28328 0.1875,-0.375 L 66.75,11 64.3125,8.96875 C 64.2658,8.94905 64.2257,8.90725 64.1875,8.87505 64.07896,8.78335 64,8.65327 64,8.50005 v -0.5 h 0.5 c 0.12292,0 0.22543,0.0514 0.3125,0.125 0.0107,0.009 0.0213,0.0213 0.0312,0.0312 L 66.99995,9.9375 V 5.5 5 Z m 1,1.6875 v 3.25 l 1.78125,-1.46875 z m 0,5.375 v 3.25 l 1.78125,-1.78125 z"/>
 </g>
 <g id="22-22-preferences-desktop-display-randr" transform="translate(0,-22)">
  <rect style="opacity:0.001" width="22" height="22" x="0" y="0"/>
  <path style="fill:currentColor" class="ColorScheme-Text" d="M 3.125,2.9999998 C 2,2.9999998 2,4.1431759 2,4.1431759 V 15.874512 c 0,1.143176 1.125,1.143176 1.125,1.143176 h 5.0375 c 0,0 -1.2001266,-0.298955 -1.1625,0.843601 V 19 h 8 v -1.138711 c 0,-1.143176 -1.050415,-0.843601 -1.050415,-0.843601 H 18.875 C 20,17.017688 20,15.874512 20,15.874512 V 4.1431759 c 0,0 0,-1.1431761 -1.125,-1.1431761 z M 4,5 h 14 v 9.98549 L 4,15.01451 Z"/>
 </g>
 <g id="22-22-preferences-system-windows" transform="translate(59,-27)">
  <rect style="opacity:0.001" width="22" height="22" x="5" y="5"/>
  <path style="fill:currentColor" class="ColorScheme-Text" d="M 13.5,9 C 13,9 13,9.5 13,9.5 v 8 c 0,0.5 0.5,0.5 0.5,0.5 h 10 c 0,0 0.5,0 0.5,-0.5 v -8 C 24,9 23.5,9 23.5,9 Z m 1.5,3 h 7 v 4 H 15 Z M 7.519531,14 C 7.519531,14 7,14 7,14.5 v 8 C 7,23 7.5,23 7.5,23 h 10 c 0,0 0.5,-0.02 0.5,-0.5 V 19 h -2 v 2 H 9 v -4 h 3 v -3 z"/>
 </g>
 <g id="preferences-desktop-display-randr" transform="translate(0,34)">
  <rect style="opacity:0.001" width="32" height="32" x="0" y="-34"/>
  <g transform="translate(2e-4,-35)">
   <path style="fill:currentColor" class="ColorScheme-Text" transform="translate(0,1)" d="M 4.3007812,4 C 3.5805813,4 3,4.5575 3,5.25 v 17.5 C 3,23.4425 3.5805813,24 4.3007812,24 H 8 v 1.6875 C 8,26.414902 8.5935493,27 9.3320312,27 H 22.667969 C 23.406451,27 24,26.414902 24,25.6875 V 24 h 3.699219 C 28.419419,24 29,23.4425 29,22.75 V 5.25 C 29,4.5575 28.419419,4 27.699219,4 Z M 6,7 H 26 V 21 H 24 8 6 Z"/>
  </g>
 </g>
 <g id="preferences-desktop-notification" transform="translate(32)">
  <rect style="opacity:0.001" width="32" height="32" x="0" y="0"/>
  <path style="fill:currentColor" class="ColorScheme-Highlight" d="M 15.5,4 A 11.5,11.5 0 0 0 4,15.5 11.5,11.5 0 0 0 15.5,27 11.5,11.5 0 0 0 27,15.5 11.5,11.5 0 0 0 15.5,4 Z"/>
  <path style="fill:#ffffff" transform="translate(-160)" d="m 174,9 v 8 h 3 V 9 Z m 1.5,10 C 174.82027,19 174,19.77764 174,20.470703 174,21.163769 174.82027,22 175.5,22 176.17973,22 177,21.163769 177,20.470703 177,19.77764 176.17973,19 175.5,19 Z"/>
 </g>
 <g id="preferences-system-bluetooth" transform="translate(128)">
  <rect style="opacity:0.001" width="32" height="32" x="0" y="0"/>
  <path style="fill:currentColor" class="ColorScheme-Text" d="M 15.5,4 C 10.790999,4 7,8.014 7,13 v 6 c 0,4.986 3.790999,9 8.5,9 4.709,0 8.5,-4.014 8.5,-9 V 13 C 24,8.014 20.209,4 15.5,4 Z m -1.5,3 1.679688,0.025391 5,4.640625 0.859374,0.841796 -0.933593,0.6875 -3.66211,2.783204 3.667969,2.830078 0.933594,0.746094 -0.865234,0.779296 -5,4.626954 L 14,25 V 18.216797 L 10.605469,20.796875 10.337891,21 H 9 V 19.503906 L 9.3945312,19.203125 13.652344,15.966797 9,12.376953 V 11 h 1.488281 L 14,13.708984 Z m 2,3.050781 v 4.132813 l 2.447266,-1.861328 z m 0,7.726563 v 4.162109 l 2.453125,-2.269531 z"/>
 </g>
 <g id="preferences-system-bluetooth-activated" transform="translate(96.000001)">
  <rect style="opacity:0.001" width="32" height="32" x="0" y="0"/>
  <path style="fill:currentColor" class="ColorScheme-Text" d="M 15.5,4 C 10.790999,4 7,8.014 7,13 v 6 c 0,4.986 3.790999,9 8.5,9 4.709,0 8.5,-4.014 8.5,-9 V 13 C 24,8.014 20.209,4 15.5,4 Z M 28,4 c -1.656855,0 -3,1.3431457 -3,3 0,1.6568544 1.343145,3 3,3 1.656855,0 3,-1.3431456 3,-3 0,-1.6568543 -1.343145,-3 -3,-3 z m -14,3 1.679688,0.025391 5,4.640625 0.859374,0.841796 -0.933593,0.6875 -3.66211,2.783204 3.667969,2.830078 0.933594,0.746094 -0.865234,0.779296 -5,4.626954 L 14,25 V 18.216797 L 10.605469,20.796875 10.337891,21 H 9 V 19.503906 L 9.3945312,19.203125 13.652344,15.966797 9,12.376953 V 11 h 1.488281 L 14,13.708984 Z m 2,3.050781 v 4.132813 l 2.447266,-1.861328 z m 0,7.726563 v 4.162109 l 2.453125,-2.269531 z"/>
 </g>
 <g id="preferences-system-bluetooth-inactive" transform="translate(160)">
  <rect style="opacity:0.001" width="32" height="32" x="0" y="0"/>
  <path style="opacity:0.3;fill:currentColor" class="ColorScheme-Text" d="M 15.5,4 C 10.790999,4 7,8.014 7,13 v 6 c 0,4.986 3.790999,9 8.5,9 4.709,0 8.5,-4.014 8.5,-9 V 13 C 24,8.014 20.209,4 15.5,4 Z m -1.5,3 1.679688,0.025391 5,4.640625 0.859374,0.841796 -0.933593,0.6875 -3.66211,2.783204 3.667969,2.830078 0.933594,0.746094 -0.865234,0.779296 -5,4.626954 L 14,25 V 18.216797 L 10.605469,20.796875 10.337891,21 H 9 V 19.503906 L 9.3945312,19.203125 13.652344,15.966797 9,12.376953 V 11 h 1.488281 L 14,13.708984 Z m 2,3.050781 v 4.132813 l 2.447266,-1.861328 z m 0,7.726563 v 4.162109 l 2.453125,-2.269531 z"/>
 </g>
 <g id="preferences-system-windows" transform="translate(64)">
  <rect style="opacity:0.001" width="32" height="32" x="0" y="0"/>
  <path style="fill:currentColor" class="ColorScheme-Text" d="M 12.726562,6 C 11.999289,6 12,6.7226564 12,6.7226562 V 18.277344 C 12,18.999566 12.726563,19 12.726562,19 H 27.273438 C 27.273438,19 28,18.999566 28,18.277344 V 6.7226562 C 28,6.0004339 27.273438,6 27.273438,6 Z M 15,10 h 10 v 6 H 15 Z M 3.7265625,13 C 2.9992895,13 3,13.722656 3,13.722656 V 25.277344 C 3,25.999566 3.7265625,26 3.7265625,26 H 18.273438 C 18.273438,26 19,25.999566 19,25.277344 V 21 h -3 v 2 H 6 v -6 h 4 v -4 z"/>
 </g>
 <g id="preferences-desktop-notification-bell" transform="translate(-22,32)">
  <rect style="opacity:0.001" width="22" height="22" x="0" y="0"/>
  <path style="fill:currentColor" class="ColorScheme-Text" d="M 11,3.0000001 C 11.55,3.0000001 12,3.4500001 12,4.0000001 12,4.0300001 12,4.0700001 11.99,4.1000001 14.28,4.5600001 16,6.5700001 16,9.0000001 V 11 13.5 L 18,15.5 V 16 H 16 6 4 V 15.5 L 6,13.5 V 9.0000001 C 6,6.5700001 7.72,4.5600001 10.01,4.1000001 10,4.0700001 10,4.0300001 10,4.0000001 10,3.4500001 10.45,3.0000001 11,3.0000001 Z M 12.73,17 C 12.37,17.62 11.71,18 11,18 10.29,18 9.63,17.62 9.27,17 Z"/>
 </g>
</svg>
