<svg xmlns="http://www.w3.org/2000/svg" width="32" height="32" version="1.1">
 <defs id="materia">
  <style id="current-color-scheme" type="text/css">
   .ColorScheme-Background {color:#181818; } .ColorScheme-ButtonBackground { color:#343434; } .ColorScheme-Highlight { color:#4285f4; } .ColorScheme-Text { color:#dfdfdf; } .ColorScheme-ViewBackground { color:#242424; } .ColorScheme-NegativeText { color:#f44336; } .ColorScheme-PositiveText { color:#4caf50; } .ColorScheme-NeutralText { color:#ff9800; }
  </style>
 </defs>
 <rect  style="opacity:0.001" width="22" height="22" x="-38.33" y="13.77"/>
 <g id="22-22-window-close" transform="translate(32,10)">
  <rect  style="opacity:0.00100002" width="22" height="22" x="0" y="0"/>
  <g  transform="matrix(1.7493122,0,0,1.7499488,-107.95048,-909.47286)">
   <g  transform="translate(19,-242)">
    <path  style="fill:currentColor" class="ColorScheme-Text" d="m 45.571203,764.57141 h 0.857142 c 0.0089,-1.1e-4 0.01782,-4e-4 0.02679,0 0.21853,0.01 0.437032,0.11021 0.589286,0.26785 l 1.955357,1.95536 1.982143,-1.95536 c 0.227678,-0.19757 0.382861,-0.26185 0.589285,-0.26785 h 0.857143 v 0.85714 c 0,0.24555 -0.02943,0.47199 -0.214285,0.64286 l -1.955357,1.95535 1.928571,1.92858 c 0.161304,0.16128 0.241064,0.38867 0.241071,0.61607 v 0.85714 h -0.857143 c -0.2274,-10e-6 -0.454788,-0.0798 -0.616071,-0.24107 l -1.955357,-1.95536 -1.955357,1.95536 c -0.161288,0.1613 -0.388684,0.24107 -0.616076,0.24107 h -0.857142 v -0.85714 c -3e-6,-0.22739 0.07977,-0.45479 0.241071,-0.61607 l 1.955357,-1.92858 -1.955357,-1.95535 c -0.180636,-0.16683 -0.259851,-0.40222 -0.241071,-0.64286 z"/>
   </g>
  </g>
 </g>
 <g id="window-close">
  <rect  style="opacity:0.001" width="32" height="32" x="0" y="0"/>
  <g  transform="matrix(2.623967,0,0,2.624922,-162.42563,-1364.7087)">
   <g  transform="translate(19,-242)">
    <path  style="fill:currentColor" class="ColorScheme-Text" d="m 45.571203,764.57141 h 0.857142 c 0.0089,-1.1e-4 0.01782,-4e-4 0.02679,0 0.21853,0.01 0.437032,0.11021 0.589286,0.26785 l 1.955357,1.95536 1.982143,-1.95536 c 0.227678,-0.19757 0.382861,-0.26185 0.589285,-0.26785 h 0.857143 v 0.85714 c 0,0.24555 -0.02943,0.47199 -0.214285,0.64286 l -1.955357,1.95535 1.928571,1.92858 c 0.161304,0.16128 0.241064,0.38867 0.241071,0.61607 v 0.85714 h -0.857143 c -0.2274,-10e-6 -0.454788,-0.0798 -0.616071,-0.24107 l -1.955357,-1.95536 -1.955357,1.95536 c -0.161288,0.1613 -0.388684,0.24107 -0.616076,0.24107 h -0.857142 v -0.85714 c -3e-6,-0.22739 0.07977,-0.45479 0.241071,-0.61607 l 1.955357,-1.92858 -1.955357,-1.95535 c -0.180636,-0.16683 -0.259851,-0.40222 -0.241071,-0.64286 z"/>
   </g>
  </g>
 </g>
 <g id="22-22-window-pin" transform="translate(27,37)">
  <rect  style="opacity:0.00100002" width="22" height="22" x="5" y="5"/>
  <path  style="fill:currentColor" class="ColorScheme-Text" d="m 18,8 c -0.778504,0.778504 -0.936706,2.168688 -0.03126,3.6875 l -4.25,2.84375 C 13.190334,14.318042 12.623146,14.159068 12.06249,14.15625 11.33374,14.15265 10.625,14.375 10,15 l 3,3 -4,4 -1,2 2,-1 4,-4 3,3 c 1.106964,-1.106964 0.964748,-2.507768 0.46875,-3.71875 l 2.84375,-4.25 c 1.518812,0.905456 2.908996,0.747254 3.6875,-0.03126 z"/>
 </g>
 <g id="16-16-window-pin" transform="translate(46,40)">
  <rect  style="opacity:0.00100002" width="16" height="16" x="8" y="8"/>
  <path  style="fill:currentColor" class="ColorScheme-Text" d="m 17,12 c -0.389252,0.389252 -0.468353,1.084344 -0.01563,1.84375 l -2.125,1.421875 C 14.595167,15.159021 14.311573,15.079534 14.031245,15.078125 13.66687,15.076325 13.3125,15.1875 13,15.5 l 1.5,1.5 -2,2 -0.5,1 1,-0.5 2,-2 1.5,1.5 c 0.553482,-0.553482 0.482374,-1.253884 0.234375,-1.859375 l 1.421875,-2.125 c 0.759406,0.452728 1.454498,0.373627 1.84375,-0.01563 z"/>
 </g>
 <g id="window-pin" transform="translate(5e-7,32)">
  <rect  style="opacity:0.00100002" width="32" height="32" x="0" y="0"/>
  <path  style="fill:currentColor" class="ColorScheme-Text" d="m 19.500001,2 c -1.362381,1.362382 -1.639235,3.795204 -0.05471,6.453125 l -7.437499,4.976562 C 11.083085,13.056574 10.090505,12.778369 9.109358,12.773438 7.834045,12.767182 6.59375,13.156251 5.5,14.249999 L 10.750001,19.5 3.75,26.5 2,30 l 3.5,-1.750001 7,-7 L 17.750001,26.5 c 1.937186,-1.937188 1.688308,-4.388594 0.820312,-6.507812 l 4.976561,-7.4375 C 26.204796,14.139235 28.637619,13.862381 30,12.499978 Z"/>
 </g>
 <g id="16-16-window-close">
  <rect  style="opacity:0.00100002;stroke-width:0.5" width="16" height="16" x="54" y="16"/>
  <g  transform="matrix(1.1662076,0,0,1.166632,-17.300283,-589.64829)">
   <g  transform="translate(19,-242)">
    <path  style="fill:currentColor" class="ColorScheme-Text" d="m 45.571203,764.57141 h 0.857142 c 0.0089,-1.1e-4 0.01782,-4e-4 0.02679,0 0.21853,0.01 0.437032,0.11021 0.589286,0.26785 l 1.955357,1.95536 1.982143,-1.95536 c 0.227678,-0.19757 0.382861,-0.26185 0.589285,-0.26785 h 0.857143 v 0.85714 c 0,0.24555 -0.02943,0.47199 -0.214285,0.64286 l -1.955357,1.95535 1.928571,1.92858 c 0.161304,0.16128 0.241064,0.38867 0.241071,0.61607 v 0.85714 h -0.857143 c -0.2274,-10e-6 -0.454788,-0.0798 -0.616071,-0.24107 l -1.955357,-1.95536 -1.955357,1.95536 c -0.161288,0.1613 -0.388684,0.24107 -0.616076,0.24107 h -0.857142 v -0.85714 c -3e-6,-0.22739 0.07977,-0.45479 0.241071,-0.61607 l 1.955357,-1.92858 -1.955357,-1.95535 c -0.180636,-0.16683 -0.259851,-0.40222 -0.241071,-0.64286 z"/>
   </g>
  </g>
 </g>
</svg>
