<svg xmlns="http://www.w3.org/2000/svg" width="12" height="12" version="1.1" viewBox="0 0 12 12">
 <g>
  <rect style="opacity:0.001" width="12" height="12" x="0" y="0"/>
  <rect width="8" height="5" x="2" y="6" rx="1" ry="1" style="fill:#dfdfdf"/>
  <path d="M 6 1 C 4.338 1 3 2.338 3 4 L 3 8 C 3 9.662 4.338 11 6 11 C 7.662 11 9 9.662 9 8 L 9 4 C 9 2.338 7.662 1 6 1 z M 6 3 C 6.5885945 3 7 3.4114055 7 4 L 7 8 C 7 8.5885945 6.5885945 9 6 9 C 5.4114055 9 5 8.5885945 5 8 L 5 4 C 5 3.4114055 5.4114055 3 6 3 z" style="fill:#dfdfdf"/>
 </g>
</svg>
