<svg xmlns="http://www.w3.org/2000/svg" width="12" height="12" version="1.1" viewBox="0 0 12 12">
 <rect width="12" height="12" x="0" y="0" style="fill:#272727"/>
 <path style="opacity:0.08;fill:#ffffff" d="M 2.4,0 C 1.0704,0 0,1.0704 0,2.4 V 9.6 C 0,10.9296 1.0704,12 2.4,12 H 9.6 C 10.9296,12 12,10.9296 12,9.6 V 2.4 C 12,1.0704 10.9296,0 9.6,0 Z"/>
 <path style="fill:#dfdfdf" d="M 3,3 H 4.4140625 L 6,4.5859375 7.5859375,3 H 9 V 4.4140625 L 7.4140625,6 9,7.5859375 V 9 H 7.5859375 L 6,7.4140625 4.4140625,9 H 3 V 7.5859375 L 4.5859375,6 3,4.4140625 Z"/>
</svg>
