<svg xmlns="http://www.w3.org/2000/svg" id="svg8" width="12" height="12" version="1.1" viewBox="0 0 12 12">
 <g id="layer1" transform="translate(0,-293.82499)">
  <g id="g817">
   <rect id="rect817" width="12" height="12" x="0" y="293.82" style="opacity:1;fill:#383838;fill-opacity:1;stroke:none;stroke-width:3.19938183;stroke-linecap:round;stroke-linejoin:bevel;stroke-miterlimit:4;stroke-dasharray:none;stroke-opacity:1"/>
   <path style="opacity:1;fill:#dfdfdf;fill-opacity:1;stroke:none;stroke-width:2.0946033;stroke-linecap:round;stroke-linejoin:bevel;stroke-miterlimit:4;stroke-dasharray:none;stroke-opacity:1" id="path829" d="M 3 1 C 1.892 1 1 1.892 1 3 L 1 9 C 1 10.108 1.892 11 3 11 L 9 11 C 10.108 11 11 10.108 11 9 L 11 3 C 11 1.892 10.108 1 9 1 L 3 1 z M 5 3 L 7 3 L 7 5 L 9 5 L 9 7 L 7 7 L 7 9 L 5 9 L 5 7 L 3 7 L 3 5 L 5 5 L 5 3 z" transform="translate(0,293.82499)"/>
  </g>
 </g>
</svg>
