<?xml version="1.0" encoding="UTF-8" standalone="no"?>
<svg
   xmlns:dc="http://purl.org/dc/elements/1.1/"
   xmlns:cc="http://creativecommons.org/ns#"
   xmlns:rdf="http://www.w3.org/1999/02/22-rdf-syntax-ns#"
   xmlns:svg="http://www.w3.org/2000/svg"
   xmlns="http://www.w3.org/2000/svg"
   xmlns:sodipodi="http://sodipodi.sourceforge.net/DTD/sodipodi-0.dtd"
   xmlns:inkscape="http://www.inkscape.org/namespaces/inkscape"
   id="svg4306"
   width="22"
   height="22"
   version="1.1"
   style="enable-background:new"
   sodipodi:docname="quit_down.svg"
   inkscape:version="0.92.4 5da689c313, 2019-01-14">
  <metadata
     id="metadata12">
    <rdf:RDF>
      <cc:Work
         rdf:about="">
        <dc:format>image/svg+xml</dc:format>
        <dc:type
           rdf:resource="http://purl.org/dc/dcmitype/StillImage" />
        <dc:title />
      </cc:Work>
    </rdf:RDF>
  </metadata>
  <defs
     id="defs10" />
  <sodipodi:namedview
     pagecolor="#ffffff"
     bordercolor="#666666"
     borderopacity="1"
     objecttolerance="10"
     gridtolerance="10"
     guidetolerance="10"
     inkscape:pageopacity="0"
     inkscape:pageshadow="2"
     inkscape:window-width="1280"
     inkscape:window-height="674"
     id="namedview8"
     showgrid="false"
     inkscape:zoom="10.727273"
     inkscape:cx="-6.2457624"
     inkscape:cy="11"
     inkscape:window-x="0"
     inkscape:window-y="30"
     inkscape:window-maximized="0"
     inkscape:current-layer="g875" />
  <g
     id="g875">
    <g
       transform="translate(-46)"
       style="enable-background:new"
       id="pressed-center">
      <rect
         id="rect4211"
         style="opacity:0.00100002"
         width="22"
         height="22"
         x="46"
         y="0" />
      <circle
         id="circle4215"
         style="opacity:0.16000001;fill:#000000"
         cx="57"
         cy="11"
         r="11" />
      <path
         inkscape:connector-curvature="0"
         id="path4221"
         style="opacity:1;fill:#676767"
         d="m 53.003145,7.0002283 h 0.999607 c 0.01037,-1.2e-4 0.02078,-4.6e-4 0.03124,0 0.25485,0.0112 0.509669,0.1285762 0.687229,0.3124908 l 2.280354,2.2811834 2.311591,-2.2811834 c 0.26552,-0.2304932 0.446496,-0.305491 0.68723,-0.3124908 H 61 V 8.000199 c 0,0.2864617 -0.03433,0.550634 -0.249901,0.7499781 l -2.280354,2.2811829 2.249116,2.249935 C 60.906975,13.469459 60.999992,13.734731 61,14.000024 v 0.99997 h -0.999606 c -0.265197,-10e-6 -0.530378,-0.0931 -0.718468,-0.281241 l -2.280353,-2.281184 -2.280354,2.281184 c -0.18809,0.188184 -0.453281,0.281241 -0.718467,0.281241 h -0.999607 v -0.99997 c -3e-6,-0.265283 0.09302,-0.530565 0.281139,-0.718729 L 55.564638,11.03136 53.284284,8.7501771 C 53.073625,8.5555528 52.981243,8.2809408 53.003145,8.000199 Z" />
    </g>
  </g>
</svg>
