<svg xmlns="http://www.w3.org/2000/svg" width="24" height="24" version="1.1">
 <g id="pressed-center" transform="matrix(1.0909091,0,0,1.0909091,-2.1818182,0)">
  <rect style="opacity:0.001" width="22" height="22" x="46" y="0"/>
  <circle style="opacity:0.19;fill:#ffffff" cx="57" cy="11" r="11"/>
  <path style="fill:#dfdfdf" d="m 53.333333,7.3333333 c 0,2.4444446 0,4.8888887 0,7.3333337 h 7.333333 c 0,-2.444445 0,-4.8888891 0,-7.3333337 z m 1.833333,1.8333333 h 3.666667 c 0,1.2222224 0,2.4444454 0,3.6666674 h -3.666667 c 0,-1.222222 0,-2.444445 0,-3.6666674 z"/>
 </g>
 <g id="hover-center" transform="matrix(1.0909091,0,0,1.0909091,-1.0909091,0)">
  <rect style="opacity:0.001" width="22" height="22" x="23" y="0"/>
  <circle style="opacity:0.08;fill:#ffffff" cx="34" cy="11" r="11"/>
  <path style="fill:#dfdfdf" d="m 30.333333,7.3333333 c 0,2.4444446 0,4.8888887 0,7.3333337 h 7.333334 c 0,-2.444445 0,-4.8888891 0,-7.3333337 z m 1.833334,1.8333333 h 3.666666 c 0,1.2222224 0,2.4444454 0,3.6666674 h -3.666666 c 0,-1.222222 0,-2.444445 0,-3.6666674 z"/>
 </g>
 <g id="active-center" transform="scale(1.0909091)">
  <rect style="opacity:0.001" width="22" height="22" x="0" y="0"/>
  <path style="fill:#dfdfdf" d="m 7.3333335,7.3333333 c 0,2.4444446 0,4.8888887 0,7.3333337 h 7.3333325 c 0,-2.444445 0,-4.8888891 0,-7.3333337 z m 1.8333333,1.8333333 h 3.6666662 c 0,1.2222224 0,2.4444454 0,3.6666674 H 9.1666668 c 0,-1.222222 0,-2.444445 0,-3.6666674 z"/>
 </g>
 <g id="inactive-center" transform="matrix(1.0909091,0,0,1.0909091,72.000001,0)">
  <rect style="opacity:0.001" width="22" height="22" x="0" y="0"/>
  <path style="opacity:0.5;fill:#dfdfdf" d="m 7.3333334,7.3333333 c 0,2.4444446 0,4.8888887 0,7.3333337 h 7.3333336 c 0,-2.444445 0,-4.8888891 0,-7.3333337 z m 1.8333333,1.8333333 h 3.6666663 c 0,1.2222224 0,2.4444454 0,3.6666674 H 9.1666667 c 0,-1.222222 0,-2.444445 0,-3.6666674 z"/>
 </g>
 <g id="deactivated-center" transform="matrix(1.0909091,0,0,1.0909091,96.000001,0)">
  <rect style="opacity:0.001" width="22" height="22" x="0" y="0"/>
  <path style="opacity:0.5;fill:#dfdfdf" d="m 7.3333333,7.3333333 c 0,2.4444446 0,4.8888887 0,7.3333337 h 7.3333337 c 0,-2.444445 0,-4.8888891 0,-7.3333337 z m 1.8333334,1.8333333 h 3.6666663 c 0,1.2222224 0,2.4444454 0,3.6666674 H 9.1666667 c 0,-1.222222 0,-2.444445 0,-3.6666674 z"/>
 </g>
</svg>
