<svg xmlns="http://www.w3.org/2000/svg" width="22" height="22" version="1.1">
 <g id="pressed-center">
  <g transform="translate(46)">
   <rect style="opacity:0.001" width="22" height="22" x="0" y="0"/>
  </g>
  <circle style="opacity:0.19;fill:#ffffff" cx="57" cy="11" r="11"/>
  <rect style="opacity:1;fill:#dfdfdf" width="8" height="2" x="53" y="-15" transform="scale(1,-1)"/>
 </g>
 <g id="hover-center">
  <g transform="translate(23)">
   <rect style="opacity:0.001" width="22" height="22" x="0" y="0"/>
  </g>
  <circle style="opacity:0.08;fill:#ffffff" cx="34" cy="11" r="11"/>
  <rect style="opacity:1;fill:#dfdfdf" width="8" height="2" x="30" y="-15" transform="scale(1,-1)"/>
 </g>
 <g id="active-center">
  <rect style="opacity:0.001" width="22" height="22" x="0" y="0"/>
  <path style="opacity:1;fill:#dfdfdf" d="m 7,12.999982 0,2 8,0 0,-2 z"/>
 </g>
 <g id="inactive-center" transform="translate(69,0)">
  <rect style="opacity:0.001" width="22" height="22" x="0" y="0"/>
  <path id="rect4139-3" style="opacity:0.5;fill:#dfdfdf" d="m 7,12.999982 0,2 8,0 0,-2 z"/>
 </g>
 <g id="deactivated-center" transform="translate(92,0)">
  <rect style="opacity:0.001" width="22" height="22" x="0" y="0"/>
  <path style="opacity:0.5;fill:#dfdfdf" d="m 7,12.999982 0,2 8,0 0,-2 z"/>
 </g>
</svg>
