<svg xmlns="http://www.w3.org/2000/svg" id="svg4306" width="22" height="22" version="1.1" style="enable-background:new">
 <g id="pressed-center">
  <g id="g4172" transform="translate(46)">
   <rect id="rect4164" width="22" height="22" x="0" y="0" style="opacity:0.001"/>
  </g>
  <circle style="opacity:0.19;fill:#ffffff" id="path4202" cx="57" cy="11" r="11"/>
  <rect style="opacity:1;fill:#dfdfdf" id="rect4139" width="8" height="2" x="53" y="-15" transform="scale(1,-1)"/>
 </g>
 <g id="hover-center">
  <g id="g4206" transform="translate(23)">
   <rect id="rect4208" width="22" height="22" x="0" y="0" style="opacity:0.001"/>
  </g>
  <circle style="opacity:0.08;fill:#ffffff" id="circle4212" cx="34" cy="11" r="11"/>
  <rect style="opacity:1;fill:#dfdfdf" id="rect4214" width="8" height="2" x="30" y="-15" transform="scale(1,-1)"/>
 </g>
 <g id="active-center">
  <rect id="rect4266" width="22" height="22" x="0" y="0" style="opacity:0.001"/>
  <path id="path4268" d="m 7,12.999982 0,2 8,0 0,-2 z" style="opacity:1;fill:#dfdfdf"/>
 </g>
 <g id="inactive-center" transform="translate(69,0)">
  <rect id="rect4180" width="22" height="22" x="0" y="0" style="opacity:0.001"/>
  <path id="rect4139-3" d="m 7,12.999982 0,2 8,0 0,-2 z" style="opacity:0.5;fill:#dfdfdf"/>
 </g>
 <g id="deactivated-center" transform="translate(92,0)">
  <rect id="rect4278" width="22" height="22" x="0" y="0" style="opacity:0.001"/>
  <path id="path4280" d="m 7,12.999982 0,2 8,0 0,-2 z" style="opacity:0.5;fill:#dfdfdf"/>
 </g>
</svg>
