<svg xmlns="http://www.w3.org/2000/svg" width="44" height="44" version="1.1" viewBox="0 0 11.64 11.64">
 <g transform="translate(-11.641649,-261.54584)">
  <g id="up-arrow" transform="translate(-1.3769874e-5,6.6146114)">
   <rect style="fill:none" width="3.704" height="3.704" x="254.93" y="15.61" transform="matrix(0,1,1,0,0,0)"/>
   <path style="fill:#dfdfdf" d="m 17.462495,256.25414 -1.058333,1.05833 2.116667,0 -1.058334,-1.05833 z"/>
  </g>
  <g id="down-arrow" transform="matrix(1,0,0,-1,-1.4008293e-5,528.11874)">
   <rect style="fill:none" width="3.704" height="3.704" x="254.93" y="15.61" transform="matrix(0,1,1,0,0,0)"/>
   <path style="fill:#dfdfdf" d="m 17.462495,256.25414 -1.058333,1.05833 2.116667,0 -1.058334,-1.05833 z"/>
  </g>
  <g id="right-arrow" transform="matrix(0,1,-1,0,278.21454,249.90418)">
   <rect style="fill:none" width="3.704" height="3.704" x="254.93" y="15.61" transform="matrix(0,1,1,0,0,0)"/>
   <path style="fill:#dfdfdf" d="m 17.462495,256.25414 -1.058333,1.05833 2.116667,0 -1.058334,-1.05833 z"/>
  </g>
  <g id="left-arrow" transform="matrix(0,1,1,0,-243.28958,249.90418)">
   <rect style="fill:none" width="3.704" height="3.704" x="254.93" y="15.61" transform="matrix(0,1,1,0,0,0)"/>
   <path style="fill:#dfdfdf" d="m 17.462495,256.25414 -1.058333,1.05833 2.116667,0 -1.058334,-1.05833 z"/>
  </g>
 </g>
</svg>
