<svg xmlns="http://www.w3.org/2000/svg" xmlns:xlink="http://www.w3.org/1999/xlink" id="svg3642" width="205" height="210.939" version="1">
 <defs id="defs3644">
  <linearGradient id="linearGradient4465">
   <stop id="stop4467" offset="0" style="stop-color:#000000;stop-opacity:0.50980395"/>
   <stop id="stop4469" offset="1" style="stop-color:#000000;stop-opacity:0"/>
  </linearGradient>
  <radialGradient id="radialGradient3382" cx="984" cy="905.362" r="8.5" fx="984" fy="905.362" gradientTransform="matrix(1.7317915e-5,1.9999983,-1.9999805,1.731776e-5,1998.6894,-1868.075)" gradientUnits="userSpaceOnUse" xlink:href="#linearGradient4465"/>
  <radialGradient id="radialGradient4255" cx="982.909" cy="906.453" r="8.5" fx="982.909" fy="906.453" gradientTransform="matrix(2.0000264,2.3796519e-5,-2.3796124e-5,1.9999933,-1777.8226,-1762.9844)" gradientUnits="userSpaceOnUse" xlink:href="#linearGradient4465"/>
  <linearGradient id="linearGradient4259" x1="83.6" x2="83.6" y1="-969.362" y2="-952.362" gradientTransform="matrix(0.71428571,0,0,1,127.28571,1069.3013)" gradientUnits="userSpaceOnUse" xlink:href="#linearGradient4465"/>
  <radialGradient id="radialGradient4263" cx="984" cy="905.362" r="8.5" fx="984" fy="905.362" gradientTransform="matrix(-2.000005,2.727468e-6,-2.7274042e-6,-1.999959,2106.0074,1910.6235)" gradientUnits="userSpaceOnUse" xlink:href="#linearGradient4465"/>
  <linearGradient id="linearGradient4271" x1="83.6" x2="83.6" y1="-969.362" y2="-952.362" gradientTransform="matrix(0.71428571,0,0,1,-110.65338,831.3622)" gradientUnits="userSpaceOnUse" xlink:href="#linearGradient4465"/>
  <radialGradient id="radialGradient4275" cx="984" cy="905.362" r="8.5" fx="984" fy="905.362" gradientTransform="matrix(8.0916064e-7,-2.000009,1.9999882,8.0915096e-7,-1672.7142,2017.9472)" gradientUnits="userSpaceOnUse" xlink:href="#linearGradient4465"/>
  <linearGradient id="linearGradient4283" x1="83.6" x2="83.6" y1="-969.362" y2="-952.362" gradientTransform="matrix(0.71428571,0,0,1,127.28571,919.42311)" gradientUnits="userSpaceOnUse" xlink:href="#linearGradient4465"/>
  <linearGradient id="linearGradient4452" x1="-260" x2="-260" y1="281" y2="298" gradientTransform="translate(207.06091,-93)" gradientUnits="userSpaceOnUse" xlink:href="#linearGradient4465"/>
 </defs>
 <rect id="center" width="50" height="50" x="138" y="49.94" style="opacity:0.90;fill:#212121;fill-opacity:1;stroke:none"/>
 <g id="topleft">
  <path id="path4428" d="m 138,42.93887 0,7 -7,0 0,-2 c 0,-2.77 2.23,-5 5,-5 z" style="opacity:0.90;fill:#212121;fill-opacity:1;stroke:none"/>
  <path id="shadow-topleft" d="m 121,49.93909 10,0 0,-2 c 0,-2.77 2.23,-5 5,-5 l 2,0 0,-10 -17,0 z" style="opacity:1;fill:url(#radialGradient4275);fill-opacity:1;stroke:none"/>
 </g>
 <g id="left">
  <path id="path4418" d="m 131.00001,49.93886 0,50 7,10e-6 0,-50 z" style="opacity:0.90;fill:#212121;fill-opacity:1;stroke:none"/>
  <rect id="rect4267" width="50" height="10" x="-99.94" y="-131" transform="matrix(0,-1,-1,0,0,0)" style="opacity:1;fill:url(#linearGradient4271);fill-opacity:1;stroke:none"/>
 </g>
 <rect id="rect4269" width="7" height="1" x="-138" y="51.94" transform="scale(-1,1)" style="fill:#3498db;fill-opacity:0"/>
 <g id="bottomright">
  <path id="path4392" d="m 187.99999,106.93896 0,-7 7,0 0,2 c 0,2.77 -2.23,5 -5,5 z" style="opacity:0.90;fill:#212121;fill-opacity:1;stroke:none"/>
  <path id="shadow-bottomright" d="m 205,99.93909 -10,0 0,2 c 0,2.77 -2.23,5 -5,5 l -2,0 0,10 17,0 z" style="opacity:1;fill:url(#radialGradient3382);fill-opacity:1;stroke:none"/>
 </g>
 <g id="bottom">
  <path id="path4404" d="m 137.99997,106.939 50.00002,0 0,-7 -50.00001,0 z" style="opacity:0.90;fill:#212121;fill-opacity:1;stroke:none"/>
  <rect id="rect3389" width="50" height="10" x="138" y="106.94" style="opacity:1;fill:url(#linearGradient4259);fill-opacity:1;stroke:none"/>
 </g>
 <rect id="rect4241" width="7" height="1" x="99.94" y="-186" transform="matrix(0,1,-1,0,0,0)" style="fill:#3498db;fill-opacity:0"/>
 <g id="right">
  <path id="path4396" d="m 194.99999,49.93887 0,50 -7,1e-5 0,-50 z" style="opacity:0.90;fill:#212121;fill-opacity:1;stroke:none"/>
  <rect id="rect4251" width="50" height="10" x="-99.94" y="195" transform="matrix(0,-1,1,0,0,0)" style="opacity:1;fill:url(#linearGradient4452);fill-opacity:1;stroke:none"/>
 </g>
 <rect id="rect4253" width="7" height="1" x="188" y="51.94" style="fill:#3498db;fill-opacity:0"/>
 <g id="top">
  <path id="path4382" d="m 137.99997,42.93887 50.00002,0 0,7 -50.00001,0 z" style="opacity:0.90;fill:#212121;fill-opacity:1;stroke:none"/>
  <rect id="rect4279" width="50" height="10" x="138" y="-42.94" transform="scale(1,-1)" style="opacity:1;fill:url(#linearGradient4283);fill-opacity:1;stroke:none"/>
 </g>
 <rect id="rect4281" width="7" height="1" x="-49.94" y="-186" transform="matrix(0,-1,-1,0,0,0)" style="fill:#3498db;fill-opacity:0"/>
 <g id="topright">
  <path id="path4378" d="m 187.99999,42.93887 0,7 7,0 0,-2 c 0,-2.77 -2.23,-5 -5,-5 z" style="opacity:0.90;fill:#212121;fill-opacity:1;stroke:none"/>
  <path id="shadow-topright" d="m 188,32.93909 0,10 2,0 c 2.77,0 5,2.23 5,5 l 0,2 10,0 0,-17 z" style="opacity:1;fill:url(#radialGradient4255);fill-opacity:1;stroke:none"/>
 </g>
 <g id="shadow-center" transform="matrix(0.31570315,0,0,0.31570315,-251.27186,5.27591)" style="fill:#000000;fill-opacity:0">
  <path id="path3642" d="m -6.0000004,-7.998957 0,62 62.0000004,0 0,-62 -62.0000004,0 z" style="fill:#000000;fill-opacity:0;stroke:none"/>
 </g>
 <g id="bottomleft">
  <path id="path4414" d="m 138,106.93896 0,-7 -7,0 0,2 c 0,2.77 2.23,5 5,5 z" style="opacity:0.90;fill:#212121;fill-opacity:1;stroke:none"/>
  <path id="shadow-bottomleft" d="m 138,116.93909 0,-10 -2,0 c -2.77,0 -5,-2.23 -5,-5 l 0,-2 -10,0 0,17 z" style="opacity:1;fill:url(#radialGradient4263);fill-opacity:1;stroke:none"/>
 </g>
 <rect id="hint-tile-center" width="5" height="5" x="0" y="-.06" style="opacity:1;fill:#ff6600;fill-opacity:1;stroke:none"/>
 <rect id="hint-top-margin" width="4" height="17" x="160" y="32.94" style="fill:#ff00ff;fill-opacity:1;stroke:none"/>
 <rect id="hint-bottom-margin" width="4" height="17" x="160" y="99.94" style="fill:#ff00ff;fill-opacity:1;stroke:none"/>
 <rect id="hint-right-margin" width="4" height="17" x="71.94" y="-205" transform="matrix(0,1,-1,0,0,0)" style="fill:#ff00ff;fill-opacity:1;stroke:none"/>
 <rect id="hint-left-margin" width="4" height="17" x="71.94" y="-138" transform="matrix(0,1,-1,0,0,0)" style="fill:#ff00ff;fill-opacity:1;stroke:none"/>
</svg>
