<svg xmlns="http://www.w3.org/2000/svg" width="30" height="30" version="1.1">
 <rect id="hint-tile-center" style="fill:#ff2a2a" width="1" height="1" x="0" y="3"/>
 <rect id="hint-bar-size" style="fill:#ff2a2a" width="3" height="3" x="3" y="0"/>
 <path id="bar-inactive-bottomright" style="fill:#2d4c4f" d="m 14,17 0,1 1,0 0,-1 z"/>
 <path id="bar-inactive-right" style="fill:#2d4c4f" d="m 14,15 0,1 1,0 0,-1 -1,0 z"/>
 <path id="bar-inactive-topright" style="fill:#2d4c4f" d="m 14,13 0,1 1,0 0,-1 z"/>
 <path id="bar-inactive-bottomleft" style="fill:#2d4c4f" d="m 10,17 0,1 1,0 0,-1 z"/>
 <path id="bar-inactive-left" style="fill:#2d4c4f" d="m 10,15 0,1 1,0 0,-1 -1,0 z"/>
 <path id="bar-inactive-topleft" style="fill:#2d4c4f" d="m 11,13 -1,0 0,1 1,0 z"/>
 <path id="bar-inactive-bottom" style="fill:#2d4c4f" d="m 12,17 0,1 1,0 0,-1 -1,0 z"/>
 <path id="bar-inactive-center" style="fill:#2d4c4f" d="m 13,15 -1,0 0,1 1,0 0,-1 z"/>
 <path id="bar-inactive-top" style="fill:#2d4c4f" d="m 12,13 0,1 1,0 0,-1 -1,0 z"/>
 <path id="bar-active-bottomright" style="fill:#4285f4" d="m 14,26 0,1 1,0 0,-1 z"/>
 <path id="bar-active-right" style="fill:#4285f4" d="m 14,24 0,1 1,0 0,-1 -1,0 z"/>
 <path id="bar-active-topright" style="fill:#4285f4" d="m 14,22 0,1 1,0 0,-1 z"/>
 <path id="bar-active-bottomleft" style="fill:#4285f4" d="m 10,26 0,1 1,0 0,-1 z"/>
 <path id="bar-active-left" style="fill:#4285f4" d="m 10,24 0,1 1,0 0,-1 -1,0 z"/>
 <path id="bar-active-topleft" style="fill:#4285f4" d="m 11,22 -1,0 0,1 1,0 z"/>
 <path id="bar-active-bottom" style="fill:#4285f4" d="m 12,26 0,1 1,0 0,-1 -1,0 z"/>
 <path id="bar-active-center" style="fill:#4285f4" d="m 13,24 -1,0 0,1 1,0 0,-1 z"/>
 <path id="bar-active-top" style="fill:#4285f4" d="m 12,22 0,1 1,0 0,-1 -1,0 z"/>
 <rect id="hint-stretch-borders" style="fill:#ff2a2a" width="1" height="1" x="0" y="8"/>
 <rect id="hint-bar-stretch" style="fill:#ff2a2a" width="1" height="1" x="0" y="13"/>
</svg>
