<svg xmlns="http://www.w3.org/2000/svg" id="svg2" width="32" height="16" version="1">
 <g id="radiobutton" transform="translate(-97.5,-200)" style="color:#000000;stroke:none">
  <g id="g197" style="line-height:normal;font-family:sans-serif;text-indent:0;text-align:start;text-decoration:none;text-decoration-line:none;text-decoration-style:solid;text-decoration-color:#000000;text-transform:none;white-space:normal;isolation:auto;mix-blend-mode:normal;color-interpolation:sRGB;solid-color:#000000;solid-opacity:1;stroke-width:2;color-rendering:auto;image-rendering:auto;shape-rendering:auto;text-rendering:auto">
   <path id="path1800" d="m 105.5,200 c -4.40644,0 -7.999995,3.59356 -8,8 5e-6,4.40644 3.59356,8 8,8 4.40643,0 8,-3.59357 8,-8 0,-4.40643 -3.59357,-8 -8,-8 z" style="color-interpolation-filters:linearRGB;fill:#009688"/>
   <path id="use3869" d="m 105.5,202 c 3.32567,0 6,2.67433 6,6 0,3.32567 -2.67433,6 -6,6 -3.32568,0 -6,-2.67432 -6,-6 3e-6,-3.32568 2.67432,-6 6,-6 z" style="color-interpolation-filters:linearRGB;fill:#ffffff"/>
  </g>
  <circle id="path6309-3" cx="105.5" cy="208" r="3" style="fill:#009688;stroke-width:1.52900004"/>
 </g>
 <g id="checkbox" transform="translate(-256.5,-200)">
  <rect id="use3879" width="16" height="16" x="272.5" y="-216" rx="2" ry="2" transform="scale(1,-1)" style="color:#000000;fill:#009688;stroke:none"/>
  <path id="path5083" d="m 283.3102,204.1733 -3.6775,4.2767 -1.9271,-1.3649 c -1.36466,-0.96654 -2.67814,1.25767 -1.56052,2.19687 l 3.5781,3.0068 5.5538,-6.5775 c 1.16417,-1.37876 -0.95766,-2.71149 -1.96677,-1.53793 z" style="color:#000000;line-height:normal;font-family:sans-serif;text-indent:0;text-align:start;text-decoration:none;text-decoration-line:none;text-decoration-style:solid;text-decoration-color:#000000;text-transform:none;white-space:normal;isolation:auto;mix-blend-mode:normal;color-interpolation:sRGB;color-interpolation-filters:linearRGB;solid-color:#000000;solid-opacity:1;fill:#fbfbfc;fill-rule:evenodd;stroke:none;stroke-width:3;stroke-linecap:round;color-rendering:auto;image-rendering:auto;shape-rendering:auto;text-rendering:auto"/>
 </g>
</svg>
