<svg xmlns="http://www.w3.org/2000/svg" id="svg2" width="208" height="208" version="1">
 <g id="MinuteHand" transform="rotate(-180,283,77)">
  <rect id="rect913" width="10" height="96" x="278" y="29" style="opacity:0.00100002;fill:#000000;fill-opacity:1;stroke:none;stroke-width:2.24587631;stroke-linecap:round;stroke-linejoin:round;stroke-miterlimit:4;stroke-dasharray:none;stroke-opacity:1"/>
  <path style="opacity:0.05;fill:none;fill-opacity:1;stroke:#000000;stroke-width:2;stroke-linecap:round;stroke-linejoin:round;stroke-miterlimit:4;stroke-dasharray:none;stroke-opacity:1" id="path880" d="m 283,30 c -2.216,0 -4,1.784 -4,4 v 1 41 3 44 c 0,0.554 0.446,1 1,1 h 6 c 0.554,0 1,-0.446 1,-1 V 79 35 34 c 0,-2.216 -1.784,-4 -4,-4 z"/>
  <path id="path882" d="m 283,30 c -2.216,0 -4,1.784 -4,4 v 1 41 3 44 c 0,0.554 0.446,1 1,1 h 6 c 0.554,0 1,-0.446 1,-1 V 79 35 34 c 0,-2.216 -1.784,-4 -4,-4 z" style="opacity:0.05;fill:none;fill-opacity:1;stroke:#000000;stroke-width:1;stroke-linecap:round;stroke-linejoin:round;stroke-miterlimit:4;stroke-dasharray:none;stroke-opacity:1"/>
  <path id="rect861" d="m 283,30 c -2.216,0 -4,1.784 -4,4 v 1 41 3 44 c 0,0.554 0.446,1 1,1 h 6 c 0.554,0 1,-0.446 1,-1 V 79 35 34 c 0,-2.216 -1.784,-4 -4,-4 z" style="opacity:1;fill:#ffffff;fill-opacity:1;stroke:none;stroke-width:3.40760469;stroke-linecap:round;stroke-linejoin:round;stroke-miterlimit:4;stroke-dasharray:none;stroke-opacity:1"/>
 </g>
 <g id="HourHand" transform="matrix(1,0,0,-1,0,198)">
  <rect id="rect841" width="10" height="52" x="250" y="73" style="opacity:0.00100002;fill:#000000;fill-opacity:1;stroke:none;stroke-width:1.51423514;stroke-linecap:round;stroke-linejoin:round;stroke-miterlimit:4;stroke-dasharray:none;stroke-opacity:1"/>
  <path id="path858" d="m 255,74 c -2.216,0 -4,1.784 -4,4 v 1 41 3 c 0,0.554 0.446,1 1,1 h 3 3 c 0.554,0 1,-0.446 1,-1 v -3 -41 -1 c 0,-2.216 -1.784,-4 -4,-4 z" style="opacity:0.05;fill:none;fill-opacity:1;stroke:#000000;stroke-width:2;stroke-linecap:round;stroke-linejoin:round;stroke-miterlimit:4;stroke-dasharray:none;stroke-opacity:1"/>
  <path style="opacity:0.05;fill:none;fill-opacity:1;stroke:#000000;stroke-width:1;stroke-linecap:round;stroke-linejoin:round;stroke-miterlimit:4;stroke-dasharray:none;stroke-opacity:1" id="path856" d="m 255,74 c -2.216,0 -4,1.784 -4,4 v 1 41 3 c 0,0.554 0.446,1 1,1 h 3 3 c 0.554,0 1,-0.446 1,-1 v -3 -41 -1 c 0,-2.216 -1.784,-4 -4,-4 z"/>
  <path id="rect839" d="m 255,74 c -2.216,0 -4,1.784 -4,4 v 1 41 3 c 0,0.554 0.446,1 1,1 h 3 3 c 0.554,0 1,-0.446 1,-1 v -3 -41 -1 c 0,-2.216 -1.784,-4 -4,-4 z" style="opacity:1;fill:#ffffff;fill-opacity:1;stroke:none;stroke-width:2.48525119;stroke-linecap:round;stroke-linejoin:round;stroke-miterlimit:4;stroke-dasharray:none;stroke-opacity:1"/>
 </g>
 <g id="SecondHand">
  <rect id="rect991" width="20" height="100" x="214" y="122" style="opacity:0.00100002;fill:#000000;fill-opacity:1;stroke:none;stroke-width:2.23606825;stroke-linecap:round;stroke-linejoin:round;stroke-miterlimit:4;stroke-dasharray:none;stroke-opacity:1"/>
  <path style="fill:#ff7f2a;fill-opacity:1;stroke:none;stroke-width:1.18447495" id="rect6212" d="m 225,129 v 92.99916 c 0,0 0,4.2e-4 -1,4.2e-4 -1,0 -1,4.2e-4 -1,4.2e-4 v -92.99973 z"/>
  <circle style="opacity:0.05;fill:none;fill-opacity:1;stroke:#000000;stroke-width:1;stroke-linecap:round;stroke-linejoin:round;stroke-miterlimit:4;stroke-dasharray:none;stroke-opacity:1" id="circle987" cx="224" cy="132" r="9"/>
  <circle id="circle989" cx="224" cy="132" r="9" style="opacity:0.05;fill:none;fill-opacity:1;stroke:#000000;stroke-width:2;stroke-linecap:round;stroke-linejoin:round;stroke-miterlimit:4;stroke-dasharray:none;stroke-opacity:1"/>
  <circle id="path967" cx="224" cy="132" r="9" style="opacity:1;fill:#ffffff;fill-opacity:1;stroke:none;stroke-width:1.95237434;stroke-linecap:round;stroke-linejoin:round;stroke-miterlimit:4;stroke-dasharray:none;stroke-opacity:1"/>
 </g>
 <rect id="rect860" width="10" height="52" x="318.3" y="72.59" style="opacity:0.00100002;fill:#000000;fill-opacity:1;stroke:none;stroke-width:1.51423514;stroke-linecap:round;stroke-linejoin:round;stroke-miterlimit:4;stroke-dasharray:none;stroke-opacity:1"/>
 <g id="ClockFace">
  <rect id="rect4224" width="180" height="180" x="-202" y="-194" rx="90" ry="90" transform="matrix(0,-1,-1,0,0,0)" style="opacity:0.02000002;fill:#000000;fill-opacity:1"/>
  <rect id="rect4226" width="180" height="180" x="-201" y="-194" rx="90" ry="90" transform="matrix(0,-1,-1,0,0,0)" style="opacity:0.02000002;fill:#000000;fill-opacity:1"/>
  <rect id="rect4228" width="180" height="180" x="-200" y="-194" rx="90" ry="90" transform="matrix(0,-1,-1,0,0,0)" style="opacity:0.02000002;fill:#000000;fill-opacity:1"/>
  <rect id="rect4230" width="180" height="180" x="-199" y="-194" rx="90" ry="90" transform="matrix(0,-1,-1,0,0,0)" style="opacity:0.02000002;fill:#000000;fill-opacity:1"/>
  <rect id="rect4217" width="208" height="208" x="0" y="0" style="opacity:0.00100002;fill:#000000;fill-opacity:1;fill-rule:nonzero;stroke:none;stroke-width:2;stroke-linecap:round;stroke-linejoin:round;stroke-miterlimit:4;stroke-dasharray:none;stroke-opacity:1"/>
  <rect id="rect4197" width="180" height="180" x="-198" y="-194" rx="90" ry="90" transform="matrix(0,-1,-1,0,0,0)" style="opacity:0.02000002;fill:#000000;fill-opacity:1"/>
  <rect id="rect4199" width="180" height="180" x="-197" y="-194" rx="90" ry="90" transform="matrix(0,-1,-1,0,0,0)" style="opacity:0.02000002;fill:#000000;fill-opacity:1"/>
  <rect id="rect4201" width="180" height="180" x="-196" y="-194" rx="90" ry="90" transform="matrix(0,-1,-1,0,0,0)" style="opacity:0.02000002;fill:#000000;fill-opacity:1"/>
  <rect id="rect4203" width="180" height="180" x="-195" y="-194" rx="90" ry="90" transform="matrix(0,-1,-1,0,0,0)" style="opacity:0.02000002;fill:#000000;fill-opacity:1"/>
  <rect id="rect4" width="180" height="180" x="-194" y="-194" rx="90" ry="90" transform="matrix(0,-1,-1,0,0,0)" style="fill:#383838;fill-opacity:1;opacity:0.95"/>
  <rect style="fill:#009688;fill-opacity:1;stroke-width:0.83333331" id="rect932" width="150" height="150" x="-179" y="-179" rx="75" ry="75" transform="matrix(0,-1,-1,0,0,0)"/>
  <path style="font-style:normal;font-variant:normal;font-weight:normal;font-stretch:normal;font-size:24px;line-height:1.25;font-family:'Noto Sans Mono CJK KR';-inkscape-font-specification:'Noto Sans Mono CJK KR';letter-spacing:0px;word-spacing:0px;opacity:0.5;fill:#ffffff;fill-opacity:1;stroke:none;stroke-width:1.04268873" id="path859" d="M 97.396484,36 C 96.452552,36.605042 95.564942,37.259618 94,37.511719 V 39 h 3 v 13 h -4 v 2 h 10 V 52 H 99 V 36 Z m 12.064456,0 c -2.02488,0 -3.11617,1.039143 -4.38477,2.574219 l 1.3418,1.263672 C 107.19864,38.748482 107.97356,38 109.19336,38 110.97428,38 112,39.267994 112,41.199219 c 0,3.09491 -2.5843,6.31359 -7,11.488281 V 54 h 10 v -2 h -6.5 c 3.53744,-4.431912 5.49805,-7.557255 5.49805,-10.875 0,-3.09491 -1.73155,-5.125 -4.53711,-5.125 z M 73.90625,49.039062 A 4,4 0 0 0 72,49.574219 4,4 0 0 0 70.535156,55.039062 4,4 0 0 0 76,56.501953 a 4,4 0 0 0 1.464844,-5.462891 4,4 0 0 0 -3.558594,-2 z m 60.1875,0 a 4,4 0 0 0 -3.55859,2 A 4,4 0 0 0 132,56.501953 4,4 0 0 0 137.46484,55.039062 4,4 0 0 0 136,49.574219 4,4 0 0 0 134.09375,49.039062 Z M 51.849609,71.003906 A 4,4 0 0 0 48.574219,73 4,4 0 0 0 50.039062,78.464844 4,4 0 0 0 55.501953,77 4,4 0 0 0 54.039062,71.535156 4,4 0 0 0 51.849609,71.003906 Z m 104.300781,0 a 4,4 0 0 0 -2.18945,0.53125 A 4,4 0 0 0 152.49805,77 4,4 0 0 0 157.96094,78.464844 4,4 0 0 0 159.42578,73 4,4 0 0 0 156.15039,71.003906 Z M 40.644531,95 C 38.131841,95 36,97.19564 36,100.53711 c 0,3.56097 1.750961,5.39062 4.212891,5.39062 1.34518,0 2.588274,-0.78044 3.552734,-1.95117 -0.1269,5.36585 -1.852289,7.14453 -3.730469,7.14453 -0.96447,0 -1.902578,-0.48618 -2.511718,-1.33984 l -1.294922,1.38867 C 37.091466,112.2187 38.385427,113 40.060547,113 43.258517,113 46,110.3408 46,103.31641 46,97.85299 43.614081,95 40.644531,95 Z m 126.367189,0 c -1.75308,0 -3.25817,0.90163 -4.44336,2.169922 l 1.25976,1.390625 c 0.86421,-1.04878 1.9006,-1.730469 3.01172,-1.730469 1.53087,0 2.51758,0.999713 2.51758,2.707031 0,1.780481 -1.13469,3.292971 -4.09765,3.292971 v 1.70703 c 3.28396,0 4.54296,1.33999 4.54296,3.48633 0,1.97561 -1.33395,3.09765 -2.98828,3.09765 -1.55555,0 -2.7647,-0.87805 -3.6289,-2 L 162,110.56055 c 0.98765,1.26833 2.64275,2.43945 5.0625,2.43945 2.74074,0 4.9375,-1.82913 4.9375,-4.85352 0,-2.46341 -1.48115,-4.02391 -3.16016,-4.51171 v -0.0977 c 1.58024,-0.68293 2.69141,-2.04997 2.69141,-4.220704 C 171.53125,96.584739 169.70309,95 167.01172,95 Z M 40.695312,96.78125 c 1.725881,0 2.841882,1.853091 3.044922,5.41406 -1.01523,1.5122 -2.156611,2.02344 -3.044922,2.02344 -1.59899,0 -2.486328,-1.26701 -2.486328,-3.68164 0,-2.292689 1.014238,-3.75586 2.486328,-3.75586 z m 11.53125,34.22266 a 4,4 0 0 0 -2.1875,0.53125 A 4,4 0 0 0 48.574219,137 4,4 0 0 0 54.039062,138.46484 4,4 0 0 0 55.501953,133 4,4 0 0 0 52.226562,131.00391 Z m 103.546878,0 A 4,4 0 0 0 152.49805,133 a 4,4 0 0 0 1.46289,5.46484 4,4 0 0 0 5.46484,-1.46484 4,4 0 0 0 -1.46484,-5.46484 4,4 0 0 0 -2.1875,-0.53125 z M 74.09375,152.96289 A 4,4 0 0 0 70.535156,154.96094 4,4 0 0 0 72,160.42578 4,4 0 0 0 77.464844,158.96094 4,4 0 0 0 76,153.49805 4,4 0 0 0 74.09375,152.96289 Z m 59.8125,0 A 4,4 0 0 0 132,153.49805 a 4,4 0 0 0 -1.46484,5.46289 4,4 0 0 0 5.46484,1.46484 4,4 0 0 0 1.46484,-5.46484 4,4 0 0 0 -3.55859,-1.99805 z M 104.93945,154 C 101.74148,154 99,156.63481 99,163.68359 99,169.147 101.38593,172 104.35547,172 106.86816,172 109,169.80436 109,166.46289 c 0,-3.56097 -1.75096,-5.39062 -4.21289,-5.39062 -1.34518,0 -2.58826,0.78044 -3.55273,1.95117 0.1269,-5.36585 1.85229,-7.14453 3.73046,-7.14453 0.96447,0 1.90258,0.48618 2.51172,1.33984 l 1.29492,-1.41406 C 107.90853,154.7803 106.61458,154 104.93945,154 Z m -0.63476,8.78125 c 1.59899,0 2.48633,1.26701 2.48633,3.68164 0,2.2683 -1.01425,3.75586 -2.48633,3.75586 -1.72588,0 -2.84188,-1.85309 -3.04492,-5.41406 1.01524,-1.5122 2.1566,-2.02344 3.04492,-2.02344 z"/>
  <path id="path902" d="M 109.19336 38 C 107.97356 38 107.19864 38.748482 106.41797 39.837891 L 105.56055 39.03125 C 105.40005 39.211972 105.24019 39.375742 105.07617 39.574219 L 106.41797 40.837891 C 107.19864 39.748482 107.97356 39 109.19336 39 C 110.83718 39 111.82642 40.088445 111.9707 41.773438 C 111.99018 41.581225 112 41.390061 112 41.199219 C 112 39.267994 110.97428 38 109.19336 38 z M 94 39 L 94 40 L 97 40 L 97 39 L 94 39 z M 113.96094 41.619141 C 113.77599 44.756685 111.86097 47.789175 108.5 52 L 109.28125 52 C 112.31399 48.093118 113.99805 45.184052 113.99805 42.125 C 113.99805 41.948581 113.97207 41.788461 113.96094 41.619141 z M 130.03516 53.525391 A 4 4 0 0 0 132 57.501953 A 4 4 0 0 0 137.46484 56.039062 A 4 4 0 0 0 137.9668 53.556641 A 4 4 0 0 1 137.46484 55.039062 A 4 4 0 0 1 132 56.501953 A 4 4 0 0 1 130.03516 53.525391 z M 70.033203 53.541016 A 4 4 0 0 0 70.535156 56.039062 A 4 4 0 0 0 76 57.501953 A 4 4 0 0 0 77.964844 53.544922 A 4 4 0 0 1 76 56.501953 A 4 4 0 0 1 70.535156 55.039062 A 4 4 0 0 1 70.033203 53.541016 z M 93 54 L 93 55 L 103 55 L 103 54 L 93 54 z M 105 54 L 105 55 L 115 55 L 115 54 L 105 54 z M 48.072266 75.482422 A 4 4 0 0 0 50.039062 79.464844 A 4 4 0 0 0 55.501953 78 A 4 4 0 0 0 56.003906 75.515625 A 4 4 0 0 1 55.501953 77 A 4 4 0 0 1 50.039062 78.464844 A 4 4 0 0 1 48.072266 75.482422 z M 151.99609 75.496094 A 4 4 0 0 0 152.49805 78 A 4 4 0 0 0 157.96094 79.464844 A 4 4 0 0 0 159.92773 75.498047 A 4 4 0 0 1 157.96094 78.464844 A 4 4 0 0 1 152.49805 77 A 4 4 0 0 1 151.99609 75.496094 z M 40.695312 96.78125 C 39.223222 96.78125 38.208984 98.24442 38.208984 100.53711 C 38.208984 100.72955 38.223192 100.90228 38.234375 101.08008 C 38.363284 99.057387 39.325734 97.78125 40.695312 97.78125 C 42.268873 97.78125 43.326355 99.337794 43.65625 102.30859 C 43.683993 102.269 43.71267 102.23637 43.740234 102.19531 C 43.537194 98.634343 42.421194 96.78125 40.695312 96.78125 z M 166.83984 96.830078 C 165.72872 96.830078 164.69234 97.511767 163.82812 98.560547 L 163.04492 97.697266 C 162.88077 97.848126 162.72193 98.005585 162.56836 98.169922 L 163.82812 99.560547 C 164.69234 98.511767 165.72872 97.830078 166.83984 97.830078 C 168.20336 97.830078 169.13092 98.626096 169.31836 100.00586 C 169.33717 99.851168 169.35742 99.697026 169.35742 99.537109 C 169.35742 97.82979 168.37071 96.830078 166.83984 96.830078 z M 171.49414 99.886719 C 171.31393 101.7254 170.27516 102.91681 168.83984 103.53711 L 168.83984 103.63477 C 169.15 103.72488 169.44776 103.86314 169.73633 104.02539 C 170.82115 103.25568 171.53125 102.04483 171.53125 100.31641 C 171.53125 100.16526 171.50517 100.03077 171.49414 99.886719 z M 36.025391 100.92969 C 36.009467 101.12751 36 101.33026 36 101.53711 C 36 105.09808 37.750961 106.92773 40.212891 106.92773 C 41.527986 106.92773 42.742277 106.17612 43.697266 105.04883 C 43.722741 104.69666 43.75642 104.3658 43.765625 103.97656 C 42.801165 105.14729 41.558071 105.92773 40.212891 105.92773 C 37.847315 105.92773 36.155553 104.22093 36.025391 100.92969 z M 45.986328 103.84375 C 45.848766 110.46489 43.175234 113 40.060547 113 C 38.664065 113 37.537013 112.45235 36.699219 111.66406 L 36.228516 112.16992 C 37.091466 113.2187 38.385427 114 40.060547 114 C 43.258517 114 46 111.3408 46 104.31641 C 46 104.15405 45.990495 104.00149 45.986328 103.84375 z M 165.25977 104.53711 L 165.25977 105.53711 C 168.26414 105.53711 169.56051 106.6675 169.76172 108.50195 C 169.7805 108.34602 169.80273 108.19196 169.80273 108.02344 C 169.80273 105.8771 168.54373 104.53711 165.25977 104.53711 z M 171.96875 108.73828 C 171.70042 111.40707 169.61915 113 167.0625 113 C 164.95817 113 163.43354 112.11392 162.42188 111.04883 L 162 111.56055 C 162.98765 112.82888 164.64275 114 167.0625 114 C 169.80324 114 172 112.17087 172 109.14648 C 172 109.00377 171.97844 108.8749 171.96875 108.73828 z M 151.99609 135.48438 A 4 4 0 0 0 153.96094 139.46484 A 4 4 0 0 0 159.42578 138 A 4 4 0 0 0 159.92773 135.51758 A 4 4 0 0 1 159.42578 137 A 4 4 0 0 1 153.96094 138.46484 A 4 4 0 0 1 151.99609 135.48438 z M 48.072266 135.50195 A 4 4 0 0 0 48.574219 138 A 4 4 0 0 0 54.039062 139.46484 A 4 4 0 0 0 56.003906 135.50391 A 4 4 0 0 1 54.039062 138.46484 A 4 4 0 0 1 48.574219 137 A 4 4 0 0 1 48.072266 135.50195 z M 104.96484 155.87891 C 103.08667 155.87891 101.36128 157.65759 101.23438 163.02344 C 101.25594 162.99725 101.28089 162.97696 101.30273 162.95117 C 101.62846 158.4484 103.22291 156.87891 104.96484 156.87891 C 105.92931 156.87891 106.86742 157.36509 107.47656 158.21875 L 108.77148 156.80469 C 108.62767 156.63397 108.46831 156.47304 108.30078 156.31836 L 107.47656 157.21875 C 106.86742 156.36509 105.92931 155.87891 104.96484 155.87891 z M 70.033203 157.44336 A 4 4 0 0 0 72 161.42578 A 4 4 0 0 0 77.464844 159.96094 A 4 4 0 0 0 77.964844 157.47461 A 4 4 0 0 1 77.464844 158.96094 A 4 4 0 0 1 72 160.42578 A 4 4 0 0 1 70.033203 157.44336 z M 130.03516 157.45508 A 4 4 0 0 0 130.53516 159.96094 A 4 4 0 0 0 136 161.42578 A 4 4 0 0 0 137.9668 157.45898 A 4 4 0 0 1 136 160.42578 A 4 4 0 0 1 130.53516 158.96094 A 4 4 0 0 1 130.03516 157.45508 z M 104.30469 162.78125 C 103.41637 162.78125 102.27501 163.29249 101.25977 164.80469 C 101.27769 165.11897 101.31182 165.40383 101.34375 165.69141 C 102.33782 164.27279 103.44049 163.78125 104.30469 163.78125 C 105.77579 163.78125 106.63607 164.86607 106.76562 166.91797 C 106.77538 166.76707 106.79102 166.62168 106.79102 166.46289 C 106.79102 164.04826 105.90368 162.78125 104.30469 162.78125 z M 99.013672 164.15625 C 99.010016 164.33333 99 164.50059 99 164.68359 C 99 170.147 101.38593 173 104.35547 173 C 106.86816 173 109 170.80436 109 167.46289 C 109 167.32559 108.97976 167.20831 108.97461 167.07617 C 108.7312 170.07068 106.71112 172 104.35547 172 C 101.47417 172 99.149716 169.30657 99.013672 164.15625 z" style="font-style:normal;font-variant:normal;font-weight:normal;font-stretch:normal;font-size:24px;line-height:1.25;font-family:'Noto Sans Mono CJK KR';-inkscape-font-specification:'Noto Sans Mono CJK KR';letter-spacing:0px;word-spacing:0px;opacity:0.2;fill:#000000;fill-opacity:1;stroke:none;stroke-width:1.04268873"/>
 </g>
</svg>
