<svg xmlns="http://www.w3.org/2000/svg" id="svg59" width="172" height="172" version="1">
 <g id="SecondHand">
  <rect id="rect8" style="opacity:0.001" width="22" height="96" x="233" y="76"/>
  <path id="path10" style="fill:#ff9800" d="m 245,83 v 78.99958 c 0,0 0,4.2e-4 -1,4.2e-4 -1,0 -1,4.2e-4 -1,4.2e-4 V 83.00027 Z"/>
  <circle id="circle848" style="fill:none;stroke-width:2;stroke:#000000;stroke-opacity:1;stroke-miterlimit:4;stroke-dasharray:none;opacity:0.05" cx="244" cy="87" r="10"/>
  <circle id="circle846" style="fill:none;stroke-width:1;stroke:#000000;stroke-opacity:1;stroke-miterlimit:4;stroke-dasharray:none;opacity:0.05" cx="244" cy="87" r="10"/>
  <circle id="circle16" style="fill:#4f4f4f;stroke-width:1.11111116" cx="244" cy="87" r="10"/>
 </g>
 <g id="MinuteHand" transform="translate(-35,-36)">
  <rect id="rect52" style="opacity:0.05;fill:none;stroke:#000000;stroke-width:2;stroke-linecap:round;stroke-linejoin:bevel" width="6" height="94" x="241" y="113" rx="3" ry="3"/>
  <rect id="rect54" style="opacity:0.05;fill:none;stroke:#000000;stroke-linecap:round;stroke-linejoin:bevel" width="6" height="94" x="241" y="113" rx="3" ry="3"/>
  <rect id="rect56" style="fill:#dfdfdf" width="6" height="94" x="241" y="113" rx="3" ry="3"/>
 </g>
 <g id="HourHand">
  <rect id="rect872" style="opacity:0.001" width="10" height="96" x="176" y="76"/>
  <path id="path917" style="fill:none;stroke:#000000;stroke-opacity:1;opacity:0.05" d="m 181.00002,76.999998 c -2.20914,0 -4,1.79086 -4,4 V 127 v 1 c 0,2.216 1.784,4 4,4 2.216,0 4,-1.784 4,-4 v -1 -46.000002 c 0,-2.20914 -1.79086,-4 -4,-4 z"/>
  <path id="path919" style="fill:none;stroke:#000000;stroke-opacity:1;opacity:0.05;stroke-width:2;stroke-miterlimit:4;stroke-dasharray:none" d="m 181.00002,76.999998 c -2.20914,0 -4,1.79086 -4,4 V 127 v 1 c 0,2.216 1.784,4 4,4 2.216,0 4,-1.784 4,-4 v -1 -46.000002 c 0,-2.20914 -1.79086,-4 -4,-4 z"/>
  <path id="HourHand2" style="fill:#dfdfdf" d="m 181.00002,76.999998 c -2.20914,0 -4,1.79086 -4,4 V 127 v 1 c 0,2.216 1.784,4 4,4 2.216,0 4,-1.784 4,-4 v -1 -46.000002 c 0,-2.20914 -1.79086,-4 -4,-4 z"/>
 </g>
 <g id="ClockFace">
  <rect id="rect19" style="opacity:0.001" width="172" height="172" x="0" y="0"/>
  <path id="rect21" style="opacity:0.03" d="m 86,11 c 41.55,0 75,33.45 75,75 0,41.55 -33.45,75 -75,75 C 44.45,161 11,127.55 11,86 11,44.45 44.45,11 86,11 Z m 0,0 C 43.342,11 9,45.342 9,88 c 0,42.658 34.342,77 77,77 42.658,0 77,-34.342 77,-77 0,-42.658 -34.342,-77 -77,-77 z"/>
  <path id="rect23" style="opacity:0.03" d="M 35.357422,30.595703 C 19.490995,44.592954 9.5,65.081272 9.5,88 c 0,42.381 34.119,76.5 76.5,76.5 42.381,0 76.5,-34.119 76.5,-76.5 0,-22.918728 -9.991,-43.407046 -25.85742,-57.404297 C 151.62511,44.290392 161,64.008401 161,86 161,127.55 127.55,161 86,161 44.45,161 11,127.55 11,86 11,64.008401 20.374889,44.290392 35.357422,30.595703 Z"/>
  <path id="rect25" style="opacity:0.03" d="M 21.027344,48.447266 C 14.027531,59.956171 10,73.490124 10,88 c 0,42.104 33.896,76 76,76 42.104,0 76,-33.896 76,-76 C 162,73.490124 157.97247,59.956171 150.97266,48.447266 157.3425,59.480709 161,72.293788 161,86 161,127.55 127.55,161 86,161 44.45,161 11,127.55 11,86 11,72.293788 14.657502,59.480709 21.027344,48.447266 Z"/>
  <path id="rect27" style="opacity:0.03" d="M 13.154297,68.076172 C 11.43422,74.421081 10.5,81.09602 10.5,88 c 0,41.827 33.673,75.5 75.5,75.5 41.827,0 75.5,-33.673 75.5,-75.5 0,-6.90398 -0.93422,-13.578919 -2.6543,-19.923828 C 160.24393,73.817535 161,79.816253 161,86 c 0,41.55 -33.45,75 -75,75 -41.55,0 -75,-33.45 -75,-75 0,-6.183747 0.756068,-12.182465 2.154297,-17.923828 z"/>
  <path id="rect29" style="opacity:0.03" d="M 15.230469,61.070312 C 12.176051,69.290099 10.5,78.191152 10.5,87.5 c 0,41.827 33.673,75.5 75.5,75.5 41.827,0 75.5,-33.673 75.5,-75.5 0,-9.308848 -1.67605,-18.209901 -4.73047,-26.429688 C 159.49994,68.865475 161,77.249537 161,86 c 0,41.55 -33.45,75 -75,75 -41.55,0 -75,-33.45 -75,-75 0,-8.750463 1.500061,-17.134525 4.230469,-24.929688 z"/>
  <path id="rect31" style="opacity:0.03" d="M 21.427734,47.75 C 14.490093,59.173893 10.5,72.603657 10.5,87 c 0,41.827 33.673,75.5 75.5,75.5 41.827,0 75.5,-33.673 75.5,-75.5 0,-14.396343 -3.99009,-27.826107 -10.92773,-39.25 C 157.19294,58.938167 161,72.005488 161,86 161,127.55 127.55,161 86,161 44.45,161 11,127.55 11,86 11,72.005488 14.807058,58.938167 21.427734,47.75 Z"/>
  <path id="rect33" style="opacity:0.03" d="M 82.103516,11.097656 C 42.101451,13.112309 10.5,45.980094 10.5,86.5 10.5,128.327 44.173,162 86,162 127.827,162 161.5,128.327 161.5,86.5 161.5,45.971582 129.88509,13.099766 89.871094,11.097656 129.60824,13.098967 161,45.748438 161,86 c 0,41.55 -33.45,75 -75,75 -41.55,0 -75,-33.45 -75,-75 0,-40.251562 31.391756,-72.901033 71.128906,-74.902344 -0.0084,4.21e-4 -0.01699,-4.23e-4 -0.02539,0 z"/>
  <path id="rect35" style="opacity:0.03" d="m 86,10.5 c -41.827,0 -75.5,33.673 -75.5,75.5 0,41.827 33.673,75.5 75.5,75.5 41.827,0 75.5,-33.673 75.5,-75.5 0,-41.827 -33.673,-75.5 -75.5,-75.5 z m 0,0.5 c 41.55,0 75,33.45 75,75 0,41.55 -33.45,75 -75,75 C 44.45,161 11,127.55 11,86 11,44.45 44.45,11 86,11 Z"/>
  <rect id="rect37" style="opacity:0.95;fill:#383838" width="150" height="150" x="-161" y="-161" rx="75" ry="75" transform="matrix(0,-1,-1,0,0,0)"/>
  <path id="path1272" style="opacity:0.2;fill:#000000" d="m 91.415547,20 c -0.825046,0 -1.533952,0.09764 -2.126954,0.291016 -0.58011,0.180478 -1.095677,0.424982 -1.546874,0.734375 -0.451198,0.296501 -0.86912,0.61209 -1.25586,0.947265 l 1.585938,1.875 c 0.554327,-0.451197 1.083175,-0.798033 1.585937,-1.042968 0.502763,-0.244936 1.01833,-0.369141 1.546875,-0.369141 0.515654,0 0.920296,0.135532 1.216797,0.40625 0.309392,0.270718 0.464844,0.683953 0.464844,1.238281 0,0.451197 -0.09765,0.875759 -0.291016,1.275391 -0.19337,0.38674 -0.50232,0.826535 -0.927734,1.316406 -0.425415,0.47698 -0.985508,1.07496 -1.681641,1.796875 l -3.460937,3.5 V 34 h 9.648437 v -2.455078 h -6.013672 v -0.136719 l 1.779297,-1.662109 c 0.812155,-0.747698 1.50114,-1.431997 2.068359,-2.050782 0.580111,-0.618784 1.017953,-1.243324 1.314454,-1.875 0.309392,-0.631675 0.464843,-1.327301 0.464843,-2.08789 0,-0.709024 -0.180058,-1.340204 -0.541015,-1.894531 -0.348067,-0.56722 -0.850354,-1.013654 -1.507813,-1.335938 C 93.093245,20.166778 92.317941,20 91.415547,20 Z m -11.142578,0.193359 -4.447266,3.539063 1.412109,1.759766 1.585938,-1.277344 c 0.180479,-0.154696 0.373816,-0.328114 0.580078,-0.521485 0.219153,-0.206261 0.359371,-0.348433 0.423828,-0.425781 -0.02578,0.412523 -0.04375,0.896844 -0.05664,1.451172 -0.01289,0.541436 -0.01953,0.972638 -0.01953,1.294922 V 34 h 2.919922 V 20.193359 Z m -28.832032,7.84375 -4.509765,3.589844 1.43164,1.783203 1.607422,-1.292968 c 0.183007,-0.156863 0.37874,-0.333219 0.587891,-0.529297 0.222222,-0.209151 0.366281,-0.35321 0.43164,-0.431641 -0.02614,0.418301 -0.04552,0.908612 -0.05859,1.470703 -0.01307,0.54902 -0.01953,0.985703 -0.01953,1.3125 v 8.097656 h 2.960938 v -14 z m 11.220703,0 -4.509765,3.589844 1.43164,1.783203 1.607422,-1.292968 c 0.183007,-0.156863 0.378741,-0.333219 0.587891,-0.529297 0.222222,-0.209151 0.366281,-0.35321 0.431641,-0.431641 -0.02614,0.418301 -0.04552,0.908612 -0.05859,1.470703 -0.01307,0.54902 -0.01953,0.985703 -0.01953,1.3125 v 8.097656 h 2.960938 v -14 z m 54.36328,0.09766 -4.44727,3.539062 1.41211,1.759766 1.58399,-1.277344 c 0.18048,-0.154697 0.37382,-0.328114 0.58008,-0.521484 0.21914,-0.206262 0.36131,-0.348434 0.42578,-0.425782 -0.0258,0.412523 -0.0438,0.896844 -0.0566,1.451172 -0.0129,0.541437 -0.0195,0.972639 -0.0195,1.294922 v 7.986328 h 2.91992 V 28.134766 Z M 39.202656,50 c -1.155556,0 -2.082837,0.27916 -2.78125,0.837891 -0.698413,0.55873 -1.199144,1.365953 -1.503906,2.419921 -0.304762,1.04127 -0.457031,2.291636 -0.457031,3.751954 0,2.196825 0.380673,3.910832 1.142578,5.142578 C 36.364951,63.38409 37.564561,64 39.202656,64 c 1.155556,0 2.082837,-0.27916 2.78125,-0.837891 0.698413,-0.55873 1.199144,-1.35912 1.503906,-2.40039 0.317461,-1.04127 0.476563,-2.291636 0.476563,-3.751953 0,-2.209524 -0.387506,-3.930364 -1.16211,-5.16211 C 42.027662,50.61591 40.828053,50 39.202656,50 Z m 98.845704,0 c -0.82505,0 -1.53395,0.09569 -2.12695,0.289062 -0.58011,0.180479 -1.09568,0.426936 -1.54688,0.736329 -0.45119,0.2965 -0.87107,0.61209 -1.25781,0.947265 l 1.58593,1.875 c 0.55433,-0.451196 1.08318,-0.799986 1.58594,-1.044922 0.50276,-0.244935 1.01833,-0.367187 1.54688,-0.367187 0.51565,0 0.92225,0.135532 1.21875,0.40625 0.30939,0.270719 0.46289,0.683954 0.46289,1.238281 0,0.451197 -0.0957,0.875759 -0.28906,1.275391 -0.19337,0.38674 -0.50233,0.826535 -0.92774,1.316406 -0.42541,0.476979 -0.98746,1.07496 -1.68359,1.796875 l -3.46094,3.5 V 64 h 9.64844 v -2.455078 h -6.01367 v -0.136719 l 1.77929,-1.662109 c 0.81216,-0.747698 1.5031,-1.431998 2.07031,-2.050782 0.58011,-0.618784 1.01796,-1.243323 1.31446,-1.875 0.30939,-0.631675 0.46289,-1.327301 0.46289,-2.08789 0,-0.709024 -0.18006,-1.342157 -0.54102,-1.896484 -0.34806,-0.56722 -0.85035,-1.011701 -1.50781,-1.333985 C 139.7241,50.166778 138.95075,50 138.04836,50 Z m -109.669923,0.208984 -4.380859,3.486328 1.390625,1.732422 1.5625,-1.255859 c 0.177778,-0.152381 0.367138,-0.325149 0.570312,-0.515625 0.215873,-0.203175 0.35643,-0.341778 0.419922,-0.417969 -0.0254,0.406349 -0.0459,0.881703 -0.05859,1.427735 -0.0127,0.533333 -0.01758,0.959883 -0.01758,1.277343 v 7.865235 h 2.875 v -13.59961 z m 10.824219,2.115235 c 0.711111,0 1.206963,0.392386 1.486328,1.179687 0.279365,0.787302 0.417969,1.956653 0.417969,3.50586 0,1.561904 -0.138604,2.729303 -0.417969,3.503906 -0.279365,0.774603 -0.775217,1.162109 -1.486328,1.162109 -0.72381,0 -1.219661,-0.387506 -1.486328,-1.162109 -0.266667,-0.787302 -0.400391,-1.9547 -0.400391,-3.503906 0,-1.549207 0.133724,-2.718558 0.400391,-3.50586 0.266667,-0.787301 0.762518,-1.179687 1.486328,-1.179687 z M 25.626484,80 c -1.428053,0 -2.56277,0.422142 -3.404297,1.263672 -0.82878,0.84153 -1.242187,2.001416 -1.242187,3.480469 0,1.377049 0.349508,2.441082 1.050781,3.193359 0.70128,0.752277 1.632682,1.128906 2.792969,1.128906 0.867033,0 1.517658,-0.152973 1.951172,-0.458984 0.446266,-0.306011 0.802552,-0.68264 1.070312,-1.128906 h 0.115235 c -0.03825,0.84153 -0.18444,1.588008 -0.439454,2.238281 -0.255006,0.637523 -0.695539,1.135175 -1.320312,1.492187 -0.61202,0.357013 -1.484347,0.535157 -2.619141,0.535157 -0.280506,0 -0.561283,-0.02034 -0.841797,-0.05859 -0.280506,-0.03825 -0.549674,-0.08181 -0.804687,-0.132813 v 2.314454 c 0.24226,0.051 0.543377,0.08295 0.900391,0.0957 0.357013,0.0255 0.667786,0.03711 0.935546,0.03711 1.134794,0 2.098146,-0.146192 2.888672,-0.439453 0.80328,-0.306011 1.46069,-0.721372 1.970703,-1.244141 0.522774,-0.535519 0.924572,-1.140632 1.205079,-1.816406 0.29326,-0.688525 0.496574,-1.41466 0.611328,-2.179688 0.114753,-0.777778 0.171875,-1.556207 0.171875,-2.333984 0,-1.364299 -0.223662,-2.485453 -0.669922,-3.365234 -0.446267,-0.892534 -1.044595,-1.54994 -1.796875,-1.970705 C 27.399601,80.216875 26.557271,80 25.626484,80 Z m 120.124996,0 c -0.99182,0 -1.84942,0.126546 -2.57422,0.380859 -0.71208,0.254315 -1.33508,0.571654 -1.86914,0.953125 l 1.33399,1.984375 c 0.31789,-0.203451 0.71993,-0.419554 1.20312,-0.648437 0.4832,-0.228883 1.04877,-0.34375 1.69727,-0.34375 0.69937,0 1.19387,0.140176 1.48633,0.419922 0.30517,0.26703 0.45898,0.641802 0.45898,1.125 0,0.35604 -0.0828,0.675333 -0.24805,0.955078 -0.15259,0.26703 -0.45143,0.483133 -0.89648,0.648437 -0.43233,0.152589 -1.06896,0.228516 -1.9082,0.228516 h -1.04883 v 2.212891 h 1.03125 c 0.85195,0 1.51194,0.06911 1.98242,0.208984 0.4832,0.127157 0.82099,0.324767 1.01172,0.591797 0.19073,0.26703 0.28516,0.584369 0.28516,0.953125 0,0.648501 -0.2093,1.151772 -0.62891,1.507812 -0.40691,0.35604 -1.12432,0.533203 -2.1543,0.533204 -0.55949,0 -1.15719,-0.07593 -1.79297,-0.228516 -0.63578,-0.152589 -1.2471,-0.375508 -1.83203,-0.667969 v 2.441406 C 142.43301,93.751772 143.74325,94 145.21828,94 c 1.27157,0 2.30829,-0.179116 3.10937,-0.535156 0.81381,-0.368756 1.4115,-0.863258 1.79297,-1.486328 0.39419,-0.635786 0.58985,-1.348345 0.58985,-2.136719 0,-0.8901 -0.28522,-1.602659 -0.85742,-2.136719 -0.57221,-0.53406 -1.39963,-0.869893 -2.48047,-1.009766 v -0.05859 c 0.82652,-0.203452 1.52058,-0.58504 2.08007,-1.144531 0.57221,-0.559492 0.85743,-1.309038 0.85743,-2.25 0,-1.029973 -0.41372,-1.825275 -1.24024,-2.384766 C 148.25604,80.285215 147.15021,80 145.75148,80 Z M 25.685078,82.314453 c 0.459013,0 0.840471,0.134585 1.146484,0.402344 0.306014,0.255009 0.536453,0.586126 0.689453,0.994141 0.153007,0.408014 0.228516,0.821422 0.228516,1.242187 0,0.306011 -0.08907,0.60713 -0.267578,0.900391 -0.178507,0.28051 -0.427334,0.515774 -0.746094,0.707031 -0.31876,0.191257 -0.688608,0.287109 -1.109375,0.287109 -0.624773,0 -1.090478,-0.191705 -1.396484,-0.574218 -0.306014,-0.382514 -0.458985,-0.905336 -0.458985,-1.56836 0,-0.816029 0.180096,-1.414362 0.53711,-1.796875 0.357013,-0.395264 0.815933,-0.59375 1.376953,-0.59375 z M 34.046406,110 c -0.763987,0 -1.48335,0.12135 -2.158203,0.36328 -0.66212,0.24193 -1.196062,0.61084 -1.603516,1.10742 -0.40746,0.48386 -0.611328,1.08187 -0.611328,1.79492 0,0.81492 0.210666,1.49741 0.63086,2.04493 0.43292,0.53478 0.955219,0.993 1.566406,1.375 -0.72578,0.35652 -1.344189,0.82639 -1.853516,1.41211 -0.50932,0.57298 -0.763672,1.32439 -0.763672,2.2539 0,1.13324 0.412588,2.02444 1.240235,2.67383 0.840386,0.64939 2.024767,0.97461 3.552734,0.97461 0.942247,0 1.771328,-0.15339 2.484375,-0.45898 0.725793,-0.3056 1.284967,-0.73858 1.679688,-1.29883 0.407453,-0.56026 0.611328,-1.21555 0.611328,-1.9668 0,-0.59845 -0.139796,-1.12755 -0.419922,-1.58594 -0.267394,-0.45839 -0.624659,-0.85253 -1.070313,-1.18359 -0.432926,-0.34379 -0.891146,-0.64182 -1.375,-0.89648 0.700314,-0.3438 1.279888,-0.77678 1.738281,-1.29883 0.471121,-0.52206 0.707032,-1.19775 0.707032,-2.02539 0,-0.72579 -0.203875,-1.3306 -0.611328,-1.81446 -0.394727,-0.49658 -0.923818,-0.86549 -1.585938,-1.10742 C 35.555229,110.12135 34.835859,110 34.046406,110 Z m 104.777344,0 -6.13672,9.03906 v 2.0586 h 5.98047 V 124 h 2.88281 v -2.90234 h 1.68555 v -2.29297 h -1.68555 V 110 Z m -104.794922,2.10156 c 0.47112,0 0.865267,0.1262 1.183594,0.38086 0.318326,0.24193 0.476562,0.58075 0.476562,1.01367 0,0.49659 -0.165034,0.89074 -0.496094,1.1836 -0.33106,0.28012 -0.713564,0.52283 -1.146484,0.72656 -0.44566,-0.21647 -0.833003,-0.47276 -1.164063,-0.76563 -0.331059,-0.29285 -0.496093,-0.67341 -0.496093,-1.14453 0,-0.43292 0.151438,-0.77174 0.457031,-1.01367 0.318327,-0.25466 0.71442,-0.38086 1.185547,-0.38086 z m 104.677732,1.29102 h 0.0781 c -0.0131,0.11764 -0.0325,0.36505 -0.0586,0.74414 -0.0131,0.36601 -0.026,0.7659 -0.0391,1.19726 -0.0131,0.43138 -0.0195,0.79701 -0.0195,1.09766 v 2.37305 h -3.37305 l 2.56836,-3.88281 c 0.16993,-0.26145 0.32045,-0.51726 0.45117,-0.76563 0.14379,-0.24836 0.27493,-0.50223 0.39258,-0.76367 z m -104.792967,4.47656 0.248047,0.13281 c 0.305594,0.17826 0.610416,0.37729 0.916016,0.59375 0.305593,0.20373 0.561898,0.43769 0.765625,0.70508 0.203727,0.25466 0.304688,0.55465 0.304688,0.89844 -1e-6,0.50933 -0.17863,0.91706 -0.535157,1.22266 -0.35652,0.30559 -0.890462,0.45898 -1.603515,0.45898 -0.687587,0 -1.20988,-0.16019 -1.566407,-0.47852 -0.343793,-0.31832 -0.515625,-0.72606 -0.515625,-1.22265 0,-0.52206 0.17863,-0.96668 0.535157,-1.33594 0.36926,-0.36926 0.852718,-0.69448 1.451171,-0.97461 z M 50.98,131.96094 v 2.49023 h 6.902343 l -5.255859,11.50977 h 3.097656 l 5.294922,-12.13672 v -1.86328 z m 61.20117,0 -0.52148,7.03906 1.16015,0.61914 c 0.25783,-0.0644 0.58006,-0.12889 0.9668,-0.19336 0.38674,-0.0773 0.76013,-0.11523 1.12109,-0.11523 1.84346,0 2.76563,0.69562 2.76563,2.08789 0,0.7477 -0.23318,1.30115 -0.69727,1.66211 -0.4512,0.34806 -1.10893,0.52343 -1.97265,0.52343 -0.593,0 -1.22418,-0.0844 -1.89453,-0.25195 -0.67035,-0.18047 -1.24373,-0.39373 -1.72071,-0.63867 v 2.51367 c 0.47698,0.24494 1.03044,0.43163 1.66211,0.56055 0.64457,0.12891 1.32886,0.19336 2.05078,0.19336 1.81768,0 3.19097,-0.42457 4.11914,-1.27539 0.92818,-0.86372 1.39063,-2.04367 1.39063,-3.53907 0,-0.91528 -0.19334,-1.682 -0.58008,-2.30078 -0.37385,-0.61878 -0.88942,-1.08982 -1.54687,-1.41211 -0.65746,-0.32228 -1.40425,-0.48242 -2.24219,-0.48242 -0.4512,0 -0.80663,0.0246 -1.06446,0.0762 -0.24494,0.0387 -0.47615,0.0785 -0.69531,0.11719 l 0.25196,-2.70703 h 4.92968 v -2.47656 z M 88.026875,140 c -1.134794,0 -2.102977,0.15298 -2.90625,0.45898 -0.790534,0.29326 -1.447937,0.70863 -1.970703,1.24414 -0.510014,0.52278 -0.911818,1.12789 -1.205079,1.81641 -0.280513,0.67577 -0.477043,1.40191 -0.591796,2.17969 -0.114754,0.76503 -0.173828,1.53667 -0.173828,2.31445 0,1.3643 0.223661,2.49223 0.669921,3.38477 0.446274,0.87978 1.046555,1.53718 1.798829,1.9707 0.752273,0.42076 1.59265,0.63086 2.523437,0.63086 1.428053,0 2.555986,-0.42019 3.384766,-1.26172 0.841526,-0.84153 1.263671,-2.00141 1.263671,-3.48047 0,-1.37704 -0.351461,-2.44304 -1.052734,-3.19531 -0.70128,-0.75228 -1.651069,-1.12695 -2.849609,-1.12695 -0.765027,0 -1.388527,0.15297 -1.873047,0.45898 -0.47176,0.30601 -0.836784,0.68069 -1.091797,1.12695 h -0.113281 c 0.03825,-0.84152 0.18444,-1.58122 0.439453,-2.21875 0.255007,-0.65027 0.688761,-1.15275 1.300781,-1.50976 0.624773,-0.35701 1.503879,-0.53516 2.638672,-0.53516 0.280507,0 0.561284,0.0184 0.841797,0.0566 0.29326,0.0383 0.560474,0.0838 0.802734,0.13477 v -2.31445 c -0.24226,-0.051 -0.541424,-0.083 -0.898437,-0.0957 -0.357014,-0.0255 -0.66974,-0.039 -0.9375,-0.039 z m -1.855469,7.1543 c 0.624773,0 1.090478,0.18975 1.396484,0.57226 0.306014,0.38252 0.458985,0.90534 0.458985,1.56836 0,0.81603 -0.178143,1.42309 -0.535156,1.81836 -0.357014,0.38251 -0.815934,0.57227 -1.376954,0.57227 -0.446266,0 -0.829677,-0.12586 -1.148437,-0.38086 -0.306007,-0.26776 -0.534493,-0.60565 -0.6875,-1.01367 -0.153007,-0.40802 -0.230469,-0.82338 -0.230469,-1.24414 0,-0.30601 0.08907,-0.5984 0.267578,-0.87891 0.178507,-0.29326 0.422509,-0.53726 0.728516,-0.72852 0.318767,-0.19126 0.69344,-0.28515 1.126953,-0.28515 z"/>
  <path id="path1329" style="fill:#dfdfdf" d="m 91.415547,19 c -0.825046,0 -1.533952,0.09764 -2.126954,0.291016 -0.58011,0.180478 -1.095677,0.424982 -1.546874,0.734375 -0.451198,0.296501 -0.86912,0.61209 -1.25586,0.947265 l 1.585938,1.875 c 0.554327,-0.451197 1.083175,-0.798033 1.585937,-1.042968 0.502763,-0.244936 1.01833,-0.369141 1.546875,-0.369141 0.515654,0 0.920296,0.135532 1.216797,0.40625 0.309392,0.270718 0.464844,0.683953 0.464844,1.238281 0,0.451197 -0.09765,0.875759 -0.291016,1.275391 -0.19337,0.38674 -0.50232,0.826535 -0.927734,1.316406 -0.425415,0.47698 -0.985508,1.07496 -1.681641,1.796875 l -3.460937,3.5 V 33 h 9.648437 v -2.455078 h -6.013672 v -0.136719 l 1.779297,-1.662109 c 0.812155,-0.747698 1.50114,-1.431997 2.068359,-2.050782 0.580111,-0.618784 1.017953,-1.243324 1.314454,-1.875 0.309392,-0.631675 0.464843,-1.327301 0.464843,-2.08789 0,-0.709024 -0.180058,-1.340204 -0.541015,-1.894531 -0.348067,-0.56722 -0.850354,-1.013654 -1.507813,-1.335938 C 93.093245,19.166778 92.317941,19 91.415547,19 Z"/>
  <path id="path1327" style="fill:#dfdfdf" d="m 80.272969,19.193359 -4.447266,3.539063 1.412109,1.759766 1.585938,-1.277344 c 0.180479,-0.154696 0.373816,-0.328114 0.580078,-0.521485 0.219153,-0.206261 0.359371,-0.348433 0.423828,-0.425781 -0.02578,0.412523 -0.04375,0.896844 -0.05664,1.451172 -0.01289,0.541436 -0.01953,0.972638 -0.01953,1.294922 V 33 h 2.919922 V 19.193359 Z"/>
  <path id="path1325" style="fill:#5e5e5e" d="m 51.440937,27.037109 -4.509765,3.589844 1.43164,1.783203 1.607422,-1.292968 c 0.183007,-0.156863 0.37874,-0.333219 0.587891,-0.529297 0.222222,-0.209151 0.366281,-0.35321 0.43164,-0.431641 -0.02614,0.418301 -0.04552,0.908612 -0.05859,1.470703 -0.01307,0.54902 -0.01953,0.985703 -0.01953,1.3125 v 8.097656 h 2.960938 v -14 z"/>
  <path id="path1323" style="fill:#5e5e5e" d="m 62.66164,27.037109 -4.509765,3.589844 1.43164,1.783203 1.607422,-1.292968 c 0.183007,-0.156863 0.378741,-0.333219 0.587891,-0.529297 0.222222,-0.209151 0.366281,-0.35321 0.431641,-0.431641 -0.02614,0.418301 -0.04552,0.908612 -0.05859,1.470703 -0.01307,0.54902 -0.01953,0.985703 -0.01953,1.3125 v 8.097656 h 2.960938 v -14 z"/>
  <path id="path1321" style="fill:#5e5e5e" d="m 117.02492,27.134769 -4.44727,3.539062 1.41211,1.759766 1.58399,-1.277344 c 0.18048,-0.154697 0.37382,-0.328114 0.58008,-0.521484 0.21914,-0.206262 0.36131,-0.348434 0.42578,-0.425782 -0.0258,0.412523 -0.0438,0.896844 -0.0566,1.451172 -0.0129,0.541437 -0.0195,0.972639 -0.0195,1.294922 v 7.986328 h 2.91992 V 27.134766 Z"/>
  <path id="path1319" style="fill:#5e5e5e" d="m 39.202656,49 c -1.155556,0 -2.082837,0.27916 -2.78125,0.837891 -0.698413,0.55873 -1.199144,1.365953 -1.503906,2.419921 -0.304762,1.04127 -0.457031,2.291636 -0.457031,3.751954 0,2.196825 0.380673,3.910832 1.142578,5.142578 C 36.364951,62.38409 37.564561,63 39.202656,63 c 1.155556,0 2.082837,-0.27916 2.78125,-0.837891 0.698413,-0.55873 1.199144,-1.35912 1.503906,-2.40039 0.317461,-1.04127 0.476563,-2.291636 0.476563,-3.751953 0,-2.209524 -0.387506,-3.930364 -1.16211,-5.16211 C 42.027662,49.61591 40.828053,49 39.202656,49 Z m 0,2.324219 c 0.711111,0 1.206963,0.392386 1.486328,1.179687 0.279365,0.787302 0.417969,1.956653 0.417969,3.50586 0,1.561904 -0.138604,2.729303 -0.417969,3.503906 -0.279365,0.774603 -0.775217,1.162109 -1.486328,1.162109 -0.72381,0 -1.219661,-0.387506 -1.486328,-1.162109 -0.266667,-0.787302 -0.400391,-1.9547 -0.400391,-3.503906 0,-1.549207 0.133724,-2.718558 0.400391,-3.50586 0.266667,-0.787301 0.762518,-1.179687 1.486328,-1.179687 z"/>
  <path id="path1317" style="fill:#5e5e5e" d="m 138.04836,49 c -0.82505,0 -1.53395,0.09569 -2.12695,0.289062 -0.58011,0.180479 -1.09568,0.426936 -1.54688,0.736329 -0.45119,0.2965 -0.87107,0.61209 -1.25781,0.947265 l 1.58593,1.875 c 0.55433,-0.451196 1.08318,-0.799986 1.58594,-1.044922 0.50276,-0.244935 1.01833,-0.367187 1.54688,-0.367187 0.51565,0 0.92225,0.135532 1.21875,0.40625 0.30939,0.270719 0.46289,0.683954 0.46289,1.238281 0,0.451197 -0.0957,0.875759 -0.28906,1.275391 -0.19337,0.38674 -0.50233,0.826535 -0.92774,1.316406 -0.42541,0.476979 -0.98746,1.07496 -1.68359,1.796875 l -3.46094,3.5 V 63 h 9.64844 v -2.455078 h -6.01367 v -0.136719 l 1.77929,-1.662109 c 0.81216,-0.747698 1.5031,-1.431998 2.07031,-2.050782 0.58011,-0.618784 1.01796,-1.243323 1.31446,-1.875 0.30939,-0.631675 0.46289,-1.327301 0.46289,-2.08789 0,-0.709024 -0.18006,-1.342157 -0.54102,-1.896484 -0.34806,-0.56722 -0.85035,-1.011701 -1.50781,-1.333985 C 139.7241,49.166778 138.95075,49 138.04836,49 Z"/>
  <path id="path1315" style="fill:#5e5e5e" d="m 28.378437,49.208984 -4.380859,3.486328 1.390625,1.732422 1.5625,-1.255859 c 0.177778,-0.152381 0.367138,-0.325149 0.570312,-0.515625 0.215873,-0.203175 0.35643,-0.341778 0.419922,-0.417969 -0.0254,0.406349 -0.0459,0.881703 -0.05859,1.427735 -0.0127,0.533333 -0.01758,0.959883 -0.01758,1.277343 v 7.865235 h 2.875 v -13.59961 z"/>
  <path id="path1311" style="fill:#dfdfdf" d="m 25.626484,79 c -1.428053,0 -2.56277,0.422142 -3.404297,1.263672 -0.82878,0.84153 -1.242187,2.001416 -1.242187,3.480469 0,1.377049 0.349508,2.441082 1.050781,3.193359 0.70128,0.752277 1.632682,1.128906 2.792969,1.128906 0.867033,0 1.517658,-0.152973 1.951172,-0.458984 0.446266,-0.306011 0.802552,-0.68264 1.070312,-1.128906 h 0.115235 c -0.03825,0.84153 -0.18444,1.588008 -0.439454,2.238281 -0.255006,0.637523 -0.695539,1.135175 -1.320312,1.492187 -0.61202,0.357013 -1.484347,0.535157 -2.619141,0.535157 -0.280506,0 -0.561283,-0.02034 -0.841797,-0.05859 -0.280506,-0.03825 -0.549674,-0.08181 -0.804687,-0.132813 v 2.314454 c 0.24226,0.051 0.543376,0.08295 0.900391,0.0957 0.357012,0.0255 0.667786,0.03711 0.935546,0.03711 1.134794,0 2.098146,-0.146192 2.888672,-0.439453 0.80328,-0.306011 1.46069,-0.721372 1.970703,-1.244141 0.522774,-0.535519 0.924572,-1.140632 1.205079,-1.816406 0.29326,-0.688525 0.496574,-1.41466 0.611328,-2.179688 0.114753,-0.777777 0.171875,-1.556207 0.171875,-2.333984 0,-1.364299 -0.223662,-2.485453 -0.669922,-3.365234 C 29.502483,80.72856 28.904155,80.071156 28.151875,79.650391 27.399601,79.216875 26.557271,79 25.626484,79 Z m 0.05859,2.314453 c 0.459013,0 0.840471,0.134585 1.146484,0.402344 0.306014,0.255009 0.536453,0.586126 0.689453,0.994141 0.153007,0.408013 0.228516,0.821422 0.228516,1.242187 0,0.306011 -0.08907,0.60713 -0.267578,0.900391 -0.178507,0.28051 -0.427334,0.515774 -0.746094,0.707031 -0.31876,0.191257 -0.688608,0.287109 -1.109375,0.287109 -0.624773,0 -1.090478,-0.191706 -1.396484,-0.574218 -0.306014,-0.382515 -0.458985,-0.905336 -0.458985,-1.56836 0,-0.816029 0.180096,-1.414362 0.53711,-1.796875 0.357013,-0.395264 0.815933,-0.59375 1.376953,-0.59375 z"/>
  <path id="path1309" style="fill:#dfdfdf" d="m 145.75148,79 c -0.99182,0 -1.84942,0.126546 -2.57422,0.380859 -0.71208,0.254315 -1.33508,0.571654 -1.86914,0.953125 l 1.33399,1.984375 c 0.31789,-0.203451 0.71993,-0.419554 1.20312,-0.648437 0.4832,-0.228883 1.04877,-0.34375 1.69727,-0.34375 0.69937,0 1.19387,0.140176 1.48633,0.419922 0.30517,0.26703 0.45898,0.641802 0.45898,1.125 0,0.35604 -0.0828,0.675333 -0.24805,0.955078 -0.15259,0.26703 -0.45143,0.483133 -0.89648,0.648437 -0.43233,0.152589 -1.06896,0.228516 -1.9082,0.228516 h -1.04883 v 2.212891 h 1.03125 c 0.85195,0 1.51194,0.06911 1.98242,0.208984 0.4832,0.127157 0.82099,0.324767 1.01172,0.591797 0.19073,0.26703 0.28516,0.584369 0.28516,0.953125 0,0.648501 -0.2093,1.151772 -0.62891,1.507812 -0.40691,0.35604 -1.12432,0.533203 -2.1543,0.533204 -0.55949,0 -1.15719,-0.07593 -1.79297,-0.228516 -0.63578,-0.152589 -1.2471,-0.375508 -1.83203,-0.667969 v 2.441406 C 142.43301,92.751772 143.74325,93 145.21828,93 c 1.27157,0 2.30829,-0.179116 3.10937,-0.535156 0.81381,-0.368756 1.4115,-0.863258 1.79297,-1.486328 0.39419,-0.635786 0.58985,-1.348345 0.58985,-2.136719 0,-0.8901 -0.28522,-1.602659 -0.85742,-2.136719 -0.57221,-0.53406 -1.39963,-0.869893 -2.48047,-1.009766 v -0.05859 c 0.82652,-0.203452 1.52058,-0.58504 2.08007,-1.144531 0.57221,-0.559492 0.85743,-1.309038 0.85743,-2.25 0,-1.029973 -0.41372,-1.825275 -1.24024,-2.384766 C 148.25604,79.285215 147.15021,79 145.75148,79 Z"/>
  <path id="path1305" style="fill:#5e5e5e" d="m 34.046406,109 c -0.763987,0 -1.48335,0.12135 -2.158203,0.36328 -0.66212,0.24193 -1.196062,0.61084 -1.603516,1.10742 -0.40746,0.48386 -0.611328,1.08187 -0.611328,1.79492 0,0.81493 0.210666,1.49741 0.63086,2.04493 0.432919,0.53478 0.955219,0.993 1.566406,1.375 -0.72578,0.35652 -1.344189,0.82639 -1.853516,1.41211 -0.50932,0.57298 -0.763672,1.32439 -0.763672,2.2539 0,1.13324 0.412588,2.02444 1.240235,2.67383 0.840386,0.64939 2.024767,0.97461 3.552734,0.97461 0.942247,0 1.771328,-0.15339 2.484375,-0.45898 0.725793,-0.3056 1.284967,-0.73858 1.679688,-1.29883 0.407452,-0.56026 0.611328,-1.21555 0.611328,-1.9668 0,-0.59845 -0.139796,-1.12755 -0.419922,-1.58594 -0.267394,-0.45839 -0.624659,-0.85253 -1.070313,-1.18359 -0.432926,-0.34379 -0.891146,-0.64183 -1.375,-0.89648 0.700314,-0.34381 1.279888,-0.77678 1.738281,-1.29883 0.471121,-0.52206 0.707032,-1.19775 0.707032,-2.02539 0,-0.72579 -0.203875,-1.3306 -0.611328,-1.81446 -0.394727,-0.49658 -0.923818,-0.86549 -1.585938,-1.10742 C 35.555229,109.12135 34.835859,109 34.046406,109 Z m -0.01758,2.10156 c 0.47112,0 0.865267,0.1262 1.183594,0.38086 0.318326,0.24193 0.476562,0.58075 0.476562,1.01367 0,0.49659 -0.165034,0.89074 -0.496094,1.1836 -0.33106,0.28012 -0.713564,0.52283 -1.146484,0.72656 -0.44566,-0.21647 -0.833002,-0.47275 -1.164063,-0.76563 -0.331059,-0.29284 -0.496093,-0.67341 -0.496093,-1.14453 0,-0.43292 0.151438,-0.77174 0.457031,-1.01367 0.318327,-0.25466 0.71442,-0.38086 1.185547,-0.38086 z m -0.115235,5.76758 0.248047,0.13281 c 0.305594,0.17826 0.610416,0.37729 0.916016,0.59375 0.305593,0.20373 0.561898,0.43769 0.765625,0.70508 0.203727,0.25466 0.304688,0.55465 0.304688,0.89844 -1e-6,0.50933 -0.17863,0.91706 -0.535157,1.22266 -0.35652,0.30558 -0.890462,0.45898 -1.603515,0.45898 -0.687587,0 -1.20988,-0.16019 -1.566407,-0.47852 -0.343793,-0.31832 -0.515625,-0.72606 -0.515625,-1.22265 0,-0.52206 0.17863,-0.96668 0.535157,-1.33594 0.36926,-0.36926 0.852719,-0.69448 1.451171,-0.97461 z"/>
  <path id="path1303" style="fill:#5e5e5e" d="m 138.82375,109 -6.13672,9.03906 v 2.0586 h 5.98047 V 123 h 2.88281 v -2.90234 h 1.68555 v -2.29297 h -1.68555 V 109 Z m -0.11719,3.39258 h 0.0781 c -0.0131,0.11764 -0.0325,0.36505 -0.0586,0.74414 -0.0131,0.36601 -0.026,0.7659 -0.0391,1.19726 -0.0131,0.43138 -0.0195,0.79701 -0.0195,1.09766 v 2.37305 h -3.37305 l 2.56836,-3.88281 c 0.16993,-0.26145 0.32045,-0.51726 0.45117,-0.76563 0.14379,-0.24836 0.27493,-0.50223 0.39258,-0.76367 z"/>
  <path id="path1295" style="fill:#5e5e5e" d="m 50.98,130.96094 v 2.49023 h 6.902343 l -5.255859,11.50977 h 3.097656 l 5.294922,-12.13672 v -1.86328 z"/>
  <path id="path1293" style="fill:#5e5e5e" d="M 112.18117,130.96094 111.65969,138 l 1.16015,0.61914 c 0.25783,-0.0644 0.58006,-0.12889 0.9668,-0.19336 0.38674,-0.0773 0.76013,-0.11523 1.12109,-0.11523 1.84346,0 2.76563,0.69562 2.76563,2.08789 0,0.7477 -0.23318,1.30115 -0.69727,1.66211 -0.4512,0.34806 -1.10893,0.52343 -1.97265,0.52343 -0.593,0 -1.22418,-0.0844 -1.89453,-0.25195 -0.67035,-0.18047 -1.24373,-0.39373 -1.72071,-0.63867 v 2.51367 c 0.47698,0.24494 1.03044,0.43163 1.66211,0.56055 0.64457,0.12891 1.32886,0.19336 2.05078,0.19336 1.81768,0 3.19097,-0.42457 4.11914,-1.27539 0.92818,-0.86372 1.39063,-2.04367 1.39063,-3.53907 0,-0.91528 -0.19334,-1.682 -0.58008,-2.30078 -0.37385,-0.61878 -0.88942,-1.08982 -1.54687,-1.41211 -0.65746,-0.32228 -1.40425,-0.48242 -2.24219,-0.48242 -0.4512,0 -0.80663,0.0246 -1.06446,0.0762 -0.24494,0.0387 -0.47615,0.0785 -0.69531,0.11719 l 0.25196,-2.70703 h 4.92968 v -2.47656 z"/>
  <path id="path1291" style="fill:#dfdfdf" d="m 88.026875,139 c -1.134794,0 -2.102977,0.15298 -2.90625,0.45898 -0.790534,0.29326 -1.447937,0.70864 -1.970703,1.24414 -0.510014,0.52279 -0.911818,1.12789 -1.205079,1.81641 -0.280512,0.67577 -0.477043,1.40191 -0.591796,2.17969 -0.114754,0.76503 -0.173829,1.53667 -0.173828,2.31445 0,1.3643 0.223661,2.49223 0.669921,3.38477 0.446274,0.87978 1.046555,1.53718 1.798829,1.9707 0.752273,0.42076 1.59265,0.63086 2.523437,0.63086 1.428053,0 2.555986,-0.42019 3.384766,-1.26172 0.841526,-0.84153 1.263671,-2.00141 1.263671,-3.48047 0,-1.37704 -0.351461,-2.44304 -1.052734,-3.19531 -0.70128,-0.75228 -1.651069,-1.12695 -2.849609,-1.12695 -0.765027,0 -1.388527,0.15297 -1.873047,0.45898 -0.47176,0.30601 -0.836784,0.68069 -1.091797,1.12695 h -0.113281 c 0.03825,-0.84152 0.18444,-1.58122 0.439453,-2.21875 0.255007,-0.65027 0.688761,-1.15275 1.300781,-1.50976 0.624773,-0.35701 1.503879,-0.53516 2.638672,-0.53516 0.280507,0 0.561284,0.0184 0.841797,0.0566 0.29326,0.0383 0.560474,0.0838 0.802734,0.13477 v -2.31445 c -0.24226,-0.051 -0.541424,-0.083 -0.898437,-0.0957 -0.357014,-0.0255 -0.66974,-0.039 -0.9375,-0.039 z m -1.855469,7.1543 c 0.624773,0 1.090478,0.18975 1.396484,0.57226 0.306014,0.38252 0.458985,0.90534 0.458985,1.56836 0,0.81603 -0.178143,1.42309 -0.535156,1.81836 -0.357015,0.38251 -0.815934,0.57227 -1.376954,0.57227 -0.446266,0 -0.829677,-0.12586 -1.148437,-0.38086 -0.306007,-0.26776 -0.534493,-0.60565 -0.6875,-1.01367 -0.153007,-0.40802 -0.230469,-0.82338 -0.230469,-1.24414 0,-0.30601 0.08907,-0.5984 0.267578,-0.87891 0.178507,-0.29326 0.422509,-0.53726 0.728516,-0.72852 0.318767,-0.19126 0.69344,-0.28515 1.126953,-0.28515 z"/>
 </g>
</svg>
