<svg xmlns="http://www.w3.org/2000/svg" id="svg2" width="208" height="208" version="1">
 <g id="HourHand" transform="translate(27,83)">
  <path id="path979" d="m 255,74 a 4,4 0 0 0 -4,4 v 41 1 c 0,2.216 1.784,4 4,4 2.216,0 4,-1.784 4,-4 v -1 -41 a 4,4 0 0 0 -4,-4 z" style="opacity:0.05;fill:none;fill-opacity:1;stroke:#000000;stroke-width:2;stroke-linecap:round;stroke-linejoin:round;stroke-miterlimit:4;stroke-dasharray:none;stroke-opacity:1"/>
  <path style="opacity:0.05;fill:none;fill-opacity:1;stroke:#000000;stroke-width:1;stroke-linecap:round;stroke-linejoin:round;stroke-miterlimit:4;stroke-dasharray:none;stroke-opacity:1" id="path977" d="m 255,74 a 4,4 0 0 0 -4,4 v 41 1 c 0,2.216 1.784,4 4,4 2.216,0 4,-1.784 4,-4 v -1 -41 a 4,4 0 0 0 -4,-4 z"/>
  <path id="HourHand2" d="m 255,74 a 4,4 0 0 0 -4,4 v 41 1 c 0,2.216 1.784,4 4,4 2.216,0 4,-1.784 4,-4 v -1 -41 a 4,4 0 0 0 -4,-4 z" style="opacity:1;fill:#dfdfdf;fill-opacity:1;stroke:none;stroke-width:2.48525119;stroke-linecap:round;stroke-linejoin:round;stroke-miterlimit:4;stroke-dasharray:none;stroke-opacity:1"/>
 </g>
 <g id="SecondHand" transform="translate(-5,-14)">
  <rect id="rect991" width="20" height="100" x="214" y="122" style="opacity:0.00100002;fill:#000000;fill-opacity:1;stroke:none;stroke-width:2.23606825;stroke-linecap:round;stroke-linejoin:round;stroke-miterlimit:4;stroke-dasharray:none;stroke-opacity:1"/>
  <path style="fill:#ff7f2a;fill-opacity:1;stroke:none;stroke-width:1.18447495" id="rect6212" d="m 225,129 v 77.99958 c 0,0 0,4.2e-4 -1,4.2e-4 -1,0 -1,4.2e-4 -1,4.2e-4 v -78.00015 z"/>
  <circle style="opacity:0.05;fill:none;fill-opacity:1;stroke:#000000;stroke-width:1;stroke-linecap:round;stroke-linejoin:round;stroke-miterlimit:4;stroke-dasharray:none;stroke-opacity:1" id="circle987" cx="224" cy="132" r="9"/>
  <circle id="circle989" cx="224" cy="132" r="9" style="opacity:0.05;fill:none;fill-opacity:1;stroke:#000000;stroke-width:2;stroke-linecap:round;stroke-linejoin:round;stroke-miterlimit:4;stroke-dasharray:none;stroke-opacity:1"/>
  <circle id="path967" cx="224" cy="132" r="9" style="opacity:1;fill:#4f4f4f;fill-opacity:1;stroke:none;stroke-width:1.95237434;stroke-linecap:round;stroke-linejoin:round;stroke-miterlimit:4;stroke-dasharray:none;stroke-opacity:1"/>
 </g>
 <g id="ClockFace">
  <rect id="rect4217" width="208" height="208" x="0" y="0" style="opacity:0.00100002;fill:#000000;fill-opacity:1;fill-rule:nonzero;stroke:none;stroke-width:2;stroke-linecap:round;stroke-linejoin:round;stroke-miterlimit:4;stroke-dasharray:none;stroke-opacity:1"/>
  <path style="opacity:0.02999998;fill:#000000;fill-opacity:1;stroke-width:0.85555553" id="rect869" d="M 104 29 C 145.55 29 179 62.45 179 104 C 179 145.55 145.55 179 104 179 C 62.45 179 29 145.55 29 104 C 29 62.45 62.45 29 104 29 z M 104 29 C 61.342 29 27 63.342 27 106 C 27 148.658 61.342 183 104 183 C 146.658 183 181 148.658 181 106 C 181 63.342 146.658 29 104 29 z"/>
  <path style="opacity:0.02999998;fill:#000000;fill-opacity:1;stroke-width:0.85000002" id="rect867" d="M 53.357422 48.595703 C 37.490995 62.592954 27.5 83.081272 27.5 106 C 27.5 148.381 61.619 182.5 104 182.5 C 146.381 182.5 180.5 148.381 180.5 106 C 180.5 83.081272 170.509 62.592954 154.64258 48.595703 C 169.62511 62.290392 179 82.008401 179 104 C 179 145.55 145.55 179 104 179 C 62.45 179 29 145.55 29 104 C 29 82.008401 38.374889 62.290392 53.357422 48.595703 z"/>
  <path style="opacity:0.02999998;fill:#000000;fill-opacity:1;stroke-width:0.84444445" id="rect865" d="M 39.027344 66.447266 C 32.027531 77.956171 28 91.490124 28 106 C 28 148.104 61.896 182 104 182 C 146.104 182 180 148.104 180 106 C 180 91.490124 175.97247 77.956171 168.97266 66.447266 C 175.3425 77.480709 179 90.293788 179 104 C 179 145.55 145.55 179 104 179 C 62.45 179 29 145.55 29 104 C 29 90.293788 32.657502 77.480709 39.027344 66.447266 z"/>
  <path style="opacity:0.02999998;fill:#000000;fill-opacity:1;stroke-width:0.83888888" id="rect858" d="M 31.154297 86.076172 C 29.43422 92.421081 28.5 99.09602 28.5 106 C 28.5 147.827 62.173 181.5 104 181.5 C 145.827 181.5 179.5 147.827 179.5 106 C 179.5 99.09602 178.56578 92.421081 176.8457 86.076172 C 178.24393 91.817535 179 97.816253 179 104 C 179 145.55 145.55 179 104 179 C 62.45 179 29 145.55 29 104 C 29 97.816253 29.756068 91.817535 31.154297 86.076172 z"/>
  <path style="opacity:0.02999998;fill:#000000;fill-opacity:1;stroke-width:0.83888888" id="rect856" d="M 33.230469 79.070312 C 30.176051 87.290099 28.5 96.191152 28.5 105.5 C 28.5 147.327 62.173 181 104 181 C 145.827 181 179.5 147.327 179.5 105.5 C 179.5 96.191152 177.82395 87.290099 174.76953 79.070312 C 177.49994 86.865475 179 95.249537 179 104 C 179 145.55 145.55 179 104 179 C 62.45 179 29 145.55 29 104 C 29 95.249537 30.500061 86.865475 33.230469 79.070312 z"/>
  <path style="opacity:0.02999998;fill:#000000;fill-opacity:1;stroke-width:0.83888888" id="rect859" d="M 39.427734 65.75 C 32.490093 77.173893 28.5 90.603657 28.5 105 C 28.5 146.827 62.173 180.5 104 180.5 C 145.827 180.5 179.5 146.827 179.5 105 C 179.5 90.603657 175.50991 77.173893 168.57227 65.75 C 175.19294 76.938167 179 90.005488 179 104 C 179 145.55 145.55 179 104 179 C 62.45 179 29 145.55 29 104 C 29 90.005488 32.807058 76.938167 39.427734 65.75 z"/>
  <path style="opacity:0.02999998;fill:#000000;fill-opacity:1;stroke-width:0.83888888" id="rect861" d="M 100.10352 29.097656 C 60.101451 31.112309 28.5 63.980094 28.5 104.5 C 28.5 146.327 62.173 180 104 180 C 145.827 180 179.5 146.327 179.5 104.5 C 179.5 63.971582 147.88509 31.099766 107.87109 29.097656 C 147.60824 31.098967 179 63.748438 179 104 C 179 145.55 145.55 179 104 179 C 62.45 179 29 145.55 29 104 C 29 63.748438 60.391756 31.098967 100.12891 29.097656 C 100.1205 29.098077 100.11192 29.097233 100.10352 29.097656 z"/>
  <path style="opacity:0.02999998;fill:#000000;fill-opacity:1;stroke-width:0.83888888" id="rect863" d="M 104 28.5 C 62.173 28.5 28.5 62.173 28.5 104 C 28.5 145.827 62.173 179.5 104 179.5 C 145.827 179.5 179.5 145.827 179.5 104 C 179.5 62.173 145.827 28.5 104 28.5 z M 104 29 C 145.55 29 179 62.45 179 104 C 179 145.55 145.55 179 104 179 C 62.45 179 29 145.55 29 104 C 29 62.45 62.45 29 104 29 z"/>
  <rect style="fill:#383838;fill-opacity:1;stroke-width:0.83333331;opacity:0.95" id="rect932" width="150" height="150" x="-179" y="-179" rx="75" ry="75" transform="matrix(0,-1,-1,0,0,0)"/>
  <path id="path950" d="M 97.396484,36 C 96.452552,36.605042 95.564942,37.259618 94,37.511719 V 39 h 3 v 13 h -4 v 2 h 10 V 52 H 99 V 36 Z m 12.064456,0 c -2.02488,0 -3.11617,1.039143 -4.38477,2.574219 l 1.3418,1.263672 C 107.19864,38.748482 107.97356,38 109.19336,38 110.97428,38 112,39.267994 112,41.199219 c 0,3.09491 -2.5843,6.31359 -7,11.488281 V 54 h 10 v -2 h -6.5 c 3.53744,-4.431912 5.49805,-7.557255 5.49805,-10.875 0,-3.09491 -1.73155,-5.125 -4.53711,-5.125 z M 40.644531,95 C 38.131841,95 36,97.195638 36,100.53711 c 0,3.56097 1.750961,5.39062 4.212891,5.39062 1.34518,0 2.588274,-0.78044 3.552734,-1.95117 -0.1269,5.36585 -1.852289,7.14453 -3.730469,7.14453 -0.96447,0 -1.902578,-0.48618 -2.511718,-1.33984 l -1.294922,1.38867 C 37.091466,112.2187 38.385427,113 40.060547,113 43.258517,113 46,110.3408 46,103.31641 46,97.852982 43.614081,95 40.644531,95 Z m 126.367189,0 c -1.75308,0 -3.25817,0.90163 -4.44336,2.169922 l 1.25976,1.390625 c 0.86422,-1.04878 1.9006,-1.730469 3.01172,-1.730469 1.53087,0 2.51758,0.999713 2.51758,2.707031 0,1.780481 -1.13469,3.292971 -4.09765,3.292971 v 1.70703 c 3.28396,0 4.54296,1.33999 4.54296,3.48633 0,1.97561 -1.33395,3.09765 -2.98828,3.09765 -1.55555,0 -2.7647,-0.87805 -3.6289,-2 L 162,110.56055 c 0.98765,1.26833 2.64275,2.43945 5.0625,2.43945 2.74074,0 4.9375,-1.82913 4.9375,-4.85352 0,-2.46341 -1.48115,-4.02391 -3.16016,-4.51171 v -0.0977 c 1.58024,-0.68293 2.69141,-2.04997 2.69141,-4.220704 C 171.53125,96.584779 169.70309,95 167.01172,95 Z M 40.695312,96.78125 c 1.725882,0 2.841882,1.853095 3.044922,5.41406 -1.01523,1.5122 -2.15661,2.02344 -3.044922,2.02344 -1.59899,0 -2.486328,-1.26701 -2.486328,-3.68164 0,-2.292691 1.014238,-3.75586 2.486328,-3.75586 z M 104.93945,154 C 101.74148,154 99,156.63481 99,163.68359 99,169.147 101.38593,172 104.35547,172 106.86816,172 109,169.80436 109,166.46289 c 0,-3.56097 -1.75096,-5.39062 -4.21289,-5.39062 -1.34518,0 -2.58826,0.78044 -3.55273,1.95117 0.12689,-5.36585 1.85229,-7.14453 3.73046,-7.14453 0.96447,0 1.90258,0.48618 2.51172,1.33984 l 1.29492,-1.41406 C 107.90853,154.7803 106.61458,154 104.93945,154 Z m -0.63476,8.78125 c 1.59899,0 2.48633,1.26701 2.48633,3.68164 0,2.2683 -1.01425,3.75586 -2.48633,3.75586 -1.72588,0 -2.84188,-1.85309 -3.04492,-5.41406 1.01524,-1.5122 2.1566,-2.02344 3.04492,-2.02344 z" style="font-style:normal;font-variant:normal;font-weight:normal;font-stretch:normal;font-size:24px;line-height:1.25;font-family:'Noto Sans Mono CJK KR';-inkscape-font-specification:'Noto Sans Mono CJK KR';letter-spacing:0px;word-spacing:0px;opacity:1;fill:#dfdfdf;fill-opacity:1;stroke:none;stroke-width:1.04268873"/>
  <path id="path946" d="M 73.90625,49.039062 A 4,4 0 0 0 72,49.574219 4,4 0 0 0 70.535156,55.039062 4,4 0 0 0 76,56.501953 a 4,4 0 0 0 1.464844,-5.462891 4,4 0 0 0 -3.558594,-2 z m 60.1875,0 a 4,4 0 0 0 -3.55859,2 A 4,4 0 0 0 132,56.501953 4,4 0 0 0 137.46484,55.039062 4,4 0 0 0 136,49.574219 4,4 0 0 0 134.09375,49.039062 Z M 52.132812,71 A 4,4 0 0 0 51.849609,71.0039 4,4 0 0 0 48.574219,73 4,4 0 0 0 50.039062,78.464844 4,4 0 0 0 55.501953,77 4,4 0 0 0 54.039062,71.535156 4,4 0 0 0 52.132812,71 Z M 156.15039,71.0039 A 4,4 0 0 0 153.96094,71.53515 4,4 0 0 0 152.49805,77 4,4 0 0 0 157.96094,78.464844 4,4 0 0 0 159.42578,73 4,4 0 0 0 156.15039,71.003906 Z M 156.05469,131 a 4,4 0 0 0 -0.28125,0.004 4,4 0 0 0 -3.27539,1.99609 4,4 0 0 0 1.46289,5.46484 A 4,4 0 0 0 159.42578,137 4,4 0 0 0 157.96094,131.53516 4,4 0 0 0 156.05469,131 Z m -103.828128,0.004 a 4,4 0 0 0 -2.1875,0.53125 A 4,4 0 0 0 48.574219,137 4,4 0 0 0 54.039062,138.46484 4,4 0 0 0 55.501953,133 4,4 0 0 0 52.226562,131.00391 Z M 74.09375,152.96289 A 4,4 0 0 0 70.535156,154.96094 4,4 0 0 0 72,160.42578 4,4 0 0 0 77.464844,158.96094 4,4 0 0 0 76,153.49805 4,4 0 0 0 74.09375,152.96289 Z m 59.8125,0 A 4,4 0 0 0 132,153.49805 a 4,4 0 0 0 -1.46484,5.46289 4,4 0 0 0 5.46484,1.46484 4,4 0 0 0 1.46484,-5.46484 4,4 0 0 0 -3.55859,-1.99805 z" style="font-style:normal;font-variant:normal;font-weight:normal;font-stretch:normal;font-size:24px;line-height:1.25;font-family:'Noto Sans Mono CJK KR';-inkscape-font-specification:'Noto Sans Mono CJK KR';letter-spacing:0px;word-spacing:0px;opacity:1;fill:#696969;fill-opacity:1;stroke:none;stroke-width:1.04268873"/>
  <g style="font-style:normal;font-weight:normal;font-size:26.86762619px;line-height:1.25;font-family:sans-serif;letter-spacing:0px;word-spacing:0px;opacity:0.2;fill:#000000;fill-opacity:1;stroke:none;stroke-width:0.67169064" id="g1020" aria-label="Materia" transform="matrix(0.82121585,0,0,0.82121585,18.593518,25.146125)">
   <path id="path1018" d="m 85.060547,117.30859 c -0.197029,0 -0.375905,0.0527 -0.537109,0.16016 -0.143294,0.0896 -0.269483,0.19689 -0.376954,0.32227 -0.08956,0.12538 -0.232658,0.33255 -0.429687,0.61914 -0.626911,0.93141 -1.368752,2.1045 -2.228516,3.51953 -0.859764,1.41503 -1.872845,3.29615 -3.037109,5.64258 -1.164263,2.34644 -1.960742,4.34234 -2.390625,5.99023 0.01791,-0.68065 0.115805,-2.29247 0.294922,-4.83594 0.179117,-2.56138 0.269531,-4.47827 0.269531,-5.75 0,-2.31061 -0.224081,-3.88666 -0.671875,-4.72851 -1.145544,0.20373 -1.460941,0.34461 -1.935547,1.50586 l -8.515625,18.88671 c 0.214941,0 0.420159,-0.0621 0.617188,-0.1875 0.214941,-0.10747 0.439022,-0.31268 0.671875,-0.61718 0.250765,-0.3045 0.474846,-0.64534 0.671875,-1.02149 0.214941,-0.35823 0.484229,-0.86103 0.80664,-1.50586 l 0.91211,-1.96093 1.074218,-2.49805 1.236329,-2.98242 1.478515,-3.59961 1.773438,-4.13867 c 0.03583,0.50153 0.05273,1.00433 0.05273,1.50586 0,0.93141 -0.07155,2.81999 -0.214844,5.66796 -0.143291,2.84797 -0.214843,4.76485 -0.214843,5.75 -10e-7,1.12844 0.08098,1.9607 0.242187,2.49805 0.179117,0.51944 0.491659,0.7793 0.939453,0.7793 0.07165,0 0.207268,-0.0357 0.404297,-0.10742 0.71647,-2.11359 1.808581,-4.78175 3.277344,-8.00586 1.468764,-3.24203 2.775523,-5.59764 3.921875,-7.06641 l -1.369141,5.29297 c -0.3045,1.27174 -0.600131,2.78567 -0.886719,4.54102 -0.286588,1.75535 -0.429687,3.30505 -0.429687,4.64843 0,1.14635 0.143099,1.9334 0.429687,2.36328 0.286588,0.42989 0.87785,0.64453 1.773438,0.64453 -0.03582,-0.14328 -0.09046,-0.32215 -0.16211,-0.5371 -0.07165,-0.21494 -0.114902,-0.37691 -0.132812,-0.48438 -0.01791,-0.0896 -0.04621,-0.24014 -0.08203,-0.45508 -0.01787,-0.19703 -0.02539,-0.43997 -0.02539,-0.72656 0,-1.61206 0.250424,-3.94881 0.751953,-7.01172 0.519441,-3.08082 1.082408,-5.80362 1.691407,-8.16797 0.358234,-1.43294 0.761191,-2.68701 1.208984,-3.76172 -0.322411,-0.12537 -0.60861,-0.1875 -0.859375,-0.1875 z m 18.828123,2.95508 c -0.51944,0 -1.23494,0.75127 -2.14844,2.25586 -0.89558,1.48667 -1.73727,3.25103 -2.525386,5.29297 -0.143294,0 -0.538771,-0.0358 -1.183594,-0.10742 v 0.48437 c 0.214941,0.0717 0.538868,0.1432 0.96875,0.21485 -0.591362,1.58036 -0.995259,2.93728 -1.25,4.11718 -0.657137,1.06652 -1.32024,1.93273 -1.990234,2.57227 -0.788117,0.73438 -1.441497,1.10156 -1.960938,1.10156 -0.304499,0 -0.538013,-0.1148 -0.699219,-0.34765 -0.143291,-0.25076 -0.214843,-0.52949 -0.214843,-0.83399 0,-0.48362 0.259856,-1.19164 0.779296,-2.12305 0.199731,-0.35812 0.361444,-0.65682 0.484376,-0.89843 0.229369,-0.48046 0.428368,-1.04069 0.585937,-1.45899 0.16529,-0.55678 0.323641,-1.2393 0.300781,-1.42968 0,-0.59109 -0.233515,-1.07503 -0.699218,-1.45118 -0.465705,-0.37615 -1.047535,-0.56445 -1.746094,-0.56445 -1.110529,0 -2.257278,0.46508 -3.439453,1.39649 -1.182175,0.9314 -2.148097,2.04238 -2.900391,3.33203 -0.734381,1.28965 -1.101562,2.46274 -1.101562,3.51953 -10e-7,0.71647 0.188306,1.26252 0.564453,1.63867 0.358235,0.39406 0.83274,0.5918 1.423828,0.5918 0.626911,0 1.253948,-0.25043 1.880859,-0.75196 0.644823,-0.50153 1.369752,-1.29053 2.175781,-2.36523 -0.05373,0.3045 -0.08008,0.56436 -0.08008,0.7793 0,0.51944 0.160011,0.95817 0.482422,1.3164 0.340323,0.37615 0.824261,0.56446 1.451172,0.56446 0.967235,0 1.95202,-0.45565 2.955078,-1.36915 0.583411,-0.522 1.08208,-1.1399 1.513672,-1.83203 -0.03784,0.33902 -0.07422,0.67671 -0.07422,0.97071 0,1.77326 0.796479,2.66015 2.390625,2.66015 1.235912,0 2.418442,-0.49141 3.546882,-1.47656 0.54114,-0.48101 1.02494,-1.02997 1.45898,-1.63867 0.0114,0.88739 0.28449,1.6146 0.82813,2.17578 0.57318,0.59109 1.38851,0.88672 2.44531,0.88672 1.34338,0 2.65209,-0.48394 3.92383,-1.45117 0.9577,-0.7284 1.75758,-1.63482 2.40039,-2.71875 l 0.0156,0.0312 c 0.7523,-1.28964 1.55073,-3.00879 2.39258,-5.15821 0.0358,0.0358 0.14315,0.11681 0.32227,0.24219 0.19702,0.12538 0.32126,0.21385 0.375,0.26758 l 0.29687,0.26953 c 0.14331,0.12538 0.23178,0.24214 0.26758,0.34961 0.0537,0.0896 0.10837,0.22323 0.16211,0.40234 0.0537,0.16121 0.0801,0.3326 0.0801,0.51172 0,0.46571 -0.25043,1.28853 -0.75196,2.4707 -0.48362,1.16427 -0.72656,2.01539 -0.72656,2.55274 0,0.51944 0.17139,0.93931 0.51172,1.26172 0.35823,0.32241 0.84217,0.48437 1.45117,0.48437 1.07471,0 2.14047,-0.4745 3.19727,-1.42383 0.54126,-0.48621 1.01413,-1.01087 1.42382,-1.57226 -0.0372,0.26739 -0.0644,0.52063 -0.0644,0.74023 0,0.66274 0.18083,1.19936 0.53906,1.61133 0.35824,0.42988 0.86852,0.64453 1.53125,0.64453 1.07471,0 2.09527,-0.41986 3.0625,-1.26172 0.28694,-0.2452 0.54706,-0.52865 0.79297,-0.83007 -0.0125,0.14207 -0.0351,0.28768 -0.0351,0.42578 0,0.71647 0.1883,1.26252 0.56445,1.63867 0.35823,0.39406 0.83274,0.5918 1.42383,0.5918 0.62691,0 1.25395,-0.25043 1.88086,-0.75196 0.64482,-0.50153 1.36975,-1.29053 2.17578,-2.36523 -0.0537,0.3045 -0.0801,0.56436 -0.0801,0.7793 0,0.51944 0.16197,0.95817 0.48438,1.3164 0.34032,0.37615 0.82426,0.56446 1.45117,0.56446 0.96723,-2e-5 1.95202,-0.45565 2.95508,-1.36915 1.02097,-0.9135 1.80801,-2.08854 2.36328,-3.52148 l -0.26758,-0.26758 c -0.77021,1.34338 -1.54977,2.39029 -2.33789,3.14258 -0.78811,0.73438 -1.44149,1.10156 -1.96094,1.10156 -0.30449,0 -0.53801,-0.1148 -0.69922,-0.34765 -0.14324,-0.25076 -0.21484,-0.52949 -0.21484,-0.83399 0,-0.48362 0.25985,-1.19164 0.7793,-2.12305 0.10355,-0.18566 0.19528,-0.35479 0.27734,-0.50781 0.35381,-0.60067 0.57555,-1.29758 0.78125,-1.91797 0.0564,-0.20448 0.12241,-0.42035 0.16211,-0.62304 0.11077,-0.56556 0.15758,-0.88583 0.0508,-1.32618 -0.0753,-0.31052 -0.3232,-0.64003 -0.59961,-0.86328 -0.46571,-0.37615 -1.04753,-0.56445 -1.74609,-0.56445 -1.11053,0 -2.25729,0.46508 -3.43946,1.39649 -1.18218,0.9314 -2.15005,2.04238 -2.90234,3.33203 -0.35202,0.61818 -0.6136,1.20878 -0.79688,1.77343 -1.05994,1.64189 -2.13148,2.47266 -3.21289,2.47266 -0.4657,0 -0.80459,-0.10733 -1.01953,-0.32227 -0.19703,-0.23285 -0.29687,-0.6641 -0.29687,-1.29101 0,-0.73439 0.23351,-1.5855 0.69922,-2.55274 0.4657,-0.98514 0.93077,-1.86261 1.39648,-2.63281 0.46571,-0.7702 0.69922,-1.26162 0.69922,-1.47656 0,-0.39406 -0.19774,-0.5918 -0.5918,-0.5918 -0.57318,0 -1.17192,0.49337 -1.79883,1.47852 -0.62691,0.98514 -1.12971,2.06782 -1.50586,3.25 -0.0941,0.29588 -0.14035,0.53129 -0.21093,0.79687 -0.38853,0.65204 -0.93129,1.30888 -1.63281,1.97071 -0.93142,0.89558 -1.79197,1.34375 -2.58008,1.34375 -0.53736,0 -0.80469,-0.26929 -0.80469,-0.80664 0,-0.34033 0.22408,-1.02948 0.67187,-2.06836 0.4478,-1.0568 0.66993,-1.88157 0.66993,-2.47266 0,-0.51944 -0.1431,-0.98451 -0.42969,-1.39648 -0.28659,-0.42988 -0.59913,-0.75186 -0.93945,-0.9668 -0.34032,-0.21494 -0.65482,-0.43902 -0.94141,-0.67188 -0.28659,-0.25076 -0.42969,-0.48428 -0.42969,-0.69922 0,-0.0358 0.0452,-0.18835 0.13477,-0.45703 0.10747,-0.28658 0.16211,-0.46546 0.16211,-0.53711 0,-0.42988 -0.12619,-0.64453 -0.37696,-0.64453 -0.19702,0 -0.43801,0.18831 -0.72461,0.56446 -0.26867,0.35824 -0.40429,0.78005 -0.40429,1.26367 0,0.25076 0.0904,0.46541 0.26953,0.64453 -0.5061,1.48761 -1.11726,2.94578 -1.82031,4.38086 -0.68117,1.24516 -1.53777,2.30576 -2.58594,3.16797 -1.11053,0.9135 -2.21208,1.37109 -3.30469,1.37109 -1.41503,0 -2.12305,-0.75322 -2.12305,-2.25781 0,-0.34033 0.0358,-0.6623 0.10743,-0.9668 1.64788,-0.1612 3.17124,-0.74304 4.56836,-1.74609 1.39712,-1.00306 2.0957,-2.15924 2.0957,-3.4668 0,-1.09261 -0.55548,-1.63867 -1.66602,-1.63867 -1.5404,0 -3.06377,0.87746 -4.56836,2.63281 -1.19189,1.39054 -1.90268,2.74722 -2.15039,4.07031 -0.49816,0.79103 -1.03412,1.46733 -1.61523,2.00196 -0.89559,0.80602 -1.79939,1.20898 -2.71289,1.20898 -0.53735,0 -0.923402,-0.16001 -1.156255,-0.48242 -0.232853,-0.32241 -0.347656,-0.88733 -0.347656,-1.69336 0,-1.64788 0.491419,-3.59111 1.476561,-5.83008 h 0.4043 0.13281 c 1.16426,0 2.69706,-0.10732 4.59571,-0.32226 v -0.48438 c -1.07471,0.10748 -2.35513,0.16211 -3.8418,0.16211 h -0.99414 c 0.41197,-0.87768 0.92973,-1.87189 1.55664,-2.98242 0.64482,-1.11053 1.13819,-1.99742 1.47852,-2.66016 0.35823,-0.66273 0.5371,-1.12781 0.5371,-1.39648 0,-0.17912 -0.0621,-0.32418 -0.1875,-0.43164 -0.10747,-0.10748 -0.23365,-0.16016 -0.37695,-0.16016 z m 25.6543,2.14844 c -0.44779,0 -0.88652,0.14505 -1.31641,0.43164 -0.42988,0.28659 -0.64648,0.60856 -0.64648,0.9668 0,0.59108 0.36718,0.88672 1.10156,0.88672 0.42989,0 0.82536,-0.15254 1.18359,-0.45704 0.37615,-0.32241 0.56446,-0.66325 0.56446,-1.02148 0,-0.53735 -0.29563,-0.80664 -0.88672,-0.80664 z m -17.96485,5.05273 c 0.37615,0 0.56446,0.20522 0.56446,0.61719 0,1.02097 -0.58379,1.97941 -1.74805,2.875 -1.14635,0.89559 -2.34578,1.56783 -3.59961,2.01563 0.37615,-1.32548 1.05782,-2.57012 2.04297,-3.73438 0.98515,-1.18218 1.89838,-1.77344 2.74023,-1.77344 z m -19.041011,0.34766 c 0.730991,0 1.157152,0.34883 1.279297,1.04492 0.109581,0.43405 -0.0843,0.82178 -0.208984,1.19531 -0.237658,0.53521 -0.574007,1.02156 -0.900391,1.51172 l -0.304687,0.43946 c -0.232853,0.34033 -0.600034,0.83369 -1.101563,1.47851 -0.483617,0.62691 -0.905437,1.12776 -1.263672,1.50391 -0.358235,0.37615 -0.751758,0.71698 -1.18164,1.02148 -0.429882,0.3045 -0.806494,0.45703 -1.128907,0.45703 -0.483615,0 -0.724609,-0.35026 -0.724609,-1.04882 0,-0.87767 0.276767,-1.90767 0.832031,-3.08985 0.573176,-1.20009 1.300059,-2.24699 2.177735,-3.14258 0.895587,-0.9135 1.737273,-1.37109 2.52539,-1.37109 z m 44.130861,0 c 0.74253,0 1.17084,0.3599 1.28515,1.07812 0.0646,0.71674 -0.25637,1.29119 -0.55078,1.86133 -0.14687,0.22923 -0.31135,0.45038 -0.46875,0.67774 l -0.39843,0.57422 c -0.23285,0.34033 -0.60199,0.83369 -1.10352,1.47851 -0.48362,0.62691 -0.90349,1.12776 -1.26172,1.50391 -0.35824,0.37615 -0.75176,0.71698 -1.18164,1.02148 -0.42988,0.3045 -0.80651,0.45703 -1.1289,0.45703 -0.48363,0 -0.72461,-0.35026 -0.72461,-1.04882 0,-0.87767 0.27677,-1.90767 0.83203,-3.08985 0.57318,-1.20009 1.29811,-2.24699 2.17578,-3.14258 0.89559,-0.9135 1.73727,-1.37109 2.52539,-1.37109 z" style="font-style:normal;font-variant:normal;font-weight:normal;font-stretch:normal;font-family:'Dancing Script';-inkscape-font-specification:'Dancing Script';opacity:1;fill:#000000;fill-opacity:1;stroke-width:0.67169064"/>
  </g>
  <g id="text849" aria-label="Materia" transform="matrix(0.82121585,0,0,0.82121585,18.593518,24.146125)" style="font-style:normal;font-weight:normal;font-size:26.86762619px;line-height:1.25;font-family:sans-serif;letter-spacing:0px;word-spacing:0px;fill:#4285f4;fill-opacity:1;stroke:none;stroke-width:0.67169064">
   <path style="font-style:normal;font-variant:normal;font-weight:normal;font-stretch:normal;font-family:'Dancing Script';-inkscape-font-specification:'Dancing Script';opacity:1;fill:#4285f4;fill-opacity:1;stroke-width:0.67169064" id="path855" d="m 85.060547,117.30859 c -0.197029,0 -0.375905,0.0527 -0.537109,0.16016 -0.143294,0.0896 -0.269483,0.19689 -0.376954,0.32227 -0.08956,0.12538 -0.232658,0.33255 -0.429687,0.61914 -0.626911,0.93141 -1.368752,2.1045 -2.228516,3.51953 -0.859764,1.41503 -1.872845,3.29615 -3.037109,5.64258 -1.164263,2.34644 -1.960742,4.34234 -2.390625,5.99023 0.01791,-0.68065 0.115805,-2.29247 0.294922,-4.83594 0.179117,-2.56138 0.269531,-4.47827 0.269531,-5.75 0,-2.31061 -0.224081,-3.88666 -0.671875,-4.72851 -1.145544,0.20373 -1.460941,0.34461 -1.935547,1.50586 l -8.515625,18.88671 c 0.214941,0 0.420159,-0.0621 0.617188,-0.1875 0.214941,-0.10747 0.439022,-0.31268 0.671875,-0.61718 0.250765,-0.3045 0.474846,-0.64534 0.671875,-1.02149 0.214941,-0.35823 0.484229,-0.86103 0.80664,-1.50586 l 0.91211,-1.96093 1.074218,-2.49805 1.236329,-2.98242 1.478515,-3.59961 1.773438,-4.13867 c 0.03583,0.50153 0.05273,1.00433 0.05273,1.50586 0,0.93141 -0.07155,2.81999 -0.214844,5.66796 -0.143291,2.84797 -0.214843,4.76485 -0.214843,5.75 -10e-7,1.12844 0.08098,1.9607 0.242187,2.49805 0.179117,0.51944 0.491659,0.7793 0.939453,0.7793 0.07165,0 0.207268,-0.0357 0.404297,-0.10742 0.71647,-2.11359 1.808581,-4.78175 3.277344,-8.00586 1.468764,-3.24203 2.775523,-5.59764 3.921875,-7.06641 l -1.369141,5.29297 c -0.3045,1.27174 -0.600131,2.78567 -0.886719,4.54102 -0.286588,1.75535 -0.429687,3.30505 -0.429687,4.64843 0,1.14635 0.143099,1.9334 0.429687,2.36328 0.286588,0.42989 0.87785,0.64453 1.773438,0.64453 -0.03582,-0.14328 -0.09046,-0.32215 -0.16211,-0.5371 -0.07165,-0.21494 -0.114902,-0.37691 -0.132812,-0.48438 -0.01791,-0.0896 -0.04621,-0.24014 -0.08203,-0.45508 -0.01787,-0.19703 -0.02539,-0.43997 -0.02539,-0.72656 0,-1.61206 0.250424,-3.94881 0.751953,-7.01172 0.519441,-3.08082 1.082408,-5.80362 1.691407,-8.16797 0.358234,-1.43294 0.761191,-2.68701 1.208984,-3.76172 -0.322411,-0.12537 -0.60861,-0.1875 -0.859375,-0.1875 z m 18.828123,2.95508 c -0.51944,0 -1.23494,0.75127 -2.14844,2.25586 -0.89558,1.48667 -1.73727,3.25103 -2.525386,5.29297 -0.143294,0 -0.538771,-0.0358 -1.183594,-0.10742 v 0.48437 c 0.214941,0.0717 0.538868,0.1432 0.96875,0.21485 -0.591362,1.58036 -0.995259,2.93728 -1.25,4.11718 -0.657137,1.06652 -1.32024,1.93273 -1.990234,2.57227 -0.788117,0.73438 -1.441497,1.10156 -1.960938,1.10156 -0.304499,0 -0.538013,-0.1148 -0.699219,-0.34765 -0.143291,-0.25076 -0.214843,-0.52949 -0.214843,-0.83399 0,-0.48362 0.259856,-1.19164 0.779296,-2.12305 0.199731,-0.35812 0.361444,-0.65682 0.484376,-0.89843 0.229369,-0.48046 0.428368,-1.04069 0.585937,-1.45899 0.16529,-0.55678 0.323641,-1.2393 0.300781,-1.42968 0,-0.59109 -0.233515,-1.07503 -0.699218,-1.45118 -0.465705,-0.37615 -1.047535,-0.56445 -1.746094,-0.56445 -1.110529,0 -2.257278,0.46508 -3.439453,1.39649 -1.182175,0.9314 -2.148097,2.04238 -2.900391,3.33203 -0.734381,1.28965 -1.101562,2.46274 -1.101562,3.51953 -10e-7,0.71647 0.188306,1.26252 0.564453,1.63867 0.358235,0.39406 0.83274,0.5918 1.423828,0.5918 0.626911,0 1.253948,-0.25043 1.880859,-0.75196 0.644823,-0.50153 1.369752,-1.29053 2.175781,-2.36523 -0.05373,0.3045 -0.08008,0.56436 -0.08008,0.7793 0,0.51944 0.160011,0.95817 0.482422,1.3164 0.340323,0.37615 0.824261,0.56446 1.451172,0.56446 0.967235,0 1.95202,-0.45565 2.955078,-1.36915 0.583411,-0.522 1.08208,-1.1399 1.513672,-1.83203 -0.03784,0.33902 -0.07422,0.67671 -0.07422,0.97071 0,1.77326 0.796479,2.66015 2.390625,2.66015 1.235912,0 2.418442,-0.49141 3.546882,-1.47656 0.54114,-0.48101 1.02494,-1.02997 1.45898,-1.63867 0.0114,0.88739 0.28449,1.6146 0.82813,2.17578 0.57318,0.59109 1.38851,0.88672 2.44531,0.88672 1.34338,0 2.65209,-0.48394 3.92383,-1.45117 0.9577,-0.7284 1.75758,-1.63482 2.40039,-2.71875 l 0.0156,0.0312 c 0.7523,-1.28964 1.55073,-3.00879 2.39258,-5.15821 0.0358,0.0358 0.14315,0.11681 0.32227,0.24219 0.19702,0.12538 0.32126,0.21385 0.375,0.26758 l 0.29687,0.26953 c 0.14331,0.12538 0.23178,0.24214 0.26758,0.34961 0.0537,0.0896 0.10837,0.22323 0.16211,0.40234 0.0537,0.16121 0.0801,0.3326 0.0801,0.51172 0,0.46571 -0.25043,1.28853 -0.75196,2.4707 -0.48362,1.16427 -0.72656,2.01539 -0.72656,2.55274 0,0.51944 0.17139,0.93931 0.51172,1.26172 0.35823,0.32241 0.84217,0.48437 1.45117,0.48437 1.07471,0 2.14047,-0.4745 3.19727,-1.42383 0.54126,-0.48621 1.01413,-1.01087 1.42382,-1.57226 -0.0372,0.26739 -0.0644,0.52063 -0.0644,0.74023 0,0.66274 0.18083,1.19936 0.53906,1.61133 0.35824,0.42988 0.86852,0.64453 1.53125,0.64453 1.07471,0 2.09527,-0.41986 3.0625,-1.26172 0.28694,-0.2452 0.54706,-0.52865 0.79297,-0.83007 -0.0125,0.14207 -0.0351,0.28768 -0.0351,0.42578 0,0.71647 0.1883,1.26252 0.56445,1.63867 0.35823,0.39406 0.83274,0.5918 1.42383,0.5918 0.62691,0 1.25395,-0.25043 1.88086,-0.75196 0.64482,-0.50153 1.36975,-1.29053 2.17578,-2.36523 -0.0537,0.3045 -0.0801,0.56436 -0.0801,0.7793 0,0.51944 0.16197,0.95817 0.48438,1.3164 0.34032,0.37615 0.82426,0.56446 1.45117,0.56446 0.96723,-2e-5 1.95202,-0.45565 2.95508,-1.36915 1.02097,-0.9135 1.80801,-2.08854 2.36328,-3.52148 l -0.26758,-0.26758 c -0.77021,1.34338 -1.54977,2.39029 -2.33789,3.14258 -0.78811,0.73438 -1.44149,1.10156 -1.96094,1.10156 -0.30449,0 -0.53801,-0.1148 -0.69922,-0.34765 -0.14324,-0.25076 -0.21484,-0.52949 -0.21484,-0.83399 0,-0.48362 0.25985,-1.19164 0.7793,-2.12305 0.10355,-0.18566 0.19528,-0.35479 0.27734,-0.50781 0.35381,-0.60067 0.57555,-1.29758 0.78125,-1.91797 0.0564,-0.20448 0.12241,-0.42035 0.16211,-0.62304 0.11077,-0.56556 0.15758,-0.88583 0.0508,-1.32618 -0.0753,-0.31052 -0.3232,-0.64003 -0.59961,-0.86328 -0.46571,-0.37615 -1.04753,-0.56445 -1.74609,-0.56445 -1.11053,0 -2.25729,0.46508 -3.43946,1.39649 -1.18218,0.9314 -2.15005,2.04238 -2.90234,3.33203 -0.35202,0.61818 -0.6136,1.20878 -0.79688,1.77343 -1.05994,1.64189 -2.13148,2.47266 -3.21289,2.47266 -0.4657,0 -0.80459,-0.10733 -1.01953,-0.32227 -0.19703,-0.23285 -0.29687,-0.6641 -0.29687,-1.29101 0,-0.73439 0.23351,-1.5855 0.69922,-2.55274 0.4657,-0.98514 0.93077,-1.86261 1.39648,-2.63281 0.46571,-0.7702 0.69922,-1.26162 0.69922,-1.47656 0,-0.39406 -0.19774,-0.5918 -0.5918,-0.5918 -0.57318,0 -1.17192,0.49337 -1.79883,1.47852 -0.62691,0.98514 -1.12971,2.06782 -1.50586,3.25 -0.0941,0.29588 -0.14035,0.53129 -0.21093,0.79687 -0.38853,0.65204 -0.93129,1.30888 -1.63281,1.97071 -0.93142,0.89558 -1.79197,1.34375 -2.58008,1.34375 -0.53736,0 -0.80469,-0.26929 -0.80469,-0.80664 0,-0.34033 0.22408,-1.02948 0.67187,-2.06836 0.4478,-1.0568 0.66993,-1.88157 0.66993,-2.47266 0,-0.51944 -0.1431,-0.98451 -0.42969,-1.39648 -0.28659,-0.42988 -0.59913,-0.75186 -0.93945,-0.9668 -0.34032,-0.21494 -0.65482,-0.43902 -0.94141,-0.67188 -0.28659,-0.25076 -0.42969,-0.48428 -0.42969,-0.69922 0,-0.0358 0.0452,-0.18835 0.13477,-0.45703 0.10747,-0.28658 0.16211,-0.46546 0.16211,-0.53711 0,-0.42988 -0.12619,-0.64453 -0.37696,-0.64453 -0.19702,0 -0.43801,0.18831 -0.72461,0.56446 -0.26867,0.35824 -0.40429,0.78005 -0.40429,1.26367 0,0.25076 0.0904,0.46541 0.26953,0.64453 -0.5061,1.48761 -1.11726,2.94578 -1.82031,4.38086 -0.68117,1.24516 -1.53777,2.30576 -2.58594,3.16797 -1.11053,0.9135 -2.21208,1.37109 -3.30469,1.37109 -1.41503,0 -2.12305,-0.75322 -2.12305,-2.25781 0,-0.34033 0.0358,-0.6623 0.10743,-0.9668 1.64788,-0.1612 3.17124,-0.74304 4.56836,-1.74609 1.39712,-1.00306 2.0957,-2.15924 2.0957,-3.4668 0,-1.09261 -0.55548,-1.63867 -1.66602,-1.63867 -1.5404,0 -3.06377,0.87746 -4.56836,2.63281 -1.19189,1.39054 -1.90268,2.74722 -2.15039,4.07031 -0.49816,0.79103 -1.03412,1.46733 -1.61523,2.00196 -0.89559,0.80602 -1.79939,1.20898 -2.71289,1.20898 -0.53735,0 -0.923402,-0.16001 -1.156255,-0.48242 -0.232853,-0.32241 -0.347656,-0.88733 -0.347656,-1.69336 0,-1.64788 0.491419,-3.59111 1.476561,-5.83008 h 0.4043 0.13281 c 1.16426,0 2.69706,-0.10732 4.59571,-0.32226 v -0.48438 c -1.07471,0.10748 -2.35513,0.16211 -3.8418,0.16211 h -0.99414 c 0.41197,-0.87768 0.92973,-1.87189 1.55664,-2.98242 0.64482,-1.11053 1.13819,-1.99742 1.47852,-2.66016 0.35823,-0.66273 0.5371,-1.12781 0.5371,-1.39648 0,-0.17912 -0.0621,-0.32418 -0.1875,-0.43164 -0.10747,-0.10748 -0.23365,-0.16016 -0.37695,-0.16016 z m 25.6543,2.14844 c -0.44779,0 -0.88652,0.14505 -1.31641,0.43164 -0.42988,0.28659 -0.64648,0.60856 -0.64648,0.9668 0,0.59108 0.36718,0.88672 1.10156,0.88672 0.42989,0 0.82536,-0.15254 1.18359,-0.45704 0.37615,-0.32241 0.56446,-0.66325 0.56446,-1.02148 0,-0.53735 -0.29563,-0.80664 -0.88672,-0.80664 z m -17.96485,5.05273 c 0.37615,0 0.56446,0.20522 0.56446,0.61719 0,1.02097 -0.58379,1.97941 -1.74805,2.875 -1.14635,0.89559 -2.34578,1.56783 -3.59961,2.01563 0.37615,-1.32548 1.05782,-2.57012 2.04297,-3.73438 0.98515,-1.18218 1.89838,-1.77344 2.74023,-1.77344 z m -19.041011,0.34766 c 0.730991,0 1.157152,0.34883 1.279297,1.04492 0.109581,0.43405 -0.0843,0.82178 -0.208984,1.19531 -0.237658,0.53521 -0.574007,1.02156 -0.900391,1.51172 l -0.304687,0.43946 c -0.232853,0.34033 -0.600034,0.83369 -1.101563,1.47851 -0.483617,0.62691 -0.905437,1.12776 -1.263672,1.50391 -0.358235,0.37615 -0.751758,0.71698 -1.18164,1.02148 -0.429882,0.3045 -0.806494,0.45703 -1.128907,0.45703 -0.483615,0 -0.724609,-0.35026 -0.724609,-1.04882 0,-0.87767 0.276767,-1.90767 0.832031,-3.08985 0.573176,-1.20009 1.300059,-2.24699 2.177735,-3.14258 0.895587,-0.9135 1.737273,-1.37109 2.52539,-1.37109 z m 44.130861,0 c 0.74253,0 1.17084,0.3599 1.28515,1.07812 0.0646,0.71674 -0.25637,1.29119 -0.55078,1.86133 -0.14687,0.22923 -0.31135,0.45038 -0.46875,0.67774 l -0.39843,0.57422 c -0.23285,0.34033 -0.60199,0.83369 -1.10352,1.47851 -0.48362,0.62691 -0.90349,1.12776 -1.26172,1.50391 -0.35824,0.37615 -0.75176,0.71698 -1.18164,1.02148 -0.42988,0.3045 -0.80651,0.45703 -1.1289,0.45703 -0.48363,0 -0.72461,-0.35026 -0.72461,-1.04882 0,-0.87767 0.27677,-1.90767 0.83203,-3.08985 0.57318,-1.20009 1.29811,-2.24699 2.17578,-3.14258 0.89559,-0.9135 1.73727,-1.37109 2.52539,-1.37109 z"/>
  </g>
 </g>
 <g id="MinuteHand">
  <rect id="rect851" width="6" height="94" x="234" y="113" rx="3" ry="3" style="opacity:0.05;fill:none;fill-opacity:1;stroke:#000000;stroke-width:2;stroke-linecap:round;stroke-linejoin:bevel;stroke-miterlimit:4;stroke-dasharray:none;stroke-opacity:1"/>
  <rect style="opacity:0.05;fill:none;fill-opacity:1;stroke:#000000;stroke-width:1;stroke-linecap:round;stroke-linejoin:bevel;stroke-miterlimit:4;stroke-dasharray:none;stroke-opacity:1" id="rect849" width="6" height="94" x="234" y="113" rx="3" ry="3"/>
  <rect id="rect845" width="6" height="94" x="234" y="113" rx="3" ry="3" style="opacity:1;fill:#dfdfdf;fill-opacity:1;stroke:none;stroke-width:1.64784324;stroke-linecap:round;stroke-linejoin:bevel;stroke-miterlimit:4;stroke-dasharray:none;stroke-opacity:1"/>
 </g>
</svg>
