<svg xmlns="http://www.w3.org/2000/svg" id="svg2" width="106" height="64" version="1.1" viewBox="0 0 106 64">
 <rect id="hint-tile-center" width="2" height="2" x="0" y="34" style="opacity:1;fill:#ff2a2a;fill-opacity:1;stroke:none"/>
 <path id="groove-bottomright" d="m 7,51 v 1 h 1 v -1 z" style="opacity:1;fill:#475359;fill-opacity:1;stroke:none"/>
 <path id="groove-right" d="m 7,49 v 1 h 1 v -1 z" style="opacity:1;fill:#475359;fill-opacity:1;stroke:none"/>
 <path id="groove-topright" d="m 7,47 v 1 h 1 v -1 z" style="opacity:1;fill:#475359;fill-opacity:1;stroke:none"/>
 <path id="groove-bottomleft" d="m 3,51 v 1 h 1 v -1 z" style="opacity:1;fill:#475359;fill-opacity:1;stroke:none"/>
 <path id="groove-left" d="m 3,49 v 1 h 1 v -1 z" style="opacity:1;fill:#475359;fill-opacity:1;stroke:none"/>
 <path id="groove-topleft" d="M 4,47 H 3 v 1 h 1 z" style="opacity:1;fill:#475359;fill-opacity:1;stroke:none"/>
 <path id="groove-bottom" d="m 5,51 v 1 h 1 v -1 z" style="opacity:1;fill:#475359;fill-opacity:1;stroke:none"/>
 <path id="groove-center" d="M 6,49 H 5 v 1 h 1 z" style="opacity:1;fill:#475359;fill-opacity:1;stroke:none"/>
 <path id="groove-top" d="m 5,47 v 1 h 1 v -1 z" style="opacity:1;fill:#475359;fill-opacity:1;stroke:none"/>
 <path id="groove-highlight-bottomright" d="m 7,60 v 1 h 1 v -1 z" style="opacity:1;fill:#01a299;fill-opacity:1;stroke:none"/>
 <path id="groove-highlight-right" d="m 7,58 v 1 h 1 v -1 z" style="opacity:1;fill:#01a299;fill-opacity:1;stroke:none"/>
 <path id="groove-highlight-topright" d="m 7,56 v 1 h 1 v -1 z" style="opacity:1;fill:#01a299;fill-opacity:1;stroke:none"/>
 <path id="groove-highlight-bottomleft" d="m 3,60 v 1 h 1 v -1 z" style="opacity:1;fill:#01a299;fill-opacity:1;stroke:none"/>
 <path id="groove-highlight-left" d="m 3,58 v 1 h 1 v -1 z" style="opacity:1;fill:#01a299;fill-opacity:1;stroke:none"/>
 <path id="groove-highlight-topleft" d="M 4,56 H 3 v 1 h 1 z" style="opacity:1;fill:#01a299;fill-opacity:1;stroke:none"/>
 <path id="groove-highlight-bottom" d="m 5,60 v 1 h 1 v -1 z" style="opacity:1;fill:#01a299;fill-opacity:1;stroke:none"/>
 <path id="groove-highlight-center" d="M 6,58 H 5 v 1 h 1 z" style="opacity:1;fill:#01a299;fill-opacity:1;stroke:none"/>
 <path id="groove-highlight-top" d="m 5,56 v 1 h 1 v -1 z" style="opacity:1;fill:#01a299;fill-opacity:1;stroke:none"/>
 <g id="horizontal-slider-handle" transform="translate(-15.000004,28.000002)">
  <rect id="rect1851" width="32" height="32" x="25" y="4" style="opacity:0;fill:#000000;fill-opacity:1;fill-rule:nonzero;stroke:none;stroke-width:3.95016599;stroke-linecap:square;stroke-linejoin:round;stroke-miterlimit:4;stroke-dasharray:none;stroke-opacity:1"/>
  <circle style="opacity:1;fill:#01a299;fill-opacity:1;stroke:none;stroke-width:0.875;stroke-miterlimit:4;stroke-dasharray:none" id="circle1845" cx="41" cy="20" r="7"/>
 </g>
 <g id="horizontal-slider-hover" transform="translate(17,28)">
  <rect style="opacity:0;fill:#000000;fill-opacity:1;fill-rule:nonzero;stroke:none;stroke-width:3.95016599;stroke-linecap:square;stroke-linejoin:round;stroke-miterlimit:4;stroke-dasharray:none;stroke-opacity:1" id="rect869" width="32" height="32" x="25" y="4"/>
  <circle style="opacity:0.2;fill:#01a299;fill-opacity:1;stroke:none;stroke-width:2;stroke-miterlimit:4;stroke-dasharray:none" id="circle878" cx="41" cy="20" r="16"/>
  <circle id="circle871" cx="41" cy="20" r="7" style="opacity:1;fill:#01a299;fill-opacity:1;stroke:none;stroke-width:0.875;stroke-miterlimit:4;stroke-dasharray:none"/>
 </g>
 <g id="horizontal-slider-focus" transform="translate(49,28)">
  <rect id="rect885" width="32" height="32" x="25" y="4" style="opacity:0;fill:#000000;fill-opacity:1;fill-rule:nonzero;stroke:none;stroke-width:3.95016599;stroke-linecap:square;stroke-linejoin:round;stroke-miterlimit:4;stroke-dasharray:none;stroke-opacity:1"/>
  <circle id="circle887" cx="41" cy="20" r="16" style="opacity:0.3;fill:#01a299;fill-opacity:1;stroke:none;stroke-width:2;stroke-miterlimit:4;stroke-dasharray:none"/>
  <circle style="opacity:1;fill:#01a299;fill-opacity:1;stroke:none;stroke-width:0.875;stroke-miterlimit:4;stroke-dasharray:none" id="circle890" cx="41" cy="20" r="7"/>
 </g>
 <g id="vertical-slider-handle" transform="translate(-15.000004,-3.999996)">
  <rect style="opacity:0;fill:#000000;fill-opacity:1;fill-rule:nonzero;stroke:none;stroke-width:3.95016599;stroke-linecap:square;stroke-linejoin:round;stroke-miterlimit:4;stroke-dasharray:none;stroke-opacity:1" id="rect894" width="32" height="32" x="25" y="4"/>
  <circle id="circle896" cx="41" cy="20" r="7" style="opacity:1;fill:#01a299;fill-opacity:1;stroke:none;stroke-width:0.875;stroke-miterlimit:4;stroke-dasharray:none"/>
 </g>
 <g id="vertical-slider-hover" transform="translate(17,-3.999999)">
  <rect id="rect900" width="32" height="32" x="25" y="4" style="opacity:0;fill:#000000;fill-opacity:1;fill-rule:nonzero;stroke:none;stroke-width:3.95016599;stroke-linecap:square;stroke-linejoin:round;stroke-miterlimit:4;stroke-dasharray:none;stroke-opacity:1"/>
  <circle id="circle902" cx="41" cy="20" r="16" style="opacity:0.2;fill:#01a299;fill-opacity:1;stroke:none;stroke-width:2;stroke-miterlimit:4;stroke-dasharray:none"/>
  <circle style="opacity:1;fill:#01a299;fill-opacity:1;stroke:none;stroke-width:0.875;stroke-miterlimit:4;stroke-dasharray:none" id="circle904" cx="41" cy="20" r="7"/>
 </g>
 <g id="vertical-slider-focus" transform="translate(49,-3.999999)">
  <rect style="opacity:0;fill:#000000;fill-opacity:1;fill-rule:nonzero;stroke:none;stroke-width:3.95016599;stroke-linecap:square;stroke-linejoin:round;stroke-miterlimit:4;stroke-dasharray:none;stroke-opacity:1" id="rect908" width="32" height="32" x="25" y="4"/>
  <circle style="opacity:0.3;fill:#01a299;fill-opacity:1;stroke:none;stroke-width:2;stroke-miterlimit:4;stroke-dasharray:none" id="circle910" cx="41" cy="20" r="16"/>
  <circle id="circle912" cx="41" cy="20" r="7" style="opacity:1;fill:#01a299;fill-opacity:1;stroke:none;stroke-width:0.875;stroke-miterlimit:4;stroke-dasharray:none"/>
 </g>
</svg>
