<svg xmlns="http://www.w3.org/2000/svg" width="744.094" height="1052.362" version="1.1">
 <rect id="hint-tile-center" style="opacity:0.875;fill:#008000" width="41.363" height="41.121" x="-233.82" y="467.13"/>
 <g id="south-active-tab-top" transform="matrix(1,0,0,0.66617697,236.00001,192.96482)">
  <path style="fill:#dfdfdf" d="m 40,359.36218 80,0 0,3 -80,0 z"/>
 </g>
 <g id="south-active-tab-topleft" transform="matrix(1,0,0,0.66617697,236.00001,192.96482)">
  <rect style="opacity:0;fill:#e4e6e8" width="10" height="3" x="30" y="359.36"/>
  <path style="fill:#dfdfdf" d="m 39.999989,359.36221 0,2.99998 c -4.002873,10e-6 -6.999999,-1.1e-4 -6.999999,-1.1e-4 0,0 0,-0.50072 0,-1 1e-6,-0.60192 0,-2 0,-2 0,0 3.407671,1.2e-4 6.999999,1.3e-4 z"/>
 </g>
 <g id="south-active-tab-topright" transform="matrix(1,0,0,0.66617697,236.00001,192.96482)">
  <rect style="opacity:0;fill:#e4e6e8" width="10" height="3" x="120" y="359.36"/>
  <path style="fill:#dfdfdf" d="m 119.99999,359.36221 c 3.67335,-1e-5 7,-1.3e-4 7,-1.3e-4 0,0 0,0.91846 0,1.50012 0,0.54321 0,1.49988 0,1.49988 0,0 -3.17283,1.2e-4 -7,1.1e-4 z"/>
 </g>
 <rect id="south-active-tab-left" style="opacity:0;fill:#e4e6e8" width="10" height="12" x="266" y="434.36"/>
 <rect id="south-active-tab-center" style="opacity:0;fill:#e4e6e8" width="80" height="12" x="276" y="434.36"/>
 <rect id="south-active-tab-right" style="opacity:0;fill:#e4e6e8" width="10" height="12" x="356" y="434.36"/>
 <rect id="south-active-tab-bottomright" style="opacity:0;fill:#e4e6e8" width="10" height="4" x="356" y="446.36"/>
 <rect id="south-active-tab-bottom" style="opacity:0;fill:#e4e6e8" width="80" height="4" x="276" y="446.36"/>
 <rect id="south-active-tab-bottomleft" style="opacity:0;fill:#e4e6e8" width="10" height="4" x="266" y="446.36"/>
 <rect id="south-active-tab-hint-left-margin" style="fill:#4e9a06" width="6" height="5" x="266" y="437.36"/>
 <rect id="south-active-tab-hint-right-margin" style="fill:#4e9a06" width="6" height="5" x="360" y="437.36"/>
 <rect id="south-active-tab-hint-top-margin" style="fill:#4e9a06" width="5" height="8" x="314" y="432.36"/>
 <rect id="south-active-tab-hint-bottom-margin" style="fill:#4e9a06" width="5" height="4" x="314" y="446.36"/>
 <rect id="east-active-tab-bottom" style="opacity:0;fill:#e4e6e8" width="10" height="12" x="-366.06" y="409" transform="matrix(0,-1,1,0,0,0)"/>
 <rect id="east-active-tab-center" style="opacity:0;fill:#e4e6e8" width="80" height="12" x="-356.06" y="409" transform="matrix(0,-1,1,0,0,0)"/>
 <rect id="east-active-tab-top" style="opacity:0;fill:#e4e6e8" width="10" height="12" x="-276.06" y="409" transform="matrix(0,-1,1,0,0,0)"/>
 <rect id="east-active-tab-topright" style="opacity:0;fill:#e4e6e8" width="10" height="4" x="-276.06" y="421" transform="matrix(0,-1,1,0,0,0)"/>
 <rect id="east-active-tab-right" style="opacity:0;fill:#e4e6e8" width="80" height="4" x="-356.06" y="421" transform="matrix(0,-1,1,0,0,0)"/>
 <rect id="east-active-tab-bottomright" style="opacity:0;fill:#e4e6e8" width="10" height="4" x="-366.06" y="421" transform="matrix(0,-1,1,0,0,0)"/>
 <rect id="east-active-tab-hint-bottom-margin" style="fill:#4e9a06" width="6" height="5" x="-366.36" y="412" transform="matrix(0,-1,1,0,0,0)"/>
 <rect id="east-active-tab-hint-top-margin" style="fill:#4e9a06" width="6" height="5" x="-272.36" y="412" transform="matrix(0,-1,1,0,0,0)"/>
 <g id="east-active-tab-left" transform="matrix(0,1,-0.66570362,0,646.22559,236.36218)">
  <path style="fill:#dfdfdf" d="m 40,359.36218 80,0 0,3 -80,0 z"/>
 </g>
 <rect id="east-active-tab-hint-left-margin" style="fill:#4e9a06" width="5" height="8" x="-312.36" y="405" transform="matrix(0,-1,1,0,0,0)"/>
 <rect id="east-active-tab-hint-right-margin" style="fill:#4e9a06" width="5" height="4" x="-312.36" y="421" transform="matrix(0,-1,1,0,0,0)"/>
 <rect id="west-active-tab-top" style="opacity:0;fill:#e4e6e8" width="10" height="12" x="266.36" y="-216" transform="matrix(0,1,-1,0,0,0)"/>
 <rect id="west-active-tab-center" style="opacity:0;fill:#e4e6e8" width="80" height="12" x="276.36" y="-216" transform="matrix(0,1,-1,0,0,0)"/>
 <rect id="west-active-tab-bottom" style="opacity:0;fill:#e4e6e8" width="10" height="12" x="356.36" y="-216" transform="matrix(0,1,-1,0,0,0)"/>
 <rect id="west-active-tab-bottomleft" style="opacity:0;fill:#e4e6e8" width="10" height="4" x="356.36" y="-204" transform="matrix(0,1,-1,0,0,0)"/>
 <rect id="west-active-tab-left" style="opacity:0;fill:#e4e6e8" width="80" height="4" x="276.36" y="-204" transform="matrix(0,1,-1,0,0,0)"/>
 <rect id="west-active-tab-topleft" style="opacity:0;fill:#e4e6e8" width="10" height="4" x="266.36" y="-204" transform="matrix(0,1,-1,0,0,0)"/>
 <rect id="west-active-tab-hint-top-margin" style="fill:#4e9a06" width="6" height="5" x="266.36" y="-213" transform="matrix(0,1,-1,0,0,0)"/>
 <rect id="west-active-tab-hint-bottom-margin" style="fill:#4e9a06" width="6" height="5" x="360.36" y="-213" transform="matrix(0,1,-1,0,0,0)"/>
 <g id="west-active-tab-right" transform="matrix(0,1,-0.6661771,0,458.39739,236.36218)">
  <path style="fill:#dfdfdf" d="m 40,359.36218 80,0 0,3 -80,0 z"/>
 </g>
 <g id="west-active-tab-topright" transform="matrix(0,1,-0.6661771,0,458.39739,236.36218)">
  <rect style="opacity:0;fill:#e4e6e8" width="10" height="3" x="30" y="359.36"/>
  <path style="fill:#dfdfdf" d="m 39.999989,359.36221 0,2.99998 c -3.767297,0 -7.000108,0 -7.000108,0 0,0 1.1e-4,-0.94183 1.1e-4,-1.5 4e-6,-0.45273 -1.1e-4,-1.5 -1.1e-4,-1.5 0,0 2.811044,10e-6 7.000108,2e-5 z"/>
 </g>
 <g id="west-active-tab-bottomright" transform="matrix(0,1,-0.6661771,0,458.39739,236.36218)">
  <rect style="opacity:0;fill:#e4e6e8" width="10" height="3" x="120" y="359.36"/>
  <path style="fill:#dfdfdf" d="m 119.99999,359.36221 c 4.70659,-2e-5 6.99989,-2e-5 6.99989,-2e-5 0,0 1.1e-4,1.17665 1.1e-4,1.5 0,0.55726 -1.1e-4,1.5 -1.1e-4,1.5 0,0 -3.22893,0 -6.99989,0 z"/>
 </g>
 <rect id="west-active-tab-hint-right-margin" style="fill:#4e9a06" width="5" height="8" x="307.36" y="-219" transform="matrix(0,1,-1,0,0,0)"/>
 <rect id="west-active-tab-hint-left-margin" style="fill:#4e9a06" width="5" height="4" x="307.36" y="-204" transform="matrix(0,1,-1,0,0,0)"/>
 <rect id="north-active-tab-right" style="opacity:0;fill:#e4e6e8" width="10" height="12" x="-373" y="-226.36" transform="scale(-1,-1)"/>
 <rect id="north-active-tab-center" style="opacity:0;fill:#e4e6e8" width="80" height="12" x="-363" y="-226.36" transform="scale(-1,-1)"/>
 <rect id="north-active-tab-left" style="opacity:0;fill:#e4e6e8" width="10" height="12" x="-283" y="-226.36" transform="scale(-1,-1)"/>
 <rect id="north-active-tab-topleft" style="opacity:0;fill:#e4e6e8" width="10" height="4" x="-283" y="-214.36" transform="scale(-1,-1)"/>
 <rect id="north-active-tab-top" style="opacity:0;fill:#e4e6e8" width="80" height="4" x="-363" y="-214.36" transform="scale(-1,-1)"/>
 <rect id="north-active-tab-topright" style="opacity:0;fill:#e4e6e8" width="10" height="4" x="-373" y="-214.36" transform="scale(-1,-1)"/>
 <rect id="north-focus-hint-right-margin" style="fill:#4e9a06" width="6" height="5" x="-373" y="-223.36" transform="scale(-1,-1)"/>
 <rect id="north-focus-hint-left-margin" style="fill:#4e9a06" width="6" height="5" x="-279" y="-223.36" transform="scale(-1,-1)"/>
 <g id="north-active-tab-bottom" transform="matrix(1,0,0,0.66617489,243,-11.034407)">
  <path style="fill:#dfdfdf" d="m 40,359.36218 80,0 0,3 -80,0 z"/>
 </g>
 <rect id="north-focus-hint-bottom-margin" style="fill:#4e9a06" width="5" height="8" x="-319" y="-230.36" transform="scale(-1,-1)"/>
 <rect id="north-focus-hint-top-margin" style="fill:#4e9a06" width="5" height="4" x="-319" y="-214.36" transform="scale(-1,-1)"/>
 <g id="north-active-tab-bottomleft" transform="matrix(1,0,0,0.66617489,243,-11.034407)">
  <rect style="opacity:0;fill:#e4e6e8" width="10" height="3" x="30" y="359.36"/>
  <path style="fill:#dfdfdf" d="m 39.999989,359.36221 0,2.99998 c -3.409947,0 -6.999989,-1.2e-4 -6.999989,-1.2e-4 0,0 -6e-6,-0.85237 -1.1e-5,-1.49988 4e-6,-0.61099 1.1e-5,-1.50012 1.1e-5,-1.50012 0,0 7,0 6.999989,1.4e-4 z"/>
 </g>
 <g id="north-active-tab-bottomright" transform="matrix(1,0,0,0.66617489,0,76.900684)">
  <rect style="opacity:0;fill:#e4e6e8" width="10" height="3" x="363" y="227.36"/>
  <rect style="opacity:0;fill:#e4e6e8" width="10" height="3" x="363" y="227.36"/>
  <path style="fill:#dfdfdf" d="m 363,227.36221 c 4.05485,-2e-5 7,-1.5e-4 7,-1.5e-4 0,0 0,1.01383 0,1.50012 0,0.61168 0,1.49988 0,1.49988 0,0 -3.44673,1.2e-4 -7,1.3e-4 z"/>
 </g>
 <g id="east-active-tab-topleft" transform="matrix(0,1,-0.66570362,0,646.22559,236.36218)">
  <rect style="opacity:0;fill:#e4e6e8" width="10" height="3" x="30" y="359.36"/>
  <path style="fill:#dfdfdf" d="m 39.999989,359.36221 0,2.99998 c -4.1908,0.003 -7.000108,2.3e-4 -7.000108,2.3e-4 0,0 0.0047,-1.11514 1.08e-4,-1.58523 0.007,-0.63828 -1.08e-4,-1.41477 -1.08e-4,-1.41477 0,0 3.798335,-0.007 7.000108,-2.1e-4 z"/>
 </g>
 <g id="east-active-tab-bottomleft" transform="matrix(0,1,-0.66570362,0,646.22559,236.36218)">
  <rect style="opacity:0;fill:#e4e6e8" width="10" height="3" x="120" y="359.36"/>
  <path style="fill:#dfdfdf" d="m 119.99999,359.36221 c 3.69017,0.002 6.99989,2.1e-4 6.99989,2.1e-4 0,0 1.1e-4,0.87118 1.1e-4,1.41477 -10e-4,0.51392 -1.1e-4,1.58523 -1.1e-4,1.58523 0,0 -2.97246,-0.0104 -6.99989,-2.3e-4 z"/>
 </g>
</svg>
