<svg xmlns="http://www.w3.org/2000/svg" id="svg8" width="12" height="12" version="1.1" viewBox="0 0 12 12">
 <g id="g837">
  <rect style="opacity:0.001;fill:#000000;fill-opacity:1;stroke:none;stroke-width:3.19938183;stroke-linecap:round;stroke-linejoin:bevel;stroke-miterlimit:4;stroke-dasharray:none;stroke-opacity:1" id="rect817" width="12" height="12" x="0" y="-.01"/>
  <rect id="rect825" width="8" height="5" x="2" y="6" rx="1" ry="1" style="opacity:1;fill:#dfdfdf;fill-opacity:1;stroke:none;stroke-width:6.34753275;stroke-linecap:round;stroke-linejoin:round;stroke-miterlimit:4;stroke-dasharray:none;stroke-opacity:1"/>
  <path id="rect829" d="M 6 1 C 4.338 1 3 2.338 3 4 L 3 8 C 3 9.662 4.338 11 6 11 C 7.662 11 9 9.662 9 8 L 9 4 C 9 2.338 7.662 1 6 1 z M 6 3 C 6.5885945 3 7 3.4114055 7 4 L 7 8 C 7 8.5885945 6.5885945 9 6 9 C 5.4114055 9 5 8.5885945 5 8 L 5 4 C 5 3.4114055 5.4114055 3 6 3 z" style="color:#000000;font-style:normal;font-variant:normal;font-weight:normal;font-stretch:normal;font-size:medium;line-height:normal;font-family:sans-serif;font-variant-ligatures:normal;font-variant-position:normal;font-variant-caps:normal;font-variant-numeric:normal;font-variant-alternates:normal;font-feature-settings:normal;text-indent:0;text-align:start;text-decoration:none;text-decoration-line:none;text-decoration-style:solid;text-decoration-color:#000000;letter-spacing:normal;word-spacing:normal;text-transform:none;writing-mode:lr-tb;direction:ltr;text-orientation:mixed;dominant-baseline:auto;baseline-shift:baseline;text-anchor:start;white-space:normal;shape-padding:0;clip-rule:nonzero;display:inline;overflow:visible;visibility:visible;opacity:1;isolation:auto;mix-blend-mode:normal;color-interpolation:sRGB;color-interpolation-filters:linearRGB;solid-color:#000000;solid-opacity:1;vector-effect:none;fill:#dfdfdf;fill-opacity:1;fill-rule:nonzero;stroke:none;stroke-width:4;stroke-linecap:round;stroke-linejoin:round;stroke-miterlimit:4;stroke-dasharray:none;stroke-dashoffset:0;stroke-opacity:1;color-rendering:auto;image-rendering:auto;shape-rendering:auto;text-rendering:auto;enable-background:accumulate"/>
 </g>
</svg>
