<svg xmlns="http://www.w3.org/2000/svg" width="24" height="24" version="1.1">
 <g transform="translate(1,1)">
  <rect style="opacity:0.001" width="24" height="24" x="-1" y="-1"/>
  <path style="opacity:1;fill:#dfdfdf" d="m 7.0031447,7.0002283 h 0.999607 c 0.010366,-1.2e-4 0.020782,-4.6e-4 0.031238,0 0.2548508,0.0112 0.5096696,0.1285762 0.6872298,0.3124908 l 2.2803535,2.2811834 2.311591,-2.2811834 c 0.26552,-0.2304932 0.446496,-0.305491 0.687229,-0.3124908 H 15 V 8.000199 c 0,0.2864617 -0.03433,0.550634 -0.249901,0.7499781 l -2.280354,2.2811829 2.249116,2.249935 C 14.906975,13.469459 14.999992,13.734731 15,14.000024 v 0.99997 h -0.999607 c -0.265196,-10e-6 -0.530377,-0.0931 -0.718467,-0.281241 l -2.280353,-2.281184 -2.2803538,2.281184 c -0.18809,0.188184 -0.4532818,0.281241 -0.7184675,0.281241 h -0.999607 v -0.99997 c -2.9e-6,-0.265283 0.093024,-0.530565 0.2811395,-0.718729 L 9.5646376,11.03136 7.2842842,8.7501771 C 7.073625,8.5555528 6.9812434,8.2809408 7.0031447,8.000199 Z"/>
 </g>
</svg>
