<svg xmlns="http://www.w3.org/2000/svg" width="24" height="24" version="1.1">
 <g transform="translate(0,2)">
  <rect style="opacity:0.001" width="22" height="22" x="0" y="0"/>
  <circle style="opacity:0.08;fill:#ffffff" cx="12" cy="10" r="12"/>
  <path style="fill:#dfdfdf" d="m 8.0031445,6.0002341 h 0.999607 c 0.010366,-1.2e-4 0.020782,-4.6e-4 0.031238,0 0.2548508,0.0112 0.5096696,0.1285762 0.6872298,0.3124908 l 2.2803537,2.2811834 2.311591,-2.2811834 c 0.26552,-0.2304932 0.446496,-0.305491 0.687229,-0.3124908 H 16 v 0.9999707 c 0,0.2864617 -0.03433,0.550634 -0.249901,0.7499781 l -2.280354,2.2811831 2.249116,2.249935 C 15.906975,12.469465 15.999992,12.734737 16,13.00003 V 14 h -0.999607 c -0.265196,-10e-6 -0.530377,-0.0931 -0.718467,-0.281241 L 12.001573,11.437575 9.721219,13.718759 C 9.533129,13.906943 9.2679372,14 9.0027515,14 h -0.999607 v -0.99997 c -2.9e-6,-0.265283 0.093024,-0.530565 0.2811395,-0.718729 L 10.564637,10.031366 8.284284,7.7501829 C 8.0736248,7.5555586 7.9812432,7.2809466 8.0031445,7.0002048 Z"/>
 </g>
</svg>
