<?xml version="1.0" encoding="UTF-8" standalone="no"?>
<svg
   xmlns:dc="http://purl.org/dc/elements/1.1/"
   xmlns:cc="http://creativecommons.org/ns#"
   xmlns:rdf="http://www.w3.org/1999/02/22-rdf-syntax-ns#"
   xmlns:svg="http://www.w3.org/2000/svg"
   xmlns="http://www.w3.org/2000/svg"
   xmlns:sodipodi="http://sodipodi.sourceforge.net/DTD/sodipodi-0.dtd"
   xmlns:inkscape="http://www.inkscape.org/namespaces/inkscape"
   width="22"
   height="22"
   version="1.1"
   id="svg176"
   sodipodi:docname="system-shutdown.svg"
   inkscape:version="0.92.5 (2060ec1f9f, 2020-04-08)">
  <metadata
     id="metadata182">
    <rdf:RDF>
      <cc:Work
         rdf:about="">
        <dc:format>image/svg+xml</dc:format>
        <dc:type
           rdf:resource="http://purl.org/dc/dcmitype/StillImage" />
        <dc:title></dc:title>
      </cc:Work>
    </rdf:RDF>
  </metadata>
  <defs
     id="defs180" />
  <sodipodi:namedview
     pagecolor="#ffffff"
     bordercolor="#666666"
     borderopacity="1"
     objecttolerance="10"
     gridtolerance="10"
     guidetolerance="10"
     inkscape:pageopacity="0"
     inkscape:pageshadow="2"
     inkscape:window-width="1920"
     inkscape:window-height="1022"
     id="namedview178"
     showgrid="false"
     inkscape:zoom="2.13"
     inkscape:cx="16"
     inkscape:cy="16"
     inkscape:window-x="0"
     inkscape:window-y="26"
     inkscape:window-maximized="1"
     inkscape:current-layer="svg176" />
  <g
     id="22-22-system-shutdown"
     transform="translate(-5,-5)">
    <rect
       style="opacity:0.00100002"
       width="22"
       height="22"
       x="5"
       y="5"
       id="rect32" />
    <path
       style="fill:#dfdfdf"
       d="M 15.985352,7.9999031 A 1.0001,0.9966092 0 0 0 15,9.0096686 V 14.98916 a 1.0001,0.9966092 0 1 0 2,0 V 9.0096686 A 1.0001,0.9966092 0 0 0 15.985352,7.9999031 Z m -3.356446,2.0009759 a 1.0001608,1.0010221 0 0 0 -0.533203,0.176758 c -2.5474257,1.713274 -3.6839537,4.900139 -2.7968747,7.840821 0.8870797,2.940681 3.5949607,4.965361 6.6640627,4.981445 3.069102,0.01609 5.798998,-1.979911 6.716797,-4.911133 0.917799,-2.931224 -0.185483,-6.129262 -2.714843,-7.869141 a 1.0001608,1.0010221 0 1 0 -1.132814,1.648437 c 1.812622,1.246854 2.597178,3.521463 1.939454,5.622071 -0.657724,2.100608 -2.598436,3.519339 -4.797852,3.507813 -2.199416,-0.01152 -4.124056,-1.450231 -4.759766,-3.557618 -0.635709,-2.107387 0.171503,-4.373776 1.997071,-5.601563 a 1.0001608,1.0010221 0 0 0 -0.582032,-1.83789 z"
       id="path34"
       inkscape:connector-curvature="0" />
  </g>
</svg>
