<?xml version="1.0" encoding="UTF-8" standalone="no"?>
<svg
   xmlns:dc="http://purl.org/dc/elements/1.1/"
   xmlns:cc="http://creativecommons.org/ns#"
   xmlns:rdf="http://www.w3.org/1999/02/22-rdf-syntax-ns#"
   xmlns:svg="http://www.w3.org/2000/svg"
   xmlns="http://www.w3.org/2000/svg"
   xmlns:sodipodi="http://sodipodi.sourceforge.net/DTD/sodipodi-0.dtd"
   xmlns:inkscape="http://www.inkscape.org/namespaces/inkscape"
   width="22"
   height="22"
   version="1.1"
   id="svg176"
   sodipodi:docname="system-reboot.svg"
   inkscape:version="0.92.5 (2060ec1f9f, 2020-04-08)">
  <metadata
     id="metadata182">
    <rdf:RDF>
      <cc:Work
         rdf:about="">
        <dc:format>image/svg+xml</dc:format>
        <dc:type
           rdf:resource="http://purl.org/dc/dcmitype/StillImage" />
        <dc:title></dc:title>
      </cc:Work>
    </rdf:RDF>
  </metadata>
  <defs
     id="defs180" />
  <sodipodi:namedview
     pagecolor="#ffffff"
     bordercolor="#666666"
     borderopacity="1"
     objecttolerance="10"
     gridtolerance="10"
     guidetolerance="10"
     inkscape:pageopacity="0"
     inkscape:pageshadow="2"
     inkscape:window-width="1920"
     inkscape:window-height="1022"
     id="namedview178"
     showgrid="false"
     inkscape:zoom="2.13"
     inkscape:cx="16"
     inkscape:cy="16"
     inkscape:window-x="0"
     inkscape:window-y="26"
     inkscape:window-maximized="1"
     inkscape:current-layer="svg176" />
  <g
     id="22-22-system-reboot"
     transform="translate(-5,-5)">
    <rect
       style="opacity:0.00100002"
       width="22"
       height="22"
       x="5"
       y="5"
       id="rect37" />
    <path
       style="fill:#dfdfdf"
       d="m 16.015625,9 a 1.0001,1.0001 0 1 0 -0.0039,2 c 1.397778,0.0024 2.730544,0.589407 3.675775,1.619141 0.850536,0.926572 1.310887,2.133499 1.310547,3.380859 h -1.994141 l 1.5,2 1.5,2 1.5,-2 1.5,-2 H 22.998047 C 22.997824,14.254653 22.349711,12.561524 21.160156,11.265625 19.837636,9.824874 17.971338,9.003413 16.015625,9 Z M 10,12 8.5,14 7,16 h 2.0058594 c 2.232e-4,1.745347 0.6483363,3.438476 1.8378906,4.734375 1.32252,1.440752 3.188818,2.262212 5.144531,2.265625 a 1.0001,1.0001 0 1 0 0.0039,-2 C 14.594406,20.99756 13.261637,20.410593 12.316406,19.380859 11.46587,18.454287 11.005519,17.24736 11.005859,16 H 13 l -1.5,-2 z"
       id="path39"
       inkscape:connector-curvature="0" />
  </g>
</svg>
